<?xml version="1.0" encoding="utf-8"?>
<!-- Generator: Adobe Illustrator 25.2.3, SVG Export Plug-In . SVG Version: 6.00 Build 0)  -->
<svg version="1.1" xmlns="http://www.w3.org/2000/svg" xmlns:xlink="http://www.w3.org/1999/xlink" x="0px" y="0px"
	 viewBox="0 0 499 462" style="enable-background:new 0 0 499 462;" xml:space="preserve">
<style type="text/css">
	.st0{display:none;}
	.st1{display:inline;}
	.st2{display:inline;fill:#FFFFFF;}
	.st3{opacity:0.68;}
	.st4{fill:#8F7458;}
	.st5{display:inline;fill:#5E3616;}
	.st6{fill:none;stroke:#5E3616;stroke-miterlimit:10;}
	.st7{display:none;fill:none;stroke:#8F7458;stroke-width:10;stroke-miterlimit:10;}
	.st8{fill:#9E6900;}
	.st9{fill:#E6BF77;}
	.st10{fill:#FFFAFA;}
	.st11{fill:#FFFFFF;}
	.st12{fill:#FFC543;stroke:#E09200;stroke-miterlimit:10;}
	.st13{fill:#FFC043;}
	.st14{fill:#F2E9AF;stroke:#5E3616;stroke-width:2;stroke-miterlimit:10;}
	.st15{display:inline;fill:none;stroke:#FF0000;stroke-miterlimit:10;}
</style>
<g id="Layer_24" class="st0">
	<g class="st1">
		<rect x="-64.5" y="-46.5" width="669" height="587"/>
		<path d="M604-46v586H-64V-46H604 M605-47H-65v588h670V-47L605-47z"/>
	</g>
</g>
<g id="guitar">
	<g class="st0">
		<path class="st1" d="M193.5,326c0.7-5.3,1.3-10.3,2.1-15.3c0.4-2.4,3.7-7.1,5.6-8.8c12.7-11.5,11.3-30.4-3.1-39.9
			c-0.5-0.3-0.9-0.7-0.8-1.7c1.6,1.2,3.4,2.2,4.7,3.7c1.6,1.7,3.3,2,5.5,1.4c4.8-1.4,9.8-2.6,14.6-4c2.9-0.9,5.3-0.3,7.3,1.7
			c2.2,2.2,2.2,4.8,0.9,7.4c-2.5,5.1-4.4,10.4-2.9,16c1.2,4.4,3.3,8.6,4.6,13c1.7,5.6,3.5,11.3,4.5,17c1.7,9.9-6.4,16.2-16.5,13.4
			c-5.1-1.4-10.2-2.9-15.4-3.9C201.5,325.6,198,326,193.5,326z"/>
		<path class="st1" d="M178.6,72c-0.1,1-0.1,2.1-0.2,4c-1.1-0.9-2.2-1.4-2.3-1.9c-0.2-4.5-0.2-9-0.1-13.5c0-0.5,1.2-0.9,1.3-1.4
			c0.1-1.2,0.2-2.6-0.3-3.7c-0.2-0.5-2-0.7-2.8-0.5c-1,0.3-1.7,1.3-2.6,2.4c3.8-0.2,4.3,1.7,4.2,4.3c-0.2,4.4,0,8.7,0,13.1
			c-0.3,0-0.6,0.1-0.9,0.1c-0.7-3-1-6.2-2.1-9c-1.1-3-3-5.7-4.7-8.9c-1.3-0.1-3.2-0.1-5.1-0.4c-1-0.2-2.3-0.8-2.7-1.5
			c-0.3-0.6,0.6-2.3,1.2-2.4c1.2-0.2,2.7,0.1,3.9,0.7c1,0.4,1.6,1.5,2.4,2.2c0.3-0.2,0.6-0.3,0.9-0.5c0-4.3,0-8.6,0-13.2
			c-3-0.3-6.1-0.6-10.3-1c1.5-1.7,2.2-3.2,3.3-3.5c0.9-0.3,2.3,0.8,3.5,1.3c1,0.4,1.9,1,3.9,2c-0.6-5.2-0.6-9.5-1.7-13.5
			c-0.3-1.3-3.4-1.9-5.3-2.6c-0.9-0.3-2.1-0.1-3.2-0.1c-1.5-1.8-2-3-1.6-3.5c0.7-0.9,3.8,0,9.4,2.6c-0.1-1.2,0-2.3-0.2-3.4
			c-2.6-5-1.3-6.9,5.7-8.8c1.9-0.5,3.5-1.9,5-3.2c2.9-2.4,6.8-2.9,10-0.9c3.4,2,6.6,4.5,10.1,6c2.5,1.1,2.8,2.4,2.4,4.5
			c-0.3,1.8-0.5,3.7-0.8,5.9c5.9-3.5,6.8-3.4,7.5,1c-2.7,0.3-5.3,0.7-8.2,1c-0.4,4.6-0.7,8.9-1.1,14.1c1.6-0.6,2.5-1.1,3.4-1.4
			c1.3-0.5,2.7-1.4,3.9-1.2c0.9,0.2,1.5,1.8,2.4,3.1c-3.6,0.4-6.5,0.8-9.5,1.2c0,4.5,0,9,0,14.4c1.5-1,2.2-1.7,3.1-2
			c1.1-0.4,2.4-0.7,3.6-0.6c0.6,0.1,1.3,1.1,1.6,1.9c0.2,0.5-0.4,1.7-0.7,1.7c-2.4,0.1-4.7,0.1-7.2,0.1c-1.4,3.3-3.5,7-4.6,10.9
			c-2.2,7.8-2,7.8-10.7,7.6C179.8,75.4,178.1,75.1,178.6,72z M175.9,43.8c0,0,0.4-0.7,0.4-1.4c-0.1-1.1-0.5-2.2-0.7-3.3
			c-1.4,0.5-2.9,1-4.3,1.5c0.5,0.6,0.8,1.4,1.4,1.8C173.7,43,174.9,43.4,175.9,43.8z M191,56.5c0.6,0.8,1.1,1.4,1.7,2
			c0.1,0.1,1.2-0.6,1.2-0.9c0-0.8-0.1-2.3-0.5-2.4c-1.2-0.3-2.6-0.3-3.8,0c-0.4,0.1-0.4,1.6-0.7,2.5c0.3,0.1,0.6,0.2,0.9,0.3
			C190.3,57.4,190.7,56.9,191,56.5z M191.9,41.1c0.3,0.4,0.9,1,1.4,1.6c0.4-0.6,1.2-1.3,1.1-1.9c-0.2-0.7-0.9-1.6-1.6-1.9
			c-0.6-0.3-1.7,0.1-2.4,0.4c-0.6,0.3-1.1,0.9-1.4,1.5c-0.1,0.3,0.6,1.2,0.8,1.2C190.5,41.9,191.1,41.5,191.9,41.1z M175.2,22.5
			c-1.8,0.8-3.2,1.5-4.6,2.1c1.4,0.9,2.7,1.8,4.1,2.7c0.3-0.2,0.6-0.5,0.9-0.7C175.6,25.4,175.4,24.3,175.2,22.5z M194.6,23
			c-0.5-0.3-1-0.5-1.6-0.8c-1.1,1.1-2.2,2.1-3.3,3.2c1.3,0.4,2.6,0.8,3.9,1.2C193.9,25.4,194.3,24.2,194.6,23z"/>
		<path class="st1" d="M171.7,259.6c0.7,1,1.4,2,1.9,2.7c0.1-0.4,0.2-1.5,0.3-2.6c1.3,0,2.4,0,3.7,0c0.1,1.2,0.3,2.2,0.4,3.3
			c0.1-1,0.2-2,0.3-3.3c2.4,0,4.8,0,7.4,0c0.1,1.1,0.3,2.2,0.4,3c0.1-0.7,0.1-1.8,0.3-3.1c1.8,0,3.4-0.1,5.1,0
			c1.4,0.2,3.9,0.5,4.1,1.1c0.4,1.6-0.3,3.4-0.7,5.7c6.3,4,9.6,10.3,9.3,18.4c-0.3,7.7-7,15.7-14.8,17.3c-1.6,0.3-3.4-0.1-5.1-0.3
			c-1.5-0.2-3-0.4-4.4-0.8c-0.8-0.2-1.5-0.8-2.2-1.2c0.8-0.5,1.6-1.3,2.4-1.3c4.1-0.1,8.3-0.1,11.7-0.1c-0.5-4.7-0.9-8.8-1.4-13.5
			c-0.2,1.4-0.3,2.2-0.5,4c-1.6-4.2-2.9-7.4-3.9-10c0,0-0.2,0.9-0.4,1.7c-0.3,0.1-0.6,0.3-0.9,0.4c-0.8-1.3-1.6-2.5-2.6-4.1
			c-2,0.7-3.9,0.5-4-2.1c-0.9,0.9-1.8,1.7-2.7,2.6c-0.7-1.5-1.5-2.9-2.2-4.5c-0.5,4.2-3.7,4.3-7.1,3.9c-0.9,1.2-1.6,2.3-2.4,3.4
			c-0.3-0.1-0.6-0.1-0.9-0.2c0-1.2-0.5-2.7,0.1-3.6c1.7-2.9,3.3-6,5.7-8.2c2.3-2,3.4-3.8,3.2-6.6c-0.1-0.7,0.2-1.3,0.4-2
			C171.8,259.5,171.7,259.6,171.7,259.6z"/>
		<path class="st1" d="M171.7,340.5c0,1.2,0,2.3,0,3.5c-1.3,0.3-2.5,0.5-3.7,0.8c0,0.2,0,0.4,0,0.6c1.1,0.1,2.2,0.2,3.9,0.3
			c-0.2,1.5-0.5,3-0.6,4.5c0,0.7,0.2,1.4,0.5,2c0.1,0.2,1.5-0.1,1.5-0.2c0.1-0.7-0.1-1.4-0.2-2.1c-0.3-1.4-0.7-2.7-1.1-4.3
			c1.9-0.1,3.2-0.2,5.2-0.3c-0.4,1.7-0.7,3-0.9,4.4c-0.1,0.8-0.1,1.6,0.1,2.3c0,0.1,1.5,0.1,1.5,0c0.2-0.7,0.2-1.4,0.1-2.1
			c-0.2-1.5-0.6-3-0.9-4.8c7.7-0.6,14.9-1.2,22-1.8c0-0.3,0-0.7,0-1c-4,0.2-8,0.5-12.1,0.7c-0.2-0.4-0.4-0.8-0.6-1.1
			c0.9-0.6,1.8-1.7,2.7-1.7c8.7-0.2,17.5-0.3,26.2-0.3c3.6,0,4.4,1,4.3,5.2c-0.1,2.6-0.4,4.6-4.2,5.2c-6.4,1.1-12.6,3-18.8,4.9
			c-9.1,2.8-18.1,2.7-27.2-0.1c-5.9-1.8-11.5-4.2-18-4c-3.4,0.2-3.3-2.8-3.5-5c-0.4-4.9,0.2-5.5,5.1-5.5
			C159.2,340.5,165.2,340.5,171.7,340.5z"/>
		<path class="st1" d="M177.9,190.1c0,0.7,0.2,1.4,0,2.1c-0.3,0.7-0.9,1.3-1.4,1.9c-0.6-0.7-1.7-1.3-1.8-2
			c-0.1-4.6-0.1-9.2,0.1-13.8c0-0.7,1.6-1.9,2.5-1.9c4.3-0.2,8.6,0,12.9-0.1c2.4-0.1,3.7,0.5,3.8,3.2c0.1,5,0.3,5-5.2,5.9
			c5.7,0.1,5.9,0.4,5.2,8.6c-2.6-0.2-5.2-0.4-7.9-0.6c-1.3-0.1-2.7-0.5-4-0.3C178.3,194,178.3,194.1,177.9,190.1z"/>
		<path class="st1" d="M185.2,160.6c-0.5-0.4-1.2-0.7-1.6-1.2c-0.5-0.7-1.1-1.7-1.1-2.5c0-0.4,1.3-0.9,2.1-1.1
			c0.6-0.2,1.4-0.1,2.1-0.1c6.2-0.3,9,3.3,6.8,8.9c-0.2,0.6-1,0.9-1.5,1.3c1.4,1.3,2.6,7.9,1.5,9.2c-0.4,0.5-1.2,0.7-1.9,0.8
			c-8,1.4-9.6,0.1-9.2-7.6c0-0.9,0-1.8,0.2-2.7c0.4-1.6,0.9-3.2,1.4-4.7C184.4,160.8,184.8,160.7,185.2,160.6z"/>
		<path class="st1" d="M188.4,98.7c0-1.9,0-3.8,0-5.9c2.5-0.4,4,0.1,3.8,2.7c-0.1,2.3-0.1,4.6,0,6.9c0.2,2.6-0.6,4.3-4,4.2
			c3.9,0,4.7,2,4.4,5c-0.2,1.4-0.1,2.8,0.1,4.1c0.4,3-0.7,4-4,4.1c-3,0.1-3.5-1-3.4-3.4c0.1-6.9,0-13.8,0.1-20.7
			c0-1,0.9-2.1,1.3-3.1c0.5,1,1.1,2,1.4,3.1c0.2,0.9,0,1.8,0,2.8C188.2,98.6,188.3,98.7,188.4,98.7z"/>
		<path class="st1" d="M185.5,211.2c0,6.8,0,13.2,0,20c-2.2,0-4.5,0-7.3,0c0-3.9-0.2-7.7,0.2-11.5c0.1-0.8,2.2-1.5,3-1.9
			c-0.4,0-1.6-0.1-2.9-0.2c0-2.1,0-4.1,0-6.3C180.8,211.2,183.3,211.2,185.5,211.2z"/>
		<path class="st1" d="M186.1,202.4c0-1.8,0-3.2,0-4.5c-0.4,4.3-0.4,4.3-3.6,4.3c-0.1-1.4-0.2-2.9-0.3-4c0,0.7,0.1,1.8-0.2,2.7
			c-0.3,0.7-1.3,1.4-2,1.4c-0.6,0-1.6-0.9-1.8-1.6c-0.3-1.3-0.4-2.8,0-4.1c0.3-0.9,1.5-2,2.4-2.1c3.3-0.3,6.7,0,10-0.2
			c3.8-0.2,3.4,2.2,3.6,4.6c0.2,2.6-0.9,3.6-3.5,3.4C189.4,202.3,188,202.4,186.1,202.4z"/>
		<path class="st1" d="M189.2,144.9c2.8-0.6,4.3,0.1,4.2,2.8c-0.2,8.4,1.6,7.5-7.7,7.5c-0.9,0-1.9,0-3.4,0c0-3.1-0.1-6,0.1-9
			c0-0.6,0.9-1.1,1.3-1.6c0.4,0.6,1.2,1.1,1.3,1.8c0.2,1.4,0.1,2.7,0.3,4.1c0-1.4-0.2-2.8,0.1-4.2c0.1-0.6,1.1-1.1,1.7-1.7
			c0.5,0.6,1.5,1.2,1.6,1.8c0.2,2,0.1,4.1,0.5,6.2C189.2,150,189.2,147.4,189.2,144.9z"/>
		<path class="st1" d="M186,202.8c2.3,0,4-0.1,5.8,0c2,0.1,2.7,1.1,2.6,3c-0.1,2.7-0.2,5.4,0.1,8c0.4,3.1-0.9,4.2-4.1,3.9
			c-1.3-0.1-2.6,0-4.2,0c0-2.2,0-4.2,0-6.8c1.3,0.3,2.4,0.6,3.8,1c1.3-0.8-2-4.1,1.7-4.7c-0.3-0.5-0.5-1.1-0.8-1.6
			c-0.6,0.3-1.4,0.5-1.6,0.9c-0.3,0.6,0.2,1.4,0,2c-0.3,0.7-1,1.3-1.5,1.9c-0.6-0.7-1.7-1.3-1.8-2C185.8,206.7,186,205,186,202.8z"
			/>
		<path class="st1" d="M178.4,92.6c0.3,13.1-0.1,26.2,0.1,39.4c-0.4,0.2-0.8,0.4-1.2,0.6c-0.6-0.9-1.8-1.8-1.8-2.7
			c0-7.2,0.2-14.5,0.4-21.7c0.1-4,0.1-8,0.2-12.1c0-1.2,0.4-2.4,0.7-3.6C177.3,92.6,177.8,92.6,178.4,92.6z"/>
		<path class="st1" d="M178.8,173.3c0-5-0.1-10.1,0.1-15.1c0-0.8,1.1-1.6,1.7-2.5c0.5,0.8,1.5,1.5,1.5,2.3c0.2,5,0.1,10,0.2,15.1
			c0,2.1-0.7,3.2-3.2,2.8c-2-0.3-4.7,0.9-4.3-2.7c0.2-1.7,0-3.5,0.3-5.1c0.1-0.6,1.2-1.5,1.5-1.4c0.7,0.2,1.7,1,1.8,1.6
			c0.2,1.7,0.1,3.4,0.1,5.1C178.5,173.4,178.6,173.4,178.8,173.3z"/>
		<path class="st1" d="M192.8,132c-2.1,0.1-4,0.4-5.8,0.2c-0.6-0.1-1.5-1.3-1.6-2.1c-0.2-1.8-0.1-3.7-0.1-5.5c0-4.5,0.5-5,5.2-4.2
			c0.9,0.2,2.2,1.4,2.3,2.3C193,125.7,192.8,128.6,192.8,132z"/>
		<path class="st1" d="M189.1,143.7c0-2.6,0-5.2,0-7.8c-0.2,0-0.3,0-0.5,0c0,2.6,0,5.2,0,8c-2,0-3.8,0-6.3,0
			c0.3-1.5,0.6-2.8,0.9-4.2c0.7,0.3,1.5,0.7,2.1,0.9c0-0.9,0.2-2.4,0-3.8c-0.5-3.4,1-4.4,4.4-4.2c2.5,0.2,3.5,1,3.3,3.3
			c-0.1,1.6-0.1,3.2,0.1,4.8C193.6,143.8,192.1,144.4,189.1,143.7z"/>
		<path class="st1" d="M188.4,89c0-3.5,0-7.1,0-10.6c2.6-0.6,3.7,0.2,3.6,2.5c-0.1,2.3-0.2,4.6,0.1,6.9c0.3,3.2-0.5,4.9-4.3,4.3
			c-0.6-0.1-1.2,0-2.5,0c0-4.3,0-8.7,0.1-13c0-0.4,0.9-0.7,1.4-1.1c0.4,0.6,1.1,1.3,1.1,1.9c0.1,3,0.1,6,0.1,9
			C188.2,89,188.3,89,188.4,89z"/>
		<path class="st1" d="M176.1,84.5c0-1.3,0-2.5,0-3.8c0.1-1.8-0.5-3.8,3-2.1c2.7,1.3,3,0.7,3,3.9c0,2.7,0.1,5.3-0.1,7.9
			c-0.1,0.6-1.4,1.8-1.8,1.6c-0.9-0.2-1.7-1.5-2.5,0.1c-0.5-0.6-1.4-1.2-1.5-1.8C176,88.4,176.1,86.4,176.1,84.5
			C176.1,84.5,176.1,84.5,176.1,84.5z"/>
		<path class="st1" d="M179,106.7c0-3.8-0.1-7.6,0.1-11.4c0-0.9,1.1-1.8,1.6-2.7c0.5,0.9,1.4,1.7,1.4,2.6c0.1,7.3,0.1,14.7,0,22
			c0,0.9-1,1.7-1.5,2.6c-0.6-0.8-1.6-1.6-1.6-2.5C178.8,113.8,178.9,110.3,179,106.7C178.9,106.7,178.9,106.7,179,106.7z"/>
		<path class="st1" d="M185.8,254.1c-2.8,0-5.1,0-7.7,0c0-3-0.1-5.8,0.1-8.6c0-0.6,1.2-1.4,2-1.7c1-0.3,2.2-0.3,3.1,0
			c1,0.4,2.3,1.3,2.4,2C186,248.4,185.8,251.1,185.8,254.1z"/>
		<path class="st1" d="M177.7,231.1c-2.3,0.5-4,0.7-3.9-2c0.2-5.4,0.3-10.8,0.6-16.2c0-0.7,1.1-1.3,1.7-2c0.5,0.6,1.5,1.2,1.5,1.8
			C177.8,218.8,177.7,225,177.7,231.1z"/>
		<path class="st1" d="M178.4,143.6c0,3.1,0.1,6.2-0.1,9.3c-0.1,0.8-1.1,1.6-1.7,2.4c-0.5-0.8-1.3-1.6-1.4-2.4c-0.1-6,0-12,0.2-17.9
			c0-0.7,1-1.5,1.5-2.2c0.5,0.7,1.4,1.5,1.4,2.3C178.6,137.9,178.5,140.8,178.4,143.6C178.4,143.6,178.4,143.6,178.4,143.6z"/>
		<path class="st1" d="M173.7,238.1c1.6,0,2.5,0,3.5,0c0.2,0.4,0.4,0.7,0.4,1c0.1,4.3,0.2,8.6,0,12.9c0,0.8-1.2,1.5-1.8,2.3
			c-0.7-0.7-2.1-1.3-2.1-2C173.6,247.6,173.7,243,173.7,238.1z"/>
		<path class="st1" d="M182,203.1c4.6-1.4,3.9,1.8,3.8,4.3c0,1.4,0.4,3.3-2.1,3.3c-5.8,0-5.7,0-5.7-4.2
			C178.1,203.8,178.4,201.8,182,203.1z"/>
		<path class="st1" d="M190.5,231.3c-4.4-0.1-4.9-0.7-4.4-4.4c0.4-3.5,3.3-1.6,4.8-1.8c3.5-0.5,4.7,0.8,4.3,4
			C194.7,232.4,191.9,231,190.5,231.3z"/>
		<path class="st1" d="M186.6,231.3c2.7,2.3,7.7-2.6,8.6,3.4c0.4,2.8-1.5,3.5-7.1,3C185.8,237.5,185.6,236.7,186.6,231.3z"/>
		<path class="st1" d="M185.6,254.3c0.6-2,0.8-4.6,1.5-4.7c2.5-0.4,5.2-0.1,7.7,0.2c0.3,0,0.8,1.9,0.5,2.7c-0.3,0.7-1.4,1.6-2.3,1.6
			C190.9,254.4,188.8,254.3,185.6,254.3z"/>
		<path class="st1" d="M185.7,248.7c0.5-1.9,0.7-4.5,1.3-4.6c2.5-0.4,5.2-0.1,7.7,0.2c0.3,0,0.7,1.9,0.5,2.8
			c-0.1,0.6-1.1,1.5-1.8,1.6C191.2,248.8,188.9,248.7,185.7,248.7z"/>
		<path class="st1" d="M186.2,243.2c0-1.8,0-3.2,0-4.9c2.9,0,5.8,0,8.7,0c0.7,4.8,0.5,5-4.2,4.9
			C189.3,243.2,187.9,243.2,186.2,243.2z"/>
		<path class="st1" d="M183.7,112.4c-0.4-0.9-1.2-1.9-1.3-2.8c-0.1-4.8-0.1-9.6,0-14.4c0-0.9,1-1.7,1.5-2.5c0.4,0.8,1.1,1.6,1.1,2.5
			c0.1,5.6,0.1,11.2,0.1,16.8C184.7,112,184.2,112.2,183.7,112.4z"/>
		<path class="st1" d="M178.4,231.9c2.4,0,4.7,0,7.2,0c0,1.9,0,3.6,0,5.6c-2.4,0-4.6,0-7.2,0C178.4,235.8,178.4,234,178.4,231.9z"/>
		<path class="st1" d="M195,254.9c1.3,3.2,0.1,4.4-3.2,4.3c-1.8-0.1-3.6,0-5.6,0c0-1.5,0-2.8,0-4.3
			C189.2,254.9,192.1,254.9,195,254.9z"/>
		<path class="st1" d="M159.5,268.9c-5.7,9.6-5.8,19.1-0.6,29c-1.1-2.2-2.4-4.2-3.2-6.5c-2.2-6.6-1.9-13.1,1.2-19.4
			C157.5,270.8,158.7,270,159.5,268.9L159.5,268.9z"/>
		<path class="st1" d="M178.3,238.1c2.5,0,4.8,0,7.3,0c0,1.6,0,3.1,0,4.9c-2.4,0-4.7,0-7.3,0C178.3,241.5,178.3,240,178.3,238.1z"/>
		<path class="st1" d="M178.9,131.9c0-3.3-0.1-6.6,0.1-9.9c0-0.6,1.1-1.1,1.7-1.7c0.5,0.5,1.4,1.1,1.4,1.6c0.1,3,0.2,6-0.1,8.9
			c-0.1,0.7-1.4,1.2-2.2,1.8C179.5,132.4,179.2,132.2,178.9,131.9z"/>
		<path class="st1" d="M182.2,138.6c0,1.1,0.2,2.3-0.1,3.4c-0.2,0.8-1.1,1.4-1.7,2.1c-0.5-0.6-1.4-1.2-1.5-1.9
			c-0.2-2.5-0.2-5.1,0-7.6c0-0.7,0.9-1.3,1.4-1.9c0.6,0.7,1.5,1.3,1.7,2.1C182.4,136.1,182.1,137.4,182.2,138.6
			C182.2,138.6,182.2,138.6,182.2,138.6z"/>
		<path class="st1" d="M185.1,85c0,1.8,0.1,3.7-0.1,5.5c-0.1,0.6-0.9,1.1-1.3,1.6c-0.4-0.6-1.2-1.1-1.3-1.7c-0.1-3.7-0.1-7.4,0-11.1
			c0-0.5,0.7-1,1.1-1.5c0.5,0.5,1.3,1,1.4,1.5C185.2,81.3,185.1,83.2,185.1,85C185.1,85,185.1,85,185.1,85z"/>
		<path class="st1" d="M195.8,224.3c-2.7,0.1-4.2,0.2-6.3,0.3c0.3-2.3,0.4-4.3,0.9-6.2c0.1-0.3,2.6-0.4,2.9,0
			C194.2,220,194.8,221.8,195.8,224.3z"/>
		<path class="st1" d="M178.2,149.4c0.7-1.6,1.6-4.7,2.1-4.6c3.3,0.4,1.4,3.1,1.8,4.9c0.3,1.2,0.2,2.5-0.1,3.8
			c-0.2,0.7-1.1,1.2-1.6,1.8c-0.5-0.6-1.4-1.2-1.6-1.8c-0.3-1.2-0.1-2.5-0.1-3.8C178.6,149.6,178.4,149.5,178.2,149.4z"/>
		<path class="st1" d="M179.4,160.9c-1,1.9-1.9,3.5-2.8,5c-0.5-1.7-1.4-3.4-1.3-5.1c0-1.7,1-3.3,1.6-5
			C177.6,157.4,178.4,158.9,179.4,160.9z"/>
		<path class="st1" d="M185.7,254.8c0,1.5,0,2.7,0,4.2c-2.5,0-4.8,0-7.4,0c0-1.4,0-2.7,0-4.2C180.7,254.8,183,254.8,185.7,254.8z"/>
		<path class="st1" d="M179.1,343.7c-0.3-0.3-1-1-1.7-1.7c0.9-0.7,1.6-1.7,2.6-2c1.3-0.3,2.9-0.2,4.2,0c0.8,0.2,1.5,1,2.2,1.6
			c-0.6,0.5-1.2,1.4-1.9,1.6C183.1,343.5,181.5,343.5,179.1,343.7z"/>
		<path class="st1" d="M185.1,126.5c0,1.5,0.1,3-0.1,4.4c-0.1,0.5-0.8,0.9-1.2,1.3c-0.4-0.4-1.3-0.9-1.3-1.3c-0.1-3.1-0.1-6.2,0-9.2
			c0-0.5,0.9-1,1.4-1.5c0.4,0.5,1.1,0.9,1.1,1.4C185.2,123.3,185.1,124.9,185.1,126.5C185.1,126.5,185.1,126.5,185.1,126.5z"/>
		<path class="st1" d="M159.6,269c2.4-2.7,4.5-5.7,7.2-8.1c2.1-1.8,5.7-2.2,5.3-6.3c1.8,2.1,1.4,3.6-0.3,5c0,0,0.1-0.1,0.1-0.1
			C166.7,261.5,162.7,264.6,159.6,269C159.5,268.9,159.6,269,159.6,269z"/>
		<path class="st1" d="M177.8,198.3c0,0.9,0.2,1.9-0.1,2.7c-0.2,0.6-1,1.3-1.6,1.3c-0.5,0-1.5-0.8-1.5-1.3c-0.2-1.3-0.3-2.8,0-4.1
			c0.2-0.9,1.1-1.6,1.6-2.5c0.5,0.8,1.1,1.6,1.6,2.5C178,197.3,177.8,197.8,177.8,198.3C177.8,198.3,177.8,198.3,177.8,198.3z"/>
		<path class="st1" d="M172.1,253.7c0-5.1,0-10.2,0-15.3c0.3,0,0.6,0,0.9,0c0,5.1,0,10.2,0,15.3
			C172.7,253.7,172.4,253.7,172.1,253.7z"/>
		<path class="st1" d="M197.7,424.4c-8.5,0-17,0-25.5,0c0-0.1,0-0.2,0-0.4c8.5,0,17,0,25.5,0C197.7,424.1,197.7,424.2,197.7,424.4z"
			/>
		<path class="st1" d="M178.2,231.7c-0.6,2.4-1,4.1-1.5,5.8c-0.1,0.2-1.9,0.2-1.9,0.1c-0.5-1.7-0.8-3.5-1.3-5.5
			C175.1,231.9,176.1,231.8,178.2,231.7z"/>
		<path class="st1" d="M174.3,105.4c0-3.9,0-7.9,0-11.8c0.2,0,0.4,0,0.6,0c0,3.9,0,7.9,0,11.8C174.7,105.4,174.5,105.4,174.3,105.4z
			"/>
		<path class="st1" d="M185,221.5c1.3-1.5,2.1-2.4,2.9-3.4c0.6,1.1,1.5,2.3,1.6,3.4c0,1-1,2.1-1.5,3.1
			C187.1,223.7,186.3,222.8,185,221.5z"/>
		<path class="st1" d="M172.5,344.2c-0.1-2-1-3.9,1.9-4c0.8,0,2.3,0.9,2.4,1.6C177.4,344.8,174.8,344,172.5,344.2z"/>
		<path class="st1" d="M173.1,254.1c2.3,0.7,3.8,0.7,4.3,1.5c0.5,0.7,0.1,2.2-0.4,3.1c-0.2,0.4-2.1,0.5-2.2,0.3
			C174.2,257.8,173.9,256.5,173.1,254.1z"/>
		<path class="st1" d="M173.7,143.6c0-3.4,0-6.7,0-10.1c0.2,0,0.5,0,0.7,0c0,3.4,0,6.7,0,10.1C174.1,143.7,173.9,143.6,173.7,143.6z
			"/>
		<path class="st1" d="M173.6,154.6c0-3.1,0-6.1,0-9.2c0.2,0,0.4,0,0.6,0c0,3,0,6.1,0,9.1C174,154.6,173.8,154.6,173.6,154.6z"/>
		<path class="st2" d="M175.9,43.8c-1.1-0.5-2.2-0.8-3.2-1.5c-0.6-0.4-1-1.2-1.4-1.8c1.4-0.5,2.9-1,4.3-1.5c0.3,1.1,0.7,2.2,0.7,3.3
			C176.4,43.1,175.9,43.9,175.9,43.8z"/>
		<path class="st2" d="M191,56.5c-0.3,0.4-0.8,0.9-1.2,1.4c-0.3-0.1-0.6-0.2-0.9-0.3c0.2-0.9,0.2-2.3,0.7-2.5c1.2-0.4,2.6-0.3,3.8,0
			c0.4,0.1,0.6,1.6,0.5,2.4c0,0.3-1.2,1-1.2,0.9C192.1,58,191.6,57.3,191,56.5z"/>
		<path class="st2" d="M191.9,41.1c-0.8,0.4-1.4,0.8-2,0.9c-0.2,0-0.9-0.9-0.8-1.2c0.3-0.6,0.8-1.2,1.4-1.5c0.7-0.3,1.7-0.7,2.4-0.4
			c0.7,0.3,1.4,1.2,1.6,1.9c0.1,0.5-0.7,1.2-1.1,1.9C192.7,42.1,192.2,41.5,191.9,41.1z"/>
		<path class="st2" d="M175.2,22.5c0.2,1.8,0.4,2.9,0.5,4.1c-0.3,0.2-0.6,0.5-0.9,0.7c-1.4-0.9-2.7-1.8-4.1-2.7
			C172,24,173.4,23.4,175.2,22.5z"/>
		<path class="st2" d="M194.6,23c-0.3,1.2-0.7,2.4-1,3.5c-1.3-0.4-2.6-0.8-3.9-1.2c1.1-1.1,2.2-2.1,3.3-3.2
			C193.6,22.5,194.1,22.8,194.6,23z"/>
	</g>
	<g id="guitar_body" class="st3">
		<path class="st4" d="M161.2,84h20.6c0.7,0,1.4,0.5,1.4,1l1.2,135.2c0,2.8,0.7,5.6,2.1,8.2l0.3,0.6c0.4,0.7-0.3,1.4-1.2,1.4
			l-25.2,0.5l-2,0c-1,0-1.7-0.8-1.2-1.5l0,0c1.6-2.4,2.4-5.1,2.4-7.8L159.9,85C159.9,84.4,160.5,84,161.2,84z"/>
		<path class="st4" d="M166.6,88h9.1c3.7,0,7-1.4,8.2-3.6l7.8-14.3L196,30c0.2-1.4-0.9-2.8-2.9-3.6c-4.8-2-13.4-5.5-14.6-6.2
			c-4.4-2.7-13.2,0-13.2,0l-8.8,4l-6.1,2.4c-2.2,0.9-3.5,2.4-3.5,4l2.2,40.8l9.1,13.2C159.7,86.7,163,88,166.6,88z"/>
		<path class="st4" d="M193.2,40.8l7.3-1.9c1.2-0.3,1.8-1.8,1.3-3.1l-0.3-0.8c-0.4-0.9-1.3-1.3-2.2-0.9l-7,3.8L193.2,40.8z"/>
		<path class="st4" d="M190.7,56.6l7.3-1.9c1.2-0.3,1.8-1.8,1.3-3.1l-0.3-0.8c-0.4-0.9-1.3-1.3-2.2-0.9l-7,3.8L190.7,56.6z"/>
		<path class="st4" d="M189.1,70.4l7.3-1.9c1.2-0.3,1.8-1.8,1.3-3.1l-0.3-0.8c-0.4-0.9-1.3-1.3-2.2-0.9l-7,3.8L189.1,70.4z"/>
		<path class="st4" d="M150.5,39l-6.3-4.7c-1-0.8-2.4-0.2-2.8,1.1l-0.2,0.8c-0.3,1,0.1,2,1,2.4l7.3,3.1L150.5,39z"/>
		<path class="st4" d="M150.6,53.2l-6.3-4.7c-1-0.8-2.4-0.2-2.8,1.1l-0.2,0.8c-0.3,1,0.1,2,1,2.4l7.3,3.1L150.6,53.2z"/>
		<path class="st4" d="M151.1,68.2l-6.3-4.7c-1-0.8-2.4-0.2-2.8,1.1l-0.2,0.8c-0.3,1,0.1,2,1,2.4L150,71L151.1,68.2z"/>
		<path class="st4" d="M162.2,229.5c-20.1,0.7-25.1,2-29.9,4.1c-4.4,1.9-12.1,5.4-16.3,13.2c-2.8,5.1-2.8,9.6-2.8,16.7
			c0,12.1,3.1,15.3,3.4,27.5c0,1.3,0.2,7.8-1.2,15.5c-2.1,11.5-6,17.8-12,30.2c-7.9,16.4-11.9,24.6-13,31.1
			c-0.7,4.4-4,24.4,9.3,40.1c8.5,10.2,20.1,14,25.6,15.8c2.1,0.7,6.7,2.1,22.2,3.5c11.7,1.1,25.9,2.3,45.3,1.2
			c14.8-0.8,22.4-1.3,31.8-4.7c5.3-1.9,13.5-4.9,21.3-12.3c2.4-2.3,8.7-8.3,12-17.9c4.7-13.3,0.9-25.3-2.5-36
			c-1.8-5.7-5.6-13.8-13.3-29.9c-4.2-8.8-7.4-15.2-7.7-24.6c0-1.6,0.4-5.4,1.2-12.9c1.2-10.5,2.1-14.7,2.8-24c0.4-6,0.7-9,0.3-10.8
			c-2.2-10.9-11.8-17.3-14.2-18.7c-3.8-2.3-8.1-4-18.8-5.6C197.2,229.7,185.9,228.6,162.2,229.5z"/>
		<path class="st4" d="M159.3,229.5c-20.1,0.7-25.1,2-29.9,4.1c-4.4,1.9-12.1,5.4-16.3,13.2c-2.8,5.1-2.8,9.6-2.8,16.7
			c0,12.1,3.1,15.3,3.4,27.5c0,1.3,0.2,7.8-1.2,15.5c-2.1,11.5-6,17.8-12,30.2c-7.9,16.4-11.9,24.6-13,31.1
			c-0.7,4.4-4,24.4,9.3,40.1c8.5,10.2,20.1,14,25.6,15.8c2.1,0.7,6.7,2.1,22.2,3.5c11.7,1.1,25.9,2.3,45.3,1.2
			c14.8-0.8,22.4-1.3,31.8-4.7c5.3-1.9,13.5-4.9,21.3-12.3c2.4-2.3,8.7-8.3,12-17.9c4.7-13.3,0.9-25.3-2.5-36
			c-1.8-5.7-5.6-13.8-13.3-29.9c-4.2-8.8-7.4-15.2-7.7-24.6c0-1.6,0.4-5.4,1.2-12.9c1.2-10.5,2.1-14.7,2.8-24c0.4-6,0.7-9,0.3-10.8
			c-2.2-10.9-11.8-17.3-14.2-18.7c-3.8-2.3-8.1-4-18.8-5.6C194.3,229.7,183,228.6,159.3,229.5z"/>
	</g>
	<g id="Layer_15">
		<ellipse id="sound_hole_1_" cx="174" cy="287.8" rx="26.5" ry="31"/>
		<g id="knobs" class="st0">
			<ellipse class="st5" cx="157.4" cy="38.9" rx="3.1" ry="3"/>
			<ellipse class="st5" cx="157.5" cy="67.7" rx="3.1" ry="3"/>
			<ellipse class="st5" cx="182.1" cy="39" rx="3.1" ry="3"/>
			<ellipse class="st5" cx="180.1" cy="67.7" rx="3.1" ry="3"/>
			<ellipse class="st5" cx="181.1" cy="53.6" rx="3.1" ry="3"/>
			<ellipse class="st5" cx="157.5" cy="53.6" rx="3.1" ry="3"/>
		</g>
		<g id="strings">
			<line class="st6" x1="177.2" y1="261.5" x2="177.2" y2="322.2"/>
			<line class="st6" x1="174.5" y1="259.6" x2="174.5" y2="320.4"/>
			<line class="st6" x1="171.7" y1="261.2" x2="171.7" y2="321.9"/>
			<line class="st6" x1="168.8" y1="259.6" x2="168.8" y2="320.4"/>
			<line class="st6" x1="166" y1="259.6" x2="166" y2="320.4"/>
			<line class="st6" x1="163.1" y1="259.6" x2="163.1" y2="320.4"/>
		</g>
	</g>
	<ellipse class="st7" cx="178" cy="285.8" rx="33.7" ry="30.6"/>
</g>
<g id="top_scroll">
	<path class="st8" d="M448.2,63c-2.1-7.6-33.3-7.5-40.5-5.4c-30.8,8.8-61.8,14.7-92.6,23.3c-9.8,2.8-19.7,6.2-29.9,7.1
		c-6.1,0.5-19.7-0.2-25.6-2.2c-14.9-8.7-14.3-25.9-4.3-39.1c4.4-5.8,10-8.4,17.3-7.3c7.1,1.1,9.9,6,10.7,10.5
		c7.7,3.4,13.9,6.1,19.9,9c2.7,1.3,5,3.6,7.8,4.9c5.1,2.5,10,1.8,14.6-1.5c3.8-2.7,5.4-6.5,4.9-11.1c-0.6-5.1-4.4-7.8-9.9-7.1
		c-6,0.8-10.7,5.5-9.1,10.1c0.7,2.1,3.7,3.5,6.7,6.1c-0.9,1.3-2.9,1.6-5.4,0.1c-4.7-2.7-5.4-9.7-1.4-14.3c4.3-4.9,15.4-10.3,21.8-7
		c4.1,2.1,6.4,7.6,6.4,15.2c0,6.8-9.6,12.3-16.9,13.2c-5.9,0.7-11.4-0.2-16.6-3.7c-4.7-3.2-10-5.8-15.4-7.9c-3.7-1.5-7-0.6-9.1,3.8
		c-1.1,2.3-4.3,3.7-6.8,5.2c-0.2,0.1-2.5-2.1-2.8-3.5c-0.9-3.9,1.6-6,4.8-7.4c1.4-0.6,2.8-1.1,4.2-1.6c-0.7-8.6-10-10.8-15-3.6
		c-5.3,7.6-4.3,10.9-3.2,18.5c1.6,9.5,13.4,13,24.5,13c11.5,0.1,26.2-2.5,37.3-5.4c32.6-8.7,49.7-14.1,82.1-23.3
		c8.1-2.3,16.7-4.2,25.1-4.5c11.3-0.5,29.1,6.7,29.3,18c0.1,6.4-0.8,10.1-6.4,13c-3.2,2.2-6.4,5.4-13.9,4.3
		c-6.5-0.8-9.1-5.4-6.4-9.8c4.8-7.8,3.2,1.1,13.9-6.5"/>
	<path class="st8" d="M54.4,62.9c2.1-7.6,32.2-7.5,39.2-5.4c29.8,8.8,59.8,14.7,89.6,23.3c9.5,2.8,19.1,6.2,29,7.1
		c5.9,0.5,19.1-0.2,24.7-2.2c14.4-8.7,13.8-25.9,4.1-39.1c-4.2-5.8-9.7-8.4-16.7-7.3c-6.8,1.1-9.5,6-10.3,10.5
		c-7.5,3.4-13.4,6.1-19.3,9c-2.7,1.3-4.9,3.6-7.5,4.9c-4.9,2.5-9.7,1.8-14.1-1.5c-3.7-2.7-5.2-6.5-4.7-11.1c0.6-5.1,4.2-7.8,9.6-7.1
		c5.8,0.8,10.3,5.5,8.8,10.1c-0.7,2.1-3.6,3.5-6.4,6.1c0.8,1.3,2.8,1.6,5.2,0.1c4.6-2.7,5.2-9.7,1.4-14.3c-4.2-4.9-14.9-10.3-21-7
		c-3.9,2.1-6.2,7.6-6.2,15.2c0,6.8,9.3,12.3,16.4,13.2c5.7,0.7,11-0.2,16-3.7c4.6-3.2,9.7-5.8,14.9-7.9c3.6-1.5,6.8-0.6,8.8,3.8
		c1.1,2.3,4.2,3.7,6.5,5.2c0.2,0.1,2.4-2.1,2.7-3.5c0.9-3.9-1.5-6-4.7-7.4c-1.3-0.6-2.7-1.1-4.1-1.6c0.7-8.6,9.7-10.8,14.6-3.6
		c5.2,7.6,4.1,10.9,3.1,18.5c-1.6,9.5-12.9,13-23.7,13c-11.2,0.1-25.4-2.5-36.1-5.4c-31.5-8.7-48-14.1-79.4-23.3
		c-7.9-2.3-16.1-4.2-24.3-4.5c-11-0.5-28.1,6.7-28.3,18c-0.1,6.4,0.8,10.1,6.2,13c3.1,2.2,6.2,5.4,13.4,4.3c6.3-0.8,8.8-5.4,6.2-9.8
		c-4.6-7.8-3.1,1.1-13.4-6.5"/>
	<g id="dots">
		<g id="left">
			<path class="st9" d="M150.6,57.2l-2.8-6.1c-1-2.3-3.4-5.2-4.9-6.1l-1-0.6c-0.4-0.2-0.7-0.3-0.9-0.2l-1.6,1.2
				c-0.2,0.1-0.2,0.4-0.2,0.7l0.1,0.8c0.2,1.6,2.4,5,4.4,6.8l5.3,4.8C150.9,60.1,151.6,59.5,150.6,57.2z"/>
			<path class="st9" d="M153.5,52.5l-0.1-4.8c-0.1-1.8-0.8-4.3-1.5-5.3l-0.5-0.7c-0.2-0.3-0.4-0.4-0.6-0.4l-1.4,0.3
				c-0.1,0-0.2,0.2-0.3,0.4l-0.1,0.5c-0.3,1.1,0.2,4,1,5.7l2.2,4.6C152.9,54.5,153.5,54.3,153.5,52.5z"/>
			<path class="st9" d="M144.4,58.5l-3.5-3.3c-1.3-1.2-3.6-2.5-4.8-2.7l-0.8-0.1c-0.3,0-0.6,0-0.7,0.1l-0.8,1.2
				c-0.1,0.1,0,0.3,0.1,0.5l0.3,0.5c0.6,1,2.9,2.7,4.7,3.3l4.8,1.7C145.4,60.3,145.7,59.7,144.4,58.5z"/>
		</g>
		<g id="right">
			<path class="st9" d="M349.7,58.1l5.5-3.9c2.1-1.5,4.5-4.3,5.1-5.9l0.4-1.1c0.2-0.5,0.2-0.8,0-0.9l-1.5-1.4
				c-0.1-0.1-0.4-0.1-0.7,0l-0.7,0.2c-1.6,0.5-4.5,3.3-5.9,5.6l-3.7,6.1C346.9,58.9,347.6,59.6,349.7,58.1z"/>
			<path class="st9" d="M354.8,60.1l4.7-1c1.8-0.4,4.1-1.6,4.9-2.5l0.6-0.6c0.2-0.3,0.3-0.5,0.3-0.6l-0.6-1.3
				c-0.1-0.1-0.2-0.2-0.5-0.2l-0.5,0c-1.2-0.1-3.8,0.9-5.4,2.1l-4.1,3C352.7,59.9,353,60.5,354.8,60.1z"/>
			<path class="st9" d="M347.2,52.3l2.6-4c1-1.5,1.8-4,1.7-5.3l0-0.8c0-0.3-0.1-0.6-0.3-0.6l-1.3-0.5c-0.1,0-0.3,0-0.5,0.2l-0.4,0.4
				c-0.9,0.8-2.1,3.4-2.3,5.3l-0.8,5C345.6,53.6,346.3,53.8,347.2,52.3z"/>
		</g>
		<g id="middle">
			<path class="st9" d="M249.6,40.6l2-9.6c0.7-3.6,0.5-9.1-0.5-11.4l-0.7-1.6c-0.3-0.7-0.6-1-0.9-1h-3c-0.3,0-0.5,0.2-0.8,0.7
				l-0.5,1c-1.2,2.1-1.5,8-0.6,11.8l2.2,10.2C247.5,44.3,248.9,44.2,249.6,40.6z"/>
			<path class="st9" d="M257.1,37.6l3.9-5.8c1.5-2.2,2.8-5.8,2.8-7.6l0-1.2c0-0.5-0.1-0.8-0.3-0.9l-1.9-0.8c-0.2-0.1-0.4,0-0.7,0.2
				l-0.6,0.5c-1.3,1.1-3.1,4.9-3.6,7.6l-1.3,7.3C254.7,39.5,255.6,39.8,257.1,37.6z"/>
			<path class="st9" d="M241.2,36.8l-1.3-6.9c-0.5-2.6-2.1-6.1-3.4-7.3l-0.9-0.8c-0.4-0.4-0.7-0.5-0.9-0.4l-1.9,0.8
				c-0.2,0.1-0.3,0.3-0.3,0.7l-0.1,0.8c-0.2,1.7,1.2,5.7,2.8,7.9l4.2,6.1C240.8,39.9,241.7,39.4,241.2,36.8z"/>
		</g>
	</g>
</g>
<g id="old_design">
	<g id="Layer_2" class="st0">
		<g class="st1">
			<path d="M75.2,157.7v-1.1c0,0,6-0.9,6-5.9v-44.9c0-7.9-6-8.4-6-8.4v-1.1h23.9l26.8,39.8v-30.2c0-8.8-5.8-8.4-5.8-8.4v-1.1h15.2
				v1.2c-0.9,0-6,0.7-6,8.3v51.9h-10.1l-34.6-50.1V149c0,7.6,6.7,7.6,6.7,7.6v1.1H75.2z"/>
			<path d="M136.6,157.7v-1.1c0,0,6,0.3,6-6.5V104c0-6.3-6-6.5-6-6.5v-1.2h52.2l0.4,14.2h-1.3c-0.4-7.1-2.3-10.5-6.7-11.2
				c-1.1-0.2-2.8-0.2-4.8-0.2h-16.1v25.8h14.5c4.9,0,8.3-1.5,8.9-8h1c-0.4,6.6-0.4,13,0,19.5h-1.1c-0.8-6.7-3.5-8.3-8.8-8.3h-14.5
				v19.3c0,2.5,0.3,4.2,0.5,5.2c0.4,1,1,1.7,2,2c1,0.3,2.6,0.5,5.2,0.5h11.4c6.7,0,10.4-4.6,11.3-12.5h1.5l-1.3,15.2H136.6z"/>
			<path d="M193.6,97.5v-1.1h33.1v1.1c-6.3,0.8-7.3,4.2-3,12.5l13.2,27c4.3-9.7,8.4-17.9,12.4-27.7c3-7.1,2.3-11.6-3.3-11.7v-1.1
				h17.5v1.1c-4.5,0-7.8,6-10.2,11.4l-21.8,48.8h-3.3l-24.4-48.2C200.8,103.7,198.1,97.1,193.6,97.5z"/>
			<path d="M262.6,157.7v-1.1c0,0,6,0.3,6-6.5V104c0-6.3-6-6.5-6-6.5v-1.2h52.2l0.4,14.2h-1.3c-0.4-7.1-2.3-10.5-6.7-11.2
				c-1.1-0.2-2.8-0.2-4.8-0.2h-16.1v25.8h14.5c4.9,0,8.3-1.5,8.9-8h1c-0.4,6.6-0.4,13,0,19.5h-1.1c-0.8-6.7-3.5-8.3-8.8-8.3h-14.5
				v19.3c0,2.5,0.3,4.2,0.5,5.2c0.4,1,1,1.7,2,2c1,0.3,2.6,0.5,5.2,0.5h11.4c6.7,0,10.4-4.6,11.3-12.5h1.5l-1.3,15.2H262.6z"/>
			<path d="M424,160.4c0,0-5.9,13.3-22.1,13.3c-16.1,0-24.9-17.6-29.4-28c-1.9-4.4-3.9-10.4-9.6-13.1c-3.3,0.3-6.4,0.1-6.4,0.1v15.9
				c0,7.2,6.5,8.3,6.5,8.3v0.9h-30.4v-1.1c0,0,6-0.2,6-8.3v-15.6c-7.2,0.2-10.4,2.6-10.4,6.6c0,3.3,1.9,6.3,5.9,6.8
				c-2.3,3.5-18.2,4.5-18.2-5.9c0-10.3,15.5-10.5,22.8-10.5h17.9c2.6,0,4.8-0.1,6.4-0.5c7.2-1.2,10.7-7,10.7-15
				c0-10.6-7.2-18.7-17.1-15.2v28.1h-17.9V106c0-8-6-8.3-6-8.3v-1.2h31.9c6.2,0,11.3,0.6,15.2,1.8c7.8,2.4,11.8,7.6,11.8,15.4
				c0,7.6-4.4,13.6-12.4,16.2c-3.8,1.1-7.3,1.6-8.4,1.8C395.1,135.3,390.3,170.1,424,160.4z"/>
		</g>
		<g class="st1">
			<path d="M157.7,237.7c0,0,6.5-0.6,6.5-7v-50c0-6.7-6.5-7-6.5-7v-1.3c9.7,0,21.1,0,31,0c6.7,0,12.5,0.4,17.4,1.7
				c16.1,4.7,22.4,14.9,22.4,31c0,15.7-7.6,26.6-23.8,31.4c-5.4,1.5-11.7,2.3-18.8,2.3h-28.3V237.7z M185,233.1
				c1.9,2.9,7.9,2.1,11.8,0.1c2.2-1.1,4.2-2.8,5.8-5.3c4.2-5.6,5.4-14.7,5.4-21.8c0-10.4-2.6-22.8-11.2-28.2
				c-3.3-2.1-6.4-2.8-10.9-2.8c-1.6,0-2.4,0.6-2.4,2.6V227C183.7,229.8,184.1,231.9,185,233.1z"/>
			<path d="M234,173.6v-1.2h32.6v1.2c-2.7,0-6.7,2.5-6.7,7.1v49.7c0,5.9,4.9,7.1,6.7,7.1v1.2h-32.5v-1.2c1.8,0,6.7-1.1,6.7-7.1
				v-49.7C240.8,174.9,236.2,173.6,234,173.6z"/>
			<path d="M270.7,238.8v-1.2c0,0,6.5,0.4,6.5-7v-49.9c0-6.9-6.5-7-6.5-7v-1.3h56.5l0.4,15.3h-1.4c-0.4-7.7-2.4-11.4-7.2-12.1
				c-1.2-0.2-3-0.2-5.2-0.2h-17.4v27.9h15.6c5.3,0,9-1.6,9.7-8.7h1.1c-0.4,7.1-0.4,14.1,0,21.1h-1.2c-0.8-7.2-3.8-8.9-9.5-8.9h-15.6
				v20.8c0,2.7,0.3,4.5,0.5,5.6c0.4,1.1,1.1,1.8,2.2,2.2c1.1,0.4,2.9,0.5,5.6,0.5h12.4c7.2,0,11.3-5,12.2-13.5h1.6l-1.4,16.4H270.7z
				"/>
		</g>
		<g class="st1">
			<path d="M53,252.5v-1.4h40.5v1.4c-5,0.5-6.7,4.4-0.8,15l11.4,20.4L117,266c5.5-8.9,6.7-13.1,0.5-13.7v-1.2h17.6v1.2
				c-4.4,0-9.1,7.2-12.3,12.7l-13.2,22.3c-2.9,5.7-5,9.7-5.2,16.9l-0.2,8.5c-0.2,10.9,6.5,11.1,6.5,11.1v1.4H77.3v-1.4
				c0,0,6.7,0,7.1-9.2c0,0,0.3-4.6,0.2-10.9c-0.2-6.7-1.5-10.4-4.7-15.9l-13.2-21.6C63.3,260.5,58.3,252.5,53,252.5z"/>
			<path d="M132,288.5c0-26.6,17.4-37.9,38.2-37.9c20.6,0,37.6,13.5,37.8,37c0.2,23.5-15.3,36.5-35.9,36.9
				C151.4,325.2,132,315.3,132,288.5z M169.2,254.2c-13.2,0-14.4,22.5-14,33.8c0.2,11.2,2.7,33.1,16.5,32.9
				c13.5-0.3,14-22,13.5-33.1C184.7,276.6,182.5,254.4,169.2,254.2z"/>
			<path d="M212.6,252.6v-1.5h38.4v1.4c0,0-8.6,1.4-8.6,10.1V300c0,13,3.9,20.5,16.7,20.5c12.1,0,15.5-8.5,15.5-20.6v-37.3
				c0-10.1-8.5-10.1-8.5-10.1v-1.4h21.2v1.4c0,0-8.2,0.5-8.2,10.2v36.3c0,18.2-9.1,26.1-24.7,26.1c-18.2,0-33.5-5.2-33.5-26.1v-36.3
				C220.8,253,212.6,252.6,212.6,252.6z"/>
			<path d="M293.3,325.2v-1.4c0,0,7.3-1.1,7.3-7.1v-54.1c0-9.6-7.3-10.1-7.3-10.1v-1.4h28.8l32.3,48v-36.5c0-10.7-7-10.1-7-10.1
				v-1.4h18.4v1.5c-1.1,0-7.3,0.8-7.3,10v62.6h-12.1l-41.7-60.4v49.9c0,9.2,8,9.2,8,9.2v1.4H293.3z"/>
			<path class="st10" d="M439.8,251.1v23.8h-1.2c-2.6-11.6-8.6-19.5-21.1-20.4c-5-0.1-9.9,1.1-13.8,4c-7.9,6.1-10.6,19.1-10.6,29.5
				c0,8.9,2.1,23.6,8.9,29.4c5.6,5.2,11.4,5.3,18.7,3.7v-22.3c0-7.2-9-7.8-9-7.8v-1.5h36.9v1.2c0,0-7,1-7,7.9v26.5
				c-10.8,0-25.3,0-29.9,0c-25,0-41.4-15-41.4-36.6c0-20.9,15.5-37.4,38.7-37.4C420.5,251.1,430.8,251.1,439.8,251.1z"/>
		</g>
	</g>
	<g id="Layer_9" class="st0">
		<g id="Layer_8" class="st1">
			<path d="M325.5,208.8l16.5,3.4c6.2,1.3,15.5,0.8,19.5-0.9l2.7-1.2c1.1-0.5,1.7-1.1,1.7-1.6l0-5.1c0-0.5-0.4-0.9-1.2-1.4l-1.7-0.9
				c-3.6-2-13.7-2.5-20.3-1.1l-17.5,3.8C319.2,205.1,319.3,207.5,325.5,208.8z"/>
			<path d="M330.7,221.6l9.9,6.7c3.7,2.5,10,4.8,13,4.7l2.1,0c0.9,0,1.4-0.2,1.6-0.6l1.4-3.3c0.1-0.3,0-0.7-0.4-1.2l-0.9-1.1
				c-1.8-2.3-8.3-5.4-13-6.3l-12.5-2.3C327.5,217.4,326.9,219,330.7,221.6z"/>
			<path d="M332,194.3l11.8-2.2c4.4-0.8,10.4-3.7,12.6-5.9l1.4-1.5c0.6-0.6,0.8-1.2,0.7-1.5l-1.4-3.3c-0.1-0.3-0.5-0.5-1.1-0.6
				l-1.4-0.1c-2.9-0.3-9.7,2.1-13.6,4.8l-10.4,7.2C326.8,193.6,327.5,195.2,332,194.3z"/>
		</g>
		<g id="Layer_10">
			<path class="st1" d="M276.5,201.5l-16.5-3.4c-6.2-1.3-15.5-0.8-19.5,0.9l-2.7,1.2c-1.1,0.5-1.7,1.1-1.7,1.6l0,5.1
				c0,0.5,0.4,0.9,1.2,1.4l1.7,0.9c3.6,2,13.7,2.5,20.3,1.1l17.5-3.8C282.8,205.1,282.7,202.7,276.5,201.5z"/>
			<path class="st1" d="M271.3,188.7l-9.9-6.7c-3.7-2.5-10-4.8-13-4.7l-2.1,0c-0.9,0-1.4,0.2-1.6,0.6l-1.4,3.3
				c-0.1,0.3,0,0.7,0.4,1.2l0.9,1.1c1.8,2.3,8.3,5.4,13,6.3l12.5,2.3C274.5,192.8,275.1,191.2,271.3,188.7z"/>
			<path class="st1" d="M270,215.9l-11.8,2.2c-4.4,0.8-10.4,3.7-12.6,5.9l-1.4,1.5c-0.6,0.6-0.8,1.2-0.7,1.5l1.4,3.3
				c0.1,0.3,0.5,0.5,1.1,0.6l1.4,0.1c2.9,0.3,9.7-2.1,13.6-4.8l10.4-7.2C275.2,216.6,274.5,215.1,270,215.9z"/>
		</g>
	</g>
	<g id="Layer_3" class="st0">
		<g class="st1">
			<path d="M397.2,330.5c0.3,0.3,0.5,0.7,0.8,0.8c3,0.7,5.9,1.5,8.9,1.9c4.9,0.6,9.8-0.2,14.7-0.7c7.6-0.8,15.1-2.2,22.6-4
				c2.3-0.6,4.6-1.2,6.7-2.2c2-1.1,4.3-1.6,6-3.3c1.6-1.6,3.7-2.8,5.4-4.3c1-0.9,1.9-2,2.8-3c0.3-0.4,0.7-0.7,1-1.1
				c1.3-1.7,2.5-3.5,3.5-5.4c1.5-2.9,2.8-6,3.7-9.1c1.7-6.3,2.2-12.7,1.6-19.2c-0.1-0.7-0.1-1.4-0.2-2.1c-0.1-0.7-0.2-1.3-0.4-2
				c0.2,1.7,0.4,3.3,0.6,5c0,0,0,0,0,0c-0.2-1.5-0.5-3-0.7-4.5c-0.2-1.7-0.1-3.5-0.6-5.1c-1-3.3-2.2-6.6-3.4-9.9
				c-0.2-0.7-0.4-1.4-0.5-2.1c-0.8-1.5-1.6-3.1-2.5-4.6c-1.4-2.5-2.8-5-4.3-7.4c-1.5-2.3-2.7-4.7-3.6-7.3c-0.8-2.1-1.2-4.2-0.9-6.4
				c0,0.5,0,1,0,1.5c0-3.3,1.1-6.3,2-9.4c0.6-2,1.6-3.8,2.3-5.7c2-5.7,3-11.5,1.4-17.6c-1.2-4.8-4.2-8.4-8.3-11.2
				c-3.8-2.6-8.1-3.3-12.5-3.4c-1.7-0.1-3.4,0-5.3,0c0,1,0,2.2,0,3.6c-1.8,0-3.4,0-5.2,0c0-1.3,0-2.7,0-4.4c1.1,0,2.2,0,3.3,0
				c5,0.1,10.1,0.1,15,1.5c6.3,1.8,10.6,5.8,12.8,12.1c1.8,5.3,1.7,10.7,0.1,16.1c-1.2,4-2.7,7.8-4,11.7c-1.8,5.4-1.2,10.6,1.6,15.6
				c2.4,4.3,4.9,8.5,7.2,12.8c3.4,6.6,5.4,13.6,6.3,20.9c1,7.4,0.5,14.7-1.4,21.9c-1.9,7.3-5.5,13.7-11.1,19
				c-5.2,4.8-11.2,8-18.1,9.6c-10.8,2.5-21.7,4.5-32.7,5c-5.6,0.3-11-0.6-16.1-3c-2-0.9-3.9-2.2-5.8-3.5c-3.3-2.3-6.6-4.6-9.9-7
				c-6.1-4.5-9.8-10.6-11.6-18c-1.9-7.9-1.6-15.7,0-23.5c1.6-8.1,4.5-15.7,8.7-22.8c2.2-3.8,4.5-7.6,6.7-11.3c3.5-5.8,4-11.7,1.4-18
				c-0.9-2.2-1.7-4.4-2.5-6.6c-2.4-7-2.3-13.9,0.9-20.6c3.1-6.3,8.5-9.6,15.1-11.1c4.8-1.1,9.7-1,14.5-1.2c2.3-0.1,2.3-0.1,3.1-2.2
				c0.4-1.1,1-2.2,1.5-3.3c0.6-1.3,1.8-1.9,3.1-1.9c1,0,1.2-0.5,1.2-1.4c0.2-11.5,0.5-22.9,0.7-34.4c0.2-12.5,0.5-24.9,0.6-37.4
				c0.1-7.6,0.1-15.2,0.1-22.8c0-3.2-0.8-6.1-3.3-8.4c-0.5-0.5-0.7-1.4-0.9-2.1c-0.3-1.1-0.5-2.2-0.5-3.3c-0.1-1.7-2.1-2.5-3.4-1.8
				c-0.1-0.3-0.3-0.6-0.4-0.9c0,0-0.1,0-0.1,0c0.1,0.6,0.2,1.3,0.2,1.9c0,0.4-0.3,1-0.6,1.1c-0.3,0.2-0.9,0-1.3-0.2
				c-1.5-1-1.9-3.6-0.8-5.2c-0.3,1.7-0.3,3.3,0.9,4.7c0.6-1.3-0.2-2.2-0.9-3.3c0.7,0,1.3,0,1.9,0c-0.3-0.6-0.5-1.2-0.7-1.7
				c0.1-0.1,0.2-0.1,0.3-0.2c0.3,0.4,0.6,0.8,0.9,1.2c0.6,0.8,1,1.5,2.2,1.5c0.8-0.1,1-0.4,0.9-1c-0.5-2.9-1-5.8-1.5-8.7
				c-0.2-0.8-1.7-1-2.5-0.3c-0.2-0.2-0.3-0.4-0.5-0.6c-0.1,0.1-0.2,0.1-0.2,0.2c0,0.4,0.1,0.7,0.1,1.1c0,0.4,0,0.9-0.3,1.1
				c-0.3,0.2-0.9,0.2-1.2,0c-1.6-0.7-2.3-3.7-1.1-5.2c-0.4,1.8-0.1,3.4,1.4,4.6c-0.4-0.8-0.7-1.6-1.1-2.5c0.5-0.1,1-0.1,1.7-0.2
				c-0.4-0.9-0.8-1.6-1.2-2.4c0-0.1,0.1-0.1,0.1-0.2c0.5,0.4,1,0.7,1.4,1.2c0.8,0.9,1.3,2,2.9,1.6c-0.4-2.1-0.8-4.3-1.2-6.4
				c-0.2-0.9-0.3-1.8-0.4-2.6c-0.2-1.3-1.5-1.7-2.5-0.8c-0.1,0.1-0.3,0.2-0.3,0.2c-0.2,0.6-0.3,1.2-0.5,1.3
				c-0.4,0.1-1.1,0.1-1.5-0.1c-1.4-0.8-1.9-3.1-1-4.7c0,0.9-0.1,1.8,0.2,2.5c0.2,0.7,0.8,1.3,1.2,2c0.1-0.1,0.2-0.1,0.3-0.2
				c-0.2-0.5-0.5-1-0.8-1.5c0.5-0.1,0.9-0.2,1.3-0.3c-0.3-0.9-0.5-1.8-0.8-2.7c1.6,0.5,1.9,2.7,4,2.1c-0.3-2-0.7-4.1-1-6.2
				c-0.3-1.6,0.4-3.2,1.8-4c0.3-0.2,0.8-0.2,1.1-0.1c5.4,0.8,10.8,1.6,16.2,2.5c1,0.2,1.6,0.7,1.7,1.7c0.1,2.1,0.3,4.2,0.5,6.3
				c0.1,0.8,0.3,1.5,1.3,2c-0.1-0.4-0.2-0.6-0.3-0.9c1.6,1.4,1.6,4.1-0.2,5.3c-0.2,0.1-0.3,0.5-0.3,0.8c0.3,1.8-0.2,3.7,0.9,5.3
				c0.1,0.1-0.1,0.4,0.1,0.7c0.2-0.4,0.4-0.7,0.5-1c1.5,1.8,1.2,4.5-0.7,5.3c0.1,0.9,0.1,1.8,0.2,2.7c0.1,0.9,0.1,1.8,0.2,2.4
				c0.9,0.4,1.7,0.6,2.2,1.1c0.4,0.3,0.6,1,0.6,1.6c-0.1,0.9-0.2,1.9-0.6,2.7c-0.2,0.4-1,0.5-1.6,0.8c-0.3,2.1-0.7,4.4-1,6.7
				c-0.5,0-0.9-0.1-1.5-0.1c-0.2-2.3-0.5-4.6-0.7-6.9c0,0-0.1,0-0.1,0c0.2,2.2,0.3,4.4,0.5,6.7c-1.5,0.3-1.7,0.2-1.8-1.2
				c-0.1-3.9-0.2-7.7-0.3-11.6c-0.1-2.5-0.1-5.1-0.2-7.6c0-0.4,0-0.8,0.1-1.2c0-0.1,0.3-0.1,0.5-0.2c-0.1-0.6-0.1-1.3,0.9-1.5
				c0.3-0.1,0.4-0.7,0.6-1.2c-1.5-0.4-1.2,1.3-2.1,1.4c-0.1-2.2-0.2-4.5-0.3-7c0,1.9,0,3.4,0,5c0,0.7-0.4,1.3-0.5,2
				c-0.1,0.3,0,0.6,0.1,0.9c0.2,0.8,0.5,1.6,0.5,2.4c0.2,6.3,0.3,12.6,0.4,18.9c0,0.3,0,0.6,0,0.8c-1.8,0.2-1.7,0.2-2.1-1.4
				c-0.9-3.7-1.8-7.4-2.7-11.1c-0.1,0-0.2,0-0.3,0.1c1,4.1,2,8.2,3,12.2c-1.6,0.2-1.7,0.2-2-1.2c-0.7-3.7-1.4-7.3-2.1-11
				c0-0.2-0.1-0.5-0.2-0.7c-0.5,0.4-0.7,1.3-1.6,0.7c1.1-0.6,1.6-1.5,1.5-2.6c-0.5-2.6-1-5.3-1.5-7.9c0-0.2-0.3-0.4-0.5-0.5
				c-0.3-0.2-0.5-0.3-0.9-0.6c1.2-0.4,1.6-1.2,1.4-2.3c-0.5-2.2-1.1-4.4-1.6-6.7c-0.2-0.7-0.4-1.3-0.6-2c-0.1,0-0.2,0-0.3,0.1
				c0.7,3,1.5,6,2.2,9c-0.3,0.2-0.6,0.3-0.9,0.4c-0.3,0.2-0.6,0.4-0.9,0.5c-1,0.2-0.9,0.9-0.9,1.6c0,0.4,0.5,0.7,0.8,1.2
				c0.2-0.6,0.4-0.9,0.5-1.2c0.4,0,0.8,0,1.2,0c0.6,3,1.2,6.1,1.8,8.9c-1,0.5-1.9,0.9-2.7,1.5c-0.7,0.5-0.1,1.2,0.1,1.8
				c0,0.1,0.4,0.1,0.6,0.1c0.1,0,0.2-0.2,0.3-0.4c0.1-0.2,0.1-0.4,0.1-0.6c1.1,0.1,1.4,0.8,1.4,1.8c0.1,2.9,0.4,5.8,0.6,8.7
				c0,0.3,0,0.6,0,0.9c-1.8,0.3-1.8,0.3-1.4,2.1c0.3-0.1,0.7-0.2,1-0.1c0.2,0,0.6,0.3,0.6,0.5c0,3.3,0,6.6,0,9.6
				c-0.5,0.3-0.9,0.5-1.2,0.7c0.1,0.1,0.1,0.2,0.2,0.3c0.3-0.1,0.5-0.1,0.9-0.2c0,3.3,0,6.5,0,9.5c-0.5,0.2-0.8,0.4-1.1,0.6
				c0,0.1,0.1,0.2,0.1,0.4c0.3,0,0.6-0.1,0.9-0.2c0,3.1,0,6.1,0,9c-0.4,0.1-0.8,0.2-1.1,0.3c0,0.1,0.1,0.3,0.1,0.4
				c0.3,0,0.7,0,1-0.1c0,2.9,0,5.7,0,8.5c-0.4,0.1-0.8,0.2-1.2,0.2c0,0.1,0,0.3,0.1,0.4c0.3,0,0.7-0.1,1.1-0.1c0,2.8,0,5.5,0,8.1
				c-0.4,0.4-1.3-0.5-1.2,0.7c0.4-0.1,0.8-0.2,1.2-0.3c0,2.6,0,5.1,0,7.6c-0.5,0.1-0.9,0.2-1.3,0.3c0,0.1,0.1,0.2,0.1,0.4
				c0.4-0.1,0.7-0.1,1.2-0.2c0,2.5,0,4.8,0,7c-0.3,0.6-1.4-0.4-1.2,0.8c0.4-0.1,0.7-0.1,1.2-0.2c0,2.3,0,4.6,0,6.8
				c-0.5,0.1-0.9,0.2-1.3,0.2c0,0.1,0.1,0.3,0.1,0.4c0.4-0.1,0.7-0.1,1.2-0.2c0,2.2,0,4.3,0,6.4c-1.2,0-1.2,0-1.2,0.7
				c0.4-0.1,0.7-0.2,1.2-0.3c0,6-0.1,12-0.1,17.9c-0.5,0.1-1,0.1-1.4,0.1c0,0.1,0,0.3,0.1,0.4c0.4-0.1,0.8-0.1,1.3-0.2
				c0,1.7,0,3.4,0,5c-1.3,0.1-1.3,0.1-1.3,0.7c0.4-0.1,0.9-0.2,1.3-0.3c0,1.7,0,3.2,0,4.8c-0.5,0.1-1,0.2-1.4,0.2
				c0,0.1,0,0.2,0.1,0.4c0.4-0.1,0.8-0.2,1.3-0.3c0,1.6,0,3,0,4.4c-0.4,0.5-1.4-0.4-1.5,0.8c0.5-0.1,0.9-0.2,1.4-0.4
				c0,1.4,0,2.8,0,4c-0.4,0.6-1.4-0.4-1.4,0.9c0.5-0.1,0.9-0.2,1.4-0.4c0,1.4,0,2.6,0,3.8c-0.4,0.6-1.4-0.4-1.5,0.9
				c0.5-0.1,0.9-0.2,1.4-0.3c0,1.3,0,2.5,0,3.6c-0.6,0.1-1,0.3-1.5,0.4c0,0.1,0.1,0.2,0.1,0.4c0.4-0.1,0.9-0.1,1.4-0.2
				c0,1.2,0,2.3,0,3.4c-0.4,0.3-1.5-0.5-1.5,0.8c0.6-0.1,1-0.2,1.5-0.4c0,1.2,0,2.2,0,3.2c-0.5,0.4-1.4-0.5-1.6,0.8
				c0.6-0.1,1-0.2,1.6-0.3c0,1.4,0,2.7,0,4c0,0.2-0.2,0.4-0.4,0.6c-1,0.8-2.1,1.6-3.3,2.2c1.1-0.9,2.2-1.8,3.5-2.9
				c-0.8,0.1-1.3,0.2-2,0.4c0-0.6-0.1-1.2-0.1-2c-0.5,0.2-0.9,0.5-1.3,0.7c0,0,0,0,0,0c0-0.1,0-0.2,0-0.2c1.6-0.7,1.4-2.1,1.4-3.4
				c0.1-7.3,0.2-14.5,0.3-21.8c0-0.7-0.1-1.3-0.1-2.3c-3.8,0.3-7.4,0.6-11.1,1c-4.4,0.5-8.4,2.2-11.9,5.1c-4.2,3.4-6.3,8-7,13.3
				c-0.8,6.1,0.4,11.8,2.7,17.4c1.3,3.1,2.4,6.2,3.4,9.4c1.2,3.9,0.5,7.7-1,11.4c-0.6,1.5-1.4,3-2.1,4.4c-0.5,1.1-1.1,2.3-1.6,3.4
				c-0.1,0-0.3,0-0.4,0c-0.9,1.5-1.7,3-2.5,4.4c-0.9,1.6-1.8,3.1-2.7,4.7c-0.1,0.1,0.1,0.3,0.2,0.5c-0.6,0.8-1.3,1.6-1.7,2.4
				c-1.4,3.3-2.9,6.7-4,10.1c-3.4,10.5-4.9,21.2-2.7,32.2c1.1,5.5,3,10.6,6.6,14.9c1.2,1.5,2.8,2.7,4.3,4.1c0,0.1,0,0.2,0,0.2
				c2,1.2,3.9,2.4,5.9,3.6C396.7,330.8,397,330.6,397.2,330.5z M431.9,45.5c0.3-0.6,0.6-1,0.9-1.5c-0.1-0.1-0.2-0.2-0.2-0.3
				c-0.7,0.3-1.4,0.5-2,0.8c-0.8,0.3-0.7,0.9-0.6,1.5c0.1,0.4,0.5,0.7,0.9,1.2c0.3-0.7,0.4-1.1,0.5-1.5c0.3,0.1,0.6,0.2,1,0.2
				c0,0,0-0.1,0.1-0.1C432.1,45.7,431.9,45.5,431.9,45.5z M421.5,42.5c-0.1-0.2-0.2-0.3-0.3-0.5c-0.5,0.2-1.1,0.6-1.6,0.6
				c-0.9,0.1-1.1,0.7-1.1,1.4c0,0.4,0.4,0.8,0.6,1.3C420,44.3,420.8,43.4,421.5,42.5z M432.8,65.8c0.5,0.9-1.6,2.3,0.2,3.5
				c0.8-1,1.5-1.9,2.4-2.9c-1.6-0.4-1.4,1.1-2.2,1.3C433,67,432.8,66.2,432.8,65.8z M423.9,54.6c-0.1,0-0.2,0-0.2,0.1
				c0.9,3.7,1.8,7.4,2.7,11.1c0.1,0,0.2,0,0.3-0.1C425.7,62,424.8,58.3,423.9,54.6z"/>
			<path d="M442.4,238.7c2-2.9,2.6-6.1,2.4-9.6c-0.2-3.4-0.6-6.7-3.5-9.1c0.1-0.2,0.3-0.4,0.2-0.5c-0.8-1.2-1.6-2.4-3.1-2.9l0,0
				c-0.1-0.1-0.2-0.1-0.3-0.2c0,0-0.1,0-0.1,0c0,0,0-0.1,0-0.1c0.5,0,1.1-0.1,1.9-0.1c-0.7-0.6-1.3-1-1.8-1.4
				c-0.1,0-0.2,0.1-0.3,0.1c0.1,0.5,0.1,0.9,0.2,1.4c0,0.1,0,0.1,0.1,0.2l0,0c-0.4,0-0.7,0.1-1.1,0c-0.5-0.1-1.1-0.3-1.7-0.3
				c6.5,3.9,8.7,9.8,7.5,17c-0.6,3.9-2.6,7.3-5.8,9.8c5.9-6,7.6-12.9,3.9-20.6c-1.5-3.1-3.9-5.3-7.5-5.9c6.9,3.4,9.2,9,8.1,16.4
				c-0.8,5.3-4.9,9.9-8.5,11.2c-0.7-2.1-0.2-2.3,2.5-2.3c0-0.5,0-1.1,0-1.5c-0.8-0.1-1.6-0.1-2.3-0.3c-0.2-0.1-0.4-0.7-0.4-1.1
				c-0.1-3.1-0.1-6.3-0.1-9.5c0-0.4,0-0.7-0.1-1.1c0,3.5,0,7-0.1,10.5c0,0.5,0.2,1.2-0.7,1.1c-0.7-0.1-1.7,0.3-1.7-1.1
				c0-8.5-0.1-17-0.2-25.4c0-0.1,0-0.3,0.1-0.5c0.7,0,1.5-0.1,2.3-0.1c0,4.1,0,8.1-0.1,12.1c0.1,0,0.1,0,0.2,0c0-4,0-8,0.1-12.1
				c1.6-0.1,3.1-0.2,4.6-0.2c0.2,0,0.7,0.5,0.6,0.8c-0.1,0.8,0.5,1.2,0.9,1.8c1.5,1.8,3.7,1.5,5.5,2.2c2.5,0.9,4.6,2.4,5.8,4.6
				c1.5,2.6,2.8,5.2,3.7,8c2.2,6.5,3.3,13.2,3.5,20c0.1,3.9-0.4,7.6-1.9,11.2c-1.9,4.3-5.5,6.1-9.9,6.5c-2.9,0.2-5.8-0.1-8.2-1.9
				c-2.5-1.9-3.6-4.6-3.7-7.7c-0.1-3.3,0.1-6.6,0.2-9.9c-0.2,0.1-0.6,0.2-1.3,0.4c1.5-1.2,2.8-2.2,4-3.3c0.2-0.2,0.3-0.6,0.5-0.9
				c1,0.2,2.3-0.8,2.8-2.1c0.4-0.6,0.9-1.2,1.3-1.9c0,0,0.1,0,0.1,0c0,0,0,0,0,0l0,0l0,0c0-0.1,0-0.3,0.1-0.4c0,0,0,0,0,0
				c0.2,0,0.3,0,0.5,0c0,0,0,0,0,0c0.1-0.2,0.3-0.4,0.4-0.5c0,0,0,0,0,0C442.4,239.2,442.4,239,442.4,238.7L442.4,238.7z"/>
			<path d="M408.7,273.8c5-0.5,9.9-0.9,14.9-1.4c0,1,0,1.8,0,2.8c-0.9,0.1-1.8,0.3-3,0.5c0.9,1.4,2.1,0.3,3,0.8
				c-0.1,0.6-0.2,1.1-0.3,1.7c0.3-2.2,1.8-2.5,3.6-2.4c-0.1,0.6-0.2,1.1-0.3,1.6c0.1,0.1,0.1,0.1,0.2,0.2c0-0.1,0-0.2,0-0.3
				c0-1.5,1-1.8,2.2-1.9c1.2,0,2.5-0.1,3.7-0.3c2.5-0.4,4.9-1,7.4-1.5c0.2,0,0.3-0.3,0.5-0.5c-0.3-0.1-0.5-0.4-0.8-0.3
				c-1.7,0.2-3.3,0.5-5,0.8c-0.6,0.1-1.1,0.2-1.7,0.3c-0.6-1.9-0.3-2.3,1.6-2.5c4.6-0.4,9.2-0.9,13.8-1.3c1.4-0.1,1.4-0.1,1.4,1.3
				c0,1.8,0,3.5,0,5.3c0,1.1-0.4,1.5-1.4,1.7c-1.1,0.2-2.2,0.2-3.3,0.5c-0.9,0.3-2,0.6-2.6,1.3c-1.2,1.4-2.8,1.9-4.5,2.2
				c-2.8,0.5-5.7,0.8-8.6,1.1c-2.2,0.3-4.3,0.4-6.5,0.6c-2.5,0.3-4.9,0-7.1-1.4c-0.8-0.5-2-0.6-3-0.6c-1.1-0.1-2.3,0.1-3.4,0.2
				c-0.6,0-1.1-0.1-1.1-0.8C408.7,278.8,408.7,276.4,408.7,273.8z"/>
			<path d="M423.7,238.5c0-0.4,0-0.8-0.1-1.5c-0.1,0.5-0.2,0.8-0.2,0.8c-0.8,0.1-1.4,0.2-2.3,0.3c-0.1-0.1-0.4-0.5-0.6-0.7
				c-0.3,0.5-0.6,1.1-1.1,1.9c0-3.4,0-6.5,0-9.6c-0.1,0-0.1,0-0.2-0.1c-0.6,1.2-1.2,2.3-1.9,3.5c-2.6-3.2,1.8-13,6.8-15.4
				c0,6.9-0.1,13.8-0.1,20.7C423.9,238.5,423.8,238.5,423.7,238.5z"/>
			<path d="M425.5,216.7c-0.3,0.1-0.6,0.1-0.9,0.2c0-1.3,0-2.6,0-4c0.8,0,1.6-0.1,2.5-0.1c0,8.9-0.1,17.7-0.1,26.6
				c-0.4-0.8-0.4-0.8-2.2-0.8c0,0.2-0.1,0.3-0.1,0.5c0,0.2,0,0.3-0.3,0.5c0-4.1,0-8.3,0.1-12.4c0-2.8,0.1-5.7,0-8.5
				C424.5,217.8,424.6,217.1,425.5,216.7z"/>
			<path d="M427.6,212.8c0.7,0,1.4,0,2.2,0c0,8.9-0.1,17.8-0.1,26.8c-0.6-0.5-1.2-1-1.9-1.5c-0.1,0.6-0.1,0.9-0.2,1.3
				c-0.1,0-0.1,0-0.2,0C427.5,230.6,427.6,221.7,427.6,212.8z"/>
			<path d="M430.1,159.1c0.8,0,1.4,0,2.2,0c0.1,0.8,0.1,1.5,0.2,2.3c0,0,0,0,0.1,0c0-0.7,0-1.4,0-2.2c0.7,0,1.3,0,2,0
				c0,0.6,0.1,1.2,0.1,2.1c0.1-0.8,0.1-1.4,0.2-2c0.2-0.1,0.3-0.1,0.4-0.1c2.4,0,2-0.1,2,2c0,1.3,0,2.6,0,4c-0.8,0-1.5,0-2.3,0
				c0-0.7,0-1.4,0-2.1c0,0-0.1,0-0.1,0c0,0.7-0.1,1.4-0.2,2.3c-0.8-0.1-1.5-0.3-2.1-0.4c-0.6,0-1.1,0.2-1.7,0.2
				c-0.3,0-0.7-0.3-0.7-0.5C430.1,162.7,430.1,160.9,430.1,159.1z"/>
			<path d="M434.7,171.5c0,0.8,0,1.6,0,2.3c0,0,0.1,0,0.1,0c0-0.2,0-0.3,0-0.5c0.1-2,0.5-2.3,2.6-1.6c0,1.6,0,3.3,0,5.1
				c-0.7,0-1.5,0.1-2.3,0.1c-0.1-0.6-0.2-1.1-0.3-1.6c0,0,0,0-0.1,0c0,0.5,0,1,0,1.5c-1.5,0-3,0-4.6,0c0-1.8,0-3.5,0-5.3
				C431.7,171.5,433.2,171.5,434.7,171.5z"/>
			<path d="M435.9,81.6c0,3.5,0,6.9,0,10.4c-1.2-0.1-2.3-0.3-3.6-0.4c0-3.4,0-6.8,0-10.4C433.4,81.3,434.5,81.4,435.9,81.6z"/>
			<path d="M436.1,99.2c0,0.9,0,1.8,0,2.8c-1.6,0.3-1.8,0.2-1.8-1.3c0-2.6,0-5.2,0-7.7c-0.1,0-0.2,0-0.3,0c0,3,0,5.9,0,8.9
				c-1.8,0.1-1.8,0.1-1.8-1.5c0-2.7,0-5.5,0-8.3c1.1,0.1,2.2,0.2,3.2,0.3c0.2,0,0.4,0.4,0.4,0.7c0,1,0,2,0.1,3c0-1.1,0-2.2,0-3.3
				c0.1,0,0.2,0,0.3,0c0,3.1,0,6.1,0,9.2c0,0,0,0,0,0c0-0.9,0-1.8,0-2.7C436.2,99.3,436.2,99.2,436.1,99.2z"/>
			<path d="M434.6,158.8c-0.8-0.3-1.7,0.3-2.1-0.6c-0.5,1-1.5,0.2-2.4,0.5c0-0.9-0.1-1.6-0.1-2.2c0.4-0.4,0.7-0.7,1-1
				c-0.3-0.3-0.6-0.5-0.9-0.8c0-0.7,0-1.5,0-2.4c0.7,0,1.4,0,2.1,0c0,0.5,0.1,1,0.1,1.6c0.3-0.6-0.3-1.6,1-1.6c1,0,1.3,0.3,1.3,1.3
				C434.5,155.2,434.6,156.9,434.6,158.8z"/>
			<path d="M434.7,171.1c-1.6,0-3,0-4.6,0c0-1.9,0-3.7,0-5.6c0.1-0.1,0.1-0.1,0.2-0.1c1.2,0,2.5,0,3.7,0.1c0.3,0,0.7,0.4,0.7,0.6
				C434.8,167.7,434.7,169.4,434.7,171.1z"/>
			<path d="M430.1,182.2c0-1.7,0-3.3,0-5c1.5,0,3,0,4.8,0c0,1.5,0,3,0,4.6c0,0.2-0.4,0.4-0.6,0.4
				C432.9,182.2,431.6,182.2,430.1,182.2z"/>
			<path d="M434.8,182.6c0,1.5,0,3,0,4.6c-1.5,0-3.1,0-4.7,0c0-1.5,0-3,0-4.6C431.7,182.6,433.2,182.6,434.8,182.6z"/>
			<path d="M427.5,91.2c-0.6,0-1.2-0.1-1.8-0.1c0-3.5,0-7,0-10.5c0.6,0.1,1.1,0.1,1.8,0.2C427.6,84.2,427.6,87.6,427.5,91.2z"/>
			<path d="M435,201.5c0.7-0.8,1.6-0.5,2.4-0.3c0.2,0,0.4,0.8,0.5,1.2c0.1,0.7,0,1.4,0,2.4c-1.7,0.1-3.3,0.1-5.3,0.2
				c0-1.2,0-2.2,0-3.3c0-0.1,0-0.2,0.1-0.3C433.1,200.9,434.8,201.1,435,201.5z"/>
			<path d="M425.6,101.7c0.7,0.1,1.3,0.1,1.9,0.2c0,3.1,0,6.1,0,9.2c-0.7-0.1-1.2-0.1-1.9-0.2C425.6,107.9,425.6,104.8,425.6,101.7z
				"/>
			<path d="M427.5,101.4c-0.7-0.1-1.2-0.1-1.9-0.2c0-3.2,0-6.4,0-9.7c0.6,0.1,1.2,0.1,1.9,0.2C427.5,94.9,427.5,98.1,427.5,101.4z"
				/>
			<path d="M434.4,111.6c0-3.1,0-6.1,0-9.2c0.5,0,1,0.1,1.7,0.2c0,2.2,0,4.3,0,6.4c0.1,0,0.1,0,0.2,0c0-2,0-4.1,0-6.1
				c0.1,0,0.2,0,0.2,0c0,2.9,0,5.8,0,8.7c0-0.2-0.1-0.3-0.1-0.5C436.1,112.3,435.2,111.4,434.4,111.6z"/>
			<path d="M428.1,80.7c0.5,0.1,1.1,0.1,1.7,0.2c0,3.5,0,6.9,0,10.5c-0.6,0-1.1-0.1-1.7-0.1C428.1,87.7,428.1,84.3,428.1,80.7z"/>
			<path d="M431.9,101.7c-0.6,0-1.1-0.1-1.8-0.1c0-3.2,0-6.4,0-9.8c0.5,0,1.1,0.1,1.8,0.2C431.9,95.3,431.9,98.5,431.9,101.7z"/>
			<path d="M429.8,101.6c-0.7-0.1-1.2-0.1-1.8-0.1c0-3.3,0-6.5,0-9.7c1.8,0,1.8,0,1.8,1.7C429.9,96.1,429.8,98.8,429.8,101.6z"/>
			<path d="M425.5,120.1c0-2.9,0-5.8,0-8.7c0.7,0,1.3,0.1,2,0.1c0,2.9,0,5.8,0,8.7C426.8,120.2,426.2,120.1,425.5,120.1z"/>
			<path d="M430.2,80.9c0.6,0.1,1.1,0.1,1.7,0.2c0,3.5,0,6.9,0,10.5c-0.6-0.1-1.1-0.1-1.7-0.2C430.1,87.9,430.2,84.5,430.2,80.9z"/>
			<path d="M432,120.4c-0.6,0-1.2,0-1.9,0c0-2.9,0-5.7,0-8.7c0.6,0,1.2,0.1,1.9,0.1C432,114.7,432,117.5,432,120.4z"/>
			<path d="M432.4,197c0,2.6,0,5.2,0,7.9c-0.7,0-1.4,0-2.2,0c0-1.2,0-2.3,0-3.6c0.6,0,1.1-0.1,1.7-0.1c0-0.1-0.1-0.2-0.1-0.2
				c-1.7-0.2-1.7-0.2-1.7-1.9c0-0.7,0-1.3,0-2.1C430.9,197,431.6,197,432.4,197z"/>
			<path d="M427.4,128.8c-0.7,0-1.3-0.1-2-0.1c0-2.7,0-5.4,0-8.2c0.7,0,1.3,0.1,2,0.1C427.4,123.3,427.4,126,427.4,128.8z"/>
			<path d="M427.4,136.9c-0.8-0.1-1.4-0.1-2.1-0.2c0-2.5,0-5,0-7.6c0.7,0,1.4,0.1,2.1,0.1C427.4,131.8,427.4,134.3,427.4,136.9z"/>
			<path d="M428,102c1.8-0.1,1.8-0.1,1.8,1.7c0,2.5,0,5,0,7.6c-0.6,0-1.2-0.1-1.8-0.1C428,108.1,428,105.1,428,102z"/>
			<path d="M431.9,111.3c-0.2,0-0.3,0-0.4,0c-1.5,0-1.5,0-1.5-1.5c0-2.5,0-5.1,0-7.7c0.7,0,1.2,0.1,1.9,0.1
				C432,105.3,432,108.3,431.9,111.3z"/>
			<path d="M436.6,128.9c0-1.9,0-3.7,0-5.6c0,0-0.1,0-0.1,0c0,2,0,3.9,0,5.9c-0.6,0-1.1,0-1.9,0c0-2.7,0-5.4,0-8.1
				c0.4,0,1-0.1,1.4,0c0.3,0.1,0.7,0.5,0.7,0.8c0,2.3,0,4.6,0,6.9C436.7,128.9,436.6,128.9,436.6,128.9z"/>
			<path d="M435.3,208.1c-0.6,0.9-1.6,0.3-2.5,0.7c0-1.2,0-2.3,0-3.5c1.5,0,3-0.1,4.5-0.1c0.2,0,0.5,0.4,0.6,0.7
				c0.1,0.8,0,1.6,0,2.4C436.7,208.8,435.6,208.7,435.3,208.1z"/>
			<path d="M436.5,129.7c0,0.6,0,1,0,1.4c0,0,0,0,0.1,0c0-0.4,0.1-0.7,0.1-1.1c0.1,0,0.2,0,0.4,0c0,1,0,1.9,0,2.9c0,1.1,0,2.2,0,3.3
				c0,1-0.5,1.2-1.4,1.1c-0.3,0-0.6-0.1-0.9-0.1c0-2.5,0-5,0-7.7C435.3,129.6,435.9,129.6,436.5,129.7z"/>
			<path d="M425.3,137.2c0.8,0,1.4,0,2.1,0c0,2.4,0,4.8,0,7.3c-0.7,0-1.4-0.1-2.1-0.1C425.3,142,425.3,139.6,425.3,137.2z"/>
			<path d="M432.3,111.4c0-3.1,0-6,0-9.1c0.5,0,1.1,0.1,1.7,0.1c0,3,0,6,0,9.1C433.5,111.5,433,111.4,432.3,111.4z"/>
			<path d="M434.7,137.6c0.4,0,0.7,0,0.9,0c1-0.1,1.4,0.3,1.3,1.4c-0.1,1.6-0.1,3.3-0.1,4.9c0,0.7-0.2,1-1,1c-0.7,0-1.3,0-1.3-1
				C434.7,141.9,434.7,139.8,434.7,137.6z"/>
			<path d="M429.7,120.3c-0.6,0-1.2-0.1-1.9-0.1c0-2.9,0-5.7,0-8.6c0.6,0,1.2,0,1.9,0C429.8,114.6,429.7,117.4,429.7,120.3z"/>
			<path d="M435.3,210c-0.1,2.6,0.5,2.2-2.5,2.3c0-1,0-2.1,0-3.3c1.7,0,3.3,0,5.2,0c0,0.8,0,1.7,0,2.6c0,0.2-0.3,0.5-0.5,0.5
				c-0.4,0.1-0.8,0-1.2,0.1c-0.7,0.1-1.1-0.1-1-0.9C435.3,210.8,435.3,210.4,435.3,210z"/>
			<path d="M425.2,151.7c0-2.3,0-4.5,0-6.8c0.7,0,1.4,0,2.2,0c0,2.3,0,4.5,0,6.8C426.6,151.7,425.9,151.7,425.2,151.7z"/>
			<path d="M427.8,128.8c0-2.7,0-5.4,0-8.2c0.6,0,1.2,0.1,1.9,0.1c0,2.8,0,5.5,0,8.2C429.1,128.9,428.5,128.8,427.8,128.8z"/>
			<path d="M434.2,129.2c-1.9,0-1.9,0-1.9-1.7c0-2.1,0-4.3,0-6.4c1.6-0.4,1.9-0.2,1.9,1.4C434.3,124.7,434.3,126.9,434.2,129.2z"/>
			<path d="M434.1,120.6c-0.6-0.1-1.1-0.1-1.8-0.2c0-2.9,0-5.7,0-8.6c0.6,0,1.1,0.1,1.8,0.1C434.2,114.8,434.1,117.7,434.1,120.6z"
				/>
			<path d="M432,129c-0.6,0-1.2-0.1-1.9-0.1c0-0.9,0-1.8,0-2.7c0.4-0.3,0.8-0.7,1.2-1.1c-0.1-0.1-0.1-0.2-0.2-0.3
				c-0.3,0-0.7-0.1-1.1-0.2c0-1.3,0-2.6,0-4c0.6,0.1,1.2,0.1,1.9,0.2C432.1,123.6,432.1,126.3,432,129z"/>
			<path d="M429.7,144.6c-0.7,0-1.3-0.1-1.9-0.1c0-2.4,0-4.8,0-7.2c0.6,0,1.2,0.1,1.9,0.1C429.8,139.8,429.7,142.2,429.7,144.6z"/>
			<path d="M425.2,152.1c0.7,0,1.4,0,2.2,0c0,2.2,0,4.3,0,6.5c-0.7,0-1.4-0.1-2.2-0.1C425.2,156.4,425.2,154.3,425.2,152.1z"/>
			<path d="M434.8,152.4c0.6,0,1.1-0.1,1.5,0c0.3,0.1,0.7,0.5,0.7,0.7c0.1,1.8,0,3.7,0,5.7c-0.5,0-1.1,0-1.7,0
				c-0.2,0-0.6-0.4-0.6-0.6C434.8,156.3,434.8,154.3,434.8,152.4z"/>
			<path d="M430.2,137.4c0.7,0,1.3,0.1,2,0.1c0,2.4,0,4.7,0,7.1c-0.6,0-1.3,0-2,0c0-0.9,0-1.8,0-2.7c0.2-0.1,0.5-0.3,0.8-0.4
				c0-0.1,0-0.1-0.1-0.2c-0.2,0-0.4,0-0.7,0C430.2,140,430.2,138.8,430.2,137.4z"/>
			<path d="M434.5,112.1c1.8-0.1,1.8-0.1,1.8,1.6c0,2.3,0,4.6,0,7.1c-0.6,0-1.1-0.1-1.8-0.1C434.5,117.8,434.5,115,434.5,112.1z"/>
			<path d="M434.8,151.9c0-2.3,0-4.4,0-6.6c1.8-0.4,2.1-0.2,2.1,1.6c0,1.2,0.1,2.5,0.1,3.7c0.1,1.3,0,1.4-1.4,1.4
				C435.4,152,435.1,152,434.8,151.9z"/>
			<path d="M430.2,129.3c0.7,0,1.3,0.1,1.9,0.1c0,2.5,0,5,0,7.7c-0.6,0-1.3-0.1-1.9-0.2C430.1,134.4,430.2,131.9,430.2,129.3z"/>
			<path d="M427.9,129.2c0.6,0,1.2,0.1,1.9,0.1c0,2.6,0,5.1,0,7.6c-0.6,0-1.2,0-1.9,0C427.9,134.3,427.9,131.8,427.9,129.2z"/>
			<path d="M434.3,137.1c-0.6,0-1.1,0-1.8,0c0-2.5,0-5.1,0-7.6c0.5,0,1.1,0,1.8,0C434.3,132.1,434.3,134.6,434.3,137.1z"/>
			<path d="M425.1,158.9c0.8,0,1.4,0,2.2,0c0,2,0,4,0,6c-0.8,0-1.4,0-2.2,0C425.1,162.9,425.1,161,425.1,158.9z"/>
			<path d="M429.7,151.7c-0.7,0-1.3,0-2,0c0-2.3,0-4.5,0-6.8c0.6,0,1.2,0,2,0C429.8,147.2,429.7,149.5,429.7,151.7z"/>
			<path d="M432.2,151.9c-0.7,0-1.3-0.1-2-0.1c0-2.3,0-4.5,0-6.8c0.7,0,1.3,0.1,2,0.1C432.2,147.3,432.2,149.6,432.2,151.9z"/>
			<path d="M432.5,145.2c0.7,0,1.3,0,2,0c0,2.3,0,4.4,0,6.8c-0.5,0-0.9,0-1.4,0c-0.2,0-0.5-0.3-0.5-0.5
				C432.4,149.3,432.5,147.2,432.5,145.2z"/>
			<path d="M434.4,144.7c-0.6,0-1.2,0-1.9,0c0-2.4,0-4.8,0-7.2c0.6,0,1.2,0.1,1.9,0.1C434.4,140,434.4,142.3,434.4,144.7z"/>
			<path d="M429.7,158.6c-0.7,0-1.3,0-2,0c0-2.1,0-4.2,0-6.4c0.6,0,1.3,0,2,0C429.8,154.3,429.8,156.4,429.7,158.6z"/>
			<path d="M425.1,165.3c0.8,0,1.4,0,2.2,0c0,1.9,0,3.8,0,5.7c-0.8,0-1.4,0-2.2,0C425.1,169.1,425.1,167.3,425.1,165.3z"/>
			<path d="M437.3,171c-0.1,0-0.1,0.1-0.2,0.1c-2.1,0.3-2.2,0.3-2.2-1.9c0-1.1,0-2.3,0-3.4c0-0.1,0-0.1,0.1-0.2
				c0.1,0,0.1-0.1,0.2-0.1c2.1-0.2,2.2-0.2,2.2,2C437.3,168.7,437.3,169.8,437.3,171z"/>
			<path d="M429.8,159c0,2,0,4,0,6c-0.7,0-1.3,0-2,0c0-2,0-4,0-6C428.4,159,429.1,159,429.8,159z"/>
			<path d="M427.3,171.4c0,1.8,0,3.5,0,5.3c-0.8,0-1.5,0-2.3,0c0-1.8,0-3.5,0-5.3C425.8,171.4,426.5,171.4,427.3,171.4z"/>
			<path d="M420.5,215.7c-0.6,0.6-1.2,1.2-1.8,1.8c-5.3,6-6.8,12.8-4.4,20.4c1.5,4.5,4.3,7.9,8.8,9.8c0.2,0.1,0.4,0.3,0.6,0.5
				c-2.6-0.8-4.8-2.3-6.5-4.4c-4.6-5.8-5.4-12.2-3.2-19.1c1-3.1,2.7-5.8,5-8C419.5,216.4,420.1,216.1,420.5,215.7
				C420.5,215.8,420.5,215.7,420.5,215.7z"/>
			<path d="M425.3,67.3c0.7,3.8,1.4,7.6,2.2,11.6c-0.6-0.1-1.1-0.1-1.8-0.2c-0.3-3.9-0.5-7.7-0.8-11.5
				C425,67.3,425.1,67.3,425.3,67.3z"/>
			<path d="M424.9,182.6c0.8,0,1.5,0,2.3,0c0,1.5,0,3.1,0,4.7c-0.8,0-1.5,0-2.3,0C424.9,185.8,424.9,184.2,424.9,182.6z"/>
			<path d="M429.7,171.1c-0.7,0-1.3,0-2,0c0-1.9,0-3.7,0-5.7c0.7,0,1.3,0,2,0C429.8,167.3,429.7,169.1,429.7,171.1z"/>
			<path d="M435.1,177.2c0.8,0,1.6,0,2.4,0c0,1.6,0,3.2,0,4.9c-0.7,0-1.5,0-2.4,0C435.1,180.5,435.1,178.9,435.1,177.2z"/>
			<path d="M437.5,187.1C437.5,187.1,437.5,187.2,437.5,187.1c-2.3,0.5-2.5,0.4-2.5-1.9c0-0.8,0-1.7,0-2.6c0.9,0,1.7,0,2.5,0
				C437.5,184.1,437.5,185.6,437.5,187.1z"/>
			<path d="M424.9,182.1c0-1.7,0-3.3,0-4.9c0.8,0,1.5,0,2.3,0c0,1.6,0,3.2,0,4.9C426.5,182.1,425.8,182.1,424.9,182.1z"/>
			<path d="M429.8,177.2c0,1.6,0,3.3,0,4.9c-0.8,0-1.4,0-2.1,0c0-1.7,0-3.2,0-4.9C428.3,177.2,429,177.2,429.8,177.2z"/>
			<path d="M429.7,176.8c-0.7,0-1.4,0-2.1,0c0-1.8,0-3.5,0-5.3c0.7,0,1.3,0,2.1,0C429.8,173.2,429.7,175,429.7,176.8z"/>
			<path d="M427.2,192.1c-0.8,0-1.6,0-2.4,0c0-1.5,0-2.9,0-4.4c0.8,0,1.6,0,2.4,0C427.2,189.1,427.2,190.6,427.2,192.1z"/>
			<path d="M429.8,182.6c0,1.6,0,3.1,0,4.7c-0.7,0-1.4,0-2.2,0c0-1.6,0-3.1,0-4.7C428.3,182.6,429,182.6,429.8,182.6z"/>
			<path d="M427.2,192.5c0,1.3,0,2.7,0,4.1c-0.8,0-1.6,0-2.4,0c0-1.3,0-2.7,0-4.1C425.6,192.5,426.3,192.5,427.2,192.5z"/>
			<path d="M427.7,187.6c0.7,0,1.4,0,2.1,0c0,1.5,0,2.9,0,4.4c-0.7,0-1.3,0-2.1,0C427.6,190.6,427.7,189.2,427.7,187.6z"/>
			<path d="M437.8,196.5c-0.9,0-1.7,0-2.6,0c0-1.3,0-2.6,0-3.9c0,0,0-0.1,0.1-0.1c2.4-0.3,2.5-0.3,2.5,2.1
				C437.8,195.1,437.8,195.7,437.8,196.5z"/>
			<path d="M427.6,192.5c0.7,0,1.4,0,2.2,0c0,1.3,0,2.7,0,4.1c-0.7,0-1.4,0-2.2,0C427.6,195.2,427.6,193.9,427.6,192.5z"/>
			<path d="M430.1,196.6c0-1.4,0-2.7,0-4.1c0.8,0,1.5,0,2.3,0c0,1.4,0,2.7,0,4.1C431.6,196.6,430.9,196.6,430.1,196.6z"/>
			<path d="M424.8,197.1c0.8,0,1.5,0,2.4,0c0,1.2,0,2.5,0,3.9c-0.8,0-1.5,0-2.4,0C424.8,199.6,424.8,198.4,424.8,197.1z"/>
			<path d="M437.8,200.7c-0.7,0-1.4,0.1-2.1,0.1c-0.2,0-0.5-0.4-0.5-0.6c-0.1-1.1,0-2.1,0-3.3c0.9,0,1.7,0,2.6,0
				C437.8,198.2,437.8,199.4,437.8,200.7z"/>
			<path d="M432.7,192.3c0.8,0.1,2.1,0.1,2.2,0.3c0.2,1.2,0.3,2.4,0,3.6c-0.1,0.3-1.4,0.3-2.2,0.5
				C432.7,195.2,432.7,193.9,432.7,192.3z"/>
			<path d="M429.8,200.9c-0.7,0-1.4,0-2.1,0c0-1.2,0-2.5,0-3.9c0.7,0,1.4-0.1,2.1-0.1C429.8,198.2,429.8,199.5,429.8,200.9z"/>
			<path d="M427.2,201.3c0,1.3,0,2.5,0,3.7c-0.8,0-1.6,0-2.4,0c0-1.2,0-2.3,0-3.6C425.5,201.3,426.3,201.3,427.2,201.3z"/>
			<path d="M432.5,192c-0.9,0-1.6,0-2.4,0c0-0.4-0.1-0.9-0.1-1.1c0.4-0.4,0.7-0.7,1-1c-0.3-0.3-0.6-0.5-1-0.9c0-0.3,0-0.8,0-1.3
				c0.1-0.1,0.2-0.1,0.2-0.1c2.6,0,2.1-0.3,2.2,2.1C432.5,190.5,432.5,191.2,432.5,192z"/>
			<path d="M435,200.9c-0.8-0.1-2.2-0.1-2.2-0.3c-0.2-1.1-0.2-2.3,0-3.5c0.1-0.3,1.4-0.3,2.2-0.4C435,198.2,435,199.4,435,200.9z"/>
			<path d="M429.8,201.3c0,1.2,0,2.4,0,3.7c-0.7,0-1.4,0-2.3,0c0-1,0-2.1,0-3.2c0-0.2,0.3-0.4,0.5-0.5
				C428.6,201.2,429.1,201.2,429.8,201.3z"/>
			<path d="M424.7,205.4c0.9,0,1.6,0,2.5,0c0,1.1,0,2.1,0,3.3c-0.8,0-1.6,0-2.5,0C424.7,207.7,424.7,206.6,424.7,205.4z"/>
			<path d="M418.9,221.7c-4.6,9.2-4,17.1,4.9,23.1C415.5,241.5,413.5,229.1,418.9,221.7z"/>
			<path d="M424.7,209.3c0.8,0,1.6-0.1,2.5-0.1c0,1.2,0,2.2,0,3.3c-0.8,0-1.6,0-2.5,0C424.7,211.4,424.7,210.4,424.7,209.3z"/>
			<path d="M430.2,208.6c0-1.1,0-2.2,0-3.3c0.7,0,1.4,0,2.2,0c0,0.4,0.1,0.8,0.1,1.2C432.7,208.8,432.6,208.9,430.2,208.6z"/>
			<path d="M427.6,208.7c0-1.1,0-2.2,0-3.3c0.8,0,1.4,0,2.2,0c0,1.1,0,2.1,0,3.3C429,208.7,428.4,208.7,427.6,208.7z"/>
			<path d="M424.1,275.1c0-0.5,0-0.9,0-1.3c-0.1-1,0.2-1.6,1.4-1.6c0.5,0,1.3-0.1,1.4,0.1c0.2,0.6,0.2,1.4,0.2,2.1
				c0,0.1-0.3,0.3-0.6,0.4C425.7,274.9,425,275,424.1,275.1z"/>
			<path d="M430.2,212.3c0-1.1,0-2.1,0-3.2c0.7,0,1.4-0.1,2.4-0.1c0,1,0,2,0,2.9c0,0.2-0.4,0.4-0.6,0.4
				C431.4,212.4,430.8,212.3,430.2,212.3z"/>
			<path d="M429.7,212.4c-0.8,0-1.4,0-2.2,0c0-0.4-0.1-0.7-0.1-1c0-0.7,0-1.4,0-2.2c0.8,0,1.5,0,2.2,0
				C429.7,210.2,429.7,211.3,429.7,212.4z"/>
			<path d="M430.2,274.2c0-0.5-0.1-0.8-0.1-1.2c0-1.1,1.4-2.1,2.3-1.4c0.4,0.3,0.4,1.1,0.4,1.6c0,0.2-0.4,0.6-0.7,0.7
				C431.6,274.1,431,274.1,430.2,274.2z"/>
			<path d="M427.2,274.7c0.2-1,0.1-2,0.5-2.6c0.2-0.3,1.6-0.4,1.9-0.1c0.4,0.5,0.3,1.4,0.5,2.2C429.1,274.4,428.3,274.5,427.2,274.7
				z"/>
			<path d="M430.4,244.7c-0.6-3-0.4-2.8,2.2-2.8C433.1,244,432.9,244.3,430.4,244.7z"/>
			<path d="M427.5,244.8c0-0.9,0-1.6,0-2.6c0.8,0,1.5-0.1,2.3-0.1c0,0.9,0,1.8,0,2.7C429,244.8,428.3,244.8,427.5,244.8z"/>
			<path d="M427,242.4c0,0.8,0,1.5,0,2.3c-1.8,0.1-2.7-0.4-2.7-1.3C424.3,242.3,424.6,242.2,427,242.4z"/>
			<path d="M404,332.4c5.2,1,10.5,0.1,15.7-0.1C414.5,333,409.3,333.4,404,332.4z"/>
			<path d="M379.8,306.4c-0.9-3.8-0.7-8.7-0.6-12.3C379.4,297.6,379.6,302.5,379.8,306.4z"/>
			<path class="st11" d="M397.2,330.5c-0.2,0.1-0.5,0.3-0.6,0.2c-2-1.2-4-2.4-5.9-3.6c0,0,0-0.1,0-0.2c0,0,0,0,0,0
				c0.2,0,0.4,0,0.6,0C393.2,328.1,395.2,329.3,397.2,330.5z"/>
			<path d="M436.3,81.7c0,3.4,0,6.7,0,10.1c-0.1,0-0.1,0-0.2,0c0-3.4,0-6.7,0-10.1C436.2,81.7,436.3,81.7,436.3,81.7z"/>
			<path class="st11" d="M388.1,263.1c-0.1-0.2-0.2-0.4-0.2-0.5c0.9-1.6,1.8-3.1,2.7-4.7c0.1,0,0.1,0,0.2,0
				C390,259.7,389,261.4,388.1,263.1z"/>
			<path d="M467.1,255.3c0.8,1.5,1.6,3.1,2.5,4.6c-0.2,0-0.4,0-0.5-0.1c-0.7-1.4-1.4-2.8-2.1-4.2C467,255.6,467.1,255.5,467.1,255.3
				z"/>
			<path class="st11" d="M438.5,216.7c1.5,0.4,2.3,1.7,3.1,2.9c0,0.1-0.2,0.3-0.2,0.5c-0.8-0.9-1.5-1.7-2.3-2.6
				C438.8,217.2,438.7,216.9,438.5,216.7z"/>
			<path class="st11" d="M390.9,258c-0.1,0-0.1,0-0.2,0c0.8-1.5,1.7-3,2.5-4.4c0-0.1,0.2,0,0.4,0C392.7,255,391.8,256.5,390.9,258z"
				/>
			<path d="M436.7,112.4c0,2.7,0,5.3,0,8c0,0-0.1,0-0.1,0c0-2.7,0-5.3,0-8C436.6,112.4,436.6,112.4,436.7,112.4z"/>
			<path class="st11" d="M440.1,242.3c-0.5,1.3-1.8,2.3-2.8,2.1C438.3,243.7,439.2,243,440.1,242.3z"/>
			<path d="M424,242.5c0,0.5,0,0.9,0,1.5c-0.7-0.4-1.3-0.8-1.9-1.2c0-0.1,0.1-0.2,0.1-0.3C422.7,242.6,423.3,242.5,424,242.5z"/>
			<path d="M474.7,281.6c0,2.7,0,5.5,0,8.2C474.7,287.1,474.7,284.4,474.7,281.6C474.7,281.6,474.7,281.6,474.7,281.6z"/>
			<path d="M391.1,326.9c-0.2,0-0.4,0-0.6,0c-0.7-0.7-1.3-1.4-2-2c-0.3-0.3-0.7-0.5-1-0.8c0.1-0.1,0.2-0.2,0.2-0.2
				C388.9,324.9,390,325.9,391.1,326.9z"/>
			<path d="M382.5,315.4c0.5,1.1,1,2.2,1.5,3.2c-0.1,0-0.1,0.1-0.2,0.1c-0.5-1.1-1.1-2.2-1.6-3.2
				C382.4,315.4,382.5,315.4,382.5,315.4z"/>
			<path d="M442.4,238.7L442.4,238.7c-0.1,0.2-0.2,0.4-0.2,0.6c-0.2,0.1-0.3,0.1-0.5,0.2l0,0C441.9,239.2,442.1,239,442.4,238.7z"/>
			<path d="M438.5,216.7c0.2,0.3,0.3,0.5,0.5,0.8C438.8,217.2,438.7,216.9,438.5,216.7C438.5,216.7,438.5,216.7,438.5,216.7z"/>
			<path d="M417.8,220.6C417.8,220.7,417.8,220.8,417.8,220.6C417.8,220.8,417.8,220.7,417.8,220.6L417.8,220.6z"/>
			<path d="M441.5,240.3L441.5,240.3L441.5,240.3C441.5,240.4,441.4,240.4,441.5,240.3c-0.1,0.1-0.1,0-0.2,0
				C441.4,240.3,441.4,240.3,441.5,240.3z"/>
			<path d="M441.6,239.9C441.6,239.9,441.6,239.9,441.6,239.9c0-0.1,0.1-0.3,0.1-0.4c0,0,0,0,0,0
				C441.6,239.6,441.6,239.8,441.6,239.9z"/>
			<polygon points="417.8,220.6 417.8,220.6 417.8,220.6 			"/>
			<polygon points="438.2,216.5 438.2,216.5 438.2,216.5 438.1,216.5 438.1,216.5 			"/>
			<path class="st11" d="M423.1,55.8c-0.4,0-0.7,0-1.2,0c-0.1,0.3-0.2,0.6-0.5,1.2c-0.4-0.5-0.8-0.8-0.8-1.2c0-0.6-0.1-1.4,0.9-1.6
				c0.3-0.1,0.6-0.3,0.9-0.5c0.3-0.1,0.6-0.3,0.9-0.4c-0.7-3-1.5-6-2.2-9c0.1,0,0.2,0,0.3-0.1c0.2,0.7,0.4,1.3,0.6,2
				c0.5,2.2,1.1,4.4,1.6,6.7c0.2,1-0.2,1.9-1.4,2.3C422.5,55.5,422.8,55.6,423.1,55.8C423.1,55.8,423.1,55.8,423.1,55.8z"/>
			<path class="st11" d="M431.9,45.5c0,0,0.2,0.2,0.4,0.3c0,0,0,0.1-0.1,0.1c-0.3-0.1-0.7-0.2-1-0.2c-0.1,0.4-0.2,0.7-0.5,1.5
				c-0.4-0.6-0.8-0.9-0.9-1.2c-0.1-0.6-0.2-1.2,0.6-1.5c0.7-0.2,1.4-0.5,2-0.8c0.1,0.1,0.2,0.2,0.2,0.3
				C432.5,44.5,432.2,44.9,431.9,45.5z"/>
			<path class="st11" d="M421.5,42.5c-0.7,0.9-1.5,1.8-2.4,2.9c-0.2-0.5-0.6-0.9-0.6-1.3c0-0.7,0.2-1.3,1.1-1.4
				c0.6-0.1,1.1-0.4,1.6-0.6C421.3,42.2,421.4,42.4,421.5,42.5z"/>
			<path class="st11" d="M432.8,65.8c0.1,0.4,0.2,1.1,0.3,1.9c0.8-0.2,0.7-1.7,2.2-1.3c-0.9,1.1-1.6,2-2.4,2.9
				C431.2,68.1,433.3,66.7,432.8,65.8z"/>
			<path class="st11" d="M423.9,54.6c0.9,3.7,1.8,7.4,2.8,11.1c-0.1,0-0.2,0-0.3,0.1c-0.9-3.7-1.8-7.4-2.7-11.1
				C423.7,54.6,423.8,54.6,423.9,54.6z"/>
			<path class="st11" d="M438.1,216.3c-0.1-0.5-0.1-0.9-0.2-1.4c0.1,0,0.2-0.1,0.3-0.1c0.5,0.4,1.1,0.8,1.8,1.4
				C439.2,216.3,438.7,216.3,438.1,216.3C438.1,216.4,438.1,216.3,438.1,216.3z"/>
			<path class="st11" d="M441.6,239.9c0-0.1,0.1-0.3,0.1-0.4c0.2-0.1,0.3-0.1,0.5-0.2l0,0c0.1,0.1,0.2,0.1,0.3,0.2
				c-0.1,0.2-0.3,0.4-0.4,0.5c0,0,0.1,0,0.1,0l0,0C441.9,240,441.7,239.9,441.6,239.9z"/>
			<path class="st11" d="M442.1,239.3c0.1-0.2,0.1-0.4,0.2-0.6c0,0.2,0,0.5,0,0.7C442.3,239.4,442.2,239.3,442.1,239.3L442.1,239.3z
				"/>
			<path d="M438.1,216.4C438.1,216.4,438.2,216.5,438.1,216.4c0,0.1,0,0.1,0,0.1C438.1,216.4,438.1,216.4,438.1,216.4L438.1,216.4z"
				/>
			<polygon points="442,240 442,239.9 442,240 			"/>
			<path d="M442.1,239.3c0.1,0.1,0.2,0.1,0.3,0.2c0,0,0,0,0,0C442.3,239.4,442.2,239.3,442.1,239.3z"/>
			<polygon points="441.5,240.3 441.5,240.4 441.5,240.4 			"/>
		</g>
	</g>
</g>
<g id="main_text">
	<g>
		<path class="st12" d="M139.5,106.9V168h-20.5l-23.8-45.4v39.6h5.6v5.8H79.7v-5.8h5.9v-55.3h-5.9V101h28.2l22,43.1v-37.2H124V101
			h21.7v5.9H139.5z"/>
		<path class="st12" d="M154.8,168v-5.8h5.9v-55.3h-5.9V101h58.4v18.5h-15.4v-12.6H184v24.3h6.8v-6.5h12.1v18.6h-12.1v-6.7H184v25.5
			h13.8v-13.9h15.4V168H154.8z"/>
		<path class="st12" d="M282.6,106.9L263.5,168h-18.7l-19.9-61.1h-5.2V101h35.9v5.9h-5.6l11.5,42.1l11.2-42.1h-5.8V101h19.9v5.9
			H282.6z"/>
		<path class="st12" d="M292.6,168v-5.8h5.9v-55.3h-5.9V101H351v18.5h-15.4v-12.6h-13.8v24.3h6.8v-6.5h12.1v18.6h-12.1v-6.7h-6.8
			v25.5h13.8v-13.9H351V168H292.6z"/>
		<path class="st12" d="M399.2,168v-21.4c0-1.8-0.1-3.3-0.4-4.5s-0.8-2.1-1.7-2.7c-0.8-0.7-1.9-1.1-3.2-1.4
			c-1.3-0.3-3.1-0.4-5.3-0.4h-1.7v24.6h6.6v5.8h-35.9v-5.8h5.9v-55.3h-5.9V101h29.2c7.1,0,13,0.3,17.7,0.8c4.7,0.6,8.4,1.5,11.2,2.9
			c2.8,1.4,4.8,3.3,5.9,5.6c1.2,2.4,1.7,5.3,1.7,8.8c0,4.3-1.3,7.6-3.8,9.8c-2.5,2.2-6.9,3.9-13.2,5.1c3.4,0.7,6.1,1.5,8.3,2.2
			c2.2,0.8,3.8,1.7,5,2.8c1.2,1.1,2,2.6,2.4,4.2c0.4,1.7,0.6,3.8,0.6,6.3v12.6h5.6v5.8H399.2z M399.2,114.1c0-1.6-0.1-2.8-0.4-3.8
			c-0.2-0.9-0.8-1.7-1.7-2.2c-0.9-0.5-2.1-0.8-3.8-1c-1.6-0.2-3.8-0.2-6.6-0.2v25.2c2.3,0,4.3-0.1,5.9-0.2c1.6-0.1,2.9-0.4,3.8-0.8
			c1-0.4,1.7-1,2.1-1.9c0.4-0.8,0.6-1.9,0.6-3.3V114.1z"/>
	</g>
	<g id="Layer_18">
		<path class="st12" d="M125.2,262l-16.8,36v21h7.6v6H77.5v-6h6.8v-19.5l-19-37.5H60v-6.1h38.1v6.1h-5.9l11.1,25.7l11.5-25.7h-6.3
			v-6.1h22.5v6.1H125.2z"/>
		<path class="st12" d="M201.9,306.8c-1.6,4.5-3.9,8.2-6.8,11c-3,2.8-6.5,4.8-10.6,6.1c-4.1,1.2-8.8,1.9-13.9,1.9
			c-22.7,0-34-11.8-34-35.4c0-6.5,0.8-12,2.4-16.5c1.6-4.5,3.9-8.1,6.8-10.9c3-2.8,6.5-4.8,10.7-6c4.2-1.2,8.9-1.8,14-1.8
			c6.9,0,12.5,1.1,16.9,3.3c4.4,2.2,7.8,5,10.3,8.4c2.5,3.4,4.2,7.2,5.2,11.4c0.9,4.2,1.4,8.3,1.4,12.2
			C204.3,296.8,203.5,302.3,201.9,306.8z M178,270.7c0-3.8-0.6-6.4-1.7-7.8c-1.1-1.4-3.1-2.1-5.9-2.1c-3,0-5,0.7-6.1,2.1
			c-1.1,1.4-1.7,4-1.7,7.8v39.6c0,3.7,0.6,6.3,1.7,7.7c1.1,1.4,3.1,2.1,6.1,2.1c2.8,0,4.8-0.7,5.9-2.1c1.1-1.4,1.7-4,1.7-7.7V270.7z
			"/>
		<path class="st12" d="M278.3,262v41.5c0,4.1-0.5,7.6-1.5,10.4c-1,2.8-2.6,5.1-4.9,6.9c-2.3,1.8-5.2,3-8.8,3.8
			c-3.6,0.8-7.9,1.2-13.1,1.2c-10.8,0-18.8-1.7-23.8-5.1c-5-3.4-7.6-8.8-7.6-16.1V262h-6.3v-6.1h38.4v6.1h-7.6v42.5
			c0,2.8,0.2,5.2,0.6,7c0.4,1.9,1,3.3,1.9,4.3c0.9,1,2.2,1.8,3.9,2.2c1.7,0.4,3.8,0.6,6.4,0.6c2.5,0,4.5-0.2,6-0.6
			c1.5-0.4,2.7-1.1,3.5-2.2c0.8-1.1,1.4-2.6,1.7-4.5c0.3-1.9,0.5-4.4,0.5-7.5V262h-7.8v-6.1h24.6v6.1H278.3z"/>
		<path class="st12" d="M355.9,262v63h-21.6l-25.1-46.8V319h5.9v6h-22.3v-6h6.3v-57h-6.3v-6.1h29.7l23.3,44.4V262h-6.3v-6.1h22.9
			v6.1H355.9z"/>
		<path class="st12" d="M436.4,296.7v28.2H429l-2.4-4.8c-3.3,2-6.5,3.5-9.6,4.3c-3.1,0.8-6.6,1.3-10.5,1.3c-11.1,0-19.5-3-25.3-8.9
			s-8.7-14.7-8.7-26.1c0-5.5,0.7-10.5,2.2-14.9c1.5-4.4,3.6-8.2,6.5-11.2c2.8-3.1,6.2-5.4,10.3-7.1c4-1.7,8.5-2.5,13.6-2.5
			c3.8,0,7.3,0.4,10.4,1.2c3.1,0.8,6.5,2.1,10.1,4l2.4-4.2h8.5V277h-17.2v-8.4c0-0.9-0.2-1.8-0.5-2.7c-0.3-0.9-0.9-1.8-1.7-2.6
			c-0.8-0.8-1.8-1.4-3.1-1.9c-1.3-0.5-2.9-0.8-4.9-0.8c-3.7,0-6.3,1-7.9,3.1c-1.5,2.1-2.3,5.6-2.3,10.7v33.5c0,2.2,0.1,4.1,0.4,5.5
			c0.2,1.4,0.6,2.6,1.2,3.4c0.6,0.8,1.3,1.4,2.3,1.7c1,0.3,2.2,0.5,3.7,0.5c2.5,0,4.2-0.6,5.1-1.9c0.9-1.3,1.4-3.5,1.4-6.8v-13.5h-7
			v-5.7h38v5.7H436.4z"/>
	</g>
	<g id="Layer_19">
		<path class="st12" d="M218.3,227.5c-1.6,4.7-3.9,8.4-6.9,11.3c-3,2.8-6.7,4.8-11.1,6c-4.4,1.2-9.5,1.8-15.2,1.8h-29v-6h5.6v-57.4
			H156V177h30.4c5.6,0,10.6,0.6,14.8,1.8c4.3,1.2,7.9,3.1,10.7,5.8c2.9,2.6,5,6.1,6.5,10.2c1.5,4.2,2.2,9.2,2.2,15.1
			C220.7,217,219.9,222.8,218.3,227.5z M197.1,196.9c-0.1-3.5-0.5-6.2-1.3-8.2s-2-3.5-3.7-4.3c-1.7-0.8-4.1-1.2-7.2-1.2h-1.3v57.4h3
			c2.3,0,4.2-0.3,5.6-1c1.4-0.6,2.5-2,3.3-4.2c0.8-2.1,1.3-5.2,1.5-9.2c0.2-4,0.3-9.4,0.3-16.2C197.2,204.7,197.2,200.3,197.1,196.9
			z"/>
		<path class="st12" d="M229.9,246.6v-6h5.6v-57.4h-5.6V177h33.2v6.1h-5.6v57.4h5.6v6H229.9z"/>
		<path class="st12" d="M271.8,246.6v-6h5.6v-57.4h-5.6V177h55.1v19.1h-14.5v-13h-13v25.3h6.4v-6.7h11.4V221h-11.4v-6.9h-6.4v26.5
			h13v-14.5h14.5v20.5H271.8z"/>
	</g>
</g>
<g id="SUBTEXT">
	<g id="text">
		<path class="st13" d="M67.3,361.6c0,0,1.3,0,2-2.3l4-11.6c0.5-1.6,0.4-2.2,0-3.2c0.7,0,1.4,0,2.1,0c2.1,0,2.5,0.2,3.2,2.3
			l4.1,12.5c0.8,2.4,1.9,2.3,1.9,2.3v0.3h-7.8v-0.3c0,0,1.7-0.1,0.8-2.8l-1.1-3.4h-5c-0.4,1-0.7,2.1-1.1,3.1c-1,3,0.7,3,0.7,3v0.3
			h-4V361.6z M76.2,354.3l-2.1-6.5l-2.1,6.5H76.2z"/>
		<path class="st13" d="M98.3,349.2H98l0.4-4.6h14.1l0.3,4.8h-0.3c0,0-0.2-3.7-2.7-3.7h-2.2v13.8c0,2.3,2,2.3,2,2.3v0.3h-8.5v-0.3
			c0,0,1.9-0.2,1.9-2.3v-13.8l-1.9,0C98.6,345.5,98.5,349.2,98.3,349.2z"/>
		<path class="st13" d="M137,362.7c0,0-1.5,3.8-5.7,3.8c-4.1,0-6.4-5-7.5-7.9c-0.5-1.3-1-3-2.4-3.7c-0.8,0.1-1.6,0-1.6,0v4.5
			c0,2.1,1.7,2.3,1.7,2.3v0.3h-7.8v-0.3c0,0,1.5-0.1,1.5-2.3v-4.4c-1.8,0.1-2.7,0.7-2.7,1.9c0,0.9,0.5,1.8,1.5,1.9
			c-0.6,1-4.7,1.3-4.7-1.7c0-2.9,4-3,5.8-3h4.6c0.7,0,1.2,0,1.6-0.1c1.8-0.4,2.7-2,2.7-4.2c0-3-1.8-5.3-4.4-4.3v8h-4.6v-6
			c0-2.3-1.5-2.3-1.5-2.3v-0.4h8.2c1.6,0,2.9,0.2,3.9,0.5c2,0.7,3,2.2,3,4.4c0,2.2-1.1,3.9-3.2,4.6c-1,0.3-1.9,0.5-2.2,0.5
			C129.6,355.6,128.4,365.5,137,362.7z"/>
		<path class="st13" d="M131.5,344.8v-0.3h7.7v0.3c-0.6,0-1.6,0.6-1.6,1.9v13.1c0,1.5,1.2,1.9,1.6,1.9v0.3h-7.7v-0.3
			c0.4,0,1.6-0.3,1.6-1.9v-13.1C133.1,345.2,132,344.8,131.5,344.8z"/>
		<path class="st13" d="M140.2,361.6c0,0,1.8-0.1,1.8-1.8v-13.1c0-2-1.8-1.8-1.8-1.8v-0.4c3,0,6.2,0.1,9.2,0.1
			c2.3,0,4.5,0.5,4.6,3.3c0.1,2-1.3,3.4-3.2,3.4c2.3,0.3,4,2.3,4.1,5c0.2,4.1-2.6,5.6-6.8,5.6h-7.9V361.6z M149.6,348.2
			c0-1.5-0.9-3-2.2-3c-0.2,0-0.7,0.1-0.9,0.1v5.9C148.6,351.2,149.6,350.4,149.6,348.2z M148.3,360.8c1.6,0,2-1.9,2-4.2
			c0-2.6-0.8-4.7-2.7-4.7h-1v6.2C146.5,359.6,146.9,360.8,148.3,360.8z"/>
		<path class="st13" d="M155.5,344.9v-0.4h8.1v0.3c0,0-1.8,0.3-1.8,2.4v8.8c0,3.1,0.8,4.8,3.5,4.8c2.6,0,3.3-2,3.3-4.9v-8.8
			c0-2.4-1.8-2.4-1.8-2.4v-0.3h4.5v0.3c0,0-1.7,0.1-1.7,2.4v8.6c0,4.3-1.9,6.1-5.2,6.1c-3.9,0-7.1-1.2-7.1-6.1v-8.6
			C157.3,345,155.5,344.9,155.5,344.9z"/>
		<path class="st13" d="M172.3,349.2H172l0.4-4.6h14.1l0.3,4.8h-0.3c0,0-0.2-3.7-2.7-3.7h-2.2v13.8c0,2.3,2,2.3,2,2.3v0.3h-8.5v-0.3
			c0,0,1.9-0.2,1.9-2.3v-13.8l-1.9,0C172.5,345.5,172.4,349.2,172.3,349.2z"/>
		<path class="st13" d="M187.8,362v-0.3c0,0,1.5,0.1,1.5-1.8v-13.1c0-1.8-1.5-1.8-1.5-1.8v-0.4h13.3l0.1,4h-0.3
			c-0.1-2-0.6-3-1.7-3.2c-0.3-0.1-0.7-0.1-1.2-0.1h-4.1v7.3h3.7c1.3,0,2.1-0.4,2.3-2.3h0.3c-0.1,1.9-0.1,3.7,0,5.5h-0.3
			c-0.2-1.9-0.9-2.3-2.3-2.3h-3.7v5.5c0,0.7,0.1,1.2,0.1,1.5c0.1,0.3,0.3,0.5,0.5,0.6c0.3,0.1,0.7,0.1,1.3,0.1h2.9
			c1.7,0,2.7-1.3,2.9-3.5h0.4l-0.3,4.3H187.8z"/>
		<path class="st13" d="M215.3,349.2H215l0.4-4.6h14.1l0.3,4.8h-0.3c0,0-0.2-3.7-2.7-3.7h-2.2v13.8c0,2.3,2,2.3,2,2.3v0.3h-8.5v-0.3
			c0,0,1.9-0.2,1.9-2.3v-13.8l-1.9,0C215.6,345.5,215.5,349.2,215.3,349.2z"/>
		<path class="st13" d="M230.5,353.3c0-6.3,3.7-8.9,8.1-8.9c4.4,0,8,3.2,8,8.7c0,5.5-3.2,8.6-7.6,8.7
			C234.6,362,230.5,359.6,230.5,353.3z M238.3,345.3c-2.8,0-3.1,5.3-3,7.9c0,2.6,0.6,7.8,3.5,7.7c2.9-0.1,3-5.2,2.9-7.8
			C241.6,350.5,241.2,345.3,238.3,345.3z"/>
		<path class="st13" d="M265.2,360.4c0,5.3-3.1,7.6-5.9,7.6c-2.9,0-4.3-1.3-4.3-2.9c0-1.6,1.4-3.3,4-2.6c-1.5,0.9-1.5,4.7,0.2,4.7
			c1.6,0,1.4-4.1,1.4-6.8v-13.7c0-1.2-0.9-1.9-1.6-1.9v-0.3h7.7v0.3c-0.5,0-1.6,0.3-1.6,1.9V360.4z"/>
		<path class="st13" d="M265.2,361.6c0,0,1.3,0,2-2.3l4-11.6c0.5-1.6,0.4-2.2,0-3.2c0.7,0,1.4,0,2.1,0c2.1,0,2.5,0.2,3.2,2.3
			l4.1,12.5c0.8,2.4,1.9,2.3,1.9,2.3v0.3h-7.8v-0.3c0,0,1.7-0.1,0.8-2.8l-1.1-3.4h-5c-0.4,1-0.7,2.1-1.1,3.1c-1,3,0.7,3,0.7,3v0.3
			h-4V361.6z M274.1,354.3l-2.1-6.5l-2.1,6.5H274.1z"/>
		<path class="st13" d="M284.3,361.5c0,0,1.6,0,1.6-1.8l0-13.1c0-1.7-1.3-1.9-1.3-1.9v-0.3h5.6l0.5,1.6l2.7,8.4l3-8.3l0.5-1.6h5.4
			v0.3c0,0-1.3,0.4-1.3,2.3l0.1,12.1c0,2.2,1.7,2.3,1.7,2.3v0.3h-7.5v-0.3c0,0,1.3-0.1,1.3-2.3l0-11.2l-5,13.9l-0.3,0l-4.7-13.9
			l0,11.7c0,2,1.5,1.7,1.5,1.8v0.3h-4V361.5z"/>
		<path class="st13" d="M303.8,362v-0.3c0,0,1.5,0.1,1.5-1.8v-13.1c0-1.8-1.5-1.8-1.5-1.8v-0.4h13.3l0.1,4h-0.3
			c-0.1-2-0.6-3-1.7-3.2c-0.3-0.1-0.7-0.1-1.2-0.1h-4.1v7.3h3.7c1.3,0,2.1-0.4,2.3-2.3h0.3c-0.1,1.9-0.1,3.7,0,5.5h-0.3
			c-0.2-1.9-0.9-2.3-2.2-2.3h-3.7v5.5c0,0.7,0.1,1.2,0.1,1.5c0.1,0.3,0.3,0.5,0.5,0.6c0.3,0.1,0.7,0.1,1.3,0.1h2.9
			c1.7,0,2.7-1.3,2.9-3.5h0.4l-0.3,4.3H303.8z"/>
		<path class="st13" d="M319.9,362l-0.5-5.1h0.3c0.8,3.7,2.5,4.5,4.1,4.4c1.3,0,2.3-1,2.3-2.5c0-1.6-2-2.7-2.9-3.4
			c-0.9-0.7-1.6-1.3-2-1.7c-1.3-1.2-1.8-2.6-1.9-4.1c-0.1-3.3,2.3-5.1,5.4-5c1.3,0,2,0.3,3.1,1c0.7,0.4,0.9-1,0.9-1h0.2l0.3,4.8
			h-0.2c-0.7-3-2.4-4.1-3.7-4.1c-1.1,0.1-2,0.8-2,2c0,1.6,2,2.8,3,3.5c0.7,0.5,1.4,1,1.9,1.5c1.5,1.4,2.3,3,2.3,4.6
			c0.1,2.8-2,5.3-5.6,5.3C323.1,362,321.6,362,319.9,362z"/>
		<path class="st13" d="M344,349.2h-0.3l0.4-4.6h14.1l0.3,4.8h-0.3c0,0-0.2-3.7-2.7-3.7h-2.2v13.8c0,2.3,2,2.3,2,2.3v0.3h-8.5v-0.3
			c0,0,1.9-0.2,1.9-2.3v-13.8l-1.9,0C344.2,345.5,344.1,349.2,344,349.2z"/>
		<path class="st13" d="M356.2,361.6c0,0,1.3,0,2-2.3l4-11.6c0.5-1.6,0.4-2.2,0-3.2c0.7,0,1.4,0,2.1,0c2.1,0,2.5,0.2,3.2,2.3
			l4.1,12.5c0.8,2.4,1.9,2.3,1.9,2.3v0.3h-7.8v-0.3c0,0,1.7-0.1,0.8-2.8l-1.1-3.4h-5c-0.4,1-0.7,2.1-1.1,3.1c-1,3,0.7,3,0.7,3v0.3
			h-4V361.6z M365.1,354.3l-2.1-6.5l-2.1,6.5H365.1z"/>
		<path class="st13" d="M370.4,344.8v-0.3h8.6v0.3c-1.1,0.1-1.4,1-0.2,3.5l2.4,4.8l2.7-5.1c1.2-2.1,1.4-3.1,0.1-3.2v-0.3h3.7v0.3
			c-0.9,0-1.9,1.7-2.6,3l-2.8,5.2c-0.6,1.3-1.1,2.3-1.1,4l0,2c0,2.6,1.4,2.6,1.4,2.6v0.3h-7.1v-0.3c0,0,1.4,0,1.5-2.2
			c0,0,0.1-1.1,0-2.6c0-1.6-0.3-2.4-1-3.7l-2.8-5.1C372.6,346.7,371.6,344.8,370.4,344.8z"/>
		<path class="st13" d="M388.8,362v-0.3c0.9,0.1,1.8-0.9,1.8-2.3v-12.1c0-1.7-0.7-2.5-1.6-2.4v-0.3h7.8v0.3
			c-0.9,0.1-1.6,0.3-1.6,2.4v12.2c0,1.4,0.4,1.9,1.8,1.9h1.9c0.5,0,0.9-0.1,1.3-0.3c0.9-0.5,1.5-2.2,2-3.3h0.3l-1.3,4.3H388.8z"/>
		<path class="st13" d="M403.5,353.3c0-6.3,3.7-8.9,8.1-8.9c4.4,0,8,3.2,8,8.7c0,5.5-3.2,8.6-7.6,8.7
			C407.6,362,403.5,359.6,403.5,353.3z M411.3,345.3c-2.8,0-3.1,5.3-3,7.9c0,2.6,0.6,7.8,3.5,7.7c2.9-0.1,3-5.2,2.9-7.8
			C414.6,350.5,414.2,345.3,411.3,345.3z"/>
		<path class="st13" d="M444,362.7c0,0-1.5,3.8-5.7,3.8c-4.1,0-6.4-5-7.5-7.9c-0.5-1.3-1-3-2.4-3.7c-0.8,0.1-1.6,0-1.6,0v4.5
			c0,2.1,1.7,2.3,1.7,2.3v0.3h-7.8v-0.3c0,0,1.5-0.1,1.5-2.3v-4.4c-1.8,0.1-2.7,0.7-2.7,1.9c0,0.9,0.5,1.8,1.5,1.9
			c-0.6,1-4.7,1.3-4.7-1.7c0-2.9,4-3,5.8-3h4.6c0.7,0,1.2,0,1.6-0.1c1.8-0.4,2.7-2,2.7-4.2c0-3-1.8-5.3-4.4-4.3v8h-4.6v-6
			c0-2.3-1.5-2.3-1.5-2.3v-0.4h8.2c1.6,0,2.9,0.2,3.9,0.5c2,0.7,3,2.2,3,4.4c0,2.2-1.1,3.9-3.2,4.6c-1,0.3-1.9,0.5-2.2,0.5
			C436.6,355.6,435.4,365.5,444,362.7z"/>
	</g>
	<g id="lines">
		<line class="st14" x1="42" y1="338" x2="461" y2="338"/>
		<line class="st14" x1="42" y1="370" x2="464" y2="370"/>
	</g>
</g>
<g id="bottom_scroll">
	<path class="st8" d="M54.4,406.8c2.1,7.6,32.4,7.5,39.4,5.4c29.9-8.8,60.1-14.7,90-23.3c9.6-2.8,19.2-6.2,29.1-7.1
		c6-0.5,19.2,0.2,24.9,2.2c14.5,8.7,13.9,25.9,4.1,39.1c-4.3,5.8-9.7,8.4-16.8,7.3c-6.9-1.1-9.6-6-10.4-10.5
		c-7.5-3.4-13.5-6.1-19.4-9c-2.7-1.3-4.9-3.6-7.6-4.9c-4.9-2.5-9.8-1.8-14.2,1.5c-3.7,2.7-5.2,6.5-4.7,11.1c0.6,5.1,4.2,7.8,9.6,7.1
		c5.8-0.8,10.4-5.5,8.8-10.1c-0.7-2.1-3.6-3.5-6.5-6.1c0.8-1.3,2.8-1.6,5.2-0.1c4.6,2.7,5.2,9.7,1.4,14.3c-4.2,4.9-14.9,10.3-21.1,7
		c-4-2.1-6.2-7.6-6.2-15.2c0-6.8,9.4-12.3,16.4-13.2c5.8-0.7,11.1,0.2,16.1,3.7c4.6,3.2,9.8,5.8,14.9,7.9c3.6,1.5,6.8,0.6,8.9-3.8
		c1.1-2.3,4.2-3.7,6.6-5.2c0.2-0.1,2.4,2.1,2.7,3.5c0.9,3.9-1.5,6-4.7,7.4c-1.3,0.6-2.8,1.1-4.1,1.6c0.7,8.6,9.7,10.8,14.6,3.6
		c5.2-7.6,4.1-10.9,3.1-18.5c-1.6-9.5-13-13-23.8-13c-11.2-0.1-25.5,2.5-36.3,5.4c-31.6,8.7-48.3,14.1-79.8,23.3
		c-7.9,2.3-16.2,4.2-24.4,4.5c-11,0.5-28.3-6.7-28.4-18c-0.1-6.4,0.8-10.1,6.2-13c3.1-2.2,6.2-5.4,13.5-4.3c6.3,0.8,8.8,5.4,6.2,9.8
		c-4.6,7.8-3.1-1.1-13.5,6.5"/>
	<path class="st8" d="M448.2,406.9c-2.1,7.6-33.3,7.5-40.5,5.4c-30.8-8.8-61.8-14.7-92.6-23.3c-9.8-2.8-19.7-6.2-29.9-7.1
		c-6.1-0.5-19.7,0.2-25.6,2.2c-14.9,8.7-14.3,25.9-4.3,39.1c4.4,5.8,10,8.4,17.3,7.3c7.1-1.1,9.9-6,10.7-10.5
		c7.7-3.4,13.9-6.1,19.9-9c2.7-1.3,5-3.6,7.8-4.9c5.1-2.5,10-1.8,14.6,1.5c3.8,2.7,5.4,6.5,4.9,11.1c-0.6,5.1-4.4,7.8-9.9,7.1
		c-6-0.8-10.7-5.5-9.1-10.1c0.7-2.1,3.7-3.5,6.7-6.1c-0.9-1.3-2.9-1.6-5.4-0.1c-4.7,2.7-5.4,9.7-1.4,14.3c4.3,4.9,15.4,10.3,21.8,7
		c4.1-2.1,6.4-7.6,6.4-15.2c0-6.8-9.6-12.3-16.9-13.2c-5.9-0.7-11.4,0.2-16.6,3.7c-4.7,3.2-10,5.8-15.4,7.9c-3.7,1.5-7,0.6-9.1-3.8
		c-1.1-2.3-4.3-3.7-6.8-5.2c-0.2-0.1-2.5,2.1-2.8,3.5c-0.9,3.9,1.6,6,4.8,7.4c1.4,0.6,2.8,1.1,4.2,1.6c-0.7,8.6-10,10.8-15,3.6
		c-5.3-7.6-4.3-10.9-3.2-18.5c1.6-9.5,13.4-13,24.5-13c11.5-0.1,26.2,2.5,37.3,5.4c32.6,8.7,49.7,14.1,82.1,23.3
		c8.1,2.3,16.7,4.2,25.1,4.5c11.3,0.5,29.1-6.7,29.3-18c0.1-6.4-0.8-10.1-6.4-13c-3.2-2.2-6.4-5.4-13.9-4.3
		c-6.5,0.8-9.1,5.4-6.4,9.8c4.8,7.8,3.2-1.1,13.9,6.5"/>
	<g id="dots_1_">
		<path class="st9" d="M346.6,411.8l2.8,6.1c1,2.3,3.4,5.2,4.9,6.1l1,0.6c0.4,0.2,0.7,0.3,0.9,0.2l1.6-1.2c0.2-0.1,0.2-0.4,0.2-0.7
			l-0.1-0.8c-0.2-1.6-2.4-5-4.4-6.8l-5.3-4.8C346.3,408.9,345.6,409.5,346.6,411.8z"/>
		<path class="st9" d="M343.7,416.5l0.1,4.8c0.1,1.8,0.8,4.3,1.5,5.3l0.5,0.7c0.2,0.3,0.4,0.4,0.6,0.4l1.4-0.3
			c0.1,0,0.2-0.2,0.3-0.4l0.1-0.5c0.3-1.1-0.2-4-1-5.7l-2.2-4.6C344.3,414.5,343.7,414.7,343.7,416.5z"/>
		<path class="st9" d="M352.8,410.5l3.5,3.3c1.3,1.2,3.6,2.5,4.8,2.7l0.8,0.1c0.3,0,0.6,0,0.7-0.1l0.8-1.2c0.1-0.1,0-0.3-0.1-0.5
			l-0.3-0.5c-0.6-1-2.9-2.7-4.7-3.3l-4.8-1.7C351.8,408.7,351.5,409.3,352.8,410.5z"/>
		<path class="st9" d="M147.5,410.9l-5.5,3.9c-2.1,1.5-4.5,4.3-5.1,5.9l-0.4,1.1c-0.2,0.5-0.2,0.8,0,0.9l1.5,1.4
			c0.1,0.1,0.4,0.1,0.7,0l0.7-0.2c1.6-0.5,4.5-3.3,5.9-5.6l3.7-6.1C150.3,410.1,149.6,409.4,147.5,410.9z"/>
		<path class="st9" d="M142.4,408.9l-4.7,1c-1.8,0.4-4.1,1.6-4.9,2.5l-0.6,0.6c-0.2,0.3-0.3,0.5-0.3,0.6l0.6,1.3
			c0.1,0.1,0.2,0.2,0.5,0.2l0.5,0c1.2,0.1,3.8-0.9,5.4-2.1l4.1-3C144.5,409.1,144.2,408.5,142.4,408.9z"/>
		<path class="st9" d="M150,416.7l-2.6,4c-1,1.5-1.8,4-1.7,5.3l0,0.8c0,0.3,0.1,0.6,0.3,0.6l1.3,0.5c0.1,0,0.3,0,0.5-0.2l0.4-0.4
			c0.9-0.8,2.1-3.4,2.3-5.3l0.8-5C151.6,415.4,150.9,415.2,150,416.7z"/>
		<path class="st9" d="M247.6,428.4l-2,9.6c-0.7,3.6-0.5,9.1,0.5,11.4l0.7,1.6c0.3,0.7,0.6,1,0.9,1h3c0.3,0,0.5-0.2,0.8-0.7l0.5-1
			c1.2-2.1,1.5-8,0.6-11.8l-2.2-10.2C249.7,424.7,248.3,424.8,247.6,428.4z"/>
		<path class="st9" d="M240.1,431.4l-3.9,5.8c-1.5,2.2-2.8,5.8-2.8,7.6l0,1.2c0,0.5,0.1,0.8,0.3,0.9l1.9,0.8c0.2,0.1,0.4,0,0.7-0.2
			l0.6-0.5c1.3-1.1,3.1-4.9,3.6-7.6l1.3-7.3C242.5,429.5,241.6,429.2,240.1,431.4z"/>
		<path class="st9" d="M256,432.2l1.3,6.9c0.5,2.6,2.1,6.1,3.4,7.3l0.9,0.8c0.4,0.4,0.7,0.5,0.9,0.4l1.9-0.8
			c0.2-0.1,0.3-0.3,0.3-0.7l0.1-0.8c0.2-1.7-1.2-5.7-2.8-7.9l-4.2-6.1C256.4,429.1,255.5,429.6,256,432.2z"/>
	</g>
</g>
<g id="Layer_26" class="st0">
	<rect x="61.5" y="101.5" class="st15" width="384" height="262"/>
</g>
<g id="Layer_25">
</g>
</svg>
