<?xml version="1.0" encoding="utf-8"?>
<!-- Generator: Adobe Illustrator 25.2.3, SVG Export Plug-In . SVG Version: 6.00 Build 0)  -->
<svg version="1.1" xmlns="http://www.w3.org/2000/svg" xmlns:xlink="http://www.w3.org/1999/xlink" x="0px" y="0px"
	 viewBox="0 0 422 76" style="enable-background:new 0 0 422 76;" xml:space="preserve">
<style type="text/css">
	.st0{display:none;}
	.st1{display:inline;}
	.st2{fill:#9E6900;}
	.st3{fill:#E6BF77;}
	.st4{display:inline;fill:#FFFFFF;}
	.st5{fill:#8F7458;}
	.st6{fill:#5E3616;}
	.st7{fill:none;stroke:#5E3616;stroke-miterlimit:10;}
	.st8{fill:none;stroke:#8F7458;stroke-width:10;stroke-miterlimit:10;}
	.st9{fill:#FFFAFA;}
	.st10{fill:#FFFFFF;}
	.st11{fill:#FFC543;stroke:#E09200;stroke-miterlimit:10;}
	.st12{fill:#FFC043;}
	.st13{fill:#F2E9AF;stroke:#5E3616;stroke-width:2;stroke-miterlimit:10;}
	.st14{display:inline;fill:#9E6900;}
	.st15{display:inline;fill:none;stroke:#FF0000;stroke-miterlimit:10;}
</style>
<g id="Layer_24" class="st0">
	<g class="st1">
		<rect x="-104.5" y="-60.5" width="669" height="587"/>
		<path d="M564-60v586h-668V-60H564 M565-61h-670v588h670V-61L565-61z"/>
	</g>
</g>
<g id="top_scroll">
	<path class="st2" d="M408.2,49c-2.1-7.6-33.3-7.5-40.5-5.4c-30.8,8.8-61.8,14.7-92.6,23.3c-9.8,2.8-19.7,6.2-29.9,7.1
		c-6.1,0.5-19.7-0.2-25.6-2.2c-14.9-8.7-14.3-25.9-4.3-39.1c4.4-5.8,10-8.4,17.3-7.3c7.1,1.1,9.9,6,10.7,10.5
		c7.7,3.4,13.9,6.1,19.9,9c2.7,1.3,5,3.6,7.8,4.9c5.1,2.5,10,1.8,14.6-1.5c3.8-2.7,5.4-6.5,4.9-11.1c-0.6-5.1-4.4-7.8-9.9-7.1
		c-6,0.8-10.7,5.5-9.1,10.1c0.7,2.1,3.7,3.5,6.7,6.1c-0.9,1.3-2.9,1.6-5.4,0.1c-4.7-2.7-5.4-9.7-1.4-14.3c4.3-4.9,15.4-10.3,21.8-7
		c4.1,2.1,6.4,7.6,6.4,15.2c0,6.8-9.6,12.3-16.9,13.2c-5.9,0.7-11.4-0.2-16.6-3.7c-4.7-3.2-10-5.8-15.4-7.9c-3.7-1.5-7-0.6-9.1,3.8
		c-1.1,2.3-4.3,3.7-6.8,5.2c-0.2,0.1-2.5-2.1-2.8-3.5c-0.9-3.9,1.6-6,4.8-7.4c1.4-0.6,2.8-1.1,4.2-1.6c-0.7-8.6-10-10.8-15-3.6
		c-5.3,7.6-4.3,10.9-3.2,18.5c1.6,9.5,13.4,13,24.5,13c11.5,0.1,26.2-2.5,37.3-5.4c32.6-8.7,49.7-14.1,82.1-23.3
		c8.1-2.3,16.7-4.2,25.1-4.5c11.3-0.5,29.1,6.7,29.3,18c0.1,6.4-0.8,10.1-6.4,13c-3.2,2.2-6.4,5.4-13.9,4.3
		c-6.5-0.8-9.1-5.4-6.4-9.8c4.8-7.8,3.2,1.1,13.9-6.5"/>
	<path class="st2" d="M14.4,48.9c2.1-7.6,32.2-7.5,39.2-5.4c29.8,8.8,59.8,14.7,89.6,23.3c9.5,2.8,19.1,6.2,29,7.1
		c5.9,0.5,19.1-0.2,24.7-2.2c14.4-8.7,13.8-25.9,4.1-39.1c-4.2-5.8-9.7-8.4-16.7-7.3c-6.8,1.1-9.5,6-10.3,10.5
		c-7.5,3.4-13.4,6.1-19.3,9c-2.7,1.3-4.9,3.6-7.5,4.9c-4.9,2.5-9.7,1.8-14.1-1.5c-3.7-2.7-5.2-6.5-4.7-11.1c0.6-5.1,4.2-7.8,9.6-7.1
		c5.8,0.8,10.3,5.5,8.8,10.1c-0.7,2.1-3.6,3.5-6.4,6.1c0.8,1.3,2.8,1.6,5.2,0.1c4.6-2.7,5.2-9.7,1.4-14.3c-4.2-4.9-14.9-10.3-21-7
		c-3.9,2.1-6.2,7.6-6.2,15.2c0,6.8,9.3,12.3,16.4,13.2c5.7,0.7,11-0.2,16-3.7c4.6-3.2,9.7-5.8,14.9-7.9c3.6-1.5,6.8-0.6,8.8,3.8
		c1.1,2.3,4.2,3.7,6.5,5.2c0.2,0.1,2.4-2.1,2.7-3.5c0.9-3.9-1.5-6-4.7-7.4c-1.3-0.6-2.7-1.1-4.1-1.6c0.7-8.6,9.7-10.8,14.6-3.6
		c5.2,7.6,4.1,10.9,3.1,18.5c-1.6,9.5-12.9,13-23.7,13c-11.2,0.1-25.4-2.5-36.1-5.4c-31.5-8.7-48-14.1-79.4-23.3
		c-7.9-2.3-16.1-4.2-24.3-4.5c-11-0.5-28.1,6.7-28.3,18c-0.1,6.4,0.8,10.1,6.2,13c3.1,2.2,6.2,5.4,13.4,4.3c6.3-0.8,8.8-5.4,6.2-9.8
		c-4.6-7.8-3.1,1.1-13.4-6.5"/>
	<g id="dots">
		<g id="left">
			<path class="st3" d="M110.6,43.2l-2.8-6.1c-1-2.3-3.4-5.2-4.9-6.1l-1-0.6c-0.4-0.2-0.7-0.3-0.9-0.2l-1.6,1.2
				c-0.2,0.1-0.2,0.4-0.2,0.7l0.1,0.8c0.2,1.6,2.4,5,4.4,6.8l5.3,4.8C110.9,46.1,111.6,45.5,110.6,43.2z"/>
			<path class="st3" d="M113.5,38.5l-0.1-4.8c-0.1-1.8-0.8-4.3-1.5-5.3l-0.5-0.7c-0.2-0.3-0.4-0.4-0.6-0.4l-1.4,0.3
				c-0.1,0-0.2,0.2-0.3,0.4l-0.1,0.5c-0.3,1.1,0.2,4,1,5.7l2.2,4.6C112.9,40.5,113.5,40.3,113.5,38.5z"/>
			<path class="st3" d="M104.4,44.5l-3.5-3.3c-1.3-1.2-3.6-2.5-4.8-2.7l-0.8-0.1c-0.3,0-0.6,0-0.7,0.1l-0.8,1.2
				c-0.1,0.1,0,0.3,0.1,0.5l0.3,0.5c0.6,1,2.9,2.7,4.7,3.3l4.8,1.7C105.4,46.3,105.7,45.7,104.4,44.5z"/>
		</g>
		<g id="right">
			<path class="st3" d="M309.7,44.1l5.5-3.9c2.1-1.5,4.5-4.3,5.1-5.9l0.4-1.1c0.2-0.5,0.2-0.8,0-0.9l-1.5-1.4
				c-0.1-0.1-0.4-0.1-0.7,0l-0.7,0.2c-1.6,0.5-4.5,3.3-5.9,5.6l-3.7,6.1C306.9,44.9,307.6,45.6,309.7,44.1z"/>
			<path class="st3" d="M314.8,46.1l4.7-1c1.8-0.4,4.1-1.6,4.9-2.5l0.6-0.6c0.2-0.3,0.3-0.5,0.3-0.6l-0.6-1.3
				c-0.1-0.1-0.2-0.2-0.5-0.2l-0.5,0c-1.2-0.1-3.8,0.9-5.4,2.1l-4.1,3C312.7,45.9,313,46.5,314.8,46.1z"/>
			<path class="st3" d="M307.2,38.3l2.6-4c1-1.5,1.8-4,1.7-5.3l0-0.8c0-0.3-0.1-0.6-0.3-0.6l-1.3-0.5c-0.1,0-0.3,0-0.5,0.2l-0.4,0.4
				c-0.9,0.8-2.1,3.4-2.3,5.3l-0.8,5C305.6,39.6,306.3,39.8,307.2,38.3z"/>
		</g>
		<g id="middle">
			<path class="st3" d="M209.6,26.6l2-9.6c0.7-3.6,0.5-9.1-0.5-11.4L210.4,4c-0.3-0.7-0.6-1-0.9-1h-3c-0.3,0-0.5,0.2-0.8,0.7l-0.5,1
				c-1.2,2.1-1.5,8-0.6,11.8l2.2,10.2C207.5,30.3,208.9,30.2,209.6,26.6z"/>
			<path class="st3" d="M217.1,23.6l3.9-5.8c1.5-2.2,2.8-5.8,2.8-7.6l0-1.2c0-0.5-0.1-0.8-0.3-0.9l-1.9-0.8c-0.2-0.1-0.4,0-0.7,0.2
				L220.1,8c-1.3,1.1-3.1,4.9-3.6,7.6l-1.3,7.3C214.7,25.5,215.6,25.8,217.1,23.6z"/>
			<path class="st3" d="M201.2,22.8l-1.3-6.9c-0.5-2.6-2.1-6.1-3.4-7.3l-0.9-0.8c-0.4-0.4-0.7-0.5-0.9-0.4l-1.9,0.8
				c-0.2,0.1-0.3,0.3-0.3,0.7l-0.1,0.8c-0.2,1.7,1.2,5.7,2.8,7.9l4.2,6.1C200.8,25.9,201.7,25.4,201.2,22.8z"/>
		</g>
	</g>
</g>
<g id="guitar" class="st0">
	<g>
		<path class="st1" d="M153.5,312c0.7-5.3,1.3-10.3,2.1-15.3c0.4-2.4,3.7-7.1,5.6-8.8c12.7-11.5,11.3-30.4-3.1-39.9
			c-0.5-0.3-0.9-0.7-0.8-1.7c1.6,1.2,3.4,2.2,4.7,3.7c1.6,1.7,3.3,2,5.5,1.4c4.8-1.4,9.8-2.6,14.6-4c2.9-0.9,5.3-0.3,7.3,1.7
			c2.2,2.2,2.2,4.8,0.9,7.4c-2.5,5.1-4.4,10.4-2.9,16c1.2,4.4,3.3,8.6,4.6,13c1.7,5.6,3.5,11.3,4.5,17c1.7,9.9-6.4,16.2-16.5,13.4
			c-5.1-1.4-10.2-2.9-15.4-3.9C161.5,311.6,158,312,153.5,312z"/>
		<path class="st1" d="M138.6,58c-0.1,1-0.1,2.1-0.2,4c-1.1-0.9-2.2-1.4-2.3-1.9c-0.2-4.5-0.2-9-0.1-13.5c0-0.5,1.2-0.9,1.3-1.4
			c0.1-1.2,0.2-2.6-0.3-3.7c-0.2-0.5-2-0.7-2.8-0.5c-1,0.3-1.7,1.3-2.6,2.4c3.8-0.2,4.3,1.7,4.2,4.3c-0.2,4.4,0,8.7,0,13.1
			c-0.3,0-0.6,0.1-0.9,0.1c-0.7-3-1-6.2-2.1-9c-1.1-3-3-5.7-4.7-8.9c-1.3-0.1-3.2-0.1-5.1-0.4c-1-0.2-2.3-0.8-2.7-1.5
			c-0.3-0.6,0.6-2.3,1.2-2.4c1.2-0.2,2.7,0.1,3.9,0.7c1,0.4,1.6,1.5,2.4,2.2c0.3-0.2,0.6-0.3,0.9-0.5c0-4.3,0-8.6,0-13.2
			c-3-0.3-6.1-0.6-10.3-1c1.5-1.7,2.2-3.2,3.3-3.5c0.9-0.3,2.3,0.8,3.5,1.3c1,0.4,1.9,1,3.9,2c-0.6-5.2-0.6-9.5-1.7-13.5
			c-0.3-1.3-3.4-1.9-5.3-2.6c-0.9-0.3-2.1-0.1-3.2-0.1c-1.5-1.8-2-3-1.6-3.5c0.7-0.9,3.8,0,9.4,2.6c-0.1-1.2,0-2.3-0.2-3.4
			c-2.6-5-1.3-6.9,5.7-8.8c1.9-0.5,3.5-1.9,5-3.2c2.9-2.4,6.8-2.9,10-0.9c3.4,2,6.6,4.5,10.1,6c2.5,1.1,2.8,2.4,2.4,4.5
			c-0.3,1.8-0.5,3.7-0.8,5.9c5.9-3.5,6.8-3.4,7.5,1c-2.7,0.3-5.3,0.7-8.2,1c-0.4,4.6-0.7,8.9-1.1,14.1c1.6-0.6,2.5-1.1,3.4-1.4
			c1.3-0.5,2.7-1.4,3.9-1.2c0.9,0.2,1.5,1.8,2.4,3.1c-3.6,0.4-6.5,0.8-9.5,1.2c0,4.5,0,9,0,14.4c1.5-1,2.2-1.7,3.1-2
			c1.1-0.4,2.4-0.7,3.6-0.6c0.6,0.1,1.3,1.1,1.6,1.9c0.2,0.5-0.4,1.7-0.7,1.7c-2.4,0.1-4.7,0.1-7.2,0.1c-1.4,3.3-3.5,7-4.6,10.9
			c-2.2,7.8-2,7.8-10.7,7.6C139.8,61.4,138.1,61.1,138.6,58z M135.9,29.8c0,0,0.4-0.7,0.4-1.4c-0.1-1.1-0.5-2.2-0.7-3.3
			c-1.4,0.5-2.9,1-4.3,1.5c0.5,0.6,0.8,1.4,1.4,1.8C133.7,29,134.9,29.4,135.9,29.8z M151,42.5c0.6,0.8,1.1,1.4,1.7,2
			c0.1,0.1,1.2-0.6,1.2-0.9c0-0.8-0.1-2.3-0.5-2.4c-1.2-0.3-2.6-0.3-3.8,0c-0.4,0.1-0.4,1.6-0.7,2.5c0.3,0.1,0.6,0.2,0.9,0.3
			C150.3,43.4,150.7,42.9,151,42.5z M151.9,27.1c0.3,0.4,0.9,1,1.4,1.6c0.4-0.6,1.2-1.3,1.1-1.9c-0.2-0.7-0.9-1.6-1.6-1.9
			c-0.6-0.3-1.7,0.1-2.4,0.4c-0.6,0.3-1.1,0.9-1.4,1.5c-0.1,0.3,0.6,1.2,0.8,1.2C150.5,27.9,151.1,27.5,151.9,27.1z M135.2,8.5
			c-1.8,0.8-3.2,1.5-4.6,2.1c1.4,0.9,2.7,1.8,4.1,2.7c0.3-0.2,0.6-0.5,0.9-0.7C135.6,11.4,135.4,10.3,135.2,8.5z M154.6,9
			c-0.5-0.3-1-0.5-1.6-0.8c-1.1,1.1-2.2,2.1-3.3,3.2c1.3,0.4,2.6,0.8,3.9,1.2C153.9,11.4,154.3,10.2,154.6,9z"/>
		<path class="st1" d="M131.7,245.6c0.7,1,1.4,2,1.9,2.7c0.1-0.4,0.2-1.5,0.3-2.6c1.3,0,2.4,0,3.7,0c0.1,1.2,0.3,2.2,0.4,3.3
			c0.1-1,0.2-2,0.3-3.3c2.4,0,4.8,0,7.4,0c0.1,1.1,0.3,2.2,0.4,3c0.1-0.7,0.1-1.8,0.3-3.1c1.8,0,3.4-0.1,5.1,0
			c1.4,0.2,3.9,0.5,4.1,1.1c0.4,1.6-0.3,3.4-0.7,5.7c6.3,4,9.6,10.3,9.3,18.4c-0.3,7.7-7,15.7-14.8,17.3c-1.6,0.3-3.4-0.1-5.1-0.3
			c-1.5-0.2-3-0.4-4.4-0.8c-0.8-0.2-1.5-0.8-2.2-1.2c0.8-0.5,1.6-1.3,2.4-1.3c4.1-0.1,8.3-0.1,11.7-0.1c-0.5-4.7-0.9-8.8-1.4-13.5
			c-0.2,1.4-0.3,2.2-0.5,4c-1.6-4.2-2.9-7.4-3.9-10c0,0-0.2,0.9-0.4,1.7c-0.3,0.1-0.6,0.3-0.9,0.4c-0.8-1.3-1.6-2.5-2.6-4.1
			c-2,0.7-3.9,0.5-4-2.1c-0.9,0.9-1.8,1.7-2.7,2.6c-0.7-1.5-1.5-2.9-2.2-4.5c-0.5,4.2-3.7,4.3-7.1,3.9c-0.9,1.2-1.6,2.3-2.4,3.4
			c-0.3-0.1-0.6-0.1-0.9-0.2c0-1.2-0.5-2.7,0.1-3.6c1.7-2.9,3.3-6,5.7-8.2c2.3-2,3.4-3.8,3.2-6.6c-0.1-0.7,0.2-1.3,0.4-2
			C131.8,245.5,131.7,245.6,131.7,245.6z"/>
		<path class="st1" d="M131.7,326.5c0,1.2,0,2.3,0,3.5c-1.3,0.3-2.5,0.5-3.7,0.8c0,0.2,0,0.4,0,0.6c1.1,0.1,2.2,0.2,3.9,0.3
			c-0.2,1.5-0.5,3-0.6,4.5c0,0.7,0.2,1.4,0.5,2c0.1,0.2,1.5-0.1,1.5-0.2c0.1-0.7-0.1-1.4-0.2-2.1c-0.3-1.4-0.7-2.7-1.1-4.3
			c1.9-0.1,3.2-0.2,5.2-0.3c-0.4,1.7-0.7,3-0.9,4.4c-0.1,0.8-0.1,1.6,0.1,2.3c0,0.1,1.5,0.1,1.5,0c0.2-0.7,0.2-1.4,0.1-2.1
			c-0.2-1.5-0.6-3-0.9-4.8c7.7-0.6,14.9-1.2,22-1.8c0-0.3,0-0.7,0-1c-4,0.2-8,0.5-12.1,0.7c-0.2-0.4-0.4-0.8-0.6-1.1
			c0.9-0.6,1.8-1.7,2.7-1.7c8.7-0.2,17.5-0.3,26.2-0.3c3.6,0,4.4,1,4.3,5.2c-0.1,2.6-0.4,4.6-4.2,5.2c-6.4,1.1-12.6,3-18.8,4.9
			c-9.1,2.8-18.1,2.7-27.2-0.1c-5.9-1.8-11.5-4.2-18-4c-3.4,0.2-3.3-2.8-3.5-5c-0.4-4.9,0.2-5.5,5.1-5.5
			C119.2,326.5,125.2,326.5,131.7,326.5z"/>
		<path class="st1" d="M137.9,176.1c0,0.7,0.2,1.4,0,2.1c-0.3,0.7-0.9,1.3-1.4,1.9c-0.6-0.7-1.7-1.3-1.8-2
			c-0.1-4.6-0.1-9.2,0.1-13.8c0-0.7,1.6-1.9,2.5-1.9c4.3-0.2,8.6,0,12.9-0.1c2.4-0.1,3.7,0.5,3.8,3.2c0.1,5,0.3,5-5.2,5.9
			c5.7,0.1,5.9,0.4,5.2,8.6c-2.6-0.2-5.2-0.4-7.9-0.6c-1.3-0.1-2.7-0.5-4-0.3C138.3,180,138.3,180.1,137.9,176.1z"/>
		<path class="st1" d="M145.2,146.6c-0.5-0.4-1.2-0.7-1.6-1.2c-0.5-0.7-1.1-1.7-1.1-2.5c0-0.4,1.3-0.9,2.1-1.1
			c0.6-0.2,1.4-0.1,2.1-0.1c6.2-0.3,9,3.3,6.8,8.9c-0.2,0.6-1,0.9-1.5,1.3c1.4,1.3,2.6,7.9,1.5,9.2c-0.4,0.5-1.2,0.7-1.9,0.8
			c-8,1.4-9.6,0.1-9.2-7.6c0-0.9,0-1.8,0.2-2.7c0.4-1.6,0.9-3.2,1.4-4.7C144.4,146.8,144.8,146.7,145.2,146.6z"/>
		<path class="st1" d="M148.4,84.7c0-1.9,0-3.8,0-5.9c2.5-0.4,4,0.1,3.8,2.7c-0.1,2.3-0.1,4.6,0,6.9c0.2,2.6-0.6,4.3-4,4.2
			c3.9,0,4.7,2,4.4,5c-0.2,1.4-0.1,2.8,0.1,4.1c0.4,3-0.7,4-4,4.1c-3,0.1-3.5-1-3.4-3.4c0.1-6.9,0-13.8,0.1-20.7
			c0-1,0.9-2.1,1.3-3.1c0.5,1,1.1,2,1.4,3.1c0.2,0.9,0,1.8,0,2.8C148.2,84.6,148.3,84.7,148.4,84.7z"/>
		<path class="st1" d="M145.5,197.2c0,6.8,0,13.2,0,20c-2.2,0-4.5,0-7.3,0c0-3.9-0.2-7.7,0.2-11.5c0.1-0.8,2.2-1.5,3-1.9
			c-0.4,0-1.6-0.1-2.9-0.2c0-2.1,0-4.1,0-6.3C140.8,197.2,143.3,197.2,145.5,197.2z"/>
		<path class="st1" d="M146.1,188.4c0-1.8,0-3.2,0-4.5c-0.4,4.3-0.4,4.3-3.6,4.3c-0.1-1.4-0.2-2.9-0.3-4c0,0.7,0.1,1.8-0.2,2.7
			c-0.3,0.7-1.3,1.4-2,1.4c-0.6,0-1.6-0.9-1.8-1.6c-0.3-1.3-0.4-2.8,0-4.1c0.3-0.9,1.5-2,2.4-2.1c3.3-0.3,6.7,0,10-0.2
			c3.8-0.2,3.4,2.2,3.6,4.6c0.2,2.6-0.9,3.6-3.5,3.4C149.4,188.3,148,188.4,146.1,188.4z"/>
		<path class="st1" d="M149.2,130.9c2.8-0.6,4.3,0.1,4.2,2.8c-0.2,8.4,1.6,7.5-7.7,7.5c-0.9,0-1.9,0-3.4,0c0-3.1-0.1-6,0.1-9
			c0-0.6,0.9-1.1,1.3-1.6c0.4,0.6,1.2,1.1,1.3,1.8c0.2,1.4,0.1,2.7,0.3,4.1c0-1.4-0.2-2.8,0.1-4.2c0.1-0.6,1.1-1.1,1.7-1.7
			c0.5,0.6,1.5,1.2,1.6,1.8c0.2,2,0.1,4.1,0.5,6.2C149.2,136,149.2,133.4,149.2,130.9z"/>
		<path class="st1" d="M146,188.8c2.3,0,4-0.1,5.8,0c2,0.1,2.7,1.1,2.6,3c-0.1,2.7-0.2,5.4,0.1,8c0.4,3.1-0.9,4.2-4.1,3.9
			c-1.3-0.1-2.6,0-4.2,0c0-2.2,0-4.2,0-6.8c1.3,0.3,2.4,0.6,3.8,1c1.3-0.8-2-4.1,1.7-4.7c-0.3-0.5-0.5-1.1-0.8-1.6
			c-0.6,0.3-1.4,0.5-1.6,0.9c-0.3,0.6,0.2,1.4,0,2c-0.3,0.7-1,1.3-1.5,1.9c-0.6-0.7-1.7-1.3-1.8-2C145.8,192.7,146,191,146,188.8z"
			/>
		<path class="st1" d="M138.4,78.6c0.3,13.1-0.1,26.2,0.1,39.4c-0.4,0.2-0.8,0.4-1.2,0.6c-0.6-0.9-1.8-1.8-1.8-2.7
			c0-7.2,0.2-14.5,0.4-21.7c0.1-4,0.1-8,0.2-12.1c0-1.2,0.4-2.4,0.7-3.6C137.3,78.6,137.8,78.6,138.4,78.6z"/>
		<path class="st1" d="M138.8,159.3c0-5-0.1-10.1,0.1-15.1c0-0.8,1.1-1.6,1.7-2.5c0.5,0.8,1.5,1.5,1.5,2.3c0.2,5,0.1,10,0.2,15.1
			c0,2.1-0.7,3.2-3.2,2.8c-2-0.3-4.7,0.9-4.3-2.7c0.2-1.7,0-3.5,0.3-5.1c0.1-0.6,1.2-1.5,1.5-1.4c0.7,0.2,1.7,1,1.8,1.6
			c0.2,1.7,0.1,3.4,0.1,5.1C138.5,159.4,138.6,159.4,138.8,159.3z"/>
		<path class="st1" d="M152.8,118c-2.1,0.1-4,0.4-5.8,0.2c-0.6-0.1-1.5-1.3-1.6-2.1c-0.2-1.8-0.1-3.7-0.1-5.5c0-4.5,0.5-5,5.2-4.2
			c0.9,0.2,2.2,1.4,2.3,2.3C153,111.7,152.8,114.6,152.8,118z"/>
		<path class="st1" d="M149.1,129.7c0-2.6,0-5.2,0-7.8c-0.2,0-0.3,0-0.5,0c0,2.6,0,5.2,0,8c-2,0-3.8,0-6.3,0
			c0.3-1.5,0.6-2.8,0.9-4.2c0.7,0.3,1.5,0.7,2.1,0.9c0-0.9,0.2-2.4,0-3.8c-0.5-3.4,1-4.4,4.4-4.2c2.5,0.2,3.5,1,3.3,3.3
			c-0.1,1.6-0.1,3.2,0.1,4.8C153.6,129.8,152.1,130.4,149.1,129.7z"/>
		<path class="st1" d="M148.4,75c0-3.5,0-7.1,0-10.6c2.6-0.6,3.7,0.2,3.6,2.5c-0.1,2.3-0.2,4.6,0.1,6.9c0.3,3.2-0.5,4.9-4.3,4.3
			c-0.6-0.1-1.2,0-2.5,0c0-4.3,0-8.7,0.1-13c0-0.4,0.9-0.7,1.4-1.1c0.4,0.6,1.1,1.3,1.1,1.9c0.1,3,0.1,6,0.1,9
			C148.2,75,148.3,75,148.4,75z"/>
		<path class="st1" d="M136.1,70.5c0-1.3,0-2.5,0-3.8c0.1-1.8-0.5-3.8,3-2.1c2.7,1.3,3,0.7,3,3.9c0,2.7,0.1,5.3-0.1,7.9
			c-0.1,0.6-1.4,1.8-1.8,1.6c-0.9-0.2-1.7-1.5-2.5,0.1c-0.5-0.6-1.4-1.2-1.5-1.8C136,74.4,136.1,72.4,136.1,70.5
			C136.1,70.5,136.1,70.5,136.1,70.5z"/>
		<path class="st1" d="M139,92.7c0-3.8-0.1-7.6,0.1-11.4c0-0.9,1.1-1.8,1.6-2.7c0.5,0.9,1.4,1.7,1.4,2.6c0.1,7.3,0.1,14.7,0,22
			c0,0.9-1,1.7-1.5,2.6c-0.6-0.8-1.6-1.6-1.6-2.5C138.8,99.8,138.9,96.3,139,92.7C138.9,92.7,138.9,92.7,139,92.7z"/>
		<path class="st1" d="M145.8,240.1c-2.8,0-5.1,0-7.7,0c0-3-0.1-5.8,0.1-8.6c0-0.6,1.2-1.4,2-1.7c1-0.3,2.2-0.3,3.1,0
			c1,0.4,2.3,1.3,2.4,2C146,234.4,145.8,237.1,145.8,240.1z"/>
		<path class="st1" d="M137.7,217.1c-2.3,0.5-4,0.7-3.9-2c0.2-5.4,0.3-10.8,0.6-16.2c0-0.7,1.1-1.3,1.7-2c0.5,0.6,1.5,1.2,1.5,1.8
			C137.8,204.8,137.7,211,137.7,217.1z"/>
		<path class="st1" d="M138.4,129.6c0,3.1,0.1,6.2-0.1,9.3c-0.1,0.8-1.1,1.6-1.7,2.4c-0.5-0.8-1.3-1.6-1.4-2.4c-0.1-6,0-12,0.2-17.9
			c0-0.7,1-1.5,1.5-2.2c0.5,0.7,1.4,1.5,1.4,2.3C138.6,123.9,138.5,126.8,138.4,129.6C138.4,129.6,138.4,129.6,138.4,129.6z"/>
		<path class="st1" d="M133.7,224.1c1.6,0,2.5,0,3.5,0c0.2,0.4,0.4,0.7,0.4,1c0.1,4.3,0.2,8.6,0,12.9c0,0.8-1.2,1.5-1.8,2.3
			c-0.7-0.7-2.1-1.3-2.1-2C133.6,233.6,133.7,229,133.7,224.1z"/>
		<path class="st1" d="M142,189.1c4.6-1.4,3.9,1.8,3.8,4.3c0,1.4,0.4,3.3-2.1,3.3c-5.8,0-5.7,0-5.7-4.2
			C138.1,189.8,138.4,187.8,142,189.1z"/>
		<path class="st1" d="M150.5,217.3c-4.4-0.1-4.9-0.7-4.4-4.4c0.4-3.5,3.3-1.6,4.8-1.8c3.5-0.5,4.7,0.8,4.3,4
			C154.7,218.4,151.9,217,150.5,217.3z"/>
		<path class="st1" d="M146.6,217.3c2.7,2.3,7.7-2.6,8.6,3.4c0.4,2.8-1.5,3.5-7.1,3C145.8,223.5,145.6,222.7,146.6,217.3z"/>
		<path class="st1" d="M145.6,240.3c0.6-2,0.8-4.6,1.5-4.7c2.5-0.4,5.2-0.1,7.7,0.2c0.3,0,0.8,1.9,0.5,2.7c-0.3,0.7-1.4,1.6-2.3,1.6
			C150.9,240.4,148.8,240.3,145.6,240.3z"/>
		<path class="st1" d="M145.7,234.7c0.5-1.9,0.7-4.5,1.3-4.6c2.5-0.4,5.2-0.1,7.7,0.2c0.3,0,0.7,1.9,0.5,2.8
			c-0.1,0.6-1.1,1.5-1.8,1.6C151.2,234.8,148.9,234.7,145.7,234.7z"/>
		<path class="st1" d="M146.2,229.2c0-1.8,0-3.2,0-4.9c2.9,0,5.8,0,8.7,0c0.7,4.8,0.5,5-4.2,4.9
			C149.3,229.2,147.9,229.2,146.2,229.2z"/>
		<path class="st1" d="M143.7,98.4c-0.4-0.9-1.2-1.9-1.3-2.8c-0.1-4.8-0.1-9.6,0-14.4c0-0.9,1-1.7,1.5-2.5c0.4,0.8,1.1,1.6,1.1,2.5
			c0.1,5.6,0.1,11.2,0.1,16.8C144.7,98,144.2,98.2,143.7,98.4z"/>
		<path class="st1" d="M138.4,217.9c2.4,0,4.7,0,7.2,0c0,1.9,0,3.6,0,5.6c-2.4,0-4.6,0-7.2,0C138.4,221.8,138.4,220,138.4,217.9z"/>
		<path class="st1" d="M155,240.9c1.3,3.2,0.1,4.4-3.2,4.3c-1.8-0.1-3.6,0-5.6,0c0-1.5,0-2.8,0-4.3
			C149.2,240.9,152.1,240.9,155,240.9z"/>
		<path class="st1" d="M119.5,254.9c-5.7,9.6-5.8,19.1-0.6,29c-1.1-2.2-2.4-4.2-3.2-6.5c-2.2-6.6-1.9-13.1,1.2-19.4
			C117.5,256.8,118.7,256,119.5,254.9L119.5,254.9z"/>
		<path class="st1" d="M138.3,224.1c2.5,0,4.8,0,7.3,0c0,1.6,0,3.1,0,4.9c-2.4,0-4.7,0-7.3,0C138.3,227.5,138.3,226,138.3,224.1z"/>
		<path class="st1" d="M138.9,117.9c0-3.3-0.1-6.6,0.1-9.9c0-0.6,1.1-1.1,1.7-1.7c0.5,0.5,1.4,1.1,1.4,1.6c0.1,3,0.2,6-0.1,8.9
			c-0.1,0.7-1.4,1.2-2.2,1.8C139.5,118.4,139.2,118.2,138.9,117.9z"/>
		<path class="st1" d="M142.2,124.6c0,1.1,0.2,2.3-0.1,3.4c-0.2,0.8-1.1,1.4-1.7,2.1c-0.5-0.6-1.4-1.2-1.5-1.9
			c-0.2-2.5-0.2-5.1,0-7.6c0-0.7,0.9-1.3,1.4-1.9c0.6,0.7,1.5,1.3,1.7,2.1C142.4,122.1,142.1,123.4,142.2,124.6
			C142.2,124.6,142.2,124.6,142.2,124.6z"/>
		<path class="st1" d="M145.1,71c0,1.8,0.1,3.7-0.1,5.5c-0.1,0.6-0.9,1.1-1.3,1.6c-0.4-0.6-1.2-1.1-1.3-1.7c-0.1-3.7-0.1-7.4,0-11.1
			c0-0.5,0.7-1,1.1-1.5c0.5,0.5,1.3,1,1.4,1.5C145.2,67.3,145.1,69.2,145.1,71C145.1,71,145.1,71,145.1,71z"/>
		<path class="st1" d="M155.8,210.3c-2.7,0.1-4.2,0.2-6.3,0.3c0.3-2.3,0.4-4.3,0.9-6.2c0.1-0.3,2.6-0.4,2.9,0
			C154.2,206,154.8,207.8,155.8,210.3z"/>
		<path class="st1" d="M138.2,135.4c0.7-1.6,1.6-4.7,2.1-4.6c3.3,0.4,1.4,3.1,1.8,4.9c0.3,1.2,0.2,2.5-0.1,3.8
			c-0.2,0.7-1.1,1.2-1.6,1.8c-0.5-0.6-1.4-1.2-1.6-1.8c-0.3-1.2-0.1-2.5-0.1-3.8C138.6,135.6,138.4,135.5,138.2,135.4z"/>
		<path class="st1" d="M139.4,146.9c-1,1.9-1.9,3.5-2.8,5c-0.5-1.7-1.4-3.4-1.3-5.1c0-1.7,1-3.3,1.6-5
			C137.6,143.4,138.4,144.9,139.4,146.9z"/>
		<path class="st1" d="M145.7,240.8c0,1.5,0,2.7,0,4.2c-2.5,0-4.8,0-7.4,0c0-1.4,0-2.7,0-4.2C140.7,240.8,143,240.8,145.7,240.8z"/>
		<path class="st1" d="M139.1,329.7c-0.3-0.3-1-1-1.7-1.7c0.9-0.7,1.6-1.7,2.6-2c1.3-0.3,2.9-0.2,4.2,0c0.8,0.2,1.5,1,2.2,1.6
			c-0.6,0.5-1.2,1.4-1.9,1.6C143.1,329.5,141.5,329.5,139.1,329.7z"/>
		<path class="st1" d="M145.1,112.5c0,1.5,0.1,3-0.1,4.4c-0.1,0.5-0.8,0.9-1.2,1.3c-0.4-0.4-1.3-0.9-1.3-1.3c-0.1-3.1-0.1-6.2,0-9.2
			c0-0.5,0.9-1,1.4-1.5c0.4,0.5,1.1,0.9,1.1,1.4C145.2,109.3,145.1,110.9,145.1,112.5C145.1,112.5,145.1,112.5,145.1,112.5z"/>
		<path class="st1" d="M119.6,255c2.4-2.7,4.5-5.7,7.2-8.1c2.1-1.8,5.7-2.2,5.3-6.3c1.8,2.1,1.4,3.6-0.3,5c0,0,0.1-0.1,0.1-0.1
			C126.7,247.5,122.7,250.6,119.6,255C119.5,254.9,119.6,255,119.6,255z"/>
		<path class="st1" d="M137.8,184.3c0,0.9,0.2,1.9-0.1,2.7c-0.2,0.6-1,1.3-1.6,1.3c-0.5,0-1.5-0.8-1.5-1.3c-0.2-1.3-0.3-2.8,0-4.1
			c0.2-0.9,1.1-1.6,1.6-2.5c0.5,0.8,1.1,1.6,1.6,2.5C138,183.3,137.8,183.8,137.8,184.3C137.8,184.3,137.8,184.3,137.8,184.3z"/>
		<path class="st1" d="M132.1,239.7c0-5.1,0-10.2,0-15.3c0.3,0,0.6,0,0.9,0c0,5.1,0,10.2,0,15.3
			C132.7,239.7,132.4,239.7,132.1,239.7z"/>
		<path class="st1" d="M157.7,410.4c-8.5,0-17,0-25.5,0c0-0.1,0-0.2,0-0.4c8.5,0,17,0,25.5,0C157.7,410.1,157.7,410.2,157.7,410.4z"
			/>
		<path class="st1" d="M138.2,217.7c-0.6,2.4-1,4.1-1.5,5.8c-0.1,0.2-1.9,0.2-1.9,0.1c-0.5-1.7-0.8-3.5-1.3-5.5
			C135.1,217.9,136.1,217.8,138.2,217.7z"/>
		<path class="st1" d="M134.3,91.4c0-3.9,0-7.9,0-11.8c0.2,0,0.4,0,0.6,0c0,3.9,0,7.9,0,11.8C134.7,91.4,134.5,91.4,134.3,91.4z"/>
		<path class="st1" d="M145,207.5c1.3-1.5,2.1-2.4,2.9-3.4c0.6,1.1,1.5,2.3,1.6,3.4c0,1-1,2.1-1.5,3.1
			C147.1,209.7,146.3,208.8,145,207.5z"/>
		<path class="st1" d="M132.5,330.2c-0.1-2-1-3.9,1.9-4c0.8,0,2.3,0.9,2.4,1.6C137.4,330.8,134.8,330,132.5,330.2z"/>
		<path class="st1" d="M133.1,240.1c2.3,0.7,3.8,0.7,4.3,1.5c0.5,0.7,0.1,2.2-0.4,3.1c-0.2,0.4-2.1,0.5-2.2,0.3
			C134.2,243.8,133.9,242.5,133.1,240.1z"/>
		<path class="st1" d="M133.7,129.6c0-3.4,0-6.7,0-10.1c0.2,0,0.5,0,0.7,0c0,3.4,0,6.7,0,10.1C134.1,129.7,133.9,129.6,133.7,129.6z
			"/>
		<path class="st1" d="M133.6,140.6c0-3.1,0-6.1,0-9.2c0.2,0,0.4,0,0.6,0c0,3,0,6.1,0,9.1C134,140.6,133.8,140.6,133.6,140.6z"/>
		<path class="st4" d="M135.9,29.8c-1.1-0.5-2.2-0.8-3.2-1.5c-0.6-0.4-1-1.2-1.4-1.8c1.4-0.5,2.9-1,4.3-1.5c0.3,1.1,0.7,2.2,0.7,3.3
			C136.4,29.1,135.9,29.9,135.9,29.8z"/>
		<path class="st4" d="M151,42.5c-0.3,0.4-0.8,0.9-1.2,1.4c-0.3-0.1-0.6-0.2-0.9-0.3c0.2-0.9,0.2-2.3,0.7-2.5c1.2-0.4,2.6-0.3,3.8,0
			c0.4,0.1,0.6,1.6,0.5,2.4c0,0.3-1.2,1-1.2,0.9C152.1,44,151.6,43.3,151,42.5z"/>
		<path class="st4" d="M151.9,27.1c-0.8,0.4-1.4,0.8-2,0.9c-0.2,0-0.9-0.9-0.8-1.2c0.3-0.6,0.8-1.2,1.4-1.5c0.7-0.3,1.7-0.7,2.4-0.4
			c0.7,0.3,1.4,1.2,1.6,1.9c0.1,0.5-0.7,1.2-1.1,1.9C152.7,28.1,152.2,27.5,151.9,27.1z"/>
		<path class="st4" d="M135.2,8.5c0.2,1.8,0.4,2.9,0.5,4.1c-0.3,0.2-0.6,0.5-0.9,0.7c-1.4-0.9-2.7-1.8-4.1-2.7
			C132,10,133.4,9.4,135.2,8.5z"/>
		<path class="st4" d="M154.6,9c-0.3,1.2-0.7,2.4-1,3.5c-1.3-0.4-2.6-0.8-3.9-1.2c1.1-1.1,2.2-2.1,3.3-3.2
			C153.6,8.5,154.1,8.8,154.6,9z"/>
	</g>
	<g id="guitar_body" class="st1">
		<path class="st5" d="M121.2,70h20.6c0.7,0,1.4,0.5,1.4,1l1.2,135.2c0,2.8,0.7,5.6,2.1,8.2l0.3,0.6c0.4,0.7-0.3,1.4-1.2,1.4
			l-25.2,0.5l-2,0c-1,0-1.7-0.8-1.2-1.5l0,0c1.6-2.4,2.4-5.1,2.4-7.8L119.9,71C119.9,70.4,120.5,70,121.2,70z"/>
		<path class="st5" d="M131.2,66.2h5.9c2.4,0,4.5-1.5,5.3-3.6l5.1-14.5l2.8-40.8c0.1-1.5-0.6-2.9-1.9-3.7c-3.1-2-8.7-5.6-9.5-6.3
			c-2.8-2.7-8.6,0-8.6,0l-5.7,4.1l-3.9,2.4c-1.5,0.9-2.3,2.5-2.2,4.1l1.4,41.5l5.9,13.4C126.7,64.8,128.8,66.2,131.2,66.2z"/>
		<path class="st5" d="M149.2,17.3l6.7-1.4c1.1-0.2,1.7-1.4,1.2-2.3l-0.3-0.6c-0.4-0.7-1.2-1-2-0.7l-6.5,2.8L149.2,17.3z"/>
		<path class="st5" d="M147.8,32.1l6.7-1.4c1.1-0.2,1.7-1.4,1.2-2.3l-0.3-0.6c-0.4-0.7-1.2-1-2-0.7L147,30L147.8,32.1z"/>
		<path class="st5" d="M146.4,48.5l6.7-1.4c1.1-0.2,1.7-1.4,1.2-2.3l-0.3-0.6c-0.4-0.7-1.2-1-2-0.7l-6.5,2.8L146.4,48.5z"/>
		<path class="st5" d="M120.1,15.2l-5.8-3.5c-0.9-0.6-2.2-0.2-2.6,0.9l-0.2,0.6c-0.3,0.7,0.1,1.5,0.9,1.8l6.7,2.3L120.1,15.2z"/>
		<path class="st5" d="M120.2,31.8l-5.8-3.5c-0.9-0.6-2.2-0.2-2.6,0.9l-0.2,0.6c-0.3,0.7,0.1,1.5,0.9,1.8l6.7,2.3L120.2,31.8z"/>
		<path class="st5" d="M121.6,46.8l-5.8-3.5c-0.9-0.6-2.2-0.2-2.6,0.9l-0.2,0.6c-0.3,0.7,0.1,1.5,0.9,1.8l6.7,2.3L121.6,46.8z"/>
		<path class="st5" d="M122.2,215.5c-20.1,0.7-25.1,2-29.9,4.1c-4.4,1.9-12.1,5.4-16.3,13.2c-2.8,5.1-2.8,9.6-2.8,16.7
			c0,12.1,3.1,15.3,3.4,27.5c0,1.3,0.2,7.8-1.2,15.5c-2.1,11.5-6,17.8-12,30.2c-7.9,16.4-11.9,24.6-13,31.1
			c-0.7,4.4-4,24.4,9.3,40.1c8.5,10.2,20.1,14,25.6,15.8c2.1,0.7,6.7,2.1,22.2,3.5c11.7,1.1,25.9,2.3,45.3,1.2
			c14.8-0.8,22.4-1.3,31.8-4.7c5.3-1.9,13.5-4.9,21.3-12.3c2.4-2.3,8.7-8.3,12-17.9c4.7-13.3,0.9-25.3-2.5-36
			c-1.8-5.7-5.6-13.8-13.3-29.9c-4.2-8.8-7.4-15.2-7.7-24.6c0-1.6,0.4-5.4,1.2-12.9c1.2-10.5,2.1-14.7,2.8-24c0.4-6,0.7-9,0.3-10.8
			c-2.2-10.9-11.8-17.3-14.2-18.7c-3.8-2.3-8.1-4-18.8-5.6C157.2,215.7,145.9,214.6,122.2,215.5z"/>
		<path class="st5" d="M119.3,215.5c-20.1,0.7-25.1,2-29.9,4.1c-4.4,1.9-12.1,5.4-16.3,13.2c-2.8,5.1-2.8,9.6-2.8,16.7
			c0,12.1,3.1,15.3,3.4,27.5c0,1.3,0.2,7.8-1.2,15.5c-2.1,11.5-6,17.8-12,30.2c-7.9,16.4-11.9,24.6-13,31.1
			c-0.7,4.4-4,24.4,9.3,40.1c8.5,10.2,20.1,14,25.6,15.8c2.1,0.7,6.7,2.1,22.2,3.5c11.7,1.1,25.9,2.3,45.3,1.2
			c14.8-0.8,22.4-1.3,31.8-4.7c5.3-1.9,13.5-4.9,21.3-12.3c2.4-2.3,8.7-8.3,12-17.9c4.7-13.3,0.9-25.3-2.5-36
			c-1.8-5.7-5.6-13.8-13.3-29.9c-4.2-8.8-7.4-15.2-7.7-24.6c0-1.6,0.4-5.4,1.2-12.9c1.2-10.5,2.1-14.7,2.8-24c0.4-6,0.7-9,0.3-10.8
			c-2.2-10.9-11.8-17.3-14.2-18.7c-3.8-2.3-8.1-4-18.8-5.6C154.3,215.7,143,214.6,119.3,215.5z"/>
	</g>
	<g id="Layer_15" class="st1">
		<ellipse id="sound_hole_1_" cx="134" cy="273.8" rx="26.5" ry="31"/>
		<g id="knobs">
			<ellipse class="st6" cx="124.6" cy="18.5" rx="2.9" ry="2.7"/>
			<ellipse class="st6" cx="126.5" cy="46.3" rx="2.9" ry="2.7"/>
			<ellipse class="st6" cx="140.9" cy="17.7" rx="2.9" ry="2.7"/>
			<ellipse class="st6" cx="140.9" cy="46.3" rx="2.9" ry="2.7"/>
			<ellipse class="st6" cx="140.9" cy="32.7" rx="2.9" ry="2.7"/>
			<ellipse class="st6" cx="126.5" cy="32.7" rx="2.9" ry="2.7"/>
		</g>
		<g id="strings">
			<line class="st7" x1="137.2" y1="247.5" x2="137.2" y2="308.2"/>
			<line class="st7" x1="134.5" y1="245.6" x2="134.5" y2="306.4"/>
			<line class="st7" x1="131.7" y1="247.2" x2="131.7" y2="307.9"/>
			<line class="st7" x1="128.8" y1="245.6" x2="128.8" y2="306.4"/>
			<line class="st7" x1="126" y1="245.6" x2="126" y2="306.4"/>
			<line class="st7" x1="123.1" y1="245.6" x2="123.1" y2="306.4"/>
		</g>
	</g>
	<ellipse class="st8" cx="138" cy="271.8" rx="33.7" ry="30.6"/>
</g>
<g id="old_design" class="st0">
	<g id="Layer_2">
		<g class="st1">
			<path d="M35.2,143.7v-1.1c0,0,6-0.9,6-5.9V91.8c0-7.9-6-8.4-6-8.4v-1.1h23.9l26.8,39.8V91.8c0-8.8-5.8-8.4-5.8-8.4v-1.1h15.2v1.2
				c-0.9,0-6,0.7-6,8.3v51.9H79.3L44.7,93.7V135c0,7.6,6.7,7.6,6.7,7.6v1.1H35.2z"/>
			<path d="M96.6,143.7v-1.1c0,0,6,0.3,6-6.5V90c0-6.3-6-6.5-6-6.5v-1.2h52.2l0.4,14.2h-1.3c-0.4-7.1-2.3-10.5-6.7-11.2
				c-1.1-0.2-2.8-0.2-4.8-0.2h-16.1v25.8h14.5c4.9,0,8.3-1.5,8.9-8h1c-0.4,6.6-0.4,13,0,19.5h-1.1c-0.8-6.7-3.5-8.3-8.8-8.3h-14.5
				v19.3c0,2.5,0.3,4.2,0.5,5.2c0.4,1,1,1.7,2,2c1,0.3,2.6,0.5,5.2,0.5h11.4c6.7,0,10.4-4.6,11.3-12.5h1.5l-1.3,15.2H96.6z"/>
			<path d="M153.6,83.5v-1.1h33.1v1.1c-6.3,0.8-7.3,4.2-3,12.5l13.2,27c4.3-9.7,8.4-17.9,12.4-27.7c3-7.1,2.3-11.6-3.3-11.7v-1.1
				h17.5v1.1c-4.5,0-7.8,6-10.2,11.4l-21.8,48.8h-3.3l-24.4-48.2C160.8,89.7,158.1,83.1,153.6,83.5z"/>
			<path d="M222.6,143.7v-1.1c0,0,6,0.3,6-6.5V90c0-6.3-6-6.5-6-6.5v-1.2h52.2l0.4,14.2h-1.3c-0.4-7.1-2.3-10.5-6.7-11.2
				c-1.1-0.2-2.8-0.2-4.8-0.2h-16.1v25.8h14.5c4.9,0,8.3-1.5,8.9-8h1c-0.4,6.6-0.4,13,0,19.5h-1.1c-0.8-6.7-3.5-8.3-8.8-8.3h-14.5
				v19.3c0,2.5,0.3,4.2,0.5,5.2c0.4,1,1,1.7,2,2c1,0.3,2.6,0.5,5.2,0.5h11.4c6.7,0,10.4-4.6,11.3-12.5h1.5l-1.3,15.2H222.6z"/>
			<path d="M384,146.4c0,0-5.9,13.3-22.1,13.3c-16.1,0-24.9-17.6-29.4-28c-1.9-4.4-3.9-10.4-9.6-13.1c-3.3,0.3-6.4,0.1-6.4,0.1v15.9
				c0,7.2,6.5,8.3,6.5,8.3v0.9h-30.4v-1.1c0,0,6-0.2,6-8.3v-15.6c-7.2,0.2-10.4,2.6-10.4,6.6c0,3.3,1.9,6.3,5.9,6.8
				c-2.3,3.5-18.2,4.5-18.2-5.9c0-10.3,15.5-10.5,22.8-10.5h17.9c2.6,0,4.8-0.1,6.4-0.5c7.2-1.2,10.7-7,10.7-15
				c0-10.6-7.2-18.7-17.1-15.2v28.1h-17.9V92c0-8-6-8.3-6-8.3v-1.2h31.9c6.2,0,11.3,0.6,15.2,1.8c7.8,2.4,11.8,7.6,11.8,15.4
				c0,7.6-4.4,13.6-12.4,16.2c-3.8,1.1-7.3,1.6-8.4,1.8C355.1,121.3,350.3,156.1,384,146.4z"/>
		</g>
		<g class="st1">
			<path d="M117.7,223.7c0,0,6.5-0.6,6.5-7v-50c0-6.7-6.5-7-6.5-7v-1.3c9.7,0,21.1,0,31,0c6.7,0,12.5,0.4,17.4,1.7
				c16.1,4.7,22.4,14.9,22.4,31c0,15.7-7.6,26.6-23.8,31.4c-5.4,1.5-11.7,2.3-18.8,2.3h-28.3V223.7z M145,219.1
				c1.9,2.9,7.9,2.1,11.8,0.1c2.2-1.1,4.2-2.8,5.8-5.3c4.2-5.6,5.4-14.7,5.4-21.8c0-10.4-2.6-22.8-11.2-28.2
				c-3.3-2.1-6.4-2.8-10.9-2.8c-1.6,0-2.4,0.6-2.4,2.6V213C143.7,215.8,144.1,217.9,145,219.1z"/>
			<path d="M194,159.6v-1.2h32.6v1.2c-2.7,0-6.7,2.5-6.7,7.1v49.7c0,5.9,4.9,7.1,6.7,7.1v1.2h-32.5v-1.2c1.8,0,6.7-1.1,6.7-7.1
				v-49.7C200.8,160.9,196.2,159.6,194,159.6z"/>
			<path d="M230.7,224.8v-1.2c0,0,6.5,0.4,6.5-7v-49.9c0-6.9-6.5-7-6.5-7v-1.3h56.5l0.4,15.3h-1.4c-0.4-7.7-2.4-11.4-7.2-12.1
				c-1.2-0.2-3-0.2-5.2-0.2h-17.4v27.9h15.6c5.3,0,9-1.6,9.7-8.7h1.1c-0.4,7.1-0.4,14.1,0,21.1h-1.2c-0.8-7.2-3.8-8.9-9.5-8.9h-15.6
				v20.8c0,2.7,0.3,4.5,0.5,5.6c0.4,1.1,1.1,1.8,2.2,2.2c1.1,0.4,2.9,0.5,5.6,0.5h12.4c7.2,0,11.3-5,12.2-13.5h1.6l-1.4,16.4H230.7z
				"/>
		</g>
		<g class="st1">
			<path d="M13,238.5v-1.4h40.5v1.4c-5,0.5-6.7,4.4-0.8,15l11.4,20.4L77,252c5.5-8.9,6.7-13.1,0.5-13.7v-1.2h17.6v1.2
				c-4.4,0-9.1,7.2-12.3,12.7l-13.2,22.3c-2.9,5.7-5,9.7-5.2,16.9l-0.2,8.5c-0.2,10.9,6.5,11.1,6.5,11.1v1.4H37.3v-1.4
				c0,0,6.7,0,7.1-9.2c0,0,0.3-4.6,0.2-10.9c-0.2-6.7-1.5-10.4-4.7-15.9l-13.2-21.6C23.3,246.5,18.3,238.5,13,238.5z"/>
			<path d="M92,274.5c0-26.6,17.4-37.9,38.2-37.9c20.6,0,37.6,13.5,37.8,37c0.2,23.5-15.3,36.5-35.9,36.9
				C111.4,311.2,92,301.3,92,274.5z M129.2,240.2c-13.2,0-14.4,22.5-14,33.8c0.2,11.2,2.7,33.1,16.5,32.9c13.5-0.3,14-22,13.5-33.1
				C144.7,262.6,142.5,240.4,129.2,240.2z"/>
			<path d="M172.6,238.6v-1.5h38.4v1.4c0,0-8.6,1.4-8.6,10.1V286c0,13,3.9,20.5,16.7,20.5c12.1,0,15.5-8.5,15.5-20.6v-37.3
				c0-10.1-8.5-10.1-8.5-10.1v-1.4h21.2v1.4c0,0-8.2,0.5-8.2,10.2v36.3c0,18.2-9.1,26.1-24.7,26.1c-18.2,0-33.5-5.2-33.5-26.1v-36.3
				C180.8,239,172.6,238.6,172.6,238.6z"/>
			<path d="M253.3,311.2v-1.4c0,0,7.3-1.1,7.3-7.1v-54.1c0-9.6-7.3-10.1-7.3-10.1v-1.4h28.8l32.3,48v-36.5c0-10.7-7-10.1-7-10.1
				v-1.4h18.4v1.5c-1.1,0-7.3,0.8-7.3,10v62.6h-12.1l-41.7-60.4v49.9c0,9.2,8,9.2,8,9.2v1.4H253.3z"/>
			<path class="st9" d="M399.8,237.1v23.8h-1.2c-2.6-11.6-8.6-19.5-21.1-20.4c-5-0.1-9.9,1.1-13.8,4c-7.9,6.1-10.6,19.1-10.6,29.5
				c0,8.9,2.1,23.6,8.9,29.4c5.6,5.2,11.4,5.3,18.7,3.7v-22.3c0-7.2-9-7.8-9-7.8v-1.5h36.9v1.2c0,0-7,1-7,7.9v26.5
				c-10.8,0-25.3,0-29.9,0c-25,0-41.4-15-41.4-36.6c0-20.9,15.5-37.4,38.7-37.4C380.5,237.1,390.8,237.1,399.8,237.1z"/>
		</g>
	</g>
	<g id="Layer_9">
		<g id="Layer_8" class="st1">
			<path d="M285.5,194.8l16.5,3.4c6.2,1.3,15.5,0.8,19.5-0.9l2.7-1.2c1.1-0.5,1.7-1.1,1.7-1.6l0-5.1c0-0.5-0.4-0.9-1.2-1.4l-1.7-0.9
				c-3.6-2-13.7-2.5-20.3-1.1l-17.5,3.8C279.2,191.1,279.3,193.5,285.5,194.8z"/>
			<path d="M290.7,207.6l9.9,6.7c3.7,2.5,10,4.8,13,4.7l2.1,0c0.9,0,1.4-0.2,1.6-0.6l1.4-3.3c0.1-0.3,0-0.7-0.4-1.2l-0.9-1.1
				c-1.8-2.3-8.3-5.4-13-6.3l-12.5-2.3C287.5,203.4,286.9,205,290.7,207.6z"/>
			<path d="M292,180.3l11.8-2.2c4.4-0.8,10.4-3.7,12.6-5.9l1.4-1.5c0.6-0.6,0.8-1.2,0.7-1.5l-1.4-3.3c-0.1-0.3-0.5-0.5-1.1-0.6
				l-1.4-0.1c-2.9-0.3-9.7,2.1-13.6,4.8l-10.4,7.2C286.8,179.6,287.5,181.2,292,180.3z"/>
		</g>
		<g id="Layer_10">
			<path class="st1" d="M236.5,187.5l-16.5-3.4c-6.2-1.3-15.5-0.8-19.5,0.9l-2.7,1.2c-1.1,0.5-1.7,1.1-1.7,1.6l0,5.1
				c0,0.5,0.4,0.9,1.2,1.4l1.7,0.9c3.6,2,13.7,2.5,20.3,1.1l17.5-3.8C242.8,191.1,242.7,188.7,236.5,187.5z"/>
			<path class="st1" d="M231.3,174.7l-9.9-6.7c-3.7-2.5-10-4.8-13-4.7l-2.1,0c-0.9,0-1.4,0.2-1.6,0.6l-1.4,3.3
				c-0.1,0.3,0,0.7,0.4,1.2l0.9,1.1c1.8,2.3,8.3,5.4,13,6.3l12.5,2.3C234.5,178.8,235.1,177.2,231.3,174.7z"/>
			<path class="st1" d="M230,201.9l-11.8,2.2c-4.4,0.8-10.4,3.7-12.6,5.9l-1.4,1.5c-0.6,0.6-0.8,1.2-0.7,1.5l1.4,3.3
				c0.1,0.3,0.5,0.5,1.1,0.6l1.4,0.1c2.9,0.3,9.7-2.1,13.6-4.8l10.4-7.2C235.2,202.6,234.5,201.1,230,201.9z"/>
		</g>
	</g>
	<g id="Layer_3">
		<g class="st1">
			<path d="M357.2,316.5c0.3,0.3,0.5,0.7,0.8,0.8c3,0.7,5.9,1.5,8.9,1.9c4.9,0.6,9.8-0.2,14.7-0.7c7.6-0.8,15.1-2.2,22.6-4
				c2.3-0.6,4.6-1.2,6.7-2.2c2-1.1,4.3-1.6,6-3.3c1.6-1.6,3.7-2.8,5.4-4.3c1-0.9,1.9-2,2.8-3c0.3-0.4,0.7-0.7,1-1.1
				c1.3-1.7,2.5-3.5,3.5-5.4c1.5-2.9,2.8-6,3.7-9.1c1.7-6.3,2.2-12.7,1.6-19.2c-0.1-0.7-0.1-1.4-0.2-2.1c-0.1-0.7-0.2-1.3-0.4-2
				c0.2,1.7,0.4,3.3,0.6,5c0,0,0,0,0,0c-0.2-1.5-0.5-3-0.7-4.5c-0.2-1.7-0.1-3.5-0.6-5.1c-1-3.3-2.2-6.6-3.4-9.9
				c-0.2-0.7-0.4-1.4-0.5-2.1c-0.8-1.5-1.6-3.1-2.5-4.6c-1.4-2.5-2.8-5-4.3-7.4c-1.5-2.3-2.7-4.7-3.6-7.3c-0.8-2.1-1.2-4.2-0.9-6.4
				c0,0.5,0,1,0,1.5c0-3.3,1.1-6.3,2-9.4c0.6-2,1.6-3.8,2.3-5.7c2-5.7,3-11.5,1.4-17.6c-1.2-4.8-4.2-8.4-8.3-11.2
				c-3.8-2.6-8.1-3.3-12.5-3.4c-1.7-0.1-3.4,0-5.3,0c0,1,0,2.2,0,3.6c-1.8,0-3.4,0-5.2,0c0-1.3,0-2.7,0-4.4c1.1,0,2.2,0,3.3,0
				c5,0.1,10.1,0.1,15,1.5c6.3,1.8,10.6,5.8,12.8,12.1c1.8,5.3,1.7,10.7,0.1,16.1c-1.2,4-2.7,7.8-4,11.7c-1.8,5.4-1.2,10.6,1.6,15.6
				c2.4,4.3,4.9,8.5,7.2,12.8c3.4,6.6,5.4,13.6,6.3,20.9c1,7.4,0.5,14.7-1.4,21.9c-1.9,7.3-5.5,13.7-11.1,19
				c-5.2,4.8-11.2,8-18.1,9.6c-10.8,2.5-21.7,4.5-32.7,5c-5.6,0.3-11-0.6-16.1-3c-2-0.9-3.9-2.2-5.8-3.5c-3.3-2.3-6.6-4.6-9.9-7
				c-6.1-4.5-9.8-10.6-11.6-18c-1.9-7.9-1.6-15.7,0-23.5c1.6-8.1,4.5-15.7,8.7-22.8c2.2-3.8,4.5-7.6,6.7-11.3c3.5-5.8,4-11.7,1.4-18
				c-0.9-2.2-1.7-4.4-2.5-6.6c-2.4-7-2.3-13.9,0.9-20.6c3.1-6.3,8.5-9.6,15.1-11.1c4.8-1.1,9.7-1,14.5-1.2c2.3-0.1,2.3-0.1,3.1-2.2
				c0.4-1.1,1-2.2,1.5-3.3c0.6-1.3,1.8-1.9,3.1-1.9c1,0,1.2-0.5,1.2-1.4c0.2-11.5,0.5-22.9,0.7-34.4c0.2-12.5,0.5-24.9,0.6-37.4
				c0.1-7.6,0.1-15.2,0.1-22.8c0-3.2-0.8-6.1-3.3-8.4c-0.5-0.5-0.7-1.4-0.9-2.1c-0.3-1.1-0.5-2.2-0.5-3.3c-0.1-1.7-2.1-2.5-3.4-1.8
				c-0.1-0.3-0.3-0.6-0.4-0.9c0,0-0.1,0-0.1,0c0.1,0.6,0.2,1.3,0.2,1.9c0,0.4-0.3,1-0.6,1.1c-0.3,0.2-0.9,0-1.3-0.2
				c-1.5-1-1.9-3.6-0.8-5.2c-0.3,1.7-0.3,3.3,0.9,4.7c0.6-1.3-0.2-2.2-0.9-3.3c0.7,0,1.3,0,1.9,0c-0.3-0.6-0.5-1.2-0.7-1.7
				c0.1-0.1,0.2-0.1,0.3-0.2c0.3,0.4,0.6,0.8,0.9,1.2c0.6,0.8,1,1.5,2.2,1.5c0.8-0.1,1-0.4,0.9-1c-0.5-2.9-1-5.8-1.5-8.7
				c-0.2-0.8-1.7-1-2.5-0.3c-0.2-0.2-0.3-0.4-0.5-0.6c-0.1,0.1-0.2,0.1-0.2,0.2c0,0.4,0.1,0.7,0.1,1.1c0,0.4,0,0.9-0.3,1.1
				c-0.3,0.2-0.9,0.2-1.2,0c-1.6-0.7-2.3-3.7-1.1-5.2c-0.4,1.8-0.1,3.4,1.4,4.6c-0.4-0.8-0.7-1.6-1.1-2.5c0.5-0.1,1-0.1,1.7-0.2
				c-0.4-0.9-0.8-1.6-1.2-2.4c0-0.1,0.1-0.1,0.1-0.2c0.5,0.4,1,0.7,1.4,1.2c0.8,0.9,1.3,2,2.9,1.6c-0.4-2.1-0.8-4.3-1.2-6.4
				c-0.2-0.9-0.3-1.8-0.4-2.6c-0.2-1.3-1.5-1.7-2.5-0.8c-0.1,0.1-0.3,0.2-0.3,0.2c-0.2,0.6-0.3,1.2-0.5,1.3
				c-0.4,0.1-1.1,0.1-1.5-0.1c-1.4-0.8-1.9-3.1-1-4.7c0,0.9-0.1,1.8,0.2,2.5c0.2,0.7,0.8,1.3,1.2,2c0.1-0.1,0.2-0.1,0.3-0.2
				c-0.2-0.5-0.5-1-0.8-1.5c0.5-0.1,0.9-0.2,1.3-0.3c-0.3-0.9-0.5-1.8-0.8-2.7c1.6,0.5,1.9,2.7,4,2.1c-0.3-2-0.7-4.1-1-6.2
				c-0.3-1.6,0.4-3.2,1.8-4c0.3-0.2,0.8-0.2,1.1-0.1c5.4,0.8,10.8,1.6,16.2,2.5c1,0.2,1.6,0.7,1.7,1.7c0.1,2.1,0.3,4.2,0.5,6.3
				c0.1,0.8,0.3,1.5,1.3,2c-0.1-0.4-0.2-0.6-0.3-0.9c1.6,1.4,1.6,4.1-0.2,5.3c-0.2,0.1-0.3,0.5-0.3,0.8c0.3,1.8-0.2,3.7,0.9,5.3
				c0.1,0.1-0.1,0.4,0.1,0.7c0.2-0.4,0.4-0.7,0.5-1c1.5,1.8,1.2,4.5-0.7,5.3c0.1,0.9,0.1,1.8,0.2,2.7c0.1,0.9,0.1,1.8,0.2,2.4
				c0.9,0.4,1.7,0.6,2.2,1.1c0.4,0.3,0.6,1,0.6,1.6c-0.1,0.9-0.2,1.9-0.6,2.7c-0.2,0.4-1,0.5-1.6,0.8c-0.3,2.1-0.7,4.4-1,6.7
				c-0.5,0-0.9-0.1-1.5-0.1c-0.2-2.3-0.5-4.6-0.7-6.9c0,0-0.1,0-0.1,0c0.2,2.2,0.3,4.4,0.5,6.7c-1.5,0.3-1.7,0.2-1.8-1.2
				c-0.1-3.9-0.2-7.7-0.3-11.6c-0.1-2.5-0.1-5.1-0.2-7.6c0-0.4,0-0.8,0.1-1.2c0-0.1,0.3-0.1,0.5-0.2c-0.1-0.6-0.1-1.3,0.9-1.5
				c0.3-0.1,0.4-0.7,0.6-1.2c-1.5-0.4-1.2,1.3-2.1,1.4c-0.1-2.2-0.2-4.5-0.3-7c0,1.9,0,3.4,0,5c0,0.7-0.4,1.3-0.5,2
				c-0.1,0.3,0,0.6,0.1,0.9c0.2,0.8,0.5,1.6,0.5,2.4c0.2,6.3,0.3,12.6,0.4,18.9c0,0.3,0,0.6,0,0.8c-1.8,0.2-1.7,0.2-2.1-1.4
				c-0.9-3.7-1.8-7.4-2.7-11.1c-0.1,0-0.2,0-0.3,0.1c1,4.1,2,8.2,3,12.2c-1.6,0.2-1.7,0.2-2-1.2c-0.7-3.7-1.4-7.3-2.1-11
				c0-0.2-0.1-0.5-0.2-0.7c-0.5,0.4-0.7,1.3-1.6,0.7c1.1-0.6,1.6-1.5,1.5-2.6c-0.5-2.6-1-5.3-1.5-7.9c0-0.2-0.3-0.4-0.5-0.5
				c-0.3-0.2-0.5-0.3-0.9-0.6c1.2-0.4,1.6-1.2,1.4-2.3c-0.5-2.2-1.1-4.4-1.6-6.7c-0.2-0.7-0.4-1.3-0.6-2c-0.1,0-0.2,0-0.3,0.1
				c0.7,3,1.5,6,2.2,9c-0.3,0.2-0.6,0.3-0.9,0.4c-0.3,0.2-0.6,0.4-0.9,0.5c-1,0.2-0.9,0.9-0.9,1.6c0,0.4,0.5,0.7,0.8,1.2
				c0.2-0.6,0.4-0.9,0.5-1.2c0.4,0,0.8,0,1.2,0c0.6,3,1.2,6.1,1.8,8.9c-1,0.5-1.9,0.9-2.7,1.5c-0.7,0.5-0.1,1.2,0.1,1.8
				c0,0.1,0.4,0.1,0.6,0.1c0.1,0,0.2-0.2,0.3-0.4c0.1-0.2,0.1-0.4,0.1-0.6c1.1,0.1,1.4,0.8,1.4,1.8c0.1,2.9,0.4,5.8,0.6,8.7
				c0,0.3,0,0.6,0,0.9c-1.8,0.3-1.8,0.3-1.4,2.1c0.3-0.1,0.7-0.2,1-0.1c0.2,0,0.6,0.3,0.6,0.5c0,3.3,0,6.6,0,9.6
				c-0.5,0.3-0.9,0.5-1.2,0.7c0.1,0.1,0.1,0.2,0.2,0.3c0.3-0.1,0.5-0.1,0.9-0.2c0,3.3,0,6.5,0,9.5c-0.5,0.2-0.8,0.4-1.1,0.6
				c0,0.1,0.1,0.2,0.1,0.4c0.3,0,0.6-0.1,0.9-0.2c0,3.1,0,6.1,0,9c-0.4,0.1-0.8,0.2-1.1,0.3c0,0.1,0.1,0.3,0.1,0.4
				c0.3,0,0.7,0,1-0.1c0,2.9,0,5.7,0,8.5c-0.4,0.1-0.8,0.2-1.2,0.2c0,0.1,0,0.3,0.1,0.4c0.3,0,0.7-0.1,1.1-0.1c0,2.8,0,5.5,0,8.1
				c-0.4,0.4-1.3-0.5-1.2,0.7c0.4-0.1,0.8-0.2,1.2-0.3c0,2.6,0,5.1,0,7.6c-0.5,0.1-0.9,0.2-1.3,0.3c0,0.1,0.1,0.2,0.1,0.4
				c0.4-0.1,0.7-0.1,1.2-0.2c0,2.5,0,4.8,0,7c-0.3,0.6-1.4-0.4-1.2,0.8c0.4-0.1,0.7-0.1,1.2-0.2c0,2.3,0,4.6,0,6.8
				c-0.5,0.1-0.9,0.2-1.3,0.2c0,0.1,0.1,0.3,0.1,0.4c0.4-0.1,0.7-0.1,1.2-0.2c0,2.2,0,4.3,0,6.4c-1.2,0-1.2,0-1.2,0.7
				c0.4-0.1,0.7-0.2,1.2-0.3c0,6-0.1,12-0.1,17.9c-0.5,0.1-1,0.1-1.4,0.1c0,0.1,0,0.3,0.1,0.4c0.4-0.1,0.8-0.1,1.3-0.2
				c0,1.7,0,3.4,0,5c-1.3,0.1-1.3,0.1-1.3,0.7c0.4-0.1,0.9-0.2,1.3-0.3c0,1.7,0,3.2,0,4.8c-0.5,0.1-1,0.2-1.4,0.2
				c0,0.1,0,0.2,0.1,0.4c0.4-0.1,0.8-0.2,1.3-0.3c0,1.6,0,3,0,4.4c-0.4,0.5-1.4-0.4-1.5,0.8c0.5-0.1,0.9-0.2,1.4-0.4
				c0,1.4,0,2.8,0,4c-0.4,0.6-1.4-0.4-1.4,0.9c0.5-0.1,0.9-0.2,1.4-0.4c0,1.4,0,2.6,0,3.8c-0.4,0.6-1.4-0.4-1.5,0.9
				c0.5-0.1,0.9-0.2,1.4-0.3c0,1.3,0,2.5,0,3.6c-0.6,0.1-1,0.3-1.5,0.4c0,0.1,0.1,0.2,0.1,0.4c0.4-0.1,0.9-0.1,1.4-0.2
				c0,1.2,0,2.3,0,3.4c-0.4,0.3-1.5-0.5-1.5,0.8c0.6-0.1,1-0.2,1.5-0.4c0,1.2,0,2.2,0,3.2c-0.5,0.4-1.4-0.5-1.6,0.8
				c0.6-0.1,1-0.2,1.6-0.3c0,1.4,0,2.7,0,4c0,0.2-0.2,0.4-0.4,0.6c-1,0.8-2.1,1.6-3.3,2.2c1.1-0.9,2.2-1.8,3.5-2.9
				c-0.8,0.1-1.3,0.2-2,0.4c0-0.6-0.1-1.2-0.1-2c-0.5,0.2-0.9,0.5-1.3,0.7c0,0,0,0,0,0c0-0.1,0-0.2,0-0.2c1.6-0.7,1.4-2.1,1.4-3.4
				c0.1-7.3,0.2-14.5,0.3-21.8c0-0.7-0.1-1.3-0.1-2.3c-3.8,0.3-7.4,0.6-11.1,1c-4.4,0.5-8.4,2.2-11.9,5.1c-4.2,3.4-6.3,8-7,13.3
				c-0.8,6.1,0.4,11.8,2.7,17.4c1.3,3.1,2.4,6.2,3.4,9.4c1.2,3.9,0.5,7.7-1,11.4c-0.6,1.5-1.4,3-2.1,4.4c-0.5,1.1-1.1,2.3-1.6,3.4
				c-0.1,0-0.3,0-0.4,0c-0.9,1.5-1.7,3-2.5,4.4c-0.9,1.6-1.8,3.1-2.7,4.7c-0.1,0.1,0.1,0.3,0.2,0.5c-0.6,0.8-1.3,1.6-1.7,2.4
				c-1.4,3.3-2.9,6.7-4,10.1c-3.4,10.5-4.9,21.2-2.7,32.2c1.1,5.5,3,10.6,6.6,14.9c1.2,1.5,2.8,2.7,4.3,4.1c0,0.1,0,0.2,0,0.2
				c2,1.2,3.9,2.4,5.9,3.6C356.7,316.8,357,316.6,357.2,316.5z M391.9,31.5c0.3-0.6,0.6-1,0.9-1.5c-0.1-0.1-0.2-0.2-0.2-0.3
				c-0.7,0.3-1.4,0.5-2,0.8c-0.8,0.3-0.7,0.9-0.6,1.5c0.1,0.4,0.5,0.7,0.9,1.2c0.3-0.7,0.4-1.1,0.5-1.5c0.3,0.1,0.6,0.2,1,0.2
				c0,0,0-0.1,0.1-0.1C392.1,31.7,391.9,31.5,391.9,31.5z M381.5,28.5c-0.1-0.2-0.2-0.3-0.3-0.5c-0.5,0.2-1.1,0.6-1.6,0.6
				c-0.9,0.1-1.1,0.7-1.1,1.4c0,0.4,0.4,0.8,0.6,1.3C380,30.3,380.8,29.4,381.5,28.5z M392.8,51.8c0.5,0.9-1.6,2.3,0.2,3.5
				c0.8-1,1.5-1.9,2.4-2.9c-1.6-0.4-1.4,1.1-2.2,1.3C393,53,392.8,52.2,392.8,51.8z M383.9,40.6c-0.1,0-0.2,0-0.2,0.1
				c0.9,3.7,1.8,7.4,2.7,11.1c0.1,0,0.2,0,0.3-0.1C385.7,48,384.8,44.3,383.9,40.6z"/>
			<path d="M402.4,224.7c2-2.9,2.6-6.1,2.4-9.6c-0.2-3.4-0.6-6.7-3.5-9.1c0.1-0.2,0.3-0.4,0.2-0.5c-0.8-1.2-1.6-2.4-3.1-2.9l0,0
				c-0.1-0.1-0.2-0.1-0.3-0.2c0,0-0.1,0-0.1,0c0,0,0-0.1,0-0.1c0.5,0,1.1-0.1,1.9-0.1c-0.7-0.6-1.3-1-1.8-1.4
				c-0.1,0-0.2,0.1-0.3,0.1c0.1,0.5,0.1,0.9,0.2,1.4c0,0.1,0,0.1,0.1,0.2l0,0c-0.4,0-0.7,0.1-1.1,0c-0.5-0.1-1.1-0.3-1.7-0.3
				c6.5,3.9,8.7,9.8,7.5,17c-0.6,3.9-2.6,7.3-5.8,9.8c5.9-6,7.6-12.9,3.9-20.6c-1.5-3.1-3.9-5.3-7.5-5.9c6.9,3.4,9.2,9,8.1,16.4
				c-0.8,5.3-4.9,9.9-8.5,11.2c-0.7-2.1-0.2-2.3,2.5-2.3c0-0.5,0-1.1,0-1.5c-0.8-0.1-1.6-0.1-2.3-0.3c-0.2-0.1-0.4-0.7-0.4-1.1
				c-0.1-3.1-0.1-6.3-0.1-9.5c0-0.4,0-0.7-0.1-1.1c0,3.5,0,7-0.1,10.5c0,0.5,0.2,1.2-0.7,1.1c-0.7-0.1-1.7,0.3-1.7-1.1
				c0-8.5-0.1-17-0.2-25.4c0-0.1,0-0.3,0.1-0.5c0.7,0,1.5-0.1,2.3-0.1c0,4.1,0,8.1-0.1,12.1c0.1,0,0.1,0,0.2,0c0-4,0-8,0.1-12.1
				c1.6-0.1,3.1-0.2,4.6-0.2c0.2,0,0.7,0.5,0.6,0.8c-0.1,0.8,0.5,1.2,0.9,1.8c1.5,1.8,3.7,1.5,5.5,2.2c2.5,0.9,4.6,2.4,5.8,4.6
				c1.5,2.6,2.8,5.2,3.7,8c2.2,6.5,3.3,13.2,3.5,20c0.1,3.9-0.4,7.6-1.9,11.2c-1.9,4.3-5.5,6.1-9.9,6.5c-2.9,0.2-5.8-0.1-8.2-1.9
				c-2.5-1.9-3.6-4.6-3.7-7.7c-0.1-3.3,0.1-6.6,0.2-9.9c-0.2,0.1-0.6,0.2-1.3,0.4c1.5-1.2,2.8-2.2,4-3.3c0.2-0.2,0.3-0.6,0.5-0.9
				c1,0.2,2.3-0.8,2.8-2.1c0.4-0.6,0.9-1.2,1.3-1.9c0,0,0.1,0,0.1,0c0,0,0,0,0,0l0,0l0,0c0-0.1,0-0.3,0.1-0.4c0,0,0,0,0,0
				c0.2,0,0.3,0,0.5,0c0,0,0,0,0,0c0.1-0.2,0.3-0.4,0.4-0.5c0,0,0,0,0,0C402.4,225.2,402.4,225,402.4,224.7L402.4,224.7z"/>
			<path d="M368.7,259.8c5-0.5,9.9-0.9,14.9-1.4c0,1,0,1.8,0,2.8c-0.9,0.1-1.8,0.3-3,0.5c0.9,1.4,2.1,0.3,3,0.8
				c-0.1,0.6-0.2,1.1-0.3,1.7c0.3-2.2,1.8-2.5,3.6-2.4c-0.1,0.6-0.2,1.1-0.3,1.6c0.1,0.1,0.1,0.1,0.2,0.2c0-0.1,0-0.2,0-0.3
				c0-1.5,1-1.8,2.2-1.9c1.2,0,2.5-0.1,3.7-0.3c2.5-0.4,4.9-1,7.4-1.5c0.2,0,0.3-0.3,0.5-0.5c-0.3-0.1-0.5-0.4-0.8-0.3
				c-1.7,0.2-3.3,0.5-5,0.8c-0.6,0.1-1.1,0.2-1.7,0.3c-0.6-1.9-0.3-2.3,1.6-2.5c4.6-0.4,9.2-0.9,13.8-1.3c1.4-0.1,1.4-0.1,1.4,1.3
				c0,1.8,0,3.5,0,5.3c0,1.1-0.4,1.5-1.4,1.7c-1.1,0.2-2.2,0.2-3.3,0.5c-0.9,0.3-2,0.6-2.6,1.3c-1.2,1.4-2.8,1.9-4.5,2.2
				c-2.8,0.5-5.7,0.8-8.6,1.1c-2.2,0.3-4.3,0.4-6.5,0.6c-2.5,0.3-4.9,0-7.1-1.4c-0.8-0.5-2-0.6-3-0.6c-1.1-0.1-2.3,0.1-3.4,0.2
				c-0.6,0-1.1-0.1-1.1-0.8C368.7,264.8,368.7,262.4,368.7,259.8z"/>
			<path d="M383.7,224.5c0-0.4,0-0.8-0.1-1.5c-0.1,0.5-0.2,0.8-0.2,0.8c-0.8,0.1-1.4,0.2-2.3,0.3c-0.1-0.1-0.4-0.5-0.6-0.7
				c-0.3,0.5-0.6,1.1-1.1,1.9c0-3.4,0-6.5,0-9.6c-0.1,0-0.1,0-0.2-0.1c-0.6,1.2-1.2,2.3-1.9,3.5c-2.6-3.2,1.8-13,6.8-15.4
				c0,6.9-0.1,13.8-0.1,20.7C383.9,224.5,383.8,224.5,383.7,224.5z"/>
			<path d="M385.5,202.7c-0.3,0.1-0.6,0.1-0.9,0.2c0-1.3,0-2.6,0-4c0.8,0,1.6-0.1,2.5-0.1c0,8.9-0.1,17.7-0.1,26.6
				c-0.4-0.8-0.4-0.8-2.2-0.8c0,0.2-0.1,0.3-0.1,0.5c0,0.2,0,0.3-0.3,0.5c0-4.1,0-8.3,0.1-12.4c0-2.8,0.1-5.7,0-8.5
				C384.5,203.8,384.6,203.1,385.5,202.7z"/>
			<path d="M387.6,198.8c0.7,0,1.4,0,2.2,0c0,8.9-0.1,17.8-0.1,26.8c-0.6-0.5-1.2-1-1.9-1.5c-0.1,0.6-0.1,0.9-0.2,1.3
				c-0.1,0-0.1,0-0.2,0C387.5,216.6,387.6,207.7,387.6,198.8z"/>
			<path d="M390.1,145.1c0.8,0,1.4,0,2.2,0c0.1,0.8,0.1,1.5,0.2,2.3c0,0,0,0,0.1,0c0-0.7,0-1.4,0-2.2c0.7,0,1.3,0,2,0
				c0,0.6,0.1,1.2,0.1,2.1c0.1-0.8,0.1-1.4,0.2-2c0.2-0.1,0.3-0.1,0.4-0.1c2.4,0,2-0.1,2,2c0,1.3,0,2.6,0,4c-0.8,0-1.5,0-2.3,0
				c0-0.7,0-1.4,0-2.1c0,0-0.1,0-0.1,0c0,0.7-0.1,1.4-0.2,2.3c-0.8-0.1-1.5-0.3-2.1-0.4c-0.6,0-1.1,0.2-1.7,0.2
				c-0.3,0-0.7-0.3-0.7-0.5C390.1,148.7,390.1,146.9,390.1,145.1z"/>
			<path d="M394.7,157.5c0,0.8,0,1.6,0,2.3c0,0,0.1,0,0.1,0c0-0.2,0-0.3,0-0.5c0.1-2,0.5-2.3,2.6-1.6c0,1.6,0,3.3,0,5.1
				c-0.7,0-1.5,0.1-2.3,0.1c-0.1-0.6-0.2-1.1-0.3-1.6c0,0,0,0-0.1,0c0,0.5,0,1,0,1.5c-1.5,0-3,0-4.6,0c0-1.8,0-3.5,0-5.3
				C391.7,157.5,393.2,157.5,394.7,157.5z"/>
			<path d="M395.9,67.6c0,3.5,0,6.9,0,10.4c-1.2-0.1-2.3-0.3-3.6-0.4c0-3.4,0-6.8,0-10.4C393.4,67.3,394.5,67.4,395.9,67.6z"/>
			<path d="M396.1,85.2c0,0.9,0,1.8,0,2.8c-1.6,0.3-1.8,0.2-1.8-1.3c0-2.6,0-5.2,0-7.7c-0.1,0-0.2,0-0.3,0c0,3,0,5.9,0,8.9
				c-1.8,0.1-1.8,0.1-1.8-1.5c0-2.7,0-5.5,0-8.3c1.1,0.1,2.2,0.2,3.2,0.3c0.2,0,0.4,0.4,0.4,0.7c0,1,0,2,0.1,3c0-1.1,0-2.2,0-3.3
				c0.1,0,0.2,0,0.3,0c0,3.1,0,6.1,0,9.2c0,0,0,0,0,0c0-0.9,0-1.8,0-2.7C396.2,85.3,396.2,85.2,396.1,85.2z"/>
			<path d="M394.6,144.8c-0.8-0.3-1.7,0.3-2.1-0.6c-0.5,1-1.5,0.2-2.4,0.5c0-0.9-0.1-1.6-0.1-2.2c0.4-0.4,0.7-0.7,1-1
				c-0.3-0.3-0.6-0.5-0.9-0.8c0-0.7,0-1.5,0-2.4c0.7,0,1.4,0,2.1,0c0,0.5,0.1,1,0.1,1.6c0.3-0.6-0.3-1.6,1-1.6c1,0,1.3,0.3,1.3,1.3
				C394.5,141.2,394.6,142.9,394.6,144.8z"/>
			<path d="M394.7,157.1c-1.6,0-3,0-4.6,0c0-1.9,0-3.7,0-5.6c0.1-0.1,0.1-0.1,0.2-0.1c1.2,0,2.5,0,3.7,0.1c0.3,0,0.7,0.4,0.7,0.6
				C394.8,153.7,394.7,155.4,394.7,157.1z"/>
			<path d="M390.1,168.2c0-1.7,0-3.3,0-5c1.5,0,3,0,4.8,0c0,1.5,0,3,0,4.6c0,0.2-0.4,0.4-0.6,0.4
				C392.9,168.2,391.6,168.2,390.1,168.2z"/>
			<path d="M394.8,168.6c0,1.5,0,3,0,4.6c-1.5,0-3.1,0-4.7,0c0-1.5,0-3,0-4.6C391.7,168.6,393.2,168.6,394.8,168.6z"/>
			<path d="M387.5,77.2c-0.6,0-1.2-0.1-1.8-0.1c0-3.5,0-7,0-10.5c0.6,0.1,1.1,0.1,1.8,0.2C387.6,70.2,387.6,73.6,387.5,77.2z"/>
			<path d="M395,187.5c0.7-0.8,1.6-0.5,2.4-0.3c0.2,0,0.4,0.8,0.5,1.2c0.1,0.7,0,1.4,0,2.4c-1.7,0.1-3.3,0.1-5.3,0.2
				c0-1.2,0-2.2,0-3.3c0-0.1,0-0.2,0.1-0.3C393.1,186.9,394.8,187.1,395,187.5z"/>
			<path d="M385.6,87.7c0.7,0.1,1.3,0.1,1.9,0.2c0,3.1,0,6.1,0,9.2c-0.7-0.1-1.2-0.1-1.9-0.2C385.6,93.9,385.6,90.8,385.6,87.7z"/>
			<path d="M387.5,87.4c-0.7-0.1-1.2-0.1-1.9-0.2c0-3.2,0-6.4,0-9.7c0.6,0.1,1.2,0.1,1.9,0.2C387.5,80.9,387.5,84.1,387.5,87.4z"/>
			<path d="M394.4,97.6c0-3.1,0-6.1,0-9.2c0.5,0,1,0.1,1.7,0.2c0,2.2,0,4.3,0,6.4c0.1,0,0.1,0,0.2,0c0-2,0-4.1,0-6.1
				c0.1,0,0.2,0,0.2,0c0,2.9,0,5.8,0,8.7c0-0.2-0.1-0.3-0.1-0.5C396.1,98.3,395.2,97.4,394.4,97.6z"/>
			<path d="M388.1,66.7c0.5,0.1,1.1,0.1,1.7,0.2c0,3.5,0,6.9,0,10.5c-0.6,0-1.1-0.1-1.7-0.1C388.1,73.7,388.1,70.3,388.1,66.7z"/>
			<path d="M391.9,87.7c-0.6,0-1.1-0.1-1.8-0.1c0-3.2,0-6.4,0-9.8c0.5,0,1.1,0.1,1.8,0.2C391.9,81.3,391.9,84.5,391.9,87.7z"/>
			<path d="M389.8,87.6c-0.7-0.1-1.2-0.1-1.8-0.1c0-3.3,0-6.5,0-9.7c1.8,0,1.8,0,1.8,1.7C389.9,82.1,389.8,84.8,389.8,87.6z"/>
			<path d="M385.5,106.1c0-2.9,0-5.8,0-8.7c0.7,0,1.3,0.1,2,0.1c0,2.9,0,5.8,0,8.7C386.8,106.2,386.2,106.1,385.5,106.1z"/>
			<path d="M390.2,66.9c0.6,0.1,1.1,0.1,1.7,0.2c0,3.5,0,6.9,0,10.5c-0.6-0.1-1.1-0.1-1.7-0.2C390.1,73.9,390.2,70.5,390.2,66.9z"/>
			<path d="M392,106.4c-0.6,0-1.2,0-1.9,0c0-2.9,0-5.7,0-8.7c0.6,0,1.2,0.1,1.9,0.1C392,100.7,392,103.5,392,106.4z"/>
			<path d="M392.4,183c0,2.6,0,5.2,0,7.9c-0.7,0-1.4,0-2.2,0c0-1.2,0-2.3,0-3.6c0.6,0,1.1-0.1,1.7-0.1c0-0.1-0.1-0.2-0.1-0.2
				c-1.7-0.2-1.7-0.2-1.7-1.9c0-0.7,0-1.3,0-2.1C390.9,183,391.6,183,392.4,183z"/>
			<path d="M387.4,114.8c-0.7,0-1.3-0.1-2-0.1c0-2.7,0-5.4,0-8.2c0.7,0,1.3,0.1,2,0.1C387.4,109.3,387.4,112,387.4,114.8z"/>
			<path d="M387.4,122.9c-0.8-0.1-1.4-0.1-2.1-0.2c0-2.5,0-5,0-7.6c0.7,0,1.4,0.1,2.1,0.1C387.4,117.8,387.4,120.3,387.4,122.9z"/>
			<path d="M388,88c1.8-0.1,1.8-0.1,1.8,1.7c0,2.5,0,5,0,7.6c-0.6,0-1.2-0.1-1.8-0.1C388,94.1,388,91.1,388,88z"/>
			<path d="M391.9,97.3c-0.2,0-0.3,0-0.4,0c-1.5,0-1.5,0-1.5-1.5c0-2.5,0-5.1,0-7.7c0.7,0,1.2,0.1,1.9,0.1
				C392,91.3,392,94.3,391.9,97.3z"/>
			<path d="M396.6,114.9c0-1.9,0-3.7,0-5.6c0,0-0.1,0-0.1,0c0,2,0,3.9,0,5.9c-0.6,0-1.1,0-1.9,0c0-2.7,0-5.4,0-8.1
				c0.4,0,1-0.1,1.4,0c0.3,0.1,0.7,0.5,0.7,0.8c0,2.3,0,4.6,0,6.9C396.7,114.9,396.6,114.9,396.6,114.9z"/>
			<path d="M395.3,194.1c-0.6,0.9-1.6,0.3-2.5,0.7c0-1.2,0-2.3,0-3.5c1.5,0,3-0.1,4.5-0.1c0.2,0,0.5,0.4,0.6,0.7
				c0.1,0.8,0,1.6,0,2.4C396.7,194.8,395.6,194.7,395.3,194.1z"/>
			<path d="M396.5,115.7c0,0.6,0,1,0,1.4c0,0,0,0,0.1,0c0-0.4,0.1-0.7,0.1-1.1c0.1,0,0.2,0,0.4,0c0,1,0,1.9,0,2.9c0,1.1,0,2.2,0,3.3
				c0,1-0.5,1.2-1.4,1.1c-0.3,0-0.6-0.1-0.9-0.1c0-2.5,0-5,0-7.7C395.3,115.6,395.9,115.6,396.5,115.7z"/>
			<path d="M385.3,123.2c0.8,0,1.4,0,2.1,0c0,2.4,0,4.8,0,7.3c-0.7,0-1.4-0.1-2.1-0.1C385.3,128,385.3,125.6,385.3,123.2z"/>
			<path d="M392.3,97.4c0-3.1,0-6,0-9.1c0.5,0,1.1,0.1,1.7,0.1c0,3,0,6,0,9.1C393.5,97.5,393,97.4,392.3,97.4z"/>
			<path d="M394.7,123.6c0.4,0,0.7,0,0.9,0c1-0.1,1.4,0.3,1.3,1.4c-0.1,1.6-0.1,3.3-0.1,4.9c0,0.7-0.2,1-1,1c-0.7,0-1.3,0-1.3-1
				C394.7,127.9,394.7,125.8,394.7,123.6z"/>
			<path d="M389.7,106.3c-0.6,0-1.2-0.1-1.9-0.1c0-2.9,0-5.7,0-8.6c0.6,0,1.2,0,1.9,0C389.8,100.6,389.7,103.4,389.7,106.3z"/>
			<path d="M395.3,196c-0.1,2.6,0.5,2.2-2.5,2.3c0-1,0-2.1,0-3.3c1.7,0,3.3,0,5.2,0c0,0.8,0,1.7,0,2.6c0,0.2-0.3,0.5-0.5,0.5
				c-0.4,0.1-0.8,0-1.2,0.1c-0.7,0.1-1.1-0.1-1-0.9C395.3,196.8,395.3,196.4,395.3,196z"/>
			<path d="M385.2,137.7c0-2.3,0-4.5,0-6.8c0.7,0,1.4,0,2.2,0c0,2.3,0,4.5,0,6.8C386.6,137.7,385.9,137.7,385.2,137.7z"/>
			<path d="M387.8,114.8c0-2.7,0-5.4,0-8.2c0.6,0,1.2,0.1,1.9,0.1c0,2.8,0,5.5,0,8.2C389.1,114.9,388.5,114.8,387.8,114.8z"/>
			<path d="M394.2,115.2c-1.9,0-1.9,0-1.9-1.7c0-2.1,0-4.3,0-6.4c1.6-0.4,1.9-0.2,1.9,1.4C394.3,110.7,394.3,112.9,394.2,115.2z"/>
			<path d="M394.1,106.6c-0.6-0.1-1.1-0.1-1.8-0.2c0-2.9,0-5.7,0-8.6c0.6,0,1.1,0.1,1.8,0.1C394.2,100.8,394.1,103.7,394.1,106.6z"
				/>
			<path d="M392,115c-0.6,0-1.2-0.1-1.9-0.1c0-0.9,0-1.8,0-2.7c0.4-0.3,0.8-0.7,1.2-1.1c-0.1-0.1-0.1-0.2-0.2-0.3
				c-0.3,0-0.7-0.1-1.1-0.2c0-1.3,0-2.6,0-4c0.6,0.1,1.2,0.1,1.9,0.2C392.1,109.6,392.1,112.3,392,115z"/>
			<path d="M389.7,130.6c-0.7,0-1.3-0.1-1.9-0.1c0-2.4,0-4.8,0-7.2c0.6,0,1.2,0.1,1.9,0.1C389.8,125.8,389.7,128.2,389.7,130.6z"/>
			<path d="M385.2,138.1c0.7,0,1.4,0,2.2,0c0,2.2,0,4.3,0,6.5c-0.7,0-1.4-0.1-2.2-0.1C385.2,142.4,385.2,140.3,385.2,138.1z"/>
			<path d="M394.8,138.4c0.6,0,1.1-0.1,1.5,0c0.3,0.1,0.7,0.5,0.7,0.7c0.1,1.8,0,3.7,0,5.7c-0.5,0-1.1,0-1.7,0
				c-0.2,0-0.6-0.4-0.6-0.6C394.8,142.3,394.8,140.3,394.8,138.4z"/>
			<path d="M390.2,123.4c0.7,0,1.3,0.1,2,0.1c0,2.4,0,4.7,0,7.1c-0.6,0-1.3,0-2,0c0-0.9,0-1.8,0-2.7c0.2-0.1,0.5-0.3,0.8-0.4
				c0-0.1,0-0.1-0.1-0.2c-0.2,0-0.4,0-0.7,0C390.2,126,390.2,124.8,390.2,123.4z"/>
			<path d="M394.5,98.1c1.8-0.1,1.8-0.1,1.8,1.6c0,2.3,0,4.6,0,7.1c-0.6,0-1.1-0.1-1.8-0.1C394.5,103.8,394.5,101,394.5,98.1z"/>
			<path d="M394.8,137.9c0-2.3,0-4.4,0-6.6c1.8-0.4,2.1-0.2,2.1,1.6c0,1.2,0.1,2.5,0.1,3.7c0.1,1.3,0,1.4-1.4,1.4
				C395.4,138,395.1,138,394.8,137.9z"/>
			<path d="M390.2,115.3c0.7,0,1.3,0.1,1.9,0.1c0,2.5,0,5,0,7.7c-0.6,0-1.3-0.1-1.9-0.2C390.1,120.4,390.2,117.9,390.2,115.3z"/>
			<path d="M387.9,115.2c0.6,0,1.2,0.1,1.9,0.1c0,2.6,0,5.1,0,7.6c-0.6,0-1.2,0-1.9,0C387.9,120.3,387.9,117.8,387.9,115.2z"/>
			<path d="M394.3,123.1c-0.6,0-1.1,0-1.8,0c0-2.5,0-5.1,0-7.6c0.5,0,1.1,0,1.8,0C394.3,118.1,394.3,120.6,394.3,123.1z"/>
			<path d="M385.1,144.9c0.8,0,1.4,0,2.2,0c0,2,0,4,0,6c-0.8,0-1.4,0-2.2,0C385.1,148.9,385.1,147,385.1,144.9z"/>
			<path d="M389.7,137.7c-0.7,0-1.3,0-2,0c0-2.3,0-4.5,0-6.8c0.6,0,1.2,0,2,0C389.8,133.2,389.7,135.5,389.7,137.7z"/>
			<path d="M392.2,137.9c-0.7,0-1.3-0.1-2-0.1c0-2.3,0-4.5,0-6.8c0.7,0,1.3,0.1,2,0.1C392.2,133.3,392.2,135.6,392.2,137.9z"/>
			<path d="M392.5,131.2c0.7,0,1.3,0,2,0c0,2.3,0,4.4,0,6.8c-0.5,0-0.9,0-1.4,0c-0.2,0-0.5-0.3-0.5-0.5
				C392.4,135.3,392.5,133.2,392.5,131.2z"/>
			<path d="M394.4,130.7c-0.6,0-1.2,0-1.9,0c0-2.4,0-4.8,0-7.2c0.6,0,1.2,0.1,1.9,0.1C394.4,126,394.4,128.3,394.4,130.7z"/>
			<path d="M389.7,144.6c-0.7,0-1.3,0-2,0c0-2.1,0-4.2,0-6.4c0.6,0,1.3,0,2,0C389.8,140.3,389.8,142.4,389.7,144.6z"/>
			<path d="M385.1,151.3c0.8,0,1.4,0,2.2,0c0,1.9,0,3.8,0,5.7c-0.8,0-1.4,0-2.2,0C385.1,155.1,385.1,153.3,385.1,151.3z"/>
			<path d="M397.3,157c-0.1,0-0.1,0.1-0.2,0.1c-2.1,0.3-2.2,0.3-2.2-1.9c0-1.1,0-2.3,0-3.4c0-0.1,0-0.1,0.1-0.2
				c0.1,0,0.1-0.1,0.2-0.1c2.1-0.2,2.2-0.2,2.2,2C397.3,154.7,397.3,155.8,397.3,157z"/>
			<path d="M389.8,145c0,2,0,4,0,6c-0.7,0-1.3,0-2,0c0-2,0-4,0-6C388.4,145,389.1,145,389.8,145z"/>
			<path d="M387.3,157.4c0,1.8,0,3.5,0,5.3c-0.8,0-1.5,0-2.3,0c0-1.8,0-3.5,0-5.3C385.8,157.4,386.5,157.4,387.3,157.4z"/>
			<path d="M380.5,201.7c-0.6,0.6-1.2,1.2-1.8,1.8c-5.3,6-6.8,12.8-4.4,20.4c1.5,4.5,4.3,7.9,8.8,9.8c0.2,0.1,0.4,0.3,0.6,0.5
				c-2.6-0.8-4.8-2.3-6.5-4.4c-4.6-5.8-5.4-12.2-3.2-19.1c1-3.1,2.7-5.8,5-8C379.5,202.4,380.1,202.1,380.5,201.7
				C380.5,201.8,380.5,201.7,380.5,201.7z"/>
			<path d="M385.3,53.3c0.7,3.8,1.4,7.6,2.2,11.6c-0.6-0.1-1.1-0.1-1.8-0.2c-0.3-3.9-0.5-7.7-0.8-11.5
				C385,53.3,385.1,53.3,385.3,53.3z"/>
			<path d="M384.9,168.6c0.8,0,1.5,0,2.3,0c0,1.5,0,3.1,0,4.7c-0.8,0-1.5,0-2.3,0C384.9,171.8,384.9,170.2,384.9,168.6z"/>
			<path d="M389.7,157.1c-0.7,0-1.3,0-2,0c0-1.9,0-3.7,0-5.7c0.7,0,1.3,0,2,0C389.8,153.3,389.7,155.1,389.7,157.1z"/>
			<path d="M395.1,163.2c0.8,0,1.6,0,2.4,0c0,1.6,0,3.2,0,4.9c-0.7,0-1.5,0-2.4,0C395.1,166.5,395.1,164.9,395.1,163.2z"/>
			<path d="M397.5,173.1C397.5,173.1,397.5,173.2,397.5,173.1c-2.3,0.5-2.5,0.4-2.5-1.9c0-0.8,0-1.7,0-2.6c0.9,0,1.7,0,2.5,0
				C397.5,170.1,397.5,171.6,397.5,173.1z"/>
			<path d="M384.9,168.1c0-1.7,0-3.3,0-4.9c0.8,0,1.5,0,2.3,0c0,1.6,0,3.2,0,4.9C386.5,168.1,385.8,168.1,384.9,168.1z"/>
			<path d="M389.8,163.2c0,1.6,0,3.3,0,4.9c-0.8,0-1.4,0-2.1,0c0-1.7,0-3.2,0-4.9C388.3,163.2,389,163.2,389.8,163.2z"/>
			<path d="M389.7,162.8c-0.7,0-1.4,0-2.1,0c0-1.8,0-3.5,0-5.3c0.7,0,1.3,0,2.1,0C389.8,159.2,389.7,161,389.7,162.8z"/>
			<path d="M387.2,178.1c-0.8,0-1.6,0-2.4,0c0-1.5,0-2.9,0-4.4c0.8,0,1.6,0,2.4,0C387.2,175.1,387.2,176.6,387.2,178.1z"/>
			<path d="M389.8,168.6c0,1.6,0,3.1,0,4.7c-0.7,0-1.4,0-2.2,0c0-1.6,0-3.1,0-4.7C388.3,168.6,389,168.6,389.8,168.6z"/>
			<path d="M387.2,178.5c0,1.3,0,2.7,0,4.1c-0.8,0-1.6,0-2.4,0c0-1.3,0-2.7,0-4.1C385.6,178.5,386.3,178.5,387.2,178.5z"/>
			<path d="M387.7,173.6c0.7,0,1.4,0,2.1,0c0,1.5,0,2.9,0,4.4c-0.7,0-1.3,0-2.1,0C387.6,176.6,387.7,175.2,387.7,173.6z"/>
			<path d="M397.8,182.5c-0.9,0-1.7,0-2.6,0c0-1.3,0-2.6,0-3.9c0,0,0-0.1,0.1-0.1c2.4-0.3,2.5-0.3,2.5,2.1
				C397.8,181.1,397.8,181.7,397.8,182.5z"/>
			<path d="M387.6,178.5c0.7,0,1.4,0,2.2,0c0,1.3,0,2.7,0,4.1c-0.7,0-1.4,0-2.2,0C387.6,181.2,387.6,179.9,387.6,178.5z"/>
			<path d="M390.1,182.6c0-1.4,0-2.7,0-4.1c0.8,0,1.5,0,2.3,0c0,1.4,0,2.7,0,4.1C391.6,182.6,390.9,182.6,390.1,182.6z"/>
			<path d="M384.8,183.1c0.8,0,1.5,0,2.4,0c0,1.2,0,2.5,0,3.9c-0.8,0-1.5,0-2.4,0C384.8,185.6,384.8,184.4,384.8,183.1z"/>
			<path d="M397.8,186.7c-0.7,0-1.4,0.1-2.1,0.1c-0.2,0-0.5-0.4-0.5-0.6c-0.1-1.1,0-2.1,0-3.3c0.9,0,1.7,0,2.6,0
				C397.8,184.2,397.8,185.4,397.8,186.7z"/>
			<path d="M392.7,178.3c0.8,0.1,2.1,0.1,2.2,0.3c0.2,1.2,0.3,2.4,0,3.6c-0.1,0.3-1.4,0.3-2.2,0.5
				C392.7,181.2,392.7,179.9,392.7,178.3z"/>
			<path d="M389.8,186.9c-0.7,0-1.4,0-2.1,0c0-1.2,0-2.5,0-3.9c0.7,0,1.4-0.1,2.1-0.1C389.8,184.2,389.8,185.5,389.8,186.9z"/>
			<path d="M387.2,187.3c0,1.3,0,2.5,0,3.7c-0.8,0-1.6,0-2.4,0c0-1.2,0-2.3,0-3.6C385.5,187.3,386.3,187.3,387.2,187.3z"/>
			<path d="M392.5,178c-0.9,0-1.6,0-2.4,0c0-0.4-0.1-0.9-0.1-1.1c0.4-0.4,0.7-0.7,1-1c-0.3-0.3-0.6-0.5-1-0.9c0-0.3,0-0.8,0-1.3
				c0.1-0.1,0.2-0.1,0.2-0.1c2.6,0,2.1-0.3,2.2,2.1C392.5,176.5,392.5,177.2,392.5,178z"/>
			<path d="M395,186.9c-0.8-0.1-2.2-0.1-2.2-0.3c-0.2-1.1-0.2-2.3,0-3.5c0.1-0.3,1.4-0.3,2.2-0.4C395,184.2,395,185.4,395,186.9z"/>
			<path d="M389.8,187.3c0,1.2,0,2.4,0,3.7c-0.7,0-1.4,0-2.3,0c0-1,0-2.1,0-3.2c0-0.2,0.3-0.4,0.5-0.5
				C388.6,187.2,389.1,187.2,389.8,187.3z"/>
			<path d="M384.7,191.4c0.9,0,1.6,0,2.5,0c0,1.1,0,2.1,0,3.3c-0.8,0-1.6,0-2.5,0C384.7,193.7,384.7,192.6,384.7,191.4z"/>
			<path d="M378.9,207.7c-4.6,9.2-4,17.1,4.9,23.1C375.5,227.5,373.5,215.1,378.9,207.7z"/>
			<path d="M384.7,195.3c0.8,0,1.6-0.1,2.5-0.1c0,1.2,0,2.2,0,3.3c-0.8,0-1.6,0-2.5,0C384.7,197.4,384.7,196.4,384.7,195.3z"/>
			<path d="M390.2,194.6c0-1.1,0-2.2,0-3.3c0.7,0,1.4,0,2.2,0c0,0.4,0.1,0.8,0.1,1.2C392.7,194.8,392.6,194.9,390.2,194.6z"/>
			<path d="M387.6,194.7c0-1.1,0-2.2,0-3.3c0.8,0,1.4,0,2.2,0c0,1.1,0,2.1,0,3.3C389,194.7,388.4,194.7,387.6,194.7z"/>
			<path d="M384.1,261.1c0-0.5,0-0.9,0-1.3c-0.1-1,0.2-1.6,1.4-1.6c0.5,0,1.3-0.1,1.4,0.1c0.2,0.6,0.2,1.4,0.2,2.1
				c0,0.1-0.3,0.3-0.6,0.4C385.7,260.9,385,261,384.1,261.1z"/>
			<path d="M390.2,198.3c0-1.1,0-2.1,0-3.2c0.7,0,1.4-0.1,2.4-0.1c0,1,0,2,0,2.9c0,0.2-0.4,0.4-0.6,0.4
				C391.4,198.4,390.8,198.3,390.2,198.3z"/>
			<path d="M389.7,198.4c-0.8,0-1.4,0-2.2,0c0-0.4-0.1-0.7-0.1-1c0-0.7,0-1.4,0-2.2c0.8,0,1.5,0,2.2,0
				C389.7,196.2,389.7,197.3,389.7,198.4z"/>
			<path d="M390.2,260.2c0-0.5-0.1-0.8-0.1-1.2c0-1.1,1.4-2.1,2.3-1.4c0.4,0.3,0.4,1.1,0.4,1.6c0,0.2-0.4,0.6-0.7,0.7
				C391.6,260.1,391,260.1,390.2,260.2z"/>
			<path d="M387.2,260.7c0.2-1,0.1-2,0.5-2.6c0.2-0.3,1.6-0.4,1.9-0.1c0.4,0.5,0.3,1.4,0.5,2.2C389.1,260.4,388.3,260.5,387.2,260.7
				z"/>
			<path d="M390.4,230.7c-0.6-3-0.4-2.8,2.2-2.8C393.1,230,392.9,230.3,390.4,230.7z"/>
			<path d="M387.5,230.8c0-0.9,0-1.6,0-2.6c0.8,0,1.5-0.1,2.3-0.1c0,0.9,0,1.8,0,2.7C389,230.8,388.3,230.8,387.5,230.8z"/>
			<path d="M387,228.4c0,0.8,0,1.5,0,2.3c-1.8,0.1-2.7-0.4-2.7-1.3C384.3,228.3,384.6,228.2,387,228.4z"/>
			<path d="M364,318.4c5.2,1,10.5,0.1,15.7-0.1C374.5,319,369.3,319.4,364,318.4z"/>
			<path d="M339.8,292.4c-0.9-3.8-0.7-8.7-0.6-12.3C339.4,283.6,339.6,288.5,339.8,292.4z"/>
			<path class="st10" d="M357.2,316.5c-0.2,0.1-0.5,0.3-0.6,0.2c-2-1.2-4-2.4-5.9-3.6c0,0,0-0.1,0-0.2c0,0,0,0,0,0
				c0.2,0,0.4,0,0.6,0C353.2,314.1,355.2,315.3,357.2,316.5z"/>
			<path d="M396.3,67.7c0,3.4,0,6.7,0,10.1c-0.1,0-0.1,0-0.2,0c0-3.4,0-6.7,0-10.1C396.2,67.7,396.3,67.7,396.3,67.7z"/>
			<path class="st10" d="M348.1,249.1c-0.1-0.2-0.2-0.4-0.2-0.5c0.9-1.6,1.8-3.1,2.7-4.7c0.1,0,0.1,0,0.2,0
				C350,245.7,349,247.4,348.1,249.1z"/>
			<path d="M427.1,241.3c0.8,1.5,1.6,3.1,2.5,4.6c-0.2,0-0.4,0-0.5-0.1c-0.7-1.4-1.4-2.8-2.1-4.2C427,241.6,427.1,241.5,427.1,241.3
				z"/>
			<path class="st10" d="M398.5,202.7c1.5,0.4,2.3,1.7,3.1,2.9c0,0.1-0.2,0.3-0.2,0.5c-0.8-0.9-1.5-1.7-2.3-2.6
				C398.8,203.2,398.7,202.9,398.5,202.7z"/>
			<path class="st10" d="M350.9,244c-0.1,0-0.1,0-0.2,0c0.8-1.5,1.7-3,2.5-4.4c0-0.1,0.2,0,0.4,0C352.7,241,351.8,242.5,350.9,244z"
				/>
			<path d="M396.7,98.4c0,2.7,0,5.3,0,8c0,0-0.1,0-0.1,0c0-2.7,0-5.3,0-8C396.6,98.4,396.6,98.4,396.7,98.4z"/>
			<path class="st10" d="M400.1,228.3c-0.5,1.3-1.8,2.3-2.8,2.1C398.3,229.7,399.2,229,400.1,228.3z"/>
			<path d="M384,228.5c0,0.5,0,0.9,0,1.5c-0.7-0.4-1.3-0.8-1.9-1.2c0-0.1,0.1-0.2,0.1-0.3C382.7,228.6,383.3,228.5,384,228.5z"/>
			<path d="M434.7,267.6c0,2.7,0,5.5,0,8.2C434.7,273.1,434.7,270.4,434.7,267.6C434.7,267.6,434.7,267.6,434.7,267.6z"/>
			<path d="M351.1,312.9c-0.2,0-0.4,0-0.6,0c-0.7-0.7-1.3-1.4-2-2c-0.3-0.3-0.7-0.5-1-0.8c0.1-0.1,0.2-0.2,0.2-0.2
				C348.9,310.9,350,311.9,351.1,312.9z"/>
			<path d="M342.5,301.4c0.5,1.1,1,2.2,1.5,3.2c-0.1,0-0.1,0.1-0.2,0.1c-0.5-1.1-1.1-2.2-1.6-3.2
				C342.4,301.4,342.5,301.4,342.5,301.4z"/>
			<path d="M402.4,224.7L402.4,224.7c-0.1,0.2-0.2,0.4-0.2,0.6c-0.2,0.1-0.3,0.1-0.5,0.2l0,0C401.9,225.2,402.1,225,402.4,224.7z"/>
			<path d="M398.5,202.7c0.2,0.3,0.3,0.5,0.5,0.8C398.8,203.2,398.7,202.9,398.5,202.7C398.5,202.7,398.5,202.7,398.5,202.7z"/>
			<path d="M377.8,206.6C377.8,206.7,377.8,206.8,377.8,206.6C377.8,206.8,377.8,206.7,377.8,206.6L377.8,206.6z"/>
			<path d="M401.5,226.3L401.5,226.3L401.5,226.3C401.5,226.4,401.4,226.4,401.5,226.3c-0.1,0.1-0.1,0-0.2,0
				C401.4,226.3,401.4,226.3,401.5,226.3z"/>
			<path d="M401.6,225.9C401.6,225.9,401.6,225.9,401.6,225.9c0-0.1,0.1-0.3,0.1-0.4c0,0,0,0,0,0
				C401.6,225.6,401.6,225.8,401.6,225.9z"/>
			<polygon points="377.8,206.6 377.8,206.6 377.8,206.6 			"/>
			<polygon points="398.2,202.5 398.2,202.5 398.2,202.5 398.1,202.5 398.1,202.5 			"/>
			<path class="st10" d="M383.1,41.8c-0.4,0-0.7,0-1.2,0c-0.1,0.3-0.2,0.6-0.5,1.2c-0.4-0.5-0.8-0.8-0.8-1.2c0-0.6-0.1-1.4,0.9-1.6
				c0.3-0.1,0.6-0.3,0.9-0.5c0.3-0.1,0.6-0.3,0.9-0.4c-0.7-3-1.5-6-2.2-9c0.1,0,0.2,0,0.3-0.1c0.2,0.7,0.4,1.3,0.6,2
				c0.5,2.2,1.1,4.4,1.6,6.7c0.2,1-0.2,1.9-1.4,2.3C382.5,41.5,382.8,41.6,383.1,41.8C383.1,41.8,383.1,41.8,383.1,41.8z"/>
			<path class="st10" d="M391.9,31.5c0,0,0.2,0.2,0.4,0.3c0,0,0,0.1-0.1,0.1c-0.3-0.1-0.7-0.2-1-0.2c-0.1,0.4-0.2,0.7-0.5,1.5
				c-0.4-0.6-0.8-0.9-0.9-1.2c-0.1-0.6-0.2-1.2,0.6-1.5c0.7-0.2,1.4-0.5,2-0.8c0.1,0.1,0.2,0.2,0.2,0.3
				C392.5,30.5,392.2,30.9,391.9,31.5z"/>
			<path class="st10" d="M381.5,28.5c-0.7,0.9-1.5,1.8-2.4,2.9c-0.2-0.5-0.6-0.9-0.6-1.3c0-0.7,0.2-1.3,1.1-1.4
				c0.6-0.1,1.1-0.4,1.6-0.6C381.3,28.2,381.4,28.4,381.5,28.5z"/>
			<path class="st10" d="M392.8,51.8c0.1,0.4,0.2,1.1,0.3,1.9c0.8-0.2,0.7-1.7,2.2-1.3c-0.9,1.1-1.6,2-2.4,2.9
				C391.2,54.1,393.3,52.7,392.8,51.8z"/>
			<path class="st10" d="M383.9,40.6c0.9,3.7,1.8,7.4,2.8,11.1c-0.1,0-0.2,0-0.3,0.1c-0.9-3.7-1.8-7.4-2.7-11.1
				C383.7,40.6,383.8,40.6,383.9,40.6z"/>
			<path class="st10" d="M398.1,202.3c-0.1-0.5-0.1-0.9-0.2-1.4c0.1,0,0.2-0.1,0.3-0.1c0.5,0.4,1.1,0.8,1.8,1.4
				C399.2,202.3,398.7,202.3,398.1,202.3C398.1,202.4,398.1,202.3,398.1,202.3z"/>
			<path class="st10" d="M401.6,225.9c0-0.1,0.1-0.3,0.1-0.4c0.2-0.1,0.3-0.1,0.5-0.2l0,0c0.1,0.1,0.2,0.1,0.3,0.2
				c-0.1,0.2-0.3,0.4-0.4,0.5c0,0,0.1,0,0.1,0l0,0C401.9,226,401.7,225.9,401.6,225.9z"/>
			<path class="st10" d="M402.1,225.3c0.1-0.2,0.1-0.4,0.2-0.6c0,0.2,0,0.5,0,0.7C402.3,225.4,402.2,225.3,402.1,225.3L402.1,225.3z
				"/>
			<path d="M398.1,202.4C398.1,202.4,398.2,202.5,398.1,202.4c0,0.1,0,0.1,0,0.1C398.1,202.4,398.1,202.4,398.1,202.4L398.1,202.4z"
				/>
			<polygon points="402,226 402,225.9 402,226 			"/>
			<path d="M402.1,225.3c0.1,0.1,0.2,0.1,0.3,0.2c0,0,0,0,0,0C402.3,225.4,402.2,225.3,402.1,225.3z"/>
			<polygon points="401.5,226.3 401.5,226.4 401.5,226.4 			"/>
		</g>
	</g>
</g>
<g id="main_text" class="st0">
	<g class="st1">
		<path class="st11" d="M79.5,92.9V154H59.1l-23.8-45.4v39.6h5.6v5.8H19.7v-5.8h5.9V92.9h-5.9V87h28.2l22,43.1V92.9H64V87h21.7v5.9
			H79.5z"/>
		<path class="st11" d="M94.8,154v-5.8h5.9V92.9h-5.9V87h58.4v18.5h-15.4V92.9H124v24.3h6.8v-6.5h12.1v18.6h-12.1v-6.7H124v25.5
			h13.8v-13.9h15.4V154H94.8z"/>
		<path class="st11" d="M222.6,92.9L203.5,154h-18.7l-19.9-61.1h-5.2V87h35.9v5.9h-5.6l11.5,42.1l11.2-42.1h-5.8V87h19.9v5.9H222.6z
			"/>
		<path class="st11" d="M232.6,154v-5.8h5.9V92.9h-5.9V87H291v18.5h-15.4V92.9h-13.8v24.3h6.8v-6.5h12.1v18.6h-12.1v-6.7h-6.8v25.5
			h13.8v-13.9H291V154H232.6z"/>
		<path class="st11" d="M339.2,154v-21.4c0-1.8-0.1-3.3-0.4-4.5s-0.8-2.1-1.7-2.7c-0.8-0.7-1.9-1.1-3.2-1.4
			c-1.3-0.3-3.1-0.4-5.3-0.4h-1.7v24.6h6.6v5.8h-35.9v-5.8h5.9V92.9h-5.9V87h29.2c7.1,0,13,0.3,17.7,0.8c4.7,0.6,8.4,1.5,11.2,2.9
			c2.8,1.4,4.8,3.3,5.9,5.6c1.2,2.4,1.7,5.3,1.7,8.8c0,4.3-1.3,7.6-3.8,9.8c-2.5,2.2-6.9,3.9-13.2,5.1c3.4,0.7,6.1,1.5,8.3,2.2
			c2.2,0.8,3.8,1.7,5,2.8c1.2,1.1,2,2.6,2.4,4.2c0.4,1.7,0.6,3.8,0.6,6.3v12.6h5.6v5.8H339.2z M339.2,100.1c0-1.6-0.1-2.8-0.4-3.8
			c-0.2-0.9-0.8-1.7-1.7-2.2c-0.9-0.5-2.1-0.8-3.8-1c-1.6-0.2-3.8-0.2-6.6-0.2v25.2c2.3,0,4.3-0.1,5.9-0.2c1.6-0.1,2.9-0.4,3.8-0.8
			c1-0.4,1.7-1,2.1-1.9c0.4-0.8,0.6-1.9,0.6-3.3V100.1z"/>
	</g>
	<g id="Layer_18" class="st1">
		<path class="st11" d="M85.2,248l-16.8,36v21H76v6H37.5v-6h6.8v-19.5l-19-37.5H20v-6.1h38.1v6.1h-5.9l11.1,25.7L74.7,248h-6.3v-6.1
			h22.5v6.1H85.2z"/>
		<path class="st11" d="M161.9,292.8c-1.6,4.5-3.9,8.2-6.8,11c-3,2.8-6.5,4.8-10.6,6.1c-4.1,1.2-8.8,1.9-13.9,1.9
			c-22.7,0-34-11.8-34-35.4c0-6.5,0.8-12,2.4-16.5c1.6-4.5,3.9-8.1,6.8-10.9c3-2.8,6.5-4.8,10.7-6c4.2-1.2,8.9-1.8,14-1.8
			c6.9,0,12.5,1.1,16.9,3.3c4.4,2.2,7.8,5,10.3,8.4c2.5,3.4,4.2,7.2,5.2,11.4c0.9,4.2,1.4,8.3,1.4,12.2
			C164.3,282.8,163.5,288.3,161.9,292.8z M138,256.7c0-3.8-0.6-6.4-1.7-7.8c-1.1-1.4-3.1-2.1-5.9-2.1c-3,0-5,0.7-6.1,2.1
			c-1.1,1.4-1.7,4-1.7,7.8v39.6c0,3.7,0.6,6.3,1.7,7.7c1.1,1.4,3.1,2.1,6.1,2.1c2.8,0,4.8-0.7,5.9-2.1c1.1-1.4,1.7-4,1.7-7.7V256.7z
			"/>
		<path class="st11" d="M238.3,248v41.5c0,4.1-0.5,7.6-1.5,10.4c-1,2.8-2.6,5.1-4.9,6.9c-2.3,1.8-5.2,3-8.8,3.8
			c-3.6,0.8-7.9,1.2-13.1,1.2c-10.8,0-18.8-1.7-23.8-5.1c-5-3.4-7.6-8.8-7.6-16.1V248h-6.3v-6.1h38.4v6.1h-7.6v42.5
			c0,2.8,0.2,5.2,0.6,7c0.4,1.9,1,3.3,1.9,4.3c0.9,1,2.2,1.8,3.9,2.2c1.7,0.4,3.8,0.6,6.4,0.6c2.5,0,4.5-0.2,6-0.6
			c1.5-0.4,2.7-1.1,3.5-2.2c0.8-1.1,1.4-2.6,1.7-4.5c0.3-1.9,0.5-4.4,0.5-7.5V248h-7.8v-6.1h24.6v6.1H238.3z"/>
		<path class="st11" d="M315.9,248v63h-21.6l-25.1-46.8V305h5.9v6h-22.3v-6h6.3v-57h-6.3v-6.1h29.7l23.3,44.4V248h-6.3v-6.1h22.9
			v6.1H315.9z"/>
		<path class="st11" d="M396.4,282.7v28.2H389l-2.4-4.8c-3.3,2-6.5,3.5-9.6,4.3c-3.1,0.8-6.6,1.3-10.5,1.3c-11.1,0-19.5-3-25.3-8.9
			s-8.7-14.7-8.7-26.1c0-5.5,0.7-10.5,2.2-14.9c1.5-4.4,3.6-8.2,6.5-11.2c2.8-3.1,6.2-5.4,10.3-7.1c4-1.7,8.5-2.5,13.6-2.5
			c3.8,0,7.3,0.4,10.4,1.2c3.1,0.8,6.5,2.1,10.1,4l2.4-4.2h8.5V263h-17.2v-8.4c0-0.9-0.2-1.8-0.5-2.7c-0.3-0.9-0.9-1.8-1.7-2.6
			c-0.8-0.8-1.8-1.4-3.1-1.9c-1.3-0.5-2.9-0.8-4.9-0.8c-3.7,0-6.3,1-7.9,3.1c-1.5,2.1-2.3,5.6-2.3,10.7v33.5c0,2.2,0.1,4.1,0.4,5.5
			c0.2,1.4,0.6,2.6,1.2,3.4c0.6,0.8,1.3,1.4,2.3,1.7c1,0.3,2.2,0.5,3.7,0.5c2.5,0,4.2-0.6,5.1-1.9c0.9-1.3,1.4-3.5,1.4-6.8v-13.5h-7
			v-5.7h38v5.7H396.4z"/>
	</g>
	<g id="Layer_19" class="st1">
		<path class="st11" d="M178.3,213.5c-1.6,4.7-3.9,8.4-6.9,11.3c-3,2.8-6.7,4.8-11.1,6c-4.4,1.2-9.5,1.8-15.2,1.8h-29v-6h5.6v-57.4
			H116V163h30.4c5.6,0,10.6,0.6,14.8,1.8c4.3,1.2,7.9,3.1,10.7,5.8c2.9,2.6,5,6.1,6.5,10.2c1.5,4.2,2.2,9.2,2.2,15.1
			C180.7,203,179.9,208.8,178.3,213.5z M157.1,182.9c-0.1-3.5-0.5-6.2-1.3-8.2s-2-3.5-3.7-4.3c-1.7-0.8-4.1-1.2-7.2-1.2h-1.3v57.4h3
			c2.3,0,4.2-0.3,5.6-1c1.4-0.6,2.5-2,3.3-4.2c0.8-2.1,1.3-5.2,1.5-9.2c0.2-4,0.3-9.4,0.3-16.2C157.2,190.7,157.2,186.3,157.1,182.9
			z"/>
		<path class="st11" d="M189.9,232.6v-6h5.6v-57.4h-5.6V163h33.2v6.1h-5.6v57.4h5.6v6H189.9z"/>
		<path class="st11" d="M231.8,232.6v-6h5.6v-57.4h-5.6V163h55.1v19.1h-14.5v-13h-13v25.3h6.4v-6.7h11.4V207h-11.4v-6.9h-6.4v26.5
			h13v-14.5h14.5v20.5H231.8z"/>
	</g>
</g>
<g id="SUBTEXT" class="st0">
	<g id="text" class="st1">
		<path class="st12" d="M27.3,347.6c0,0,1.3,0,2-2.3l4-11.6c0.5-1.6,0.4-2.2,0-3.2c0.7,0,1.4,0,2.1,0c2.1,0,2.5,0.2,3.2,2.3
			l4.1,12.5c0.8,2.4,1.9,2.3,1.9,2.3v0.3h-7.8v-0.3c0,0,1.7-0.1,0.8-2.8l-1.1-3.4h-5c-0.4,1-0.7,2.1-1.1,3.1c-1,3,0.7,3,0.7,3v0.3
			h-4V347.6z M36.2,340.3l-2.1-6.5l-2.1,6.5H36.2z"/>
		<path class="st12" d="M58.3,335.2H58l0.4-4.6h14.1l0.3,4.8h-0.3c0,0-0.2-3.7-2.7-3.7h-2.2v13.8c0,2.3,2,2.3,2,2.3v0.3h-8.5v-0.3
			c0,0,1.9-0.2,1.9-2.3v-13.8l-1.9,0C58.6,331.5,58.5,335.2,58.3,335.2z"/>
		<path class="st12" d="M97,348.7c0,0-1.5,3.8-5.7,3.8c-4.1,0-6.4-5-7.5-7.9c-0.5-1.3-1-3-2.4-3.7c-0.8,0.1-1.6,0-1.6,0v4.5
			c0,2.1,1.7,2.3,1.7,2.3v0.3h-7.8v-0.3c0,0,1.5-0.1,1.5-2.3v-4.4c-1.8,0.1-2.7,0.7-2.7,1.9c0,0.9,0.5,1.8,1.5,1.9
			c-0.6,1-4.7,1.3-4.7-1.7c0-2.9,4-3,5.8-3h4.6c0.7,0,1.2,0,1.6-0.1c1.8-0.4,2.7-2,2.7-4.2c0-3-1.8-5.3-4.4-4.3v8h-4.6v-6
			c0-2.3-1.5-2.3-1.5-2.3v-0.4h8.2c1.6,0,2.9,0.2,3.9,0.5c2,0.7,3,2.2,3,4.4c0,2.2-1.1,3.9-3.2,4.6c-1,0.3-1.9,0.5-2.2,0.5
			C89.6,341.6,88.4,351.5,97,348.7z"/>
		<path class="st12" d="M91.5,330.8v-0.3h7.7v0.3c-0.6,0-1.6,0.6-1.6,1.9v13.1c0,1.5,1.2,1.9,1.6,1.9v0.3h-7.7v-0.3
			c0.4,0,1.6-0.3,1.6-1.9v-13.1C93.1,331.2,92,330.8,91.5,330.8z"/>
		<path class="st12" d="M100.2,347.6c0,0,1.8-0.1,1.8-1.8v-13.1c0-2-1.8-1.8-1.8-1.8v-0.4c3,0,6.2,0.1,9.2,0.1
			c2.3,0,4.5,0.5,4.6,3.3c0.1,2-1.3,3.4-3.2,3.4c2.3,0.3,4,2.3,4.1,5c0.2,4.1-2.6,5.6-6.8,5.6h-7.9V347.6z M109.6,334.2
			c0-1.5-0.9-3-2.2-3c-0.2,0-0.7,0.1-0.9,0.1v5.9C108.6,337.2,109.6,336.4,109.6,334.2z M108.3,346.8c1.6,0,2-1.9,2-4.2
			c0-2.6-0.8-4.7-2.7-4.7h-1v6.2C106.5,345.6,106.9,346.8,108.3,346.8z"/>
		<path class="st12" d="M115.5,330.9v-0.4h8.1v0.3c0,0-1.8,0.3-1.8,2.4v8.8c0,3.1,0.8,4.8,3.5,4.8c2.6,0,3.3-2,3.3-4.9v-8.8
			c0-2.4-1.8-2.4-1.8-2.4v-0.3h4.5v0.3c0,0-1.7,0.1-1.7,2.4v8.6c0,4.3-1.9,6.1-5.2,6.1c-3.9,0-7.1-1.2-7.1-6.1v-8.6
			C117.3,331,115.5,330.9,115.5,330.9z"/>
		<path class="st12" d="M132.3,335.2H132l0.4-4.6h14.1l0.3,4.8h-0.3c0,0-0.2-3.7-2.7-3.7h-2.2v13.8c0,2.3,2,2.3,2,2.3v0.3h-8.5v-0.3
			c0,0,1.9-0.2,1.9-2.3v-13.8l-1.9,0C132.5,331.5,132.4,335.2,132.3,335.2z"/>
		<path class="st12" d="M147.8,348v-0.3c0,0,1.5,0.1,1.5-1.8v-13.1c0-1.8-1.5-1.8-1.5-1.8v-0.4h13.3l0.1,4h-0.3
			c-0.1-2-0.6-3-1.7-3.2c-0.3-0.1-0.7-0.1-1.2-0.1h-4.1v7.3h3.7c1.3,0,2.1-0.4,2.3-2.3h0.3c-0.1,1.9-0.1,3.7,0,5.5h-0.3
			c-0.2-1.9-0.9-2.3-2.3-2.3h-3.7v5.5c0,0.7,0.1,1.2,0.1,1.5c0.1,0.3,0.3,0.5,0.5,0.6c0.3,0.1,0.7,0.1,1.3,0.1h2.9
			c1.7,0,2.7-1.3,2.9-3.5h0.4l-0.3,4.3H147.8z"/>
		<path class="st12" d="M175.3,335.2H175l0.4-4.6h14.1l0.3,4.8h-0.3c0,0-0.2-3.7-2.7-3.7h-2.2v13.8c0,2.3,2,2.3,2,2.3v0.3h-8.5v-0.3
			c0,0,1.9-0.2,1.9-2.3v-13.8l-1.9,0C175.6,331.5,175.5,335.2,175.3,335.2z"/>
		<path class="st12" d="M190.5,339.3c0-6.3,3.7-8.9,8.1-8.9c4.4,0,8,3.2,8,8.7c0,5.5-3.2,8.6-7.6,8.7
			C194.6,348,190.5,345.6,190.5,339.3z M198.3,331.3c-2.8,0-3.1,5.3-3,7.9c0,2.6,0.6,7.8,3.5,7.7c2.9-0.1,3-5.2,2.9-7.8
			C201.6,336.5,201.2,331.3,198.3,331.3z"/>
		<path class="st12" d="M225.2,346.4c0,5.3-3.1,7.6-5.9,7.6c-2.9,0-4.3-1.3-4.3-2.9c0-1.6,1.4-3.3,4-2.6c-1.5,0.9-1.5,4.7,0.2,4.7
			c1.6,0,1.4-4.1,1.4-6.8v-13.7c0-1.2-0.9-1.9-1.6-1.9v-0.3h7.7v0.3c-0.5,0-1.6,0.3-1.6,1.9V346.4z"/>
		<path class="st12" d="M225.2,347.6c0,0,1.3,0,2-2.3l4-11.6c0.5-1.6,0.4-2.2,0-3.2c0.7,0,1.4,0,2.1,0c2.1,0,2.5,0.2,3.2,2.3
			l4.1,12.5c0.8,2.4,1.9,2.3,1.9,2.3v0.3h-7.8v-0.3c0,0,1.7-0.1,0.8-2.8l-1.1-3.4h-5c-0.4,1-0.7,2.1-1.1,3.1c-1,3,0.7,3,0.7,3v0.3
			h-4V347.6z M234.1,340.3l-2.1-6.5l-2.1,6.5H234.1z"/>
		<path class="st12" d="M244.3,347.5c0,0,1.6,0,1.6-1.8l0-13.1c0-1.7-1.3-1.9-1.3-1.9v-0.3h5.6l0.5,1.6l2.7,8.4l3-8.3l0.5-1.6h5.4
			v0.3c0,0-1.3,0.4-1.3,2.3l0.1,12.1c0,2.2,1.7,2.3,1.7,2.3v0.3h-7.5v-0.3c0,0,1.3-0.1,1.3-2.3l0-11.2l-5,13.9l-0.3,0l-4.7-13.9
			l0,11.7c0,2,1.5,1.7,1.5,1.8v0.3h-4V347.5z"/>
		<path class="st12" d="M263.8,348v-0.3c0,0,1.5,0.1,1.5-1.8v-13.1c0-1.8-1.5-1.8-1.5-1.8v-0.4h13.3l0.1,4h-0.3
			c-0.1-2-0.6-3-1.7-3.2c-0.3-0.1-0.7-0.1-1.2-0.1h-4.1v7.3h3.7c1.3,0,2.1-0.4,2.3-2.3h0.3c-0.1,1.9-0.1,3.7,0,5.5h-0.3
			c-0.2-1.9-0.9-2.3-2.2-2.3h-3.7v5.5c0,0.7,0.1,1.2,0.1,1.5c0.1,0.3,0.3,0.5,0.5,0.6c0.3,0.1,0.7,0.1,1.3,0.1h2.9
			c1.7,0,2.7-1.3,2.9-3.5h0.4l-0.3,4.3H263.8z"/>
		<path class="st12" d="M279.9,348l-0.5-5.1h0.3c0.8,3.7,2.5,4.5,4.1,4.4c1.3,0,2.3-1,2.3-2.5c0-1.6-2-2.7-2.9-3.4
			c-0.9-0.7-1.6-1.3-2-1.7c-1.3-1.2-1.8-2.6-1.9-4.1c-0.1-3.3,2.3-5.1,5.4-5c1.3,0,2,0.3,3.1,1c0.7,0.4,0.9-1,0.9-1h0.2l0.3,4.8
			h-0.2c-0.7-3-2.4-4.1-3.7-4.1c-1.1,0.1-2,0.8-2,2c0,1.6,2,2.8,3,3.5c0.7,0.5,1.4,1,1.9,1.5c1.5,1.4,2.3,3,2.3,4.6
			c0.1,2.8-2,5.3-5.6,5.3C283.1,348,281.6,348,279.9,348z"/>
		<path class="st12" d="M304,335.2h-0.3l0.4-4.6h14.1l0.3,4.8h-0.3c0,0-0.2-3.7-2.7-3.7h-2.2v13.8c0,2.3,2,2.3,2,2.3v0.3h-8.5v-0.3
			c0,0,1.9-0.2,1.9-2.3v-13.8l-1.9,0C304.2,331.5,304.1,335.2,304,335.2z"/>
		<path class="st12" d="M316.2,347.6c0,0,1.3,0,2-2.3l4-11.6c0.5-1.6,0.4-2.2,0-3.2c0.7,0,1.4,0,2.1,0c2.1,0,2.5,0.2,3.2,2.3
			l4.1,12.5c0.8,2.4,1.9,2.3,1.9,2.3v0.3h-7.8v-0.3c0,0,1.7-0.1,0.8-2.8l-1.1-3.4h-5c-0.4,1-0.7,2.1-1.1,3.1c-1,3,0.7,3,0.7,3v0.3
			h-4V347.6z M325.1,340.3l-2.1-6.5l-2.1,6.5H325.1z"/>
		<path class="st12" d="M330.4,330.8v-0.3h8.6v0.3c-1.1,0.1-1.4,1-0.2,3.5l2.4,4.8l2.7-5.1c1.2-2.1,1.4-3.1,0.1-3.2v-0.3h3.7v0.3
			c-0.9,0-1.9,1.7-2.6,3l-2.8,5.2c-0.6,1.3-1.1,2.3-1.1,4l0,2c0,2.6,1.4,2.6,1.4,2.6v0.3h-7.1v-0.3c0,0,1.4,0,1.5-2.2
			c0,0,0.1-1.1,0-2.6c0-1.6-0.3-2.4-1-3.7l-2.8-5.1C332.6,332.7,331.6,330.8,330.4,330.8z"/>
		<path class="st12" d="M348.8,348v-0.3c0.9,0.1,1.8-0.9,1.8-2.3v-12.1c0-1.7-0.7-2.5-1.6-2.4v-0.3h7.8v0.3
			c-0.9,0.1-1.6,0.3-1.6,2.4v12.2c0,1.4,0.4,1.9,1.8,1.9h1.9c0.5,0,0.9-0.1,1.3-0.3c0.9-0.5,1.5-2.2,2-3.3h0.3l-1.3,4.3H348.8z"/>
		<path class="st12" d="M363.5,339.3c0-6.3,3.7-8.9,8.1-8.9c4.4,0,8,3.2,8,8.7c0,5.5-3.2,8.6-7.6,8.7
			C367.6,348,363.5,345.6,363.5,339.3z M371.3,331.3c-2.8,0-3.1,5.3-3,7.9c0,2.6,0.6,7.8,3.5,7.7c2.9-0.1,3-5.2,2.9-7.8
			C374.6,336.5,374.2,331.3,371.3,331.3z"/>
		<path class="st12" d="M404,348.7c0,0-1.5,3.8-5.7,3.8c-4.1,0-6.4-5-7.5-7.9c-0.5-1.3-1-3-2.4-3.7c-0.8,0.1-1.6,0-1.6,0v4.5
			c0,2.1,1.7,2.3,1.7,2.3v0.3h-7.8v-0.3c0,0,1.5-0.1,1.5-2.3v-4.4c-1.8,0.1-2.7,0.7-2.7,1.9c0,0.9,0.5,1.8,1.5,1.9
			c-0.6,1-4.7,1.3-4.7-1.7c0-2.9,4-3,5.8-3h4.6c0.7,0,1.2,0,1.6-0.1c1.8-0.4,2.7-2,2.7-4.2c0-3-1.8-5.3-4.4-4.3v8h-4.6v-6
			c0-2.3-1.5-2.3-1.5-2.3v-0.4h8.2c1.6,0,2.9,0.2,3.9,0.5c2,0.7,3,2.2,3,4.4c0,2.2-1.1,3.9-3.2,4.6c-1,0.3-1.9,0.5-2.2,0.5
			C396.6,341.6,395.4,351.5,404,348.7z"/>
	</g>
	<g id="lines" class="st1">
		<line class="st13" x1="2" y1="324" x2="421" y2="324"/>
		<line class="st13" x1="2" y1="356" x2="424" y2="356"/>
	</g>
</g>
<g id="scrolls">
</g>
<g id="bottom_scroll" class="st0">
	<path class="st14" d="M14.4,392.8c2.1,7.6,32.4,7.5,39.4,5.4c29.9-8.8,60.1-14.7,90-23.3c9.6-2.8,19.2-6.2,29.1-7.1
		c6-0.5,19.2,0.2,24.9,2.2c14.5,8.7,13.9,25.9,4.1,39.1c-4.3,5.8-9.7,8.4-16.8,7.3c-6.9-1.1-9.6-6-10.4-10.5
		c-7.5-3.4-13.5-6.1-19.4-9c-2.7-1.3-4.9-3.6-7.6-4.9c-4.9-2.5-9.8-1.8-14.2,1.5c-3.7,2.7-5.2,6.5-4.7,11.1c0.6,5.1,4.2,7.8,9.6,7.1
		c5.8-0.8,10.4-5.5,8.8-10.1c-0.7-2.1-3.6-3.5-6.5-6.1c0.8-1.3,2.8-1.6,5.2-0.1c4.6,2.7,5.2,9.7,1.4,14.3c-4.2,4.9-14.9,10.3-21.1,7
		c-4-2.1-6.2-7.6-6.2-15.2c0-6.8,9.4-12.3,16.4-13.2c5.8-0.7,11.1,0.2,16.1,3.7c4.6,3.2,9.8,5.8,14.9,7.9c3.6,1.5,6.8,0.6,8.9-3.8
		c1.1-2.3,4.2-3.7,6.6-5.2c0.2-0.1,2.4,2.1,2.7,3.5c0.9,3.9-1.5,6-4.7,7.4c-1.3,0.6-2.8,1.1-4.1,1.6c0.7,8.6,9.7,10.8,14.6,3.6
		c5.2-7.6,4.1-10.9,3.1-18.5c-1.6-9.5-13-13-23.8-13c-11.2-0.1-25.5,2.5-36.3,5.4c-31.6,8.7-48.3,14.1-79.8,23.3
		c-7.9,2.3-16.2,4.2-24.4,4.5c-11,0.5-28.3-6.7-28.4-18c-0.1-6.4,0.8-10.1,6.2-13c3.1-2.2,6.2-5.4,13.5-4.3c6.3,0.8,8.8,5.4,6.2,9.8
		c-4.6,7.8-3.1-1.1-13.5,6.5"/>
	<path class="st14" d="M408.2,392.9c-2.1,7.6-33.3,7.5-40.5,5.4c-30.8-8.8-61.8-14.7-92.6-23.3c-9.8-2.8-19.7-6.2-29.9-7.1
		c-6.1-0.5-19.7,0.2-25.6,2.2c-14.9,8.7-14.3,25.9-4.3,39.1c4.4,5.8,10,8.4,17.3,7.3c7.1-1.1,9.9-6,10.7-10.5
		c7.7-3.4,13.9-6.1,19.9-9c2.7-1.3,5-3.6,7.8-4.9c5.1-2.5,10-1.8,14.6,1.5c3.8,2.7,5.4,6.5,4.9,11.1c-0.6,5.1-4.4,7.8-9.9,7.1
		c-6-0.8-10.7-5.5-9.1-10.1c0.7-2.1,3.7-3.5,6.7-6.1c-0.9-1.3-2.9-1.6-5.4-0.1c-4.7,2.7-5.4,9.7-1.4,14.3c4.3,4.9,15.4,10.3,21.8,7
		c4.1-2.1,6.4-7.6,6.4-15.2c0-6.8-9.6-12.3-16.9-13.2c-5.9-0.7-11.4,0.2-16.6,3.7c-4.7,3.2-10,5.8-15.4,7.9c-3.7,1.5-7,0.6-9.1-3.8
		c-1.1-2.3-4.3-3.7-6.8-5.2c-0.2-0.1-2.5,2.1-2.8,3.5c-0.9,3.9,1.6,6,4.8,7.4c1.4,0.6,2.8,1.1,4.2,1.6c-0.7,8.6-10,10.8-15,3.6
		c-5.3-7.6-4.3-10.9-3.2-18.5c1.6-9.5,13.4-13,24.5-13c11.5-0.1,26.2,2.5,37.3,5.4c32.6,8.7,49.7,14.1,82.1,23.3
		c8.1,2.3,16.7,4.2,25.1,4.5c11.3,0.5,29.1-6.7,29.3-18c0.1-6.4-0.8-10.1-6.4-13c-3.2-2.2-6.4-5.4-13.9-4.3
		c-6.5,0.8-9.1,5.4-6.4,9.8c4.8,7.8,3.2-1.1,13.9,6.5"/>
	<g id="dots_1_" class="st1">
		<path class="st6" d="M306.6,397.8l2.8,6.1c1,2.3,3.4,5.2,4.9,6.1l1,0.6c0.4,0.2,0.7,0.3,0.9,0.2l1.6-1.2c0.2-0.1,0.2-0.4,0.2-0.7
			l-0.1-0.8c-0.2-1.6-2.4-5-4.4-6.8l-5.3-4.8C306.3,394.9,305.6,395.5,306.6,397.8z"/>
		<path class="st6" d="M303.7,402.5l0.1,4.8c0.1,1.8,0.8,4.3,1.5,5.3l0.5,0.7c0.2,0.3,0.4,0.4,0.6,0.4l1.4-0.3
			c0.1,0,0.2-0.2,0.3-0.4l0.1-0.5c0.3-1.1-0.2-4-1-5.7l-2.2-4.6C304.3,400.5,303.7,400.7,303.7,402.5z"/>
		<path class="st6" d="M312.8,396.5l3.5,3.3c1.3,1.2,3.6,2.5,4.8,2.7l0.8,0.1c0.3,0,0.6,0,0.7-0.1l0.8-1.2c0.1-0.1,0-0.3-0.1-0.5
			l-0.3-0.5c-0.6-1-2.9-2.7-4.7-3.3l-4.8-1.7C311.8,394.7,311.5,395.3,312.8,396.5z"/>
		<path class="st6" d="M107.5,396.9l-5.5,3.9c-2.1,1.5-4.5,4.3-5.1,5.9l-0.4,1.1c-0.2,0.5-0.2,0.8,0,0.9l1.5,1.4
			c0.1,0.1,0.4,0.1,0.7,0l0.7-0.2c1.6-0.5,4.5-3.3,5.9-5.6l3.7-6.1C110.3,396.1,109.6,395.4,107.5,396.9z"/>
		<path class="st6" d="M102.4,394.9l-4.7,1c-1.8,0.4-4.1,1.6-4.9,2.5l-0.6,0.6c-0.2,0.3-0.3,0.5-0.3,0.6l0.6,1.3
			c0.1,0.1,0.2,0.2,0.5,0.2l0.5,0c1.2,0.1,3.8-0.9,5.4-2.1l4.1-3C104.5,395.1,104.2,394.5,102.4,394.9z"/>
		<path class="st6" d="M110,402.7l-2.6,4c-1,1.5-1.8,4-1.7,5.3l0,0.8c0,0.3,0.1,0.6,0.3,0.6l1.3,0.5c0.1,0,0.3,0,0.5-0.2l0.4-0.4
			c0.9-0.8,2.1-3.4,2.3-5.3l0.8-5C111.6,401.4,110.9,401.2,110,402.7z"/>
		<path class="st6" d="M207.6,414.4l-2,9.6c-0.7,3.6-0.5,9.1,0.5,11.4l0.7,1.6c0.3,0.7,0.6,1,0.9,1h3c0.3,0,0.5-0.2,0.8-0.7l0.5-1
			c1.2-2.1,1.5-8,0.6-11.8l-2.2-10.2C209.7,410.7,208.3,410.8,207.6,414.4z"/>
		<path class="st6" d="M200.1,417.4l-3.9,5.8c-1.5,2.2-2.8,5.8-2.8,7.6l0,1.2c0,0.5,0.1,0.8,0.3,0.9l1.9,0.8c0.2,0.1,0.4,0,0.7-0.2
			l0.6-0.5c1.3-1.1,3.1-4.9,3.6-7.6l1.3-7.3C202.5,415.5,201.6,415.2,200.1,417.4z"/>
		<path class="st6" d="M216,418.2l1.3,6.9c0.5,2.6,2.1,6.1,3.4,7.3l0.9,0.8c0.4,0.4,0.7,0.5,0.9,0.4l1.9-0.8
			c0.2-0.1,0.3-0.3,0.3-0.7l0.1-0.8c0.2-1.7-1.2-5.7-2.8-7.9l-4.2-6.1C216.4,415.1,215.5,415.6,216,418.2z"/>
	</g>
</g>
<g id="Layer_26" class="st0">
	<rect x="21.5" y="87.5" class="st15" width="384" height="262"/>
</g>
<g id="Layer_25">
</g>
</svg>
