<?xml version="1.0" encoding="utf-8"?>
<!-- Generator: Adobe Illustrator 25.2.3, SVG Export Plug-In . SVG Version: 6.00 Build 0)  -->
<svg version="1.1" id="Layer_1" xmlns="http://www.w3.org/2000/svg" xmlns:xlink="http://www.w3.org/1999/xlink" x="0px" y="0px"
	 viewBox="0 0 675 454" style="enable-background:new 0 0 675 454;" xml:space="preserve">
<style type="text/css">
	.st0{display:none;}
	.st1{display:inline;}
	.st2{display:inline;fill:#FFFFFF;}
	.st3{opacity:0.68;}
	.st4{fill:#8F7458;}
	.st5{display:inline;fill:#5E3616;}
	.st6{display:none;fill:none;stroke:#8F7458;stroke-width:10;stroke-miterlimit:10;}
	.st7{fill:#9E6900;}
	.st8{fill:#E6BF77;}
	.st9{fill:#FFFAFA;}
	.st10{fill:#FFFFFF;}
	.st11{fill:#FFC543;stroke:#E09200;stroke-miterlimit:10;}
	.st12{fill:#FFC043;}
	.st13{fill:none;stroke:#5E3616;stroke-width:2;stroke-miterlimit:10;}
	.st14{display:inline;fill:none;stroke:#FF0000;stroke-miterlimit:10;}
	.st15{display:inline;fill:none;stroke:#5E3616;stroke-miterlimit:10;}
	.st16{fill:#FFC543;stroke:#E09200;stroke-width:3;stroke-miterlimit:10;}
	.st17{fill:none;stroke:#5E3616;stroke-width:3;stroke-miterlimit:10;}
</style>
<g id="Layer_1_2_">
	<g id="Layer_1_1_">
		<g id="Layer_24" class="st0">
			<g class="st1">
				<rect x="-124.5" y="-26.5" width="669" height="587"/>
				<path d="M544-26v586h-668V-26H544 M545-27h-670v588h670V-27L545-27z"/>
			</g>
		</g>
		<g id="guitar">
			<g class="st0">
				<path class="st1" d="M275.9,325.8c0.8-5.5,1.3-10.5,2.2-15.7c0.4-2.5,3.8-7.3,5.7-9c13-11.8,11.6-31.2-3.2-40.9
					c-0.5-0.3-1-0.8-0.9-1.7c1.6,1.2,3.4,2.3,4.8,3.8c1.6,1.7,3.3,2,5.6,1.4c4.9-1.4,10-2.7,15-4.1c3-1,5.5-0.3,7.5,1.7
					c2.3,2.3,2.3,4.9,1,7.6c-2.6,5.3-4.5,10.7-3,16.5c1.2,4.5,3.3,8.8,4.7,13.3c1.7,5.7,3.6,11.6,4.6,17.4
					c1.7,10.1-6.6,16.6-16.9,13.8c-5.3-1.4-10.4-3-15.8-4C284.1,325.3,280.6,325.8,275.9,325.8z"/>
				<path class="st1" d="M260.7,65.2c-0.1,1.1-0.1,2.2-0.2,4.1c-1.1-1-2.3-1.4-2.4-1.9c-0.2-4.6-0.2-9.3-0.1-13.9
					c0-0.5,1.2-1,1.3-1.4c0.1-1.2,0.2-2.7-0.3-3.8c-0.2-0.5-2-0.8-2.9-0.5c-1.1,0.3-1.7,1.3-2.7,2.5c3.9-0.2,4.4,1.7,4.3,4.4
					c-0.2,4.5,0,8.9,0,13.4c-0.3,0-0.6,0.1-1,0.1c-0.8-3.1-1.1-6.3-2.2-9.3c-1.1-3.1-3.1-5.8-4.8-9.1c-1.3-0.1-3.3-0.1-5.3-0.4
					c-1.1-0.2-2.4-0.9-2.8-1.5c-0.3-0.6,0.6-2.4,1.2-2.5c1.2-0.2,2.8,0.1,4,0.8c1.1,0.4,1.6,1.5,2.5,2.3c0.3-0.2,0.6-0.3,1-0.5
					c0-4.4,0-8.8,0-13.6c-3.1-0.3-6.2-0.6-10.5-1.1c1.5-1.7,2.3-3.3,3.3-3.6c1-0.3,2.4,0.9,3.6,1.3c1.1,0.4,1.9,1.1,4,2
					c-0.6-5.4-0.6-9.8-1.7-13.9c-0.3-1.3-3.4-1.9-5.5-2.7c-1-0.3-2.2-0.1-3.3-0.1c-1.5-1.8-2-3.1-1.6-3.6c0.8-1,3.9,0,9.7,2.7
					c-0.1-1.2,0-2.4-0.2-3.4c-2.7-5.2-1.3-7.1,5.8-9c1.9-0.5,3.6-1.9,5.2-3.3c3-2.5,7-3,10.2-1c3.4,2,6.8,4.6,10.3,6.1
					c2.6,1.1,2.9,2.5,2.5,4.6c-0.3,1.8-0.5,3.8-0.9,6c6-3.6,7-3.4,7.7,1.1c-2.8,0.3-5.5,0.8-8.4,1.1c-0.4,4.7-0.8,9.1-1.1,14.4
					c1.6-0.6,2.6-1.1,3.4-1.4c1.3-0.5,2.8-1.4,4-1.2c1,0.2,1.5,1.8,2.5,3.2c-3.7,0.4-6.7,0.9-9.8,1.2c0,4.6,0,9.3,0,14.7
					c1.5-1.1,2.3-1.7,3.2-2c1.1-0.4,2.5-0.8,3.7-0.6c0.6,0.1,1.3,1.1,1.6,1.9c0.2,0.5-0.4,1.7-0.8,1.7c-2.5,0.1-4.8,0.1-7.4,0.1
					c-1.4,3.3-3.6,7.2-4.7,11.2c-2.3,8-2,8-11,7.7C261.9,68.7,260.1,68.4,260.7,65.2z M257.9,36.2c0,0,0.4-0.8,0.4-1.4
					c-0.1-1.1-0.5-2.3-0.8-3.3c-1.4,0.5-3,1.1-4.4,1.5c0.5,0.6,0.9,1.4,1.4,1.8C255.6,35.5,256.9,35.9,257.9,36.2z M273.4,49.2
					c0.6,0.9,1.1,1.4,1.7,2c0.1,0.1,1.2-0.6,1.2-1c0-0.9-0.1-2.4-0.5-2.5c-1.2-0.3-2.7-0.3-3.9,0c-0.4,0.1-0.4,1.6-0.8,2.6
					c0.3,0.1,0.6,0.2,1,0.3C272.7,50.2,273.1,49.7,273.4,49.2z M274.3,33.5c0.3,0.4,1,1.1,1.4,1.6c0.4-0.6,1.2-1.3,1.1-1.9
					c-0.2-0.8-1-1.6-1.6-1.9c-0.6-0.3-1.7,0.1-2.5,0.4c-0.6,0.3-1.1,1-1.4,1.5c-0.1,0.3,0.6,1.2,0.9,1.2
					C272.9,34.3,273.5,33.8,274.3,33.5z M257.2,14.4c-1.8,0.9-3.3,1.5-4.7,2.2c1.4,1,2.8,1.8,4.2,2.8c0.3-0.2,0.6-0.5,1-0.8
					C257.6,17.4,257.4,16.2,257.2,14.4z M277.1,14.9c-0.5-0.3-1.1-0.5-1.6-0.9c-1.1,1.1-2.3,2.2-3.3,3.3c1.3,0.4,2.7,0.9,4,1.2
					C276.4,17.4,276.8,16.2,277.1,14.9z"/>
				<path class="st1" d="M253.6,257.6c0.8,1.1,1.4,2,1.9,2.8c0.1-0.4,0.2-1.5,0.3-2.7c1.3,0,2.5,0,3.8,0c0.1,1.2,0.3,2.3,0.4,3.3
					c0.1-1.1,0.2-2,0.3-3.3c2.5,0,4.9,0,7.6,0c0.1,1.1,0.3,2.3,0.4,3.1c0.1-0.8,0.1-1.8,0.3-3.2c1.8,0,3.4-0.1,5.3,0
					c1.4,0.2,4,0.5,4.2,1.1c0.4,1.6-0.3,3.4-0.8,5.8c6.5,4.1,9.9,10.5,9.6,18.8c-0.3,7.9-7.2,16.1-15.2,17.8
					c-1.6,0.3-3.4-0.1-5.3-0.3c-1.5-0.2-3.1-0.4-4.5-0.9c-0.9-0.2-1.5-0.9-2.3-1.2c0.9-0.5,1.6-1.3,2.5-1.3
					c4.2-0.1,8.5-0.1,12.1-0.1c-0.5-4.8-1-9-1.4-13.9c-0.2,1.4-0.3,2.3-0.5,4.1c-1.6-4.3-3-7.6-4-10.2c0,0-0.2,1-0.4,1.7
					c-0.3,0.1-0.6,0.3-1,0.4c-0.9-1.3-1.6-2.6-2.7-4.2c-2,0.8-4,0.5-4.1-2.2c-1,1-1.8,1.7-2.8,2.7c-0.8-1.5-1.5-3-2.3-4.6
					c-0.5,4.3-3.8,4.4-7.3,4c-1,1.2-1.6,2.4-2.5,3.4c-0.3-0.1-0.6-0.1-1-0.2c0-1.2-0.5-2.8,0.1-3.7c1.7-3,3.3-6.1,5.8-8.4
					c2.4-2,3.4-3.9,3.3-6.8c-0.1-0.8,0.2-1.3,0.4-2C253.7,257.5,253.6,257.6,253.6,257.6z"/>
				<path class="st1" d="M253.6,340.6c0,1.2,0,2.4,0,3.6c-1.3,0.3-2.6,0.5-3.8,0.9c0,0.2,0,0.4,0,0.6c1.1,0.1,2.3,0.2,4,0.3
					c-0.2,1.5-0.5,3.1-0.6,4.6c0,0.8,0.2,1.4,0.5,2c0.1,0.2,1.5-0.1,1.5-0.2c0.1-0.8-0.1-1.4-0.2-2.2c-0.3-1.4-0.8-2.8-1.1-4.4
					c1.9-0.1,3.3-0.2,5.4-0.3c-0.4,1.7-0.8,3.1-1,4.5c-0.1,0.9-0.1,1.6,0.1,2.4c0,0.1,1.5,0.1,1.5,0c0.2-0.8,0.2-1.4,0.1-2.2
					c-0.2-1.5-0.6-3.1-1-4.9c7.9-0.6,15.3-1.2,22.6-1.8c0-0.3,0-0.8,0-1.1c-4.1,0.2-8.2,0.5-12.4,0.8c-0.2-0.4-0.4-0.9-0.6-1.1
					c1-0.6,1.8-1.7,2.8-1.7c8.9-0.2,18-0.3,26.9-0.3c3.7,0,4.5,1.1,4.4,5.4c-0.1,2.7-0.4,4.7-4.3,5.4c-6.6,1.1-12.9,3.1-19.3,5.1
					c-9.4,2.9-18.6,2.8-27.9-0.1c-6-1.8-11.8-4.3-18.5-4.1c-3.4,0.2-3.3-2.9-3.6-5.2c-0.4-5.1,0.2-5.6,5.3-5.6
					C240.8,340.6,246.9,340.6,253.6,340.6z"/>
				<path class="st1" d="M259.9,186.3c0,0.8,0.2,1.4,0,2.2c-0.3,0.8-1,1.3-1.4,1.9c-0.6-0.8-1.7-1.3-1.8-2
					c-0.1-4.7-0.1-9.5,0.1-14.2c0-0.8,1.6-1.9,2.6-1.9c4.4-0.2,8.8,0,13.2-0.1c2.5-0.1,3.8,0.5,3.9,3.3c0.1,5.2,0.3,5.2-5.4,6
					c5.8,0.1,6,0.4,5.4,8.8c-2.7-0.2-5.4-0.4-8.1-0.6c-1.3-0.1-2.8-0.5-4.1-0.3C260.3,190.3,260.3,190.4,259.9,186.3z"/>
				<path class="st1" d="M267.4,156.1c-0.5-0.4-1.2-0.8-1.6-1.2c-0.5-0.8-1.1-1.7-1.1-2.6c0-0.4,1.3-1,2.2-1.1
					c0.6-0.2,1.4-0.1,2.2-0.1c6.3-0.3,9.3,3.3,7,9.1c-0.2,0.6-1.1,1-1.5,1.3c1.4,1.3,2.7,8.1,1.5,9.5c-0.4,0.5-1.2,0.8-1.9,0.9
					c-8.2,1.4-9.9,0.1-9.5-7.7c0-1,0-1.8,0.2-2.8c0.4-1.6,1-3.3,1.4-4.8C266.6,156.3,267,156.2,267.4,156.1z"/>
				<path class="st1" d="M270.8,92.6c0-1.9,0-3.9,0-6c2.6-0.4,4.1,0.1,3.9,2.8c-0.1,2.4-0.1,4.7,0,7.1c0.2,2.7-0.6,4.4-4.1,4.3
					c4,0,4.8,2,4.5,5.2c-0.2,1.4-0.1,2.9,0.1,4.2c0.4,3.1-0.8,4.1-4.1,4.2c-3.1,0.1-3.6-1.1-3.4-3.4c0.1-7.1,0-14.2,0.1-21.2
					c0-1.1,1-2.2,1.3-3.2c0.5,1.1,1.1,2,1.4,3.2c0.2,1,0,1.8,0,2.9C270.6,92.5,270.7,92.6,270.8,92.6z"/>
				<path class="st1" d="M267.8,207.9c0,7,0,13.6,0,20.6c-2.3,0-4.6,0-7.5,0c0-4-0.2-7.9,0.2-11.8c0.1-0.9,2.3-1.5,3.1-1.9
					c-0.4,0-1.6-0.1-3-0.2c0-2.2,0-4.2,0-6.5C262.9,207.9,265.5,207.9,267.8,207.9z"/>
				<path class="st1" d="M268.4,198.9c0-1.8,0-3.3,0-4.6c-0.4,4.4-0.4,4.4-3.7,4.4c-0.1-1.4-0.2-3-0.3-4.1c0,0.8,0.1,1.8-0.2,2.8
					c-0.3,0.8-1.3,1.4-2,1.4c-0.6,0-1.6-1-1.8-1.6c-0.3-1.3-0.4-2.9,0-4.2c0.3-1,1.5-2,2.5-2.2c3.3-0.3,6.9,0,10.2-0.2
					c3.9-0.2,3.4,2.3,3.7,4.7c0.2,2.7-1,3.7-3.6,3.4C271.7,198.9,270.3,198.9,268.4,198.9z"/>
				<path class="st1" d="M271.5,139.9c2.9-0.6,4.4,0.1,4.3,2.9c-0.2,8.6,1.6,7.7-7.9,7.7c-1,0-1.9,0-3.4,0c0-3.2-0.1-6.1,0.1-9.3
					c0-0.6,1-1.1,1.3-1.6c0.4,0.6,1.2,1.1,1.3,1.8c0.2,1.4,0.1,2.8,0.3,4.2c0-1.4-0.2-2.9,0.1-4.3c0.1-0.6,1.1-1.1,1.7-1.7
					c0.5,0.6,1.5,1.2,1.6,1.8c0.2,2,0.1,4.2,0.5,6.3C271.5,145.2,271.5,142.5,271.5,139.9z"/>
				<path class="st1" d="M268.3,199.3c2.4,0,4.1-0.1,5.9,0c2,0.1,2.8,1.1,2.7,3.1c-0.1,2.8-0.2,5.5,0.1,8.2c0.4,3.2-1,4.3-4.2,4
					c-1.3-0.1-2.7,0-4.3,0c0-2.3,0-4.3,0-7c1.3,0.3,2.5,0.6,3.9,1.1c1.3-0.9-2-4.2,1.7-4.8c-0.3-0.5-0.5-1.1-0.9-1.6
					c-0.6,0.3-1.4,0.5-1.6,1c-0.3,0.6,0.2,1.4,0,2c-0.3,0.8-1.1,1.3-1.5,1.9c-0.6-0.8-1.7-1.3-1.8-2
					C268.1,203.3,268.3,201.6,268.3,199.3z"/>
				<path class="st1" d="M260.4,86.4c0.3,13.4-0.1,26.9,0.1,40.5c-0.4,0.2-0.9,0.4-1.2,0.6c-0.6-1-1.8-1.8-1.8-2.8
					c0-7.4,0.2-14.8,0.4-22.3c0.1-4.1,0.1-8.2,0.2-12.4c0-1.2,0.4-2.5,0.8-3.7C259.4,86.4,259.9,86.4,260.4,86.4z"/>
				<path class="st1" d="M260.9,169.1c0-5.2-0.1-10.3,0.1-15.5c0-0.9,1.1-1.6,1.7-2.6c0.5,0.9,1.5,1.5,1.5,2.4
					c0.2,5.2,0.1,10.2,0.2,15.5c0,2.2-0.8,3.3-3.3,2.9c-2-0.3-4.8,1-4.4-2.8c0.2-1.7,0-3.6,0.3-5.3c0.1-0.6,1.2-1.5,1.5-1.4
					c0.8,0.2,1.7,1.1,1.8,1.6c0.2,1.7,0.1,3.4,0.1,5.3C260.5,169.2,260.7,169.2,260.9,169.1z"/>
				<path class="st1" d="M275.3,126.7c-2.2,0.1-4.1,0.4-5.9,0.2c-0.6-0.1-1.5-1.3-1.6-2.2c-0.2-1.8-0.1-3.8-0.1-5.6
					c0-4.6,0.5-5.2,5.4-4.3c1,0.2,2.3,1.4,2.4,2.4C275.4,120.2,275.3,123.3,275.3,126.7z"/>
				<path class="st1" d="M271.4,138.8c0-2.7,0-5.4,0-8c-0.2,0-0.3,0-0.5,0c0,2.7,0,5.4,0,8.2c-2,0-3.9,0-6.5,0
					c0.3-1.5,0.6-2.9,1-4.3c0.8,0.3,1.5,0.8,2.2,1c0-1,0.2-2.5,0-3.9c-0.5-3.4,1.1-4.5,4.5-4.3c2.6,0.2,3.6,1.1,3.3,3.3
					c-0.1,1.6-0.1,3.3,0.1,4.9C276,138.9,274.5,139.5,271.4,138.8z"/>
				<path class="st1" d="M270.8,82.6c0-3.6,0-7.3,0-10.9c2.7-0.6,3.8,0.2,3.7,2.6s-0.2,4.7,0.1,7.1c0.3,3.3-0.5,5.1-4.4,4.4
					c-0.6-0.1-1.2,0-2.6,0c0-4.4,0-8.9,0.1-13.3c0-0.4,1-0.8,1.4-1.1c0.4,0.6,1.1,1.3,1.1,1.9c0.1,3.1,0.1,6.1,0.1,9.3
					C270.6,82.6,270.7,82.6,270.8,82.6z"/>
				<path class="st1" d="M258.1,78c0-1.3,0-2.6,0-3.9c0.1-1.8-0.5-3.9,3.1-2.2c2.8,1.3,3.1,0.8,3.1,4c0,2.8,0.1,5.5-0.1,8.1
					c-0.1,0.6-1.4,1.8-1.8,1.6c-1-0.2-1.7-1.5-2.6,0.1c-0.5-0.6-1.4-1.2-1.5-1.8C258,82.1,258.1,80,258.1,78L258.1,78z"/>
				<path class="st1" d="M261.1,100.8c0-3.9-0.1-7.7,0.1-11.7c0-1,1.1-1.8,1.6-2.8c0.5,1,1.4,1.7,1.4,2.7c0.1,7.5,0.1,15.1,0,22.6
					c0,1-1.1,1.7-1.5,2.7c-0.6-0.9-1.6-1.6-1.6-2.6C260.9,108.1,261,104.4,261.1,100.8C261,100.8,261,100.8,261.1,100.8z"/>
				<path class="st1" d="M268.1,251.9c-2.9,0-5.3,0-7.9,0c0-3.1-0.1-5.9,0.1-8.8c0-0.6,1.2-1.4,2-1.7c1.1-0.3,2.3-0.3,3.2,0
					c1.1,0.4,2.4,1.3,2.5,2C268.3,246.1,268.1,248.9,268.1,251.9z"/>
				<path class="st1" d="M259.8,228.4c-2.4,0.5-4.1,0.8-4-2c0.2-5.5,0.3-11.1,0.6-16.6c0-0.8,1.1-1.3,1.7-2c0.5,0.6,1.5,1.2,1.5,1.8
					C259.9,215.8,259.8,222.1,259.8,228.4z"/>
				<path class="st1" d="M260.4,138.6c0,3.2,0.1,6.3-0.1,9.6c-0.1,0.9-1.1,1.6-1.7,2.5c-0.5-0.9-1.3-1.6-1.4-2.5
					c-0.1-6.1,0-12.3,0.2-18.4c0-0.8,1.1-1.5,1.5-2.3c0.5,0.8,1.4,1.5,1.4,2.4C260.7,132.8,260.5,135.7,260.4,138.6L260.4,138.6z"/>
				<path class="st1" d="M255.6,235.6c1.6,0,2.6,0,3.6,0c0.2,0.4,0.4,0.8,0.4,1.1c0.1,4.4,0.2,8.8,0,13.2c0,0.9-1.2,1.5-1.8,2.4
					c-0.8-0.8-2.2-1.3-2.2-2C255.5,245.3,255.6,240.6,255.6,235.6z"/>
				<path class="st1" d="M264.2,199.7c4.7-1.4,4,1.8,3.9,4.4c0,1.4,0.4,3.3-2.2,3.3c-5.9,0-5.8,0-5.8-4.3
					C260.1,200.4,260.4,198.4,264.2,199.7z"/>
				<path class="st1" d="M272.9,228.6c-4.5-0.1-5.1-0.8-4.5-4.5c0.4-3.6,3.3-1.6,4.9-1.8c3.6-0.5,4.8,0.9,4.4,4.1
					C277.2,229.8,274.3,228.3,272.9,228.6z"/>
				<path class="st1" d="M268.8,228.6c2.8,2.4,7.9-2.7,8.8,3.4c0.4,2.9-1.5,3.6-7.3,3.1C268.1,234.9,267.9,234.2,268.8,228.6z"/>
				<path class="st1" d="M267.9,252.2c0.6-2,0.9-4.7,1.5-4.8c2.6-0.4,5.4-0.1,7.9,0.2c0.3,0,0.9,1.9,0.5,2.8
					c-0.3,0.8-1.4,1.6-2.4,1.6C273.2,252.3,271.1,252.2,267.9,252.2z"/>
				<path class="st1" d="M268,246.5c0.5-1.9,0.8-4.6,1.3-4.7c2.6-0.4,5.4-0.1,7.9,0.2c0.3,0,0.8,1.9,0.5,2.9
					c-0.1,0.6-1.1,1.5-1.8,1.6C273.6,246.6,271.2,246.5,268,246.5z"/>
				<path class="st1" d="M268.5,240.8c0-1.8,0-3.3,0-5.1c3,0,5.9,0,8.9,0c0.8,4.9,0.5,5.2-4.3,5.1
					C271.6,240.8,270.2,240.8,268.5,240.8z"/>
				<path class="st1" d="M265.9,106.6c-0.4-1-1.2-1.9-1.3-2.9c-0.1-4.9-0.1-9.9,0-14.7c0-1,1.1-1.7,1.5-2.6c0.4,0.9,1.1,1.6,1.1,2.6
					c0.1,5.7,0.1,11.5,0.1,17.2C266.9,106.3,266.5,106.5,265.9,106.6z"/>
				<path class="st1" d="M260.4,229.2c2.5,0,4.8,0,7.4,0c0,1.9,0,3.7,0,5.7c-2.5,0-4.7,0-7.4,0C260.4,233.2,260.4,231.4,260.4,229.2
					z"/>
				<path class="st1" d="M277.5,252.8c1.3,3.3,0.1,4.5-3.3,4.4c-1.8-0.1-3.7,0-5.7,0c0-1.5,0-2.9,0-4.4
					C271.5,252.8,274.5,252.8,277.5,252.8z"/>
				<path class="st1" d="M241.1,267.2c-5.8,9.9-5.9,19.6-0.6,29.7c-1.1-2.3-2.5-4.3-3.3-6.7c-2.3-6.8-1.9-13.4,1.2-19.9
					C239,269.2,240.2,268.3,241.1,267.2L241.1,267.2z"/>
				<path class="st1" d="M260.3,235.6c2.6,0,4.9,0,7.5,0c0,1.6,0,3.2,0,5.1c-2.5,0-4.8,0-7.5,0C260.3,239,260.3,237.5,260.3,235.6z"
					/>
				<path class="st1" d="M261,126.6c0-3.3-0.1-6.8,0.1-10.1c0-0.6,1.1-1.1,1.7-1.7c0.5,0.5,1.4,1.1,1.4,1.6c0.1,3.1,0.2,6.1-0.1,9.1
					c-0.1,0.8-1.4,1.2-2.3,1.8C261.6,127.1,261.3,126.9,261,126.6z"/>
				<path class="st1" d="M264.3,133.5c0,1.1,0.2,2.4-0.1,3.4c-0.2,0.9-1.1,1.4-1.7,2.2c-0.5-0.6-1.4-1.2-1.5-1.9
					c-0.2-2.6-0.2-5.3,0-7.7c0-0.8,1-1.3,1.4-1.9c0.6,0.8,1.5,1.3,1.7,2.2C264.5,130.9,264.3,132.3,264.3,133.5L264.3,133.5z"/>
				<path class="st1" d="M267.3,78.5c0,1.8,0.1,3.8-0.1,5.6c-0.1,0.6-1,1.1-1.3,1.6c-0.4-0.6-1.2-1.1-1.3-1.7
					c-0.1-3.8-0.1-7.6,0-11.4c0-0.5,0.8-1.1,1.1-1.5c0.5,0.5,1.3,1.1,1.4,1.5C267.4,74.7,267.3,76.7,267.3,78.5L267.3,78.5z"/>
				<path class="st1" d="M278.3,221.4c-2.8,0.1-4.3,0.2-6.5,0.3c0.3-2.4,0.4-4.4,1-6.3c0.1-0.3,2.7-0.4,3,0
					C276.7,217,277.3,218.8,278.3,221.4z"/>
				<path class="st1" d="M260.2,144.6c0.8-1.6,1.6-4.8,2.2-4.7c3.3,0.4,1.4,3.2,1.8,5.1c0.3,1.2,0.2,2.6-0.1,3.9
					c-0.2,0.8-1.1,1.2-1.6,1.8c-0.5-0.6-1.4-1.2-1.6-1.8c-0.3-1.2-0.1-2.6-0.1-3.9C260.7,144.8,260.4,144.7,260.2,144.6z"/>
				<path class="st1" d="M261.5,156.4c-1.1,1.9-1.9,3.6-2.9,5.2c-0.5-1.7-1.4-3.4-1.3-5.3c0-1.7,1.1-3.3,1.6-5.2
					C259.7,152.7,260.4,154.4,261.5,156.4z"/>
				<path class="st1" d="M268,252.7c0,1.5,0,2.8,0,4.3c-2.6,0-4.9,0-7.6,0c0-1.4,0-2.8,0-4.3C262.8,252.7,265.2,252.7,268,252.7z"/>
				<path class="st1" d="M261.2,343.9c-0.3-0.3-1.1-1.1-1.7-1.7c1-0.8,1.6-1.7,2.7-2c1.3-0.3,3-0.2,4.3,0c0.9,0.2,1.5,1.1,2.3,1.6
					c-0.6,0.5-1.2,1.4-1.9,1.6C265.3,343.7,263.7,343.7,261.2,343.9z"/>
				<path class="st1" d="M267.3,121.1c0,1.5,0.1,3.1-0.1,4.5c-0.1,0.5-0.9,1-1.2,1.3c-0.4-0.4-1.3-1-1.3-1.3c-0.1-3.2-0.1-6.3,0-9.5
					c0-0.5,1-1.1,1.4-1.5c0.4,0.5,1.1,1,1.1,1.4C267.4,117.8,267.3,119.5,267.3,121.1L267.3,121.1z"/>
				<path class="st1" d="M241.2,267.2c2.5-2.8,4.6-5.8,7.4-8.3c2.2-1.8,5.8-2.3,5.5-6.5c1.8,2.2,1.4,3.7-0.3,5.2l0.1-0.1
					C248.5,259.6,244.4,262.8,241.2,267.2C241.1,267.2,241.2,267.2,241.2,267.2z"/>
				<path class="st1" d="M259.9,194.7c0,1,0.2,1.9-0.1,2.8c-0.2,0.6-1.1,1.3-1.6,1.3c-0.5,0-1.5-0.9-1.5-1.3c-0.2-1.3-0.3-2.9,0-4.2
					c0.2-1,1.1-1.6,1.6-2.6c0.5,0.9,1.1,1.6,1.6,2.6C260,193.7,259.9,194.3,259.9,194.7L259.9,194.7z"/>
				<path class="st1" d="M254,251.6c0-5.3,0-10.4,0-15.7c0.3,0,0.6,0,1,0c0,5.3,0,10.4,0,15.7C254.6,251.6,254.3,251.6,254,251.6z"
					/>
				<path class="st1" d="M280.2,426.7c-8.7,0-17.4,0-26.1,0c0-0.1,0-0.2,0-0.4c8.7,0,17.4,0,26.1,0
					C280.2,426.4,280.2,426.5,280.2,426.7z"/>
				<path class="st1" d="M260.2,229c-0.6,2.5-1.1,4.2-1.5,5.9c-0.1,0.2-1.9,0.2-1.9,0.1c-0.5-1.7-0.9-3.6-1.3-5.6
					C257.1,229.2,258.1,229.1,260.2,229z"/>
				<path class="st1" d="M256.2,99.5c0-4,0-8.1,0-12.2c0.2,0,0.4,0,0.6,0c0,4,0,8.1,0,12.2C256.7,99.5,256.5,99.5,256.2,99.5z"/>
				<path class="st1" d="M267.2,218.6c1.3-1.5,2.2-2.5,3-3.4c0.6,1.1,1.5,2.4,1.6,3.4c0,1.1-1.1,2.2-1.5,3.2
					C269.4,220.8,268.6,219.9,267.2,218.6z"/>
				<path class="st1" d="M254.4,344.4c-0.1-2-1.1-4,1.9-4.1c0.9,0,2.4,1,2.5,1.6C259.5,345,256.8,344.3,254.4,344.4z"/>
				<path class="st1" d="M255.1,251.9c2.4,0.8,3.9,0.8,4.4,1.5c0.5,0.8,0.1,2.3-0.4,3.2c-0.2,0.4-2.2,0.5-2.3,0.3
					C256.1,255.8,255.8,254.4,255.1,251.9z"/>
				<path class="st1" d="M255.6,138.6c0-3.4,0-6.9,0-10.3c0.2,0,0.5,0,0.8,0c0,3.4,0,6.9,0,10.3C256,138.8,255.8,138.6,255.6,138.6z
					"/>
				<path class="st1" d="M255.5,149.9c0-3.2,0-6.2,0-9.5c0.2,0,0.4,0,0.6,0c0,3.1,0,6.2,0,9.4C255.9,149.9,255.7,149.9,255.5,149.9z
					"/>
				<path class="st2" d="M257.9,36.2c-1.1-0.5-2.3-0.9-3.3-1.5c-0.6-0.4-1.1-1.2-1.4-1.8c1.4-0.5,3-1.1,4.4-1.5
					c0.3,1.1,0.8,2.3,0.8,3.3C258.4,35.6,257.9,36.3,257.9,36.2z"/>
				<path class="st2" d="M273.4,49.2c-0.3,0.4-0.9,1-1.2,1.4c-0.3-0.1-0.6-0.2-1-0.3c0.2-1,0.2-2.4,0.8-2.6c1.2-0.4,2.7-0.3,3.9,0
					c0.4,0.1,0.6,1.6,0.5,2.5c0,0.3-1.2,1.1-1.2,1C274.5,50.8,274,50.1,273.4,49.2z"/>
				<path class="st2" d="M274.3,33.5c-0.9,0.4-1.4,0.9-2,1c-0.2,0-1-1-0.9-1.2c0.3-0.6,0.9-1.2,1.4-1.5c0.8-0.3,1.7-0.8,2.5-0.4
					c0.8,0.3,1.4,1.2,1.6,1.9c0.1,0.5-0.8,1.2-1.1,1.9C275.2,34.5,274.6,33.8,274.3,33.5z"/>
				<path class="st2" d="M257.2,14.4c0.2,1.8,0.4,3,0.5,4.2c-0.3,0.2-0.6,0.5-1,0.8c-1.4-1-2.8-1.8-4.2-2.8
					C253.9,16,255.4,15.3,257.2,14.4z"/>
				<path class="st2" d="M277.1,14.9c-0.3,1.2-0.8,2.5-1.1,3.6c-1.3-0.4-2.7-0.9-4-1.2c1.1-1.1,2.3-2.2,3.3-3.3
					C276,14.4,276.6,14.7,277.1,14.9z"/>
			</g>
			<g id="guitar_body" class="st3">
				<path class="st4" d="M242.8,77.5h21.1c0.8,0,1.4,0.5,1.4,1.1l1.2,138.7c0,2.9,0.8,5.7,2.2,8.4l0.3,0.6c0.4,0.8-0.3,1.4-1.2,1.4
					l-25.8,0.5h-2c-1.1,0-1.7-0.9-1.2-1.5l0,0c1.6-2.5,2.5-5.3,2.5-8l0.3-140.1C241.5,77.9,242.2,77.5,242.8,77.5z"/>
				<path class="st4" d="M248.4,81.6h9.4c3.8,0,7.2-1.4,8.4-3.7l8-14.6l4.4-41.1c0.2-1.4-1-2.9-3-3.7c-4.9-2-13.8-5.6-15-6.3
					c-4.5-2.8-13.6,0-13.6,0l-9,4.1l-6.2,2.5c-2.3,1-3.6,2.5-3.6,4.1l2.3,41.9l9.4,13.6C241.3,80.2,244.6,81.6,248.4,81.6z"/>
				<path class="st4" d="M275.6,33.2l7.5-1.9c1.2-0.3,1.8-1.8,1.3-3.2l-0.3-0.9c-0.4-1-1.3-1.3-2.3-1l-7.2,3.9L275.6,33.2z"/>
				<path class="st4" d="M273.1,49.3l7.5-1.9c1.2-0.3,1.8-1.8,1.3-3.2l-0.3-0.9c-0.4-1-1.3-1.3-2.3-1l-7.2,3.9L273.1,49.3z"/>
				<path class="st4" d="M271.4,63.5l7.5-1.9c1.2-0.3,1.8-1.8,1.3-3.2l-0.3-0.9c-0.4-1-1.3-1.3-2.3-1l-7.2,3.9L271.4,63.5z"/>
				<path class="st4" d="M231.8,31.4l-6.5-4.8c-1.1-0.9-2.5-0.2-2.9,1.1l-0.2,0.9c-0.3,1.1,0.1,2,1.1,2.5l7.5,3.2L231.8,31.4z"/>
				<path class="st4" d="M231.9,45.9l-6.5-4.8c-1.1-0.9-2.5-0.2-2.9,1.1l-0.2,0.9c-0.3,1.1,0.1,2,1.1,2.5l7.5,3.2L231.9,45.9z"/>
				<path class="st4" d="M232.5,61.3l-6.5-4.8c-1.1-0.9-2.5-0.2-2.9,1.1l-0.2,0.9c-0.3,1.1,0.1,2,1.1,2.5l7.4,3.3L232.5,61.3z"/>
				<path class="st4" d="M243.9,226.8c-20.7,0.8-25.7,2-30.7,4.2c-4.5,1.9-12.4,5.5-16.7,13.6c-2.9,5.3-2.9,9.9-2.9,17.1
					c0,12.4,3.2,15.7,3.4,28.2c0,1.3,0.2,8-1.2,15.9c-2.2,11.8-6.1,18.3-12.3,31c-8.1,16.8-12.2,25.3-13.3,32
					c-0.8,4.5-4.1,25.1,9.6,41.1c8.7,10.4,20.7,14.3,26.3,16.2c2.2,0.8,6.9,2.2,22.8,3.6c12.1,1.1,26.6,2.4,46.5,1.2
					c15.2-0.9,23-1.3,32.6-4.8c5.5-1.9,13.9-5.1,21.8-12.6c2.5-2.4,8.9-8.5,12.3-18.4c4.8-13.7,1-25.9-2.6-36.9
					c-1.8-5.8-5.7-14.2-13.7-30.7c-4.3-9-7.6-15.6-7.9-25.3c0-1.6,0.4-5.5,1.2-13.2c1.2-10.8,2.2-15.1,2.9-24.6
					c0.4-6.1,0.8-9.3,0.3-11.1c-2.3-11.2-12.2-17.8-14.5-19.2c-3.9-2.4-8.3-4.1-19.3-5.7C279.7,227,268.2,225.8,243.9,226.8z"/>
				<path class="st4" d="M240.9,226.8c-20.7,0.8-25.7,2-30.7,4.2c-4.5,1.9-12.4,5.5-16.7,13.6c-2.9,5.3-2.9,9.9-2.9,17.1
					c0,12.4,3.2,15.7,3.4,28.2c0,1.3,0.2,8-1.2,15.9c-2.2,11.8-6.1,18.3-12.3,31c-8.1,16.8-12.2,25.3-13.3,32
					c-0.8,4.5-4.1,25.1,9.6,41.1c8.7,10.4,20.7,14.3,26.3,16.2c2.2,0.8,6.9,2.2,22.8,3.6c12.1,1.1,26.6,2.4,46.5,1.2
					c15.2-0.9,23-1.3,32.6-4.8c5.5-1.9,13.9-5.1,21.8-12.6c2.5-2.4,8.9-8.5,12.3-18.4c4.8-13.7,1-25.9-2.6-36.9
					c-1.8-5.8-5.7-14.2-13.7-30.7c-4.3-9-7.6-15.6-7.9-25.3c0-1.6,0.4-5.5,1.2-13.2c1.2-10.8,2.2-15.1,2.9-24.6
					c0.4-6.1,0.8-9.3,0.3-11.1c-2.3-11.2-12.2-17.8-14.5-19.2c-3.9-2.4-8.3-4.1-19.3-5.7C276.8,227,265.2,225.8,240.9,226.8z"/>
			</g>
			<g id="Layer_15">
				<ellipse id="sound_hole_1_" cx="255.9" cy="283.7" rx="27.2" ry="34.7"/>
				<g id="knobs" class="st0">
					<ellipse class="st5" cx="238.9" cy="31.3" rx="3.2" ry="3.1"/>
					<ellipse class="st5" cx="239" cy="60.7" rx="3.2" ry="3.1"/>
					<ellipse class="st5" cx="264.3" cy="31.4" rx="3.2" ry="3.1"/>
					<ellipse class="st5" cx="262.2" cy="60.7" rx="3.2" ry="3.1"/>
					<ellipse class="st5" cx="263.2" cy="46.3" rx="3.2" ry="3.1"/>
					<ellipse class="st5" cx="239" cy="46.3" rx="3.2" ry="3.1"/>
				</g>
			</g>
			<ellipse class="st6" cx="260" cy="284.5" rx="34.5" ry="31.4"/>
		</g>
		<g id="top_scroll">
			<path class="st7" d="M554.2,123.8c-2.3-7.6-36.5-7.5-44.4-5.4c-33.8,8.8-67.7,14.7-101.5,23.3c-10.7,2.8-21.6,6.2-32.8,7.1
				c-6.7,0.5-21.6-0.2-28.1-2.2c-16.3-8.7-15.7-25.9-4.7-39.1c4.8-5.8,11-8.4,19-7.3c7.8,1.1,10.9,6,11.7,10.5
				c8.4,3.4,15.2,6.1,21.8,9c3,1.3,5.5,3.6,8.5,4.9c5.6,2.5,11,1.8,16-1.5c4.2-2.7,5.9-6.5,5.4-11.1c-0.7-5.1-4.8-7.8-10.9-7.1
				c-6.6,0.8-11.7,5.5-10,10.1c0.8,2.1,4.1,3.5,7.3,6.1c-1,1.3-3.2,1.6-5.9,0.1c-5.2-2.7-5.9-9.7-1.5-14.3c4.7-4.9,16.9-10.3,23.9-7
				c4.5,2.1,7,7.6,7,15.2c0,6.8-10.5,12.3-18.5,13.2c-6.5,0.7-12.5-0.2-18.2-3.7c-5.2-3.2-11-5.8-16.9-7.9c-4.1-1.5-7.7-0.6-10,3.8
				c-1.2,2.3-4.7,3.7-7.5,5.2c-0.2,0.1-2.7-2.1-3.1-3.5c-1-3.9,1.8-6,5.3-7.4c1.5-0.6,3.1-1.1,4.6-1.6c-0.8-8.6-11-10.8-16.4-3.6
				c-5.8,7.6-4.7,10.9-3.5,18.5c1.8,9.5,14.7,13,26.9,13c12.6,0.1,28.7-2.5,40.9-5.4c35.7-8.7,54.5-14.1,90-23.3
				c8.9-2.3,18.3-4.2,27.5-4.5c12.4-0.5,31.9,6.7,32.1,18c0.1,6.4-0.9,10.1-7,13c-3.5,2.2-7,5.4-15.2,4.3c-7.1-0.8-10-5.4-7-9.8
				c5.3-7.8,3.5,1.1,15.2-6.5"/>
			<path class="st7" d="M121.6,123.7c2.3-7.6,35.3-7.5,43-5.4c32.7,8.8,65.5,14.7,98.2,23.3c10.4,2.8,20.9,6.2,31.8,7.1
				c6.5,0.5,20.9-0.2,27.1-2.2c15.8-8.7,15.1-25.9,4.5-39.1c-4.6-5.8-10.6-8.4-18.3-7.3c-7.5,1.1-10.4,6-11.3,10.5
				c-8.2,3.4-14.7,6.1-21.2,9c-3,1.3-5.4,3.6-8.2,4.9c-5.4,2.5-10.6,1.8-15.5-1.5c-4.1-2.7-5.7-6.5-5.2-11.1
				c0.7-5.1,4.6-7.8,10.5-7.1c6.4,0.8,11.3,5.5,9.6,10.1c-0.8,2.1-3.9,3.5-7,6.1c0.9,1.3,3.1,1.6,5.7,0.1c5-2.7,5.7-9.7,1.5-14.3
				c-4.6-4.9-16.3-10.3-23-7c-4.3,2.1-6.8,7.6-6.8,15.2c0,6.8,10.2,12.3,18,13.2c6.2,0.7,12.1-0.2,17.5-3.7c5-3.2,10.6-5.8,16.3-7.9
				c3.9-1.5,7.5-0.6,9.6,3.8c1.2,2.3,4.6,3.7,7.1,5.2c0.2,0.1,2.6-2.1,3-3.5c1-3.9-1.6-6-5.2-7.4c-1.4-0.6-3-1.1-4.5-1.6
				c0.8-8.6,10.6-10.8,16-3.6c5.7,7.6,4.5,10.9,3.4,18.5c-1.8,9.5-14.1,13-26,13c-12.3,0.1-27.8-2.5-39.6-5.4
				c-34.5-8.7-52.6-14.1-87-23.3c-8.7-2.3-17.6-4.2-26.6-4.5c-12.1-0.5-30.8,6.7-31,18c-0.1,6.4,0.9,10.1,6.8,13
				c3.4,2.2,6.8,5.4,14.7,4.3c6.9-0.8,9.6-5.4,6.8-9.8c-5-7.8-3.4,1.1-14.7-6.5"/>
			<g id="dots">
				<g id="left">
					<path class="st8" d="M227,118l-3.1-6.1c-1.1-2.3-3.7-5.2-5.4-6.1l-1.1-0.6c-0.4-0.2-0.8-0.3-1-0.2l-1.8,1.2
						c-0.2,0.1-0.2,0.4-0.2,0.7l0.1,0.8c0.2,1.6,2.6,5,4.8,6.8l5.8,4.8C227.3,120.9,228.1,120.3,227,118z"/>
					<path class="st8" d="M230.2,113.3l-0.1-4.8c-0.1-1.8-0.9-4.3-1.6-5.3l-0.5-0.7c-0.2-0.3-0.4-0.4-0.7-0.4l-1.5,0.3
						c-0.1,0-0.2,0.2-0.3,0.4l-0.1,0.5c-0.3,1.1,0.2,4,1.1,5.7l2.4,4.6C229.5,115.3,230.2,115.1,230.2,113.3z"/>
					<path class="st8" d="M220.2,119.3l-3.8-3.3c-1.4-1.2-3.9-2.5-5.3-2.7l-0.9-0.1c-0.3,0-0.7,0-0.8,0.1l-0.9,1.2
						c-0.1,0.1,0,0.3,0.1,0.5l0.3,0.5c0.7,1,3.2,2.7,5.2,3.3l5.3,1.7C221.3,121.1,221.6,120.5,220.2,119.3z"/>
				</g>
				<g id="right">
					<path class="st8" d="M445.2,118.9l6-3.9c2.3-1.5,4.9-4.3,5.6-5.9l0.4-1.1c0.2-0.5,0.2-0.8,0-0.9l-1.6-1.4
						c-0.1-0.1-0.4-0.1-0.8,0l-0.8,0.2c-1.8,0.5-4.9,3.3-6.5,5.6l-4.1,6.1C442.2,119.7,442.9,120.4,445.2,118.9z"/>
					<path class="st8" d="M450.8,120.9l5.2-1c2-0.4,4.5-1.6,5.4-2.5l0.6-0.6c0.2-0.3,0.3-0.5,0.3-0.6l-0.7-1.3
						c-0.1-0.1-0.2-0.2-0.5-0.2h-0.5c-1.3-0.1-4.2,0.9-5.9,2.1l-4.5,3C448.5,120.7,448.8,121.3,450.8,120.9z"/>
					<path class="st8" d="M442.5,113.1l2.8-4c1.1-1.5,2-4,1.9-5.3V103c0-0.3-0.1-0.6-0.3-0.6l-1.4-0.5c-0.1,0-0.3,0-0.5,0.2
						l-0.4,0.4c-1,0.8-2.3,3.4-2.5,5.3l-0.9,5C440.7,114.4,441.5,114.6,442.5,113.1z"/>
				</g>
				<g id="middle">
					<path class="st8" d="M335.5,101.4l2.2-9.6c0.8-3.6,0.5-9.1-0.5-11.4l-0.8-1.6c-0.3-0.7-0.7-1-1-1h-3.3c-0.3,0-0.5,0.2-0.9,0.7
						l-0.5,1c-1.3,2.1-1.6,8-0.7,11.8l2.4,10.2C333.2,105.1,334.7,105,335.5,101.4z"/>
					<path class="st8" d="M343.7,98.4l4.3-5.8c1.6-2.2,3.1-5.8,3.1-7.6v-1.2c0-0.5-0.1-0.8-0.3-0.9l-2.1-0.8c-0.2-0.1-0.4,0-0.8,0.2
						l-0.7,0.5c-1.4,1.1-3.4,4.9-3.9,7.6l-1.4,7.3C341.1,100.3,342.1,100.6,343.7,98.4z"/>
					<path class="st8" d="M326.3,97.6l-1.4-6.9c-0.5-2.6-2.3-6.1-3.7-7.3l-1-0.8c-0.4-0.4-0.8-0.5-1-0.4l-2.1,0.8
						c-0.2,0.1-0.3,0.3-0.3,0.7l-0.1,0.8c-0.2,1.7,1.3,5.7,3.1,7.9l4.6,6.1C325.9,100.7,326.9,100.2,326.3,97.6z"/>
				</g>
			</g>
		</g>
		<g id="old_design">
			<g id="Layer_2_1_" class="st0">
				<g class="st1">
					<path d="M15.2,177.7v-1.1c0,0,6-0.9,6-5.9v-44.9c0-7.9-6-8.4-6-8.4v-1.1h23.9l26.8,39.8v-30.2c0-8.8-5.8-8.4-5.8-8.4v-1.1h15.2
						v1.2c-0.9,0-6,0.7-6,8.3v51.9H59.2l-34.6-50.1V169c0,7.6,6.7,7.6,6.7,7.6v1.1L15.2,177.7L15.2,177.7z"/>
					<path d="M76.6,177.7v-1.1c0,0,6,0.3,6-6.5V124c0-6.3-6-6.5-6-6.5v-1.2h52.2l0.4,14.2h-1.3c-0.4-7.1-2.3-10.5-6.7-11.2
						c-1.1-0.2-2.8-0.2-4.8-0.2h-16.1v25.8h14.5c4.9,0,8.3-1.5,8.9-8h1c-0.4,6.6-0.4,13,0,19.5h-1.1c-0.8-6.7-3.5-8.3-8.8-8.3h-14.5
						v19.3c0,2.5,0.3,4.2,0.5,5.2c0.4,1,1,1.7,2,2s2.6,0.5,5.2,0.5h11.4c6.7,0,10.4-4.6,11.3-12.5h1.5l-1.3,15.2H76.6L76.6,177.7
						L76.6,177.7z"/>
					<path d="M133.6,117.5v-1.1h33.1v1.1c-6.3,0.8-7.3,4.2-3,12.5l13.2,27c4.3-9.7,8.4-17.9,12.4-27.7c3-7.1,2.3-11.6-3.3-11.7v-1.1
						h17.5v1.1c-4.5,0-7.8,6-10.2,11.4l-21.8,48.8h-3.3l-24.4-48.2C140.8,123.7,138.1,117.1,133.6,117.5z"/>
					<path d="M202.6,177.7v-1.1c0,0,6,0.3,6-6.5V124c0-6.3-6-6.5-6-6.5v-1.2h52.2l0.4,14.2h-1.3c-0.4-7.1-2.3-10.5-6.7-11.2
						c-1.1-0.2-2.8-0.2-4.8-0.2h-16.1v25.8h14.5c4.9,0,8.3-1.5,8.9-8h1c-0.4,6.6-0.4,13,0,19.5h-1.1c-0.8-6.7-3.5-8.3-8.8-8.3h-14.5
						v19.3c0,2.5,0.3,4.2,0.5,5.2c0.4,1,1,1.7,2,2s2.6,0.5,5.2,0.5h11.4c6.7,0,10.4-4.6,11.3-12.5h1.5l-1.3,15.2h-54.3L202.6,177.7
						L202.6,177.7z"/>
					<path d="M364,180.4c0,0-5.9,13.3-22.1,13.3c-16.1,0-24.9-17.6-29.4-28c-1.9-4.4-3.9-10.4-9.6-13.1c-3.3,0.3-6.4,0.1-6.4,0.1
						v15.9c0,7.2,6.5,8.3,6.5,8.3v0.9h-30.4v-1.1c0,0,6-0.2,6-8.3v-15.6c-7.2,0.2-10.4,2.6-10.4,6.6c0,3.3,1.9,6.3,5.9,6.8
						c-2.3,3.5-18.2,4.5-18.2-5.9c0-10.3,15.5-10.5,22.8-10.5h17.9c2.6,0,4.8-0.1,6.4-0.5c7.2-1.2,10.7-7,10.7-15
						c0-10.6-7.2-18.7-17.1-15.2v28.1h-17.9V126c0-8-6-8.3-6-8.3v-1.2h31.9c6.2,0,11.3,0.6,15.2,1.8c7.8,2.4,11.8,7.6,11.8,15.4
						c0,7.6-4.4,13.6-12.4,16.2c-3.8,1.1-7.3,1.6-8.4,1.8C335.1,155.3,330.3,190.1,364,180.4z"/>
				</g>
				<g class="st1">
					<path d="M97.7,257.7c0,0,6.5-0.6,6.5-7v-50c0-6.7-6.5-7-6.5-7v-1.3c9.7,0,21.1,0,31,0c6.7,0,12.5,0.4,17.4,1.7
						c16.1,4.7,22.4,14.9,22.4,31c0,15.7-7.6,26.6-23.8,31.4c-5.4,1.5-11.7,2.3-18.8,2.3H97.6v-1.1L97.7,257.7L97.7,257.7z
						 M125,253.1c1.9,2.9,7.9,2.1,11.8,0.1c2.2-1.1,4.2-2.8,5.8-5.3c4.2-5.6,5.4-14.7,5.4-21.8c0-10.4-2.6-22.8-11.2-28.2
						c-3.3-2.1-6.4-2.8-10.9-2.8c-1.6,0-2.4,0.6-2.4,2.6V247C123.7,249.8,124.1,251.9,125,253.1z"/>
					<path d="M174,193.6v-1.2h32.6v1.2c-2.7,0-6.7,2.5-6.7,7.1v49.7c0,5.9,4.9,7.1,6.7,7.1v1.2h-32.5v-1.2c1.8,0,6.7-1.1,6.7-7.1
						v-49.7C180.8,194.9,176.2,193.6,174,193.6z"/>
					<path d="M210.7,258.8v-1.2c0,0,6.5,0.4,6.5-7v-49.9c0-6.9-6.5-7-6.5-7v-1.3h56.5l0.4,15.3h-1.4c-0.4-7.7-2.4-11.4-7.2-12.1
						c-1.2-0.2-3-0.2-5.2-0.2h-17.4v27.9H252c5.3,0,9-1.6,9.7-8.7h1.1c-0.4,7.1-0.4,14.1,0,21.1h-1.2c-0.8-7.2-3.8-8.9-9.5-8.9
						h-15.6v20.8c0,2.7,0.3,4.5,0.5,5.6c0.4,1.1,1.1,1.8,2.2,2.2s2.9,0.5,5.6,0.5h12.4c7.2,0,11.3-5,12.2-13.5h1.6l-1.4,16.4
						L210.7,258.8L210.7,258.8z"/>
				</g>
				<g class="st1">
					<path d="M-7,272.5v-1.4h40.5v1.4c-5,0.5-6.7,4.4-0.8,15l11.4,20.4L57,286c5.5-8.9,6.7-13.1,0.5-13.7v-1.2h17.6v1.2
						c-4.4,0-9.1,7.2-12.3,12.7l-13.2,22.3c-2.9,5.7-5,9.7-5.2,16.9l-0.2,8.5c-0.2,10.9,6.5,11.1,6.5,11.1v1.4H17.3v-1.4
						c0,0,6.7,0,7.1-9.2c0,0,0.3-4.6,0.2-10.9c-0.2-6.7-1.5-10.4-4.7-15.9L6.7,286.2C3.3,280.5-1.7,272.5-7,272.5z"/>
					<path d="M72,308.5c0-26.6,17.4-37.9,38.2-37.9c20.6,0,37.6,13.5,37.8,37c0.2,23.5-15.3,36.5-35.9,36.9
						C91.4,345.2,72,335.3,72,308.5z M109.2,274.2c-13.2,0-14.4,22.5-14,33.8c0.2,11.2,2.7,33.1,16.5,32.9c13.5-0.3,14-22,13.5-33.1
						C124.7,296.6,122.5,274.4,109.2,274.2z"/>
					<path d="M152.6,272.6v-1.5H191v1.4c0,0-8.6,1.4-8.6,10.1V320c0,13,3.9,20.5,16.7,20.5c12.1,0,15.5-8.5,15.5-20.6v-37.3
						c0-10.1-8.5-10.1-8.5-10.1v-1.4h21.2v1.4c0,0-8.2,0.5-8.2,10.2V319c0,18.2-9.1,26.1-24.7,26.1c-18.2,0-33.5-5.2-33.5-26.1
						v-36.3C160.8,273,152.6,272.6,152.6,272.6z"/>
					<path d="M233.3,345.2v-1.4c0,0,7.3-1.1,7.3-7.1v-54.1c0-9.6-7.3-10.1-7.3-10.1v-1.4h28.8l32.3,48v-36.5c0-10.7-7-10.1-7-10.1
						v-1.4h18.4v1.5c-1.1,0-7.3,0.8-7.3,10v62.6h-12.1l-41.7-60.4v49.9c0,9.2,8,9.2,8,9.2v1.4h-19.4L233.3,345.2L233.3,345.2z"/>
					<path class="st9" d="M379.8,271.1v23.8h-1.2c-2.6-11.6-8.6-19.5-21.1-20.4c-5-0.1-9.9,1.1-13.8,4c-7.9,6.1-10.6,19.1-10.6,29.5
						c0,8.9,2.1,23.6,8.9,29.4c5.6,5.2,11.4,5.3,18.7,3.7v-22.3c0-7.2-9-7.8-9-7.8v-1.5h36.9v1.2c0,0-7,1-7,7.9v26.5
						c-10.8,0-25.3,0-29.9,0c-25,0-41.4-15-41.4-36.6c0-20.9,15.5-37.4,38.7-37.4C360.5,271.1,370.8,271.1,379.8,271.1z"/>
				</g>
			</g>
			<g id="Layer_9" class="st0">
				<g id="Layer_8" class="st1">
					<path d="M265.5,228.8l16.5,3.4c6.2,1.3,15.5,0.8,19.5-0.9l2.7-1.2c1.1-0.5,1.7-1.1,1.7-1.6v-5.1c0-0.5-0.4-0.9-1.2-1.4
						l-1.7-0.9c-3.6-2-13.7-2.5-20.3-1.1l-17.5,3.8C259.2,225.1,259.3,227.5,265.5,228.8z"/>
					<path d="M270.7,241.6l9.9,6.7c3.7,2.5,10,4.8,13,4.7h2.1c0.9,0,1.4-0.2,1.6-0.6l1.4-3.3c0.1-0.3,0-0.7-0.4-1.2l-0.9-1.1
						c-1.8-2.3-8.3-5.4-13-6.3l-12.5-2.3C267.5,237.4,266.9,239,270.7,241.6z"/>
					<path d="M272,214.3l11.8-2.2c4.4-0.8,10.4-3.7,12.6-5.9l1.4-1.5c0.6-0.6,0.8-1.2,0.7-1.5l-1.4-3.3c-0.1-0.3-0.5-0.5-1.1-0.6
						l-1.4-0.1c-2.9-0.3-9.7,2.1-13.6,4.8l-10.4,7.2C266.8,213.6,267.5,215.2,272,214.3z"/>
				</g>
				<g id="Layer_10" class="st1">
					<path d="M216.5,221.5l-16.5-3.4c-6.2-1.3-15.5-0.8-19.5,0.9l-2.7,1.2c-1.1,0.5-1.7,1.1-1.7,1.6v5.1c0,0.5,0.4,0.9,1.2,1.4
						l1.7,0.9c3.6,2,13.7,2.5,20.3,1.1l17.5-3.8C222.8,225.1,222.7,222.7,216.5,221.5z"/>
					<path d="M211.3,208.7l-9.9-6.7c-3.7-2.5-10-4.8-13-4.7h-2.1c-0.9,0-1.4,0.2-1.6,0.6l-1.4,3.3c-0.1,0.3,0,0.7,0.4,1.2l0.9,1.1
						c1.8,2.3,8.3,5.4,13,6.3l12.5,2.3C214.5,212.8,215.1,211.2,211.3,208.7z"/>
					<path d="M210,235.9l-11.8,2.2c-4.4,0.8-10.4,3.7-12.6,5.9l-1.4,1.5c-0.6,0.6-0.8,1.2-0.7,1.5l1.4,3.3c0.1,0.3,0.5,0.5,1.1,0.6
						l1.4,0.1c2.9,0.3,9.7-2.1,13.6-4.8l10.4-7.2C215.2,236.6,214.5,235.1,210,235.9z"/>
				</g>
			</g>
			<g id="Layer_3" class="st0">
				<g class="st1">
					<path d="M337.2,350.5c0.3,0.3,0.5,0.7,0.8,0.8c3,0.7,5.9,1.5,8.9,1.9c4.9,0.6,9.8-0.2,14.7-0.7c7.6-0.8,15.1-2.2,22.6-4
						c2.3-0.6,4.6-1.2,6.7-2.2c2-1.1,4.3-1.6,6-3.3c1.6-1.6,3.7-2.8,5.4-4.3c1-0.9,1.9-2,2.8-3c0.3-0.4,0.7-0.7,1-1.1
						c1.3-1.7,2.5-3.5,3.5-5.4c1.5-2.9,2.8-6,3.7-9.1c1.7-6.3,2.2-12.7,1.6-19.2c-0.1-0.7-0.1-1.4-0.2-2.1s-0.2-1.3-0.4-2
						c0.2,1.7,0.4,3.3,0.6,5l0,0c-0.2-1.5-0.5-3-0.7-4.5c-0.2-1.7-0.1-3.5-0.6-5.1c-1-3.3-2.2-6.6-3.4-9.9c-0.2-0.7-0.4-1.4-0.5-2.1
						c-0.8-1.5-1.6-3.1-2.5-4.6c-1.4-2.5-2.8-5-4.3-7.4c-1.5-2.3-2.7-4.7-3.6-7.3c-0.8-2.1-1.2-4.2-0.9-6.4c0,0.5,0,1,0,1.5
						c0-3.3,1.1-6.3,2-9.4c0.6-2,1.6-3.8,2.3-5.7c2-5.7,3-11.5,1.4-17.6c-1.2-4.8-4.2-8.4-8.3-11.2c-3.8-2.6-8.1-3.3-12.5-3.4
						c-1.7-0.1-3.4,0-5.3,0c0,1,0,2.2,0,3.6c-1.8,0-3.4,0-5.2,0c0-1.3,0-2.7,0-4.4c1.1,0,2.2,0,3.3,0c5,0.1,10.1,0.1,15,1.5
						c6.3,1.8,10.6,5.8,12.8,12.1c1.8,5.3,1.7,10.7,0.1,16.1c-1.2,4-2.7,7.8-4,11.7c-1.8,5.4-1.2,10.6,1.6,15.6
						c2.4,4.3,4.9,8.5,7.2,12.8c3.4,6.6,5.4,13.6,6.3,20.9c1,7.4,0.5,14.7-1.4,21.9c-1.9,7.3-5.5,13.7-11.1,19
						c-5.2,4.8-11.2,8-18.1,9.6c-10.8,2.5-21.7,4.5-32.7,5c-5.6,0.3-11-0.6-16.1-3c-2-0.9-3.9-2.2-5.8-3.5c-3.3-2.3-6.6-4.6-9.9-7
						c-6.1-4.5-9.8-10.6-11.6-18c-1.9-7.9-1.6-15.7,0-23.5c1.6-8.1,4.5-15.7,8.7-22.8c2.2-3.8,4.5-7.6,6.7-11.3
						c3.5-5.8,4-11.7,1.4-18c-0.9-2.2-1.7-4.4-2.5-6.6c-2.4-7-2.3-13.9,0.9-20.6c3.1-6.3,8.5-9.6,15.1-11.1c4.8-1.1,9.7-1,14.5-1.2
						c2.3-0.1,2.3-0.1,3.1-2.2c0.4-1.1,1-2.2,1.5-3.3c0.6-1.3,1.8-1.9,3.1-1.9c1,0,1.2-0.5,1.2-1.4c0.2-11.5,0.5-22.9,0.7-34.4
						c0.2-12.5,0.5-24.9,0.6-37.4c0.1-7.6,0.1-15.2,0.1-22.8c0-3.2-0.8-6.1-3.3-8.4c-0.5-0.5-0.7-1.4-0.9-2.1
						c-0.3-1.1-0.5-2.2-0.5-3.3c-0.1-1.7-2.1-2.5-3.4-1.8c-0.1-0.3-0.3-0.6-0.4-0.9h-0.1c0.1,0.6,0.2,1.3,0.2,1.9
						c0,0.4-0.3,1-0.6,1.1c-0.3,0.2-0.9,0-1.3-0.2c-1.5-1-1.9-3.6-0.8-5.2c-0.3,1.7-0.3,3.3,0.9,4.7c0.6-1.3-0.2-2.2-0.9-3.3
						c0.7,0,1.3,0,1.9,0c-0.3-0.6-0.5-1.2-0.7-1.7c0.1-0.1,0.2-0.1,0.3-0.2c0.3,0.4,0.6,0.8,0.9,1.2c0.6,0.8,1,1.5,2.2,1.5
						c0.8-0.1,1-0.4,0.9-1c-0.5-2.9-1-5.8-1.5-8.7c-0.2-0.8-1.7-1-2.5-0.3c-0.2-0.2-0.3-0.4-0.5-0.6c-0.1,0.1-0.2,0.1-0.2,0.2
						c0,0.4,0.1,0.7,0.1,1.1c0,0.4,0,0.9-0.3,1.1c-0.3,0.2-0.9,0.2-1.2,0c-1.6-0.7-2.3-3.7-1.1-5.2c-0.4,1.8-0.1,3.4,1.4,4.6
						c-0.4-0.8-0.7-1.6-1.1-2.5c0.5-0.1,1-0.1,1.7-0.2c-0.4-0.9-0.8-1.6-1.2-2.4c0-0.1,0.1-0.1,0.1-0.2c0.5,0.4,1,0.7,1.4,1.2
						c0.8,0.9,1.3,2,2.9,1.6c-0.4-2.1-0.8-4.3-1.2-6.4c-0.2-0.9-0.3-1.8-0.4-2.6c-0.2-1.3-1.5-1.7-2.5-0.8c-0.1,0.1-0.3,0.2-0.3,0.2
						c-0.2,0.6-0.3,1.2-0.5,1.3c-0.4,0.1-1.1,0.1-1.5-0.1c-1.4-0.8-1.9-3.1-1-4.7c0,0.9-0.1,1.8,0.2,2.5c0.2,0.7,0.8,1.3,1.2,2
						c0.1-0.1,0.2-0.1,0.3-0.2c-0.2-0.5-0.5-1-0.8-1.5c0.5-0.1,0.9-0.2,1.3-0.3c-0.3-0.9-0.5-1.8-0.8-2.7c1.6,0.5,1.9,2.7,4,2.1
						c-0.3-2-0.7-4.1-1-6.2c-0.3-1.6,0.4-3.2,1.8-4c0.3-0.2,0.8-0.2,1.1-0.1c5.4,0.8,10.8,1.6,16.2,2.5c1,0.2,1.6,0.7,1.7,1.7
						c0.1,2.1,0.3,4.2,0.5,6.3c0.1,0.8,0.3,1.5,1.3,2c-0.1-0.4-0.2-0.6-0.3-0.9c1.6,1.4,1.6,4.1-0.2,5.3c-0.2,0.1-0.3,0.5-0.3,0.8
						c0.3,1.8-0.2,3.7,0.9,5.3c0.1,0.1-0.1,0.4,0.1,0.7c0.2-0.4,0.4-0.7,0.5-1c1.5,1.8,1.2,4.5-0.7,5.3c0.1,0.9,0.1,1.8,0.2,2.7
						c0.1,0.9,0.1,1.8,0.2,2.4c0.9,0.4,1.7,0.6,2.2,1.1c0.4,0.3,0.6,1,0.6,1.6c-0.1,0.9-0.2,1.9-0.6,2.7c-0.2,0.4-1,0.5-1.6,0.8
						c-0.3,2.1-0.7,4.4-1,6.7c-0.5,0-0.9-0.1-1.5-0.1c-0.2-2.3-0.5-4.6-0.7-6.9h-0.1c0.2,2.2,0.3,4.4,0.5,6.7
						c-1.5,0.3-1.7,0.2-1.8-1.2c-0.1-3.9-0.2-7.7-0.3-11.6c-0.1-2.5-0.1-5.1-0.2-7.6c0-0.4,0-0.8,0.1-1.2c0-0.1,0.3-0.1,0.5-0.2
						c-0.1-0.6-0.1-1.3,0.9-1.5c0.3-0.1,0.4-0.7,0.6-1.2c-1.5-0.4-1.2,1.3-2.1,1.4c-0.1-2.2-0.2-4.5-0.3-7c0,1.9,0,3.4,0,5
						c0,0.7-0.4,1.3-0.5,2c-0.1,0.3,0,0.6,0.1,0.9c0.2,0.8,0.5,1.6,0.5,2.4c0.2,6.3,0.3,12.6,0.4,18.9c0,0.3,0,0.6,0,0.8
						c-1.8,0.2-1.7,0.2-2.1-1.4c-0.9-3.7-1.8-7.4-2.7-11.1c-0.1,0-0.2,0-0.3,0.1c1,4.1,2,8.2,3,12.2c-1.6,0.2-1.7,0.2-2-1.2
						c-0.7-3.7-1.4-7.3-2.1-11c0-0.2-0.1-0.5-0.2-0.7c-0.5,0.4-0.7,1.3-1.6,0.7c1.1-0.6,1.6-1.5,1.5-2.6c-0.5-2.6-1-5.3-1.5-7.9
						c0-0.2-0.3-0.4-0.5-0.5c-0.3-0.2-0.5-0.3-0.9-0.6c1.2-0.4,1.6-1.2,1.4-2.3c-0.5-2.2-1.1-4.4-1.6-6.7c-0.2-0.7-0.4-1.3-0.6-2
						c-0.1,0-0.2,0-0.3,0.1c0.7,3,1.5,6,2.2,9c-0.3,0.2-0.6,0.3-0.9,0.4c-0.3,0.2-0.6,0.4-0.9,0.5c-1,0.2-0.9,0.9-0.9,1.6
						c0,0.4,0.5,0.7,0.8,1.2c0.2-0.6,0.4-0.9,0.5-1.2c0.4,0,0.8,0,1.2,0c0.6,3,1.2,6.1,1.8,8.9c-1,0.5-1.9,0.9-2.7,1.5
						c-0.7,0.5-0.1,1.2,0.1,1.8c0,0.1,0.4,0.1,0.6,0.1c0.1,0,0.2-0.2,0.3-0.4c0.1-0.2,0.1-0.4,0.1-0.6c1.1,0.1,1.4,0.8,1.4,1.8
						c0.1,2.9,0.4,5.8,0.6,8.7c0,0.3,0,0.6,0,0.9c-1.8,0.3-1.8,0.3-1.4,2.1c0.3-0.1,0.7-0.2,1-0.1c0.2,0,0.6,0.3,0.6,0.5
						c0,3.3,0,6.6,0,9.6c-0.5,0.3-0.9,0.5-1.2,0.7c0.1,0.1,0.1,0.2,0.2,0.3c0.3-0.1,0.5-0.1,0.9-0.2c0,3.3,0,6.5,0,9.5
						c-0.5,0.2-0.8,0.4-1.1,0.6c0,0.1,0.1,0.2,0.1,0.4c0.3,0,0.6-0.1,0.9-0.2c0,3.1,0,6.1,0,9c-0.4,0.1-0.8,0.2-1.1,0.3
						c0,0.1,0.1,0.3,0.1,0.4c0.3,0,0.7,0,1-0.1c0,2.9,0,5.7,0,8.5c-0.4,0.1-0.8,0.2-1.2,0.2c0,0.1,0,0.3,0.1,0.4
						c0.3,0,0.7-0.1,1.1-0.1c0,2.8,0,5.5,0,8.1c-0.4,0.4-1.3-0.5-1.2,0.7c0.4-0.1,0.8-0.2,1.2-0.3c0,2.6,0,5.1,0,7.6
						c-0.5,0.1-0.9,0.2-1.3,0.3c0,0.1,0.1,0.2,0.1,0.4c0.4-0.1,0.7-0.1,1.2-0.2c0,2.5,0,4.8,0,7c-0.3,0.6-1.4-0.4-1.2,0.8
						c0.4-0.1,0.7-0.1,1.2-0.2c0,2.3,0,4.6,0,6.8c-0.5,0.1-0.9,0.2-1.3,0.2c0,0.1,0.1,0.3,0.1,0.4c0.4-0.1,0.7-0.1,1.2-0.2
						c0,2.2,0,4.3,0,6.4c-1.2,0-1.2,0-1.2,0.7c0.4-0.1,0.7-0.2,1.2-0.3c0,6-0.1,12-0.1,17.9c-0.5,0.1-1,0.1-1.4,0.1
						c0,0.1,0,0.3,0.1,0.4c0.4-0.1,0.8-0.1,1.3-0.2c0,1.7,0,3.4,0,5c-1.3,0.1-1.3,0.1-1.3,0.7c0.4-0.1,0.9-0.2,1.3-0.3
						c0,1.7,0,3.2,0,4.8c-0.5,0.1-1,0.2-1.4,0.2c0,0.1,0,0.2,0.1,0.4c0.4-0.1,0.8-0.2,1.3-0.3c0,1.6,0,3,0,4.4
						c-0.4,0.5-1.4-0.4-1.5,0.8c0.5-0.1,0.9-0.2,1.4-0.4c0,1.4,0,2.8,0,4c-0.4,0.6-1.4-0.4-1.4,0.9c0.5-0.1,0.9-0.2,1.4-0.4
						c0,1.4,0,2.6,0,3.8c-0.4,0.6-1.4-0.4-1.5,0.9c0.5-0.1,0.9-0.2,1.4-0.3c0,1.3,0,2.5,0,3.6c-0.6,0.1-1,0.3-1.5,0.4
						c0,0.1,0.1,0.2,0.1,0.4c0.4-0.1,0.9-0.1,1.4-0.2c0,1.2,0,2.3,0,3.4c-0.4,0.3-1.5-0.5-1.5,0.8c0.6-0.1,1-0.2,1.5-0.4
						c0,1.2,0,2.2,0,3.2c-0.5,0.4-1.4-0.5-1.6,0.8c0.6-0.1,1-0.2,1.6-0.3c0,1.4,0,2.7,0,4c0,0.2-0.2,0.4-0.4,0.6
						c-1,0.8-2.1,1.6-3.3,2.2c1.1-0.9,2.2-1.8,3.5-2.9c-0.8,0.1-1.3,0.2-2,0.4c0-0.6-0.1-1.2-0.1-2c-0.5,0.2-0.9,0.5-1.3,0.7l0,0
						c0-0.1,0-0.2,0-0.2c1.6-0.7,1.4-2.1,1.4-3.4c0.1-7.3,0.2-14.5,0.3-21.8c0-0.7-0.1-1.3-0.1-2.3c-3.8,0.3-7.4,0.6-11.1,1
						c-4.4,0.5-8.4,2.2-11.9,5.1c-4.2,3.4-6.3,8-7,13.3c-0.8,6.1,0.4,11.8,2.7,17.4c1.3,3.1,2.4,6.2,3.4,9.4c1.2,3.9,0.5,7.7-1,11.4
						c-0.6,1.5-1.4,3-2.1,4.4c-0.5,1.1-1.1,2.3-1.6,3.4c-0.1,0-0.3,0-0.4,0c-0.9,1.5-1.7,3-2.5,4.4c-0.9,1.6-1.8,3.1-2.7,4.7
						c-0.1,0.1,0.1,0.3,0.2,0.5c-0.6,0.8-1.3,1.6-1.7,2.4c-1.4,3.3-2.9,6.7-4,10.1c-3.4,10.5-4.9,21.2-2.7,32.2
						c1.1,5.5,3,10.6,6.6,14.9c1.2,1.5,2.8,2.7,4.3,4.1c0,0.1,0,0.2,0,0.2c2,1.2,3.9,2.4,5.9,3.6C336.7,350.8,337,350.6,337.2,350.5
						z M371.9,65.5c0.3-0.6,0.6-1,0.9-1.5c-0.1-0.1-0.2-0.2-0.2-0.3c-0.7,0.3-1.4,0.5-2,0.8c-0.8,0.3-0.7,0.9-0.6,1.5
						c0.1,0.4,0.5,0.7,0.9,1.2c0.3-0.7,0.4-1.1,0.5-1.5c0.3,0.1,0.6,0.2,1,0.2c0,0,0-0.1,0.1-0.1C372.1,65.7,371.9,65.5,371.9,65.5z
						 M361.5,62.5c-0.1-0.2-0.2-0.3-0.3-0.5c-0.5,0.2-1.1,0.6-1.6,0.6c-0.9,0.1-1.1,0.7-1.1,1.4c0,0.4,0.4,0.8,0.6,1.3
						C360,64.3,360.8,63.4,361.5,62.5z M372.8,85.8c0.5,0.9-1.6,2.3,0.2,3.5c0.8-1,1.5-1.9,2.4-2.9c-1.6-0.4-1.4,1.1-2.2,1.3
						C373,87,372.8,86.2,372.8,85.8z M363.9,74.6c-0.1,0-0.2,0-0.2,0.1c0.9,3.7,1.8,7.4,2.7,11.1c0.1,0,0.2,0,0.3-0.1
						C365.7,82,364.8,78.3,363.9,74.6z"/>
					<path d="M382.4,258.7c2-2.9,2.6-6.1,2.4-9.6c-0.2-3.4-0.6-6.7-3.5-9.1c0.1-0.2,0.3-0.4,0.2-0.5c-0.8-1.2-1.6-2.4-3.1-2.9l0,0
						c-0.1-0.1-0.2-0.1-0.3-0.2H378v-0.1c0.5,0,1.1-0.1,1.9-0.1c-0.7-0.6-1.3-1-1.8-1.4c-0.1,0-0.2,0.1-0.3,0.1
						c0.1,0.5,0.1,0.9,0.2,1.4c0,0.1,0,0.1,0.1,0.2l0,0c-0.4,0-0.7,0.1-1.1,0c-0.5-0.1-1.1-0.3-1.7-0.3c6.5,3.9,8.7,9.8,7.5,17
						c-0.6,3.9-2.6,7.3-5.8,9.8c5.9-6,7.6-12.9,3.9-20.6c-1.5-3.1-3.9-5.3-7.5-5.9c6.9,3.4,9.2,9,8.1,16.4
						c-0.8,5.3-4.9,9.9-8.5,11.2c-0.7-2.1-0.2-2.3,2.5-2.3c0-0.5,0-1.1,0-1.5c-0.8-0.1-1.6-0.1-2.3-0.3c-0.2-0.1-0.4-0.7-0.4-1.1
						c-0.1-3.1-0.1-6.3-0.1-9.5c0-0.4,0-0.7-0.1-1.1c0,3.5,0,7-0.1,10.5c0,0.5,0.2,1.2-0.7,1.1c-0.7-0.1-1.7,0.3-1.7-1.1
						c0-8.5-0.1-17-0.2-25.4c0-0.1,0-0.3,0.1-0.5c0.7,0,1.5-0.1,2.3-0.1c0,4.1,0,8.1-0.1,12.1c0.1,0,0.1,0,0.2,0c0-4,0-8,0.1-12.1
						c1.6-0.1,3.1-0.2,4.6-0.2c0.2,0,0.7,0.5,0.6,0.8c-0.1,0.8,0.5,1.2,0.9,1.8c1.5,1.8,3.7,1.5,5.5,2.2c2.5,0.9,4.6,2.4,5.8,4.6
						c1.5,2.6,2.8,5.2,3.7,8c2.2,6.5,3.3,13.2,3.5,20c0.1,3.9-0.4,7.6-1.9,11.2c-1.9,4.3-5.5,6.1-9.9,6.5c-2.9,0.2-5.8-0.1-8.2-1.9
						c-2.5-1.9-3.6-4.6-3.7-7.7c-0.1-3.3,0.1-6.6,0.2-9.9c-0.2,0.1-0.6,0.2-1.3,0.4c1.5-1.2,2.8-2.2,4-3.3c0.2-0.2,0.3-0.6,0.5-0.9
						c1,0.2,2.3-0.8,2.8-2.1c0.4-0.6,0.9-1.2,1.3-1.9h0.1l0,0l0,0l0,0c0-0.1,0-0.3,0.1-0.4l0,0c0.2,0,0.3,0,0.5,0l0,0
						c0.1-0.2,0.3-0.4,0.4-0.5l0,0C382.4,259.2,382.4,259,382.4,258.7L382.4,258.7z"/>
					<path d="M348.7,293.8c5-0.5,9.9-0.9,14.9-1.4c0,1,0,1.8,0,2.8c-0.9,0.1-1.8,0.3-3,0.5c0.9,1.4,2.1,0.3,3,0.8
						c-0.1,0.6-0.2,1.1-0.3,1.7c0.3-2.2,1.8-2.5,3.6-2.4c-0.1,0.6-0.2,1.1-0.3,1.6c0.1,0.1,0.1,0.1,0.2,0.2c0-0.1,0-0.2,0-0.3
						c0-1.5,1-1.8,2.2-1.9c1.2,0,2.5-0.1,3.7-0.3c2.5-0.4,4.9-1,7.4-1.5c0.2,0,0.3-0.3,0.5-0.5c-0.3-0.1-0.5-0.4-0.8-0.3
						c-1.7,0.2-3.3,0.5-5,0.8c-0.6,0.1-1.1,0.2-1.7,0.3c-0.6-1.9-0.3-2.3,1.6-2.5c4.6-0.4,9.2-0.9,13.8-1.3c1.4-0.1,1.4-0.1,1.4,1.3
						c0,1.8,0,3.5,0,5.3c0,1.1-0.4,1.5-1.4,1.7c-1.1,0.2-2.2,0.2-3.3,0.5c-0.9,0.3-2,0.6-2.6,1.3c-1.2,1.4-2.8,1.9-4.5,2.2
						c-2.8,0.5-5.7,0.8-8.6,1.1c-2.2,0.3-4.3,0.4-6.5,0.6c-2.5,0.3-4.9,0-7.1-1.4c-0.8-0.5-2-0.6-3-0.6c-1.1-0.1-2.3,0.1-3.4,0.2
						c-0.6,0-1.1-0.1-1.1-0.8C348.7,298.8,348.7,296.4,348.7,293.8z"/>
					<path d="M363.7,258.5c0-0.4,0-0.8-0.1-1.5c-0.1,0.5-0.2,0.8-0.2,0.8c-0.8,0.1-1.4,0.2-2.3,0.3c-0.1-0.1-0.4-0.5-0.6-0.7
						c-0.3,0.5-0.6,1.1-1.1,1.9c0-3.4,0-6.5,0-9.6c-0.1,0-0.1,0-0.2-0.1c-0.6,1.2-1.2,2.3-1.9,3.5c-2.6-3.2,1.8-13,6.8-15.4
						c0,6.9-0.1,13.8-0.1,20.7C363.9,258.5,363.8,258.5,363.7,258.5z"/>
					<path d="M365.5,236.7c-0.3,0.1-0.6,0.1-0.9,0.2c0-1.3,0-2.6,0-4c0.8,0,1.6-0.1,2.5-0.1c0,8.9-0.1,17.7-0.1,26.6
						c-0.4-0.8-0.4-0.8-2.2-0.8c0,0.2-0.1,0.3-0.1,0.5c0,0.2,0,0.3-0.3,0.5c0-4.1,0-8.3,0.1-12.4c0-2.8,0.1-5.7,0-8.5
						C364.5,237.8,364.6,237.1,365.5,236.7z"/>
					<path d="M367.6,232.8c0.7,0,1.4,0,2.2,0c0,8.9-0.1,17.8-0.1,26.8c-0.6-0.5-1.2-1-1.9-1.5c-0.1,0.6-0.1,0.9-0.2,1.3
						c-0.1,0-0.1,0-0.2,0C367.5,250.6,367.6,241.7,367.6,232.8z"/>
					<path d="M370.1,179.1c0.8,0,1.4,0,2.2,0c0.1,0.8,0.1,1.5,0.2,2.3c0,0,0,0,0.1,0c0-0.7,0-1.4,0-2.2c0.7,0,1.3,0,2,0
						c0,0.6,0.1,1.2,0.1,2.1c0.1-0.8,0.1-1.4,0.2-2c0.2-0.1,0.3-0.1,0.4-0.1c2.4,0,2-0.1,2,2c0,1.3,0,2.6,0,4c-0.8,0-1.5,0-2.3,0
						c0-0.7,0-1.4,0-2.1h-0.1c0,0.7-0.1,1.4-0.2,2.3c-0.8-0.1-1.5-0.3-2.1-0.4c-0.6,0-1.1,0.2-1.7,0.2c-0.3,0-0.7-0.3-0.7-0.5
						C370.1,182.7,370.1,180.9,370.1,179.1z"/>
					<path d="M374.7,191.5c0,0.8,0,1.6,0,2.3h0.1c0-0.2,0-0.3,0-0.5c0.1-2,0.5-2.3,2.6-1.6c0,1.6,0,3.3,0,5.1
						c-0.7,0-1.5,0.1-2.3,0.1c-0.1-0.6-0.2-1.1-0.3-1.6c0,0,0,0-0.1,0c0,0.5,0,1,0,1.5c-1.5,0-3,0-4.6,0c0-1.8,0-3.5,0-5.3
						C371.7,191.5,373.2,191.5,374.7,191.5z"/>
					<path d="M375.9,101.6c0,3.5,0,6.9,0,10.4c-1.2-0.1-2.3-0.3-3.6-0.4c0-3.4,0-6.8,0-10.4C373.4,101.3,374.5,101.4,375.9,101.6z"
						/>
					<path d="M376.1,119.2c0,0.9,0,1.8,0,2.8c-1.6,0.3-1.8,0.2-1.8-1.3c0-2.6,0-5.2,0-7.7c-0.1,0-0.2,0-0.3,0c0,3,0,5.9,0,8.9
						c-1.8,0.1-1.8,0.1-1.8-1.5c0-2.7,0-5.5,0-8.3c1.1,0.1,2.2,0.2,3.2,0.3c0.2,0,0.4,0.4,0.4,0.7c0,1,0,2,0.1,3c0-1.1,0-2.2,0-3.3
						c0.1,0,0.2,0,0.3,0c0,3.1,0,6.1,0,9.2l0,0c0-0.9,0-1.8,0-2.7C376.2,119.3,376.2,119.2,376.1,119.2z"/>
					<path d="M374.6,178.8c-0.8-0.3-1.7,0.3-2.1-0.6c-0.5,1-1.5,0.2-2.4,0.5c0-0.9-0.1-1.6-0.1-2.2c0.4-0.4,0.7-0.7,1-1
						c-0.3-0.3-0.6-0.5-0.9-0.8c0-0.7,0-1.5,0-2.4c0.7,0,1.4,0,2.1,0c0,0.5,0.1,1,0.1,1.6c0.3-0.6-0.3-1.6,1-1.6
						c1,0,1.3,0.3,1.3,1.3C374.5,175.2,374.6,176.9,374.6,178.8z"/>
					<path d="M374.7,191.1c-1.6,0-3,0-4.6,0c0-1.9,0-3.7,0-5.6c0.1-0.1,0.1-0.1,0.2-0.1c1.2,0,2.5,0,3.7,0.1c0.3,0,0.7,0.4,0.7,0.6
						C374.8,187.7,374.7,189.4,374.7,191.1z"/>
					<path d="M370.1,202.2c0-1.7,0-3.3,0-5c1.5,0,3,0,4.8,0c0,1.5,0,3,0,4.6c0,0.2-0.4,0.4-0.6,0.4
						C372.9,202.2,371.6,202.2,370.1,202.2z"/>
					<path d="M374.8,202.6c0,1.5,0,3,0,4.6c-1.5,0-3.1,0-4.7,0c0-1.5,0-3,0-4.6C371.7,202.6,373.2,202.6,374.8,202.6z"/>
					<path d="M367.5,111.2c-0.6,0-1.2-0.1-1.8-0.1c0-3.5,0-7,0-10.5c0.6,0.1,1.1,0.1,1.8,0.2C367.6,104.2,367.6,107.6,367.5,111.2z"
						/>
					<path d="M375,221.5c0.7-0.8,1.6-0.5,2.4-0.3c0.2,0,0.4,0.8,0.5,1.2c0.1,0.7,0,1.4,0,2.4c-1.7,0.1-3.3,0.1-5.3,0.2
						c0-1.2,0-2.2,0-3.3c0-0.1,0-0.2,0.1-0.3C373.1,220.9,374.8,221.1,375,221.5z"/>
					<path d="M365.6,121.7c0.7,0.1,1.3,0.1,1.9,0.2c0,3.1,0,6.1,0,9.2c-0.7-0.1-1.2-0.1-1.9-0.2
						C365.6,127.9,365.6,124.8,365.6,121.7z"/>
					<path d="M367.5,121.4c-0.7-0.1-1.2-0.1-1.9-0.2c0-3.2,0-6.4,0-9.7c0.6,0.1,1.2,0.1,1.9,0.2
						C367.5,114.9,367.5,118.1,367.5,121.4z"/>
					<path d="M374.4,131.6c0-3.1,0-6.1,0-9.2c0.5,0,1,0.1,1.7,0.2c0,2.2,0,4.3,0,6.4c0.1,0,0.1,0,0.2,0c0-2,0-4.1,0-6.1
						c0.1,0,0.2,0,0.2,0c0,2.9,0,5.8,0,8.7c0-0.2-0.1-0.3-0.1-0.5C376.1,132.3,375.2,131.4,374.4,131.6z"/>
					<path d="M368.1,100.7c0.5,0.1,1.1,0.1,1.7,0.2c0,3.5,0,6.9,0,10.5c-0.6,0-1.1-0.1-1.7-0.1C368.1,107.7,368.1,104.3,368.1,100.7
						z"/>
					<path d="M371.9,121.7c-0.6,0-1.1-0.1-1.8-0.1c0-3.2,0-6.4,0-9.8c0.5,0,1.1,0.1,1.8,0.2C371.9,115.3,371.9,118.5,371.9,121.7z"
						/>
					<path d="M369.8,121.6c-0.7-0.1-1.2-0.1-1.8-0.1c0-3.3,0-6.5,0-9.7c1.8,0,1.8,0,1.8,1.7C369.9,116.1,369.8,118.8,369.8,121.6z"
						/>
					<path d="M365.5,140.1c0-2.9,0-5.8,0-8.7c0.7,0,1.3,0.1,2,0.1c0,2.9,0,5.8,0,8.7C366.8,140.2,366.2,140.1,365.5,140.1z"/>
					<path d="M370.2,100.9c0.6,0.1,1.1,0.1,1.7,0.2c0,3.5,0,6.9,0,10.5c-0.6-0.1-1.1-0.1-1.7-0.2
						C370.1,107.9,370.2,104.5,370.2,100.9z"/>
					<path d="M372,140.4c-0.6,0-1.2,0-1.9,0c0-2.9,0-5.7,0-8.7c0.6,0,1.2,0.1,1.9,0.1C372,134.7,372,137.5,372,140.4z"/>
					<path d="M372.4,217c0,2.6,0,5.2,0,7.9c-0.7,0-1.4,0-2.2,0c0-1.2,0-2.3,0-3.6c0.6,0,1.1-0.1,1.7-0.1c0-0.1-0.1-0.2-0.1-0.2
						c-1.7-0.2-1.7-0.2-1.7-1.9c0-0.7,0-1.3,0-2.1C370.9,217,371.6,217,372.4,217z"/>
					<path d="M367.4,148.8c-0.7,0-1.3-0.1-2-0.1c0-2.7,0-5.4,0-8.2c0.7,0,1.3,0.1,2,0.1C367.4,143.3,367.4,146,367.4,148.8z"/>
					<path d="M367.4,156.9c-0.8-0.1-1.4-0.1-2.1-0.2c0-2.5,0-5,0-7.6c0.7,0,1.4,0.1,2.1,0.1C367.4,151.8,367.4,154.3,367.4,156.9z"
						/>
					<path d="M368,122c1.8-0.1,1.8-0.1,1.8,1.7c0,2.5,0,5,0,7.6c-0.6,0-1.2-0.1-1.8-0.1C368,128.1,368,125.1,368,122z"/>
					<path d="M371.9,131.3c-0.2,0-0.3,0-0.4,0c-1.5,0-1.5,0-1.5-1.5c0-2.5,0-5.1,0-7.7c0.7,0,1.2,0.1,1.9,0.1
						C372,125.3,372,128.3,371.9,131.3z"/>
					<path d="M376.6,148.9c0-1.9,0-3.7,0-5.6h-0.1c0,2,0,3.9,0,5.9c-0.6,0-1.1,0-1.9,0c0-2.7,0-5.4,0-8.1c0.4,0,1-0.1,1.4,0
						c0.3,0.1,0.7,0.5,0.7,0.8c0,2.3,0,4.6,0,6.9C376.7,148.9,376.6,148.9,376.6,148.9z"/>
					<path d="M375.3,228.1c-0.6,0.9-1.6,0.3-2.5,0.7c0-1.2,0-2.3,0-3.5c1.5,0,3-0.1,4.5-0.1c0.2,0,0.5,0.4,0.6,0.7
						c0.1,0.8,0,1.6,0,2.4C376.7,228.8,375.6,228.7,375.3,228.1z"/>
					<path d="M376.5,149.7c0,0.6,0,1,0,1.4c0,0,0,0,0.1,0c0-0.4,0.1-0.7,0.1-1.1c0.1,0,0.2,0,0.4,0c0,1,0,1.9,0,2.9
						c0,1.1,0,2.2,0,3.3c0,1-0.5,1.2-1.4,1.1c-0.3,0-0.6-0.1-0.9-0.1c0-2.5,0-5,0-7.7C375.3,149.6,375.9,149.6,376.5,149.7z"/>
					<path d="M365.3,157.2c0.8,0,1.4,0,2.1,0c0,2.4,0,4.8,0,7.3c-0.7,0-1.4-0.1-2.1-0.1C365.3,162,365.3,159.6,365.3,157.2z"/>
					<path d="M372.3,131.4c0-3.1,0-6,0-9.1c0.5,0,1.1,0.1,1.7,0.1c0,3,0,6,0,9.1C373.5,131.5,373,131.4,372.3,131.4z"/>
					<path d="M374.7,157.6c0.4,0,0.7,0,0.9,0c1-0.1,1.4,0.3,1.3,1.4c-0.1,1.6-0.1,3.3-0.1,4.9c0,0.7-0.2,1-1,1c-0.7,0-1.3,0-1.3-1
						C374.7,161.9,374.7,159.8,374.7,157.6z"/>
					<path d="M369.7,140.3c-0.6,0-1.2-0.1-1.9-0.1c0-2.9,0-5.7,0-8.6c0.6,0,1.2,0,1.9,0C369.8,134.6,369.7,137.4,369.7,140.3z"/>
					<path d="M375.3,230c-0.1,2.6,0.5,2.2-2.5,2.3c0-1,0-2.1,0-3.3c1.7,0,3.3,0,5.2,0c0,0.8,0,1.7,0,2.6c0,0.2-0.3,0.5-0.5,0.5
						c-0.4,0.1-0.8,0-1.2,0.1c-0.7,0.1-1.1-0.1-1-0.9C375.3,230.8,375.3,230.4,375.3,230z"/>
					<path d="M365.2,171.7c0-2.3,0-4.5,0-6.8c0.7,0,1.4,0,2.2,0c0,2.3,0,4.5,0,6.8C366.6,171.7,365.9,171.7,365.2,171.7z"/>
					<path d="M367.8,148.8c0-2.7,0-5.4,0-8.2c0.6,0,1.2,0.1,1.9,0.1c0,2.8,0,5.5,0,8.2C369.1,148.9,368.5,148.8,367.8,148.8z"/>
					<path d="M374.2,149.2c-1.9,0-1.9,0-1.9-1.7c0-2.1,0-4.3,0-6.4c1.6-0.4,1.9-0.2,1.9,1.4C374.3,144.7,374.3,146.9,374.2,149.2z"
						/>
					<path d="M374.1,140.6c-0.6-0.1-1.1-0.1-1.8-0.2c0-2.9,0-5.7,0-8.6c0.6,0,1.1,0.1,1.8,0.1C374.2,134.8,374.1,137.7,374.1,140.6z
						"/>
					<path d="M372,149c-0.6,0-1.2-0.1-1.9-0.1c0-0.9,0-1.8,0-2.7c0.4-0.3,0.8-0.7,1.2-1.1c-0.1-0.1-0.1-0.2-0.2-0.3
						c-0.3,0-0.7-0.1-1.1-0.2c0-1.3,0-2.6,0-4c0.6,0.1,1.2,0.1,1.9,0.2C372.1,143.6,372.1,146.3,372,149z"/>
					<path d="M369.7,164.6c-0.7,0-1.3-0.1-1.9-0.1c0-2.4,0-4.8,0-7.2c0.6,0,1.2,0.1,1.9,0.1C369.8,159.8,369.7,162.2,369.7,164.6z"
						/>
					<path d="M365.2,172.1c0.7,0,1.4,0,2.2,0c0,2.2,0,4.3,0,6.5c-0.7,0-1.4-0.1-2.2-0.1C365.2,176.4,365.2,174.3,365.2,172.1z"/>
					<path d="M374.8,172.4c0.6,0,1.1-0.1,1.5,0c0.3,0.1,0.7,0.5,0.7,0.7c0.1,1.8,0,3.7,0,5.7c-0.5,0-1.1,0-1.7,0
						c-0.2,0-0.6-0.4-0.6-0.6C374.8,176.3,374.8,174.3,374.8,172.4z"/>
					<path d="M370.2,157.4c0.7,0,1.3,0.1,2,0.1c0,2.4,0,4.7,0,7.1c-0.6,0-1.3,0-2,0c0-0.9,0-1.8,0-2.7c0.2-0.1,0.5-0.3,0.8-0.4
						c0-0.1,0-0.1-0.1-0.2c-0.2,0-0.4,0-0.7,0C370.2,160,370.2,158.8,370.2,157.4z"/>
					<path d="M374.5,132.1c1.8-0.1,1.8-0.1,1.8,1.6c0,2.3,0,4.6,0,7.1c-0.6,0-1.1-0.1-1.8-0.1C374.5,137.8,374.5,135,374.5,132.1z"
						/>
					<path d="M374.8,171.9c0-2.3,0-4.4,0-6.6c1.8-0.4,2.1-0.2,2.1,1.6c0,1.2,0.1,2.5,0.1,3.7c0.1,1.3,0,1.4-1.4,1.4
						C375.4,172,375.1,172,374.8,171.9z"/>
					<path d="M370.2,149.3c0.7,0,1.3,0.1,1.9,0.1c0,2.5,0,5,0,7.7c-0.6,0-1.3-0.1-1.9-0.2C370.1,154.4,370.2,151.9,370.2,149.3z"/>
					<path d="M367.9,149.2c0.6,0,1.2,0.1,1.9,0.1c0,2.6,0,5.1,0,7.6c-0.6,0-1.2,0-1.9,0C367.9,154.3,367.9,151.8,367.9,149.2z"/>
					<path d="M374.3,157.1c-0.6,0-1.1,0-1.8,0c0-2.5,0-5.1,0-7.6c0.5,0,1.1,0,1.8,0C374.3,152.1,374.3,154.6,374.3,157.1z"/>
					<path d="M365.1,178.9c0.8,0,1.4,0,2.2,0c0,2,0,4,0,6c-0.8,0-1.4,0-2.2,0C365.1,182.9,365.1,181,365.1,178.9z"/>
					<path d="M369.7,171.7c-0.7,0-1.3,0-2,0c0-2.3,0-4.5,0-6.8c0.6,0,1.2,0,2,0C369.8,167.2,369.7,169.5,369.7,171.7z"/>
					<path d="M372.2,171.9c-0.7,0-1.3-0.1-2-0.1c0-2.3,0-4.5,0-6.8c0.7,0,1.3,0.1,2,0.1C372.2,167.3,372.2,169.6,372.2,171.9z"/>
					<path d="M372.5,165.2c0.7,0,1.3,0,2,0c0,2.3,0,4.4,0,6.8c-0.5,0-0.9,0-1.4,0c-0.2,0-0.5-0.3-0.5-0.5
						C372.4,169.3,372.5,167.2,372.5,165.2z"/>
					<path d="M374.4,164.7c-0.6,0-1.2,0-1.9,0c0-2.4,0-4.8,0-7.2c0.6,0,1.2,0.1,1.9,0.1C374.4,160,374.4,162.3,374.4,164.7z"/>
					<path d="M369.7,178.6c-0.7,0-1.3,0-2,0c0-2.1,0-4.2,0-6.4c0.6,0,1.3,0,2,0C369.8,174.3,369.8,176.4,369.7,178.6z"/>
					<path d="M365.1,185.3c0.8,0,1.4,0,2.2,0c0,1.9,0,3.8,0,5.7c-0.8,0-1.4,0-2.2,0C365.1,189.1,365.1,187.3,365.1,185.3z"/>
					<path d="M377.3,191c-0.1,0-0.1,0.1-0.2,0.1c-2.1,0.3-2.2,0.3-2.2-1.9c0-1.1,0-2.3,0-3.4c0-0.1,0-0.1,0.1-0.2
						c0.1,0,0.1-0.1,0.2-0.1c2.1-0.2,2.2-0.2,2.2,2C377.3,188.7,377.3,189.8,377.3,191z"/>
					<path d="M369.8,179c0,2,0,4,0,6c-0.7,0-1.3,0-2,0c0-2,0-4,0-6C368.4,179,369.1,179,369.8,179z"/>
					<path d="M367.3,191.4c0,1.8,0,3.5,0,5.3c-0.8,0-1.5,0-2.3,0c0-1.8,0-3.5,0-5.3C365.8,191.4,366.5,191.4,367.3,191.4z"/>
					<path d="M360.5,235.7c-0.6,0.6-1.2,1.2-1.8,1.8c-5.3,6-6.8,12.8-4.4,20.4c1.5,4.5,4.3,7.9,8.8,9.8c0.2,0.1,0.4,0.3,0.6,0.5
						c-2.6-0.8-4.8-2.3-6.5-4.4c-4.6-5.8-5.4-12.2-3.2-19.1c1-3.1,2.7-5.8,5-8C359.5,236.4,360.1,236.1,360.5,235.7
						C360.5,235.8,360.5,235.7,360.5,235.7z"/>
					<path d="M365.3,87.3c0.7,3.8,1.4,7.6,2.2,11.6c-0.6-0.1-1.1-0.1-1.8-0.2c-0.3-3.9-0.5-7.7-0.8-11.5
						C365,87.3,365.1,87.3,365.3,87.3z"/>
					<path d="M364.9,202.6c0.8,0,1.5,0,2.3,0c0,1.5,0,3.1,0,4.7c-0.8,0-1.5,0-2.3,0C364.9,205.8,364.9,204.2,364.9,202.6z"/>
					<path d="M369.7,191.1c-0.7,0-1.3,0-2,0c0-1.9,0-3.7,0-5.7c0.7,0,1.3,0,2,0C369.8,187.3,369.7,189.1,369.7,191.1z"/>
					<path d="M375.1,197.2c0.8,0,1.6,0,2.4,0c0,1.6,0,3.2,0,4.9c-0.7,0-1.5,0-2.4,0C375.1,200.5,375.1,198.9,375.1,197.2z"/>
					<path d="M377.5,207.1C377.5,207.1,377.5,207.2,377.5,207.1c-2.3,0.5-2.5,0.4-2.5-1.9c0-0.8,0-1.7,0-2.6c0.9,0,1.7,0,2.5,0
						C377.5,204.1,377.5,205.6,377.5,207.1z"/>
					<path d="M364.9,202.1c0-1.7,0-3.3,0-4.9c0.8,0,1.5,0,2.3,0c0,1.6,0,3.2,0,4.9C366.5,202.1,365.8,202.1,364.9,202.1z"/>
					<path d="M369.8,197.2c0,1.6,0,3.3,0,4.9c-0.8,0-1.4,0-2.1,0c0-1.7,0-3.2,0-4.9C368.3,197.2,369,197.2,369.8,197.2z"/>
					<path d="M369.7,196.8c-0.7,0-1.4,0-2.1,0c0-1.8,0-3.5,0-5.3c0.7,0,1.3,0,2.1,0C369.8,193.2,369.7,195,369.7,196.8z"/>
					<path d="M367.2,212.1c-0.8,0-1.6,0-2.4,0c0-1.5,0-2.9,0-4.4c0.8,0,1.6,0,2.4,0C367.2,209.1,367.2,210.6,367.2,212.1z"/>
					<path d="M369.8,202.6c0,1.6,0,3.1,0,4.7c-0.7,0-1.4,0-2.2,0c0-1.6,0-3.1,0-4.7C368.3,202.6,369,202.6,369.8,202.6z"/>
					<path d="M367.2,212.5c0,1.3,0,2.7,0,4.1c-0.8,0-1.6,0-2.4,0c0-1.3,0-2.7,0-4.1C365.6,212.5,366.3,212.5,367.2,212.5z"/>
					<path d="M367.7,207.6c0.7,0,1.4,0,2.1,0c0,1.5,0,2.9,0,4.4c-0.7,0-1.3,0-2.1,0C367.6,210.6,367.7,209.2,367.7,207.6z"/>
					<path d="M377.8,216.5c-0.9,0-1.7,0-2.6,0c0-1.3,0-2.6,0-3.9c0,0,0-0.1,0.1-0.1c2.4-0.3,2.5-0.3,2.5,2.1
						C377.8,215.1,377.8,215.7,377.8,216.5z"/>
					<path d="M367.6,212.5c0.7,0,1.4,0,2.2,0c0,1.3,0,2.7,0,4.1c-0.7,0-1.4,0-2.2,0C367.6,215.2,367.6,213.9,367.6,212.5z"/>
					<path d="M370.1,216.6c0-1.4,0-2.7,0-4.1c0.8,0,1.5,0,2.3,0c0,1.4,0,2.7,0,4.1C371.6,216.6,370.9,216.6,370.1,216.6z"/>
					<path d="M364.8,217.1c0.8,0,1.5,0,2.4,0c0,1.2,0,2.5,0,3.9c-0.8,0-1.5,0-2.4,0C364.8,219.6,364.8,218.4,364.8,217.1z"/>
					<path d="M377.8,220.7c-0.7,0-1.4,0.1-2.1,0.1c-0.2,0-0.5-0.4-0.5-0.6c-0.1-1.1,0-2.1,0-3.3c0.9,0,1.7,0,2.6,0
						C377.8,218.2,377.8,219.4,377.8,220.7z"/>
					<path d="M372.7,212.3c0.8,0.1,2.1,0.1,2.2,0.3c0.2,1.2,0.3,2.4,0,3.6c-0.1,0.3-1.4,0.3-2.2,0.5
						C372.7,215.2,372.7,213.9,372.7,212.3z"/>
					<path d="M369.8,220.9c-0.7,0-1.4,0-2.1,0c0-1.2,0-2.5,0-3.9c0.7,0,1.4-0.1,2.1-0.1C369.8,218.2,369.8,219.5,369.8,220.9z"/>
					<path d="M367.2,221.3c0,1.3,0,2.5,0,3.7c-0.8,0-1.6,0-2.4,0c0-1.2,0-2.3,0-3.6C365.5,221.3,366.3,221.3,367.2,221.3z"/>
					<path d="M372.5,212c-0.9,0-1.6,0-2.4,0c0-0.4-0.1-0.9-0.1-1.1c0.4-0.4,0.7-0.7,1-1c-0.3-0.3-0.6-0.5-1-0.9c0-0.3,0-0.8,0-1.3
						c0.1-0.1,0.2-0.1,0.2-0.1c2.6,0,2.1-0.3,2.2,2.1C372.5,210.5,372.5,211.2,372.5,212z"/>
					<path d="M375,220.9c-0.8-0.1-2.2-0.1-2.2-0.3c-0.2-1.1-0.2-2.3,0-3.5c0.1-0.3,1.4-0.3,2.2-0.4C375,218.2,375,219.4,375,220.9z"
						/>
					<path d="M369.8,221.3c0,1.2,0,2.4,0,3.7c-0.7,0-1.4,0-2.3,0c0-1,0-2.1,0-3.2c0-0.2,0.3-0.4,0.5-0.5
						C368.6,221.2,369.1,221.2,369.8,221.3z"/>
					<path d="M364.7,225.4c0.9,0,1.6,0,2.5,0c0,1.1,0,2.1,0,3.3c-0.8,0-1.6,0-2.5,0C364.7,227.7,364.7,226.6,364.7,225.4z"/>
					<path d="M358.9,241.7c-4.6,9.2-4,17.1,4.9,23.1C355.5,261.5,353.5,249.1,358.9,241.7z"/>
					<path d="M364.7,229.3c0.8,0,1.6-0.1,2.5-0.1c0,1.2,0,2.2,0,3.3c-0.8,0-1.6,0-2.5,0C364.7,231.4,364.7,230.4,364.7,229.3z"/>
					<path d="M370.2,228.6c0-1.1,0-2.2,0-3.3c0.7,0,1.4,0,2.2,0c0,0.4,0.1,0.8,0.1,1.2C372.7,228.8,372.6,228.9,370.2,228.6z"/>
					<path d="M367.6,228.7c0-1.1,0-2.2,0-3.3c0.8,0,1.4,0,2.2,0c0,1.1,0,2.1,0,3.3C369,228.7,368.4,228.7,367.6,228.7z"/>
					<path d="M364.1,295.1c0-0.5,0-0.9,0-1.3c-0.1-1,0.2-1.6,1.4-1.6c0.5,0,1.3-0.1,1.4,0.1c0.2,0.6,0.2,1.4,0.2,2.1
						c0,0.1-0.3,0.3-0.6,0.4C365.7,294.9,365,295,364.1,295.1z"/>
					<path d="M370.2,232.3c0-1.1,0-2.1,0-3.2c0.7,0,1.4-0.1,2.4-0.1c0,1,0,2,0,2.9c0,0.2-0.4,0.4-0.6,0.4
						C371.4,232.4,370.8,232.3,370.2,232.3z"/>
					<path d="M369.7,232.4c-0.8,0-1.4,0-2.2,0c0-0.4-0.1-0.7-0.1-1c0-0.7,0-1.4,0-2.2c0.8,0,1.5,0,2.2,0
						C369.7,230.2,369.7,231.3,369.7,232.4z"/>
					<path d="M370.2,294.2c0-0.5-0.1-0.8-0.1-1.2c0-1.1,1.4-2.1,2.3-1.4c0.4,0.3,0.4,1.1,0.4,1.6c0,0.2-0.4,0.6-0.7,0.7
						C371.6,294.1,371,294.1,370.2,294.2z"/>
					<path d="M367.2,294.7c0.2-1,0.1-2,0.5-2.6c0.2-0.3,1.6-0.4,1.9-0.1c0.4,0.5,0.3,1.4,0.5,2.2
						C369.1,294.4,368.3,294.5,367.2,294.7z"/>
					<path d="M370.4,264.7c-0.6-3-0.4-2.8,2.2-2.8C373.1,264,372.9,264.3,370.4,264.7z"/>
					<path d="M367.5,264.8c0-0.9,0-1.6,0-2.6c0.8,0,1.5-0.1,2.3-0.1c0,0.9,0,1.8,0,2.7C369,264.8,368.3,264.8,367.5,264.8z"/>
					<path d="M367,262.4c0,0.8,0,1.5,0,2.3c-1.8,0.1-2.7-0.4-2.7-1.3C364.3,262.3,364.6,262.2,367,262.4z"/>
					<path d="M344,352.4c5.2,1,10.5,0.1,15.7-0.1C354.5,353,349.3,353.4,344,352.4z"/>
					<path d="M319.8,326.4c-0.9-3.8-0.7-8.7-0.6-12.3C319.4,317.6,319.6,322.5,319.8,326.4z"/>
					<path class="st10" d="M337.2,350.5c-0.2,0.1-0.5,0.3-0.6,0.2c-2-1.2-4-2.4-5.9-3.6c0,0,0-0.1,0-0.2l0,0c0.2,0,0.4,0,0.6,0
						C333.2,348.1,335.2,349.3,337.2,350.5z"/>
					<path d="M376.3,101.7c0,3.4,0,6.7,0,10.1c-0.1,0-0.1,0-0.2,0c0-3.4,0-6.7,0-10.1C376.2,101.7,376.3,101.7,376.3,101.7z"/>
					<path class="st10" d="M328.1,283.1c-0.1-0.2-0.2-0.4-0.2-0.5c0.9-1.6,1.8-3.1,2.7-4.7c0.1,0,0.1,0,0.2,0
						C330,279.7,329,281.4,328.1,283.1z"/>
					<path d="M407.1,275.3c0.8,1.5,1.6,3.1,2.5,4.6c-0.2,0-0.4,0-0.5-0.1c-0.7-1.4-1.4-2.8-2.1-4.2
						C407,275.6,407.1,275.5,407.1,275.3z"/>
					<path class="st10" d="M378.5,236.7c1.5,0.4,2.3,1.7,3.1,2.9c0,0.1-0.2,0.3-0.2,0.5c-0.8-0.9-1.5-1.7-2.3-2.6
						C378.8,237.2,378.7,236.9,378.5,236.7z"/>
					<path class="st10" d="M330.9,278c-0.1,0-0.1,0-0.2,0c0.8-1.5,1.7-3,2.5-4.4c0-0.1,0.2,0,0.4,0C332.7,275,331.8,276.5,330.9,278
						z"/>
					<path d="M376.7,132.4c0,2.7,0,5.3,0,8h-0.1c0-2.7,0-5.3,0-8C376.6,132.4,376.6,132.4,376.7,132.4z"/>
					<path class="st10" d="M380.1,262.3c-0.5,1.3-1.8,2.3-2.8,2.1C378.3,263.7,379.2,263,380.1,262.3z"/>
					<path d="M364,262.5c0,0.5,0,0.9,0,1.5c-0.7-0.4-1.3-0.8-1.9-1.2c0-0.1,0.1-0.2,0.1-0.3C362.7,262.6,363.3,262.5,364,262.5z"/>
					<path d="M414.7,301.6c0,2.7,0,5.5,0,8.2C414.7,307.1,414.7,304.4,414.7,301.6L414.7,301.6z"/>
					<path d="M331.1,346.9c-0.2,0-0.4,0-0.6,0c-0.7-0.7-1.3-1.4-2-2c-0.3-0.3-0.7-0.5-1-0.8c0.1-0.1,0.2-0.2,0.2-0.2
						C328.9,344.9,330,345.9,331.1,346.9z"/>
					<path d="M322.5,335.4c0.5,1.1,1,2.2,1.5,3.2c-0.1,0-0.1,0.1-0.2,0.1c-0.5-1.1-1.1-2.2-1.6-3.2
						C322.4,335.4,322.5,335.4,322.5,335.4z"/>
					<path d="M382.4,258.7L382.4,258.7c-0.1,0.2-0.2,0.4-0.2,0.6c-0.2,0.1-0.3,0.1-0.5,0.2l0,0C381.9,259.2,382.1,259,382.4,258.7z"
						/>
					<path d="M378.5,236.7c0.2,0.3,0.3,0.5,0.5,0.8C378.8,237.2,378.7,236.9,378.5,236.7L378.5,236.7z"/>
					<path d="M357.8,240.6C357.8,240.7,357.8,240.8,357.8,240.6C357.8,240.8,357.8,240.7,357.8,240.6L357.8,240.6z"/>
					<path d="M381.5,260.3L381.5,260.3L381.5,260.3C381.5,260.4,381.4,260.4,381.5,260.3c-0.1,0.1-0.1,0-0.2,0
						C381.4,260.3,381.4,260.3,381.5,260.3z"/>
					<path d="M381.6,259.9L381.6,259.9c0-0.1,0.1-0.3,0.1-0.4l0,0C381.6,259.6,381.6,259.8,381.6,259.9z"/>
					<path d="M357.8,240.6L357.8,240.6L357.8,240.6z"/>
					<polygon points="378.2,236.5 378.2,236.5 378.2,236.5 378.1,236.5 378.1,236.5 					"/>
					<path class="st10" d="M363.1,75.8c-0.4,0-0.7,0-1.2,0c-0.1,0.3-0.2,0.6-0.5,1.2c-0.4-0.5-0.8-0.8-0.8-1.2
						c0-0.6-0.1-1.4,0.9-1.6c0.3-0.1,0.6-0.3,0.9-0.5c0.3-0.1,0.6-0.3,0.9-0.4c-0.7-3-1.5-6-2.2-9c0.1,0,0.2,0,0.3-0.1
						c0.2,0.7,0.4,1.3,0.6,2c0.5,2.2,1.1,4.4,1.6,6.7c0.2,1-0.2,1.9-1.4,2.3C362.5,75.5,362.8,75.6,363.1,75.8L363.1,75.8z"/>
					<path class="st10" d="M371.9,65.5c0,0,0.2,0.2,0.4,0.3c0,0,0,0.1-0.1,0.1c-0.3-0.1-0.7-0.2-1-0.2c-0.1,0.4-0.2,0.7-0.5,1.5
						c-0.4-0.6-0.8-0.9-0.9-1.2c-0.1-0.6-0.2-1.2,0.6-1.5c0.7-0.2,1.4-0.5,2-0.8c0.1,0.1,0.2,0.2,0.2,0.3
						C372.5,64.5,372.2,64.9,371.9,65.5z"/>
					<path class="st10" d="M361.5,62.5c-0.7,0.9-1.5,1.8-2.4,2.9c-0.2-0.5-0.6-0.9-0.6-1.3c0-0.7,0.2-1.3,1.1-1.4
						c0.6-0.1,1.1-0.4,1.6-0.6C361.3,62.2,361.4,62.4,361.5,62.5z"/>
					<path class="st10" d="M372.8,85.8c0.1,0.4,0.2,1.1,0.3,1.9c0.8-0.2,0.7-1.7,2.2-1.3c-0.9,1.1-1.6,2-2.4,2.9
						C371.2,88.1,373.3,86.7,372.8,85.8z"/>
					<path class="st10" d="M363.9,74.6c0.9,3.7,1.8,7.4,2.8,11.1c-0.1,0-0.2,0-0.3,0.1c-0.9-3.7-1.8-7.4-2.7-11.1
						C363.7,74.6,363.8,74.6,363.9,74.6z"/>
					<path class="st10" d="M378.1,236.3c-0.1-0.5-0.1-0.9-0.2-1.4c0.1,0,0.2-0.1,0.3-0.1c0.5,0.4,1.1,0.8,1.8,1.4
						C379.2,236.3,378.7,236.3,378.1,236.3C378.1,236.4,378.1,236.3,378.1,236.3z"/>
					<path class="st10" d="M381.6,259.9c0-0.1,0.1-0.3,0.1-0.4c0.2-0.1,0.3-0.1,0.5-0.2l0,0c0.1,0.1,0.2,0.1,0.3,0.2
						c-0.1,0.2-0.3,0.4-0.4,0.5h0.1l0,0C381.9,260,381.7,259.9,381.6,259.9z"/>
					<path class="st10" d="M382.1,259.3c0.1-0.2,0.1-0.4,0.2-0.6c0,0.2,0,0.5,0,0.7C382.3,259.4,382.2,259.3,382.1,259.3
						L382.1,259.3z"/>
					<path d="M378.1,236.4C378.1,236.4,378.2,236.5,378.1,236.4c0,0.1,0,0.1,0,0.1C378.1,236.4,378.1,236.4,378.1,236.4L378.1,236.4
						z"/>
					<path d="M382,260v-0.1V260z"/>
					<path d="M382.1,259.3c0.1,0.1,0.2,0.1,0.3,0.2l0,0C382.3,259.4,382.2,259.3,382.1,259.3z"/>
					<polygon points="381.5,260.3 381.5,260.4 381.5,260.4 					"/>
				</g>
			</g>
		</g>
		<g id="main_text" class="st0">
			<g class="st1">
				<path class="st11" d="M79.5,126.9V188H59l-23.8-45.4v39.6h5.6v5.8H19.7v-5.8h5.9v-55.3h-5.9V121h28.2l22,43.1v-37.2H64V121h21.7
					v5.9H79.5z"/>
				<path class="st11" d="M94.8,188v-5.8h5.9v-55.3h-5.9V121h58.4v18.5h-15.4v-12.6H124v24.3h6.8v-6.5h12.1v18.6h-12.1v-6.7H124
					v25.5h13.8v-13.9h15.4V188H94.8z"/>
				<path class="st11" d="M222.6,126.9L203.5,188h-18.7l-19.9-61.1h-5.2V121h35.9v5.9H190l11.5,42.1l11.2-42.1h-5.8V121h19.9v5.9
					H222.6z"/>
				<path class="st11" d="M232.6,188v-5.8h5.9v-55.3h-5.9V121H291v18.5h-15.4v-12.6h-13.8v24.3h6.8v-6.5h12.1v18.6h-12.1v-6.7h-6.8
					v25.5h13.8v-13.9H291V188H232.6z"/>
				<path class="st11" d="M339.2,188v-21.4c0-1.8-0.1-3.3-0.4-4.5s-0.8-2.1-1.7-2.7c-0.8-0.7-1.9-1.1-3.2-1.4
					c-1.3-0.3-3.1-0.4-5.3-0.4h-1.7v24.6h6.6v5.8h-35.9v-5.8h5.9v-55.3h-5.9V121h29.2c7.1,0,13,0.3,17.7,0.8
					c4.7,0.6,8.4,1.5,11.2,2.9c2.8,1.4,4.8,3.3,5.9,5.6c1.2,2.4,1.7,5.3,1.7,8.8c0,4.3-1.3,7.6-3.8,9.8s-6.9,3.9-13.2,5.1
					c3.4,0.7,6.1,1.5,8.3,2.2c2.2,0.8,3.8,1.7,5,2.8s2,2.6,2.4,4.2c0.4,1.7,0.6,3.8,0.6,6.3v12.6h5.6v5.8L339.2,188L339.2,188z
					 M339.2,134.1c0-1.6-0.1-2.8-0.4-3.8c-0.2-0.9-0.8-1.7-1.7-2.2c-0.9-0.5-2.1-0.8-3.8-1c-1.6-0.2-3.8-0.2-6.6-0.2v25.2
					c2.3,0,4.3-0.1,5.9-0.2c1.6-0.1,2.9-0.4,3.8-0.8c1-0.4,1.7-1,2.1-1.9c0.4-0.8,0.6-1.9,0.6-3.3v-11.8
					C339.1,134.1,339.2,134.1,339.2,134.1z"/>
			</g>
			<g id="Layer_18" class="st1">
				<path class="st11" d="M65.2,282l-16.8,36v21H56v6H17.5v-6h6.8v-19.5L5.3,282H0v-6.1h38.1v6.1h-5.9l11.1,25.7L54.8,282h-6.3v-6.1
					H71v6.1H65.2z"/>
				<path class="st11" d="M141.9,326.8c-1.6,4.5-3.9,8.2-6.8,11c-3,2.8-6.5,4.8-10.6,6.1c-4.1,1.2-8.8,1.9-13.9,1.9
					c-22.7,0-34-11.8-34-35.4c0-6.5,0.8-12,2.4-16.5c1.6-4.5,3.9-8.1,6.8-10.9c3-2.8,6.5-4.8,10.7-6s8.9-1.8,14-1.8
					c6.9,0,12.5,1.1,16.9,3.3s7.8,5,10.3,8.4s4.2,7.2,5.2,11.4c0.9,4.2,1.4,8.3,1.4,12.2C144.3,316.8,143.5,322.3,141.9,326.8z
					 M118,290.7c0-3.8-0.6-6.4-1.7-7.8c-1.1-1.4-3.1-2.1-5.9-2.1c-3,0-5,0.7-6.1,2.1s-1.7,4-1.7,7.8v39.6c0,3.7,0.6,6.3,1.7,7.7
					c1.1,1.4,3.1,2.1,6.1,2.1c2.8,0,4.8-0.7,5.9-2.1c1.1-1.4,1.7-4,1.7-7.7V290.7z"/>
				<path class="st11" d="M218.3,282v41.5c0,4.1-0.5,7.6-1.5,10.4s-2.6,5.1-4.9,6.9s-5.2,3-8.8,3.8c-3.6,0.8-7.9,1.2-13.1,1.2
					c-10.8,0-18.8-1.7-23.8-5.1s-7.6-8.8-7.6-16.1V282h-6.3v-6.1h38.4v6.1h-7.6v42.5c0,2.8,0.2,5.2,0.6,7c0.4,1.9,1,3.3,1.9,4.3
					s2.2,1.8,3.9,2.2c1.7,0.4,3.8,0.6,6.4,0.6c2.5,0,4.5-0.2,6-0.6s2.7-1.1,3.5-2.2s1.4-2.6,1.7-4.5c0.3-1.9,0.5-4.4,0.5-7.5V282
					h-7.8v-6.1h24.6v6.1H218.3z"/>
				<path class="st11" d="M295.9,282v63h-21.6l-25.1-46.8V339h5.9v6h-22.3v-6h6.3v-57h-6.3v-6.1h29.7l23.3,44.4V282h-6.3v-6.1h22.9
					v6.1H295.9z"/>
				<path class="st11" d="M376.4,316.7v28.2H369l-2.4-4.8c-3.3,2-6.5,3.5-9.6,4.3s-6.6,1.3-10.5,1.3c-11.1,0-19.5-3-25.3-8.9
					s-8.7-14.7-8.7-26.1c0-5.5,0.7-10.5,2.2-14.9s3.6-8.2,6.5-11.2c2.8-3.1,6.2-5.4,10.3-7.1c4-1.7,8.5-2.5,13.6-2.5
					c3.8,0,7.3,0.4,10.4,1.2c3.1,0.8,6.5,2.1,10.1,4l2.4-4.2h8.5v21h-17.2v-8.4c0-0.9-0.2-1.8-0.5-2.7c-0.3-0.9-0.9-1.8-1.7-2.6
					c-0.8-0.8-1.8-1.4-3.1-1.9c-1.3-0.5-2.9-0.8-4.9-0.8c-3.7,0-6.3,1-7.9,3.1c-1.5,2.1-2.3,5.6-2.3,10.7v33.5
					c0,2.2,0.1,4.1,0.4,5.5c0.2,1.4,0.6,2.6,1.2,3.4s1.3,1.4,2.3,1.7c1,0.3,2.2,0.5,3.7,0.5c2.5,0,4.2-0.6,5.1-1.9s1.4-3.5,1.4-6.8
					v-13.5h-7v-5.7h38v5.7h-7.6V316.7z"/>
			</g>
			<g id="Layer_19" class="st1">
				<path class="st11" d="M158.3,247.5c-1.6,4.7-3.9,8.4-6.9,11.3c-3,2.8-6.7,4.8-11.1,6c-4.4,1.2-9.5,1.8-15.2,1.8h-29v-6h5.6
					v-57.4H96V197h30.4c5.6,0,10.6,0.6,14.8,1.8c4.3,1.2,7.9,3.1,10.7,5.8c2.9,2.6,5,6.1,6.5,10.2c1.5,4.2,2.2,9.2,2.2,15.1
					C160.7,237,159.9,242.8,158.3,247.5z M137.1,216.9c-0.1-3.5-0.5-6.2-1.3-8.2s-2-3.5-3.7-4.3s-4.1-1.2-7.2-1.2h-1.3v57.4h3
					c2.3,0,4.2-0.3,5.6-1c1.4-0.6,2.5-2,3.3-4.2c0.8-2.1,1.3-5.2,1.5-9.2s0.3-9.4,0.3-16.2C137.2,224.7,137.2,220.3,137.1,216.9z"/>
				<path class="st11" d="M169.9,266.6v-6h5.6v-57.4h-5.6V197h33.2v6.1h-5.6v57.4h5.6v6h-33.2L169.9,266.6L169.9,266.6z"/>
				<path class="st11" d="M211.8,266.6v-6h5.6v-57.4h-5.6V197h55.1v19.1h-14.5v-13h-13v25.3h6.4v-6.7h11.4V241h-11.4v-6.9h-6.4v26.5
					h13v-14.5h14.5v20.5H211.8z"/>
			</g>
		</g>
		<g id="SUBTEXT">
			<g id="text">
				<path class="st12" d="M155,345.3c0,0,1.3,0,2-2.3l4-11.6c0.5-1.6,0.4-2.2,0-3.2c0.7,0,1.4,0,2.1,0c2.1,0,2.5,0.2,3.2,2.3
					l4.1,12.5c0.8,2.4,1.9,2.3,1.9,2.3v0.3h-7.8v-0.3c0,0,1.7-0.1,0.8-2.8l-1.1-3.4h-5c-0.4,1-0.7,2.1-1.1,3.1c-1,3,0.7,3,0.7,3v0.3
					h-4v-0.2L155,345.3L155,345.3z M163.9,338l-2.1-6.5l-2.1,6.5H163.9z"/>
				<path class="st12" d="M186,332.9h-0.3l0.4-4.6h14.1l0.3,4.8h-0.3c0,0-0.2-3.7-2.7-3.7h-2.2v13.8c0,2.3,2,2.3,2,2.3v0.3h-8.5
					v-0.3c0,0,1.9-0.2,1.9-2.3v-13.8h-1.9C186.3,329.2,186.2,332.9,186,332.9z"/>
				<path class="st12" d="M224.7,346.4c0,0-1.5,3.8-5.7,3.8c-4.1,0-6.4-5-7.5-7.9c-0.5-1.3-1-3-2.4-3.7c-0.8,0.1-1.6,0-1.6,0v4.5
					c0,2.1,1.7,2.3,1.7,2.3v0.3h-7.8v-0.3c0,0,1.5-0.1,1.5-2.3v-4.4c-1.8,0.1-2.7,0.7-2.7,1.9c0,0.9,0.5,1.8,1.5,1.9
					c-0.6,1-4.7,1.3-4.7-1.7c0-2.9,4-3,5.8-3h4.6c0.7,0,1.2,0,1.6-0.1c1.8-0.4,2.7-2,2.7-4.2c0-3-1.8-5.3-4.4-4.3v8h-4.6v-6
					c0-2.3-1.5-2.3-1.5-2.3v-0.4h8.2c1.6,0,2.9,0.2,3.9,0.5c2,0.7,3,2.2,3,4.4c0,2.2-1.1,3.9-3.2,4.6c-1,0.3-1.9,0.5-2.2,0.5
					C217.3,339.3,216.1,349.2,224.7,346.4z"/>
				<path class="st12" d="M219.2,328.5v-0.3h7.7v0.3c-0.6,0-1.6,0.6-1.6,1.9v13.1c0,1.5,1.2,1.9,1.6,1.9v0.3h-7.7v-0.3
					c0.4,0,1.6-0.3,1.6-1.9v-13.1C220.8,328.9,219.7,328.5,219.2,328.5z"/>
				<path class="st12" d="M227.9,345.3c0,0,1.8-0.1,1.8-1.8v-13.1c0-2-1.8-1.8-1.8-1.8v-0.4c3,0,6.2,0.1,9.2,0.1
					c2.3,0,4.5,0.5,4.6,3.3c0.1,2-1.3,3.4-3.2,3.4c2.3,0.3,4,2.3,4.1,5c0.2,4.1-2.6,5.6-6.8,5.6h-7.9L227.9,345.3L227.9,345.3z
					 M237.3,331.9c0-1.5-0.9-3-2.2-3c-0.2,0-0.7,0.1-0.9,0.1v5.9C236.3,334.9,237.3,334.1,237.3,331.9z M236,344.5
					c1.6,0,2-1.9,2-4.2c0-2.6-0.8-4.7-2.7-4.7h-1v6.2C234.2,343.3,234.6,344.5,236,344.5z"/>
				<path class="st12" d="M243.2,328.6v-0.4h8.1v0.3c0,0-1.8,0.3-1.8,2.4v8.8c0,3.1,0.8,4.8,3.5,4.8c2.6,0,3.3-2,3.3-4.9v-8.8
					c0-2.4-1.8-2.4-1.8-2.4v-0.3h4.5v0.3c0,0-1.7,0.1-1.7,2.4v8.6c0,4.3-1.9,6.1-5.2,6.1c-3.9,0-7.1-1.2-7.1-6.1v-8.6
					C245,328.7,243.2,328.6,243.2,328.6z"/>
				<path class="st12" d="M260,332.9h-0.3l0.4-4.6h14.1l0.3,4.8h-0.3c0,0-0.2-3.7-2.7-3.7h-2.2v13.8c0,2.3,2,2.3,2,2.3v0.3h-8.5
					v-0.3c0,0,1.9-0.2,1.9-2.3v-13.8h-1.9C260.2,329.2,260.1,332.9,260,332.9z"/>
				<path class="st12" d="M275.5,345.7v-0.3c0,0,1.5,0.1,1.5-1.8v-13.1c0-1.8-1.5-1.8-1.5-1.8v-0.4h13.3l0.1,4h-0.3
					c-0.1-2-0.6-3-1.7-3.2c-0.3-0.1-0.7-0.1-1.2-0.1h-4.1v7.3h3.7c1.3,0,2.1-0.4,2.3-2.3h0.3c-0.1,1.9-0.1,3.7,0,5.5h-0.3
					c-0.2-1.9-0.9-2.3-2.3-2.3h-3.7v5.5c0,0.7,0.1,1.2,0.1,1.5c0.1,0.3,0.3,0.5,0.5,0.6c0.3,0.1,0.7,0.1,1.3,0.1h2.9
					c1.7,0,2.7-1.3,2.9-3.5h0.4l-0.3,4.3L275.5,345.7L275.5,345.7z"/>
				<path class="st12" d="M303,332.9h-0.3l0.4-4.6h14.1l0.3,4.8h-0.3c0,0-0.2-3.7-2.7-3.7h-2.2v13.8c0,2.3,2,2.3,2,2.3v0.3h-8.5
					v-0.3c0,0,1.9-0.2,1.9-2.3v-13.8h-1.9C303.3,329.2,303.2,332.9,303,332.9z"/>
				<path class="st12" d="M318.2,337c0-6.3,3.7-8.9,8.1-8.9s8,3.2,8,8.7s-3.2,8.6-7.6,8.7C322.3,345.7,318.2,343.3,318.2,337z
					 M326,329c-2.8,0-3.1,5.3-3,7.9c0,2.6,0.6,7.8,3.5,7.7c2.9-0.1,3-5.2,2.9-7.8C329.3,334.2,328.9,329,326,329z"/>
				<path class="st12" d="M352.9,344.1c0,5.3-3.1,7.6-5.9,7.6c-2.9,0-4.3-1.3-4.3-2.9s1.4-3.3,4-2.6c-1.5,0.9-1.5,4.7,0.2,4.7
					c1.6,0,1.4-4.1,1.4-6.8v-13.7c0-1.2-0.9-1.9-1.6-1.9v-0.3h7.7v0.3c-0.5,0-1.6,0.3-1.6,1.9L352.9,344.1L352.9,344.1L352.9,344.1z
					"/>
				<path class="st12" d="M352.9,345.3c0,0,1.3,0,2-2.3l4-11.6c0.5-1.6,0.4-2.2,0-3.2c0.7,0,1.4,0,2.1,0c2.1,0,2.5,0.2,3.2,2.3
					l4.1,12.5c0.8,2.4,1.9,2.3,1.9,2.3v0.3h-7.8v-0.3c0,0,1.7-0.1,0.8-2.8l-1.1-3.4h-5c-0.4,1-0.7,2.1-1.1,3.1c-1,3,0.7,3,0.7,3v0.3
					h-4v-0.2L352.9,345.3L352.9,345.3z M361.8,338l-2.1-6.5l-2.1,6.5H361.8z"/>
				<path class="st12" d="M372,345.2c0,0,1.6,0,1.6-1.8v-13.1c0-1.7-1.3-1.9-1.3-1.9v-0.3h5.6l0.5,1.6l2.7,8.4l3-8.3l0.5-1.6h5.4
					v0.3c0,0-1.3,0.4-1.3,2.3l0.1,12.1c0,2.2,1.7,2.3,1.7,2.3v0.3H383v-0.3c0,0,1.3-0.1,1.3-2.3v-11.2l-5,13.9H379l-4.7-13.9v11.7
					c0,2,1.5,1.7,1.5,1.8v0.3h-4v-0.3H372z"/>
				<path class="st12" d="M391.5,345.7v-0.3c0,0,1.5,0.1,1.5-1.8v-13.1c0-1.8-1.5-1.8-1.5-1.8v-0.4h13.3l0.1,4h-0.3
					c-0.1-2-0.6-3-1.7-3.2c-0.3-0.1-0.7-0.1-1.2-0.1h-4.1v7.3h3.7c1.3,0,2.1-0.4,2.3-2.3h0.3c-0.1,1.9-0.1,3.7,0,5.5h-0.3
					c-0.2-1.9-0.9-2.3-2.2-2.3h-3.7v5.5c0,0.7,0.1,1.2,0.1,1.5c0.1,0.3,0.3,0.5,0.5,0.6c0.3,0.1,0.7,0.1,1.3,0.1h2.9
					c1.7,0,2.7-1.3,2.9-3.5h0.4l-0.3,4.3L391.5,345.7L391.5,345.7z"/>
				<path class="st12" d="M407.6,345.7l-0.5-5.1h0.3c0.8,3.7,2.5,4.5,4.1,4.4c1.3,0,2.3-1,2.3-2.5c0-1.6-2-2.7-2.9-3.4
					c-0.9-0.7-1.6-1.3-2-1.7c-1.3-1.2-1.8-2.6-1.9-4.1c-0.1-3.3,2.3-5.1,5.4-5c1.3,0,2,0.3,3.1,1c0.7,0.4,0.9-1,0.9-1h0.2l0.3,4.8
					h-0.2c-0.7-3-2.4-4.1-3.7-4.1c-1.1,0.1-2,0.8-2,2c0,1.6,2,2.8,3,3.5c0.7,0.5,1.4,1,1.9,1.5c1.5,1.4,2.3,3,2.3,4.6
					c0.1,2.8-2,5.3-5.6,5.3C410.8,345.7,409.3,345.7,407.6,345.7z"/>
				<path class="st12" d="M431.7,332.9h-0.3l0.4-4.6h14.1l0.3,4.8h-0.3c0,0-0.2-3.7-2.7-3.7H441v13.8c0,2.3,2,2.3,2,2.3v0.3h-8.5
					v-0.3c0,0,1.9-0.2,1.9-2.3v-13.8h-1.9C431.9,329.2,431.8,332.9,431.7,332.9z"/>
				<path class="st12" d="M443.9,345.3c0,0,1.3,0,2-2.3l4-11.6c0.5-1.6,0.4-2.2,0-3.2c0.7,0,1.4,0,2.1,0c2.1,0,2.5,0.2,3.2,2.3
					l4.1,12.5c0.8,2.4,1.9,2.3,1.9,2.3v0.3h-7.8v-0.3c0,0,1.7-0.1,0.8-2.8l-1.1-3.4h-5c-0.4,1-0.7,2.1-1.1,3.1c-1,3,0.7,3,0.7,3v0.3
					h-4v-0.2L443.9,345.3L443.9,345.3z M452.8,338l-2.1-6.5l-2.1,6.5H452.8z"/>
				<path class="st12" d="M458.1,328.5v-0.3h8.6v0.3c-1.1,0.1-1.4,1-0.2,3.5l2.4,4.8l2.7-5.1c1.2-2.1,1.4-3.1,0.1-3.2v-0.3h3.7v0.3
					c-0.9,0-1.9,1.7-2.6,3l-2.8,5.2c-0.6,1.3-1.1,2.3-1.1,4v2c0,2.6,1.4,2.6,1.4,2.6v0.3h-7.1v-0.3c0,0,1.4,0,1.5-2.2
					c0,0,0.1-1.1,0-2.6c0-1.6-0.3-2.4-1-3.7l-2.8-5.1C460.3,330.4,459.3,328.5,458.1,328.5z"/>
				<path class="st12" d="M476.5,345.7v-0.3c0.9,0.1,1.8-0.9,1.8-2.3V331c0-1.7-0.7-2.5-1.6-2.4v-0.3h7.8v0.3
					c-0.9,0.1-1.6,0.3-1.6,2.4v12.2c0,1.4,0.4,1.9,1.8,1.9h1.9c0.5,0,0.9-0.1,1.3-0.3c0.9-0.5,1.5-2.2,2-3.3h0.3l-1.3,4.3h-12.4
					L476.5,345.7L476.5,345.7z"/>
				<path class="st12" d="M491.2,337c0-6.3,3.7-8.9,8.1-8.9s8,3.2,8,8.7s-3.2,8.6-7.6,8.7C495.3,345.7,491.2,343.3,491.2,337z
					 M499,329c-2.8,0-3.1,5.3-3,7.9c0,2.6,0.6,7.8,3.5,7.7c2.9-0.1,3-5.2,2.9-7.8C502.3,334.2,501.9,329,499,329z"/>
				<path class="st12" d="M531.7,346.4c0,0-1.5,3.8-5.7,3.8c-4.1,0-6.4-5-7.5-7.9c-0.5-1.3-1-3-2.4-3.7c-0.8,0.1-1.6,0-1.6,0v4.5
					c0,2.1,1.7,2.3,1.7,2.3v0.3h-7.8v-0.3c0,0,1.5-0.1,1.5-2.3v-4.4c-1.8,0.1-2.7,0.7-2.7,1.9c0,0.9,0.5,1.8,1.5,1.9
					c-0.6,1-4.7,1.3-4.7-1.7c0-2.9,4-3,5.8-3h4.6c0.7,0,1.2,0,1.6-0.1c1.8-0.4,2.7-2,2.7-4.2c0-3-1.8-5.3-4.4-4.3v8h-4.6v-6
					c0-2.3-1.5-2.3-1.5-2.3v-0.4h8.2c1.6,0,2.9,0.2,3.9,0.5c2,0.7,3,2.2,3,4.4c0,2.2-1.1,3.9-3.2,4.6c-1,0.3-1.9,0.5-2.2,0.5
					C524.3,339.3,523.1,349.2,531.7,346.4z"/>
			</g>
			<g id="lines">
				<line class="st13" x1="111.7" y1="321.7" x2="567.8" y2="321.7"/>
				<line class="st13" x1="111.7" y1="353.7" x2="571" y2="353.7"/>
			</g>
		</g>
		<g id="bottom_scroll">
			<path class="st7" d="M72.4,392.2c2.8,9.3,43.3,9.1,52.6,6.6c40-10.7,80.3-17.9,120.1-28.4c12.8-3.4,25.6-7.6,38.9-8.6
				c8-0.6,25.6,0.2,33.3,2.7c19.4,10.6,18.5,31.5,5.5,47.6c-5.7,7.1-12.9,10.2-22.4,8.9c-9.3-1.3-12.8-7.3-13.9-12.8
				c-10-4.1-18-7.4-26-11c-3.7-1.6-6.6-4.4-10.1-6c-6.6-3-13-2.2-19,1.8c-5,3.3-6.9,7.9-6.3,13.5c0.9,6.2,5.6,9.5,12.8,8.6
				c7.8-1,13.9-6.7,11.7-12.3c-1-2.6-4.8-4.3-8.7-7.4c1.1-1.6,3.8-1.9,6.9-0.1c6.1,3.3,6.9,11.8,1.8,17.4c-5.6,6-19.9,12.5-28.1,8.5
				c-5.4-2.6-8.3-9.3-8.3-18.5c0-8.3,12.5-15,21.9-16.1c7.8-0.9,14.9,0.2,21.4,4.5c6.1,3.9,13,7.1,19.9,9.6
				c4.8,1.8,9.1,0.7,11.9-4.6c1.5-2.8,5.6-4.5,8.8-6.3c0.2-0.1,3.2,2.6,3.7,4.3c1.2,4.7-1.9,7.3-6.3,9c-1.7,0.7-3.8,1.3-5.5,1.9
				c1,10.5,12.9,13.2,19.5,4.4c6.9-9.3,5.5-13.3,4.1-22.5c-2.2-11.6-17.3-15.8-31.8-15.8c-15-0.1-34,3-48.5,6.6
				c-42.2,10.6-64.4,17.2-106.6,28.4c-10.6,2.8-21.7,5.1-32.5,5.5c-14.7,0.6-37.8-8.2-37.9-21.9c-0.1-7.8,1.1-12.3,8.3-15.8
				c4.1-2.7,8.3-6.6,18-5.2c8.4,1,11.7,6.6,8.3,11.9c-6.1,9.5-4.1-1.3-18,7.9"/>
			<path class="st7" d="M598.4,392.3c-2.8,9.3-43.9,9.1-53.4,6.6c-40.7-10.7-81.5-17.9-122.2-28.4c-12.9-3.4-26-7.6-39.5-8.6
				c-8.1-0.6-26,0.2-33.8,2.7c-19.6,10.6-18.9,31.5-5.7,47.6c5.8,7.1,13.2,10.2,22.9,8.9c9.4-1.3,13-7.3,14.1-12.8
				c10.1-4.1,18.3-7.4,26.2-11c3.6-1.6,6.6-4.4,10.2-6c6.7-3,13.2-2.2,19.3,1.8c5.1,3.3,7.1,7.9,6.5,13.5c-0.8,6.2-5.8,9.5-13,8.6
				c-7.9-1-14.1-6.7-12-12.3c1-2.6,4.9-4.3,8.8-7.4c-1.2-1.6-3.9-1.9-7.1-0.1c-6.3,3.3-7.1,11.8-1.8,17.4c5.7,6,20.3,12.5,28.8,8.5
				c5.4-2.6,8.4-9.3,8.4-18.5c0-8.3-12.6-15-22.3-16.1c-7.8-0.9-15,0.2-21.9,4.5c-6.3,3.9-13.2,7.1-20.3,9.6
				c-4.9,1.8-9.3,0.7-12-4.6c-1.4-2.8-5.7-4.5-9-6.3c-0.2-0.1-3.2,2.6-3.7,4.3c-1.2,4.7,2.2,7.3,6.4,9c1.8,0.7,3.7,1.3,5.5,1.9
				c-1,10.5-13.2,13.2-19.7,4.4c-7-9.3-5.7-13.3-4.2-22.5c2.2-11.6,17.7-15.8,32.4-15.8c15.2-0.1,34.5,3,49.2,6.6
				c43,10.6,65.6,17.2,108.3,28.4c10.7,2.8,22,5.1,33.1,5.5c14.9,0.6,38.4-8.2,38.6-21.9c0.1-7.8-1.1-12.3-8.4-15.8
				c-4.2-2.7-8.4-6.6-18.3-5.2c-8.5,1-12,6.6-8.4,11.9c6.4,9.5,4.2-1.3,18.3,7.9"/>
			<g id="dots_1_">
				<path class="st8" d="M462.5,398.3l3.8,7.4c1.3,2.8,4.5,6.3,6.6,7.4l1.3,0.7c0.5,0.2,1,0.4,1.2,0.2l2.2-1.5
					c0.2-0.1,0.2-0.5,0.2-0.9l-0.1-1c-0.2-1.9-3.2-6.1-5.8-8.3l-7.1-5.8C462.1,394.8,461.1,395.5,462.5,398.3z"/>
				<path class="st8" d="M458.7,404l0.1,5.8c0.1,2.2,1.1,5.2,1.9,6.5l0.6,0.9c0.2,0.4,0.5,0.5,0.9,0.5l1.8-0.4
					c0.1,0,0.2-0.2,0.4-0.5l0.1-0.6c0.4-1.3-0.2-4.9-1.3-6.9l-2.9-5.6C459.4,401.6,458.7,401.8,458.7,404z"/>
				<path class="st8" d="M470.8,396.7l4.6,4c1.7,1.5,4.8,3,6.5,3.3l1.1,0.1c0.4,0,0.9,0,1-0.1l1.1-1.5c0.1-0.1,0-0.4-0.1-0.6
					l-0.4-0.6c-0.9-1.2-3.9-3.3-6.3-4l-6.5-2.1C469.4,394.5,469.1,395.3,470.8,396.7z"/>
				<path class="st8" d="M196.7,397.2l-7.3,4.7c-2.8,1.8-6,5.2-6.8,7.2l-0.5,1.3c-0.2,0.6-0.2,1,0,1.1l1.9,1.7c0.1,0.1,0.5,0.1,1,0
					l1-0.2c2.2-0.6,6-4,7.9-6.8l5-7.4C200.4,396.2,199.5,395.4,196.7,397.2z"/>
				<path class="st8" d="M190,394.8l-6.3,1.2c-2.4,0.5-5.5,1.9-6.6,3l-0.9,0.7c-0.2,0.4-0.4,0.6-0.4,0.7l0.9,1.6
					c0.1,0.1,0.2,0.2,0.6,0.2h0.6c1.6,0.1,5.1-1.1,7.2-2.6l5.5-3.7C192.8,395,192.3,394.3,190,394.8z"/>
				<path class="st8" d="M200.1,404.3l-3.4,4.9c-1.3,1.8-2.4,4.9-2.3,6.5v1c0,0.4,0.1,0.7,0.4,0.7l1.7,0.6c0.1,0,0.4,0,0.6-0.2
					l0.5-0.5c1.2-1,2.8-4.1,3-6.5l1.1-6.1C202.1,402.7,201.3,402.4,200.1,404.3z"/>
				<path class="st8" d="M330.3,418.5l-2.7,11.7c-1,4.4-0.6,11.1,0.6,13.9l1,1.9c0.4,0.9,0.9,1.2,1.2,1.2h4c0.4,0,0.6-0.2,1.1-0.9
					l0.6-1.2c1.6-2.6,1.9-9.7,0.9-14.4l-2.9-12.4C333.1,414,331.3,414.1,330.3,418.5z"/>
				<path class="st8" d="M320.3,422.2l-5.2,7.1c-1.9,2.7-3.8,7.1-3.8,9.3v1.5c0,0.6,0.1,1,0.4,1.1l2.6,1c0.2,0.1,0.5,0,1-0.2
					l0.9-0.6c1.7-1.3,4.1-6,4.8-9.3l1.7-8.9C323.6,419.9,322.4,419.5,320.3,422.2z"/>
				<path class="st8" d="M341.5,423.2l1.7,8.4c0.6,3.2,2.8,7.4,4.5,8.9l1.2,1c0.5,0.5,1,0.6,1.2,0.5l2.6-1c0.2-0.1,0.4-0.4,0.4-0.9
					l0.1-1c0.2-2.1-1.6-6.9-3.8-9.6l-5.6-7.4C342.1,419.4,340.9,420,341.5,423.2z"/>
			</g>
		</g>
		<g id="Layer_26" class="st0">
			<rect x="1.5" y="121.5" class="st14" width="384" height="262"/>
		</g>
		<g id="Layer_25">
		</g>
	</g>
	<g id="strings" class="st0">
		<line class="st15" x1="122.7" y1="291.8" x2="122.7" y2="335.4"/>
		<line class="st15" x1="119.2" y1="289.4" x2="119.2" y2="339.2"/>
		<line class="st15" x1="115.5" y1="289" x2="115.5" y2="341.9"/>
		<line class="st15" x1="111.7" y1="286.4" x2="111.7" y2="342.8"/>
		<line class="st15" x1="107.9" y1="287.5" x2="107.9" y2="340.8"/>
		<line class="st15" x1="104.1" y1="291.8" x2="104.1" y2="337.8"/>
	</g>
</g>
<g id="Layer_3_1_">
	<g>
		<path class="st16" d="M82,227.4H57.5l-33.6-52.8v44c0,0,0.2,7.4,3.4,7.4c2.8,0,2.6,1.4,2.6,1.4H6.3c0,0-0.3-1.4,2.6-1.4
			s3.1-6.7,3.1-7.4v-54c0-0.5-0.2-7.4-3.1-7.4s-2.6-1.4-2.6-1.4h24.6L57.6,198v-33.4c0-0.5-0.3-7.4-3.4-7.4s-2.6-1.4-2.6-1.4H82
			c0,0,0.3,1.4-2.6,1.4c-2.9,0-3.1,6.7-3.1,7.4v54.2c0,1.2,0.3,7.2,3.1,7.2C82.3,225.8,82,227.4,82,227.4z"/>
		<path class="st16" d="M151.3,227.4H91.4c0,0-0.3-1.4,2.6-1.4c2.9,0,3.1-6.7,3.1-7.4v-54c0-0.5-0.2-7.4-3.1-7.4
			c-2.9,0-2.6-1.4-2.6-1.4H150c0,4.7-8.7,15.7-9.2,20.1c-0.2,0.8,0.3,1.3,1.1,1.5v-0.2c0-1.2,2.1-2.3,4.4-2.3c2.2,0,4.2,1.1,4.2,2.3
			c0,1.3-2.3,2.8-5.2,3.4c-2.6,0.4-6.5,0.5-9.2-0.9c-11.5-5.4,8.1-20.2-9.8-20.3h-10.5v39.5c1.8,0,14.3-0.2,14.3-1.6
			c0-1.5,2.8-1.3,2.8-1.3v9.5c0,0-2.8,0.2-2.8-1.2c0-1.5-12.3-1.7-14.3-1.7v21.4h10c14.3-0.3,17-12.3,17-15.3c0-4.2,8.5-3,8.5-3
			S144.8,213.6,151.3,227.4z"/>
		<path class="st16" d="M241.3,155.8c0,0-0.3,1.4-3.1,1.4c-3.1,0-6.5,6.9-6.7,7.4l-21.1,54c-0.2,0.4-3.1,7.4,0,7.4
			c2.8,0,1.8,1.4,1.8,1.4h-30.8c0,0-1-1.4,2.1-1.4c3.1,0,0.8-7.2,0.8-7.4l-16.4-54c-0.2-0.2-2.8-7.4-5.9-7.4c-2.8,0-2.9-1.4-2.9-1.4
			h30.3c0,0,0.8,1.4-2.1,1.4c-3.1,0-1,6.9-0.8,7.4l14.4,47.6l18.7-47.6c0.2-0.2,3.1-7.4,0-7.4c-2.8,0-1.8-1.4-1.8-1.4
			S241.3,155.8,241.3,155.8z"/>
		<path class="st16" d="M307.6,227.4h-59.9c0,0-0.3-1.4,2.6-1.4s3.1-6.7,3.1-7.4v-54c0-0.5-0.2-7.4-3.1-7.4s-2.6-1.4-2.6-1.4h58.6
			c0,4.7-8.7,15.7-9.2,20.1c-0.2,0.8,0.3,1.3,1.1,1.5v-0.2c0-1.2,2.1-2.3,4.4-2.3c2.2,0,4.2,1.1,4.2,2.3c0,1.3-2.2,2.8-5.2,3.4
			c-2.6,0.4-6.5,0.5-9.2-0.9c-11.5-5.4,8.1-20.2-9.8-20.3h-10.5v39.5c1.8,0,14.3-0.2,14.3-1.6c0-1.5,2.8-1.3,2.8-1.3v9.5
			c0,0-2.8,0.2-2.8-1.2c0-1.5-12.3-1.7-14.3-1.7v21.4h10c14.3-0.3,17-12.3,17-15.3c0-4.2,8.5-3,8.5-3S301.1,213.6,307.6,227.4z"/>
		<path class="st16" d="M412.5,236.4c0,1.1-1,2.3-3.7,3.1c-4.4,1.4-18.3,2.2-26.9-3.6c-10.7-7.1-30.8-30.5-41.5-32v14.5
			c0,0.5,0.3,7.4,3.4,7.4s2.6,1.4,2.6,1.4h-30.3c0,0-0.3-1.4,2.6-1.4c2.9,0,3.1-6.7,3.1-7.4v-53.9c0-0.5-0.2-7.4-3.1-7.4
			c-2.9,0-2.6-1.4-2.6-1.4h24.2c29.7,0,52.7,9.2,52.7,25c0,13-16.1,21.5-35.7,23.3c23.5,4.6,33.1,32.4,46.7,32.4v-0.1
			c0-1.2,1.8-2.3,4.2-2.3C410.6,234.1,412.5,235.2,412.5,236.4z M375.1,180.5c0-14.2-18.7-20.6-34.7-20.8v40.8h1.6
			C358.2,200.6,375.1,192.5,375.1,180.5z"/>
	</g>
	<g>
		<path class="st16" d="M539,207.6c0,11.3-15.5,20.3-38.9,20.3h-46.9c0,0-0.4-1.5,3-1.5c3.5,0,3.8-6.8,3.8-7.3v-53.5
			c0-0.4-0.3-7.3-3.8-7.3c-3.5,0-3-1.5-3-1.5h29.1c31.1,0,56.3,6.2,56.3,21.3C538.9,183.3,539,199.9,539,207.6z M516.7,208
			c0-7.7-0.3-25.5-0.3-29.7c0-11.6-6.2-16.1-34-16.4v62.3c1.7,0.1,3.3,0.1,5.1,0.1C505.7,224.2,516.7,215.7,516.7,208z"/>
		<path class="st16" d="M585.2,227.9H549c0,0-0.4-1.5,3-1.5s3.8-7,3.8-7.3v-53.5c0-0.4-0.3-7.3-3.8-7.3c-3.5,0-3-1.5-3-1.5h36.2
			c0,0,0.4,1.5-3,1.5c-3.8,0-3.9,7.1-3.9,7.3v53.5c0,0.1,0.3,7.3,3.9,7.3C585.6,226.6,585.2,227.9,585.2,227.9z"/>
		<path class="st16" d="M666.5,227.9H595c0,0-0.4-1.5,3-1.5c3.5,0,3.8-6.7,3.8-7.3v-53.5c0-0.6-0.3-7.3-3.8-7.3c-3.5,0-3-1.5-3-1.5
			h70c0,4.6-10.4,15.7-11,19.9c-0.3,0.7,0.4,1.3,1.3,1.5v-0.1c0-1.2,2.5-2.3,5.4-2.3c2.6,0,5.1,1,5.1,2.3c0,1.3-2.6,2.9-6.2,3.3
			c-3,0.4-7.7,0.6-11-0.9c-13.7-5.4,9.7-20-11.7-20.2h-12.6v39.2c2.2,0,17.1-0.1,17.1-1.6s3.3-1.3,3.3-1.3v9.4c0,0-3.3,0.1-3.3-1.2
			c0-1.5-14.8-1.7-17.1-1.7v21.2h11.9c17.1-0.3,20.3-12,20.3-15.1c0-4.2,10.1-3,10.1-3S658.7,214.2,666.5,227.9z"/>
	</g>
	<g>
		<path class="st16" d="M220.3,245.8c0,0-0.6,1.4-3.6,1.4s-7.3,7-7.5,7.3l-16.8,37.4v16.6c0,0.6,0.4,7.3,3.4,7.3
			c2.8,0,2.6,1.4,2.6,1.4h-30.8c0,0-0.4-1.4,2.4-1.4c3.2,0,3.4-6.8,3.4-7.3v-14.8l-17.9-39.2c-0.2-0.2-4.7-7.3-7.9-7.3
			c-2.8,0-3.4-1.4-3.4-1.4h30.9c0,0,1.1,1.4-1.7,1.4c-3.2,0,0.9,7,1.1,7.3l11.9,26.1l10.5-26.1c0.2-0.2,4.1-7.3,0.9-7.3
			c-2.8,0-1.7-1.4-1.7-1.4L220.3,245.8L220.3,245.8z"/>
		<path class="st16" d="M287.1,260.6v41.9c0.2,8-15.2,14.7-32,14.8c-16.9-0.2-31.8-6.8-31.8-14.8v-41.9c0-8.1,15.1-14.6,32.2-14.8
			h0.2C272.4,246.1,287.1,252.5,287.1,260.6z M268.1,260.6c0-4.4-5.8-8.1-12.8-10.1c-7.2,1.9-13,5.7-13,10.1v41.9
			c0,4.4,5.8,8.2,12.8,10.1c7.2-1.9,13-5.7,13-10.1V260.6z"/>
		<path class="st16" d="M369.6,247.2c-3.2,0-3.2,7.4-3.2,7.4l-0.2,47.9c0,8-14.9,14.6-31.8,14.8c-16.9-0.2-32-6.8-32-14.8V254
			c0-1.7-0.6-6.8-3.2-6.8c-3,0-2.6-1.4-2.6-1.4h24.8v56.7c0,4.4,6,8.2,13,10.1c7-1.9,13-5.7,13-10.1v-56.7h24.8
			C372.2,245.8,372.6,247.2,369.6,247.2z"/>
		<path class="st16" d="M458.8,317.3H434l-34.3-52.8v44c0,0,0.2,7.3,3.4,7.3c2.8,0,2.6,1.4,2.6,1.4h-24.1c0,0-0.4-1.4,2.6-1.4
			s3.2-6.8,3.2-7.3v-54c0-0.6-0.2-7.3-3.2-7.3s-2.6-1.4-2.6-1.4h25l27.3,42.1v-33.4c0-0.6-0.4-7.3-3.4-7.3s-2.6-1.4-2.6-1.4h30.9
			c0,0,0.4,1.4-2.6,1.4s-3.2,6.8-3.2,7.3v54.1c0,1.1,0.4,7.1,3.2,7.1C459.2,315.8,458.8,317.3,458.8,317.3z"/>
		<path class="st16" d="M532.8,316.7c-7.5,0.7-16.6,0.6-17.3,0.6c-40.7,0-48-22.2-48-35.3c0-11,11.7-36.2,43.1-36.2H536
			c0,6.4-16.4,15.7-16.9,20c0,0.8,0.6,1.3,1.3,1.5v-0.2c0-1.2,1.9-2.3,4.3-2.3c2.4,0,4.5,1,4.5,2.3s-2.4,3-5.5,3.3
			c-2.6,0.4-6.4,0.6-9.4-0.9c-11.5-5.4,13.7-20.3-2.6-20.3c-15.6,0-23.7,23.2-23.7,32.6c0,10.4,8.7,30.9,25.2,30.9
			c6.6,0,8.5-1,8.5-1v-14.8c-0.4-2.2-1.1-5.1-3.2-5.1c-2.8,0-2.4-1.4-2.4-1.4h24.8c-0.9,0.7-1.5,3-1.7,5.9c0,4.4,0.2,10.1,0.8,14.1
			c0.4,2.4,1.1,4.1,1.9,4.7C540.2,315.9,536.7,316.4,532.8,316.7z"/>
	</g>
	<path class="st17" d="M255.6,258.7c0,0-3.6,10-3.6,22.6c0,12.4,3.6,22.6,3.6,22.6s3.5-10,3.5-22.6
		C258.9,268.9,255.6,258.7,255.6,258.7z"/>
</g>
<g id="Layer_4">
</g>
</svg>
