<?xml version="1.0" encoding="utf-8"?>
<!-- Generator: Adobe Illustrator 25.2.3, SVG Export Plug-In . SVG Version: 6.00 Build 0)  -->
<svg version="1.1" xmlns="http://www.w3.org/2000/svg" xmlns:xlink="http://www.w3.org/1999/xlink" x="0px" y="0px"
	 viewBox="0 0 604.7 462" style="enable-background:new 0 0 604.7 462;" xml:space="preserve">
<style type="text/css">
	.st0{display:none;}
	.st1{display:inline;}
	.st2{display:inline;fill:#FFFFFF;}
	.st3{opacity:0.68;}
	.st4{fill:#8F7458;}
	.st5{display:inline;fill:#5E3616;}
	.st6{display:none;fill:none;stroke:#8F7458;stroke-width:10;stroke-miterlimit:10;}
	.st7{fill:#9E6900;}
	.st8{fill:#E6BF77;}
	.st9{fill:#FFFAFA;}
	.st10{fill:#FFFFFF;}
	.st11{fill:#FFC543;stroke:#E09200;stroke-miterlimit:10;}
	.st12{fill:#FFC043;}
	.st13{fill:none;stroke:#5E3616;stroke-width:2;stroke-miterlimit:10;}
	.st14{display:inline;fill:none;stroke:#FF0000;stroke-miterlimit:10;}
	.st15{display:inline;fill:none;stroke:#5E3616;stroke-miterlimit:10;}
	.st16{display:inline;fill:#FFC543;stroke:#E09200;stroke-width:3;stroke-miterlimit:10;}
	.st17{font-family:'Amarante-Regular';}
	.st18{font-size:89.8563px;}
	.st19{font-size:78.5978px;}
	.st20{font-size:88.5204px;}
	.st21{fill:#FFC543;stroke:#E09200;stroke-width:3;stroke-miterlimit:10;}
	.st22{fill:none;stroke:#5E3616;stroke-width:3;stroke-miterlimit:10;}
</style>
<g id="Layer_1">
	<g id="Layer_1_1_">
		<g id="Layer_24" class="st0">
			<g class="st1">
				<rect x="-64.5" y="-46.5" width="669" height="587"/>
				<path d="M604-46v586H-64V-46H604 M605-47H-65v588h670V-47L605-47z"/>
			</g>
		</g>
		<g id="guitar">
			<g class="st0">
				<path class="st1" d="M201.5,330.8c0.7-5.1,1.2-9.8,2-14.6c0.4-2.3,3.5-6.8,5.3-8.4c12.1-11,10.8-29-3-38
					c-0.5-0.3-0.9-0.7-0.8-1.6c1.5,1.1,3.2,2.1,4.5,3.5c1.5,1.6,3.1,1.9,5.2,1.3c4.6-1.3,9.3-2.5,13.9-3.8c2.8-0.9,5.1-0.3,7,1.6
					c2.1,2.1,2.1,4.6,0.9,7.1c-2.4,4.9-4.2,9.9-2.8,15.3c1.1,4.2,3.1,8.2,4.4,12.4c1.6,5.3,3.3,10.8,4.3,16.2
					c1.6,9.4-6.1,15.4-15.7,12.8c-4.9-1.3-9.7-2.8-14.7-3.7C209.1,330.4,205.8,330.8,201.5,330.8z"/>
				<path class="st1" d="M187.3,88.6c-0.1,1-0.1,2-0.2,3.8c-1-0.9-2.1-1.3-2.2-1.8c-0.2-4.3-0.2-8.6-0.1-12.9c0-0.5,1.1-0.9,1.2-1.3
					c0.1-1.1,0.2-2.5-0.3-3.5c-0.2-0.5-1.9-0.7-2.7-0.5c-1,0.3-1.6,1.2-2.5,2.3c3.6-0.2,4.1,1.6,4,4.1c-0.2,4.2,0,8.3,0,12.5
					c-0.3,0-0.6,0.1-0.9,0.1c-0.7-2.9-1-5.9-2-8.6c-1-2.9-2.9-5.4-4.5-8.5c-1.2-0.1-3.1-0.1-4.9-0.4c-1-0.2-2.2-0.8-2.6-1.4
					c-0.3-0.6,0.6-2.2,1.1-2.3c1.1-0.2,2.6,0.1,3.7,0.7c1,0.4,1.5,1.4,2.3,2.1c0.3-0.2,0.6-0.3,0.9-0.5c0-4.1,0-8.2,0-12.6
					c-2.9-0.3-5.8-0.6-9.8-1c1.4-1.6,2.1-3.1,3.1-3.3c0.9-0.3,2.2,0.8,3.3,1.2c1,0.4,1.8,1,3.7,1.9c-0.6-5-0.6-9.1-1.6-12.9
					c-0.3-1.2-3.2-1.8-5.1-2.5c-0.9-0.3-2-0.1-3.1-0.1c-1.4-1.7-1.9-2.9-1.5-3.3c0.7-0.9,3.6,0,9,2.5c-0.1-1.1,0-2.2-0.2-3.2
					c-2.5-4.8-1.2-6.6,5.4-8.4c1.8-0.5,3.3-1.8,4.8-3.1c2.8-2.3,6.5-2.8,9.5-0.9c3.2,1.9,6.3,4.3,9.6,5.7c2.4,1,2.7,2.3,2.3,4.3
					c-0.3,1.7-0.5,3.5-0.8,5.6c5.6-3.3,6.5-3.2,7.2,1c-2.6,0.3-5.1,0.7-7.8,1c-0.4,4.4-0.7,8.5-1,13.4c1.5-0.6,2.4-1,3.2-1.3
					c1.2-0.5,2.6-1.3,3.7-1.1c0.9,0.2,1.4,1.7,2.3,3c-3.4,0.4-6.2,0.8-9.1,1.1c0,4.3,0,8.6,0,13.7c1.4-1,2.1-1.6,3-1.9
					c1-0.4,2.3-0.7,3.4-0.6c0.6,0.1,1.2,1,1.5,1.8c0.2,0.5-0.4,1.6-0.7,1.6c-2.3,0.1-4.5,0.1-6.9,0.1c-1.3,3.1-3.3,6.7-4.4,10.4
					c-2.1,7.4-1.9,7.4-10.2,7.2C188.5,91.9,186.8,91.6,187.3,88.6z M184.7,61.7c0,0,0.4-0.7,0.4-1.3c-0.1-1-0.5-2.1-0.7-3.1
					c-1.3,0.5-2.8,1-4.1,1.4c0.5,0.6,0.8,1.3,1.3,1.7C182.6,61,183.8,61.4,184.7,61.7z M199.1,73.8c0.6,0.8,1,1.3,1.6,1.9
					c0.1,0.1,1.1-0.6,1.1-0.9c0-0.8-0.1-2.2-0.5-2.3c-1.1-0.3-2.5-0.3-3.6,0c-0.4,0.1-0.4,1.5-0.7,2.4c0.3,0.1,0.6,0.2,0.9,0.3
					C198.5,74.7,198.9,74.2,199.1,73.8z M200,59.2c0.3,0.4,0.9,1,1.3,1.5c0.4-0.6,1.1-1.2,1-1.8c-0.2-0.7-0.9-1.5-1.5-1.8
					s-1.6,0.1-2.3,0.4c-0.6,0.3-1,0.9-1.3,1.4c-0.1,0.3,0.6,1.1,0.8,1.1C198.7,59.9,199.2,59.5,200,59.2z M184.1,41.4
					c-1.7,0.8-3.1,1.4-4.4,2c1.3,0.9,2.6,1.7,3.9,2.6c0.3-0.2,0.6-0.5,0.9-0.7C184.5,44.2,184.3,43.1,184.1,41.4z M202.6,41.9
					c-0.5-0.3-1-0.5-1.5-0.8c-1,1-2.1,2-3.1,3.1c1.2,0.4,2.5,0.8,3.7,1.1C201.9,44.2,202.3,43.1,202.6,41.9z"/>
				<path class="st1" d="M180.7,267.5c0.7,1,1.3,1.9,1.8,2.6c0.1-0.4,0.2-1.4,0.3-2.5c1.2,0,2.3,0,3.5,0c0.1,1.1,0.3,2.1,0.4,3.1
					c0.1-1,0.2-1.9,0.3-3.1c2.3,0,4.6,0,7.1,0c0.1,1,0.3,2.1,0.4,2.9c0.1-0.7,0.1-1.7,0.3-3c1.7,0,3.2-0.1,4.9,0
					c1.3,0.2,3.7,0.5,3.9,1c0.4,1.5-0.3,3.2-0.7,5.4c6,3.8,9.2,9.8,8.9,17.5c-0.3,7.3-6.7,15-14.1,16.5c-1.5,0.3-3.2-0.1-4.9-0.3
					c-1.4-0.2-2.9-0.4-4.2-0.8c-0.8-0.2-1.4-0.8-2.1-1.1c0.8-0.5,1.5-1.2,2.3-1.2c3.9-0.1,7.9-0.1,11.2-0.1
					c-0.5-4.5-0.9-8.4-1.3-12.9c-0.2,1.3-0.3,2.1-0.5,3.8c-1.5-4-2.8-7.1-3.7-9.5c0,0-0.2,0.9-0.4,1.6c-0.3,0.1-0.6,0.3-0.9,0.4
					c-0.8-1.2-1.5-2.4-2.5-3.9c-1.9,0.7-3.7,0.5-3.8-2c-0.9,0.9-1.7,1.6-2.6,2.5c-0.7-1.4-1.4-2.8-2.1-4.3c-0.5,4-3.5,4.1-6.8,3.7
					c-0.9,1.1-1.5,2.2-2.3,3.2c-0.3-0.1-0.6-0.1-0.9-0.2c0-1.1-0.5-2.6,0.1-3.4c1.6-2.8,3.1-5.7,5.4-7.8c2.2-1.9,3.2-3.6,3.1-6.3
					c-0.1-0.7,0.2-1.2,0.4-1.9C180.8,267.4,180.7,267.5,180.7,267.5z"/>
				<path class="st1" d="M180.7,344.6c0,1.1,0,2.2,0,3.3c-1.2,0.3-2.4,0.5-3.5,0.8c0,0.2,0,0.4,0,0.6c1,0.1,2.1,0.2,3.7,0.3
					c-0.2,1.4-0.5,2.9-0.6,4.3c0,0.7,0.2,1.3,0.5,1.9c0.1,0.2,1.4-0.1,1.4-0.2c0.1-0.7-0.1-1.3-0.2-2c-0.3-1.3-0.7-2.6-1-4.1
					c1.8-0.1,3.1-0.2,5-0.3c-0.4,1.6-0.7,2.9-0.9,4.2c-0.1,0.8-0.1,1.5,0.1,2.2c0,0.1,1.4,0.1,1.4,0c0.2-0.7,0.2-1.3,0.1-2
					c-0.2-1.4-0.6-2.9-0.9-4.6c7.3-0.6,14.2-1.1,21-1.7c0-0.3,0-0.7,0-1c-3.8,0.2-7.6,0.5-11.5,0.7c-0.2-0.4-0.4-0.8-0.6-1
					c0.9-0.6,1.7-1.6,2.6-1.6c8.3-0.2,16.7-0.3,25-0.3c3.4,0,4.2,1,4.1,5c-0.1,2.5-0.4,4.4-4,5c-6.1,1-12,2.9-17.9,4.7
					c-8.7,2.7-17.3,2.6-25.9-0.1c-5.6-1.7-11-4-17.2-3.8c-3.2,0.2-3.1-2.7-3.3-4.8c-0.4-4.7,0.2-5.2,4.9-5.2
					C168.8,344.6,174.5,344.6,180.7,344.6z"/>
				<path class="st1" d="M186.6,201.2c0,0.7,0.2,1.3,0,2c-0.3,0.7-0.9,1.2-1.3,1.8c-0.6-0.7-1.6-1.2-1.7-1.9
					c-0.1-4.4-0.1-8.8,0.1-13.2c0-0.7,1.5-1.8,2.4-1.8c4.1-0.2,8.2,0,12.3-0.1c2.3-0.1,3.5,0.5,3.6,3.1c0.1,4.8,0.3,4.8-5,5.6
					c5.4,0.1,5.6,0.4,5,8.2c-2.5-0.2-5-0.4-7.5-0.6c-1.2-0.1-2.6-0.5-3.8-0.3C187,204.9,187,205,186.6,201.2z"/>
				<path class="st1" d="M193.6,173.1c-0.5-0.4-1.1-0.7-1.5-1.1c-0.5-0.7-1-1.6-1-2.4c0-0.4,1.2-0.9,2-1c0.6-0.2,1.3-0.1,2-0.1
					c5.9-0.3,8.6,3.1,6.5,8.5c-0.2,0.6-1,0.9-1.4,1.2c1.3,1.2,2.5,7.5,1.4,8.8c-0.4,0.5-1.1,0.7-1.8,0.8c-7.6,1.3-9.2,0.1-8.8-7.2
					c0-0.9,0-1.7,0.2-2.6c0.4-1.5,0.9-3.1,1.3-4.5C192.8,173.3,193.2,173.2,193.6,173.1z"/>
				<path class="st1" d="M196.7,114.1c0-1.8,0-3.6,0-5.6c2.4-0.4,3.8,0.1,3.6,2.6c-0.1,2.2-0.1,4.4,0,6.6c0.2,2.5-0.6,4.1-3.8,4
					c3.7,0,4.5,1.9,4.2,4.8c-0.2,1.3-0.1,2.7,0.1,3.9c0.4,2.9-0.7,3.8-3.8,3.9c-2.9,0.1-3.3-1-3.2-3.2c0.1-6.6,0-13.2,0.1-19.7
					c0-1,0.9-2,1.2-3c0.5,1,1,1.9,1.3,3c0.2,0.9,0,1.7,0,2.7C196.5,114,196.6,114.1,196.7,114.1z"/>
				<path class="st1" d="M193.9,221.3c0,6.5,0,12.6,0,19.1c-2.1,0-4.3,0-7,0c0-3.7-0.2-7.3,0.2-11c0.1-0.8,2.1-1.4,2.9-1.8
					c-0.4,0-1.5-0.1-2.8-0.2c0-2,0-3.9,0-6C189.4,221.3,191.8,221.3,193.9,221.3z"/>
				<path class="st1" d="M194.5,212.9c0-1.7,0-3.1,0-4.3c-0.4,4.1-0.4,4.1-3.4,4.1c-0.1-1.3-0.2-2.8-0.3-3.8c0,0.7,0.1,1.7-0.2,2.6
					c-0.3,0.7-1.2,1.3-1.9,1.3c-0.6,0-1.5-0.9-1.7-1.5c-0.3-1.2-0.4-2.7,0-3.9c0.3-0.9,1.4-1.9,2.3-2c3.1-0.3,6.4,0,9.5-0.2
					c3.6-0.2,3.2,2.1,3.4,4.4c0.2,2.5-0.9,3.4-3.3,3.2C197.6,212.9,196.3,212.9,194.5,212.9z"/>
				<path class="st1" d="M197.4,158.1c2.7-0.6,4.1,0.1,4,2.7c-0.2,8,1.5,7.2-7.3,7.2c-0.9,0-1.8,0-3.2,0c0-3-0.1-5.7,0.1-8.6
					c0-0.6,0.9-1,1.2-1.5c0.4,0.6,1.1,1,1.2,1.7c0.2,1.3,0.1,2.6,0.3,3.9c0-1.3-0.2-2.7,0.1-4c0.1-0.6,1-1,1.6-1.6
					c0.5,0.6,1.4,1.1,1.5,1.7c0.2,1.9,0.1,3.9,0.5,5.9C197.4,163,197.4,160.5,197.4,158.1z"/>
				<path class="st1" d="M194.4,213.3c2.2,0,3.8-0.1,5.5,0c1.9,0.1,2.6,1,2.5,2.9c-0.1,2.6-0.2,5.1,0.1,7.6c0.4,3-0.9,4-3.9,3.7
					c-1.2-0.1-2.5,0-4,0c0-2.1,0-4,0-6.5c1.2,0.3,2.3,0.6,3.6,1c1.2-0.8-1.9-3.9,1.6-4.5c-0.3-0.5-0.5-1-0.8-1.5
					c-0.6,0.3-1.3,0.5-1.5,0.9c-0.3,0.6,0.2,1.3,0,1.9c-0.3,0.7-1,1.2-1.4,1.8c-0.6-0.7-1.6-1.2-1.7-1.9
					C194.2,217,194.4,215.4,194.4,213.3z"/>
				<path class="st1" d="M187.1,108.3c0.3,12.5-0.1,25,0.1,37.6c-0.4,0.2-0.8,0.4-1.1,0.6c-0.6-0.9-1.7-1.7-1.7-2.6
					c0-6.9,0.2-13.8,0.4-20.7c0.1-3.8,0.1-7.6,0.2-11.5c0-1.1,0.4-2.3,0.7-3.4C186.1,108.3,186.6,108.3,187.1,108.3z"/>
				<path class="st1" d="M187.5,185.2c0-4.8-0.1-9.6,0.1-14.4c0-0.8,1-1.5,1.6-2.4c0.5,0.8,1.4,1.4,1.4,2.2
					c0.2,4.8,0.1,9.5,0.2,14.4c0,2-0.7,3.1-3.1,2.7c-1.9-0.3-4.5,0.9-4.1-2.6c0.2-1.6,0-3.3,0.3-4.9c0.1-0.6,1.1-1.4,1.4-1.3
					c0.7,0.2,1.6,1,1.7,1.5c0.2,1.6,0.1,3.2,0.1,4.9C187.2,185.3,187.3,185.3,187.5,185.2z"/>
				<path class="st1" d="M200.9,145.8c-2,0.1-3.8,0.4-5.5,0.2c-0.6-0.1-1.4-1.2-1.5-2c-0.2-1.7-0.1-3.5-0.1-5.2c0-4.3,0.5-4.8,5-4
					c0.9,0.2,2.1,1.3,2.2,2.2C201,139.8,200.9,142.6,200.9,145.8z"/>
				<path class="st1" d="M197.3,157c0-2.5,0-5,0-7.4c-0.2,0-0.3,0-0.5,0c0,2.5,0,5,0,7.6c-1.9,0-3.6,0-6,0c0.3-1.4,0.6-2.7,0.9-4
					c0.7,0.3,1.4,0.7,2,0.9c0-0.9,0.2-2.3,0-3.6c-0.5-3.2,1-4.2,4.2-4c2.4,0.2,3.3,1,3.1,3.1c-0.1,1.5-0.1,3.1,0.1,4.6
					C201.6,157.1,200.2,157.7,197.3,157z"/>
				<path class="st1" d="M196.7,104.8c0-3.3,0-6.8,0-10.1c2.5-0.6,3.5,0.2,3.4,2.4c-0.1,2.2-0.2,4.4,0.1,6.6
					c0.3,3.1-0.5,4.7-4.1,4.1c-0.6-0.1-1.1,0-2.4,0c0-4.1,0-8.3,0.1-12.4c0-0.4,0.9-0.7,1.3-1c0.4,0.6,1,1.2,1,1.8
					c0.1,2.9,0.1,5.7,0.1,8.6C196.5,104.8,196.6,104.8,196.7,104.8z"/>
				<path class="st1" d="M184.9,100.5c0-1.2,0-2.4,0-3.6c0.1-1.7-0.5-3.6,2.9-2c2.6,1.2,2.9,0.7,2.9,3.7c0,2.6,0.1,5.1-0.1,7.5
					c-0.1,0.6-1.3,1.7-1.7,1.5c-0.9-0.2-1.6-1.4-2.4,0.1c-0.5-0.6-1.3-1.1-1.4-1.7C184.8,104.3,184.9,102.4,184.9,100.5L184.9,100.5
					z"/>
				<path class="st1" d="M187.7,121.7c0-3.6-0.1-7.2,0.1-10.9c0-0.9,1-1.7,1.5-2.6c0.5,0.9,1.3,1.6,1.3,2.5c0.1,7,0.1,14,0,21
					c0,0.9-1,1.6-1.4,2.5c-0.6-0.8-1.5-1.5-1.5-2.4C187.5,128.5,187.6,125.1,187.7,121.7C187.6,121.7,187.6,121.7,187.7,121.7z"/>
				<path class="st1" d="M194.2,262.2c-2.7,0-4.9,0-7.3,0c0-2.9-0.1-5.5,0.1-8.2c0-0.6,1.1-1.3,1.9-1.6c1-0.3,2.1-0.3,3,0
					c1,0.4,2.2,1.2,2.3,1.9C194.4,256.8,194.2,259.4,194.2,262.2z"/>
				<path class="st1" d="M186.5,240.3c-2.2,0.5-3.8,0.7-3.7-1.9c0.2-5.1,0.3-10.3,0.6-15.4c0-0.7,1-1.2,1.6-1.9
					c0.5,0.6,1.4,1.1,1.4,1.7C186.6,228.6,186.5,234.5,186.5,240.3z"/>
				<path class="st1" d="M187.1,156.9c0,3,0.1,5.9-0.1,8.9c-0.1,0.8-1,1.5-1.6,2.3c-0.5-0.8-1.2-1.5-1.3-2.3
					c-0.1-5.7,0-11.4,0.2-17.1c0-0.7,1-1.4,1.4-2.1c0.5,0.7,1.3,1.4,1.3,2.2C187.3,151.5,187.2,154.2,187.1,156.9L187.1,156.9z"/>
				<path class="st1" d="M182.6,247c1.5,0,2.4,0,3.3,0c0.2,0.4,0.4,0.7,0.4,1c0.1,4.1,0.2,8.2,0,12.3c0,0.8-1.1,1.4-1.7,2.2
					c-0.7-0.7-2-1.2-2-1.9C182.5,256,182.6,251.7,182.6,247z"/>
				<path class="st1" d="M190.6,213.6c4.4-1.3,3.7,1.7,3.6,4.1c0,1.3,0.4,3.1-2,3.1c-5.5,0-5.4,0-5.4-4
					C186.8,214.3,187.1,212.4,190.6,213.6z"/>
				<path class="st1" d="M198.7,240.5c-4.2-0.1-4.7-0.7-4.2-4.2c0.4-3.3,3.1-1.5,4.6-1.7c3.3-0.5,4.5,0.8,4.1,3.8
					C202.7,241.6,200,240.2,198.7,240.5z"/>
				<path class="st1" d="M194.9,240.5c2.6,2.2,7.3-2.5,8.2,3.2c0.4,2.7-1.4,3.3-6.8,2.9C194.2,246.4,194,245.7,194.9,240.5z"/>
				<path class="st1" d="M194,262.4c0.6-1.9,0.8-4.4,1.4-4.5c2.4-0.4,5-0.1,7.3,0.2c0.3,0,0.8,1.8,0.5,2.6c-0.3,0.7-1.3,1.5-2.2,1.5
					C199,262.5,197,262.4,194,262.4z"/>
				<path class="st1" d="M194.1,257.1c0.5-1.8,0.7-4.3,1.2-4.4c2.4-0.4,5-0.1,7.3,0.2c0.3,0,0.7,1.8,0.5,2.7c-0.1,0.6-1,1.4-1.7,1.5
					C199.3,257.2,197.1,257.1,194.1,257.1z"/>
				<path class="st1" d="M194.6,251.8c0-1.7,0-3.1,0-4.7c2.8,0,5.5,0,8.3,0c0.7,4.6,0.5,4.8-4,4.7
					C197.5,251.8,196.2,251.8,194.6,251.8z"/>
				<path class="st1" d="M192.2,127.1c-0.4-0.9-1.1-1.8-1.2-2.7c-0.1-4.6-0.1-9.2,0-13.7c0-0.9,1-1.6,1.4-2.4c0.4,0.8,1,1.5,1,2.4
					c0.1,5.3,0.1,10.7,0.1,16C193.1,126.8,192.7,127,192.2,127.1z"/>
				<path class="st1" d="M187.1,241.1c2.3,0,4.5,0,6.9,0c0,1.8,0,3.4,0,5.3c-2.3,0-4.4,0-6.9,0C187.1,244.8,187.1,243.1,187.1,241.1
					z"/>
				<path class="st1" d="M203,263c1.2,3.1,0.1,4.2-3.1,4.1c-1.7-0.1-3.4,0-5.3,0c0-1.4,0-2.7,0-4.1C197.4,263,200.2,263,203,263z"/>
				<path class="st1" d="M169.1,276.4c-5.4,9.2-5.5,18.2-0.6,27.6c-1-2.1-2.3-4-3.1-6.2c-2.1-6.3-1.8-12.5,1.1-18.5
					C167.2,278.2,168.3,277.4,169.1,276.4L169.1,276.4z"/>
				<path class="st1" d="M187,247c2.4,0,4.6,0,7,0c0,1.5,0,3,0,4.7c-2.3,0-4.5,0-7,0C187,250.2,187,248.8,187,247z"/>
				<path class="st1" d="M187.6,145.7c0-3.1-0.1-6.3,0.1-9.4c0-0.6,1-1,1.6-1.6c0.5,0.5,1.3,1,1.3,1.5c0.1,2.9,0.2,5.7-0.1,8.5
					c-0.1,0.7-1.3,1.1-2.1,1.7C188.2,146.2,187.9,146,187.6,145.7z"/>
				<path class="st1" d="M190.7,152.1c0,1,0.2,2.2-0.1,3.2c-0.2,0.8-1,1.3-1.6,2c-0.5-0.6-1.3-1.1-1.4-1.8c-0.2-2.4-0.2-4.9,0-7.2
					c0-0.7,0.9-1.2,1.3-1.8c0.6,0.7,1.4,1.2,1.6,2C190.9,149.7,190.7,151,190.7,152.1L190.7,152.1z"/>
				<path class="st1" d="M193.5,101c0,1.7,0.1,3.5-0.1,5.2c-0.1,0.6-0.9,1-1.2,1.5c-0.4-0.6-1.1-1-1.2-1.6c-0.1-3.5-0.1-7.1,0-10.6
					c0-0.5,0.7-1,1-1.4c0.5,0.5,1.2,1,1.3,1.4C193.6,97.5,193.5,99.3,193.5,101L193.5,101z"/>
				<path class="st1" d="M203.7,233.8c-2.6,0.1-4,0.2-6,0.3c0.3-2.2,0.4-4.1,0.9-5.9c0.1-0.3,2.5-0.4,2.8,0
					C202.2,229.7,202.8,231.4,203.7,233.8z"/>
				<path class="st1" d="M186.9,162.4c0.7-1.5,1.5-4.5,2-4.4c3.1,0.4,1.3,3,1.7,4.7c0.3,1.1,0.2,2.4-0.1,3.6c-0.2,0.7-1,1.1-1.5,1.7
					c-0.5-0.6-1.3-1.1-1.5-1.7c-0.3-1.1-0.1-2.4-0.1-3.6C187.3,162.6,187.1,162.5,186.9,162.4z"/>
				<path class="st1" d="M188.1,173.4c-1,1.8-1.8,3.3-2.7,4.8c-0.5-1.6-1.3-3.2-1.2-4.9c0-1.6,1-3.1,1.5-4.8
					C186.4,170,187.1,171.5,188.1,173.4z"/>
				<path class="st1" d="M194.1,262.9c0,1.4,0,2.6,0,4c-2.4,0-4.6,0-7.1,0c0-1.3,0-2.6,0-4C189.3,262.9,191.5,262.9,194.1,262.9z"/>
				<path class="st1" d="M187.8,347.7c-0.3-0.3-1-1-1.6-1.6c0.9-0.7,1.5-1.6,2.5-1.9c1.2-0.3,2.8-0.2,4,0c0.8,0.2,1.4,1,2.1,1.5
					c-0.6,0.5-1.1,1.3-1.8,1.5C191.6,347.5,190.1,347.5,187.8,347.7z"/>
				<path class="st1" d="M193.5,140.6c0,1.4,0.1,2.9-0.1,4.2c-0.1,0.5-0.8,0.9-1.1,1.2c-0.4-0.4-1.2-0.9-1.2-1.2
					c-0.1-3-0.1-5.9,0-8.8c0-0.5,0.9-1,1.3-1.4c0.4,0.5,1,0.9,1,1.3C193.6,137.5,193.5,139.1,193.5,140.6L193.5,140.6z"/>
				<path class="st1" d="M169.2,276.4c2.3-2.6,4.3-5.4,6.9-7.7c2-1.7,5.4-2.1,5.1-6c1.7,2,1.3,3.4-0.3,4.8l0.1-0.1
					C176,269.3,172.2,272.3,169.2,276.4C169.1,276.4,169.2,276.4,169.2,276.4z"/>
				<path class="st1" d="M186.6,209c0,0.9,0.2,1.8-0.1,2.6c-0.2,0.6-1,1.2-1.5,1.2s-1.4-0.8-1.4-1.2c-0.2-1.2-0.3-2.7,0-3.9
					c0.2-0.9,1-1.5,1.5-2.4c0.5,0.8,1,1.5,1.5,2.4C186.7,208.1,186.6,208.6,186.6,209L186.6,209z"/>
				<path class="st1" d="M181.1,261.9c0-4.9,0-9.7,0-14.6c0.3,0,0.6,0,0.9,0c0,4.9,0,9.7,0,14.6
					C181.7,261.9,181.4,261.9,181.1,261.9z"/>
				<path class="st1" d="M205.5,424.6c-8.1,0-16.2,0-24.3,0c0-0.1,0-0.2,0-0.4c8.1,0,16.2,0,24.3,0
					C205.5,424.3,205.5,424.4,205.5,424.6z"/>
				<path class="st1" d="M186.9,240.9c-0.6,2.3-1,3.9-1.4,5.5c-0.1,0.2-1.8,0.2-1.8,0.1c-0.5-1.6-0.8-3.3-1.2-5.2
					C184,241.1,184.9,241,186.9,240.9z"/>
				<path class="st1" d="M183.2,120.5c0-3.7,0-7.5,0-11.3c0.2,0,0.4,0,0.6,0c0,3.7,0,7.5,0,11.3
					C183.6,120.5,183.4,120.5,183.2,120.5z"/>
				<path class="st1" d="M193.4,231.2c1.2-1.4,2-2.3,2.8-3.2c0.6,1,1.4,2.2,1.5,3.2c0,1-1,2-1.4,3
					C195.4,233.3,194.7,232.4,193.4,231.2z"/>
				<path class="st1" d="M181.5,348.1c-0.1-1.9-1-3.7,1.8-3.8c0.8,0,2.2,0.9,2.3,1.5C186.2,348.7,183.7,348,181.5,348.1z"/>
				<path class="st1" d="M182.1,262.2c2.2,0.7,3.6,0.7,4.1,1.4c0.5,0.7,0.1,2.1-0.4,3c-0.2,0.4-2,0.5-2.1,0.3
					C183.1,265.8,182.8,264.5,182.1,262.2z"/>
				<path class="st1" d="M182.6,156.9c0-3.2,0-6.4,0-9.6c0.2,0,0.5,0,0.7,0c0,3.2,0,6.4,0,9.6C183,157,182.8,156.9,182.6,156.9z"/>
				<path class="st1" d="M182.5,167.4c0-3,0-5.8,0-8.8c0.2,0,0.4,0,0.6,0c0,2.9,0,5.8,0,8.7C182.9,167.4,182.7,167.4,182.5,167.4z"
					/>
				<path class="st2" d="M184.7,61.7c-1-0.5-2.1-0.8-3.1-1.4c-0.6-0.4-1-1.1-1.3-1.7c1.3-0.5,2.8-1,4.1-1.4c0.3,1,0.7,2.1,0.7,3.1
					C185.2,61.1,184.7,61.8,184.7,61.7z"/>
				<path class="st2" d="M199.1,73.8c-0.3,0.4-0.8,0.9-1.1,1.3c-0.3-0.1-0.6-0.2-0.9-0.3c0.2-0.9,0.2-2.2,0.7-2.4
					c1.1-0.4,2.5-0.3,3.6,0c0.4,0.1,0.6,1.5,0.5,2.3c0,0.3-1.1,1-1.1,0.9C200.2,75.3,199.7,74.6,199.1,73.8z"/>
				<path class="st2" d="M200,59.2c-0.8,0.4-1.3,0.8-1.9,0.9c-0.2,0-0.9-0.9-0.8-1.1c0.3-0.6,0.8-1.1,1.3-1.4
					c0.7-0.3,1.6-0.7,2.3-0.4s1.3,1.1,1.5,1.8c0.1,0.5-0.7,1.1-1,1.8C200.8,60.1,200.3,59.5,200,59.2z"/>
				<path class="st2" d="M184.1,41.4c0.2,1.7,0.4,2.8,0.5,3.9c-0.3,0.2-0.6,0.5-0.9,0.7c-1.3-0.9-2.6-1.7-3.9-2.6
					C181,42.9,182.4,42.3,184.1,41.4z"/>
				<path class="st2" d="M202.6,41.9c-0.3,1.1-0.7,2.3-1,3.3c-1.2-0.4-2.5-0.8-3.7-1.1c1-1,2.1-2,3.1-3.1
					C201.6,41.4,202.1,41.7,202.6,41.9z"/>
			</g>
			<g id="guitar_body" class="st3">
				<path class="st4" d="M170.7,100.1h19.6c0.7,0,1.3,0.5,1.3,1l1.1,128.9c0,2.7,0.7,5.3,2,7.8l0.3,0.6c0.4,0.7-0.3,1.3-1.1,1.3
					l-24,0.5H168c-1,0-1.6-0.8-1.1-1.4l0,0c1.5-2.3,2.3-4.9,2.3-7.4l0.3-130.2C169.5,100.4,170.1,100.1,170.7,100.1z"/>
				<path class="st4" d="M175.9,103.9h8.7c3.5,0,6.7-1.3,7.8-3.4l7.4-13.6l4.1-38.2c0.2-1.3-0.9-2.7-2.8-3.4
					c-4.6-1.9-12.8-5.2-13.9-5.9c-4.2-2.6-12.6,0-12.6,0l-8.4,3.8l-5.8,2.3c-2.1,0.9-3.3,2.3-3.3,3.8l2.1,38.9l8.7,12.6
					C169.3,102.6,172.4,103.9,175.9,103.9z"/>
				<path class="st4" d="M201.2,58.9l7-1.8c1.1-0.3,1.7-1.7,1.2-3l-0.3-0.8c-0.4-0.9-1.2-1.2-2.1-0.9l-6.7,3.6L201.2,58.9z"/>
				<path class="st4" d="M198.9,73.9l7-1.8c1.1-0.3,1.7-1.7,1.2-3l-0.3-0.8c-0.4-0.9-1.2-1.2-2.1-0.9L198,71L198.9,73.9z"/>
				<path class="st4" d="M197.3,87.1l7-1.8c1.1-0.3,1.7-1.7,1.2-3l-0.3-0.8c-0.4-0.9-1.2-1.2-2.1-0.9l-6.7,3.6L197.3,87.1z"/>
				<path class="st4" d="M160.5,57.2l-6-4.5c-1-0.8-2.3-0.2-2.7,1l-0.2,0.8c-0.3,1,0.1,1.9,1,2.3l7,3L160.5,57.2z"/>
				<path class="st4" d="M160.6,70.7l-6-4.5c-1-0.8-2.3-0.2-2.7,1l-0.2,0.8c-0.3,1,0.1,1.9,1,2.3l7,3L160.6,70.7z"/>
				<path class="st4" d="M161.1,85l-6-4.5c-1-0.8-2.3-0.2-2.7,1l-0.2,0.8c-0.3,1,0.1,1.9,1,2.3l6.9,3.1L161.1,85z"/>
				<path class="st4" d="M171.7,238.8c-19.2,0.7-23.9,1.9-28.5,3.9c-4.2,1.8-11.5,5.1-15.5,12.6c-2.7,4.9-2.7,9.2-2.7,15.9
					c0,11.5,3,14.6,3.2,26.2c0,1.2,0.2,7.4-1.1,14.8c-2,11-5.7,17-11.4,28.8c-7.5,15.6-11.3,23.5-12.4,29.7
					c-0.7,4.2-3.8,23.3,8.9,38.2c8.1,9.7,19.2,13.3,24.4,15.1c2,0.7,6.4,2,21.2,3.3c11.2,1,24.7,2.2,43.2,1.1
					c14.1-0.8,21.4-1.2,30.3-4.5c5.1-1.8,12.9-4.7,20.3-11.7c2.3-2.2,8.3-7.9,11.4-17.1c4.5-12.7,0.9-24.1-2.4-34.3
					c-1.7-5.4-5.3-13.2-12.7-28.5c-4-8.4-7.1-14.5-7.3-23.5c0-1.5,0.4-5.1,1.1-12.3c1.1-10,2-14,2.7-22.9c0.4-5.7,0.7-8.6,0.3-10.3
					c-2.1-10.4-11.3-16.5-13.5-17.8c-3.6-2.2-7.7-3.8-17.9-5.3C205,239,194.3,237.9,171.7,238.8z"/>
				<path class="st4" d="M168.9,238.8c-19.2,0.7-23.9,1.9-28.5,3.9c-4.2,1.8-11.5,5.1-15.5,12.6c-2.7,4.9-2.7,9.2-2.7,15.9
					c0,11.5,3,14.6,3.2,26.2c0,1.2,0.2,7.4-1.1,14.8c-2,11-5.7,17-11.4,28.8c-7.5,15.6-11.3,23.5-12.4,29.7
					c-0.7,4.2-3.8,23.3,8.9,38.2c8.1,9.7,19.2,13.3,24.4,15.1c2,0.7,6.4,2,21.2,3.3c11.2,1,24.7,2.2,43.2,1.1
					c14.1-0.8,21.4-1.2,30.3-4.5c5.1-1.8,12.9-4.7,20.3-11.7c2.3-2.2,8.3-7.9,11.4-17.1c4.5-12.7,0.9-24.1-2.4-34.3
					c-1.7-5.4-5.3-13.2-12.7-28.5c-4-8.4-7.1-14.5-7.3-23.5c0-1.5,0.4-5.1,1.1-12.3c1.1-10,2-14,2.7-22.9c0.4-5.7,0.7-8.6,0.3-10.3
					c-2.1-10.4-11.3-16.5-13.5-17.8c-3.6-2.2-7.7-3.8-17.9-5.3C202.3,239,191.5,237.9,168.9,238.8z"/>
			</g>
			<g id="Layer_15">
				<ellipse id="sound_hole_1_" cx="182.9" cy="294.4" rx="25.3" ry="29.6"/>
				<g id="knobs" class="st0">
					<ellipse class="st5" cx="167.1" cy="57.1" rx="3" ry="2.9"/>
					<ellipse class="st5" cx="167.2" cy="84.5" rx="3" ry="2.9"/>
					<ellipse class="st5" cx="190.7" cy="57.2" rx="3" ry="2.9"/>
					<ellipse class="st5" cx="188.7" cy="84.5" rx="3" ry="2.9"/>
					<ellipse class="st5" cx="189.7" cy="71.1" rx="3" ry="2.9"/>
					<ellipse class="st5" cx="167.2" cy="71.1" rx="3" ry="2.9"/>
				</g>
			</g>
			<ellipse class="st6" cx="186.7" cy="292.5" rx="32.1" ry="29.2"/>
		</g>
		<g id="top_scroll">
			<path class="st7" d="M487.2,89c-2.3-7.6-36.5-7.5-44.4-5.4c-33.8,8.8-67.7,14.7-101.5,23.3c-10.7,2.8-21.6,6.2-32.8,7.1
				c-6.7,0.5-21.6-0.2-28.1-2.2c-16.3-8.7-15.7-25.9-4.7-39.1c4.8-5.8,11-8.4,19-7.3c7.8,1.1,10.9,6,11.7,10.5
				c8.4,3.4,15.2,6.1,21.8,9c3,1.3,5.5,3.6,8.5,4.9c5.6,2.5,11,1.8,16-1.5c4.2-2.7,5.9-6.5,5.4-11.1c-0.7-5.1-4.8-7.8-10.9-7.1
				c-6.6,0.8-11.7,5.5-10,10.1c0.8,2.1,4.1,3.5,7.3,6.1c-1,1.3-3.2,1.6-5.9,0.1c-5.2-2.7-5.9-9.7-1.5-14.3c4.7-4.9,16.9-10.3,23.9-7
				c4.5,2.1,7,7.6,7,15.2c0,6.8-10.5,12.3-18.5,13.2c-6.5,0.7-12.5-0.2-18.2-3.7c-5.2-3.2-11-5.8-16.9-7.9c-4.1-1.5-7.7-0.6-10,3.8
				c-1.2,2.3-4.7,3.7-7.5,5.2c-0.2,0.1-2.7-2.1-3.1-3.5c-1-3.9,1.8-6,5.3-7.4c1.5-0.6,3.1-1.1,4.6-1.6c-0.8-8.6-11-10.8-16.4-3.6
				c-5.8,7.6-4.7,10.9-3.5,18.5c1.8,9.5,14.7,13,26.9,13c12.6,0.1,28.7-2.5,40.9-5.4c35.7-8.7,54.5-14.1,90-23.3
				c8.9-2.3,18.3-4.2,27.5-4.5c12.4-0.5,31.9,6.7,32.1,18c0.1,6.4-0.9,10.1-7,13c-3.5,2.2-7,5.4-15.2,4.3c-7.1-0.8-10-5.4-7-9.8
				c5.3-7.8,3.5,1.1,15.2-6.5"/>
			<path class="st7" d="M55.6,88.9c2.3-7.6,35.3-7.5,43-5.4c32.7,8.8,65.5,14.7,98.2,23.3c10.4,2.8,20.9,6.2,31.8,7.1
				c6.5,0.5,20.9-0.2,27.1-2.2c15.8-8.7,15.1-25.9,4.5-39.1c-4.6-5.8-10.6-8.4-18.3-7.3c-7.5,1.1-10.4,6-11.3,10.5
				c-8.2,3.4-14.7,6.1-21.2,9c-3,1.3-5.4,3.6-8.2,4.9c-5.4,2.5-10.6,1.8-15.5-1.5c-4.1-2.7-5.7-6.5-5.2-11.1
				c0.7-5.1,4.6-7.8,10.5-7.1c6.4,0.8,11.3,5.5,9.6,10.1c-0.8,2.1-3.9,3.5-7,6.1c0.9,1.3,3.1,1.6,5.7,0.1c5-2.7,5.7-9.7,1.5-14.3
				c-4.6-4.9-16.3-10.3-23-7c-4.3,2.1-6.8,7.6-6.8,15.2c0,6.8,10.2,12.3,18,13.2c6.2,0.7,12.1-0.2,17.5-3.7c5-3.2,10.6-5.8,16.3-7.9
				c3.9-1.5,7.5-0.6,9.6,3.8c1.2,2.3,4.6,3.7,7.1,5.2c0.2,0.1,2.6-2.1,3-3.5c1-3.9-1.6-6-5.2-7.4c-1.4-0.6-3-1.1-4.5-1.6
				c0.8-8.6,10.6-10.8,16-3.6c5.7,7.6,4.5,10.9,3.4,18.5c-1.8,9.5-14.1,13-26,13c-12.3,0.1-27.8-2.5-39.6-5.4
				c-34.5-8.7-52.6-14.1-87-23.3c-8.7-2.3-17.6-4.2-26.6-4.5c-12.1-0.5-30.8,6.7-31,18c-0.1,6.4,0.9,10.1,6.8,13
				c3.4,2.2,6.8,5.4,14.7,4.3c6.9-0.8,9.6-5.4,6.8-9.8c-5-7.8-3.4,1.1-14.7-6.5"/>
			<g id="dots">
				<g id="left">
					<path class="st8" d="M161,83.2l-3.1-6.1c-1.1-2.3-3.7-5.2-5.4-6.1l-1.1-0.6c-0.4-0.2-0.8-0.3-1-0.2l-1.8,1.2
						c-0.2,0.1-0.2,0.4-0.2,0.7l0.1,0.8c0.2,1.6,2.6,5,4.8,6.8l5.8,4.8C161.3,86.1,162.1,85.5,161,83.2z"/>
					<path class="st8" d="M164.2,78.5l-0.1-4.8c-0.1-1.8-0.9-4.3-1.6-5.3l-0.5-0.7c-0.2-0.3-0.4-0.4-0.7-0.4l-1.5,0.3
						c-0.1,0-0.2,0.2-0.3,0.4l-0.1,0.5c-0.3,1.1,0.2,4,1.1,5.7l2.4,4.6C163.5,80.5,164.2,80.3,164.2,78.5z"/>
					<path class="st8" d="M154.2,84.5l-3.8-3.3c-1.4-1.2-3.9-2.5-5.3-2.7l-0.9-0.1c-0.3,0-0.7,0-0.8,0.1l-0.9,1.2
						c-0.1,0.1,0,0.3,0.1,0.5l0.3,0.5c0.7,1,3.2,2.7,5.2,3.3l5.3,1.7C155.3,86.3,155.6,85.7,154.2,84.5z"/>
				</g>
				<g id="right">
					<path class="st8" d="M379.2,84.1l6-3.9c2.3-1.5,4.9-4.3,5.6-5.9l0.4-1.1c0.2-0.5,0.2-0.8,0-0.9l-1.6-1.4
						c-0.1-0.1-0.4-0.1-0.8,0l-0.8,0.2c-1.8,0.5-4.9,3.3-6.5,5.6l-4.1,6.1C376.2,84.9,376.9,85.6,379.2,84.1z"/>
					<path class="st8" d="M384.8,86.1l5.2-1c2-0.4,4.5-1.6,5.4-2.5L396,82c0.2-0.3,0.3-0.5,0.3-0.6l-0.7-1.3
						c-0.1-0.1-0.2-0.2-0.5-0.2h-0.5c-1.3-0.1-4.2,0.9-5.9,2.1l-4.5,3C382.5,85.9,382.8,86.5,384.8,86.1z"/>
					<path class="st8" d="M376.5,78.3l2.8-4c1.1-1.5,2-4,1.9-5.3v-0.8c0-0.3-0.1-0.6-0.3-0.6l-1.4-0.5c-0.1,0-0.3,0-0.5,0.2
						l-0.4,0.4c-1,0.8-2.3,3.4-2.5,5.3l-0.9,5C374.7,79.6,375.5,79.8,376.5,78.3z"/>
				</g>
				<g id="middle">
					<path class="st8" d="M269.5,66.6l2.2-9.6c0.8-3.6,0.5-9.1-0.5-11.4l-0.8-1.6c-0.3-0.7-0.7-1-1-1h-3.3c-0.3,0-0.5,0.2-0.9,0.7
						l-0.5,1c-1.3,2.1-1.6,8-0.7,11.8l2.4,10.2C267.2,70.3,268.7,70.2,269.5,66.6z"/>
					<path class="st8" d="M277.7,63.6l4.3-5.8c1.6-2.2,3.1-5.8,3.1-7.6V49c0-0.5-0.1-0.8-0.3-0.9l-2.1-0.8c-0.2-0.1-0.4,0-0.8,0.2
						l-0.7,0.5c-1.4,1.1-3.4,4.9-3.9,7.6l-1.4,7.3C275.1,65.5,276.1,65.8,277.7,63.6z"/>
					<path class="st8" d="M260.3,62.8l-1.4-6.9c-0.5-2.6-2.3-6.1-3.7-7.3l-1-0.8c-0.4-0.4-0.8-0.5-1-0.4l-2.1,0.8
						c-0.2,0.1-0.3,0.3-0.3,0.7l-0.1,0.8c-0.2,1.7,1.3,5.7,3.1,7.9l4.6,6.1C259.9,65.9,260.9,65.4,260.3,62.8z"/>
				</g>
			</g>
		</g>
		<g id="old_design">
			<g id="Layer_2_1_" class="st0">
				<g class="st1">
					<path d="M75.2,157.7v-1.1c0,0,6-0.9,6-5.9v-44.9c0-7.9-6-8.4-6-8.4v-1.1h23.9l26.8,39.8v-30.2c0-8.8-5.8-8.4-5.8-8.4v-1.1h15.2
						v1.2c-0.9,0-6,0.7-6,8.3v51.9h-10.1l-34.6-50.1V149c0,7.6,6.7,7.6,6.7,7.6v1.1L75.2,157.7L75.2,157.7z"/>
					<path d="M136.6,157.7v-1.1c0,0,6,0.3,6-6.5V104c0-6.3-6-6.5-6-6.5v-1.2h52.2l0.4,14.2h-1.3c-0.4-7.1-2.3-10.5-6.7-11.2
						c-1.1-0.2-2.8-0.2-4.8-0.2h-16.1v25.8h14.5c4.9,0,8.3-1.5,8.9-8h1c-0.4,6.6-0.4,13,0,19.5h-1.1c-0.8-6.7-3.5-8.3-8.8-8.3h-14.5
						v19.3c0,2.5,0.3,4.2,0.5,5.2c0.4,1,1,1.7,2,2s2.6,0.5,5.2,0.5h11.4c6.7,0,10.4-4.6,11.3-12.5h1.5l-1.3,15.2h-54.3L136.6,157.7
						L136.6,157.7z"/>
					<path d="M193.6,97.5v-1.1h33.1v1.1c-6.3,0.8-7.3,4.2-3,12.5l13.2,27c4.3-9.7,8.4-17.9,12.4-27.7c3-7.1,2.3-11.6-3.3-11.7v-1.1
						h17.5v1.1c-4.5,0-7.8,6-10.2,11.4l-21.8,48.8h-3.3l-24.4-48.2C200.8,103.7,198.1,97.1,193.6,97.5z"/>
					<path d="M262.6,157.7v-1.1c0,0,6,0.3,6-6.5V104c0-6.3-6-6.5-6-6.5v-1.2h52.2l0.4,14.2h-1.3c-0.4-7.1-2.3-10.5-6.7-11.2
						c-1.1-0.2-2.8-0.2-4.8-0.2h-16.1v25.8h14.5c4.9,0,8.3-1.5,8.9-8h1c-0.4,6.6-0.4,13,0,19.5h-1.1c-0.8-6.7-3.5-8.3-8.8-8.3h-14.5
						v19.3c0,2.5,0.3,4.2,0.5,5.2c0.4,1,1,1.7,2,2s2.6,0.5,5.2,0.5h11.4c6.7,0,10.4-4.6,11.3-12.5h1.5l-1.3,15.2h-54.3L262.6,157.7
						L262.6,157.7z"/>
					<path d="M424,160.4c0,0-5.9,13.3-22.1,13.3c-16.1,0-24.9-17.6-29.4-28c-1.9-4.4-3.9-10.4-9.6-13.1c-3.3,0.3-6.4,0.1-6.4,0.1
						v15.9c0,7.2,6.5,8.3,6.5,8.3v0.9h-30.4v-1.1c0,0,6-0.2,6-8.3v-15.6c-7.2,0.2-10.4,2.6-10.4,6.6c0,3.3,1.9,6.3,5.9,6.8
						c-2.3,3.5-18.2,4.5-18.2-5.9c0-10.3,15.5-10.5,22.8-10.5h17.9c2.6,0,4.8-0.1,6.4-0.5c7.2-1.2,10.7-7,10.7-15
						c0-10.6-7.2-18.7-17.1-15.2v28.1h-17.9V106c0-8-6-8.3-6-8.3v-1.2h31.9c6.2,0,11.3,0.6,15.2,1.8c7.8,2.4,11.8,7.6,11.8,15.4
						c0,7.6-4.4,13.6-12.4,16.2c-3.8,1.1-7.3,1.6-8.4,1.8C395.1,135.3,390.3,170.1,424,160.4z"/>
				</g>
				<g class="st1">
					<path d="M157.7,237.7c0,0,6.5-0.6,6.5-7v-50c0-6.7-6.5-7-6.5-7v-1.3c9.7,0,21.1,0,31,0c6.7,0,12.5,0.4,17.4,1.7
						c16.1,4.7,22.4,14.9,22.4,31c0,15.7-7.6,26.6-23.8,31.4c-5.4,1.5-11.7,2.3-18.8,2.3h-28.3v-1.1L157.7,237.7L157.7,237.7z
						 M185,233.1c1.9,2.9,7.9,2.1,11.8,0.1c2.2-1.1,4.2-2.8,5.8-5.3c4.2-5.6,5.4-14.7,5.4-21.8c0-10.4-2.6-22.8-11.2-28.2
						c-3.3-2.1-6.4-2.8-10.9-2.8c-1.6,0-2.4,0.6-2.4,2.6V227C183.7,229.8,184.1,231.9,185,233.1z"/>
					<path d="M234,173.6v-1.2h32.6v1.2c-2.7,0-6.7,2.5-6.7,7.1v49.7c0,5.9,4.9,7.1,6.7,7.1v1.2h-32.5v-1.2c1.8,0,6.7-1.1,6.7-7.1
						v-49.7C240.8,174.9,236.2,173.6,234,173.6z"/>
					<path d="M270.7,238.8v-1.2c0,0,6.5,0.4,6.5-7v-49.9c0-6.9-6.5-7-6.5-7v-1.3h56.5l0.4,15.3h-1.4c-0.4-7.7-2.4-11.4-7.2-12.1
						c-1.2-0.2-3-0.2-5.2-0.2h-17.4v27.9H312c5.3,0,9-1.6,9.7-8.7h1.1c-0.4,7.1-0.4,14.1,0,21.1h-1.2c-0.8-7.2-3.8-8.9-9.5-8.9
						h-15.6v20.8c0,2.7,0.3,4.5,0.5,5.6c0.4,1.1,1.1,1.8,2.2,2.2s2.9,0.5,5.6,0.5h12.4c7.2,0,11.3-5,12.2-13.5h1.6l-1.4,16.4
						L270.7,238.8L270.7,238.8z"/>
				</g>
				<g class="st1">
					<path d="M53,252.5v-1.4h40.5v1.4c-5,0.5-6.7,4.4-0.8,15l11.4,20.4L117,266c5.5-8.9,6.7-13.1,0.5-13.7v-1.2h17.6v1.2
						c-4.4,0-9.1,7.2-12.3,12.7l-13.2,22.3c-2.9,5.7-5,9.7-5.2,16.9l-0.2,8.5c-0.2,10.9,6.5,11.1,6.5,11.1v1.4H77.3v-1.4
						c0,0,6.7,0,7.1-9.2c0,0,0.3-4.6,0.2-10.9c-0.2-6.7-1.5-10.4-4.7-15.9l-13.2-21.6C63.3,260.5,58.3,252.5,53,252.5z"/>
					<path d="M132,288.5c0-26.6,17.4-37.9,38.2-37.9c20.6,0,37.6,13.5,37.8,37c0.2,23.5-15.3,36.5-35.9,36.9
						C151.4,325.2,132,315.3,132,288.5z M169.2,254.2c-13.2,0-14.4,22.5-14,33.8c0.2,11.2,2.7,33.1,16.5,32.9
						c13.5-0.3,14-22,13.5-33.1C184.7,276.6,182.5,254.4,169.2,254.2z"/>
					<path d="M212.6,252.6v-1.5H251v1.4c0,0-8.6,1.4-8.6,10.1V300c0,13,3.9,20.5,16.7,20.5c12.1,0,15.5-8.5,15.5-20.6v-37.3
						c0-10.1-8.5-10.1-8.5-10.1v-1.4h21.2v1.4c0,0-8.2,0.5-8.2,10.2V299c0,18.2-9.1,26.1-24.7,26.1c-18.2,0-33.5-5.2-33.5-26.1
						v-36.3C220.8,253,212.6,252.6,212.6,252.6z"/>
					<path d="M293.3,325.2v-1.4c0,0,7.3-1.1,7.3-7.1v-54.1c0-9.6-7.3-10.1-7.3-10.1v-1.4h28.8l32.3,48v-36.5c0-10.7-7-10.1-7-10.1
						v-1.4h18.4v1.5c-1.1,0-7.3,0.8-7.3,10v62.6h-12.1l-41.7-60.4v49.9c0,9.2,8,9.2,8,9.2v1.4h-19.4L293.3,325.2L293.3,325.2z"/>
					<path class="st9" d="M439.8,251.1v23.8h-1.2c-2.6-11.6-8.6-19.5-21.1-20.4c-5-0.1-9.9,1.1-13.8,4c-7.9,6.1-10.6,19.1-10.6,29.5
						c0,8.9,2.1,23.6,8.9,29.4c5.6,5.2,11.4,5.3,18.7,3.7v-22.3c0-7.2-9-7.8-9-7.8v-1.5h36.9v1.2c0,0-7,1-7,7.9v26.5
						c-10.8,0-25.3,0-29.9,0c-25,0-41.4-15-41.4-36.6c0-20.9,15.5-37.4,38.7-37.4C420.5,251.1,430.8,251.1,439.8,251.1z"/>
				</g>
			</g>
			<g id="Layer_9" class="st0">
				<g id="Layer_8" class="st1">
					<path d="M325.5,208.8l16.5,3.4c6.2,1.3,15.5,0.8,19.5-0.9l2.7-1.2c1.1-0.5,1.7-1.1,1.7-1.6v-5.1c0-0.5-0.4-0.9-1.2-1.4
						l-1.7-0.9c-3.6-2-13.7-2.5-20.3-1.1l-17.5,3.8C319.2,205.1,319.3,207.5,325.5,208.8z"/>
					<path d="M330.7,221.6l9.9,6.7c3.7,2.5,10,4.8,13,4.7h2.1c0.9,0,1.4-0.2,1.6-0.6l1.4-3.3c0.1-0.3,0-0.7-0.4-1.2l-0.9-1.1
						c-1.8-2.3-8.3-5.4-13-6.3l-12.5-2.3C327.5,217.4,326.9,219,330.7,221.6z"/>
					<path d="M332,194.3l11.8-2.2c4.4-0.8,10.4-3.7,12.6-5.9l1.4-1.5c0.6-0.6,0.8-1.2,0.7-1.5l-1.4-3.3c-0.1-0.3-0.5-0.5-1.1-0.6
						l-1.4-0.1c-2.9-0.3-9.7,2.1-13.6,4.8l-10.4,7.2C326.8,193.6,327.5,195.2,332,194.3z"/>
				</g>
				<g id="Layer_10" class="st1">
					<path d="M276.5,201.5l-16.5-3.4c-6.2-1.3-15.5-0.8-19.5,0.9l-2.7,1.2c-1.1,0.5-1.7,1.1-1.7,1.6v5.1c0,0.5,0.4,0.9,1.2,1.4
						l1.7,0.9c3.6,2,13.7,2.5,20.3,1.1l17.5-3.8C282.8,205.1,282.7,202.7,276.5,201.5z"/>
					<path d="M271.3,188.7l-9.9-6.7c-3.7-2.5-10-4.8-13-4.7h-2.1c-0.9,0-1.4,0.2-1.6,0.6l-1.4,3.3c-0.1,0.3,0,0.7,0.4,1.2l0.9,1.1
						c1.8,2.3,8.3,5.4,13,6.3l12.5,2.3C274.5,192.8,275.1,191.2,271.3,188.7z"/>
					<path d="M270,215.9l-11.8,2.2c-4.4,0.8-10.4,3.7-12.6,5.9l-1.4,1.5c-0.6,0.6-0.8,1.2-0.7,1.5l1.4,3.3c0.1,0.3,0.5,0.5,1.1,0.6
						l1.4,0.1c2.9,0.3,9.7-2.1,13.6-4.8l10.4-7.2C275.2,216.6,274.5,215.1,270,215.9z"/>
				</g>
			</g>
			<g id="Layer_3" class="st0">
				<g class="st1">
					<path d="M397.2,330.5c0.3,0.3,0.5,0.7,0.8,0.8c3,0.7,5.9,1.5,8.9,1.9c4.9,0.6,9.8-0.2,14.7-0.7c7.6-0.8,15.1-2.2,22.6-4
						c2.3-0.6,4.6-1.2,6.7-2.2c2-1.1,4.3-1.6,6-3.3c1.6-1.6,3.7-2.8,5.4-4.3c1-0.9,1.9-2,2.8-3c0.3-0.4,0.7-0.7,1-1.1
						c1.3-1.7,2.5-3.5,3.5-5.4c1.5-2.9,2.8-6,3.7-9.1c1.7-6.3,2.2-12.7,1.6-19.2c-0.1-0.7-0.1-1.4-0.2-2.1s-0.2-1.3-0.4-2
						c0.2,1.7,0.4,3.3,0.6,5l0,0c-0.2-1.5-0.5-3-0.7-4.5c-0.2-1.7-0.1-3.5-0.6-5.1c-1-3.3-2.2-6.6-3.4-9.9c-0.2-0.7-0.4-1.4-0.5-2.1
						c-0.8-1.5-1.6-3.1-2.5-4.6c-1.4-2.5-2.8-5-4.3-7.4c-1.5-2.3-2.7-4.7-3.6-7.3c-0.8-2.1-1.2-4.2-0.9-6.4c0,0.5,0,1,0,1.5
						c0-3.3,1.1-6.3,2-9.4c0.6-2,1.6-3.8,2.3-5.7c2-5.7,3-11.5,1.4-17.6c-1.2-4.8-4.2-8.4-8.3-11.2c-3.8-2.6-8.1-3.3-12.5-3.4
						c-1.7-0.1-3.4,0-5.3,0c0,1,0,2.2,0,3.6c-1.8,0-3.4,0-5.2,0c0-1.3,0-2.7,0-4.4c1.1,0,2.2,0,3.3,0c5,0.1,10.1,0.1,15,1.5
						c6.3,1.8,10.6,5.8,12.8,12.1c1.8,5.3,1.7,10.7,0.1,16.1c-1.2,4-2.7,7.8-4,11.7c-1.8,5.4-1.2,10.6,1.6,15.6
						c2.4,4.3,4.9,8.5,7.2,12.8c3.4,6.6,5.4,13.6,6.3,20.9c1,7.4,0.5,14.7-1.4,21.9c-1.9,7.3-5.5,13.7-11.1,19
						c-5.2,4.8-11.2,8-18.1,9.6c-10.8,2.5-21.7,4.5-32.7,5c-5.6,0.3-11-0.6-16.1-3c-2-0.9-3.9-2.2-5.8-3.5c-3.3-2.3-6.6-4.6-9.9-7
						c-6.1-4.5-9.8-10.6-11.6-18c-1.9-7.9-1.6-15.7,0-23.5c1.6-8.1,4.5-15.7,8.7-22.8c2.2-3.8,4.5-7.6,6.7-11.3
						c3.5-5.8,4-11.7,1.4-18c-0.9-2.2-1.7-4.4-2.5-6.6c-2.4-7-2.3-13.9,0.9-20.6c3.1-6.3,8.5-9.6,15.1-11.1c4.8-1.1,9.7-1,14.5-1.2
						c2.3-0.1,2.3-0.1,3.1-2.2c0.4-1.1,1-2.2,1.5-3.3c0.6-1.3,1.8-1.9,3.1-1.9c1,0,1.2-0.5,1.2-1.4c0.2-11.5,0.5-22.9,0.7-34.4
						c0.2-12.5,0.5-24.9,0.6-37.4c0.1-7.6,0.1-15.2,0.1-22.8c0-3.2-0.8-6.1-3.3-8.4c-0.5-0.5-0.7-1.4-0.9-2.1
						c-0.3-1.1-0.5-2.2-0.5-3.3c-0.1-1.7-2.1-2.5-3.4-1.8c-0.1-0.3-0.3-0.6-0.4-0.9h-0.1c0.1,0.6,0.2,1.3,0.2,1.9
						c0,0.4-0.3,1-0.6,1.1c-0.3,0.2-0.9,0-1.3-0.2c-1.5-1-1.9-3.6-0.8-5.2c-0.3,1.7-0.3,3.3,0.9,4.7c0.6-1.3-0.2-2.2-0.9-3.3
						c0.7,0,1.3,0,1.9,0c-0.3-0.6-0.5-1.2-0.7-1.7c0.1-0.1,0.2-0.1,0.3-0.2c0.3,0.4,0.6,0.8,0.9,1.2c0.6,0.8,1,1.5,2.2,1.5
						c0.8-0.1,1-0.4,0.9-1c-0.5-2.9-1-5.8-1.5-8.7c-0.2-0.8-1.7-1-2.5-0.3c-0.2-0.2-0.3-0.4-0.5-0.6c-0.1,0.1-0.2,0.1-0.2,0.2
						c0,0.4,0.1,0.7,0.1,1.1c0,0.4,0,0.9-0.3,1.1c-0.3,0.2-0.9,0.2-1.2,0c-1.6-0.7-2.3-3.7-1.1-5.2c-0.4,1.8-0.1,3.4,1.4,4.6
						c-0.4-0.8-0.7-1.6-1.1-2.5c0.5-0.1,1-0.1,1.7-0.2c-0.4-0.9-0.8-1.6-1.2-2.4c0-0.1,0.1-0.1,0.1-0.2c0.5,0.4,1,0.7,1.4,1.2
						c0.8,0.9,1.3,2,2.9,1.6c-0.4-2.1-0.8-4.3-1.2-6.4c-0.2-0.9-0.3-1.8-0.4-2.6c-0.2-1.3-1.5-1.7-2.5-0.8c-0.1,0.1-0.3,0.2-0.3,0.2
						c-0.2,0.6-0.3,1.2-0.5,1.3c-0.4,0.1-1.1,0.1-1.5-0.1c-1.4-0.8-1.9-3.1-1-4.7c0,0.9-0.1,1.8,0.2,2.5c0.2,0.7,0.8,1.3,1.2,2
						c0.1-0.1,0.2-0.1,0.3-0.2c-0.2-0.5-0.5-1-0.8-1.5c0.5-0.1,0.9-0.2,1.3-0.3c-0.3-0.9-0.5-1.8-0.8-2.7c1.6,0.5,1.9,2.7,4,2.1
						c-0.3-2-0.7-4.1-1-6.2c-0.3-1.6,0.4-3.2,1.8-4c0.3-0.2,0.8-0.2,1.1-0.1c5.4,0.8,10.8,1.6,16.2,2.5c1,0.2,1.6,0.7,1.7,1.7
						c0.1,2.1,0.3,4.2,0.5,6.3c0.1,0.8,0.3,1.5,1.3,2c-0.1-0.4-0.2-0.6-0.3-0.9c1.6,1.4,1.6,4.1-0.2,5.3c-0.2,0.1-0.3,0.5-0.3,0.8
						c0.3,1.8-0.2,3.7,0.9,5.3c0.1,0.1-0.1,0.4,0.1,0.7c0.2-0.4,0.4-0.7,0.5-1c1.5,1.8,1.2,4.5-0.7,5.3c0.1,0.9,0.1,1.8,0.2,2.7
						c0.1,0.9,0.1,1.8,0.2,2.4c0.9,0.4,1.7,0.6,2.2,1.1c0.4,0.3,0.6,1,0.6,1.6c-0.1,0.9-0.2,1.9-0.6,2.7c-0.2,0.4-1,0.5-1.6,0.8
						c-0.3,2.1-0.7,4.4-1,6.7c-0.5,0-0.9-0.1-1.5-0.1c-0.2-2.3-0.5-4.6-0.7-6.9h-0.1c0.2,2.2,0.3,4.4,0.5,6.7
						c-1.5,0.3-1.7,0.2-1.8-1.2c-0.1-3.9-0.2-7.7-0.3-11.6c-0.1-2.5-0.1-5.1-0.2-7.6c0-0.4,0-0.8,0.1-1.2c0-0.1,0.3-0.1,0.5-0.2
						c-0.1-0.6-0.1-1.3,0.9-1.5c0.3-0.1,0.4-0.7,0.6-1.2c-1.5-0.4-1.2,1.3-2.1,1.4c-0.1-2.2-0.2-4.5-0.3-7c0,1.9,0,3.4,0,5
						c0,0.7-0.4,1.3-0.5,2c-0.1,0.3,0,0.6,0.1,0.9c0.2,0.8,0.5,1.6,0.5,2.4c0.2,6.3,0.3,12.6,0.4,18.9c0,0.3,0,0.6,0,0.8
						c-1.8,0.2-1.7,0.2-2.1-1.4c-0.9-3.7-1.8-7.4-2.7-11.1c-0.1,0-0.2,0-0.3,0.1c1,4.1,2,8.2,3,12.2c-1.6,0.2-1.7,0.2-2-1.2
						c-0.7-3.7-1.4-7.3-2.1-11c0-0.2-0.1-0.5-0.2-0.7c-0.5,0.4-0.7,1.3-1.6,0.7c1.1-0.6,1.6-1.5,1.5-2.6c-0.5-2.6-1-5.3-1.5-7.9
						c0-0.2-0.3-0.4-0.5-0.5c-0.3-0.2-0.5-0.3-0.9-0.6c1.2-0.4,1.6-1.2,1.4-2.3c-0.5-2.2-1.1-4.4-1.6-6.7c-0.2-0.7-0.4-1.3-0.6-2
						c-0.1,0-0.2,0-0.3,0.1c0.7,3,1.5,6,2.2,9c-0.3,0.2-0.6,0.3-0.9,0.4c-0.3,0.2-0.6,0.4-0.9,0.5c-1,0.2-0.9,0.9-0.9,1.6
						c0,0.4,0.5,0.7,0.8,1.2c0.2-0.6,0.4-0.9,0.5-1.2c0.4,0,0.8,0,1.2,0c0.6,3,1.2,6.1,1.8,8.9c-1,0.5-1.9,0.9-2.7,1.5
						c-0.7,0.5-0.1,1.2,0.1,1.8c0,0.1,0.4,0.1,0.6,0.1c0.1,0,0.2-0.2,0.3-0.4c0.1-0.2,0.1-0.4,0.1-0.6c1.1,0.1,1.4,0.8,1.4,1.8
						c0.1,2.9,0.4,5.8,0.6,8.7c0,0.3,0,0.6,0,0.9c-1.8,0.3-1.8,0.3-1.4,2.1c0.3-0.1,0.7-0.2,1-0.1c0.2,0,0.6,0.3,0.6,0.5
						c0,3.3,0,6.6,0,9.6c-0.5,0.3-0.9,0.5-1.2,0.7c0.1,0.1,0.1,0.2,0.2,0.3c0.3-0.1,0.5-0.1,0.9-0.2c0,3.3,0,6.5,0,9.5
						c-0.5,0.2-0.8,0.4-1.1,0.6c0,0.1,0.1,0.2,0.1,0.4c0.3,0,0.6-0.1,0.9-0.2c0,3.1,0,6.1,0,9c-0.4,0.1-0.8,0.2-1.1,0.3
						c0,0.1,0.1,0.3,0.1,0.4c0.3,0,0.7,0,1-0.1c0,2.9,0,5.7,0,8.5c-0.4,0.1-0.8,0.2-1.2,0.2c0,0.1,0,0.3,0.1,0.4
						c0.3,0,0.7-0.1,1.1-0.1c0,2.8,0,5.5,0,8.1c-0.4,0.4-1.3-0.5-1.2,0.7c0.4-0.1,0.8-0.2,1.2-0.3c0,2.6,0,5.1,0,7.6
						c-0.5,0.1-0.9,0.2-1.3,0.3c0,0.1,0.1,0.2,0.1,0.4c0.4-0.1,0.7-0.1,1.2-0.2c0,2.5,0,4.8,0,7c-0.3,0.6-1.4-0.4-1.2,0.8
						c0.4-0.1,0.7-0.1,1.2-0.2c0,2.3,0,4.6,0,6.8c-0.5,0.1-0.9,0.2-1.3,0.2c0,0.1,0.1,0.3,0.1,0.4c0.4-0.1,0.7-0.1,1.2-0.2
						c0,2.2,0,4.3,0,6.4c-1.2,0-1.2,0-1.2,0.7c0.4-0.1,0.7-0.2,1.2-0.3c0,6-0.1,12-0.1,17.9c-0.5,0.1-1,0.1-1.4,0.1
						c0,0.1,0,0.3,0.1,0.4c0.4-0.1,0.8-0.1,1.3-0.2c0,1.7,0,3.4,0,5c-1.3,0.1-1.3,0.1-1.3,0.7c0.4-0.1,0.9-0.2,1.3-0.3
						c0,1.7,0,3.2,0,4.8c-0.5,0.1-1,0.2-1.4,0.2c0,0.1,0,0.2,0.1,0.4c0.4-0.1,0.8-0.2,1.3-0.3c0,1.6,0,3,0,4.4
						c-0.4,0.5-1.4-0.4-1.5,0.8c0.5-0.1,0.9-0.2,1.4-0.4c0,1.4,0,2.8,0,4c-0.4,0.6-1.4-0.4-1.4,0.9c0.5-0.1,0.9-0.2,1.4-0.4
						c0,1.4,0,2.6,0,3.8c-0.4,0.6-1.4-0.4-1.5,0.9c0.5-0.1,0.9-0.2,1.4-0.3c0,1.3,0,2.5,0,3.6c-0.6,0.1-1,0.3-1.5,0.4
						c0,0.1,0.1,0.2,0.1,0.4c0.4-0.1,0.9-0.1,1.4-0.2c0,1.2,0,2.3,0,3.4c-0.4,0.3-1.5-0.5-1.5,0.8c0.6-0.1,1-0.2,1.5-0.4
						c0,1.2,0,2.2,0,3.2c-0.5,0.4-1.4-0.5-1.6,0.8c0.6-0.1,1-0.2,1.6-0.3c0,1.4,0,2.7,0,4c0,0.2-0.2,0.4-0.4,0.6
						c-1,0.8-2.1,1.6-3.3,2.2c1.1-0.9,2.2-1.8,3.5-2.9c-0.8,0.1-1.3,0.2-2,0.4c0-0.6-0.1-1.2-0.1-2c-0.5,0.2-0.9,0.5-1.3,0.7l0,0
						c0-0.1,0-0.2,0-0.2c1.6-0.7,1.4-2.1,1.4-3.4c0.1-7.3,0.2-14.5,0.3-21.8c0-0.7-0.1-1.3-0.1-2.3c-3.8,0.3-7.4,0.6-11.1,1
						c-4.4,0.5-8.4,2.2-11.9,5.1c-4.2,3.4-6.3,8-7,13.3c-0.8,6.1,0.4,11.8,2.7,17.4c1.3,3.1,2.4,6.2,3.4,9.4c1.2,3.9,0.5,7.7-1,11.4
						c-0.6,1.5-1.4,3-2.1,4.4c-0.5,1.1-1.1,2.3-1.6,3.4c-0.1,0-0.3,0-0.4,0c-0.9,1.5-1.7,3-2.5,4.4c-0.9,1.6-1.8,3.1-2.7,4.7
						c-0.1,0.1,0.1,0.3,0.2,0.5c-0.6,0.8-1.3,1.6-1.7,2.4c-1.4,3.3-2.9,6.7-4,10.1c-3.4,10.5-4.9,21.2-2.7,32.2
						c1.1,5.5,3,10.6,6.6,14.9c1.2,1.5,2.8,2.7,4.3,4.1c0,0.1,0,0.2,0,0.2c2,1.2,3.9,2.4,5.9,3.6C396.7,330.8,397,330.6,397.2,330.5
						z M431.9,45.5c0.3-0.6,0.6-1,0.9-1.5c-0.1-0.1-0.2-0.2-0.2-0.3c-0.7,0.3-1.4,0.5-2,0.8c-0.8,0.3-0.7,0.9-0.6,1.5
						c0.1,0.4,0.5,0.7,0.9,1.2c0.3-0.7,0.4-1.1,0.5-1.5c0.3,0.1,0.6,0.2,1,0.2c0,0,0-0.1,0.1-0.1C432.1,45.7,431.9,45.5,431.9,45.5z
						 M421.5,42.5c-0.1-0.2-0.2-0.3-0.3-0.5c-0.5,0.2-1.1,0.6-1.6,0.6c-0.9,0.1-1.1,0.7-1.1,1.4c0,0.4,0.4,0.8,0.6,1.3
						C420,44.3,420.8,43.4,421.5,42.5z M432.8,65.8c0.5,0.9-1.6,2.3,0.2,3.5c0.8-1,1.5-1.9,2.4-2.9c-1.6-0.4-1.4,1.1-2.2,1.3
						C433,67,432.8,66.2,432.8,65.8z M423.9,54.6c-0.1,0-0.2,0-0.2,0.1c0.9,3.7,1.8,7.4,2.7,11.1c0.1,0,0.2,0,0.3-0.1
						C425.7,62,424.8,58.3,423.9,54.6z"/>
					<path d="M442.4,238.7c2-2.9,2.6-6.1,2.4-9.6c-0.2-3.4-0.6-6.7-3.5-9.1c0.1-0.2,0.3-0.4,0.2-0.5c-0.8-1.2-1.6-2.4-3.1-2.9l0,0
						c-0.1-0.1-0.2-0.1-0.3-0.2H438v-0.1c0.5,0,1.1-0.1,1.9-0.1c-0.7-0.6-1.3-1-1.8-1.4c-0.1,0-0.2,0.1-0.3,0.1
						c0.1,0.5,0.1,0.9,0.2,1.4c0,0.1,0,0.1,0.1,0.2l0,0c-0.4,0-0.7,0.1-1.1,0c-0.5-0.1-1.1-0.3-1.7-0.3c6.5,3.9,8.7,9.8,7.5,17
						c-0.6,3.9-2.6,7.3-5.8,9.8c5.9-6,7.6-12.9,3.9-20.6c-1.5-3.1-3.9-5.3-7.5-5.9c6.9,3.4,9.2,9,8.1,16.4
						c-0.8,5.3-4.9,9.9-8.5,11.2c-0.7-2.1-0.2-2.3,2.5-2.3c0-0.5,0-1.1,0-1.5c-0.8-0.1-1.6-0.1-2.3-0.3c-0.2-0.1-0.4-0.7-0.4-1.1
						c-0.1-3.1-0.1-6.3-0.1-9.5c0-0.4,0-0.7-0.1-1.1c0,3.5,0,7-0.1,10.5c0,0.5,0.2,1.2-0.7,1.1c-0.7-0.1-1.7,0.3-1.7-1.1
						c0-8.5-0.1-17-0.2-25.4c0-0.1,0-0.3,0.1-0.5c0.7,0,1.5-0.1,2.3-0.1c0,4.1,0,8.1-0.1,12.1c0.1,0,0.1,0,0.2,0c0-4,0-8,0.1-12.1
						c1.6-0.1,3.1-0.2,4.6-0.2c0.2,0,0.7,0.5,0.6,0.8c-0.1,0.8,0.5,1.2,0.9,1.8c1.5,1.8,3.7,1.5,5.5,2.2c2.5,0.9,4.6,2.4,5.8,4.6
						c1.5,2.6,2.8,5.2,3.7,8c2.2,6.5,3.3,13.2,3.5,20c0.1,3.9-0.4,7.6-1.9,11.2c-1.9,4.3-5.5,6.1-9.9,6.5c-2.9,0.2-5.8-0.1-8.2-1.9
						c-2.5-1.9-3.6-4.6-3.7-7.7c-0.1-3.3,0.1-6.6,0.2-9.9c-0.2,0.1-0.6,0.2-1.3,0.4c1.5-1.2,2.8-2.2,4-3.3c0.2-0.2,0.3-0.6,0.5-0.9
						c1,0.2,2.3-0.8,2.8-2.1c0.4-0.6,0.9-1.2,1.3-1.9h0.1l0,0l0,0l0,0c0-0.1,0-0.3,0.1-0.4l0,0c0.2,0,0.3,0,0.5,0l0,0
						c0.1-0.2,0.3-0.4,0.4-0.5l0,0C442.4,239.2,442.4,239,442.4,238.7L442.4,238.7z"/>
					<path d="M408.7,273.8c5-0.5,9.9-0.9,14.9-1.4c0,1,0,1.8,0,2.8c-0.9,0.1-1.8,0.3-3,0.5c0.9,1.4,2.1,0.3,3,0.8
						c-0.1,0.6-0.2,1.1-0.3,1.7c0.3-2.2,1.8-2.5,3.6-2.4c-0.1,0.6-0.2,1.1-0.3,1.6c0.1,0.1,0.1,0.1,0.2,0.2c0-0.1,0-0.2,0-0.3
						c0-1.5,1-1.8,2.2-1.9c1.2,0,2.5-0.1,3.7-0.3c2.5-0.4,4.9-1,7.4-1.5c0.2,0,0.3-0.3,0.5-0.5c-0.3-0.1-0.5-0.4-0.8-0.3
						c-1.7,0.2-3.3,0.5-5,0.8c-0.6,0.1-1.1,0.2-1.7,0.3c-0.6-1.9-0.3-2.3,1.6-2.5c4.6-0.4,9.2-0.9,13.8-1.3c1.4-0.1,1.4-0.1,1.4,1.3
						c0,1.8,0,3.5,0,5.3c0,1.1-0.4,1.5-1.4,1.7c-1.1,0.2-2.2,0.2-3.3,0.5c-0.9,0.3-2,0.6-2.6,1.3c-1.2,1.4-2.8,1.9-4.5,2.2
						c-2.8,0.5-5.7,0.8-8.6,1.1c-2.2,0.3-4.3,0.4-6.5,0.6c-2.5,0.3-4.9,0-7.1-1.4c-0.8-0.5-2-0.6-3-0.6c-1.1-0.1-2.3,0.1-3.4,0.2
						c-0.6,0-1.1-0.1-1.1-0.8C408.7,278.8,408.7,276.4,408.7,273.8z"/>
					<path d="M423.7,238.5c0-0.4,0-0.8-0.1-1.5c-0.1,0.5-0.2,0.8-0.2,0.8c-0.8,0.1-1.4,0.2-2.3,0.3c-0.1-0.1-0.4-0.5-0.6-0.7
						c-0.3,0.5-0.6,1.1-1.1,1.9c0-3.4,0-6.5,0-9.6c-0.1,0-0.1,0-0.2-0.1c-0.6,1.2-1.2,2.3-1.9,3.5c-2.6-3.2,1.8-13,6.8-15.4
						c0,6.9-0.1,13.8-0.1,20.7C423.9,238.5,423.8,238.5,423.7,238.5z"/>
					<path d="M425.5,216.7c-0.3,0.1-0.6,0.1-0.9,0.2c0-1.3,0-2.6,0-4c0.8,0,1.6-0.1,2.5-0.1c0,8.9-0.1,17.7-0.1,26.6
						c-0.4-0.8-0.4-0.8-2.2-0.8c0,0.2-0.1,0.3-0.1,0.5s0,0.3-0.3,0.5c0-4.1,0-8.3,0.1-12.4c0-2.8,0.1-5.7,0-8.5
						C424.5,217.8,424.6,217.1,425.5,216.7z"/>
					<path d="M427.6,212.8c0.7,0,1.4,0,2.2,0c0,8.9-0.1,17.8-0.1,26.8c-0.6-0.5-1.2-1-1.9-1.5c-0.1,0.6-0.1,0.9-0.2,1.3
						c-0.1,0-0.1,0-0.2,0C427.5,230.6,427.6,221.7,427.6,212.8z"/>
					<path d="M430.1,159.1c0.8,0,1.4,0,2.2,0c0.1,0.8,0.1,1.5,0.2,2.3c0,0,0,0,0.1,0c0-0.7,0-1.4,0-2.2c0.7,0,1.3,0,2,0
						c0,0.6,0.1,1.2,0.1,2.1c0.1-0.8,0.1-1.4,0.2-2c0.2-0.1,0.3-0.1,0.4-0.1c2.4,0,2-0.1,2,2c0,1.3,0,2.6,0,4c-0.8,0-1.5,0-2.3,0
						c0-0.7,0-1.4,0-2.1h-0.1c0,0.7-0.1,1.4-0.2,2.3c-0.8-0.1-1.5-0.3-2.1-0.4c-0.6,0-1.1,0.2-1.7,0.2c-0.3,0-0.7-0.3-0.7-0.5
						C430.1,162.7,430.1,160.9,430.1,159.1z"/>
					<path d="M434.7,171.5c0,0.8,0,1.6,0,2.3h0.1c0-0.2,0-0.3,0-0.5c0.1-2,0.5-2.3,2.6-1.6c0,1.6,0,3.3,0,5.1
						c-0.7,0-1.5,0.1-2.3,0.1c-0.1-0.6-0.2-1.1-0.3-1.6c0,0,0,0-0.1,0c0,0.5,0,1,0,1.5c-1.5,0-3,0-4.6,0c0-1.8,0-3.5,0-5.3
						C431.7,171.5,433.2,171.5,434.7,171.5z"/>
					<path d="M435.9,81.6c0,3.5,0,6.9,0,10.4c-1.2-0.1-2.3-0.3-3.6-0.4c0-3.4,0-6.8,0-10.4C433.4,81.3,434.5,81.4,435.9,81.6z"/>
					<path d="M436.1,99.2c0,0.9,0,1.8,0,2.8c-1.6,0.3-1.8,0.2-1.8-1.3c0-2.6,0-5.2,0-7.7c-0.1,0-0.2,0-0.3,0c0,3,0,5.9,0,8.9
						c-1.8,0.1-1.8,0.1-1.8-1.5c0-2.7,0-5.5,0-8.3c1.1,0.1,2.2,0.2,3.2,0.3c0.2,0,0.4,0.4,0.4,0.7c0,1,0,2,0.1,3c0-1.1,0-2.2,0-3.3
						c0.1,0,0.2,0,0.3,0c0,3.1,0,6.1,0,9.2l0,0c0-0.9,0-1.8,0-2.7C436.2,99.3,436.2,99.2,436.1,99.2z"/>
					<path d="M434.6,158.8c-0.8-0.3-1.7,0.3-2.1-0.6c-0.5,1-1.5,0.2-2.4,0.5c0-0.9-0.1-1.6-0.1-2.2c0.4-0.4,0.7-0.7,1-1
						c-0.3-0.3-0.6-0.5-0.9-0.8c0-0.7,0-1.5,0-2.4c0.7,0,1.4,0,2.1,0c0,0.5,0.1,1,0.1,1.6c0.3-0.6-0.3-1.6,1-1.6
						c1,0,1.3,0.3,1.3,1.3C434.5,155.2,434.6,156.9,434.6,158.8z"/>
					<path d="M434.7,171.1c-1.6,0-3,0-4.6,0c0-1.9,0-3.7,0-5.6c0.1-0.1,0.1-0.1,0.2-0.1c1.2,0,2.5,0,3.7,0.1c0.3,0,0.7,0.4,0.7,0.6
						C434.8,167.7,434.7,169.4,434.7,171.1z"/>
					<path d="M430.1,182.2c0-1.7,0-3.3,0-5c1.5,0,3,0,4.8,0c0,1.5,0,3,0,4.6c0,0.2-0.4,0.4-0.6,0.4
						C432.9,182.2,431.6,182.2,430.1,182.2z"/>
					<path d="M434.8,182.6c0,1.5,0,3,0,4.6c-1.5,0-3.1,0-4.7,0c0-1.5,0-3,0-4.6C431.7,182.6,433.2,182.6,434.8,182.6z"/>
					<path d="M427.5,91.2c-0.6,0-1.2-0.1-1.8-0.1c0-3.5,0-7,0-10.5c0.6,0.1,1.1,0.1,1.8,0.2C427.6,84.2,427.6,87.6,427.5,91.2z"/>
					<path d="M435,201.5c0.7-0.8,1.6-0.5,2.4-0.3c0.2,0,0.4,0.8,0.5,1.2c0.1,0.7,0,1.4,0,2.4c-1.7,0.1-3.3,0.1-5.3,0.2
						c0-1.2,0-2.2,0-3.3c0-0.1,0-0.2,0.1-0.3C433.1,200.9,434.8,201.1,435,201.5z"/>
					<path d="M425.6,101.7c0.7,0.1,1.3,0.1,1.9,0.2c0,3.1,0,6.1,0,9.2c-0.7-0.1-1.2-0.1-1.9-0.2
						C425.6,107.9,425.6,104.8,425.6,101.7z"/>
					<path d="M427.5,101.4c-0.7-0.1-1.2-0.1-1.9-0.2c0-3.2,0-6.4,0-9.7c0.6,0.1,1.2,0.1,1.9,0.2C427.5,94.9,427.5,98.1,427.5,101.4z
						"/>
					<path d="M434.4,111.6c0-3.1,0-6.1,0-9.2c0.5,0,1,0.1,1.7,0.2c0,2.2,0,4.3,0,6.4c0.1,0,0.1,0,0.2,0c0-2,0-4.1,0-6.1
						c0.1,0,0.2,0,0.2,0c0,2.9,0,5.8,0,8.7c0-0.2-0.1-0.3-0.1-0.5C436.1,112.3,435.2,111.4,434.4,111.6z"/>
					<path d="M428.1,80.7c0.5,0.1,1.1,0.1,1.7,0.2c0,3.5,0,6.9,0,10.5c-0.6,0-1.1-0.1-1.7-0.1C428.1,87.7,428.1,84.3,428.1,80.7z"/>
					<path d="M431.9,101.7c-0.6,0-1.1-0.1-1.8-0.1c0-3.2,0-6.4,0-9.8c0.5,0,1.1,0.1,1.8,0.2C431.9,95.3,431.9,98.5,431.9,101.7z"/>
					<path d="M429.8,101.6c-0.7-0.1-1.2-0.1-1.8-0.1c0-3.3,0-6.5,0-9.7c1.8,0,1.8,0,1.8,1.7C429.9,96.1,429.8,98.8,429.8,101.6z"/>
					<path d="M425.5,120.1c0-2.9,0-5.8,0-8.7c0.7,0,1.3,0.1,2,0.1c0,2.9,0,5.8,0,8.7C426.8,120.2,426.2,120.1,425.5,120.1z"/>
					<path d="M430.2,80.9c0.6,0.1,1.1,0.1,1.7,0.2c0,3.5,0,6.9,0,10.5c-0.6-0.1-1.1-0.1-1.7-0.2C430.1,87.9,430.2,84.5,430.2,80.9z"
						/>
					<path d="M432,120.4c-0.6,0-1.2,0-1.9,0c0-2.9,0-5.7,0-8.7c0.6,0,1.2,0.1,1.9,0.1C432,114.7,432,117.5,432,120.4z"/>
					<path d="M432.4,197c0,2.6,0,5.2,0,7.9c-0.7,0-1.4,0-2.2,0c0-1.2,0-2.3,0-3.6c0.6,0,1.1-0.1,1.7-0.1c0-0.1-0.1-0.2-0.1-0.2
						c-1.7-0.2-1.7-0.2-1.7-1.9c0-0.7,0-1.3,0-2.1C430.9,197,431.6,197,432.4,197z"/>
					<path d="M427.4,128.8c-0.7,0-1.3-0.1-2-0.1c0-2.7,0-5.4,0-8.2c0.7,0,1.3,0.1,2,0.1C427.4,123.3,427.4,126,427.4,128.8z"/>
					<path d="M427.4,136.9c-0.8-0.1-1.4-0.1-2.1-0.2c0-2.5,0-5,0-7.6c0.7,0,1.4,0.1,2.1,0.1C427.4,131.8,427.4,134.3,427.4,136.9z"
						/>
					<path d="M428,102c1.8-0.1,1.8-0.1,1.8,1.7c0,2.5,0,5,0,7.6c-0.6,0-1.2-0.1-1.8-0.1C428,108.1,428,105.1,428,102z"/>
					<path d="M431.9,111.3c-0.2,0-0.3,0-0.4,0c-1.5,0-1.5,0-1.5-1.5c0-2.5,0-5.1,0-7.7c0.7,0,1.2,0.1,1.9,0.1
						C432,105.3,432,108.3,431.9,111.3z"/>
					<path d="M436.6,128.9c0-1.9,0-3.7,0-5.6h-0.1c0,2,0,3.9,0,5.9c-0.6,0-1.1,0-1.9,0c0-2.7,0-5.4,0-8.1c0.4,0,1-0.1,1.4,0
						c0.3,0.1,0.7,0.5,0.7,0.8c0,2.3,0,4.6,0,6.9C436.7,128.9,436.6,128.9,436.6,128.9z"/>
					<path d="M435.3,208.1c-0.6,0.9-1.6,0.3-2.5,0.7c0-1.2,0-2.3,0-3.5c1.5,0,3-0.1,4.5-0.1c0.2,0,0.5,0.4,0.6,0.7
						c0.1,0.8,0,1.6,0,2.4C436.7,208.8,435.6,208.7,435.3,208.1z"/>
					<path d="M436.5,129.7c0,0.6,0,1,0,1.4c0,0,0,0,0.1,0c0-0.4,0.1-0.7,0.1-1.1c0.1,0,0.2,0,0.4,0c0,1,0,1.9,0,2.9
						c0,1.1,0,2.2,0,3.3c0,1-0.5,1.2-1.4,1.1c-0.3,0-0.6-0.1-0.9-0.1c0-2.5,0-5,0-7.7C435.3,129.6,435.9,129.6,436.5,129.7z"/>
					<path d="M425.3,137.2c0.8,0,1.4,0,2.1,0c0,2.4,0,4.8,0,7.3c-0.7,0-1.4-0.1-2.1-0.1C425.3,142,425.3,139.6,425.3,137.2z"/>
					<path d="M432.3,111.4c0-3.1,0-6,0-9.1c0.5,0,1.1,0.1,1.7,0.1c0,3,0,6,0,9.1C433.5,111.5,433,111.4,432.3,111.4z"/>
					<path d="M434.7,137.6c0.4,0,0.7,0,0.9,0c1-0.1,1.4,0.3,1.3,1.4c-0.1,1.6-0.1,3.3-0.1,4.9c0,0.7-0.2,1-1,1c-0.7,0-1.3,0-1.3-1
						C434.7,141.9,434.7,139.8,434.7,137.6z"/>
					<path d="M429.7,120.3c-0.6,0-1.2-0.1-1.9-0.1c0-2.9,0-5.7,0-8.6c0.6,0,1.2,0,1.9,0C429.8,114.6,429.7,117.4,429.7,120.3z"/>
					<path d="M435.3,210c-0.1,2.6,0.5,2.2-2.5,2.3c0-1,0-2.1,0-3.3c1.7,0,3.3,0,5.2,0c0,0.8,0,1.7,0,2.6c0,0.2-0.3,0.5-0.5,0.5
						c-0.4,0.1-0.8,0-1.2,0.1c-0.7,0.1-1.1-0.1-1-0.9C435.3,210.8,435.3,210.4,435.3,210z"/>
					<path d="M425.2,151.7c0-2.3,0-4.5,0-6.8c0.7,0,1.4,0,2.2,0c0,2.3,0,4.5,0,6.8C426.6,151.7,425.9,151.7,425.2,151.7z"/>
					<path d="M427.8,128.8c0-2.7,0-5.4,0-8.2c0.6,0,1.2,0.1,1.9,0.1c0,2.8,0,5.5,0,8.2C429.1,128.9,428.5,128.8,427.8,128.8z"/>
					<path d="M434.2,129.2c-1.9,0-1.9,0-1.9-1.7c0-2.1,0-4.3,0-6.4c1.6-0.4,1.9-0.2,1.9,1.4C434.3,124.7,434.3,126.9,434.2,129.2z"
						/>
					<path d="M434.1,120.6c-0.6-0.1-1.1-0.1-1.8-0.2c0-2.9,0-5.7,0-8.6c0.6,0,1.1,0.1,1.8,0.1C434.2,114.8,434.1,117.7,434.1,120.6z
						"/>
					<path d="M432,129c-0.6,0-1.2-0.1-1.9-0.1c0-0.9,0-1.8,0-2.7c0.4-0.3,0.8-0.7,1.2-1.1c-0.1-0.1-0.1-0.2-0.2-0.3
						c-0.3,0-0.7-0.1-1.1-0.2c0-1.3,0-2.6,0-4c0.6,0.1,1.2,0.1,1.9,0.2C432.1,123.6,432.1,126.3,432,129z"/>
					<path d="M429.7,144.6c-0.7,0-1.3-0.1-1.9-0.1c0-2.4,0-4.8,0-7.2c0.6,0,1.2,0.1,1.9,0.1C429.8,139.8,429.7,142.2,429.7,144.6z"
						/>
					<path d="M425.2,152.1c0.7,0,1.4,0,2.2,0c0,2.2,0,4.3,0,6.5c-0.7,0-1.4-0.1-2.2-0.1C425.2,156.4,425.2,154.3,425.2,152.1z"/>
					<path d="M434.8,152.4c0.6,0,1.1-0.1,1.5,0c0.3,0.1,0.7,0.5,0.7,0.7c0.1,1.8,0,3.7,0,5.7c-0.5,0-1.1,0-1.7,0
						c-0.2,0-0.6-0.4-0.6-0.6C434.8,156.3,434.8,154.3,434.8,152.4z"/>
					<path d="M430.2,137.4c0.7,0,1.3,0.1,2,0.1c0,2.4,0,4.7,0,7.1c-0.6,0-1.3,0-2,0c0-0.9,0-1.8,0-2.7c0.2-0.1,0.5-0.3,0.8-0.4
						c0-0.1,0-0.1-0.1-0.2c-0.2,0-0.4,0-0.7,0C430.2,140,430.2,138.8,430.2,137.4z"/>
					<path d="M434.5,112.1c1.8-0.1,1.8-0.1,1.8,1.6c0,2.3,0,4.6,0,7.1c-0.6,0-1.1-0.1-1.8-0.1C434.5,117.8,434.5,115,434.5,112.1z"
						/>
					<path d="M434.8,151.9c0-2.3,0-4.4,0-6.6c1.8-0.4,2.1-0.2,2.1,1.6c0,1.2,0.1,2.5,0.1,3.7c0.1,1.3,0,1.4-1.4,1.4
						C435.4,152,435.1,152,434.8,151.9z"/>
					<path d="M430.2,129.3c0.7,0,1.3,0.1,1.9,0.1c0,2.5,0,5,0,7.7c-0.6,0-1.3-0.1-1.9-0.2C430.1,134.4,430.2,131.9,430.2,129.3z"/>
					<path d="M427.9,129.2c0.6,0,1.2,0.1,1.9,0.1c0,2.6,0,5.1,0,7.6c-0.6,0-1.2,0-1.9,0C427.9,134.3,427.9,131.8,427.9,129.2z"/>
					<path d="M434.3,137.1c-0.6,0-1.1,0-1.8,0c0-2.5,0-5.1,0-7.6c0.5,0,1.1,0,1.8,0C434.3,132.1,434.3,134.6,434.3,137.1z"/>
					<path d="M425.1,158.9c0.8,0,1.4,0,2.2,0c0,2,0,4,0,6c-0.8,0-1.4,0-2.2,0C425.1,162.9,425.1,161,425.1,158.9z"/>
					<path d="M429.7,151.7c-0.7,0-1.3,0-2,0c0-2.3,0-4.5,0-6.8c0.6,0,1.2,0,2,0C429.8,147.2,429.7,149.5,429.7,151.7z"/>
					<path d="M432.2,151.9c-0.7,0-1.3-0.1-2-0.1c0-2.3,0-4.5,0-6.8c0.7,0,1.3,0.1,2,0.1C432.2,147.3,432.2,149.6,432.2,151.9z"/>
					<path d="M432.5,145.2c0.7,0,1.3,0,2,0c0,2.3,0,4.4,0,6.8c-0.5,0-0.9,0-1.4,0c-0.2,0-0.5-0.3-0.5-0.5
						C432.4,149.3,432.5,147.2,432.5,145.2z"/>
					<path d="M434.4,144.7c-0.6,0-1.2,0-1.9,0c0-2.4,0-4.8,0-7.2c0.6,0,1.2,0.1,1.9,0.1C434.4,140,434.4,142.3,434.4,144.7z"/>
					<path d="M429.7,158.6c-0.7,0-1.3,0-2,0c0-2.1,0-4.2,0-6.4c0.6,0,1.3,0,2,0C429.8,154.3,429.8,156.4,429.7,158.6z"/>
					<path d="M425.1,165.3c0.8,0,1.4,0,2.2,0c0,1.9,0,3.8,0,5.7c-0.8,0-1.4,0-2.2,0C425.1,169.1,425.1,167.3,425.1,165.3z"/>
					<path d="M437.3,171c-0.1,0-0.1,0.1-0.2,0.1c-2.1,0.3-2.2,0.3-2.2-1.9c0-1.1,0-2.3,0-3.4c0-0.1,0-0.1,0.1-0.2
						c0.1,0,0.1-0.1,0.2-0.1c2.1-0.2,2.2-0.2,2.2,2C437.3,168.7,437.3,169.8,437.3,171z"/>
					<path d="M429.8,159c0,2,0,4,0,6c-0.7,0-1.3,0-2,0c0-2,0-4,0-6C428.4,159,429.1,159,429.8,159z"/>
					<path d="M427.3,171.4c0,1.8,0,3.5,0,5.3c-0.8,0-1.5,0-2.3,0c0-1.8,0-3.5,0-5.3C425.8,171.4,426.5,171.4,427.3,171.4z"/>
					<path d="M420.5,215.7c-0.6,0.6-1.2,1.2-1.8,1.8c-5.3,6-6.8,12.8-4.4,20.4c1.5,4.5,4.3,7.9,8.8,9.8c0.2,0.1,0.4,0.3,0.6,0.5
						c-2.6-0.8-4.8-2.3-6.5-4.4c-4.6-5.8-5.4-12.2-3.2-19.1c1-3.1,2.7-5.8,5-8C419.5,216.4,420.1,216.1,420.5,215.7
						C420.5,215.8,420.5,215.7,420.5,215.7z"/>
					<path d="M425.3,67.3c0.7,3.8,1.4,7.6,2.2,11.6c-0.6-0.1-1.1-0.1-1.8-0.2c-0.3-3.9-0.5-7.7-0.8-11.5
						C425,67.3,425.1,67.3,425.3,67.3z"/>
					<path d="M424.9,182.6c0.8,0,1.5,0,2.3,0c0,1.5,0,3.1,0,4.7c-0.8,0-1.5,0-2.3,0C424.9,185.8,424.9,184.2,424.9,182.6z"/>
					<path d="M429.7,171.1c-0.7,0-1.3,0-2,0c0-1.9,0-3.7,0-5.7c0.7,0,1.3,0,2,0C429.8,167.3,429.7,169.1,429.7,171.1z"/>
					<path d="M435.1,177.2c0.8,0,1.6,0,2.4,0c0,1.6,0,3.2,0,4.9c-0.7,0-1.5,0-2.4,0C435.1,180.5,435.1,178.9,435.1,177.2z"/>
					<path d="M437.5,187.1C437.5,187.1,437.5,187.2,437.5,187.1c-2.3,0.5-2.5,0.4-2.5-1.9c0-0.8,0-1.7,0-2.6c0.9,0,1.7,0,2.5,0
						C437.5,184.1,437.5,185.6,437.5,187.1z"/>
					<path d="M424.9,182.1c0-1.7,0-3.3,0-4.9c0.8,0,1.5,0,2.3,0c0,1.6,0,3.2,0,4.9C426.5,182.1,425.8,182.1,424.9,182.1z"/>
					<path d="M429.8,177.2c0,1.6,0,3.3,0,4.9c-0.8,0-1.4,0-2.1,0c0-1.7,0-3.2,0-4.9C428.3,177.2,429,177.2,429.8,177.2z"/>
					<path d="M429.7,176.8c-0.7,0-1.4,0-2.1,0c0-1.8,0-3.5,0-5.3c0.7,0,1.3,0,2.1,0C429.8,173.2,429.7,175,429.7,176.8z"/>
					<path d="M427.2,192.1c-0.8,0-1.6,0-2.4,0c0-1.5,0-2.9,0-4.4c0.8,0,1.6,0,2.4,0C427.2,189.1,427.2,190.6,427.2,192.1z"/>
					<path d="M429.8,182.6c0,1.6,0,3.1,0,4.7c-0.7,0-1.4,0-2.2,0c0-1.6,0-3.1,0-4.7C428.3,182.6,429,182.6,429.8,182.6z"/>
					<path d="M427.2,192.5c0,1.3,0,2.7,0,4.1c-0.8,0-1.6,0-2.4,0c0-1.3,0-2.7,0-4.1C425.6,192.5,426.3,192.5,427.2,192.5z"/>
					<path d="M427.7,187.6c0.7,0,1.4,0,2.1,0c0,1.5,0,2.9,0,4.4c-0.7,0-1.3,0-2.1,0C427.6,190.6,427.7,189.2,427.7,187.6z"/>
					<path d="M437.8,196.5c-0.9,0-1.7,0-2.6,0c0-1.3,0-2.6,0-3.9c0,0,0-0.1,0.1-0.1c2.4-0.3,2.5-0.3,2.5,2.1
						C437.8,195.1,437.8,195.7,437.8,196.5z"/>
					<path d="M427.6,192.5c0.7,0,1.4,0,2.2,0c0,1.3,0,2.7,0,4.1c-0.7,0-1.4,0-2.2,0C427.6,195.2,427.6,193.9,427.6,192.5z"/>
					<path d="M430.1,196.6c0-1.4,0-2.7,0-4.1c0.8,0,1.5,0,2.3,0c0,1.4,0,2.7,0,4.1C431.6,196.6,430.9,196.6,430.1,196.6z"/>
					<path d="M424.8,197.1c0.8,0,1.5,0,2.4,0c0,1.2,0,2.5,0,3.9c-0.8,0-1.5,0-2.4,0C424.8,199.6,424.8,198.4,424.8,197.1z"/>
					<path d="M437.8,200.7c-0.7,0-1.4,0.1-2.1,0.1c-0.2,0-0.5-0.4-0.5-0.6c-0.1-1.1,0-2.1,0-3.3c0.9,0,1.7,0,2.6,0
						C437.8,198.2,437.8,199.4,437.8,200.7z"/>
					<path d="M432.7,192.3c0.8,0.1,2.1,0.1,2.2,0.3c0.2,1.2,0.3,2.4,0,3.6c-0.1,0.3-1.4,0.3-2.2,0.5
						C432.7,195.2,432.7,193.9,432.7,192.3z"/>
					<path d="M429.8,200.9c-0.7,0-1.4,0-2.1,0c0-1.2,0-2.5,0-3.9c0.7,0,1.4-0.1,2.1-0.1C429.8,198.2,429.8,199.5,429.8,200.9z"/>
					<path d="M427.2,201.3c0,1.3,0,2.5,0,3.7c-0.8,0-1.6,0-2.4,0c0-1.2,0-2.3,0-3.6C425.5,201.3,426.3,201.3,427.2,201.3z"/>
					<path d="M432.5,192c-0.9,0-1.6,0-2.4,0c0-0.4-0.1-0.9-0.1-1.1c0.4-0.4,0.7-0.7,1-1c-0.3-0.3-0.6-0.5-1-0.9c0-0.3,0-0.8,0-1.3
						c0.1-0.1,0.2-0.1,0.2-0.1c2.6,0,2.1-0.3,2.2,2.1C432.5,190.5,432.5,191.2,432.5,192z"/>
					<path d="M435,200.9c-0.8-0.1-2.2-0.1-2.2-0.3c-0.2-1.1-0.2-2.3,0-3.5c0.1-0.3,1.4-0.3,2.2-0.4C435,198.2,435,199.4,435,200.9z"
						/>
					<path d="M429.8,201.3c0,1.2,0,2.4,0,3.7c-0.7,0-1.4,0-2.3,0c0-1,0-2.1,0-3.2c0-0.2,0.3-0.4,0.5-0.5
						C428.6,201.2,429.1,201.2,429.8,201.3z"/>
					<path d="M424.7,205.4c0.9,0,1.6,0,2.5,0c0,1.1,0,2.1,0,3.3c-0.8,0-1.6,0-2.5,0C424.7,207.7,424.7,206.6,424.7,205.4z"/>
					<path d="M418.9,221.7c-4.6,9.2-4,17.1,4.9,23.1C415.5,241.5,413.5,229.1,418.9,221.7z"/>
					<path d="M424.7,209.3c0.8,0,1.6-0.1,2.5-0.1c0,1.2,0,2.2,0,3.3c-0.8,0-1.6,0-2.5,0C424.7,211.4,424.7,210.4,424.7,209.3z"/>
					<path d="M430.2,208.6c0-1.1,0-2.2,0-3.3c0.7,0,1.4,0,2.2,0c0,0.4,0.1,0.8,0.1,1.2C432.7,208.8,432.6,208.9,430.2,208.6z"/>
					<path d="M427.6,208.7c0-1.1,0-2.2,0-3.3c0.8,0,1.4,0,2.2,0c0,1.1,0,2.1,0,3.3C429,208.7,428.4,208.7,427.6,208.7z"/>
					<path d="M424.1,275.1c0-0.5,0-0.9,0-1.3c-0.1-1,0.2-1.6,1.4-1.6c0.5,0,1.3-0.1,1.4,0.1c0.2,0.6,0.2,1.4,0.2,2.1
						c0,0.1-0.3,0.3-0.6,0.4C425.7,274.9,425,275,424.1,275.1z"/>
					<path d="M430.2,212.3c0-1.1,0-2.1,0-3.2c0.7,0,1.4-0.1,2.4-0.1c0,1,0,2,0,2.9c0,0.2-0.4,0.4-0.6,0.4
						C431.4,212.4,430.8,212.3,430.2,212.3z"/>
					<path d="M429.7,212.4c-0.8,0-1.4,0-2.2,0c0-0.4-0.1-0.7-0.1-1c0-0.7,0-1.4,0-2.2c0.8,0,1.5,0,2.2,0
						C429.7,210.2,429.7,211.3,429.7,212.4z"/>
					<path d="M430.2,274.2c0-0.5-0.1-0.8-0.1-1.2c0-1.1,1.4-2.1,2.3-1.4c0.4,0.3,0.4,1.1,0.4,1.6c0,0.2-0.4,0.6-0.7,0.7
						C431.6,274.1,431,274.1,430.2,274.2z"/>
					<path d="M427.2,274.7c0.2-1,0.1-2,0.5-2.6c0.2-0.3,1.6-0.4,1.9-0.1c0.4,0.5,0.3,1.4,0.5,2.2
						C429.1,274.4,428.3,274.5,427.2,274.7z"/>
					<path d="M430.4,244.7c-0.6-3-0.4-2.8,2.2-2.8C433.1,244,432.9,244.3,430.4,244.7z"/>
					<path d="M427.5,244.8c0-0.9,0-1.6,0-2.6c0.8,0,1.5-0.1,2.3-0.1c0,0.9,0,1.8,0,2.7C429,244.8,428.3,244.8,427.5,244.8z"/>
					<path d="M427,242.4c0,0.8,0,1.5,0,2.3c-1.8,0.1-2.7-0.4-2.7-1.3C424.3,242.3,424.6,242.2,427,242.4z"/>
					<path d="M404,332.4c5.2,1,10.5,0.1,15.7-0.1C414.5,333,409.3,333.4,404,332.4z"/>
					<path d="M379.8,306.4c-0.9-3.8-0.7-8.7-0.6-12.3C379.4,297.6,379.6,302.5,379.8,306.4z"/>
					<path class="st10" d="M397.2,330.5c-0.2,0.1-0.5,0.3-0.6,0.2c-2-1.2-4-2.4-5.9-3.6c0,0,0-0.1,0-0.2l0,0c0.2,0,0.4,0,0.6,0
						C393.2,328.1,395.2,329.3,397.2,330.5z"/>
					<path d="M436.3,81.7c0,3.4,0,6.7,0,10.1c-0.1,0-0.1,0-0.2,0c0-3.4,0-6.7,0-10.1C436.2,81.7,436.3,81.7,436.3,81.7z"/>
					<path class="st10" d="M388.1,263.1c-0.1-0.2-0.2-0.4-0.2-0.5c0.9-1.6,1.8-3.1,2.7-4.7c0.1,0,0.1,0,0.2,0
						C390,259.7,389,261.4,388.1,263.1z"/>
					<path d="M467.1,255.3c0.8,1.5,1.6,3.1,2.5,4.6c-0.2,0-0.4,0-0.5-0.1c-0.7-1.4-1.4-2.8-2.1-4.2
						C467,255.6,467.1,255.5,467.1,255.3z"/>
					<path class="st10" d="M438.5,216.7c1.5,0.4,2.3,1.7,3.1,2.9c0,0.1-0.2,0.3-0.2,0.5c-0.8-0.9-1.5-1.7-2.3-2.6
						C438.8,217.2,438.7,216.9,438.5,216.7z"/>
					<path class="st10" d="M390.9,258c-0.1,0-0.1,0-0.2,0c0.8-1.5,1.7-3,2.5-4.4c0-0.1,0.2,0,0.4,0C392.7,255,391.8,256.5,390.9,258
						z"/>
					<path d="M436.7,112.4c0,2.7,0,5.3,0,8h-0.1c0-2.7,0-5.3,0-8C436.6,112.4,436.6,112.4,436.7,112.4z"/>
					<path class="st10" d="M440.1,242.3c-0.5,1.3-1.8,2.3-2.8,2.1C438.3,243.7,439.2,243,440.1,242.3z"/>
					<path d="M424,242.5c0,0.5,0,0.9,0,1.5c-0.7-0.4-1.3-0.8-1.9-1.2c0-0.1,0.1-0.2,0.1-0.3C422.7,242.6,423.3,242.5,424,242.5z"/>
					<path d="M474.7,281.6c0,2.7,0,5.5,0,8.2C474.7,287.1,474.7,284.4,474.7,281.6L474.7,281.6z"/>
					<path d="M391.1,326.9c-0.2,0-0.4,0-0.6,0c-0.7-0.7-1.3-1.4-2-2c-0.3-0.3-0.7-0.5-1-0.8c0.1-0.1,0.2-0.2,0.2-0.2
						C388.9,324.9,390,325.9,391.1,326.9z"/>
					<path d="M382.5,315.4c0.5,1.1,1,2.2,1.5,3.2c-0.1,0-0.1,0.1-0.2,0.1c-0.5-1.1-1.1-2.2-1.6-3.2
						C382.4,315.4,382.5,315.4,382.5,315.4z"/>
					<path d="M442.4,238.7L442.4,238.7c-0.1,0.2-0.2,0.4-0.2,0.6c-0.2,0.1-0.3,0.1-0.5,0.2l0,0C441.9,239.2,442.1,239,442.4,238.7z"
						/>
					<path d="M438.5,216.7c0.2,0.3,0.3,0.5,0.5,0.8C438.8,217.2,438.7,216.9,438.5,216.7L438.5,216.7z"/>
					<path d="M417.8,220.6C417.8,220.7,417.8,220.8,417.8,220.6C417.8,220.8,417.8,220.7,417.8,220.6L417.8,220.6z"/>
					<path d="M441.5,240.3L441.5,240.3L441.5,240.3C441.5,240.4,441.4,240.4,441.5,240.3c-0.1,0.1-0.1,0-0.2,0
						C441.4,240.3,441.4,240.3,441.5,240.3z"/>
					<path d="M441.6,239.9L441.6,239.9c0-0.1,0.1-0.3,0.1-0.4l0,0C441.6,239.6,441.6,239.8,441.6,239.9z"/>
					<path d="M417.8,220.6L417.8,220.6L417.8,220.6z"/>
					<polygon points="438.2,216.5 438.2,216.5 438.2,216.5 438.1,216.5 438.1,216.5 					"/>
					<path class="st10" d="M423.1,55.8c-0.4,0-0.7,0-1.2,0c-0.1,0.3-0.2,0.6-0.5,1.2c-0.4-0.5-0.8-0.8-0.8-1.2
						c0-0.6-0.1-1.4,0.9-1.6c0.3-0.1,0.6-0.3,0.9-0.5c0.3-0.1,0.6-0.3,0.9-0.4c-0.7-3-1.5-6-2.2-9c0.1,0,0.2,0,0.3-0.1
						c0.2,0.7,0.4,1.3,0.6,2c0.5,2.2,1.1,4.4,1.6,6.7c0.2,1-0.2,1.9-1.4,2.3C422.5,55.5,422.8,55.6,423.1,55.8L423.1,55.8z"/>
					<path class="st10" d="M431.9,45.5c0,0,0.2,0.2,0.4,0.3c0,0,0,0.1-0.1,0.1c-0.3-0.1-0.7-0.2-1-0.2c-0.1,0.4-0.2,0.7-0.5,1.5
						c-0.4-0.6-0.8-0.9-0.9-1.2c-0.1-0.6-0.2-1.2,0.6-1.5c0.7-0.2,1.4-0.5,2-0.8c0.1,0.1,0.2,0.2,0.2,0.3
						C432.5,44.5,432.2,44.9,431.9,45.5z"/>
					<path class="st10" d="M421.5,42.5c-0.7,0.9-1.5,1.8-2.4,2.9c-0.2-0.5-0.6-0.9-0.6-1.3c0-0.7,0.2-1.3,1.1-1.4
						c0.6-0.1,1.1-0.4,1.6-0.6C421.3,42.2,421.4,42.4,421.5,42.5z"/>
					<path class="st10" d="M432.8,65.8c0.1,0.4,0.2,1.1,0.3,1.9c0.8-0.2,0.7-1.7,2.2-1.3c-0.9,1.1-1.6,2-2.4,2.9
						C431.2,68.1,433.3,66.7,432.8,65.8z"/>
					<path class="st10" d="M423.9,54.6c0.9,3.7,1.8,7.4,2.8,11.1c-0.1,0-0.2,0-0.3,0.1c-0.9-3.7-1.8-7.4-2.7-11.1
						C423.7,54.6,423.8,54.6,423.9,54.6z"/>
					<path class="st10" d="M438.1,216.3c-0.1-0.5-0.1-0.9-0.2-1.4c0.1,0,0.2-0.1,0.3-0.1c0.5,0.4,1.1,0.8,1.8,1.4
						C439.2,216.3,438.7,216.3,438.1,216.3C438.1,216.4,438.1,216.3,438.1,216.3z"/>
					<path class="st10" d="M441.6,239.9c0-0.1,0.1-0.3,0.1-0.4c0.2-0.1,0.3-0.1,0.5-0.2l0,0c0.1,0.1,0.2,0.1,0.3,0.2
						c-0.1,0.2-0.3,0.4-0.4,0.5h0.1l0,0C441.9,240,441.7,239.9,441.6,239.9z"/>
					<path class="st10" d="M442.1,239.3c0.1-0.2,0.1-0.4,0.2-0.6c0,0.2,0,0.5,0,0.7C442.3,239.4,442.2,239.3,442.1,239.3
						L442.1,239.3z"/>
					<path d="M438.1,216.4C438.1,216.4,438.2,216.5,438.1,216.4c0,0.1,0,0.1,0,0.1C438.1,216.4,438.1,216.4,438.1,216.4L438.1,216.4
						z"/>
					<path d="M442,240v-0.1V240z"/>
					<path d="M442.1,239.3c0.1,0.1,0.2,0.1,0.3,0.2l0,0C442.3,239.4,442.2,239.3,442.1,239.3z"/>
					<polygon points="441.5,240.3 441.5,240.4 441.5,240.4 					"/>
				</g>
			</g>
		</g>
		<g id="main_text" class="st0">
			<g class="st1">
				<path class="st11" d="M139.5,106.9V168H119l-23.8-45.4v39.6h5.6v5.8H79.7v-5.8h5.9v-55.3h-5.9V101h28.2l22,43.1v-37.2H124V101
					h21.7v5.9H139.5z"/>
				<path class="st11" d="M154.8,168v-5.8h5.9v-55.3h-5.9V101h58.4v18.5h-15.4v-12.6H184v24.3h6.8v-6.5h12.1v18.6h-12.1v-6.7H184
					v25.5h13.8v-13.9h15.4V168H154.8z"/>
				<path class="st11" d="M282.6,106.9L263.5,168h-18.7l-19.9-61.1h-5.2V101h35.9v5.9H250l11.5,42.1l11.2-42.1h-5.8V101h19.9v5.9
					H282.6z"/>
				<path class="st11" d="M292.6,168v-5.8h5.9v-55.3h-5.9V101H351v18.5h-15.4v-12.6h-13.8v24.3h6.8v-6.5h12.1v18.6h-12.1v-6.7h-6.8
					v25.5h13.8v-13.9H351V168H292.6z"/>
				<path class="st11" d="M399.2,168v-21.4c0-1.8-0.1-3.3-0.4-4.5s-0.8-2.1-1.7-2.7c-0.8-0.7-1.9-1.1-3.2-1.4
					c-1.3-0.3-3.1-0.4-5.3-0.4h-1.7v24.6h6.6v5.8h-35.9v-5.8h5.9v-55.3h-5.9V101h29.2c7.1,0,13,0.3,17.7,0.8
					c4.7,0.6,8.4,1.5,11.2,2.9c2.8,1.4,4.8,3.3,5.9,5.6c1.2,2.4,1.7,5.3,1.7,8.8c0,4.3-1.3,7.6-3.8,9.8c-2.5,2.2-6.9,3.9-13.2,5.1
					c3.4,0.7,6.1,1.5,8.3,2.2c2.2,0.8,3.8,1.7,5,2.8s2,2.6,2.4,4.2c0.4,1.7,0.6,3.8,0.6,6.3v12.6h5.6v5.8L399.2,168L399.2,168z
					 M399.2,114.1c0-1.6-0.1-2.8-0.4-3.8c-0.2-0.9-0.8-1.7-1.7-2.2c-0.9-0.5-2.1-0.8-3.8-1c-1.6-0.2-3.8-0.2-6.6-0.2v25.2
					c2.3,0,4.3-0.1,5.9-0.2c1.6-0.1,2.9-0.4,3.8-0.8c1-0.4,1.7-1,2.1-1.9c0.4-0.8,0.6-1.9,0.6-3.3v-11.8
					C399.1,114.1,399.2,114.1,399.2,114.1z"/>
			</g>
			<g id="Layer_18" class="st1">
				<path class="st11" d="M125.2,262l-16.8,36v21h7.6v6H77.5v-6h6.8v-19.5l-19-37.5H60v-6.1h38.1v6.1h-5.9l11.1,25.7l11.5-25.7h-6.3
					v-6.1H131v6.1H125.2z"/>
				<path class="st11" d="M201.9,306.8c-1.6,4.5-3.9,8.2-6.8,11c-3,2.8-6.5,4.8-10.6,6.1c-4.1,1.2-8.8,1.9-13.9,1.9
					c-22.7,0-34-11.8-34-35.4c0-6.5,0.8-12,2.4-16.5c1.6-4.5,3.9-8.1,6.8-10.9c3-2.8,6.5-4.8,10.7-6c4.2-1.2,8.9-1.8,14-1.8
					c6.9,0,12.5,1.1,16.9,3.3s7.8,5,10.3,8.4s4.2,7.2,5.2,11.4c0.9,4.2,1.4,8.3,1.4,12.2C204.3,296.8,203.5,302.3,201.9,306.8z
					 M178,270.7c0-3.8-0.6-6.4-1.7-7.8c-1.1-1.4-3.1-2.1-5.9-2.1c-3,0-5,0.7-6.1,2.1s-1.7,4-1.7,7.8v39.6c0,3.7,0.6,6.3,1.7,7.7
					c1.1,1.4,3.1,2.1,6.1,2.1c2.8,0,4.8-0.7,5.9-2.1c1.1-1.4,1.7-4,1.7-7.7V270.7z"/>
				<path class="st11" d="M278.3,262v41.5c0,4.1-0.5,7.6-1.5,10.4s-2.6,5.1-4.9,6.9s-5.2,3-8.8,3.8c-3.6,0.8-7.9,1.2-13.1,1.2
					c-10.8,0-18.8-1.7-23.8-5.1s-7.6-8.8-7.6-16.1V262h-6.3v-6.1h38.4v6.1h-7.6v42.5c0,2.8,0.2,5.2,0.6,7c0.4,1.9,1,3.3,1.9,4.3
					s2.2,1.8,3.9,2.2c1.7,0.4,3.8,0.6,6.4,0.6c2.5,0,4.5-0.2,6-0.6s2.7-1.1,3.5-2.2s1.4-2.6,1.7-4.5c0.3-1.9,0.5-4.4,0.5-7.5V262
					h-7.8v-6.1h24.6v6.1H278.3z"/>
				<path class="st11" d="M355.9,262v63h-21.6l-25.1-46.8V319h5.9v6h-22.3v-6h6.3v-57h-6.3v-6.1h29.7l23.3,44.4V262h-6.3v-6.1h22.9
					v6.1H355.9z"/>
				<path class="st11" d="M436.4,296.7v28.2H429l-2.4-4.8c-3.3,2-6.5,3.5-9.6,4.3s-6.6,1.3-10.5,1.3c-11.1,0-19.5-3-25.3-8.9
					s-8.7-14.7-8.7-26.1c0-5.5,0.7-10.5,2.2-14.9s3.6-8.2,6.5-11.2c2.8-3.1,6.2-5.4,10.3-7.1c4-1.7,8.5-2.5,13.6-2.5
					c3.8,0,7.3,0.4,10.4,1.2c3.1,0.8,6.5,2.1,10.1,4l2.4-4.2h8.5v21h-17.2v-8.4c0-0.9-0.2-1.8-0.5-2.7c-0.3-0.9-0.9-1.8-1.7-2.6
					c-0.8-0.8-1.8-1.4-3.1-1.9c-1.3-0.5-2.9-0.8-4.9-0.8c-3.7,0-6.3,1-7.9,3.1c-1.5,2.1-2.3,5.6-2.3,10.7v33.5
					c0,2.2,0.1,4.1,0.4,5.5c0.2,1.4,0.6,2.6,1.2,3.4s1.3,1.4,2.3,1.7c1,0.3,2.2,0.5,3.7,0.5c2.5,0,4.2-0.6,5.1-1.9s1.4-3.5,1.4-6.8
					v-13.5h-7v-5.7h38v5.7h-7.6V296.7z"/>
			</g>
			<g id="Layer_19" class="st1">
				<path class="st11" d="M218.3,227.5c-1.6,4.7-3.9,8.4-6.9,11.3c-3,2.8-6.7,4.8-11.1,6c-4.4,1.2-9.5,1.8-15.2,1.8h-29v-6h5.6
					v-57.4H156V177h30.4c5.6,0,10.6,0.6,14.8,1.8c4.3,1.2,7.9,3.1,10.7,5.8c2.9,2.6,5,6.1,6.5,10.2c1.5,4.2,2.2,9.2,2.2,15.1
					C220.7,217,219.9,222.8,218.3,227.5z M197.1,196.9c-0.1-3.5-0.5-6.2-1.3-8.2s-2-3.5-3.7-4.3s-4.1-1.2-7.2-1.2h-1.3v57.4h3
					c2.3,0,4.2-0.3,5.6-1c1.4-0.6,2.5-2,3.3-4.2c0.8-2.1,1.3-5.2,1.5-9.2s0.3-9.4,0.3-16.2C197.2,204.7,197.2,200.3,197.1,196.9z"/>
				<path class="st11" d="M229.9,246.6v-6h5.6v-57.4h-5.6V177h33.2v6.1h-5.6v57.4h5.6v6h-33.2L229.9,246.6L229.9,246.6z"/>
				<path class="st11" d="M271.8,246.6v-6h5.6v-57.4h-5.6V177h55.1v19.1h-14.5v-13h-13v25.3h6.4v-6.7h11.4V221h-11.4v-6.9h-6.4v26.5
					h13v-14.5h14.5v20.5H271.8z"/>
			</g>
		</g>
		<g id="SUBTEXT">
			<g id="text">
				<path class="st12" d="M85.3,361.6c0,0,1.3,0,2-2.3l4-11.6c0.5-1.6,0.4-2.2,0-3.2c0.7,0,1.4,0,2.1,0c2.1,0,2.5,0.2,3.2,2.3
					l4.1,12.5c0.8,2.4,1.9,2.3,1.9,2.3v0.3h-7.8v-0.3c0,0,1.7-0.1,0.8-2.8l-1.1-3.4h-5c-0.4,1-0.7,2.1-1.1,3.1c-1,3,0.7,3,0.7,3v0.3
					h-4v-0.2L85.3,361.6L85.3,361.6z M94.2,354.3l-2.1-6.5l-2.1,6.5H94.2z"/>
				<path class="st12" d="M116.3,349.2H116l0.4-4.6h14.1l0.3,4.8h-0.3c0,0-0.2-3.7-2.7-3.7h-2.2v13.8c0,2.3,2,2.3,2,2.3v0.3h-8.5
					v-0.3c0,0,1.9-0.2,1.9-2.3v-13.8h-1.9C116.6,345.5,116.5,349.2,116.3,349.2z"/>
				<path class="st12" d="M155,362.7c0,0-1.5,3.8-5.7,3.8c-4.1,0-6.4-5-7.5-7.9c-0.5-1.3-1-3-2.4-3.7c-0.8,0.1-1.6,0-1.6,0v4.5
					c0,2.1,1.7,2.3,1.7,2.3v0.3h-7.8v-0.3c0,0,1.5-0.1,1.5-2.3V355c-1.8,0.1-2.7,0.7-2.7,1.9c0,0.9,0.5,1.8,1.5,1.9
					c-0.6,1-4.7,1.3-4.7-1.7c0-2.9,4-3,5.8-3h4.6c0.7,0,1.2,0,1.6-0.1c1.8-0.4,2.7-2,2.7-4.2c0-3-1.8-5.3-4.4-4.3v8H133v-6
					c0-2.3-1.5-2.3-1.5-2.3v-0.4h8.2c1.6,0,2.9,0.2,3.9,0.5c2,0.7,3,2.2,3,4.4c0,2.2-1.1,3.9-3.2,4.6c-1,0.3-1.9,0.5-2.2,0.5
					C147.6,355.6,146.4,365.5,155,362.7z"/>
				<path class="st12" d="M149.5,344.8v-0.3h7.7v0.3c-0.6,0-1.6,0.6-1.6,1.9v13.1c0,1.5,1.2,1.9,1.6,1.9v0.3h-7.7v-0.3
					c0.4,0,1.6-0.3,1.6-1.9v-13.1C151.1,345.2,150,344.8,149.5,344.8z"/>
				<path class="st12" d="M158.2,361.6c0,0,1.8-0.1,1.8-1.8v-13.1c0-2-1.8-1.8-1.8-1.8v-0.4c3,0,6.2,0.1,9.2,0.1
					c2.3,0,4.5,0.5,4.6,3.3c0.1,2-1.3,3.4-3.2,3.4c2.3,0.3,4,2.3,4.1,5c0.2,4.1-2.6,5.6-6.8,5.6h-7.9L158.2,361.6L158.2,361.6z
					 M167.6,348.2c0-1.5-0.9-3-2.2-3c-0.2,0-0.7,0.1-0.9,0.1v5.9C166.6,351.2,167.6,350.4,167.6,348.2z M166.3,360.8
					c1.6,0,2-1.9,2-4.2c0-2.6-0.8-4.7-2.7-4.7h-1v6.2C164.5,359.6,164.9,360.8,166.3,360.8z"/>
				<path class="st12" d="M173.5,344.9v-0.4h8.1v0.3c0,0-1.8,0.3-1.8,2.4v8.8c0,3.1,0.8,4.8,3.5,4.8c2.6,0,3.3-2,3.3-4.9v-8.8
					c0-2.4-1.8-2.4-1.8-2.4v-0.3h4.5v0.3c0,0-1.7,0.1-1.7,2.4v8.6c0,4.3-1.9,6.1-5.2,6.1c-3.9,0-7.1-1.2-7.1-6.1v-8.6
					C175.3,345,173.5,344.9,173.5,344.9z"/>
				<path class="st12" d="M190.3,349.2H190l0.4-4.6h14.1l0.3,4.8h-0.3c0,0-0.2-3.7-2.7-3.7h-2.2v13.8c0,2.3,2,2.3,2,2.3v0.3h-8.5
					v-0.3c0,0,1.9-0.2,1.9-2.3v-13.8h-1.9C190.5,345.5,190.4,349.2,190.3,349.2z"/>
				<path class="st12" d="M205.8,362v-0.3c0,0,1.5,0.1,1.5-1.8v-13.1c0-1.8-1.5-1.8-1.5-1.8v-0.4h13.3l0.1,4h-0.3
					c-0.1-2-0.6-3-1.7-3.2c-0.3-0.1-0.7-0.1-1.2-0.1h-4.1v7.3h3.7c1.3,0,2.1-0.4,2.3-2.3h0.3c-0.1,1.9-0.1,3.7,0,5.5h-0.3
					c-0.2-1.9-0.9-2.3-2.3-2.3h-3.7v5.5c0,0.7,0.1,1.2,0.1,1.5c0.1,0.3,0.3,0.5,0.5,0.6c0.3,0.1,0.7,0.1,1.3,0.1h2.9
					c1.7,0,2.7-1.3,2.9-3.5h0.4l-0.3,4.3L205.8,362L205.8,362z"/>
				<path class="st12" d="M233.3,349.2H233l0.4-4.6h14.1l0.3,4.8h-0.3c0,0-0.2-3.7-2.7-3.7h-2.2v13.8c0,2.3,2,2.3,2,2.3v0.3h-8.5
					v-0.3c0,0,1.9-0.2,1.9-2.3v-13.8h-1.9C233.6,345.5,233.5,349.2,233.3,349.2z"/>
				<path class="st12" d="M248.5,353.3c0-6.3,3.7-8.9,8.1-8.9c4.4,0,8,3.2,8,8.7s-3.2,8.6-7.6,8.7
					C252.6,362,248.5,359.6,248.5,353.3z M256.3,345.3c-2.8,0-3.1,5.3-3,7.9c0,2.6,0.6,7.8,3.5,7.7c2.9-0.1,3-5.2,2.9-7.8
					C259.6,350.5,259.2,345.3,256.3,345.3z"/>
				<path class="st12" d="M283.2,360.4c0,5.3-3.1,7.6-5.9,7.6c-2.9,0-4.3-1.3-4.3-2.9s1.4-3.3,4-2.6c-1.5,0.9-1.5,4.7,0.2,4.7
					c1.6,0,1.4-4.1,1.4-6.8v-13.7c0-1.2-0.9-1.9-1.6-1.9v-0.3h7.7v0.3c-0.5,0-1.6,0.3-1.6,1.9v13.7L283.2,360.4L283.2,360.4z"/>
				<path class="st12" d="M283.2,361.6c0,0,1.3,0,2-2.3l4-11.6c0.5-1.6,0.4-2.2,0-3.2c0.7,0,1.4,0,2.1,0c2.1,0,2.5,0.2,3.2,2.3
					l4.1,12.5c0.8,2.4,1.9,2.3,1.9,2.3v0.3h-7.8v-0.3c0,0,1.7-0.1,0.8-2.8l-1.1-3.4h-5c-0.4,1-0.7,2.1-1.1,3.1c-1,3,0.7,3,0.7,3v0.3
					h-4v-0.2L283.2,361.6L283.2,361.6z M292.1,354.3l-2.1-6.5l-2.1,6.5H292.1z"/>
				<path class="st12" d="M302.3,361.5c0,0,1.6,0,1.6-1.8v-13.1c0-1.7-1.3-1.9-1.3-1.9v-0.3h5.6l0.5,1.6l2.7,8.4l3-8.3l0.5-1.6h5.4
					v0.3c0,0-1.3,0.4-1.3,2.3l0.1,12.1c0,2.2,1.7,2.3,1.7,2.3v0.3h-7.5v-0.3c0,0,1.3-0.1,1.3-2.3V348l-5,13.9h-0.3l-4.7-13.9v11.7
					c0,2,1.5,1.7,1.5,1.8v0.3h-4v-0.3H302.3z"/>
				<path class="st12" d="M321.8,362v-0.3c0,0,1.5,0.1,1.5-1.8v-13.1c0-1.8-1.5-1.8-1.5-1.8v-0.4h13.3l0.1,4h-0.3
					c-0.1-2-0.6-3-1.7-3.2c-0.3-0.1-0.7-0.1-1.2-0.1h-4.1v7.3h3.7c1.3,0,2.1-0.4,2.3-2.3h0.3c-0.1,1.9-0.1,3.7,0,5.5h-0.3
					c-0.2-1.9-0.9-2.3-2.2-2.3H328v5.5c0,0.7,0.1,1.2,0.1,1.5c0.1,0.3,0.3,0.5,0.5,0.6c0.3,0.1,0.7,0.1,1.3,0.1h2.9
					c1.7,0,2.7-1.3,2.9-3.5h0.4l-0.3,4.3L321.8,362L321.8,362z"/>
				<path class="st12" d="M337.9,362l-0.5-5.1h0.3c0.8,3.7,2.5,4.5,4.1,4.4c1.3,0,2.3-1,2.3-2.5c0-1.6-2-2.7-2.9-3.4
					c-0.9-0.7-1.6-1.3-2-1.7c-1.3-1.2-1.8-2.6-1.9-4.1c-0.1-3.3,2.3-5.1,5.4-5c1.3,0,2,0.3,3.1,1c0.7,0.4,0.9-1,0.9-1h0.2l0.3,4.8
					H347c-0.7-3-2.4-4.1-3.7-4.1c-1.1,0.1-2,0.8-2,2c0,1.6,2,2.8,3,3.5c0.7,0.5,1.4,1,1.9,1.5c1.5,1.4,2.3,3,2.3,4.6
					c0.1,2.8-2,5.3-5.6,5.3C341.1,362,339.6,362,337.9,362z"/>
				<path class="st12" d="M362,349.2h-0.3l0.4-4.6h14.1l0.3,4.8h-0.3c0,0-0.2-3.7-2.7-3.7h-2.2v13.8c0,2.3,2,2.3,2,2.3v0.3h-8.5
					v-0.3c0,0,1.9-0.2,1.9-2.3v-13.8h-1.9C362.2,345.5,362.1,349.2,362,349.2z"/>
				<path class="st12" d="M374.2,361.6c0,0,1.3,0,2-2.3l4-11.6c0.5-1.6,0.4-2.2,0-3.2c0.7,0,1.4,0,2.1,0c2.1,0,2.5,0.2,3.2,2.3
					l4.1,12.5c0.8,2.4,1.9,2.3,1.9,2.3v0.3h-7.8v-0.3c0,0,1.7-0.1,0.8-2.8l-1.1-3.4h-5c-0.4,1-0.7,2.1-1.1,3.1c-1,3,0.7,3,0.7,3v0.3
					h-4v-0.2L374.2,361.6L374.2,361.6z M383.1,354.3l-2.1-6.5l-2.1,6.5H383.1z"/>
				<path class="st12" d="M388.4,344.8v-0.3h8.6v0.3c-1.1,0.1-1.4,1-0.2,3.5l2.4,4.8l2.7-5.1c1.2-2.1,1.4-3.1,0.1-3.2v-0.3h3.7v0.3
					c-0.9,0-1.9,1.7-2.6,3l-2.8,5.2c-0.6,1.3-1.1,2.3-1.1,4v2c0,2.6,1.4,2.6,1.4,2.6v0.3h-7.1v-0.3c0,0,1.4,0,1.5-2.2
					c0,0,0.1-1.1,0-2.6c0-1.6-0.3-2.4-1-3.7l-2.8-5.1C390.6,346.7,389.6,344.8,388.4,344.8z"/>
				<path class="st12" d="M406.8,362v-0.3c0.9,0.1,1.8-0.9,1.8-2.3v-12.1c0-1.7-0.7-2.5-1.6-2.4v-0.3h7.8v0.3
					c-0.9,0.1-1.6,0.3-1.6,2.4v12.2c0,1.4,0.4,1.9,1.8,1.9h1.9c0.5,0,0.9-0.1,1.3-0.3c0.9-0.5,1.5-2.2,2-3.3h0.3l-1.3,4.3h-12.4
					L406.8,362L406.8,362z"/>
				<path class="st12" d="M421.5,353.3c0-6.3,3.7-8.9,8.1-8.9s8,3.2,8,8.7s-3.2,8.6-7.6,8.7C425.6,362,421.5,359.6,421.5,353.3z
					 M429.3,345.3c-2.8,0-3.1,5.3-3,7.9c0,2.6,0.6,7.8,3.5,7.7c2.9-0.1,3-5.2,2.9-7.8C432.6,350.5,432.2,345.3,429.3,345.3z"/>
				<path class="st12" d="M462,362.7c0,0-1.5,3.8-5.7,3.8c-4.1,0-6.4-5-7.5-7.9c-0.5-1.3-1-3-2.4-3.7c-0.8,0.1-1.6,0-1.6,0v4.5
					c0,2.1,1.7,2.3,1.7,2.3v0.3h-7.8v-0.3c0,0,1.5-0.1,1.5-2.3V355c-1.8,0.1-2.7,0.7-2.7,1.9c0,0.9,0.5,1.8,1.5,1.9
					c-0.6,1-4.7,1.3-4.7-1.7c0-2.9,4-3,5.8-3h4.6c0.7,0,1.2,0,1.6-0.1c1.8-0.4,2.7-2,2.7-4.2c0-3-1.8-5.3-4.4-4.3v8H440v-6
					c0-2.3-1.5-2.3-1.5-2.3v-0.4h8.2c1.6,0,2.9,0.2,3.9,0.5c2,0.7,3,2.2,3,4.4c0,2.2-1.1,3.9-3.2,4.6c-1,0.3-1.9,0.5-2.2,0.5
					C454.6,355.6,453.4,365.5,462,362.7z"/>
			</g>
			<g id="lines">
				<line class="st13" x1="42" y1="338" x2="498.1" y2="338"/>
				<line class="st13" x1="42" y1="370" x2="501.3" y2="370"/>
			</g>
		</g>
		<g id="bottom_scroll">
			<path class="st7" d="M55.6,398.8c2.3,7.6,35.5,7.5,43.2,5.4c32.8-8.8,65.9-14.7,98.6-23.3c10.5-2.8,21-6.2,31.9-7.1
				c6.6-0.5,21,0.2,27.3,2.2c15.9,8.7,15.2,25.9,4.5,39.1c-4.7,5.8-10.6,8.4-18.4,7.3c-7.6-1.1-10.5-6-11.4-10.5
				c-8.2-3.4-14.8-6.1-21.3-9c-3-1.3-5.4-3.6-8.3-4.9c-5.4-2.5-10.7-1.8-15.6,1.5c-4.1,2.7-5.7,6.5-5.2,11.1
				c0.7,5.1,4.6,7.8,10.5,7.1c6.4-0.8,11.4-5.5,9.6-10.1c-0.8-2.1-3.9-3.5-7.1-6.1c0.9-1.3,3.1-1.6,5.7-0.1c5,2.7,5.7,9.7,1.5,14.3
				c-4.6,4.9-16.3,10.3-23.1,7c-4.4-2.1-6.8-7.6-6.8-15.2c0-6.8,10.3-12.3,18-13.2c6.4-0.7,12.2,0.2,17.6,3.7
				c5,3.2,10.7,5.8,16.3,7.9c3.9,1.5,7.5,0.6,9.8-3.8c1.2-2.3,4.6-3.7,7.2-5.2c0.2-0.1,2.6,2.1,3,3.5c1,3.9-1.6,6-5.2,7.4
				c-1.4,0.6-3.1,1.1-4.5,1.6c0.8,8.6,10.6,10.8,16,3.6c5.7-7.6,4.5-10.9,3.4-18.5c-1.8-9.5-14.2-13-26.1-13
				c-12.3-0.1-27.9,2.5-39.8,5.4c-34.6,8.7-52.9,14.1-87.5,23.3c-8.7,2.3-17.8,4.2-26.7,4.5c-12.1,0.5-31-6.7-31.1-18
				c-0.1-6.4,0.9-10.1,6.8-13c3.4-2.2,6.8-5.4,14.8-4.3c6.9,0.8,9.6,5.4,6.8,9.8c-5,7.8-3.4-1.1-14.8,6.5"/>
			<path class="st7" d="M487.2,398.9c-2.3,7.6-36.5,7.5-44.4,5.4c-33.8-8.8-67.7-14.7-101.5-23.3c-10.7-2.8-21.6-6.2-32.8-7.1
				c-6.7-0.5-21.6,0.2-28.1,2.2c-16.3,8.7-15.7,25.9-4.7,39.1c4.8,5.8,11,8.4,19,7.3c7.8-1.1,10.8-6,11.7-10.5
				c8.4-3.4,15.2-6.1,21.8-9c3-1.3,5.5-3.6,8.5-4.9c5.6-2.5,11-1.8,16,1.5c4.2,2.7,5.9,6.5,5.4,11.1c-0.7,5.1-4.8,7.8-10.8,7.1
				c-6.6-0.8-11.7-5.5-10-10.1c0.8-2.1,4.1-3.5,7.3-6.1c-1-1.3-3.2-1.6-5.9-0.1c-5.2,2.7-5.9,9.7-1.5,14.3c4.7,4.9,16.9,10.3,23.9,7
				c4.5-2.1,7-7.6,7-15.2c0-6.8-10.5-12.3-18.5-13.2c-6.5-0.7-12.5,0.2-18.2,3.7c-5.2,3.2-11,5.8-16.9,7.9c-4.1,1.5-7.7,0.6-10-3.8
				c-1.2-2.3-4.7-3.7-7.5-5.2c-0.2-0.1-2.7,2.1-3.1,3.5c-1,3.9,1.8,6,5.3,7.4c1.5,0.6,3.1,1.1,4.6,1.6c-0.8,8.6-11,10.8-16.4,3.6
				c-5.8-7.6-4.7-10.9-3.5-18.5c1.8-9.5,14.7-13,26.9-13c12.6-0.1,28.7,2.5,40.9,5.4c35.7,8.7,54.5,14.1,90,23.3
				c8.9,2.3,18.3,4.2,27.5,4.5c12.4,0.5,31.9-6.7,32.1-18c0.1-6.4-0.9-10.1-7-13c-3.5-2.2-7-5.4-15.2-4.3c-7.1,0.8-10,5.4-7,9.8
				c5.3,7.8,3.5-1.1,15.2,6.5"/>
			<g id="dots_1_">
				<path class="st8" d="M375.8,403.8l3.1,6.1c1.1,2.3,3.7,5.2,5.4,6.1l1.1,0.6c0.4,0.2,0.8,0.3,1,0.2l1.8-1.2
					c0.2-0.1,0.2-0.4,0.2-0.7l-0.1-0.8c-0.2-1.6-2.6-5-4.8-6.8l-5.8-4.8C375.5,400.9,374.7,401.5,375.8,403.8z"/>
				<path class="st8" d="M372.7,408.5l0.1,4.8c0.1,1.8,0.9,4.3,1.6,5.3l0.5,0.7c0.2,0.3,0.4,0.4,0.7,0.4l1.5-0.3
					c0.1,0,0.2-0.2,0.3-0.4l0.1-0.5c0.3-1.1-0.2-4-1.1-5.7l-2.4-4.6C373.3,406.5,372.7,406.7,372.7,408.5z"/>
				<path class="st8" d="M382.6,402.5l3.8,3.3c1.4,1.2,3.9,2.5,5.3,2.7l0.9,0.1c0.3,0,0.7,0,0.8-0.1l0.9-1.2c0.1-0.1,0-0.3-0.1-0.5
					l-0.3-0.5c-0.7-1-3.2-2.7-5.2-3.3l-5.3-1.7C381.5,400.7,381.2,401.3,382.6,402.5z"/>
				<path class="st8" d="M157.6,402.9l-6,3.9c-2.3,1.5-4.9,4.3-5.6,5.9l-0.4,1.1c-0.2,0.5-0.2,0.8,0,0.9l1.6,1.4
					c0.1,0.1,0.4,0.1,0.8,0l0.8-0.2c1.8-0.5,4.9-3.3,6.5-5.6l4.1-6.1C160.7,402.1,159.9,401.4,157.6,402.9z"/>
				<path class="st8" d="M152.1,400.9l-5.2,1c-2,0.4-4.5,1.6-5.4,2.5l-0.7,0.6c-0.2,0.3-0.3,0.5-0.3,0.6l0.7,1.3
					c0.1,0.1,0.2,0.2,0.5,0.2h0.5c1.3,0.1,4.2-0.9,5.9-2.1l4.5-3C154.4,401.1,154,400.5,152.1,400.9z"/>
				<path class="st8" d="M160.4,408.7l-2.8,4c-1.1,1.5-2,4-1.9,5.3v0.8c0,0.3,0.1,0.6,0.3,0.6l1.4,0.5c0.1,0,0.3,0,0.5-0.2l0.4-0.4
					c1-0.8,2.3-3.4,2.5-5.3l0.9-5C162.1,407.4,161.4,407.2,160.4,408.7z"/>
				<path class="st8" d="M267.3,420.4l-2.2,9.6c-0.8,3.6-0.5,9.1,0.5,11.4l0.8,1.6c0.3,0.7,0.7,1,1,1h3.3c0.3,0,0.5-0.2,0.9-0.7
					l0.5-1c1.3-2.1,1.6-8,0.7-11.8l-2.4-10.2C269.6,416.7,268.1,416.8,267.3,420.4z"/>
				<path class="st8" d="M259.1,423.4l-4.3,5.8c-1.6,2.2-3.1,5.8-3.1,7.6v1.2c0,0.5,0.1,0.8,0.3,0.9l2.1,0.8c0.2,0.1,0.4,0,0.8-0.2
					l0.7-0.5c1.4-1.1,3.4-4.9,3.9-7.6l1.4-7.3C261.8,421.5,260.8,421.2,259.1,423.4z"/>
				<path class="st8" d="M276.5,424.2l1.4,6.9c0.5,2.6,2.3,6.1,3.7,7.3l1,0.8c0.4,0.4,0.8,0.5,1,0.4l2.1-0.8
					c0.2-0.1,0.3-0.3,0.3-0.7l0.1-0.8c0.2-1.7-1.3-5.7-3.1-7.9l-4.6-6.1C277,421.1,276,421.6,276.5,424.2z"/>
			</g>
		</g>
		<g id="Layer_26" class="st0">
			<rect x="61.5" y="101.5" class="st14" width="384" height="262"/>
		</g>
		<g id="Layer_25">
		</g>
	</g>
	<g id="strings" class="st0">
		<line class="st15" x1="182.7" y1="271.8" x2="182.7" y2="315.4"/>
		<line class="st15" x1="179.2" y1="269.4" x2="179.2" y2="319.2"/>
		<line class="st15" x1="175.5" y1="269" x2="175.5" y2="321.9"/>
		<line class="st15" x1="171.7" y1="266.4" x2="171.7" y2="322.8"/>
		<line class="st15" x1="167.9" y1="267.5" x2="167.9" y2="320.8"/>
		<line class="st15" x1="164.1" y1="271.8" x2="164.1" y2="317.8"/>
	</g>
</g>
<g id="Layer_2" class="st0">
	<text transform="matrix(1.5119 0 0 1 80.3418 189.6406)" class="st16 st17 st18">NEVER</text>
	<text transform="matrix(1.8226 0 0 1 161.5082 254.3135)" class="st16 st17 st19">DIE</text>
	<text transform="matrix(1.5427 0 0 1 69 328.8984)" class="st16 st17 st20">YOUNG</text>
</g>
<g id="Layer_3_1_">
	<g>
		<path class="st21" d="M157.1,187.9h-22.6l-31.1-48.7v40.6c0,0,0.2,6.8,3.1,6.8c2.6,0,2.4,1.3,2.4,1.3H87.1c0,0-0.3-1.3,2.4-1.3
			s2.9-6.2,2.9-6.8V130c0-0.5-0.2-6.8-2.9-6.8s-2.4-1.3-2.4-1.3h22.7l24.8,38.9V130c0-0.5-0.3-6.8-3.1-6.8s-2.4-1.3-2.4-1.3h28
			c0,0,0.3,1.3-2.4,1.3s-2.9,6.2-2.9,6.8v50c0,1.1,0.3,6.6,2.9,6.6C157.4,186.5,157.1,187.9,157.1,187.9z"/>
		<path class="st21" d="M221.2,187.9h-55.4c0,0-0.3-1.3,2.4-1.3s2.9-6.2,2.9-6.8V130c0-0.5-0.2-6.8-2.9-6.8s-2.4-1.3-2.4-1.3H220
			c0,4.3-8,14.5-8.5,18.5c-0.2,0.7,0.3,1.2,1,1.4v-0.2c0-1.1,1.9-2.1,4.1-2.1c2,0,3.9,1,3.9,2.1c0,1.2-2.1,2.6-4.8,3.1
			c-2.4,0.4-6,0.5-8.5-0.8c-10.6-5,7.5-18.6-9.1-18.7h-9.7v36.4c1.7,0,13.2-0.2,13.2-1.5c0-1.4,2.6-1.2,2.6-1.2v8.8
			c0,0-2.6,0.2-2.6-1.1c0-1.4-11.4-1.6-13.2-1.6v19.7h9.2c13.2-0.3,15.7-11.3,15.7-14.1c0-3.9,7.9-2.8,7.9-2.8
			S215.2,175.2,221.2,187.9z"/>
		<path class="st21" d="M304.4,121.9c0,0-0.3,1.3-2.9,1.3c-2.9,0-6,6.4-6.2,6.8l-19.5,49.8c-0.2,0.4-2.9,6.8,0,6.8
			c2.6,0,1.7,1.3,1.7,1.3H249c0,0-0.9-1.3,1.9-1.3c2.9,0,0.7-6.6,0.7-6.8L236.4,130c-0.2-0.2-2.6-6.8-5.5-6.8
			c-2.6,0-2.7-1.3-2.7-1.3h28c0,0,0.7,1.3-1.9,1.3c-2.9,0-0.9,6.4-0.7,6.8l13.3,43.9l17.3-43.9c0.2-0.2,2.9-6.8,0-6.8
			c-2.6,0-1.7-1.3-1.7-1.3H304.4z"/>
		<path class="st21" d="M365.7,187.9h-55.4c0,0-0.3-1.3,2.4-1.3s2.9-6.2,2.9-6.8V130c0-0.5-0.2-6.8-2.9-6.8s-2.4-1.3-2.4-1.3h54.2
			c0,4.3-8,14.5-8.5,18.5c-0.2,0.7,0.3,1.2,1,1.4v-0.2c0-1.1,1.9-2.1,4.1-2.1c2,0,3.9,1,3.9,2.1c0,1.2-2,2.6-4.8,3.1
			c-2.4,0.4-6,0.5-8.5-0.8c-10.6-5,7.5-18.6-9.1-18.7h-9.7v36.4c1.7,0,13.2-0.2,13.2-1.5c0-1.4,2.6-1.2,2.6-1.2v8.8
			c0,0-2.6,0.2-2.6-1.1c0-1.4-11.4-1.6-13.2-1.6v19.7h9.2c13.2-0.3,15.7-11.3,15.7-14.1c0-3.9,7.9-2.8,7.9-2.8
			S359.7,175.2,365.7,187.9z"/>
		<path class="st21" d="M462.7,196.2c0,1-0.9,2.1-3.4,2.9c-4.1,1.3-16.9,2-24.9-3.3c-9.9-6.5-28.5-28.1-38.4-29.5v13.4
			c0,0.5,0.3,6.8,3.1,6.8s2.4,1.3,2.4,1.3h-28c0,0-0.3-1.3,2.4-1.3s2.9-6.2,2.9-6.8V130c0-0.5-0.2-6.8-2.9-6.8s-2.4-1.3-2.4-1.3
			h22.4c27.5,0,48.7,8.5,48.7,23c0,12-14.9,19.8-33,21.5c21.7,4.2,30.6,29.9,43.2,29.9v-0.1c0-1.1,1.7-2.1,3.9-2.1
			S462.7,195.1,462.7,196.2z M428.1,144.7c0-13.1-17.3-19-32.1-19.2v37.6h1.5C412.5,163.2,428.1,155.8,428.1,144.7z"/>
	</g>
	<g>
		<path class="st21" d="M248.7,233.9c0,7.8-10.7,14-26.9,14h-32.4c0,0-0.3-1,2.1-1c2.4,0,2.6-4.7,2.6-5V205c0-0.3-0.2-5-2.6-5
			c-2.4,0-2.1-1-2.1-1h20.1c21.5,0,38.9,4.3,38.9,14.7C248.6,217.2,248.7,228.6,248.7,233.9z M233.3,234.2c0-5.3-0.2-17.6-0.2-20.5
			c0-8-4.3-11.1-23.5-11.3v42.9c1.2,0.1,2.3,0.1,3.5,0.1C225.7,245.4,233.3,239.5,233.3,234.2z"/>
		<path class="st21" d="M280.6,247.9h-25c0,0-0.3-1,2.1-1s2.6-4.8,2.6-5V205c0-0.3-0.2-5-2.6-5s-2.1-1-2.1-1h25c0,0,0.3,1-2.1,1
			c-2.6,0-2.7,4.9-2.7,5v36.9c0,0.1,0.2,5,2.7,5C280.9,247,280.6,247.9,280.6,247.9z"/>
		<path class="st21" d="M336.8,247.9h-49.4c0,0-0.3-1,2.1-1c2.4,0,2.6-4.6,2.6-5V205c0-0.4-0.2-5-2.6-5c-2.4,0-2.1-1-2.1-1h48.4
			c0,3.2-7.2,10.8-7.6,13.7c-0.2,0.5,0.3,0.9,0.9,1v-0.1c0-0.8,1.7-1.6,3.7-1.6c1.8,0,3.5,0.7,3.5,1.6c0,0.9-1.8,2-4.3,2.3
			c-2.1,0.3-5.3,0.4-7.6-0.6c-9.5-3.7,6.7-13.8-8.1-13.9h-8.7v27c1.5,0,11.8-0.1,11.8-1.1c0-1,2.3-0.9,2.3-0.9v6.5
			c0,0-2.3,0.1-2.3-0.8c0-1-10.2-1.2-11.8-1.2v14.6h8.2c11.8-0.2,14-8.3,14-10.4c0-2.9,7-2.1,7-2.1S331.4,238.5,336.8,247.9z"/>
	</g>
	<g>
		<path class="st21" d="M148.8,257.9c0,0-0.6,1.4-3.6,1.4s-7.3,7-7.5,7.3L120.9,304v16.6c0,0.6,0.4,7.3,3.4,7.3
			c2.8,0,2.6,1.4,2.6,1.4H96.1c0,0-0.4-1.4,2.4-1.4c3.2,0,3.4-6.8,3.4-7.3v-14.8L84,266.6c-0.2-0.2-4.7-7.3-7.9-7.3
			c-2.8,0-3.4-1.4-3.4-1.4h30.9c0,0,1.1,1.4-1.7,1.4c-3.2,0,0.9,7,1.1,7.3l11.9,26.1l10.5-26.1c0.2-0.2,4.1-7.3,0.9-7.3
			c-2.8,0-1.7-1.4-1.7-1.4H148.8z"/>
		<path class="st21" d="M215.6,272.7v41.9c0.2,8-15.2,14.7-32,14.8c-16.9-0.2-31.8-6.8-31.8-14.8v-41.9c0-8.1,15.1-14.6,32.2-14.8
			h0.2C200.9,258.2,215.6,264.6,215.6,272.7z M196.6,272.7c0-4.4-5.8-8.1-12.8-10.1c-7.2,1.9-13,5.7-13,10.1v41.9
			c0,4.4,5.8,8.2,12.8,10.1c7.2-1.9,13-5.7,13-10.1V272.7z M186.1,294.1"/>
		<path class="st21" d="M298.1,259.3c-3.2,0-3.2,7.4-3.2,7.4l-0.2,47.9c0,8-14.9,14.6-31.8,14.8c-16.9-0.2-32-6.8-32-14.8v-48.5
			c0-1.7-0.6-6.8-3.2-6.8c-3,0-2.6-1.4-2.6-1.4h24.8v56.7c0,4.4,6,8.2,13,10.1c7-1.9,13-5.7,13-10.1v-56.7h24.8
			C300.7,257.9,301.1,259.3,298.1,259.3z"/>
		<path class="st21" d="M387.3,329.4h-24.8l-34.3-52.8v44c0,0,0.2,7.3,3.4,7.3c2.8,0,2.6,1.4,2.6,1.4h-24.1c0,0-0.4-1.4,2.6-1.4
			s3.2-6.8,3.2-7.3v-54c0-0.6-0.2-7.3-3.2-7.3s-2.6-1.4-2.6-1.4h25l27.3,42.1v-33.4c0-0.6-0.4-7.3-3.4-7.3s-2.6-1.4-2.6-1.4h30.9
			c0,0,0.4,1.4-2.6,1.4s-3.2,6.8-3.2,7.3v54.1c0,1.1,0.4,7.1,3.2,7.1C387.7,327.9,387.3,329.4,387.3,329.4z"/>
		<path class="st21" d="M461.3,328.8c-7.5,0.7-16.6,0.6-17.3,0.6c-40.7,0-48-22.2-48-35.3c0-11,11.7-36.2,43.1-36.2h25.4
			c0,6.4-16.4,15.7-16.9,20c0,0.8,0.6,1.3,1.3,1.5v-0.2c0-1.2,1.9-2.3,4.3-2.3s4.5,1,4.5,2.3c0,1.3-2.4,3-5.5,3.3
			c-2.6,0.4-6.4,0.6-9.4-0.9c-11.5-5.4,13.7-20.3-2.6-20.3c-15.6,0-23.7,23.2-23.7,32.6c0,10.4,8.7,30.9,25.2,30.9
			c6.6,0,8.5-1,8.5-1v-14.8c-0.4-2.2-1.1-5.1-3.2-5.1c-2.8,0-2.4-1.4-2.4-1.4h24.8c-0.9,0.7-1.5,3-1.7,5.9c0,4.4,0.2,10.1,0.8,14.1
			c0.4,2.4,1.1,4.1,1.9,4.7C468.8,328,465.2,328.5,461.3,328.8z"/>
	</g>
	<path class="st22" d="M183.8,274.5c0,0-2.4,9.2-2.4,20.7c0,11.4,2.4,20.7,2.4,20.7s2.3-9.2,2.3-20.7
		C186,283.8,183.8,274.5,183.8,274.5z"/>
</g>
<g id="Layer_4">
</g>
</svg>
