<?xml version="1.0" encoding="utf-8"?>
<!-- Generator: Adobe Illustrator 25.2.3, SVG Export Plug-In . SVG Version: 6.00 Build 0)  -->
<svg version="1.1" id="Layer_1" xmlns="http://www.w3.org/2000/svg" xmlns:xlink="http://www.w3.org/1999/xlink" x="0px" y="0px"
	 viewBox="0 0 1087 466" style="enable-background:new 0 0 1087 466;" xml:space="preserve">
<style type="text/css">
	.st0{display:none;}
	.st1{display:inline;}
	.st2{display:inline;fill:#FFFFFF;}
	.st3{opacity:0.68;}
	.st4{fill:#8F7458;}
	.st5{display:inline;fill:#5E3616;}
	.st6{display:none;fill:none;stroke:#8F7458;stroke-width:10;stroke-miterlimit:10;}
	.st7{fill:#9E6900;}
	.st8{fill:#E6BF77;}
	.st9{fill:#FFFAFA;}
	.st10{fill:#FFFFFF;}
	.st11{fill:#FFC543;stroke:#E09200;stroke-miterlimit:10;}
	.st12{fill:#FFC043;}
	.st13{fill:none;stroke:#5E3616;stroke-width:2;stroke-miterlimit:10;}
	.st14{display:inline;fill:none;stroke:#FF0000;stroke-miterlimit:10;}
	.st15{display:inline;fill:none;stroke:#5E3616;stroke-miterlimit:10;}
	.st16{fill:#FFC543;stroke:#E09200;stroke-width:2;stroke-miterlimit:10;}
</style>
<g id="Layer_1_2_">
	<g id="Layer_1_1_">
		<g id="Layer_24" class="st0">
			<g class="st1">
				<rect x="95.5" y="-14.5" width="669" height="587"/>
				<path d="M764-14v586H96V-14H764 M765-15H95v588h670V-15L765-15z"/>
			</g>
		</g>
		<g id="guitar">
			<g class="st0">
				<path class="st1" d="M813.6,318.9c0.8-5.5,1.3-10.5,2.2-15.7c0.4-2.5,3.8-7.3,5.7-9c13-11.8,11.6-31.2-3.2-40.9
					c-0.5-0.3-1-0.8-0.9-1.7c1.6,1.2,3.4,2.3,4.8,3.8c1.6,1.7,3.3,2,5.6,1.4c4.9-1.4,10-2.7,15-4.1c3-1,5.5-0.3,7.5,1.7
					c2.3,2.3,2.3,4.9,1,7.6c-2.6,5.3-4.5,10.7-3,16.5c1.2,4.5,3.3,8.8,4.7,13.3c1.7,5.7,3.6,11.6,4.6,17.4
					c1.7,10.1-6.6,16.6-16.9,13.8c-5.3-1.4-10.4-3-15.8-4C821.8,318.4,818.3,318.9,813.6,318.9z"/>
				<path class="st1" d="M798.4,58.3c-0.1,1.1-0.1,2.2-0.2,4.1c-1.1-1-2.3-1.4-2.4-1.9c-0.2-4.6-0.2-9.3-0.1-13.9
					c0-0.5,1.2-1,1.3-1.4c0.1-1.2,0.2-2.7-0.3-3.8c-0.2-0.5-2-0.8-2.9-0.5c-1.1,0.3-1.7,1.3-2.7,2.5c3.9-0.2,4.4,1.7,4.3,4.4
					c-0.2,4.5,0,8.9,0,13.4c-0.3,0-0.6,0.1-1,0.1c-0.8-3.1-1.1-6.3-2.2-9.3c-1.1-3.1-3.1-5.8-4.8-9.1c-1.3-0.1-3.3-0.1-5.3-0.4
					c-1.1-0.2-2.4-0.9-2.8-1.5c-0.3-0.6,0.6-2.4,1.2-2.5c1.2-0.2,2.8,0.1,4,0.8c1.1,0.4,1.6,1.5,2.5,2.3c0.3-0.2,0.6-0.3,1-0.5
					c0-4.4,0-8.8,0-13.6c-3.1-0.3-6.2-0.6-10.5-1.1c1.5-1.7,2.3-3.3,3.3-3.6c1-0.3,2.4,0.9,3.6,1.3c1.1,0.4,1.9,1.1,4,2
					c-0.6-5.4-0.6-9.8-1.7-13.9c-0.3-1.3-3.4-1.9-5.5-2.7c-1-0.3-2.2-0.1-3.3-0.1c-1.5-1.8-2-3.1-1.6-3.6c0.8-1,3.9,0,9.7,2.7
					c-0.1-1.2,0-2.4-0.2-3.4c-2.7-5.2-1.3-7.1,5.8-9c1.9-0.5,3.6-1.9,5.2-3.3c3-2.5,7-3,10.2-1c3.4,2,6.8,4.6,10.3,6.1
					c2.6,1.1,2.9,2.5,2.5,4.6c-0.3,1.8-0.5,3.8-0.9,6c6-3.6,7-3.4,7.7,1.1c-2.8,0.3-5.5,0.8-8.4,1.1c-0.4,4.7-0.8,9.1-1.1,14.4
					c1.6-0.6,2.6-1.1,3.4-1.4c1.3-0.5,2.8-1.4,4-1.2c1,0.2,1.5,1.8,2.5,3.2c-3.7,0.4-6.7,0.9-9.8,1.2c0,4.6,0,9.3,0,14.7
					c1.5-1.1,2.3-1.7,3.2-2c1.1-0.4,2.5-0.8,3.7-0.6c0.6,0.1,1.3,1.1,1.6,1.9c0.2,0.5-0.4,1.7-0.8,1.7c-2.5,0.1-4.8,0.1-7.4,0.1
					c-1.4,3.3-3.6,7.2-4.7,11.2c-2.3,8-2,8-11,7.7C799.6,61.8,797.8,61.5,798.4,58.3z M795.6,29.3c0,0,0.4-0.8,0.4-1.4
					c-0.1-1.1-0.5-2.3-0.8-3.3c-1.4,0.5-3,1.1-4.4,1.5c0.5,0.6,0.9,1.4,1.4,1.8C793.3,28.6,794.6,29,795.6,29.3z M811.1,42.3
					c0.6,0.9,1.1,1.4,1.7,2c0.1,0.1,1.2-0.6,1.2-1c0-0.9-0.1-2.4-0.5-2.5c-1.2-0.3-2.7-0.3-3.9,0c-0.4,0.1-0.4,1.6-0.8,2.6
					c0.3,0.1,0.6,0.2,1,0.3C810.4,43.3,810.8,42.8,811.1,42.3z M812,26.6c0.3,0.4,1,1.1,1.4,1.6c0.4-0.6,1.2-1.3,1.1-1.9
					c-0.2-0.8-1-1.6-1.6-1.9s-1.7,0.1-2.5,0.4c-0.6,0.3-1.1,1-1.4,1.5c-0.1,0.3,0.6,1.2,0.9,1.2C810.6,27.4,811.2,26.9,812,26.6z
					 M794.9,7.5c-1.8,0.9-3.3,1.5-4.7,2.2c1.4,1,2.8,1.8,4.2,2.8c0.3-0.2,0.6-0.5,1-0.8C795.3,10.5,795.1,9.3,794.9,7.5z M814.8,8
					c-0.5-0.3-1.1-0.5-1.6-0.9c-1.1,1.1-2.3,2.2-3.3,3.3c1.3,0.4,2.7,0.9,4,1.2C814.1,10.5,814.5,9.3,814.8,8z"/>
				<path class="st1" d="M791.3,250.7c0.8,1.1,1.4,2,1.9,2.8c0.1-0.4,0.2-1.5,0.3-2.7c1.3,0,2.5,0,3.8,0c0.1,1.2,0.3,2.3,0.4,3.3
					c0.1-1.1,0.2-2,0.3-3.3c2.5,0,4.9,0,7.6,0c0.1,1.1,0.3,2.3,0.4,3.1c0.1-0.8,0.1-1.8,0.3-3.2c1.8,0,3.4-0.1,5.3,0
					c1.4,0.2,4,0.5,4.2,1.1c0.4,1.6-0.3,3.4-0.8,5.8c6.5,4.1,9.9,10.5,9.6,18.8c-0.3,7.9-7.2,16.1-15.2,17.8
					c-1.6,0.3-3.4-0.1-5.3-0.3c-1.5-0.2-3.1-0.4-4.5-0.9c-0.9-0.2-1.5-0.9-2.3-1.2c0.9-0.5,1.6-1.3,2.5-1.3
					c4.2-0.1,8.5-0.1,12.1-0.1c-0.5-4.8-1-9-1.4-13.9c-0.2,1.4-0.3,2.3-0.5,4.1c-1.6-4.3-3-7.6-4-10.2c0,0-0.2,1-0.4,1.7
					c-0.3,0.1-0.6,0.3-1,0.4c-0.9-1.3-1.6-2.6-2.7-4.2c-2,0.8-4,0.5-4.1-2.2c-1,1-1.8,1.7-2.8,2.7c-0.8-1.5-1.5-3-2.3-4.6
					c-0.5,4.3-3.8,4.4-7.3,4c-1,1.2-1.6,2.4-2.5,3.4c-0.3-0.1-0.6-0.1-1-0.2c0-1.2-0.5-2.8,0.1-3.7c1.7-3,3.3-6.1,5.8-8.4
					c2.4-2,3.4-3.9,3.3-6.8c-0.1-0.8,0.2-1.3,0.4-2C791.4,250.6,791.3,250.7,791.3,250.7z"/>
				<path class="st1" d="M791.3,333.7c0,1.2,0,2.4,0,3.6c-1.3,0.3-2.6,0.5-3.8,0.9c0,0.2,0,0.4,0,0.6c1.1,0.1,2.3,0.2,4,0.3
					c-0.2,1.5-0.5,3.1-0.6,4.6c0,0.8,0.2,1.4,0.5,2c0.1,0.2,1.5-0.1,1.5-0.2c0.1-0.8-0.1-1.4-0.2-2.2c-0.3-1.4-0.8-2.8-1.1-4.4
					c1.9-0.1,3.3-0.2,5.4-0.3c-0.4,1.7-0.8,3.1-1,4.5c-0.1,0.9-0.1,1.6,0.1,2.4c0,0.1,1.5,0.1,1.5,0c0.2-0.8,0.2-1.4,0.1-2.2
					c-0.2-1.5-0.6-3.1-1-4.9c7.9-0.6,15.3-1.2,22.6-1.8c0-0.3,0-0.8,0-1.1c-4.1,0.2-8.2,0.5-12.4,0.8c-0.2-0.4-0.4-0.9-0.6-1.1
					c1-0.6,1.8-1.7,2.8-1.7c8.9-0.2,18-0.3,26.9-0.3c3.7,0,4.5,1.1,4.4,5.4c-0.1,2.7-0.4,4.7-4.3,5.4c-6.6,1.1-12.9,3.1-19.3,5.1
					c-9.4,2.9-18.6,2.8-27.9-0.1c-6-1.8-11.8-4.3-18.5-4.1c-3.4,0.2-3.3-2.9-3.6-5.2c-0.4-5.1,0.2-5.6,5.3-5.6
					C778.5,333.7,784.6,333.7,791.3,333.7z"/>
				<path class="st1" d="M797.6,179.4c0,0.8,0.2,1.4,0,2.2c-0.3,0.8-1,1.3-1.4,1.9c-0.6-0.8-1.7-1.3-1.8-2
					c-0.1-4.7-0.1-9.5,0.1-14.2c0-0.8,1.6-1.9,2.6-1.9c4.4-0.2,8.8,0,13.2-0.1c2.5-0.1,3.8,0.5,3.9,3.3c0.1,5.2,0.3,5.2-5.4,6
					c5.8,0.1,6,0.4,5.4,8.8c-2.7-0.2-5.4-0.4-8.1-0.6c-1.3-0.1-2.8-0.5-4.1-0.3C798,183.4,798,183.5,797.6,179.4z"/>
				<path class="st1" d="M805.1,149.2c-0.5-0.4-1.2-0.8-1.6-1.2c-0.5-0.8-1.1-1.7-1.1-2.6c0-0.4,1.3-1,2.2-1.1
					c0.6-0.2,1.4-0.1,2.2-0.1c6.3-0.3,9.3,3.3,7,9.1c-0.2,0.6-1.1,1-1.5,1.3c1.4,1.3,2.7,8.1,1.5,9.5c-0.4,0.5-1.2,0.8-1.9,0.9
					c-8.2,1.4-9.9,0.1-9.5-7.7c0-1,0-1.8,0.2-2.8c0.4-1.6,1-3.3,1.4-4.8C804.3,149.4,804.7,149.3,805.1,149.2z"/>
				<path class="st1" d="M808.5,85.7c0-1.9,0-3.9,0-6c2.6-0.4,4.1,0.1,3.9,2.8c-0.1,2.4-0.1,4.7,0,7.1c0.2,2.7-0.6,4.4-4.1,4.3
					c4,0,4.8,2,4.5,5.2c-0.2,1.4-0.1,2.9,0.1,4.2c0.4,3.1-0.8,4.1-4.1,4.2c-3.1,0.1-3.6-1.1-3.4-3.4c0.1-7.1,0-14.2,0.1-21.2
					c0-1.1,1-2.2,1.3-3.2c0.5,1.1,1.1,2,1.4,3.2c0.2,1,0,1.8,0,2.9C808.3,85.6,808.4,85.7,808.5,85.7z"/>
				<path class="st1" d="M805.5,201c0,7,0,13.6,0,20.6c-2.3,0-4.6,0-7.5,0c0-4-0.2-7.9,0.2-11.8c0.1-0.9,2.3-1.5,3.1-1.9
					c-0.4,0-1.6-0.1-3-0.2c0-2.2,0-4.2,0-6.5C800.6,201,803.2,201,805.5,201z"/>
				<path class="st1" d="M806.1,192c0-1.8,0-3.3,0-4.6c-0.4,4.4-0.4,4.4-3.7,4.4c-0.1-1.4-0.2-3-0.3-4.1c0,0.8,0.1,1.8-0.2,2.8
					c-0.3,0.8-1.3,1.4-2,1.4c-0.6,0-1.6-1-1.8-1.6c-0.3-1.3-0.4-2.9,0-4.2c0.3-1,1.5-2,2.5-2.2c3.3-0.3,6.9,0,10.2-0.2
					c3.9-0.2,3.4,2.3,3.7,4.7c0.2,2.7-1,3.7-3.6,3.4C809.4,192,808,192,806.1,192z"/>
				<path class="st1" d="M809.2,133c2.9-0.6,4.4,0.1,4.3,2.9c-0.2,8.6,1.6,7.7-7.9,7.7c-1,0-1.9,0-3.4,0c0-3.2-0.1-6.1,0.1-9.3
					c0-0.6,1-1.1,1.3-1.6c0.4,0.6,1.2,1.1,1.3,1.8c0.2,1.4,0.1,2.8,0.3,4.2c0-1.4-0.2-2.9,0.1-4.3c0.1-0.6,1.1-1.1,1.7-1.7
					c0.5,0.6,1.5,1.2,1.6,1.8c0.2,2,0.1,4.2,0.5,6.3C809.2,138.3,809.2,135.6,809.2,133z"/>
				<path class="st1" d="M806,192.4c2.4,0,4.1-0.1,5.9,0c2,0.1,2.8,1.1,2.7,3.1c-0.1,2.8-0.2,5.5,0.1,8.2c0.4,3.2-1,4.3-4.2,4
					c-1.3-0.1-2.7,0-4.3,0c0-2.3,0-4.3,0-7c1.3,0.3,2.5,0.6,3.9,1.1c1.3-0.9-2-4.2,1.7-4.8c-0.3-0.5-0.5-1.1-0.9-1.6
					c-0.6,0.3-1.4,0.5-1.6,1c-0.3,0.6,0.2,1.4,0,2c-0.3,0.8-1.1,1.3-1.5,1.9c-0.6-0.8-1.7-1.3-1.8-2
					C805.8,196.4,806,194.7,806,192.4z"/>
				<path class="st1" d="M798.1,79.5c0.3,13.4-0.1,26.9,0.1,40.5c-0.4,0.2-0.9,0.4-1.2,0.6c-0.6-1-1.8-1.8-1.8-2.8
					c0-7.4,0.2-14.8,0.4-22.3c0.1-4.1,0.1-8.2,0.2-12.4c0-1.2,0.4-2.5,0.8-3.7C797.1,79.5,797.6,79.5,798.1,79.5z"/>
				<path class="st1" d="M798.6,162.2c0-5.2-0.1-10.3,0.1-15.5c0-0.9,1.1-1.6,1.7-2.6c0.5,0.9,1.5,1.5,1.5,2.4
					c0.2,5.2,0.1,10.2,0.2,15.5c0,2.2-0.8,3.3-3.3,2.9c-2-0.3-4.8,1-4.4-2.8c0.2-1.7,0-3.6,0.3-5.3c0.1-0.6,1.2-1.5,1.5-1.4
					c0.8,0.2,1.7,1.1,1.8,1.6c0.2,1.7,0.1,3.4,0.1,5.3C798.2,162.3,798.4,162.3,798.6,162.2z"/>
				<path class="st1" d="M813,119.8c-2.2,0.1-4.1,0.4-5.9,0.2c-0.6-0.1-1.5-1.3-1.6-2.2c-0.2-1.8-0.1-3.8-0.1-5.6
					c0-4.6,0.5-5.2,5.4-4.3c1,0.2,2.3,1.4,2.4,2.4C813.1,113.3,813,116.4,813,119.8z"/>
				<path class="st1" d="M809.1,131.9c0-2.7,0-5.4,0-8c-0.2,0-0.3,0-0.5,0c0,2.7,0,5.4,0,8.2c-2,0-3.9,0-6.5,0
					c0.3-1.5,0.6-2.9,1-4.3c0.8,0.3,1.5,0.8,2.2,1c0-1,0.2-2.5,0-3.9c-0.5-3.4,1.1-4.5,4.5-4.3c2.6,0.2,3.6,1.1,3.3,3.3
					c-0.1,1.6-0.1,3.3,0.1,4.9C813.7,132,812.2,132.6,809.1,131.9z"/>
				<path class="st1" d="M808.5,75.7c0-3.6,0-7.3,0-10.9c2.7-0.6,3.8,0.2,3.7,2.6s-0.2,4.7,0.1,7.1c0.3,3.3-0.5,5.1-4.4,4.4
					c-0.6-0.1-1.2,0-2.6,0c0-4.4,0-8.9,0.1-13.3c0-0.4,1-0.8,1.4-1.1c0.4,0.6,1.1,1.3,1.1,1.9c0.1,3.1,0.1,6.1,0.1,9.3
					C808.3,75.7,808.4,75.7,808.5,75.7z"/>
				<path class="st1" d="M795.8,71.1c0-1.3,0-2.6,0-3.9c0.1-1.8-0.5-3.9,3.1-2.2c2.8,1.3,3.1,0.8,3.1,4c0,2.8,0.1,5.5-0.1,8.1
					c-0.1,0.6-1.4,1.8-1.8,1.6c-1-0.2-1.7-1.5-2.6,0.1c-0.5-0.6-1.4-1.2-1.5-1.8C795.7,75.2,795.8,73.1,795.8,71.1L795.8,71.1z"/>
				<path class="st1" d="M798.8,93.9c0-3.9-0.1-7.7,0.1-11.7c0-1,1.1-1.8,1.6-2.8c0.5,1,1.4,1.7,1.4,2.7c0.1,7.5,0.1,15.1,0,22.6
					c0,1-1.1,1.7-1.5,2.7c-0.6-0.9-1.6-1.6-1.6-2.6C798.6,101.2,798.7,97.5,798.8,93.9C798.7,93.9,798.7,93.9,798.8,93.9z"/>
				<path class="st1" d="M805.8,245c-2.9,0-5.3,0-7.9,0c0-3.1-0.1-5.9,0.1-8.8c0-0.6,1.2-1.4,2-1.7c1.1-0.3,2.3-0.3,3.2,0
					c1.1,0.4,2.4,1.3,2.5,2C806,239.2,805.8,242,805.8,245z"/>
				<path class="st1" d="M797.5,221.5c-2.4,0.5-4.1,0.8-4-2c0.2-5.5,0.3-11.1,0.6-16.6c0-0.8,1.1-1.3,1.7-2c0.5,0.6,1.5,1.2,1.5,1.8
					C797.6,208.9,797.5,215.2,797.5,221.5z"/>
				<path class="st1" d="M798.1,131.7c0,3.2,0.1,6.3-0.1,9.6c-0.1,0.9-1.1,1.6-1.7,2.5c-0.5-0.9-1.3-1.6-1.4-2.5
					c-0.1-6.1,0-12.3,0.2-18.4c0-0.8,1.1-1.5,1.5-2.3c0.5,0.8,1.4,1.5,1.4,2.4C798.4,125.9,798.2,128.8,798.1,131.7L798.1,131.7z"/>
				<path class="st1" d="M793.3,228.7c1.6,0,2.6,0,3.6,0c0.2,0.4,0.4,0.8,0.4,1.1c0.1,4.4,0.2,8.8,0,13.2c0,0.9-1.2,1.5-1.8,2.4
					c-0.8-0.8-2.2-1.3-2.2-2C793.2,238.4,793.3,233.7,793.3,228.7z"/>
				<path class="st1" d="M801.9,192.8c4.7-1.4,4,1.8,3.9,4.4c0,1.4,0.4,3.3-2.2,3.3c-5.9,0-5.8,0-5.8-4.3
					C797.8,193.5,798.1,191.5,801.9,192.8z"/>
				<path class="st1" d="M810.6,221.7c-4.5-0.1-5.1-0.8-4.5-4.5c0.4-3.6,3.3-1.6,4.9-1.8c3.6-0.5,4.8,0.9,4.4,4.1
					C814.9,222.9,812,221.4,810.6,221.7z"/>
				<path class="st1" d="M806.5,221.7c2.8,2.4,7.9-2.7,8.8,3.4c0.4,2.9-1.5,3.6-7.3,3.1C805.8,228,805.6,227.3,806.5,221.7z"/>
				<path class="st1" d="M805.6,245.3c0.6-2,0.9-4.7,1.5-4.8c2.6-0.4,5.4-0.1,7.9,0.2c0.3,0,0.9,1.9,0.5,2.8
					c-0.3,0.8-1.4,1.6-2.4,1.6C810.9,245.4,808.8,245.3,805.6,245.3z"/>
				<path class="st1" d="M805.7,239.6c0.5-1.9,0.8-4.6,1.3-4.7c2.6-0.4,5.4-0.1,7.9,0.2c0.3,0,0.8,1.9,0.5,2.9
					c-0.1,0.6-1.1,1.5-1.8,1.6C811.3,239.7,808.9,239.6,805.7,239.6z"/>
				<path class="st1" d="M806.2,233.9c0-1.8,0-3.3,0-5.1c3,0,5.9,0,8.9,0c0.8,4.9,0.5,5.2-4.3,5.1
					C809.3,233.9,807.9,233.9,806.2,233.9z"/>
				<path class="st1" d="M803.6,99.7c-0.4-1-1.2-1.9-1.3-2.9c-0.1-4.9-0.1-9.9,0-14.7c0-1,1.1-1.7,1.5-2.6c0.4,0.9,1.1,1.6,1.1,2.6
					c0.1,5.7,0.1,11.5,0.1,17.2C804.6,99.4,804.2,99.6,803.6,99.7z"/>
				<path class="st1" d="M798.1,222.3c2.5,0,4.8,0,7.4,0c0,1.9,0,3.7,0,5.7c-2.5,0-4.7,0-7.4,0C798.1,226.3,798.1,224.5,798.1,222.3
					z"/>
				<path class="st1" d="M815.2,245.9c1.3,3.3,0.1,4.5-3.3,4.4c-1.8-0.1-3.7,0-5.7,0c0-1.5,0-2.9,0-4.4
					C809.2,245.9,812.2,245.9,815.2,245.9z"/>
				<path class="st1" d="M778.8,260.3c-5.8,9.9-5.9,19.6-0.6,29.7c-1.1-2.3-2.5-4.3-3.3-6.7c-2.3-6.8-1.9-13.4,1.2-19.9
					C776.7,262.3,777.9,261.4,778.8,260.3L778.8,260.3z"/>
				<path class="st1" d="M798,228.7c2.6,0,4.9,0,7.5,0c0,1.6,0,3.2,0,5.1c-2.5,0-4.8,0-7.5,0C798,232.1,798,230.6,798,228.7z"/>
				<path class="st1" d="M798.7,119.7c0-3.3-0.1-6.8,0.1-10.1c0-0.6,1.1-1.1,1.7-1.7c0.5,0.5,1.4,1.1,1.4,1.6
					c0.1,3.1,0.2,6.1-0.1,9.1c-0.1,0.8-1.4,1.2-2.3,1.8C799.3,120.2,799,120,798.7,119.7z"/>
				<path class="st1" d="M802,126.6c0,1.1,0.2,2.4-0.1,3.4c-0.2,0.9-1.1,1.4-1.7,2.2c-0.5-0.6-1.4-1.2-1.5-1.9
					c-0.2-2.6-0.2-5.3,0-7.7c0-0.8,1-1.3,1.4-1.9c0.6,0.8,1.5,1.3,1.7,2.2C802.2,124,802,125.4,802,126.6L802,126.6z"/>
				<path class="st1" d="M805,71.6c0,1.8,0.1,3.8-0.1,5.6c-0.1,0.6-1,1.1-1.3,1.6c-0.4-0.6-1.2-1.1-1.3-1.7c-0.1-3.8-0.1-7.6,0-11.4
					c0-0.5,0.8-1.1,1.1-1.5c0.5,0.5,1.3,1.1,1.4,1.5C805.1,67.8,805,69.8,805,71.6L805,71.6z"/>
				<path class="st1" d="M816,214.5c-2.8,0.1-4.3,0.2-6.5,0.3c0.3-2.4,0.4-4.4,1-6.3c0.1-0.3,2.7-0.4,3,0
					C814.4,210.1,815,211.9,816,214.5z"/>
				<path class="st1" d="M797.9,137.7c0.8-1.6,1.6-4.8,2.2-4.7c3.3,0.4,1.4,3.2,1.8,5.1c0.3,1.2,0.2,2.6-0.1,3.9
					c-0.2,0.8-1.1,1.2-1.6,1.8c-0.5-0.6-1.4-1.2-1.6-1.8c-0.3-1.2-0.1-2.6-0.1-3.9C798.4,137.9,798.1,137.8,797.9,137.7z"/>
				<path class="st1" d="M799.2,149.5c-1.1,1.9-1.9,3.6-2.9,5.2c-0.5-1.7-1.4-3.4-1.3-5.3c0-1.7,1.1-3.3,1.6-5.2
					C797.4,145.8,798.1,147.5,799.2,149.5z"/>
				<path class="st1" d="M805.7,245.8c0,1.5,0,2.8,0,4.3c-2.6,0-4.9,0-7.6,0c0-1.4,0-2.8,0-4.3C800.5,245.8,802.9,245.8,805.7,245.8
					z"/>
				<path class="st1" d="M798.9,337c-0.3-0.3-1.1-1.1-1.7-1.7c1-0.8,1.6-1.7,2.7-2c1.3-0.3,3-0.2,4.3,0c0.9,0.2,1.5,1.1,2.3,1.6
					c-0.6,0.5-1.2,1.4-1.9,1.6C803,336.8,801.4,336.8,798.9,337z"/>
				<path class="st1" d="M805,114.2c0,1.5,0.1,3.1-0.1,4.5c-0.1,0.5-0.9,1-1.2,1.3c-0.4-0.4-1.3-1-1.3-1.3c-0.1-3.2-0.1-6.3,0-9.5
					c0-0.5,1-1.1,1.4-1.5c0.4,0.5,1.1,1,1.1,1.4C805.1,110.9,805,112.6,805,114.2L805,114.2z"/>
				<path class="st1" d="M778.9,260.3c2.5-2.8,4.6-5.8,7.4-8.3c2.2-1.8,5.8-2.3,5.5-6.5c1.8,2.2,1.4,3.7-0.3,5.2l0.1-0.1
					C786.2,252.7,782.1,255.9,778.9,260.3C778.8,260.3,778.9,260.3,778.9,260.3z"/>
				<path class="st1" d="M797.6,187.8c0,1,0.2,1.9-0.1,2.8c-0.2,0.6-1.1,1.3-1.6,1.3s-1.5-0.9-1.5-1.3c-0.2-1.3-0.3-2.9,0-4.2
					c0.2-1,1.1-1.6,1.6-2.6c0.5,0.9,1.1,1.6,1.6,2.6C797.7,186.8,797.6,187.4,797.6,187.8L797.6,187.8z"/>
				<path class="st1" d="M791.7,244.7c0-5.3,0-10.4,0-15.7c0.3,0,0.6,0,1,0c0,5.3,0,10.4,0,15.7C792.3,244.7,792,244.7,791.7,244.7z
					"/>
				<path class="st1" d="M817.9,419.8c-8.7,0-17.4,0-26.1,0c0-0.1,0-0.2,0-0.4c8.7,0,17.4,0,26.1,0
					C817.9,419.5,817.9,419.6,817.9,419.8z"/>
				<path class="st1" d="M797.9,222.1c-0.6,2.5-1.1,4.2-1.5,5.9c-0.1,0.2-1.9,0.2-1.9,0.1c-0.5-1.7-0.9-3.6-1.3-5.6
					C794.8,222.3,795.8,222.2,797.9,222.1z"/>
				<path class="st1" d="M793.9,92.6c0-4,0-8.1,0-12.2c0.2,0,0.4,0,0.6,0c0,4,0,8.1,0,12.2C794.4,92.6,794.2,92.6,793.9,92.6z"/>
				<path class="st1" d="M804.9,211.7c1.3-1.5,2.2-2.5,3-3.4c0.6,1.1,1.5,2.4,1.6,3.4c0,1.1-1.1,2.2-1.5,3.2
					C807.1,213.9,806.3,213,804.9,211.7z"/>
				<path class="st1" d="M792.1,337.5c-0.1-2-1.1-4,1.9-4.1c0.9,0,2.4,1,2.5,1.6C797.2,338.1,794.5,337.4,792.1,337.5z"/>
				<path class="st1" d="M792.8,245c2.4,0.8,3.9,0.8,4.4,1.5c0.5,0.8,0.1,2.3-0.4,3.2c-0.2,0.4-2.2,0.5-2.3,0.3
					C793.8,248.9,793.5,247.5,792.8,245z"/>
				<path class="st1" d="M793.3,131.7c0-3.4,0-6.9,0-10.3c0.2,0,0.5,0,0.8,0c0,3.4,0,6.9,0,10.3
					C793.7,131.9,793.5,131.7,793.3,131.7z"/>
				<path class="st1" d="M793.2,143c0-3.2,0-6.2,0-9.5c0.2,0,0.4,0,0.6,0c0,3.1,0,6.2,0,9.4C793.6,143,793.4,143,793.2,143z"/>
				<path class="st2" d="M795.6,29.3c-1.1-0.5-2.3-0.9-3.3-1.5c-0.6-0.4-1.1-1.2-1.4-1.8c1.4-0.5,3-1.1,4.4-1.5
					c0.3,1.1,0.8,2.3,0.8,3.3C796.1,28.7,795.6,29.4,795.6,29.3z"/>
				<path class="st2" d="M811.1,42.3c-0.3,0.4-0.9,1-1.2,1.4c-0.3-0.1-0.6-0.2-1-0.3c0.2-1,0.2-2.4,0.8-2.6c1.2-0.4,2.7-0.3,3.9,0
					c0.4,0.1,0.6,1.6,0.5,2.5c0,0.3-1.2,1.1-1.2,1C812.2,43.9,811.7,43.2,811.1,42.3z"/>
				<path class="st2" d="M812,26.6c-0.9,0.4-1.4,0.9-2,1c-0.2,0-1-1-0.9-1.2c0.3-0.6,0.9-1.2,1.4-1.5c0.8-0.3,1.7-0.8,2.5-0.4
					c0.8,0.3,1.4,1.2,1.6,1.9c0.1,0.5-0.8,1.2-1.1,1.9C812.9,27.6,812.3,26.9,812,26.6z"/>
				<path class="st2" d="M794.9,7.5c0.2,1.8,0.4,3,0.5,4.2c-0.3,0.2-0.6,0.5-1,0.8c-1.4-1-2.8-1.8-4.2-2.8
					C791.6,9.1,793.1,8.4,794.9,7.5z"/>
				<path class="st2" d="M814.8,8c-0.3,1.2-0.8,2.5-1.1,3.6c-1.3-0.4-2.7-0.9-4-1.2c1.1-1.1,2.3-2.2,3.3-3.3
					C813.7,7.5,814.3,7.8,814.8,8z"/>
			</g>
			<g id="guitar_body" class="st3">
				<path class="st4" d="M780.5,70.6h21.1c0.8,0,1.4,0.5,1.4,1.1l1.2,138.7c0,2.9,0.8,5.7,2.2,8.4l0.3,0.6c0.4,0.8-0.3,1.4-1.2,1.4
					l-25.8,0.5h-2c-1.1,0-1.7-0.9-1.2-1.5l0,0c1.6-2.5,2.5-5.3,2.5-8l0.3-140.1C779.2,71,779.9,70.6,780.5,70.6z"/>
				<path class="st4" d="M786.1,74.7h9.4c3.8,0,7.2-1.4,8.4-3.7l8-14.6l4.4-41.1c0.2-1.4-1-2.9-3-3.7c-4.9-2-13.8-5.6-15-6.3
					c-4.5-2.8-13.6,0-13.6,0l-9,4.1l-6.2,2.5c-2.3,1-3.6,2.5-3.6,4.1l2.3,41.9l9.4,13.6C779,73.3,782.3,74.7,786.1,74.7z"/>
				<path class="st4" d="M813.3,26.3l7.5-1.9c1.2-0.3,1.8-1.8,1.3-3.2l-0.3-0.9c-0.4-1-1.3-1.3-2.3-1l-7.2,3.9L813.3,26.3z"/>
				<path class="st4" d="M810.8,42.4l7.5-1.9c1.2-0.3,1.8-1.8,1.3-3.2l-0.3-0.9c-0.4-1-1.3-1.3-2.3-1l-7.2,3.9L810.8,42.4z"/>
				<path class="st4" d="M809.1,56.6l7.5-1.9c1.2-0.3,1.8-1.8,1.3-3.2l-0.3-0.9c-0.4-1-1.3-1.3-2.3-1l-7.2,3.9L809.1,56.6z"/>
				<path class="st4" d="M769.5,24.5l-6.5-4.8c-1.1-0.9-2.5-0.2-2.9,1.1l-0.2,0.9c-0.3,1.1,0.1,2,1.1,2.5l7.5,3.2L769.5,24.5z"/>
				<path class="st4" d="M769.6,39l-6.5-4.8c-1.1-0.9-2.5-0.2-2.9,1.1l-0.2,0.9c-0.3,1.1,0.1,2,1.1,2.5l7.5,3.2L769.6,39z"/>
				<path class="st4" d="M770.2,54.4l-6.5-4.8c-1.1-0.9-2.5-0.2-2.9,1.1l-0.2,0.9c-0.3,1.1,0.1,2,1.1,2.5l7.4,3.3L770.2,54.4z"/>
				<path class="st4" d="M781.6,219.9c-20.7,0.8-25.7,2-30.7,4.2c-4.5,1.9-12.4,5.5-16.7,13.6c-2.9,5.3-2.9,9.9-2.9,17.1
					c0,12.4,3.2,15.7,3.4,28.2c0,1.3,0.2,8-1.2,15.9c-2.2,11.8-6.1,18.3-12.3,31c-8.1,16.8-12.2,25.3-13.3,32
					c-0.8,4.5-4.1,25.1,9.6,41.1c8.7,10.4,20.7,14.3,26.3,16.2c2.2,0.8,6.9,2.2,22.8,3.6c12.1,1.1,26.6,2.4,46.5,1.2
					c15.2-0.9,23-1.3,32.6-4.8c5.5-1.9,13.9-5.1,21.8-12.6c2.5-2.4,8.9-8.5,12.3-18.4c4.8-13.7,1-25.9-2.6-36.9
					c-1.8-5.8-5.7-14.2-13.7-30.7c-4.3-9-7.6-15.6-7.9-25.3c0-1.6,0.4-5.5,1.2-13.2c1.2-10.8,2.2-15.1,2.9-24.6
					c0.4-6.1,0.8-9.3,0.3-11.1c-2.3-11.2-12.2-17.8-14.5-19.2c-3.9-2.4-8.3-4.1-19.3-5.7C817.4,220.1,805.9,218.9,781.6,219.9z"/>
				<path class="st4" d="M778.6,219.9c-20.7,0.8-25.7,2-30.7,4.2c-4.5,1.9-12.4,5.5-16.7,13.6c-2.9,5.3-2.9,9.9-2.9,17.1
					c0,12.4,3.2,15.7,3.4,28.2c0,1.3,0.2,8-1.2,15.9c-2.2,11.8-6.1,18.3-12.3,31c-8.1,16.8-12.2,25.3-13.3,32
					c-0.8,4.5-4.1,25.1,9.6,41.1c8.7,10.4,20.7,14.3,26.3,16.2c2.2,0.8,6.9,2.2,22.8,3.6c12.1,1.1,26.6,2.4,46.5,1.2
					c15.2-0.9,23-1.3,32.6-4.8c5.5-1.9,13.9-5.1,21.8-12.6c2.5-2.4,8.9-8.5,12.3-18.4c4.8-13.7,1-25.9-2.6-36.9
					c-1.8-5.8-5.7-14.2-13.7-30.7c-4.3-9-7.6-15.6-7.9-25.3c0-1.6,0.4-5.5,1.2-13.2c1.2-10.8,2.2-15.1,2.9-24.6
					c0.4-6.1,0.8-9.3,0.3-11.1c-2.3-11.2-12.2-17.8-14.5-19.2c-3.9-2.4-8.3-4.1-19.3-5.7C814.5,220.1,802.9,218.9,778.6,219.9z"/>
			</g>
			<g id="Layer_15">
				<ellipse id="sound_hole_1_" cx="793.6" cy="276.8" rx="27.2" ry="34.7"/>
				<g id="knobs" class="st0">
					<ellipse class="st5" cx="776.6" cy="24.4" rx="3.2" ry="3.1"/>
					<ellipse class="st5" cx="776.7" cy="53.8" rx="3.2" ry="3.1"/>
					<ellipse class="st5" cx="802" cy="24.5" rx="3.2" ry="3.1"/>
					<ellipse class="st5" cx="799.9" cy="53.8" rx="3.2" ry="3.1"/>
					<ellipse class="st5" cx="800.9" cy="39.4" rx="3.2" ry="3.1"/>
					<ellipse class="st5" cx="776.7" cy="39.4" rx="3.2" ry="3.1"/>
				</g>
			</g>
			<ellipse class="st6" cx="797.7" cy="277.6" rx="34.5" ry="31.4"/>
		</g>
		<g id="top_scroll">
			<path class="st7" d="M819.3,196.2c-2.8-9.6-44.1-9.5-53.7-6.8c-40.9,11.1-81.9,18.6-122.7,29.5c-12.9,3.5-26.1,7.8-39.7,9
				c-8.1,0.6-26.1-0.3-34-2.8c-19.7-11-19-32.7-5.7-49.4c5.8-7.3,13.3-10.6,23-9.2c9.4,1.4,13.2,7.6,14.1,13.3
				c10.2,4.3,18.4,7.7,26.4,11.4c3.6,1.6,6.7,4.6,10.3,6.2c6.8,3.2,13.3,2.3,19.3-1.9c5.1-3.4,7.1-8.2,6.5-14
				c-0.8-6.4-5.8-9.9-13.2-9c-8,1-14.1,7-12.1,12.8c1,2.7,5,4.4,8.8,7.7c-1.2,1.6-3.9,2-7.1,0.1c-6.3-3.4-7.1-12.3-1.8-18.1
				c5.7-6.2,20.4-13,28.9-8.8c5.4,2.7,8.5,9.6,8.5,19.2c0,8.6-12.7,15.5-22.4,16.7c-7.9,0.9-15.1-0.3-22-4.7
				c-6.3-4-13.3-7.3-20.4-10c-5-1.9-9.3-0.8-12.1,4.8c-1.5,2.9-5.7,4.7-9.1,6.6c-0.2,0.1-3.3-2.7-3.7-4.4c-1.2-4.9,2.2-7.6,6.4-9.4
				c1.8-0.8,3.7-1.4,5.6-2c-1-10.9-13.3-13.7-19.8-4.6c-7,9.6-5.7,13.8-4.2,23.4c2.2,12,17.8,16.4,32.5,16.4
				c15.2,0.1,34.7-3.2,49.5-6.8c43.2-11,65.9-17.8,108.8-29.5c10.8-2.9,22.1-5.3,33.3-5.7c15-0.6,38.6,8.5,38.8,22.8
				c0.1,8.1-1.1,12.8-8.5,16.4c-4.2,2.8-8.5,6.8-18.4,5.4c-8.6-1-12.1-6.8-8.5-12.4c6.4-9.9,4.2,1.4,18.4-8.2"/>
			<path class="st7" d="M292.1,196c2.8-9.6,42.7-9.5,52-6.8c39.5,11.1,79.2,18.6,118.8,29.5c12.6,3.5,25.3,7.8,38.5,9
				c7.9,0.6,25.3-0.3,32.8-2.8c19.1-11,18.3-32.7,5.4-49.4c-5.6-7.3-12.8-10.6-22.1-9.2c-9.1,1.4-12.6,7.6-13.7,13.3
				c-9.9,4.3-17.8,7.7-25.6,11.4c-3.6,1.6-6.5,4.6-9.9,6.2c-6.5,3.2-12.8,2.3-18.7-1.9c-5-3.4-6.9-8.2-6.3-14
				c0.8-6.4,5.6-9.9,12.7-9c7.7,1,13.7,7,11.6,12.8c-1,2.7-4.7,4.4-8.5,7.7c1.1,1.6,3.7,2,6.9,0.1c6-3.4,6.9-12.3,1.8-18.1
				c-5.6-6.2-19.7-13-27.8-8.8c-5.2,2.7-8.2,9.6-8.2,19.2c0,8.6,12.3,15.5,21.8,16.7c7.5,0.9,14.6-0.3,21.2-4.7
				c6-4,12.8-7.3,19.7-10c4.7-1.9,9.1-0.8,11.6,4.8c1.5,2.9,5.6,4.7,8.6,6.6c0.2,0.1,3.1-2.7,3.6-4.4c1.2-4.9-1.9-7.6-6.3-9.4
				c-1.7-0.8-3.6-1.4-5.4-2c1-10.9,12.8-13.7,19.3-4.6c6.9,9.6,5.4,13.8,4.1,23.4c-2.2,12-17.1,16.4-31.4,16.4
				c-14.9,0.1-33.6-3.2-47.9-6.8c-41.7-11-63.6-17.8-105.2-29.5c-10.5-2.9-21.3-5.3-32.2-5.7c-14.6-0.6-37.2,8.5-37.5,22.8
				c-0.1,8.1,1.1,12.8,8.2,16.4c4.1,2.8,8.2,6.8,17.8,5.4c8.3-1,11.6-6.8,8.2-12.4c-6-9.9-4.1,1.4-17.8-8.2"/>
			<g id="dots">
				<g id="left">
					<path class="st8" d="M419.6,188.8l-3.7-7.7c-1.3-2.9-4.5-6.6-6.5-7.7l-1.3-0.8c-0.5-0.3-1-0.4-1.2-0.3l-2.2,1.5
						c-0.2,0.1-0.2,0.5-0.2,0.9l0.1,1c0.2,2,3.1,6.3,5.8,8.6l7,6.1C419.9,192.5,420.9,191.7,419.6,188.8z"/>
					<path class="st8" d="M423.4,182.9l-0.1-6.1c-0.1-2.3-1.1-5.4-1.9-6.7l-0.6-0.9c-0.2-0.4-0.5-0.5-0.8-0.5l-1.8,0.4
						c-0.1,0-0.2,0.3-0.4,0.5l-0.1,0.6c-0.4,1.4,0.2,5.1,1.3,7.2l2.9,5.8C422.6,185.4,423.4,185.2,423.4,182.9z"/>
					<path class="st8" d="M411.3,190.5l-4.6-4.2c-1.7-1.5-4.7-3.2-6.4-3.4l-1.1-0.1c-0.4,0-0.8,0-1,0.1l-1.1,1.5
						c-0.1,0.1,0,0.4,0.1,0.6l0.4,0.6c0.8,1.3,3.9,3.4,6.3,4.2l6.4,2.1C412.7,192.7,413,192,411.3,190.5z"/>
				</g>
				<g id="right">
					<path class="st8" d="M683.4,190l7.3-4.9c2.8-1.9,5.9-5.4,6.8-7.5l0.5-1.4c0.2-0.6,0.2-1,0-1.1l-1.9-1.8c-0.1-0.1-0.5-0.1-1,0
						l-1,0.3c-2.2,0.6-5.9,4.2-7.9,7.1l-5,7.7C679.8,191,680.7,191.9,683.4,190z"/>
					<path class="st8" d="M690.2,192.5l6.3-1.3c2.4-0.5,5.4-2,6.5-3.2l0.7-0.8c0.2-0.4,0.4-0.6,0.4-0.8l-0.8-1.6
						c-0.1-0.1-0.2-0.3-0.6-0.3h-0.6c-1.6-0.1-5.1,1.1-7.1,2.7l-5.4,3.8C687.4,192.2,687.8,193,690.2,192.5z"/>
					<path class="st8" d="M680.2,182.6l3.4-5.1c1.3-1.9,2.4-5.1,2.3-6.7v-1c0-0.4-0.1-0.8-0.4-0.8l-1.7-0.6c-0.1,0-0.4,0-0.6,0.3
						l-0.5,0.5c-1.2,1-2.8,4.3-3,6.7l-1.1,6.3C678,184.3,679,184.5,680.2,182.6z"/>
				</g>
				<g id="middle">
					<path class="st8" d="M556.8,167.8l2.7-12.1c1-4.6,0.6-11.5-0.6-14.4l-1-2c-0.4-0.9-0.8-1.3-1.2-1.3h-4c-0.4,0-0.6,0.3-1.1,0.9
						l-0.6,1.3c-1.6,2.7-1.9,10.1-0.8,14.9L553,168C554,172.5,555.8,172.4,556.8,167.8z"/>
					<path class="st8" d="M566.7,164l5.2-7.3c1.9-2.8,3.7-7.3,3.7-9.6v-1.5c0-0.6-0.1-1-0.4-1.1l-2.5-1c-0.2-0.1-0.5,0-1,0.3
						l-0.8,0.6c-1.7,1.4-4.1,6.2-4.7,9.6l-1.7,9.2C563.6,166.4,564.8,166.8,566.7,164z"/>
					<path class="st8" d="M545.7,163l-1.7-8.7c-0.6-3.3-2.8-7.7-4.5-9.2l-1.2-1c-0.5-0.5-1-0.6-1.2-0.5l-2.5,1
						c-0.2,0.1-0.4,0.4-0.4,0.9l-0.1,1c-0.2,2.1,1.6,7.2,3.7,10l5.6,7.7C545.2,167,546.4,166.3,545.7,163z"/>
				</g>
			</g>
		</g>
		<g id="old_design">
			<g id="Layer_2_1_" class="st0">
				<g class="st1">
					<path d="M235.2,189.7v-1.1c0,0,6-0.9,6-5.9v-44.9c0-7.9-6-8.4-6-8.4v-1.1h23.9l26.8,39.8v-30.2c0-8.8-5.8-8.4-5.8-8.4v-1.1
						h15.2v1.2c-0.9,0-6,0.7-6,8.3v51.9h-10.1l-34.6-50.1V181c0,7.6,6.7,7.6,6.7,7.6v1.1L235.2,189.7L235.2,189.7z"/>
					<path d="M296.6,189.7v-1.1c0,0,6,0.3,6-6.5V136c0-6.3-6-6.5-6-6.5v-1.2h52.2l0.4,14.2h-1.3c-0.4-7.1-2.3-10.5-6.7-11.2
						c-1.1-0.2-2.8-0.2-4.8-0.2h-16.1v25.8h14.5c4.9,0,8.3-1.5,8.9-8h1c-0.4,6.6-0.4,13,0,19.5h-1.1c-0.8-6.7-3.5-8.3-8.8-8.3h-14.5
						v19.3c0,2.5,0.3,4.2,0.5,5.2c0.4,1,1,1.7,2,2s2.6,0.5,5.2,0.5h11.4c6.7,0,10.4-4.6,11.3-12.5h1.5l-1.3,15.2h-54.3L296.6,189.7
						L296.6,189.7z"/>
					<path d="M353.6,129.5v-1.1h33.1v1.1c-6.3,0.8-7.3,4.2-3,12.5l13.2,27c4.3-9.7,8.4-17.9,12.4-27.7c3-7.1,2.3-11.6-3.3-11.7v-1.1
						h17.5v1.1c-4.5,0-7.8,6-10.2,11.4l-21.8,48.8h-3.3l-24.4-48.2C360.8,135.7,358.1,129.1,353.6,129.5z"/>
					<path d="M422.6,189.7v-1.1c0,0,6,0.3,6-6.5V136c0-6.3-6-6.5-6-6.5v-1.2h52.2l0.4,14.2h-1.3c-0.4-7.1-2.3-10.5-6.7-11.2
						c-1.1-0.2-2.8-0.2-4.8-0.2h-16.1v25.8h14.5c4.9,0,8.3-1.5,8.9-8h1c-0.4,6.6-0.4,13,0,19.5h-1.1c-0.8-6.7-3.5-8.3-8.8-8.3h-14.5
						v19.3c0,2.5,0.3,4.2,0.5,5.2c0.4,1,1,1.7,2,2s2.6,0.5,5.2,0.5h11.4c6.7,0,10.4-4.6,11.3-12.5h1.5l-1.3,15.2h-54.3L422.6,189.7
						L422.6,189.7z"/>
					<path d="M584,192.4c0,0-5.9,13.3-22.1,13.3c-16.1,0-24.9-17.6-29.4-28c-1.9-4.4-3.9-10.4-9.6-13.1c-3.3,0.3-6.4,0.1-6.4,0.1
						v15.9c0,7.2,6.5,8.3,6.5,8.3v0.9h-30.4v-1.1c0,0,6-0.2,6-8.3v-15.6c-7.2,0.2-10.4,2.6-10.4,6.6c0,3.3,1.9,6.3,5.9,6.8
						c-2.3,3.5-18.2,4.5-18.2-5.9c0-10.3,15.5-10.5,22.8-10.5h17.9c2.6,0,4.8-0.1,6.4-0.5c7.2-1.2,10.7-7,10.7-15
						c0-10.6-7.2-18.7-17.1-15.2v28.1h-17.9V138c0-8-6-8.3-6-8.3v-1.2h31.9c6.2,0,11.3,0.6,15.2,1.8c7.8,2.4,11.8,7.6,11.8,15.4
						c0,7.6-4.4,13.6-12.4,16.2c-3.8,1.1-7.3,1.6-8.4,1.8C555.1,167.3,550.3,202.1,584,192.4z"/>
				</g>
				<g class="st1">
					<path d="M317.7,269.7c0,0,6.5-0.6,6.5-7v-50c0-6.7-6.5-7-6.5-7v-1.3c9.7,0,21.1,0,31,0c6.7,0,12.5,0.4,17.4,1.7
						c16.1,4.7,22.4,14.9,22.4,31c0,15.7-7.6,26.6-23.8,31.4c-5.4,1.5-11.7,2.3-18.8,2.3h-28.3L317.7,269.7L317.7,269.7L317.7,269.7
						z M345,265.1c1.9,2.9,7.9,2.1,11.8,0.1c2.2-1.1,4.2-2.8,5.8-5.3c4.2-5.6,5.4-14.7,5.4-21.8c0-10.4-2.6-22.8-11.2-28.2
						c-3.3-2.1-6.4-2.8-10.9-2.8c-1.6,0-2.4,0.6-2.4,2.6V259C343.7,261.8,344.1,263.9,345,265.1z"/>
					<path d="M394,205.6v-1.2h32.6v1.2c-2.7,0-6.7,2.5-6.7,7.1v49.7c0,5.9,4.9,7.1,6.7,7.1v1.2h-32.5v-1.2c1.8,0,6.7-1.1,6.7-7.1
						v-49.7C400.8,206.9,396.2,205.6,394,205.6z"/>
					<path d="M430.7,270.8v-1.2c0,0,6.5,0.4,6.5-7v-49.9c0-6.9-6.5-7-6.5-7v-1.3h56.5l0.4,15.3h-1.4c-0.4-7.7-2.4-11.4-7.2-12.1
						c-1.2-0.2-3-0.2-5.2-0.2h-17.4v27.9H472c5.3,0,9-1.6,9.7-8.7h1.1c-0.4,7.1-0.4,14.1,0,21.1h-1.2c-0.8-7.2-3.8-8.9-9.5-8.9
						h-15.6v20.8c0,2.7,0.3,4.5,0.5,5.6c0.4,1.1,1.1,1.8,2.2,2.2c1.1,0.4,2.9,0.5,5.6,0.5h12.4c7.2,0,11.3-5,12.2-13.5h1.6
						l-1.4,16.4H430.7L430.7,270.8z"/>
				</g>
				<g class="st1">
					<path d="M213,284.5v-1.4h40.5v1.4c-5,0.5-6.7,4.4-0.8,15l11.4,20.4L277,298c5.5-8.9,6.7-13.1,0.5-13.7v-1.2h17.6v1.2
						c-4.4,0-9.1,7.2-12.3,12.7l-13.2,22.3c-2.9,5.7-5,9.7-5.2,16.9l-0.2,8.5c-0.2,10.9,6.5,11.1,6.5,11.1v1.4h-33.4v-1.4
						c0,0,6.7,0,7.1-9.2c0,0,0.3-4.6,0.2-10.9c-0.2-6.7-1.5-10.4-4.7-15.9l-13.2-21.6C223.3,292.5,218.3,284.5,213,284.5z"/>
					<path d="M292,320.5c0-26.6,17.4-37.9,38.2-37.9c20.6,0,37.6,13.5,37.8,37s-15.3,36.5-35.9,36.9
						C311.4,357.2,292,347.3,292,320.5z M329.2,286.2c-13.2,0-14.4,22.5-14,33.8c0.2,11.2,2.7,33.1,16.5,32.9
						c13.5-0.3,14-22,13.5-33.1C344.7,308.6,342.5,286.4,329.2,286.2z"/>
					<path d="M372.6,284.6v-1.5H411v1.4c0,0-8.6,1.4-8.6,10.1V332c0,13,3.9,20.5,16.7,20.5c12.1,0,15.5-8.5,15.5-20.6v-37.3
						c0-10.1-8.5-10.1-8.5-10.1v-1.4h21.2v1.4c0,0-8.2,0.5-8.2,10.2V331c0,18.2-9.1,26.1-24.7,26.1c-18.2,0-33.5-5.2-33.5-26.1
						v-36.3C380.8,285,372.6,284.6,372.6,284.6z"/>
					<path d="M453.3,357.2v-1.4c0,0,7.3-1.1,7.3-7.1v-54.1c0-9.6-7.3-10.1-7.3-10.1v-1.4h28.8l32.3,48v-36.5c0-10.7-7-10.1-7-10.1
						v-1.4h18.4v1.5c-1.1,0-7.3,0.8-7.3,10v62.6h-12.1l-41.7-60.4v49.9c0,9.2,8,9.2,8,9.2v1.4h-19.4V357.2L453.3,357.2z"/>
					<path class="st9" d="M599.8,283.1v23.8h-1.2c-2.6-11.6-8.6-19.5-21.1-20.4c-5-0.1-9.9,1.1-13.8,4c-7.9,6.1-10.6,19.1-10.6,29.5
						c0,8.9,2.1,23.6,8.9,29.4c5.6,5.2,11.4,5.3,18.7,3.7v-22.3c0-7.2-9-7.8-9-7.8v-1.5h36.9v1.2c0,0-7,1-7,7.9v26.5
						c-10.8,0-25.3,0-29.9,0c-25,0-41.4-15-41.4-36.6c0-20.9,15.5-37.4,38.7-37.4C580.5,283.1,590.8,283.1,599.8,283.1z"/>
				</g>
			</g>
			<g id="Layer_9" class="st0">
				<g id="Layer_8" class="st1">
					<path d="M485.5,240.8l16.5,3.4c6.2,1.3,15.5,0.8,19.5-0.9l2.7-1.2c1.1-0.5,1.7-1.1,1.7-1.6v-5.1c0-0.5-0.4-0.9-1.2-1.4
						l-1.7-0.9c-3.6-2-13.7-2.5-20.3-1.1l-17.5,3.8C479.2,237.1,479.3,239.5,485.5,240.8z"/>
					<path d="M490.7,253.6l9.9,6.7c3.7,2.5,10,4.8,13,4.7h2.1c0.9,0,1.4-0.2,1.6-0.6l1.4-3.3c0.1-0.3,0-0.7-0.4-1.2l-0.9-1.1
						c-1.8-2.3-8.3-5.4-13-6.3l-12.5-2.3C487.5,249.4,486.9,251,490.7,253.6z"/>
					<path d="M492,226.3l11.8-2.2c4.4-0.8,10.4-3.7,12.6-5.9l1.4-1.5c0.6-0.6,0.8-1.2,0.7-1.5l-1.4-3.3c-0.1-0.3-0.5-0.5-1.1-0.6
						l-1.4-0.1c-2.9-0.3-9.7,2.1-13.6,4.8l-10.4,7.2C486.8,225.6,487.5,227.2,492,226.3z"/>
				</g>
				<g id="Layer_10" class="st1">
					<path d="M436.5,233.5l-16.5-3.4c-6.2-1.3-15.5-0.8-19.5,0.9l-2.7,1.2c-1.1,0.5-1.7,1.1-1.7,1.6v5.1c0,0.5,0.4,0.9,1.2,1.4
						l1.7,0.9c3.6,2,13.7,2.5,20.3,1.1l17.5-3.8C442.8,237.1,442.7,234.7,436.5,233.5z"/>
					<path d="M431.3,220.7l-9.9-6.7c-3.7-2.5-10-4.8-13-4.7h-2.1c-0.9,0-1.4,0.2-1.6,0.6l-1.4,3.3c-0.1,0.3,0,0.7,0.4,1.2l0.9,1.1
						c1.8,2.3,8.3,5.4,13,6.3l12.5,2.3C434.5,224.8,435.1,223.2,431.3,220.7z"/>
					<path d="M430,247.9l-11.8,2.2c-4.4,0.8-10.4,3.7-12.6,5.9l-1.4,1.5c-0.6,0.6-0.8,1.2-0.7,1.5l1.4,3.3c0.1,0.3,0.5,0.5,1.1,0.6
						l1.4,0.1c2.9,0.3,9.7-2.1,13.6-4.8l10.4-7.2C435.2,248.6,434.5,247.1,430,247.9z"/>
				</g>
			</g>
			<g id="Layer_3" class="st0">
				<g class="st1">
					<path d="M557.2,362.5c0.3,0.3,0.5,0.7,0.8,0.8c3,0.7,5.9,1.5,8.9,1.9c4.9,0.6,9.8-0.2,14.7-0.7c7.6-0.8,15.1-2.2,22.6-4
						c2.3-0.6,4.6-1.2,6.7-2.2c2-1.1,4.3-1.6,6-3.3c1.6-1.6,3.7-2.8,5.4-4.3c1-0.9,1.9-2,2.8-3c0.3-0.4,0.7-0.7,1-1.1
						c1.3-1.7,2.5-3.5,3.5-5.4c1.5-2.9,2.8-6,3.7-9.1c1.7-6.3,2.2-12.7,1.6-19.2c-0.1-0.7-0.1-1.4-0.2-2.1s-0.2-1.3-0.4-2
						c0.2,1.7,0.4,3.3,0.6,5l0,0c-0.2-1.5-0.5-3-0.7-4.5c-0.2-1.7-0.1-3.5-0.6-5.1c-1-3.3-2.2-6.6-3.4-9.9c-0.2-0.7-0.4-1.4-0.5-2.1
						c-0.8-1.5-1.6-3.1-2.5-4.6c-1.4-2.5-2.8-5-4.3-7.4c-1.5-2.3-2.7-4.7-3.6-7.3c-0.8-2.1-1.2-4.2-0.9-6.4c0,0.5,0,1,0,1.5
						c0-3.3,1.1-6.3,2-9.4c0.6-2,1.6-3.8,2.3-5.7c2-5.7,3-11.5,1.4-17.6c-1.2-4.8-4.2-8.4-8.3-11.2c-3.8-2.6-8.1-3.3-12.5-3.4
						c-1.7-0.1-3.4,0-5.3,0c0,1,0,2.2,0,3.6c-1.8,0-3.4,0-5.2,0c0-1.3,0-2.7,0-4.4c1.1,0,2.2,0,3.3,0c5,0.1,10.1,0.1,15,1.5
						c6.3,1.8,10.6,5.8,12.8,12.1c1.8,5.3,1.7,10.7,0.1,16.1c-1.2,4-2.7,7.8-4,11.7c-1.8,5.4-1.2,10.6,1.6,15.6
						c2.4,4.3,4.9,8.5,7.2,12.8c3.4,6.6,5.4,13.6,6.3,20.9c1,7.4,0.5,14.7-1.4,21.9c-1.9,7.3-5.5,13.7-11.1,19
						c-5.2,4.8-11.2,8-18.1,9.6c-10.8,2.5-21.7,4.5-32.7,5c-5.6,0.3-11-0.6-16.1-3c-2-0.9-3.9-2.2-5.8-3.5c-3.3-2.3-6.6-4.6-9.9-7
						c-6.1-4.5-9.8-10.6-11.6-18c-1.9-7.9-1.6-15.7,0-23.5c1.6-8.1,4.5-15.7,8.7-22.8c2.2-3.8,4.5-7.6,6.7-11.3
						c3.5-5.8,4-11.7,1.4-18c-0.9-2.2-1.7-4.4-2.5-6.6c-2.4-7-2.3-13.9,0.9-20.6c3.1-6.3,8.5-9.6,15.1-11.1c4.8-1.1,9.7-1,14.5-1.2
						c2.3-0.1,2.3-0.1,3.1-2.2c0.4-1.1,1-2.2,1.5-3.3c0.6-1.3,1.8-1.9,3.1-1.9c1,0,1.2-0.5,1.2-1.4c0.2-11.5,0.5-22.9,0.7-34.4
						c0.2-12.5,0.5-24.9,0.6-37.4c0.1-7.6,0.1-15.2,0.1-22.8c0-3.2-0.8-6.1-3.3-8.4c-0.5-0.5-0.7-1.4-0.9-2.1
						c-0.3-1.1-0.5-2.2-0.5-3.3c-0.1-1.7-2.1-2.5-3.4-1.8c-0.1-0.3-0.3-0.6-0.4-0.9h-0.1c0.1,0.6,0.2,1.3,0.2,1.9
						c0,0.4-0.3,1-0.6,1.1c-0.3,0.2-0.9,0-1.3-0.2c-1.5-1-1.9-3.6-0.8-5.2c-0.3,1.7-0.3,3.3,0.9,4.7c0.6-1.3-0.2-2.2-0.9-3.3
						c0.7,0,1.3,0,1.9,0c-0.3-0.6-0.5-1.2-0.7-1.7c0.1-0.1,0.2-0.1,0.3-0.2c0.3,0.4,0.6,0.8,0.9,1.2c0.6,0.8,1,1.5,2.2,1.5
						c0.8-0.1,1-0.4,0.9-1c-0.5-2.9-1-5.8-1.5-8.7c-0.2-0.8-1.7-1-2.5-0.3c-0.2-0.2-0.3-0.4-0.5-0.6c-0.1,0.1-0.2,0.1-0.2,0.2
						c0,0.4,0.1,0.7,0.1,1.1s0,0.9-0.3,1.1s-0.9,0.2-1.2,0c-1.6-0.7-2.3-3.7-1.1-5.2c-0.4,1.8-0.1,3.4,1.4,4.6
						c-0.4-0.8-0.7-1.6-1.1-2.5c0.5-0.1,1-0.1,1.7-0.2c-0.4-0.9-0.8-1.6-1.2-2.4c0-0.1,0.1-0.1,0.1-0.2c0.5,0.4,1,0.7,1.4,1.2
						c0.8,0.9,1.3,2,2.9,1.6c-0.4-2.1-0.8-4.3-1.2-6.4c-0.2-0.9-0.3-1.8-0.4-2.6c-0.2-1.3-1.5-1.7-2.5-0.8c-0.1,0.1-0.3,0.2-0.3,0.2
						c-0.2,0.6-0.3,1.2-0.5,1.3c-0.4,0.1-1.1,0.1-1.5-0.1c-1.4-0.8-1.9-3.1-1-4.7c0,0.9-0.1,1.8,0.2,2.5c0.2,0.7,0.8,1.3,1.2,2
						c0.1-0.1,0.2-0.1,0.3-0.2c-0.2-0.5-0.5-1-0.8-1.5c0.5-0.1,0.9-0.2,1.3-0.3c-0.3-0.9-0.5-1.8-0.8-2.7c1.6,0.5,1.9,2.7,4,2.1
						c-0.3-2-0.7-4.1-1-6.2c-0.3-1.6,0.4-3.2,1.8-4c0.3-0.2,0.8-0.2,1.1-0.1c5.4,0.8,10.8,1.6,16.2,2.5c1,0.2,1.6,0.7,1.7,1.7
						c0.1,2.1,0.3,4.2,0.5,6.3c0.1,0.8,0.3,1.5,1.3,2c-0.1-0.4-0.2-0.6-0.3-0.9c1.6,1.4,1.6,4.1-0.2,5.3c-0.2,0.1-0.3,0.5-0.3,0.8
						c0.3,1.8-0.2,3.7,0.9,5.3c0.1,0.1-0.1,0.4,0.1,0.7c0.2-0.4,0.4-0.7,0.5-1c1.5,1.8,1.2,4.5-0.7,5.3c0.1,0.9,0.1,1.8,0.2,2.7
						c0.1,0.9,0.1,1.8,0.2,2.4c0.9,0.4,1.7,0.6,2.2,1.1c0.4,0.3,0.6,1,0.6,1.6c-0.1,0.9-0.2,1.9-0.6,2.7c-0.2,0.4-1,0.5-1.6,0.8
						c-0.3,2.1-0.7,4.4-1,6.7c-0.5,0-0.9-0.1-1.5-0.1c-0.2-2.3-0.5-4.6-0.7-6.9h-0.1c0.2,2.2,0.3,4.4,0.5,6.7
						c-1.5,0.3-1.7,0.2-1.8-1.2c-0.1-3.9-0.2-7.7-0.3-11.6c-0.1-2.5-0.1-5.1-0.2-7.6c0-0.4,0-0.8,0.1-1.2c0-0.1,0.3-0.1,0.5-0.2
						c-0.1-0.6-0.1-1.3,0.9-1.5c0.3-0.1,0.4-0.7,0.6-1.2c-1.5-0.4-1.2,1.3-2.1,1.4c-0.1-2.2-0.2-4.5-0.3-7c0,1.9,0,3.4,0,5
						c0,0.7-0.4,1.3-0.5,2c-0.1,0.3,0,0.6,0.1,0.9c0.2,0.8,0.5,1.6,0.5,2.4c0.2,6.3,0.3,12.6,0.4,18.9c0,0.3,0,0.6,0,0.8
						c-1.8,0.2-1.7,0.2-2.1-1.4c-0.9-3.7-1.8-7.4-2.7-11.1c-0.1,0-0.2,0-0.3,0.1c1,4.1,2,8.2,3,12.2c-1.6,0.2-1.7,0.2-2-1.2
						c-0.7-3.7-1.4-7.3-2.1-11c0-0.2-0.1-0.5-0.2-0.7c-0.5,0.4-0.7,1.3-1.6,0.7c1.1-0.6,1.6-1.5,1.5-2.6c-0.5-2.6-1-5.3-1.5-7.9
						c0-0.2-0.3-0.4-0.5-0.5c-0.3-0.2-0.5-0.3-0.9-0.6c1.2-0.4,1.6-1.2,1.4-2.3c-0.5-2.2-1.1-4.4-1.6-6.7c-0.2-0.7-0.4-1.3-0.6-2
						c-0.1,0-0.2,0-0.3,0.1c0.7,3,1.5,6,2.2,9c-0.3,0.2-0.6,0.3-0.9,0.4c-0.3,0.2-0.6,0.4-0.9,0.5c-1,0.2-0.9,0.9-0.9,1.6
						c0,0.4,0.5,0.7,0.8,1.2c0.2-0.6,0.4-0.9,0.5-1.2c0.4,0,0.8,0,1.2,0c0.6,3,1.2,6.1,1.8,8.9c-1,0.5-1.9,0.9-2.7,1.5
						c-0.7,0.5-0.1,1.2,0.1,1.8c0,0.1,0.4,0.1,0.6,0.1c0.1,0,0.2-0.2,0.3-0.4c0.1-0.2,0.1-0.4,0.1-0.6c1.1,0.1,1.4,0.8,1.4,1.8
						c0.1,2.9,0.4,5.8,0.6,8.7c0,0.3,0,0.6,0,0.9c-1.8,0.3-1.8,0.3-1.4,2.1c0.3-0.1,0.7-0.2,1-0.1c0.2,0,0.6,0.3,0.6,0.5
						c0,3.3,0,6.6,0,9.6c-0.5,0.3-0.9,0.5-1.2,0.7c0.1,0.1,0.1,0.2,0.2,0.3c0.3-0.1,0.5-0.1,0.9-0.2c0,3.3,0,6.5,0,9.5
						c-0.5,0.2-0.8,0.4-1.1,0.6c0,0.1,0.1,0.2,0.1,0.4c0.3,0,0.6-0.1,0.9-0.2c0,3.1,0,6.1,0,9c-0.4,0.1-0.8,0.2-1.1,0.3
						c0,0.1,0.1,0.3,0.1,0.4c0.3,0,0.7,0,1-0.1c0,2.9,0,5.7,0,8.5c-0.4,0.1-0.8,0.2-1.2,0.2c0,0.1,0,0.3,0.1,0.4
						c0.3,0,0.7-0.1,1.1-0.1c0,2.8,0,5.5,0,8.1c-0.4,0.4-1.3-0.5-1.2,0.7c0.4-0.1,0.8-0.2,1.2-0.3c0,2.6,0,5.1,0,7.6
						c-0.5,0.1-0.9,0.2-1.3,0.3c0,0.1,0.1,0.2,0.1,0.4c0.4-0.1,0.7-0.1,1.2-0.2c0,2.5,0,4.8,0,7c-0.3,0.6-1.4-0.4-1.2,0.8
						c0.4-0.1,0.7-0.1,1.2-0.2c0,2.3,0,4.6,0,6.8c-0.5,0.1-0.9,0.2-1.3,0.2c0,0.1,0.1,0.3,0.1,0.4c0.4-0.1,0.7-0.1,1.2-0.2
						c0,2.2,0,4.3,0,6.4c-1.2,0-1.2,0-1.2,0.7c0.4-0.1,0.7-0.2,1.2-0.3c0,6-0.1,12-0.1,17.9c-0.5,0.1-1,0.1-1.4,0.1
						c0,0.1,0,0.3,0.1,0.4c0.4-0.1,0.8-0.1,1.3-0.2c0,1.7,0,3.4,0,5c-1.3,0.1-1.3,0.1-1.3,0.7c0.4-0.1,0.9-0.2,1.3-0.3
						c0,1.7,0,3.2,0,4.8c-0.5,0.1-1,0.2-1.4,0.2c0,0.1,0,0.2,0.1,0.4c0.4-0.1,0.8-0.2,1.3-0.3c0,1.6,0,3,0,4.4
						c-0.4,0.5-1.4-0.4-1.5,0.8c0.5-0.1,0.9-0.2,1.4-0.4c0,1.4,0,2.8,0,4c-0.4,0.6-1.4-0.4-1.4,0.9c0.5-0.1,0.9-0.2,1.4-0.4
						c0,1.4,0,2.6,0,3.8c-0.4,0.6-1.4-0.4-1.5,0.9c0.5-0.1,0.9-0.2,1.4-0.3c0,1.3,0,2.5,0,3.6c-0.6,0.1-1,0.3-1.5,0.4
						c0,0.1,0.1,0.2,0.1,0.4c0.4-0.1,0.9-0.1,1.4-0.2c0,1.2,0,2.3,0,3.4c-0.4,0.3-1.5-0.5-1.5,0.8c0.6-0.1,1-0.2,1.5-0.4
						c0,1.2,0,2.2,0,3.2c-0.5,0.4-1.4-0.5-1.6,0.8c0.6-0.1,1-0.2,1.6-0.3c0,1.4,0,2.7,0,4c0,0.2-0.2,0.4-0.4,0.6
						c-1,0.8-2.1,1.6-3.3,2.2c1.1-0.9,2.2-1.8,3.5-2.9c-0.8,0.1-1.3,0.2-2,0.4c0-0.6-0.1-1.2-0.1-2c-0.5,0.2-0.9,0.5-1.3,0.7l0,0
						c0-0.1,0-0.2,0-0.2c1.6-0.7,1.4-2.1,1.4-3.4c0.1-7.3,0.2-14.5,0.3-21.8c0-0.7-0.1-1.3-0.1-2.3c-3.8,0.3-7.4,0.6-11.1,1
						c-4.4,0.5-8.4,2.2-11.9,5.1c-4.2,3.4-6.3,8-7,13.3c-0.8,6.1,0.4,11.8,2.7,17.4c1.3,3.1,2.4,6.2,3.4,9.4c1.2,3.9,0.5,7.7-1,11.4
						c-0.6,1.5-1.4,3-2.1,4.4c-0.5,1.1-1.1,2.3-1.6,3.4c-0.1,0-0.3,0-0.4,0c-0.9,1.5-1.7,3-2.5,4.4c-0.9,1.6-1.8,3.1-2.7,4.7
						c-0.1,0.1,0.1,0.3,0.2,0.5c-0.6,0.8-1.3,1.6-1.7,2.4c-1.4,3.3-2.9,6.7-4,10.1c-3.4,10.5-4.9,21.2-2.7,32.2
						c1.1,5.5,3,10.6,6.6,14.9c1.2,1.5,2.8,2.7,4.3,4.1c0,0.1,0,0.2,0,0.2c2,1.2,3.9,2.4,5.9,3.6C556.7,362.8,557,362.6,557.2,362.5
						z M591.9,77.5c0.3-0.6,0.6-1,0.9-1.5c-0.1-0.1-0.2-0.2-0.2-0.3c-0.7,0.3-1.4,0.5-2,0.8c-0.8,0.3-0.7,0.9-0.6,1.5
						c0.1,0.4,0.5,0.7,0.9,1.2c0.3-0.7,0.4-1.1,0.5-1.5c0.3,0.1,0.6,0.2,1,0.2c0,0,0-0.1,0.1-0.1C592.1,77.7,591.9,77.5,591.9,77.5z
						 M581.5,74.5c-0.1-0.2-0.2-0.3-0.3-0.5c-0.5,0.2-1.1,0.6-1.6,0.6c-0.9,0.1-1.1,0.7-1.1,1.4c0,0.4,0.4,0.8,0.6,1.3
						C580,76.3,580.8,75.4,581.5,74.5z M592.8,97.8c0.5,0.9-1.6,2.3,0.2,3.5c0.8-1,1.5-1.9,2.4-2.9c-1.6-0.4-1.4,1.1-2.2,1.3
						C593,99,592.8,98.2,592.8,97.8z M583.9,86.6c-0.1,0-0.2,0-0.2,0.1c0.9,3.7,1.8,7.4,2.7,11.1c0.1,0,0.2,0,0.3-0.1
						C585.7,94,584.8,90.3,583.9,86.6z"/>
					<path d="M602.4,270.7c2-2.9,2.6-6.1,2.4-9.6c-0.2-3.4-0.6-6.7-3.5-9.1c0.1-0.2,0.3-0.4,0.2-0.5c-0.8-1.2-1.6-2.4-3.1-2.9l0,0
						c-0.1-0.1-0.2-0.1-0.3-0.2H598v-0.1c0.5,0,1.1-0.1,1.9-0.1c-0.7-0.6-1.3-1-1.8-1.4c-0.1,0-0.2,0.1-0.3,0.1
						c0.1,0.5,0.1,0.9,0.2,1.4c0,0.1,0,0.1,0.1,0.2l0,0c-0.4,0-0.7,0.1-1.1,0c-0.5-0.1-1.1-0.3-1.7-0.3c6.5,3.9,8.7,9.8,7.5,17
						c-0.6,3.9-2.6,7.3-5.8,9.8c5.9-6,7.6-12.9,3.9-20.6c-1.5-3.1-3.9-5.3-7.5-5.9c6.9,3.4,9.2,9,8.1,16.4
						c-0.8,5.3-4.9,9.9-8.5,11.2c-0.7-2.1-0.2-2.3,2.5-2.3c0-0.5,0-1.1,0-1.5c-0.8-0.1-1.6-0.1-2.3-0.3c-0.2-0.1-0.4-0.7-0.4-1.1
						c-0.1-3.1-0.1-6.3-0.1-9.5c0-0.4,0-0.7-0.1-1.1c0,3.5,0,7-0.1,10.5c0,0.5,0.2,1.2-0.7,1.1c-0.7-0.1-1.7,0.3-1.7-1.1
						c0-8.5-0.1-17-0.2-25.4c0-0.1,0-0.3,0.1-0.5c0.7,0,1.5-0.1,2.3-0.1c0,4.1,0,8.1-0.1,12.1c0.1,0,0.1,0,0.2,0c0-4,0-8,0.1-12.1
						c1.6-0.1,3.1-0.2,4.6-0.2c0.2,0,0.7,0.5,0.6,0.8c-0.1,0.8,0.5,1.2,0.9,1.8c1.5,1.8,3.7,1.5,5.5,2.2c2.5,0.9,4.6,2.4,5.8,4.6
						c1.5,2.6,2.8,5.2,3.7,8c2.2,6.5,3.3,13.2,3.5,20c0.1,3.9-0.4,7.6-1.9,11.2c-1.9,4.3-5.5,6.1-9.9,6.5c-2.9,0.2-5.8-0.1-8.2-1.9
						c-2.5-1.9-3.6-4.6-3.7-7.7c-0.1-3.3,0.1-6.6,0.2-9.9c-0.2,0.1-0.6,0.2-1.3,0.4c1.5-1.2,2.8-2.2,4-3.3c0.2-0.2,0.3-0.6,0.5-0.9
						c1,0.2,2.3-0.8,2.8-2.1c0.4-0.6,0.9-1.2,1.3-1.9h0.1l0,0l0,0l0,0c0-0.1,0-0.3,0.1-0.4l0,0c0.2,0,0.3,0,0.5,0l0,0
						c0.1-0.2,0.3-0.4,0.4-0.5l0,0C602.4,271.2,602.4,271,602.4,270.7L602.4,270.7z"/>
					<path d="M568.7,305.8c5-0.5,9.9-0.9,14.9-1.4c0,1,0,1.8,0,2.8c-0.9,0.1-1.8,0.3-3,0.5c0.9,1.4,2.1,0.3,3,0.8
						c-0.1,0.6-0.2,1.1-0.3,1.7c0.3-2.2,1.8-2.5,3.6-2.4c-0.1,0.6-0.2,1.1-0.3,1.6c0.1,0.1,0.1,0.1,0.2,0.2c0-0.1,0-0.2,0-0.3
						c0-1.5,1-1.8,2.2-1.9c1.2,0,2.5-0.1,3.7-0.3c2.5-0.4,4.9-1,7.4-1.5c0.2,0,0.3-0.3,0.5-0.5c-0.3-0.1-0.5-0.4-0.8-0.3
						c-1.7,0.2-3.3,0.5-5,0.8c-0.6,0.1-1.1,0.2-1.7,0.3c-0.6-1.9-0.3-2.3,1.6-2.5c4.6-0.4,9.2-0.9,13.8-1.3c1.4-0.1,1.4-0.1,1.4,1.3
						c0,1.8,0,3.5,0,5.3c0,1.1-0.4,1.5-1.4,1.7c-1.1,0.2-2.2,0.2-3.3,0.5c-0.9,0.3-2,0.6-2.6,1.3c-1.2,1.4-2.8,1.9-4.5,2.2
						c-2.8,0.5-5.7,0.8-8.6,1.1c-2.2,0.3-4.3,0.4-6.5,0.6c-2.5,0.3-4.9,0-7.1-1.4c-0.8-0.5-2-0.6-3-0.6c-1.1-0.1-2.3,0.1-3.4,0.2
						c-0.6,0-1.1-0.1-1.1-0.8C568.7,310.8,568.7,308.4,568.7,305.8z"/>
					<path d="M583.7,270.5c0-0.4,0-0.8-0.1-1.5c-0.1,0.5-0.2,0.8-0.2,0.8c-0.8,0.1-1.4,0.2-2.3,0.3c-0.1-0.1-0.4-0.5-0.6-0.7
						c-0.3,0.5-0.6,1.1-1.1,1.9c0-3.4,0-6.5,0-9.6c-0.1,0-0.1,0-0.2-0.1c-0.6,1.2-1.2,2.3-1.9,3.5c-2.6-3.2,1.8-13,6.8-15.4
						c0,6.9-0.1,13.8-0.1,20.7C583.9,270.5,583.8,270.5,583.7,270.5z"/>
					<path d="M585.5,248.7c-0.3,0.1-0.6,0.1-0.9,0.2c0-1.3,0-2.6,0-4c0.8,0,1.6-0.1,2.5-0.1c0,8.9-0.1,17.7-0.1,26.6
						c-0.4-0.8-0.4-0.8-2.2-0.8c0,0.2-0.1,0.3-0.1,0.5s0,0.3-0.3,0.5c0-4.1,0-8.3,0.1-12.4c0-2.8,0.1-5.7,0-8.5
						C584.5,249.8,584.6,249.1,585.5,248.7z"/>
					<path d="M587.6,244.8c0.7,0,1.4,0,2.2,0c0,8.9-0.1,17.8-0.1,26.8c-0.6-0.5-1.2-1-1.9-1.5c-0.1,0.6-0.1,0.9-0.2,1.3
						c-0.1,0-0.1,0-0.2,0C587.5,262.6,587.6,253.7,587.6,244.8z"/>
					<path d="M590.1,191.1c0.8,0,1.4,0,2.2,0c0.1,0.8,0.1,1.5,0.2,2.3c0,0,0,0,0.1,0c0-0.7,0-1.4,0-2.2c0.7,0,1.3,0,2,0
						c0,0.6,0.1,1.2,0.1,2.1c0.1-0.8,0.1-1.4,0.2-2c0.2-0.1,0.3-0.1,0.4-0.1c2.4,0,2-0.1,2,2c0,1.3,0,2.6,0,4c-0.8,0-1.5,0-2.3,0
						c0-0.7,0-1.4,0-2.1h-0.1c0,0.7-0.1,1.4-0.2,2.3c-0.8-0.1-1.5-0.3-2.1-0.4c-0.6,0-1.1,0.2-1.7,0.2c-0.3,0-0.7-0.3-0.7-0.5
						C590.1,194.7,590.1,192.9,590.1,191.1z"/>
					<path d="M594.7,203.5c0,0.8,0,1.6,0,2.3h0.1c0-0.2,0-0.3,0-0.5c0.1-2,0.5-2.3,2.6-1.6c0,1.6,0,3.3,0,5.1
						c-0.7,0-1.5,0.1-2.3,0.1c-0.1-0.6-0.2-1.1-0.3-1.6c0,0,0,0-0.1,0c0,0.5,0,1,0,1.5c-1.5,0-3,0-4.6,0c0-1.8,0-3.5,0-5.3
						C591.7,203.5,593.2,203.5,594.7,203.5z"/>
					<path d="M595.9,113.6c0,3.5,0,6.9,0,10.4c-1.2-0.1-2.3-0.3-3.6-0.4c0-3.4,0-6.8,0-10.4C593.4,113.3,594.5,113.4,595.9,113.6z"
						/>
					<path d="M596.1,131.2c0,0.9,0,1.8,0,2.8c-1.6,0.3-1.8,0.2-1.8-1.3c0-2.6,0-5.2,0-7.7c-0.1,0-0.2,0-0.3,0c0,3,0,5.9,0,8.9
						c-1.8,0.1-1.8,0.1-1.8-1.5c0-2.7,0-5.5,0-8.3c1.1,0.1,2.2,0.2,3.2,0.3c0.2,0,0.4,0.4,0.4,0.7c0,1,0,2,0.1,3c0-1.1,0-2.2,0-3.3
						c0.1,0,0.2,0,0.3,0c0,3.1,0,6.1,0,9.2l0,0c0-0.9,0-1.8,0-2.7C596.2,131.3,596.2,131.2,596.1,131.2z"/>
					<path d="M594.6,190.8c-0.8-0.3-1.7,0.3-2.1-0.6c-0.5,1-1.5,0.2-2.4,0.5c0-0.9-0.1-1.6-0.1-2.2c0.4-0.4,0.7-0.7,1-1
						c-0.3-0.3-0.6-0.5-0.9-0.8c0-0.7,0-1.5,0-2.4c0.7,0,1.4,0,2.1,0c0,0.5,0.1,1,0.1,1.6c0.3-0.6-0.3-1.6,1-1.6
						c1,0,1.3,0.3,1.3,1.3C594.5,187.2,594.6,188.9,594.6,190.8z"/>
					<path d="M594.7,203.1c-1.6,0-3,0-4.6,0c0-1.9,0-3.7,0-5.6c0.1-0.1,0.1-0.1,0.2-0.1c1.2,0,2.5,0,3.7,0.1c0.3,0,0.7,0.4,0.7,0.6
						C594.8,199.7,594.7,201.4,594.7,203.1z"/>
					<path d="M590.1,214.2c0-1.7,0-3.3,0-5c1.5,0,3,0,4.8,0c0,1.5,0,3,0,4.6c0,0.2-0.4,0.4-0.6,0.4
						C592.9,214.2,591.6,214.2,590.1,214.2z"/>
					<path d="M594.8,214.6c0,1.5,0,3,0,4.6c-1.5,0-3.1,0-4.7,0c0-1.5,0-3,0-4.6C591.7,214.6,593.2,214.6,594.8,214.6z"/>
					<path d="M587.5,123.2c-0.6,0-1.2-0.1-1.8-0.1c0-3.5,0-7,0-10.5c0.6,0.1,1.1,0.1,1.8,0.2C587.6,116.2,587.6,119.6,587.5,123.2z"
						/>
					<path d="M595,233.5c0.7-0.8,1.6-0.5,2.4-0.3c0.2,0,0.4,0.8,0.5,1.2c0.1,0.7,0,1.4,0,2.4c-1.7,0.1-3.3,0.1-5.3,0.2
						c0-1.2,0-2.2,0-3.3c0-0.1,0-0.2,0.1-0.3C593.1,232.9,594.8,233.1,595,233.5z"/>
					<path d="M585.6,133.7c0.7,0.1,1.3,0.1,1.9,0.2c0,3.1,0,6.1,0,9.2c-0.7-0.1-1.2-0.1-1.9-0.2
						C585.6,139.9,585.6,136.8,585.6,133.7z"/>
					<path d="M587.5,133.4c-0.7-0.1-1.2-0.1-1.9-0.2c0-3.2,0-6.4,0-9.7c0.6,0.1,1.2,0.1,1.9,0.2
						C587.5,126.9,587.5,130.1,587.5,133.4z"/>
					<path d="M594.4,143.6c0-3.1,0-6.1,0-9.2c0.5,0,1,0.1,1.7,0.2c0,2.2,0,4.3,0,6.4c0.1,0,0.1,0,0.2,0c0-2,0-4.1,0-6.1
						c0.1,0,0.2,0,0.2,0c0,2.9,0,5.8,0,8.7c0-0.2-0.1-0.3-0.1-0.5C596.1,144.3,595.2,143.4,594.4,143.6z"/>
					<path d="M588.1,112.7c0.5,0.1,1.1,0.1,1.7,0.2c0,3.5,0,6.9,0,10.5c-0.6,0-1.1-0.1-1.7-0.1C588.1,119.7,588.1,116.3,588.1,112.7
						z"/>
					<path d="M591.9,133.7c-0.6,0-1.1-0.1-1.8-0.1c0-3.2,0-6.4,0-9.8c0.5,0,1.1,0.1,1.8,0.2C591.9,127.3,591.9,130.5,591.9,133.7z"
						/>
					<path d="M589.8,133.6c-0.7-0.1-1.2-0.1-1.8-0.1c0-3.3,0-6.5,0-9.7c1.8,0,1.8,0,1.8,1.7C589.9,128.1,589.8,130.8,589.8,133.6z"
						/>
					<path d="M585.5,152.1c0-2.9,0-5.8,0-8.7c0.7,0,1.3,0.1,2,0.1c0,2.9,0,5.8,0,8.7C586.8,152.2,586.2,152.1,585.5,152.1z"/>
					<path d="M590.2,112.9c0.6,0.1,1.1,0.1,1.7,0.2c0,3.5,0,6.9,0,10.5c-0.6-0.1-1.1-0.1-1.7-0.2
						C590.1,119.9,590.2,116.5,590.2,112.9z"/>
					<path d="M592,152.4c-0.6,0-1.2,0-1.9,0c0-2.9,0-5.7,0-8.7c0.6,0,1.2,0.1,1.9,0.1C592,146.7,592,149.5,592,152.4z"/>
					<path d="M592.4,229c0,2.6,0,5.2,0,7.9c-0.7,0-1.4,0-2.2,0c0-1.2,0-2.3,0-3.6c0.6,0,1.1-0.1,1.7-0.1c0-0.1-0.1-0.2-0.1-0.2
						c-1.7-0.2-1.7-0.2-1.7-1.9c0-0.7,0-1.3,0-2.1C590.9,229,591.6,229,592.4,229z"/>
					<path d="M587.4,160.8c-0.7,0-1.3-0.1-2-0.1c0-2.7,0-5.4,0-8.2c0.7,0,1.3,0.1,2,0.1C587.4,155.3,587.4,158,587.4,160.8z"/>
					<path d="M587.4,168.9c-0.8-0.1-1.4-0.1-2.1-0.2c0-2.5,0-5,0-7.6c0.7,0,1.4,0.1,2.1,0.1C587.4,163.8,587.4,166.3,587.4,168.9z"
						/>
					<path d="M588,134c1.8-0.1,1.8-0.1,1.8,1.7c0,2.5,0,5,0,7.6c-0.6,0-1.2-0.1-1.8-0.1C588,140.1,588,137.1,588,134z"/>
					<path d="M591.9,143.3c-0.2,0-0.3,0-0.4,0c-1.5,0-1.5,0-1.5-1.5c0-2.5,0-5.1,0-7.7c0.7,0,1.2,0.1,1.9,0.1
						C592,137.3,592,140.3,591.9,143.3z"/>
					<path d="M596.6,160.9c0-1.9,0-3.7,0-5.6h-0.1c0,2,0,3.9,0,5.9c-0.6,0-1.1,0-1.9,0c0-2.7,0-5.4,0-8.1c0.4,0,1-0.1,1.4,0
						c0.3,0.1,0.7,0.5,0.7,0.8c0,2.3,0,4.6,0,6.9C596.7,160.9,596.6,160.9,596.6,160.9z"/>
					<path d="M595.3,240.1c-0.6,0.9-1.6,0.3-2.5,0.7c0-1.2,0-2.3,0-3.5c1.5,0,3-0.1,4.5-0.1c0.2,0,0.5,0.4,0.6,0.7
						c0.1,0.8,0,1.6,0,2.4C596.7,240.8,595.6,240.7,595.3,240.1z"/>
					<path d="M596.5,161.7c0,0.6,0,1,0,1.4c0,0,0,0,0.1,0c0-0.4,0.1-0.7,0.1-1.1c0.1,0,0.2,0,0.4,0c0,1,0,1.9,0,2.9
						c0,1.1,0,2.2,0,3.3c0,1-0.5,1.2-1.4,1.1c-0.3,0-0.6-0.1-0.9-0.1c0-2.5,0-5,0-7.7C595.3,161.6,595.9,161.6,596.5,161.7z"/>
					<path d="M585.3,169.2c0.8,0,1.4,0,2.1,0c0,2.4,0,4.8,0,7.3c-0.7,0-1.4-0.1-2.1-0.1C585.3,174,585.3,171.6,585.3,169.2z"/>
					<path d="M592.3,143.4c0-3.1,0-6,0-9.1c0.5,0,1.1,0.1,1.7,0.1c0,3,0,6,0,9.1C593.5,143.5,593,143.4,592.3,143.4z"/>
					<path d="M594.7,169.6c0.4,0,0.7,0,0.9,0c1-0.1,1.4,0.3,1.3,1.4c-0.1,1.6-0.1,3.3-0.1,4.9c0,0.7-0.2,1-1,1c-0.7,0-1.3,0-1.3-1
						C594.7,173.9,594.7,171.8,594.7,169.6z"/>
					<path d="M589.7,152.3c-0.6,0-1.2-0.1-1.9-0.1c0-2.9,0-5.7,0-8.6c0.6,0,1.2,0,1.9,0C589.8,146.6,589.7,149.4,589.7,152.3z"/>
					<path d="M595.3,242c-0.1,2.6,0.5,2.2-2.5,2.3c0-1,0-2.1,0-3.3c1.7,0,3.3,0,5.2,0c0,0.8,0,1.7,0,2.6c0,0.2-0.3,0.5-0.5,0.5
						c-0.4,0.1-0.8,0-1.2,0.1c-0.7,0.1-1.1-0.1-1-0.9C595.3,242.8,595.3,242.4,595.3,242z"/>
					<path d="M585.2,183.7c0-2.3,0-4.5,0-6.8c0.7,0,1.4,0,2.2,0c0,2.3,0,4.5,0,6.8C586.6,183.7,585.9,183.7,585.2,183.7z"/>
					<path d="M587.8,160.8c0-2.7,0-5.4,0-8.2c0.6,0,1.2,0.1,1.9,0.1c0,2.8,0,5.5,0,8.2C589.1,160.9,588.5,160.8,587.8,160.8z"/>
					<path d="M594.2,161.2c-1.9,0-1.9,0-1.9-1.7c0-2.1,0-4.3,0-6.4c1.6-0.4,1.9-0.2,1.9,1.4C594.3,156.7,594.3,158.9,594.2,161.2z"
						/>
					<path d="M594.1,152.6c-0.6-0.1-1.1-0.1-1.8-0.2c0-2.9,0-5.7,0-8.6c0.6,0,1.1,0.1,1.8,0.1C594.2,146.8,594.1,149.7,594.1,152.6z
						"/>
					<path d="M592,161c-0.6,0-1.2-0.1-1.9-0.1c0-0.9,0-1.8,0-2.7c0.4-0.3,0.8-0.7,1.2-1.1c-0.1-0.1-0.1-0.2-0.2-0.3
						c-0.3,0-0.7-0.1-1.1-0.2c0-1.3,0-2.6,0-4c0.6,0.1,1.2,0.1,1.9,0.2C592.1,155.6,592.1,158.3,592,161z"/>
					<path d="M589.7,176.6c-0.7,0-1.3-0.1-1.9-0.1c0-2.4,0-4.8,0-7.2c0.6,0,1.2,0.1,1.9,0.1C589.8,171.8,589.7,174.2,589.7,176.6z"
						/>
					<path d="M585.2,184.1c0.7,0,1.4,0,2.2,0c0,2.2,0,4.3,0,6.5c-0.7,0-1.4-0.1-2.2-0.1C585.2,188.4,585.2,186.3,585.2,184.1z"/>
					<path d="M594.8,184.4c0.6,0,1.1-0.1,1.5,0c0.3,0.1,0.7,0.5,0.7,0.7c0.1,1.8,0,3.7,0,5.7c-0.5,0-1.1,0-1.7,0
						c-0.2,0-0.6-0.4-0.6-0.6C594.8,188.3,594.8,186.3,594.8,184.4z"/>
					<path d="M590.2,169.4c0.7,0,1.3,0.1,2,0.1c0,2.4,0,4.7,0,7.1c-0.6,0-1.3,0-2,0c0-0.9,0-1.8,0-2.7c0.2-0.1,0.5-0.3,0.8-0.4
						c0-0.1,0-0.1-0.1-0.2c-0.2,0-0.4,0-0.7,0C590.2,172,590.2,170.8,590.2,169.4z"/>
					<path d="M594.5,144.1c1.8-0.1,1.8-0.1,1.8,1.6c0,2.3,0,4.6,0,7.1c-0.6,0-1.1-0.1-1.8-0.1C594.5,149.8,594.5,147,594.5,144.1z"
						/>
					<path d="M594.8,183.9c0-2.3,0-4.4,0-6.6c1.8-0.4,2.1-0.2,2.1,1.6c0,1.2,0.1,2.5,0.1,3.7c0.1,1.3,0,1.4-1.4,1.4
						C595.4,184,595.1,184,594.8,183.9z"/>
					<path d="M590.2,161.3c0.7,0,1.3,0.1,1.9,0.1c0,2.5,0,5,0,7.7c-0.6,0-1.3-0.1-1.9-0.2C590.1,166.4,590.2,163.9,590.2,161.3z"/>
					<path d="M587.9,161.2c0.6,0,1.2,0.1,1.9,0.1c0,2.6,0,5.1,0,7.6c-0.6,0-1.2,0-1.9,0C587.9,166.3,587.9,163.8,587.9,161.2z"/>
					<path d="M594.3,169.1c-0.6,0-1.1,0-1.8,0c0-2.5,0-5.1,0-7.6c0.5,0,1.1,0,1.8,0C594.3,164.1,594.3,166.6,594.3,169.1z"/>
					<path d="M585.1,190.9c0.8,0,1.4,0,2.2,0c0,2,0,4,0,6c-0.8,0-1.4,0-2.2,0C585.1,194.9,585.1,193,585.1,190.9z"/>
					<path d="M589.7,183.7c-0.7,0-1.3,0-2,0c0-2.3,0-4.5,0-6.8c0.6,0,1.2,0,2,0C589.8,179.2,589.7,181.5,589.7,183.7z"/>
					<path d="M592.2,183.9c-0.7,0-1.3-0.1-2-0.1c0-2.3,0-4.5,0-6.8c0.7,0,1.3,0.1,2,0.1C592.2,179.3,592.2,181.6,592.2,183.9z"/>
					<path d="M592.5,177.2c0.7,0,1.3,0,2,0c0,2.3,0,4.4,0,6.8c-0.5,0-0.9,0-1.4,0c-0.2,0-0.5-0.3-0.5-0.5
						C592.4,181.3,592.5,179.2,592.5,177.2z"/>
					<path d="M594.4,176.7c-0.6,0-1.2,0-1.9,0c0-2.4,0-4.8,0-7.2c0.6,0,1.2,0.1,1.9,0.1C594.4,172,594.4,174.3,594.4,176.7z"/>
					<path d="M589.7,190.6c-0.7,0-1.3,0-2,0c0-2.1,0-4.2,0-6.4c0.6,0,1.3,0,2,0C589.8,186.3,589.8,188.4,589.7,190.6z"/>
					<path d="M585.1,197.3c0.8,0,1.4,0,2.2,0c0,1.9,0,3.8,0,5.7c-0.8,0-1.4,0-2.2,0C585.1,201.1,585.1,199.3,585.1,197.3z"/>
					<path d="M597.3,203c-0.1,0-0.1,0.1-0.2,0.1c-2.1,0.3-2.2,0.3-2.2-1.9c0-1.1,0-2.3,0-3.4c0-0.1,0-0.1,0.1-0.2
						c0.1,0,0.1-0.1,0.2-0.1c2.1-0.2,2.2-0.2,2.2,2C597.3,200.7,597.3,201.8,597.3,203z"/>
					<path d="M589.8,191c0,2,0,4,0,6c-0.7,0-1.3,0-2,0c0-2,0-4,0-6C588.4,191,589.1,191,589.8,191z"/>
					<path d="M587.3,203.4c0,1.8,0,3.5,0,5.3c-0.8,0-1.5,0-2.3,0c0-1.8,0-3.5,0-5.3C585.8,203.4,586.5,203.4,587.3,203.4z"/>
					<path d="M580.5,247.7c-0.6,0.6-1.2,1.2-1.8,1.8c-5.3,6-6.8,12.8-4.4,20.4c1.5,4.5,4.3,7.9,8.8,9.8c0.2,0.1,0.4,0.3,0.6,0.5
						c-2.6-0.8-4.8-2.3-6.5-4.4c-4.6-5.8-5.4-12.2-3.2-19.1c1-3.1,2.7-5.8,5-8C579.5,248.4,580.1,248.1,580.5,247.7
						C580.5,247.8,580.5,247.7,580.5,247.7z"/>
					<path d="M585.3,99.3c0.7,3.8,1.4,7.6,2.2,11.6c-0.6-0.1-1.1-0.1-1.8-0.2c-0.3-3.9-0.5-7.7-0.8-11.5
						C585,99.3,585.1,99.3,585.3,99.3z"/>
					<path d="M584.9,214.6c0.8,0,1.5,0,2.3,0c0,1.5,0,3.1,0,4.7c-0.8,0-1.5,0-2.3,0C584.9,217.8,584.9,216.2,584.9,214.6z"/>
					<path d="M589.7,203.1c-0.7,0-1.3,0-2,0c0-1.9,0-3.7,0-5.7c0.7,0,1.3,0,2,0C589.8,199.3,589.7,201.1,589.7,203.1z"/>
					<path d="M595.1,209.2c0.8,0,1.6,0,2.4,0c0,1.6,0,3.2,0,4.9c-0.7,0-1.5,0-2.4,0C595.1,212.5,595.1,210.9,595.1,209.2z"/>
					<path d="M597.5,219.1C597.5,219.1,597.5,219.2,597.5,219.1c-2.3,0.5-2.5,0.4-2.5-1.9c0-0.8,0-1.7,0-2.6c0.9,0,1.7,0,2.5,0
						C597.5,216.1,597.5,217.6,597.5,219.1z"/>
					<path d="M584.9,214.1c0-1.7,0-3.3,0-4.9c0.8,0,1.5,0,2.3,0c0,1.6,0,3.2,0,4.9C586.5,214.1,585.8,214.1,584.9,214.1z"/>
					<path d="M589.8,209.2c0,1.6,0,3.3,0,4.9c-0.8,0-1.4,0-2.1,0c0-1.7,0-3.2,0-4.9C588.3,209.2,589,209.2,589.8,209.2z"/>
					<path d="M589.7,208.8c-0.7,0-1.4,0-2.1,0c0-1.8,0-3.5,0-5.3c0.7,0,1.3,0,2.1,0C589.8,205.2,589.7,207,589.7,208.8z"/>
					<path d="M587.2,224.1c-0.8,0-1.6,0-2.4,0c0-1.5,0-2.9,0-4.4c0.8,0,1.6,0,2.4,0C587.2,221.1,587.2,222.6,587.2,224.1z"/>
					<path d="M589.8,214.6c0,1.6,0,3.1,0,4.7c-0.7,0-1.4,0-2.2,0c0-1.6,0-3.1,0-4.7C588.3,214.6,589,214.6,589.8,214.6z"/>
					<path d="M587.2,224.5c0,1.3,0,2.7,0,4.1c-0.8,0-1.6,0-2.4,0c0-1.3,0-2.7,0-4.1C585.6,224.5,586.3,224.5,587.2,224.5z"/>
					<path d="M587.7,219.6c0.7,0,1.4,0,2.1,0c0,1.5,0,2.9,0,4.4c-0.7,0-1.3,0-2.1,0C587.6,222.6,587.7,221.2,587.7,219.6z"/>
					<path d="M597.8,228.5c-0.9,0-1.7,0-2.6,0c0-1.3,0-2.6,0-3.9c0,0,0-0.1,0.1-0.1c2.4-0.3,2.5-0.3,2.5,2.1
						C597.8,227.1,597.8,227.7,597.8,228.5z"/>
					<path d="M587.6,224.5c0.7,0,1.4,0,2.2,0c0,1.3,0,2.7,0,4.1c-0.7,0-1.4,0-2.2,0C587.6,227.2,587.6,225.9,587.6,224.5z"/>
					<path d="M590.1,228.6c0-1.4,0-2.7,0-4.1c0.8,0,1.5,0,2.3,0c0,1.4,0,2.7,0,4.1C591.6,228.6,590.9,228.6,590.1,228.6z"/>
					<path d="M584.8,229.1c0.8,0,1.5,0,2.4,0c0,1.2,0,2.5,0,3.9c-0.8,0-1.5,0-2.4,0C584.8,231.6,584.8,230.4,584.8,229.1z"/>
					<path d="M597.8,232.7c-0.7,0-1.4,0.1-2.1,0.1c-0.2,0-0.5-0.4-0.5-0.6c-0.1-1.1,0-2.1,0-3.3c0.9,0,1.7,0,2.6,0
						C597.8,230.2,597.8,231.4,597.8,232.7z"/>
					<path d="M592.7,224.3c0.8,0.1,2.1,0.1,2.2,0.3c0.2,1.2,0.3,2.4,0,3.6c-0.1,0.3-1.4,0.3-2.2,0.5
						C592.7,227.2,592.7,225.9,592.7,224.3z"/>
					<path d="M589.8,232.9c-0.7,0-1.4,0-2.1,0c0-1.2,0-2.5,0-3.9c0.7,0,1.4-0.1,2.1-0.1C589.8,230.2,589.8,231.5,589.8,232.9z"/>
					<path d="M587.2,233.3c0,1.3,0,2.5,0,3.7c-0.8,0-1.6,0-2.4,0c0-1.2,0-2.3,0-3.6C585.5,233.3,586.3,233.3,587.2,233.3z"/>
					<path d="M592.5,224c-0.9,0-1.6,0-2.4,0c0-0.4-0.1-0.9-0.1-1.1c0.4-0.4,0.7-0.7,1-1c-0.3-0.3-0.6-0.5-1-0.9c0-0.3,0-0.8,0-1.3
						c0.1-0.1,0.2-0.1,0.2-0.1c2.6,0,2.1-0.3,2.2,2.1C592.5,222.5,592.5,223.2,592.5,224z"/>
					<path d="M595,232.9c-0.8-0.1-2.2-0.1-2.2-0.3c-0.2-1.1-0.2-2.3,0-3.5c0.1-0.3,1.4-0.3,2.2-0.4C595,230.2,595,231.4,595,232.9z"
						/>
					<path d="M589.8,233.3c0,1.2,0,2.4,0,3.7c-0.7,0-1.4,0-2.3,0c0-1,0-2.1,0-3.2c0-0.2,0.3-0.4,0.5-0.5
						C588.6,233.2,589.1,233.2,589.8,233.3z"/>
					<path d="M584.7,237.4c0.9,0,1.6,0,2.5,0c0,1.1,0,2.1,0,3.3c-0.8,0-1.6,0-2.5,0C584.7,239.7,584.7,238.6,584.7,237.4z"/>
					<path d="M578.9,253.7c-4.6,9.2-4,17.1,4.9,23.1C575.5,273.5,573.5,261.1,578.9,253.7z"/>
					<path d="M584.7,241.3c0.8,0,1.6-0.1,2.5-0.1c0,1.2,0,2.2,0,3.3c-0.8,0-1.6,0-2.5,0C584.7,243.4,584.7,242.4,584.7,241.3z"/>
					<path d="M590.2,240.6c0-1.1,0-2.2,0-3.3c0.7,0,1.4,0,2.2,0c0,0.4,0.1,0.8,0.1,1.2C592.7,240.8,592.6,240.9,590.2,240.6z"/>
					<path d="M587.6,240.7c0-1.1,0-2.2,0-3.3c0.8,0,1.4,0,2.2,0c0,1.1,0,2.1,0,3.3C589,240.7,588.4,240.7,587.6,240.7z"/>
					<path d="M584.1,307.1c0-0.5,0-0.9,0-1.3c-0.1-1,0.2-1.6,1.4-1.6c0.5,0,1.3-0.1,1.4,0.1c0.2,0.6,0.2,1.4,0.2,2.1
						c0,0.1-0.3,0.3-0.6,0.4C585.7,306.9,585,307,584.1,307.1z"/>
					<path d="M590.2,244.3c0-1.1,0-2.1,0-3.2c0.7,0,1.4-0.1,2.4-0.1c0,1,0,2,0,2.9c0,0.2-0.4,0.4-0.6,0.4
						C591.4,244.4,590.8,244.3,590.2,244.3z"/>
					<path d="M589.7,244.4c-0.8,0-1.4,0-2.2,0c0-0.4-0.1-0.7-0.1-1c0-0.7,0-1.4,0-2.2c0.8,0,1.5,0,2.2,0
						C589.7,242.2,589.7,243.3,589.7,244.4z"/>
					<path d="M590.2,306.2c0-0.5-0.1-0.8-0.1-1.2c0-1.1,1.4-2.1,2.3-1.4c0.4,0.3,0.4,1.1,0.4,1.6c0,0.2-0.4,0.6-0.7,0.7
						C591.6,306.1,591,306.1,590.2,306.2z"/>
					<path d="M587.2,306.7c0.2-1,0.1-2,0.5-2.6c0.2-0.3,1.6-0.4,1.9-0.1c0.4,0.5,0.3,1.4,0.5,2.2
						C589.1,306.4,588.3,306.5,587.2,306.7z"/>
					<path d="M590.4,276.7c-0.6-3-0.4-2.8,2.2-2.8C593.1,276,592.9,276.3,590.4,276.7z"/>
					<path d="M587.5,276.8c0-0.9,0-1.6,0-2.6c0.8,0,1.5-0.1,2.3-0.1c0,0.9,0,1.8,0,2.7C589,276.8,588.3,276.8,587.5,276.8z"/>
					<path d="M587,274.4c0,0.8,0,1.5,0,2.3c-1.8,0.1-2.7-0.4-2.7-1.3C584.3,274.3,584.6,274.2,587,274.4z"/>
					<path d="M564,364.4c5.2,1,10.5,0.1,15.7-0.1C574.5,365,569.3,365.4,564,364.4z"/>
					<path d="M539.8,338.4c-0.9-3.8-0.7-8.7-0.6-12.3C539.4,329.6,539.6,334.5,539.8,338.4z"/>
					<path class="st10" d="M557.2,362.5c-0.2,0.1-0.5,0.3-0.6,0.2c-2-1.2-4-2.4-5.9-3.6c0,0,0-0.1,0-0.2l0,0c0.2,0,0.4,0,0.6,0
						C553.2,360.1,555.2,361.3,557.2,362.5z"/>
					<path d="M596.3,113.7c0,3.4,0,6.7,0,10.1c-0.1,0-0.1,0-0.2,0c0-3.4,0-6.7,0-10.1C596.2,113.7,596.3,113.7,596.3,113.7z"/>
					<path class="st10" d="M548.1,295.1c-0.1-0.2-0.2-0.4-0.2-0.5c0.9-1.6,1.8-3.1,2.7-4.7c0.1,0,0.1,0,0.2,0
						C550,291.7,549,293.4,548.1,295.1z"/>
					<path d="M627.1,287.3c0.8,1.5,1.6,3.1,2.5,4.6c-0.2,0-0.4,0-0.5-0.1c-0.7-1.4-1.4-2.8-2.1-4.2
						C627,287.6,627.1,287.5,627.1,287.3z"/>
					<path class="st10" d="M598.5,248.7c1.5,0.4,2.3,1.7,3.1,2.9c0,0.1-0.2,0.3-0.2,0.5c-0.8-0.9-1.5-1.7-2.3-2.6
						C598.8,249.2,598.7,248.9,598.5,248.7z"/>
					<path class="st10" d="M550.9,290c-0.1,0-0.1,0-0.2,0c0.8-1.5,1.7-3,2.5-4.4c0-0.1,0.2,0,0.4,0C552.7,287,551.8,288.5,550.9,290
						z"/>
					<path d="M596.7,144.4c0,2.7,0,5.3,0,8h-0.1C596.6,149.7,596.6,147.1,596.7,144.4C596.6,144.4,596.6,144.4,596.7,144.4z"/>
					<path class="st10" d="M600.1,274.3c-0.5,1.3-1.8,2.3-2.8,2.1C598.3,275.7,599.2,275,600.1,274.3z"/>
					<path d="M584,274.5c0,0.5,0,0.9,0,1.5c-0.7-0.4-1.3-0.8-1.9-1.2c0-0.1,0.1-0.2,0.1-0.3C582.7,274.6,583.3,274.5,584,274.5z"/>
					<path d="M634.7,313.6c0,2.7,0,5.5,0,8.2C634.7,319.1,634.7,316.4,634.7,313.6L634.7,313.6z"/>
					<path d="M551.1,358.9c-0.2,0-0.4,0-0.6,0c-0.7-0.7-1.3-1.4-2-2c-0.3-0.3-0.7-0.5-1-0.8c0.1-0.1,0.2-0.2,0.2-0.2
						C548.9,356.9,550,357.9,551.1,358.9z"/>
					<path d="M542.5,347.4c0.5,1.1,1,2.2,1.5,3.2c-0.1,0-0.1,0.1-0.2,0.1c-0.5-1.1-1.1-2.2-1.6-3.2
						C542.4,347.4,542.5,347.4,542.5,347.4z"/>
					<path d="M602.4,270.7L602.4,270.7c-0.1,0.2-0.2,0.4-0.2,0.6c-0.2,0.1-0.3,0.1-0.5,0.2l0,0C601.9,271.2,602.1,271,602.4,270.7z"
						/>
					<path d="M598.5,248.7c0.2,0.3,0.3,0.5,0.5,0.8C598.8,249.2,598.7,248.9,598.5,248.7L598.5,248.7z"/>
					<path d="M577.8,252.6C577.8,252.7,577.8,252.8,577.8,252.6C577.8,252.8,577.8,252.7,577.8,252.6L577.8,252.6z"/>
					<path d="M601.5,272.3L601.5,272.3L601.5,272.3C601.5,272.4,601.4,272.4,601.5,272.3c-0.1,0.1-0.1,0-0.2,0
						C601.4,272.3,601.4,272.3,601.5,272.3z"/>
					<path d="M601.6,271.9L601.6,271.9c0-0.1,0.1-0.3,0.1-0.4l0,0C601.6,271.6,601.6,271.8,601.6,271.9z"/>
					<path d="M577.8,252.6L577.8,252.6L577.8,252.6z"/>
					<polygon points="598.2,248.5 598.2,248.5 598.2,248.5 598.1,248.5 598.1,248.5 					"/>
					<path class="st10" d="M583.1,87.8c-0.4,0-0.7,0-1.2,0c-0.1,0.3-0.2,0.6-0.5,1.2c-0.4-0.5-0.8-0.8-0.8-1.2
						c0-0.6-0.1-1.4,0.9-1.6c0.3-0.1,0.6-0.3,0.9-0.5c0.3-0.1,0.6-0.3,0.9-0.4c-0.7-3-1.5-6-2.2-9c0.1,0,0.2,0,0.3-0.1
						c0.2,0.7,0.4,1.3,0.6,2c0.5,2.2,1.1,4.4,1.6,6.7c0.2,1-0.2,1.9-1.4,2.3C582.5,87.5,582.8,87.6,583.1,87.8L583.1,87.8z"/>
					<path class="st10" d="M591.9,77.5c0,0,0.2,0.2,0.4,0.3c0,0,0,0.1-0.1,0.1c-0.3-0.1-0.7-0.2-1-0.2c-0.1,0.4-0.2,0.7-0.5,1.5
						c-0.4-0.6-0.8-0.9-0.9-1.2c-0.1-0.6-0.2-1.2,0.6-1.5c0.7-0.2,1.4-0.5,2-0.8c0.1,0.1,0.2,0.2,0.2,0.3
						C592.5,76.5,592.2,76.9,591.9,77.5z"/>
					<path class="st10" d="M581.5,74.5c-0.7,0.9-1.5,1.8-2.4,2.9c-0.2-0.5-0.6-0.9-0.6-1.3c0-0.7,0.2-1.3,1.1-1.4
						c0.6-0.1,1.1-0.4,1.6-0.6C581.3,74.2,581.4,74.4,581.5,74.5z"/>
					<path class="st10" d="M592.8,97.8c0.1,0.4,0.2,1.1,0.3,1.9c0.8-0.2,0.7-1.7,2.2-1.3c-0.9,1.1-1.6,2-2.4,2.9
						C591.2,100.1,593.3,98.7,592.8,97.8z"/>
					<path class="st10" d="M583.9,86.6c0.9,3.7,1.8,7.4,2.8,11.1c-0.1,0-0.2,0-0.3,0.1c-0.9-3.7-1.8-7.4-2.7-11.1
						C583.7,86.6,583.8,86.6,583.9,86.6z"/>
					<path class="st10" d="M598.1,248.3c-0.1-0.5-0.1-0.9-0.2-1.4c0.1,0,0.2-0.1,0.3-0.1c0.5,0.4,1.1,0.8,1.8,1.4
						C599.2,248.3,598.7,248.3,598.1,248.3C598.1,248.4,598.1,248.3,598.1,248.3z"/>
					<path class="st10" d="M601.6,271.9c0-0.1,0.1-0.3,0.1-0.4c0.2-0.1,0.3-0.1,0.5-0.2l0,0c0.1,0.1,0.2,0.1,0.3,0.2
						c-0.1,0.2-0.3,0.4-0.4,0.5h0.1l0,0C601.9,272,601.7,271.9,601.6,271.9z"/>
					<path class="st10" d="M602.1,271.3c0.1-0.2,0.1-0.4,0.2-0.6c0,0.2,0,0.5,0,0.7C602.3,271.4,602.2,271.3,602.1,271.3
						L602.1,271.3z"/>
					<path d="M598.1,248.4C598.1,248.4,598.2,248.5,598.1,248.4c0,0.1,0,0.1,0,0.1C598.1,248.4,598.1,248.4,598.1,248.4L598.1,248.4
						z"/>
					<path d="M602,272v-0.1V272z"/>
					<path d="M602.1,271.3c0.1,0.1,0.2,0.1,0.3,0.2l0,0C602.3,271.4,602.2,271.3,602.1,271.3z"/>
					<polygon points="601.5,272.3 601.5,272.4 601.5,272.4 					"/>
				</g>
			</g>
		</g>
		<g id="main_text" class="st0">
			<g class="st1">
				<path class="st11" d="M299.5,138.9V200H279l-23.8-45.4v39.6h5.6v5.8h-21.1v-5.8h5.9v-55.3h-5.9V133h28.2l22,43.1v-37.2H284V133
					h21.7v5.9H299.5z"/>
				<path class="st11" d="M314.8,200v-5.8h5.9v-55.3h-5.9V133h58.4v18.5h-15.4v-12.6H344v24.3h6.8v-6.5h12.1v18.6h-12.1v-6.7H344
					v25.5h13.8v-13.9h15.4V200H314.8z"/>
				<path class="st11" d="M442.6,138.9L423.5,200h-18.7l-19.9-61.1h-5.2V133h35.9v5.9H410l11.5,42.1l11.2-42.1h-5.8V133h19.9v5.9
					H442.6z"/>
				<path class="st11" d="M452.6,200v-5.8h5.9v-55.3h-5.9V133H511v18.5h-15.4v-12.6h-13.8v24.3h6.8v-6.5h12.1v18.6h-12.1v-6.7h-6.8
					v25.5h13.8v-13.9H511V200H452.6z"/>
				<path class="st11" d="M559.2,200v-21.4c0-1.8-0.1-3.3-0.4-4.5c-0.3-1.2-0.8-2.1-1.7-2.7c-0.8-0.7-1.9-1.1-3.2-1.4
					c-1.3-0.3-3.1-0.4-5.3-0.4h-1.7v24.6h6.6v5.8h-35.9v-5.8h5.9v-55.3h-5.9V133h29.2c7.1,0,13,0.3,17.7,0.8
					c4.7,0.6,8.4,1.5,11.2,2.9s4.8,3.3,5.9,5.6c1.2,2.4,1.7,5.3,1.7,8.8c0,4.3-1.3,7.6-3.8,9.8s-6.9,3.9-13.2,5.1
					c3.4,0.7,6.1,1.5,8.3,2.2c2.2,0.8,3.8,1.7,5,2.8s2,2.6,2.4,4.2c0.4,1.7,0.6,3.8,0.6,6.3v12.6h5.6v5.8L559.2,200L559.2,200z
					 M559.2,146.1c0-1.6-0.1-2.8-0.4-3.8c-0.2-0.9-0.8-1.7-1.7-2.2s-2.1-0.8-3.8-1c-1.6-0.2-3.8-0.2-6.6-0.2v25.2
					c2.3,0,4.3-0.1,5.9-0.2c1.6-0.1,2.9-0.4,3.8-0.8c1-0.4,1.7-1,2.1-1.9c0.4-0.8,0.6-1.9,0.6-3.3v-11.8H559.2z"/>
			</g>
			<g id="Layer_18" class="st1">
				<path class="st11" d="M285.2,294l-16.8,36v21h7.6v6h-38.5v-6h6.8v-19.5l-19-37.5H220v-6.1h38.1v6.1h-5.9l11.1,25.7l11.5-25.7
					h-6.3v-6.1H291v6.1H285.2z"/>
				<path class="st11" d="M361.9,338.8c-1.6,4.5-3.9,8.2-6.8,11c-3,2.8-6.5,4.8-10.6,6.1c-4.1,1.2-8.8,1.9-13.9,1.9
					c-22.7,0-34-11.8-34-35.4c0-6.5,0.8-12,2.4-16.5s3.9-8.1,6.8-10.9c3-2.8,6.5-4.8,10.7-6s8.9-1.8,14-1.8c6.9,0,12.5,1.1,16.9,3.3
					s7.8,5,10.3,8.4s4.2,7.2,5.2,11.4c0.9,4.2,1.4,8.3,1.4,12.2C364.3,328.8,363.5,334.3,361.9,338.8z M338,302.7
					c0-3.8-0.6-6.4-1.7-7.8s-3.1-2.1-5.9-2.1c-3,0-5,0.7-6.1,2.1s-1.7,4-1.7,7.8v39.6c0,3.7,0.6,6.3,1.7,7.7
					c1.1,1.4,3.1,2.1,6.1,2.1c2.8,0,4.8-0.7,5.9-2.1s1.7-4,1.7-7.7V302.7z"/>
				<path class="st11" d="M438.3,294v41.5c0,4.1-0.5,7.6-1.5,10.4s-2.6,5.1-4.9,6.9s-5.2,3-8.8,3.8s-7.9,1.2-13.1,1.2
					c-10.8,0-18.8-1.7-23.8-5.1s-7.6-8.8-7.6-16.1V294h-6.3v-6.1h38.4v6.1h-7.6v42.5c0,2.8,0.2,5.2,0.6,7c0.4,1.9,1,3.3,1.9,4.3
					s2.2,1.8,3.9,2.2c1.7,0.4,3.8,0.6,6.4,0.6c2.5,0,4.5-0.2,6-0.6s2.7-1.1,3.5-2.2s1.4-2.6,1.7-4.5c0.3-1.9,0.5-4.4,0.5-7.5V294
					h-7.8v-6.1h24.6v6.1H438.3z"/>
				<path class="st11" d="M515.9,294v63h-21.6l-25.1-46.8V351h5.9v6h-22.3v-6h6.3v-57h-6.3v-6.1h29.7l23.3,44.4V294h-6.3v-6.1h22.9
					v6.1H515.9z"/>
				<path class="st11" d="M596.4,328.7v28.2H589l-2.4-4.8c-3.3,2-6.5,3.5-9.6,4.3s-6.6,1.3-10.5,1.3c-11.1,0-19.5-3-25.3-8.9
					s-8.7-14.7-8.7-26.1c0-5.5,0.7-10.5,2.2-14.9s3.6-8.2,6.5-11.2c2.8-3.1,6.2-5.4,10.3-7.1c4-1.7,8.5-2.5,13.6-2.5
					c3.8,0,7.3,0.4,10.4,1.2c3.1,0.8,6.5,2.1,10.1,4l2.4-4.2h8.5v21h-17.2v-8.4c0-0.9-0.2-1.8-0.5-2.7c-0.3-0.9-0.9-1.8-1.7-2.6
					c-0.8-0.8-1.8-1.4-3.1-1.9s-2.9-0.8-4.9-0.8c-3.7,0-6.3,1-7.9,3.1c-1.5,2.1-2.3,5.6-2.3,10.7v33.5c0,2.2,0.1,4.1,0.4,5.5
					c0.2,1.4,0.6,2.6,1.2,3.4s1.3,1.4,2.3,1.7c1,0.3,2.2,0.5,3.7,0.5c2.5,0,4.2-0.6,5.1-1.9c0.9-1.3,1.4-3.5,1.4-6.8v-13.5h-7v-5.7
					h38v5.7h-7.6V328.7z"/>
			</g>
			<g id="Layer_19" class="st1">
				<path class="st11" d="M378.3,259.5c-1.6,4.7-3.9,8.4-6.9,11.3c-3,2.8-6.7,4.8-11.1,6s-9.5,1.8-15.2,1.8h-29v-6h5.6v-57.4H316
					V209h30.4c5.6,0,10.6,0.6,14.8,1.8c4.3,1.2,7.9,3.1,10.7,5.8c2.9,2.6,5,6.1,6.5,10.2c1.5,4.2,2.2,9.2,2.2,15.1
					C380.7,249,379.9,254.8,378.3,259.5z M357.1,228.9c-0.1-3.5-0.5-6.2-1.3-8.2s-2-3.5-3.7-4.3s-4.1-1.2-7.2-1.2h-1.3v57.4h3
					c2.3,0,4.2-0.3,5.6-1c1.4-0.6,2.5-2,3.3-4.2c0.8-2.1,1.3-5.2,1.5-9.2s0.3-9.4,0.3-16.2C357.2,236.7,357.2,232.3,357.1,228.9z"/>
				<path class="st11" d="M389.9,278.6v-6h5.6v-57.4h-5.6V209h33.2v6.1h-5.6v57.4h5.6v6h-33.2V278.6L389.9,278.6z"/>
				<path class="st11" d="M431.8,278.6v-6h5.6v-57.4h-5.6V209h55.1v19.1h-14.5v-13h-13v25.3h6.4v-6.7h11.4V253h-11.4v-6.9h-6.4v26.5
					h13v-14.5h14.5v20.5H431.8z"/>
			</g>
		</g>
		<g id="SUBTEXT">
			<g id="text">
				<path class="st12" d="M375,353.3c0,0,1.3,0,2-2.3l4-11.6c0.5-1.6,0.4-2.2,0-3.2c0.7,0,1.4,0,2.1,0c2.1,0,2.5,0.2,3.2,2.3
					l4.1,12.5c0.8,2.4,1.9,2.3,1.9,2.3v0.3h-7.8v-0.3c0,0,1.7-0.1,0.8-2.8l-1.1-3.4h-5c-0.4,1-0.7,2.1-1.1,3.1c-1,3,0.7,3,0.7,3v0.3
					h-4v-0.2L375,353.3L375,353.3z M383.9,346l-2.1-6.5l-2.1,6.5H383.9z"/>
				<path class="st12" d="M406,340.9h-0.3l0.4-4.6h14.1l0.3,4.8h-0.3c0,0-0.2-3.7-2.7-3.7h-2.2v13.8c0,2.3,2,2.3,2,2.3v0.3h-8.5
					v-0.3c0,0,1.9-0.2,1.9-2.3v-13.8h-1.9C406.3,337.2,406.2,340.9,406,340.9z"/>
				<path class="st12" d="M444.7,354.4c0,0-1.5,3.8-5.7,3.8c-4.1,0-6.4-5-7.5-7.9c-0.5-1.3-1-3-2.4-3.7c-0.8,0.1-1.6,0-1.6,0v4.5
					c0,2.1,1.7,2.3,1.7,2.3v0.3h-7.8v-0.3c0,0,1.5-0.1,1.5-2.3v-4.4c-1.8,0.1-2.7,0.7-2.7,1.9c0,0.9,0.5,1.8,1.5,1.9
					c-0.6,1-4.7,1.3-4.7-1.7c0-2.9,4-3,5.8-3h4.6c0.7,0,1.2,0,1.6-0.1c1.8-0.4,2.7-2,2.7-4.2c0-3-1.8-5.3-4.4-4.3v8h-4.6v-6
					c0-2.3-1.5-2.3-1.5-2.3v-0.4h8.2c1.6,0,2.9,0.2,3.9,0.5c2,0.7,3,2.2,3,4.4c0,2.2-1.1,3.9-3.2,4.6c-1,0.3-1.9,0.5-2.2,0.5
					C437.3,347.3,436.1,357.2,444.7,354.4z"/>
				<path class="st12" d="M439.2,336.5v-0.3h7.7v0.3c-0.6,0-1.6,0.6-1.6,1.9v13.1c0,1.5,1.2,1.9,1.6,1.9v0.3h-7.7v-0.3
					c0.4,0,1.6-0.3,1.6-1.9v-13.1C440.8,336.9,439.7,336.5,439.2,336.5z"/>
				<path class="st12" d="M447.9,353.3c0,0,1.8-0.1,1.8-1.8v-13.1c0-2-1.8-1.8-1.8-1.8v-0.4c3,0,6.2,0.1,9.2,0.1
					c2.3,0,4.5,0.5,4.6,3.3c0.1,2-1.3,3.4-3.2,3.4c2.3,0.3,4,2.3,4.1,5c0.2,4.1-2.6,5.6-6.8,5.6h-7.9L447.9,353.3L447.9,353.3z
					 M457.3,339.9c0-1.5-0.9-3-2.2-3c-0.2,0-0.7,0.1-0.9,0.1v5.9C456.3,342.9,457.3,342.1,457.3,339.9z M456,352.5
					c1.6,0,2-1.9,2-4.2c0-2.6-0.8-4.7-2.7-4.7h-1v6.2C454.2,351.3,454.6,352.5,456,352.5z"/>
				<path class="st12" d="M463.2,336.6v-0.4h8.1v0.3c0,0-1.8,0.3-1.8,2.4v8.8c0,3.1,0.8,4.8,3.5,4.8c2.6,0,3.3-2,3.3-4.9v-8.8
					c0-2.4-1.8-2.4-1.8-2.4v-0.3h4.5v0.3c0,0-1.7,0.1-1.7,2.4v8.6c0,4.3-1.9,6.1-5.2,6.1c-3.9,0-7.1-1.2-7.1-6.1v-8.6
					C465,336.7,463.2,336.6,463.2,336.6z"/>
				<path class="st12" d="M480,340.9h-0.3l0.4-4.6h14.1l0.3,4.8h-0.3c0,0-0.2-3.7-2.7-3.7h-2.2v13.8c0,2.3,2,2.3,2,2.3v0.3h-8.5
					v-0.3c0,0,1.9-0.2,1.9-2.3v-13.8h-1.9C480.2,337.2,480.1,340.9,480,340.9z"/>
				<path class="st12" d="M495.5,353.7v-0.3c0,0,1.5,0.1,1.5-1.8v-13.1c0-1.8-1.5-1.8-1.5-1.8v-0.4h13.3l0.1,4h-0.3
					c-0.1-2-0.6-3-1.7-3.2c-0.3-0.1-0.7-0.1-1.2-0.1h-4.1v7.3h3.7c1.3,0,2.1-0.4,2.3-2.3h0.3c-0.1,1.9-0.1,3.7,0,5.5h-0.3
					c-0.2-1.9-0.9-2.3-2.3-2.3h-3.7v5.5c0,0.7,0.1,1.2,0.1,1.5c0.1,0.3,0.3,0.5,0.5,0.6c0.3,0.1,0.7,0.1,1.3,0.1h2.9
					c1.7,0,2.7-1.3,2.9-3.5h0.4l-0.3,4.3L495.5,353.7L495.5,353.7z"/>
				<path class="st12" d="M523,340.9h-0.3l0.4-4.6h14.1l0.3,4.8h-0.3c0,0-0.2-3.7-2.7-3.7h-2.2v13.8c0,2.3,2,2.3,2,2.3v0.3h-8.5
					v-0.3c0,0,1.9-0.2,1.9-2.3v-13.8h-1.9C523.3,337.2,523.2,340.9,523,340.9z"/>
				<path class="st12" d="M538.2,345c0-6.3,3.7-8.9,8.1-8.9c4.4,0,8,3.2,8,8.7s-3.2,8.6-7.6,8.7C542.3,353.7,538.2,351.3,538.2,345z
					 M546,337c-2.8,0-3.1,5.3-3,7.9c0,2.6,0.6,7.8,3.5,7.7c2.9-0.1,3-5.2,2.9-7.8C549.3,342.2,548.9,337,546,337z"/>
				<path class="st12" d="M572.9,352.1c0,5.3-3.1,7.6-5.9,7.6c-2.9,0-4.3-1.3-4.3-2.9s1.4-3.3,4-2.6c-1.5,0.9-1.5,4.7,0.2,4.7
					c1.6,0,1.4-4.1,1.4-6.8v-13.7c0-1.2-0.9-1.9-1.6-1.9v-0.3h7.7v0.3c-0.5,0-1.6,0.3-1.6,1.9L572.9,352.1L572.9,352.1L572.9,352.1z
					"/>
				<path class="st12" d="M572.9,353.3c0,0,1.3,0,2-2.3l4-11.6c0.5-1.6,0.4-2.2,0-3.2c0.7,0,1.4,0,2.1,0c2.1,0,2.5,0.2,3.2,2.3
					l4.1,12.5c0.8,2.4,1.9,2.3,1.9,2.3v0.3h-7.8v-0.3c0,0,1.7-0.1,0.8-2.8l-1.1-3.4h-5c-0.4,1-0.7,2.1-1.1,3.1c-1,3,0.7,3,0.7,3v0.3
					h-4v-0.2L572.9,353.3L572.9,353.3z M581.8,346l-2.1-6.5l-2.1,6.5H581.8z"/>
				<path class="st12" d="M592,353.2c0,0,1.6,0,1.6-1.8v-13.1c0-1.7-1.3-1.9-1.3-1.9v-0.3h5.6l0.5,1.6l2.7,8.4l3-8.3l0.5-1.6h5.4
					v0.3c0,0-1.3,0.4-1.3,2.3l0.1,12.1c0,2.2,1.7,2.3,1.7,2.3v0.3H603v-0.3c0,0,1.3-0.1,1.3-2.3v-11.2l-5,13.9H599l-4.7-13.9v11.7
					c0,2,1.5,1.7,1.5,1.8v0.3h-4v-0.3H592z"/>
				<path class="st12" d="M611.5,353.7v-0.3c0,0,1.5,0.1,1.5-1.8v-13.1c0-1.8-1.5-1.8-1.5-1.8v-0.4h13.3l0.1,4h-0.3
					c-0.1-2-0.6-3-1.7-3.2c-0.3-0.1-0.7-0.1-1.2-0.1h-4.1v7.3h3.7c1.3,0,2.1-0.4,2.3-2.3h0.3c-0.1,1.9-0.1,3.7,0,5.5h-0.3
					c-0.2-1.9-0.9-2.3-2.2-2.3h-3.7v5.5c0,0.7,0.1,1.2,0.1,1.5c0.1,0.3,0.3,0.5,0.5,0.6c0.3,0.1,0.7,0.1,1.3,0.1h2.9
					c1.7,0,2.7-1.3,2.9-3.5h0.4l-0.3,4.3L611.5,353.7L611.5,353.7z"/>
				<path class="st12" d="M627.6,353.7l-0.5-5.1h0.3c0.8,3.7,2.5,4.5,4.1,4.4c1.3,0,2.3-1,2.3-2.5c0-1.6-2-2.7-2.9-3.4
					c-0.9-0.7-1.6-1.3-2-1.7c-1.3-1.2-1.8-2.6-1.9-4.1c-0.1-3.3,2.3-5.1,5.4-5c1.3,0,2,0.3,3.1,1c0.7,0.4,0.9-1,0.9-1h0.2l0.3,4.8
					h-0.2c-0.7-3-2.4-4.1-3.7-4.1c-1.1,0.1-2,0.8-2,2c0,1.6,2,2.8,3,3.5c0.7,0.5,1.4,1,1.9,1.5c1.5,1.4,2.3,3,2.3,4.6
					c0.1,2.8-2,5.3-5.6,5.3C630.8,353.7,629.3,353.7,627.6,353.7z"/>
				<path class="st12" d="M651.7,340.9h-0.3l0.4-4.6h14.1l0.3,4.8h-0.3c0,0-0.2-3.7-2.7-3.7H661v13.8c0,2.3,2,2.3,2,2.3v0.3h-8.5
					v-0.3c0,0,1.9-0.2,1.9-2.3v-13.8h-1.9C651.9,337.2,651.8,340.9,651.7,340.9z"/>
				<path class="st12" d="M663.9,353.3c0,0,1.3,0,2-2.3l4-11.6c0.5-1.6,0.4-2.2,0-3.2c0.7,0,1.4,0,2.1,0c2.1,0,2.5,0.2,3.2,2.3
					l4.1,12.5c0.8,2.4,1.9,2.3,1.9,2.3v0.3h-7.8v-0.3c0,0,1.7-0.1,0.8-2.8l-1.1-3.4h-5c-0.4,1-0.7,2.1-1.1,3.1c-1,3,0.7,3,0.7,3v0.3
					h-4v-0.2L663.9,353.3L663.9,353.3z M672.8,346l-2.1-6.5l-2.1,6.5H672.8z"/>
				<path class="st12" d="M678.1,336.5v-0.3h8.6v0.3c-1.1,0.1-1.4,1-0.2,3.5l2.4,4.8l2.7-5.1c1.2-2.1,1.4-3.1,0.1-3.2v-0.3h3.7v0.3
					c-0.9,0-1.9,1.7-2.6,3l-2.8,5.2c-0.6,1.3-1.1,2.3-1.1,4v2c0,2.6,1.4,2.6,1.4,2.6v0.3h-7.1v-0.3c0,0,1.4,0,1.5-2.2
					c0,0,0.1-1.1,0-2.6c0-1.6-0.3-2.4-1-3.7l-2.8-5.1C680.3,338.4,679.3,336.5,678.1,336.5z"/>
				<path class="st12" d="M696.5,353.7v-0.3c0.9,0.1,1.8-0.9,1.8-2.3V339c0-1.7-0.7-2.5-1.6-2.4v-0.3h7.8v0.3
					c-0.9,0.1-1.6,0.3-1.6,2.4v12.2c0,1.4,0.4,1.9,1.8,1.9h1.9c0.5,0,0.9-0.1,1.3-0.3c0.9-0.5,1.5-2.2,2-3.3h0.3l-1.3,4.3h-12.4
					V353.7L696.5,353.7z"/>
				<path class="st12" d="M711.2,345c0-6.3,3.7-8.9,8.1-8.9c4.4,0,8,3.2,8,8.7s-3.2,8.6-7.6,8.7C715.3,353.7,711.2,351.3,711.2,345z
					 M719,337c-2.8,0-3.1,5.3-3,7.9c0,2.6,0.6,7.8,3.5,7.7c2.9-0.1,3-5.2,2.9-7.8C722.3,342.2,721.9,337,719,337z"/>
				<path class="st12" d="M751.7,354.4c0,0-1.5,3.8-5.7,3.8c-4.1,0-6.4-5-7.5-7.9c-0.5-1.3-1-3-2.4-3.7c-0.8,0.1-1.6,0-1.6,0v4.5
					c0,2.1,1.7,2.3,1.7,2.3v0.3h-7.8v-0.3c0,0,1.5-0.1,1.5-2.3v-4.4c-1.8,0.1-2.7,0.7-2.7,1.9c0,0.9,0.5,1.8,1.5,1.9
					c-0.6,1-4.7,1.3-4.7-1.7c0-2.9,4-3,5.8-3h4.6c0.7,0,1.2,0,1.6-0.1c1.8-0.4,2.7-2,2.7-4.2c0-3-1.8-5.3-4.4-4.3v8h-4.6v-6
					c0-2.3-1.5-2.3-1.5-2.3v-0.4h8.2c1.6,0,2.9,0.2,3.9,0.5c2,0.7,3,2.2,3,4.4c0,2.2-1.1,3.9-3.2,4.6c-1,0.3-1.9,0.5-2.2,0.5
					C744.3,347.3,743.1,357.2,751.7,354.4z"/>
			</g>
			<g id="lines">
				<line class="st13" x1="331.7" y1="329.7" x2="787.8" y2="329.7"/>
				<line class="st13" x1="331.7" y1="361.7" x2="791" y2="361.7"/>
			</g>
		</g>
		<g id="bottom_scroll">
			<path class="st7" d="M292.4,397.2c2.8,9.3,43.3,9.1,52.6,6.6c40-10.7,80.3-17.9,120.1-28.4c12.8-3.4,25.6-7.6,38.9-8.6
				c8-0.6,25.6,0.2,33.3,2.7c19.4,10.6,18.5,31.5,5.5,47.6c-5.7,7.1-12.9,10.2-22.4,8.9c-9.3-1.3-12.8-7.3-13.9-12.8
				c-10-4.1-18-7.4-26-11c-3.7-1.6-6.6-4.4-10.1-6c-6.6-3-13-2.2-19,1.8c-5,3.3-6.9,7.9-6.3,13.5c0.9,6.2,5.6,9.5,12.8,8.6
				c7.8-1,13.9-6.7,11.7-12.3c-1-2.6-4.8-4.3-8.7-7.4c1.1-1.6,3.8-1.9,6.9-0.1c6.1,3.3,6.9,11.8,1.8,17.4c-5.6,6-19.9,12.5-28.1,8.5
				c-5.4-2.6-8.3-9.3-8.3-18.5c0-8.3,12.5-15,21.9-16.1c7.8-0.9,14.9,0.2,21.4,4.5c6.1,3.9,13,7.1,19.9,9.6
				c4.8,1.8,9.1,0.7,11.9-4.6c1.5-2.8,5.6-4.5,8.8-6.3c0.2-0.1,3.2,2.6,3.7,4.3c1.2,4.7-1.9,7.3-6.3,9c-1.7,0.7-3.8,1.3-5.5,1.9
				c1,10.5,12.9,13.2,19.5,4.4c6.9-9.3,5.5-13.3,4.1-22.5c-2.2-11.6-17.3-15.8-31.8-15.8c-15-0.1-34,3-48.5,6.6
				c-42.2,10.6-64.4,17.2-106.6,28.4c-10.6,2.8-21.7,5.1-32.5,5.5c-14.7,0.6-37.8-8.2-37.9-21.9c-0.1-7.8,1.1-12.3,8.3-15.8
				c4.1-2.7,8.3-6.6,18-5.2c8.4,1,11.7,6.6,8.3,11.9c-6.1,9.5-4.1-1.3-18,7.9"/>
			<path class="st7" d="M818.4,397.3c-2.8,9.3-43.9,9.1-53.4,6.6c-40.7-10.7-81.5-17.9-122.2-28.4c-12.9-3.4-26-7.6-39.5-8.6
				c-8.1-0.6-26,0.2-33.8,2.7c-19.6,10.6-18.9,31.5-5.7,47.6c5.8,7.1,13.2,10.2,22.9,8.9c9.4-1.3,13-7.3,14.1-12.8
				c10.1-4.1,18.3-7.4,26.2-11c3.6-1.6,6.6-4.4,10.2-6c6.7-3,13.2-2.2,19.3,1.8c5.1,3.3,7.1,7.9,6.5,13.5c-0.8,6.2-5.8,9.5-13,8.6
				c-7.9-1-14.1-6.7-12-12.3c1-2.6,4.9-4.3,8.8-7.4c-1.2-1.6-3.9-1.9-7.1-0.1c-6.3,3.3-7.1,11.8-1.8,17.4c5.7,6,20.3,12.5,28.8,8.5
				c5.4-2.6,8.4-9.3,8.4-18.5c0-8.3-12.6-15-22.3-16.1c-7.8-0.9-15,0.2-21.9,4.5c-6.3,3.9-13.2,7.1-20.3,9.6
				c-4.9,1.8-9.3,0.7-12-4.6c-1.4-2.8-5.7-4.5-9-6.3c-0.2-0.1-3.2,2.6-3.7,4.3c-1.2,4.7,2.2,7.3,6.4,9c1.8,0.7,3.7,1.3,5.5,1.9
				c-1,10.5-13.2,13.2-19.7,4.4c-7-9.3-5.7-13.3-4.2-22.5c2.2-11.6,17.7-15.8,32.4-15.8c15.2-0.1,34.5,3,49.2,6.6
				c43,10.6,65.6,17.2,108.3,28.4c10.7,2.8,22,5.1,33.1,5.5c14.9,0.6,38.4-8.2,38.6-21.9c0.1-7.8-1.1-12.3-8.4-15.8
				c-4.2-2.7-8.4-6.6-18.3-5.2c-8.5,1-12,6.6-8.4,11.9c6.4,9.5,4.2-1.3,18.3,7.9"/>
			<g id="dots_1_">
				<path class="st8" d="M682.5,403.3l3.8,7.4c1.3,2.8,4.5,6.3,6.6,7.4l1.3,0.7c0.5,0.2,1,0.4,1.2,0.2l2.2-1.5
					c0.2-0.1,0.2-0.5,0.2-0.9l-0.1-1c-0.2-1.9-3.2-6.1-5.8-8.3l-7.1-5.8C682.1,399.8,681.1,400.5,682.5,403.3z"/>
				<path class="st8" d="M678.7,409l0.1,5.8c0.1,2.2,1.1,5.2,1.9,6.5l0.6,0.9c0.2,0.4,0.5,0.5,0.9,0.5l1.8-0.4
					c0.1,0,0.2-0.2,0.4-0.5l0.1-0.6c0.4-1.3-0.2-4.9-1.3-6.9l-2.9-5.6C679.4,406.6,678.7,406.8,678.7,409z"/>
				<path class="st8" d="M690.8,401.7l4.6,4c1.7,1.5,4.8,3,6.5,3.3l1.1,0.1c0.4,0,0.9,0,1-0.1l1.1-1.5c0.1-0.1,0-0.4-0.1-0.6
					l-0.4-0.6c-0.9-1.2-3.9-3.3-6.3-4l-6.5-2.1C689.4,399.5,689.1,400.3,690.8,401.7z"/>
				<path class="st8" d="M416.7,402.2l-7.3,4.7c-2.8,1.8-6,5.2-6.8,7.2l-0.5,1.3c-0.2,0.6-0.2,1,0,1.1l1.9,1.7c0.1,0.1,0.5,0.1,1,0
					l1-0.2c2.2-0.6,6-4,7.9-6.8l5-7.4C420.4,401.2,419.5,400.4,416.7,402.2z"/>
				<path class="st8" d="M410,399.8l-6.3,1.2c-2.4,0.5-5.5,1.9-6.6,3l-0.9,0.7c-0.2,0.4-0.4,0.6-0.4,0.7l0.9,1.6
					c0.1,0.1,0.2,0.2,0.6,0.2h0.6c1.6,0.1,5.1-1.1,7.2-2.6l5.5-3.7C412.8,400,412.3,399.3,410,399.8z"/>
				<path class="st8" d="M420.1,409.3l-3.4,4.9c-1.3,1.8-2.4,4.9-2.3,6.5v1c0,0.4,0.1,0.7,0.4,0.7l1.7,0.6c0.1,0,0.4,0,0.6-0.2
					l0.5-0.5c1.2-1,2.8-4.1,3-6.5l1.1-6.1C422.1,407.7,421.3,407.4,420.1,409.3z"/>
				<path class="st8" d="M553.3,423.5l-2.7,11.7c-1,4.4-0.6,11.1,0.6,13.9l1,1.9c0.4,0.9,0.9,1.2,1.2,1.2h4c0.4,0,0.6-0.2,1.1-0.9
					l0.6-1.2c1.6-2.6,1.9-9.7,0.9-14.4l-2.9-12.4C556.1,419,554.3,419.1,553.3,423.5z"/>
				<path class="st8" d="M543.3,427.2l-5.2,7.1c-1.9,2.7-3.8,7.1-3.8,9.3v1.5c0,0.6,0.1,1,0.4,1.1l2.6,1c0.2,0.1,0.5,0,1-0.2
					l0.9-0.6c1.7-1.3,4.1-6,4.8-9.3l1.7-8.9C546.6,424.9,545.4,424.5,543.3,427.2z"/>
				<path class="st8" d="M564.5,428.2l1.7,8.4c0.6,3.2,2.8,7.4,4.5,8.9l1.2,1c0.5,0.5,1,0.6,1.2,0.5l2.6-1c0.2-0.1,0.4-0.4,0.4-0.9
					l0.1-1c0.2-2.1-1.6-6.9-3.8-9.6l-5.6-7.4C565.1,424.4,563.9,425,564.5,428.2z"/>
			</g>
		</g>
		<g id="Layer_26" class="st0">
			<rect x="221.5" y="133.5" class="st14" width="384" height="262"/>
		</g>
		<g id="Layer_25">
		</g>
	</g>
	<g id="strings" class="st0">
		<line class="st15" x1="342.7" y1="303.8" x2="342.7" y2="347.4"/>
		<line class="st15" x1="339.2" y1="301.4" x2="339.2" y2="351.2"/>
		<line class="st15" x1="335.5" y1="301" x2="335.5" y2="353.9"/>
		<line class="st15" x1="331.7" y1="298.4" x2="331.7" y2="354.8"/>
		<line class="st15" x1="327.9" y1="299.5" x2="327.9" y2="352.8"/>
		<line class="st15" x1="324.1" y1="303.8" x2="324.1" y2="349.8"/>
	</g>
</g>
<g id="Layer_3_1_">
	<g>
		<path class="st16" d="M82,309.4H57.5l-33.6-52.8v44c0,0,0.2,7.4,3.4,7.4c2.8,0,2.6,1.4,2.6,1.4H6.3c0,0-0.3-1.4,2.6-1.4
			s3.1-6.7,3.1-7.4v-54c0-0.5-0.2-7.4-3.1-7.4s-2.6-1.4-2.6-1.4h24.6L57.6,280v-33.4c0-0.5-0.3-7.4-3.4-7.4s-2.6-1.4-2.6-1.4H82
			c0,0,0.3,1.4-2.6,1.4s-3.1,6.7-3.1,7.4v54.2c0,1.2,0.3,7.2,3.1,7.2C82.3,307.8,82,309.4,82,309.4z"/>
		<path class="st16" d="M151.3,309.4H91.4c0,0-0.3-1.4,2.6-1.4s3.1-6.7,3.1-7.4v-54c0-0.5-0.2-7.4-3.1-7.4s-2.6-1.4-2.6-1.4H150
			c0,4.7-8.7,15.7-9.2,20.1c-0.2,0.8,0.3,1.3,1.1,1.5v-0.2c0-1.2,2.1-2.3,4.4-2.3c2.2,0,4.2,1.1,4.2,2.3c0,1.3-2.3,2.8-5.2,3.4
			c-2.6,0.4-6.5,0.5-9.2-0.9c-11.5-5.4,8.1-20.2-9.8-20.3h-10.5v39.5c1.8,0,14.3-0.2,14.3-1.6c0-1.5,2.8-1.3,2.8-1.3v9.5
			c0,0-2.8,0.2-2.8-1.2c0-1.5-12.3-1.7-14.3-1.7V306h10c14.3-0.3,17-12.3,17-15.3c0-4.2,8.5-3,8.5-3S144.8,295.6,151.3,309.4z"/>
		<path class="st16" d="M241.3,237.8c0,0-0.3,1.4-3.1,1.4c-3.1,0-6.5,6.9-6.7,7.4l-21.1,54c-0.2,0.4-3.1,7.4,0,7.4
			c2.8,0,1.8,1.4,1.8,1.4h-30.8c0,0-1-1.4,2.1-1.4s0.8-7.2,0.8-7.4l-16.4-54c-0.2-0.2-2.8-7.4-5.9-7.4c-2.8,0-2.9-1.4-2.9-1.4h30.3
			c0,0,0.8,1.4-2.1,1.4c-3.1,0-1,6.9-0.8,7.4l14.4,47.6l18.7-47.6c0.2-0.2,3.1-7.4,0-7.4c-2.8,0-1.8-1.4-1.8-1.4L241.3,237.8z"/>
		<path class="st16" d="M307.6,309.4h-59.9c0,0-0.3-1.4,2.6-1.4s3.1-6.7,3.1-7.4v-54c0-0.5-0.2-7.4-3.1-7.4s-2.6-1.4-2.6-1.4h58.6
			c0,4.7-8.7,15.7-9.2,20.1c-0.2,0.8,0.3,1.3,1.1,1.5v-0.2c0-1.2,2.1-2.3,4.4-2.3c2.2,0,4.2,1.1,4.2,2.3c0,1.3-2.2,2.8-5.2,3.4
			c-2.6,0.4-6.5,0.5-9.2-0.9c-11.5-5.4,8.1-20.2-9.8-20.3h-10.5v39.5c1.8,0,14.3-0.2,14.3-1.6c0-1.5,2.8-1.3,2.8-1.3v9.5
			c0,0-2.8,0.2-2.8-1.2c0-1.5-12.3-1.7-14.3-1.7V306h10c14.3-0.3,17-12.3,17-15.3c0-4.2,8.5-3,8.5-3S301.1,295.6,307.6,309.4z"/>
		<path class="st16" d="M412.5,318.4c0,1.1-1,2.3-3.7,3.1c-4.4,1.4-18.3,2.2-26.9-3.6c-10.7-7.1-30.8-30.5-41.5-32v14.5
			c0,0.5,0.3,7.4,3.4,7.4s2.6,1.4,2.6,1.4h-30.3c0,0-0.3-1.4,2.6-1.4s3.1-6.7,3.1-7.4v-53.9c0-0.5-0.2-7.4-3.1-7.4s-2.6-1.4-2.6-1.4
			h24.2c29.7,0,52.7,9.2,52.7,25c0,13-16.1,21.5-35.7,23.3c23.5,4.6,33.1,32.4,46.7,32.4v-0.1c0-1.2,1.8-2.3,4.2-2.3
			C410.6,316.1,412.5,317.2,412.5,318.4z M375.1,262.5c0-14.2-18.7-20.6-34.7-20.8v40.8h1.6C358.2,282.6,375.1,274.5,375.1,262.5z"
			/>
	</g>
	<g>
		<path class="st16" d="M758.3,240.8c0,0-0.6,1.4-3.6,1.4s-7.3,7-7.5,7.3l-16.8,37.4v16.6c0,0.6,0.4,7.3,3.4,7.3
			c2.8,0,2.6,1.4,2.6,1.4h-30.8c0,0-0.4-1.4,2.4-1.4c3.2,0,3.4-6.8,3.4-7.3v-14.8l-17.9-39.2c-0.2-0.2-4.7-7.3-7.9-7.3
			c-2.8,0-3.4-1.4-3.4-1.4h30.9c0,0,1.1,1.4-1.7,1.4c-3.2,0,0.9,7,1.1,7.3l11.9,26.1l10.5-26.1c0.2-0.2,4.1-7.3,0.9-7.3
			c-2.8,0-1.7-1.4-1.7-1.4H758.3L758.3,240.8z"/>
		<path class="st16" d="M825.1,255.6v41.9c0.2,8-15.2,14.7-32,14.8c-16.9-0.2-31.8-6.8-31.8-14.8v-41.9c0-8.1,15.1-14.6,32.2-14.8
			h0.2C810.4,241.1,825.1,247.5,825.1,255.6z M806.1,255.6c0-4.4-5.8-8.1-12.8-10.1c-7.2,1.9-13,5.7-13,10.1v41.9
			c0,4.4,5.8,8.2,12.8,10.1c7.2-1.9,13-5.7,13-10.1V255.6z"/>
		<path class="st16" d="M907.6,242.2c-3.2,0-3.2,7.4-3.2,7.4l-0.2,47.9c0,8-14.9,14.6-31.8,14.8c-16.9-0.2-32-6.8-32-14.8V249
			c0-1.7-0.6-6.8-3.2-6.8c-3,0-2.6-1.4-2.6-1.4h24.8v56.7c0,4.4,6,8.2,13,10.1c7-1.9,13-5.7,13-10.1v-56.7h24.8
			C910.2,240.8,910.6,242.2,907.6,242.2z"/>
		<path class="st16" d="M996.8,312.3H972l-34.3-52.8v44c0,0,0.2,7.3,3.4,7.3c2.8,0,2.6,1.4,2.6,1.4h-24.1c0,0-0.4-1.4,2.6-1.4
			s3.2-6.8,3.2-7.3v-54c0-0.6-0.2-7.3-3.2-7.3s-2.6-1.4-2.6-1.4h25l27.3,42.1v-33.4c0-0.6-0.4-7.3-3.4-7.3s-2.6-1.4-2.6-1.4h30.9
			c0,0,0.4,1.4-2.6,1.4s-3.2,6.8-3.2,7.3v54.1c0,1.1,0.4,7.1,3.2,7.1C997.2,310.8,996.8,312.3,996.8,312.3z"/>
		<path class="st16" d="M1070.8,311.7c-7.5,0.7-16.6,0.6-17.3,0.6c-40.7,0-48-22.2-48-35.3c0-11,11.7-36.2,43.1-36.2h25.4
			c0,6.4-16.4,15.7-16.9,20c0,0.8,0.6,1.3,1.3,1.5v-0.2c0-1.2,1.9-2.3,4.3-2.3s4.5,1,4.5,2.3s-2.4,3-5.5,3.3
			c-2.6,0.4-6.4,0.6-9.4-0.9c-11.5-5.4,13.7-20.3-2.6-20.3c-15.6,0-23.7,23.2-23.7,32.6c0,10.4,8.7,30.9,25.2,30.9
			c6.6,0,8.5-1,8.5-1v-14.8c-0.4-2.2-1.1-5.1-3.2-5.1c-2.8,0-2.4-1.4-2.4-1.4h24.8c-0.9,0.7-1.5,3-1.7,5.9c0,4.4,0.2,10.1,0.8,14.1
			c0.4,2.4,1.1,4.1,1.9,4.7C1078.2,310.9,1074.7,311.4,1070.8,311.7z"/>
	</g>
	<path class="st13" d="M793.6,253.7c0,0-3.6,10-3.6,22.6c0,12.4,3.6,22.6,3.6,22.6s3.5-10,3.5-22.6
		C796.9,263.9,793.6,253.7,793.6,253.7z"/>
	<g>
		<path class="st16" d="M529,290.6c0,11.3-15.5,20.3-38.9,20.3h-46.9c0,0-0.4-1.5,3-1.5c3.5,0,3.8-6.8,3.8-7.3v-53.5
			c0-0.4-0.3-7.3-3.8-7.3s-3-1.5-3-1.5h29.1c31.1,0,56.3,6.2,56.3,21.3C528.9,266.3,529,282.9,529,290.6z M506.7,291
			c0-7.7-0.3-25.5-0.3-29.7c0-11.6-6.2-16.1-34-16.4v62.3c1.7,0.1,3.3,0.1,5.1,0.1C495.7,307.2,506.7,298.7,506.7,291z"/>
		<path class="st16" d="M575.2,310.9H539c0,0-0.4-1.5,3-1.5s3.8-7,3.8-7.3v-53.5c0-0.4-0.3-7.3-3.8-7.3s-3-1.5-3-1.5h36.2
			c0,0,0.4,1.5-3,1.5c-3.8,0-3.9,7.1-3.9,7.3v53.5c0,0.1,0.3,7.3,3.9,7.3C575.6,309.6,575.2,310.9,575.2,310.9z"/>
		<path class="st16" d="M656.5,310.9H585c0,0-0.4-1.5,3-1.5c3.5,0,3.8-6.7,3.8-7.3v-53.5c0-0.6-0.3-7.3-3.8-7.3s-3-1.5-3-1.5h70
			c0,4.6-10.4,15.7-11,19.9c-0.3,0.7,0.4,1.3,1.3,1.5v-0.1c0-1.2,2.5-2.3,5.4-2.3c2.6,0,5.1,1,5.1,2.3s-2.6,2.9-6.2,3.3
			c-3,0.4-7.7,0.6-11-0.9c-13.7-5.4,9.7-20-11.7-20.2h-12.6v39.2c2.2,0,17.1-0.1,17.1-1.6s3.3-1.3,3.3-1.3v9.4c0,0-3.3,0.1-3.3-1.2
			c0-1.5-14.8-1.7-17.1-1.7v21.2h11.9c17.1-0.3,20.3-12,20.3-15.1c0-4.2,10.1-3,10.1-3S648.7,297.2,656.5,310.9z"/>
	</g>
</g>
<g id="Layer_4">
</g>
</svg>
