<?xml version="1.0" encoding="utf-8"?>
<!-- Generator: Adobe Illustrator 25.2.3, SVG Export Plug-In . SVG Version: 6.00 Build 0)  -->
<svg version="1.1" xmlns="http://www.w3.org/2000/svg" xmlns:xlink="http://www.w3.org/1999/xlink" x="0px" y="0px"
	 viewBox="0 0 422 253" style="enable-background:new 0 0 422 253;" xml:space="preserve">
<style type="text/css">
	.st0{display:none;}
	.st1{display:inline;}
	.st2{fill:#9E6900;}
	.st3{fill:#E6BF77;}
	.st4{display:inline;fill:#FFFFFF;}
	.st5{fill:#8F7458;}
	.st6{fill:#5E3616;}
	.st7{fill:none;stroke:#5E3616;stroke-miterlimit:10;}
	.st8{fill:none;stroke:#8F7458;stroke-width:10;stroke-miterlimit:10;}
	.st9{fill:#FFFAFA;}
	.st10{fill:#FFFFFF;}
	.st11{fill:#FFC543;stroke:#E09200;stroke-miterlimit:10;}
	.st12{fill:#FFC543;}
	.st13{font-family:'Marlboro';}
	.st14{font-size:122.2341px;}
	.st15{fill:#FFC043;}
	.st16{fill:#F2E9AF;stroke:#5E3616;stroke-width:2;stroke-miterlimit:10;}
	.st17{display:inline;fill:none;stroke:#FF0000;stroke-miterlimit:10;}
</style>
<g id="Layer_24" class="st0">
	<g class="st1">
		<rect x="-104.5" y="-68.5" width="669" height="587"/>
		<path d="M564-68v586h-668V-68H564 M565-69h-670v588h670V-69L565-69z"/>
	</g>
</g>
<g id="top_scroll">
	<path class="st2" d="M408.2,50c-2.1-7.6-33.3-7.5-40.5-5.4c-30.8,8.8-61.8,14.7-92.6,23.3c-9.8,2.8-19.7,6.2-29.9,7.1
		c-6.1,0.5-19.7-0.2-25.6-2.2c-14.9-8.7-14.3-25.9-4.3-39.1c4.4-5.8,10-8.4,17.3-7.3c7.1,1.1,9.9,6,10.7,10.5
		c7.7,3.4,13.9,6.1,19.9,9c2.7,1.3,5,3.6,7.8,4.9c5.1,2.5,10,1.8,14.6-1.5c3.8-2.7,5.4-6.5,4.9-11.1c-0.6-5.1-4.4-7.8-9.9-7.1
		c-6,0.8-10.7,5.5-9.1,10.1c0.7,2.1,3.7,3.5,6.7,6.1c-0.9,1.3-2.9,1.6-5.4,0.1c-4.7-2.7-5.4-9.7-1.4-14.3c4.3-4.9,15.4-10.3,21.8-7
		c4.1,2.1,6.4,7.6,6.4,15.2c0,6.8-9.6,12.3-16.9,13.2c-5.9,0.7-11.4-0.2-16.6-3.7c-4.7-3.2-10-5.8-15.4-7.9c-3.7-1.5-7-0.6-9.1,3.8
		c-1.1,2.3-4.3,3.7-6.8,5.2c-0.2,0.1-2.5-2.1-2.8-3.5c-0.9-3.9,1.6-6,4.8-7.4c1.4-0.6,2.8-1.1,4.2-1.6c-0.7-8.6-10-10.8-15-3.6
		c-5.3,7.6-4.3,10.9-3.2,18.5c1.6,9.5,13.4,13,24.5,13c11.5,0.1,26.2-2.5,37.3-5.4c32.6-8.7,49.7-14.1,82.1-23.3
		c8.1-2.3,16.7-4.2,25.1-4.5c11.3-0.5,29.1,6.7,29.3,18c0.1,6.4-0.8,10.1-6.4,13c-3.2,2.2-6.4,5.4-13.9,4.3
		c-6.5-0.8-9.1-5.4-6.4-9.8c4.8-7.8,3.2,1.1,13.9-6.5"/>
	<path class="st2" d="M14.4,49.9c2.1-7.6,32.2-7.5,39.2-5.4c29.8,8.8,59.8,14.7,89.6,23.3c9.5,2.8,19.1,6.2,29,7.1
		c5.9,0.5,19.1-0.2,24.7-2.2c14.4-8.7,13.8-25.9,4.1-39.1c-4.2-5.8-9.7-8.4-16.7-7.3c-6.8,1.1-9.5,6-10.3,10.5
		c-7.5,3.4-13.4,6.1-19.3,9c-2.7,1.3-4.9,3.6-7.5,4.9c-4.9,2.5-9.7,1.8-14.1-1.5c-3.7-2.7-5.2-6.5-4.7-11.1c0.6-5.1,4.2-7.8,9.6-7.1
		c5.8,0.8,10.3,5.5,8.8,10.1c-0.7,2.1-3.6,3.5-6.4,6.1c0.8,1.3,2.8,1.6,5.2,0.1c4.6-2.7,5.2-9.7,1.4-14.3c-4.2-4.9-14.9-10.3-21-7
		c-3.9,2.1-6.2,7.6-6.2,15.2c0,6.8,9.3,12.3,16.4,13.2c5.7,0.7,11-0.2,16-3.7c4.6-3.2,9.7-5.8,14.9-7.9c3.6-1.5,6.8-0.6,8.8,3.8
		c1.1,2.3,4.2,3.7,6.5,5.2c0.2,0.1,2.4-2.1,2.7-3.5c0.9-3.9-1.5-6-4.7-7.4c-1.3-0.6-2.7-1.1-4.1-1.6c0.7-8.6,9.7-10.8,14.6-3.6
		c5.2,7.6,4.1,10.9,3.1,18.5c-1.6,9.5-12.9,13-23.7,13c-11.2,0.1-25.4-2.5-36.1-5.4c-31.5-8.7-48-14.1-79.4-23.3
		c-7.9-2.3-16.1-4.2-24.3-4.5c-11-0.5-28.1,6.7-28.3,18c-0.1,6.4,0.8,10.1,6.2,13c3.1,2.2,6.2,5.4,13.4,4.3c6.3-0.8,8.8-5.4,6.2-9.8
		c-4.6-7.8-3.1,1.1-13.4-6.5"/>
	<g id="dots">
		<g id="left">
			<path class="st3" d="M110.6,44.2l-2.8-6.1c-1-2.3-3.4-5.2-4.9-6.1l-1-0.6c-0.4-0.2-0.7-0.3-0.9-0.2l-1.6,1.2
				c-0.2,0.1-0.2,0.4-0.2,0.7l0.1,0.8c0.2,1.6,2.4,5,4.4,6.8l5.3,4.8C110.9,47.1,111.6,46.5,110.6,44.2z"/>
			<path class="st3" d="M113.5,39.5l-0.1-4.8c-0.1-1.8-0.8-4.3-1.5-5.3l-0.5-0.7c-0.2-0.3-0.4-0.4-0.6-0.4l-1.4,0.3
				c-0.1,0-0.2,0.2-0.3,0.4l-0.1,0.5c-0.3,1.1,0.2,4,1,5.7l2.2,4.6C112.9,41.5,113.5,41.3,113.5,39.5z"/>
			<path class="st3" d="M104.4,45.5l-3.5-3.3c-1.3-1.2-3.6-2.5-4.8-2.7l-0.8-0.1c-0.3,0-0.6,0-0.7,0.1l-0.8,1.2
				c-0.1,0.1,0,0.3,0.1,0.5l0.3,0.5c0.6,1,2.9,2.7,4.7,3.3l4.8,1.7C105.4,47.3,105.7,46.7,104.4,45.5z"/>
		</g>
		<g id="right">
			<path class="st3" d="M309.7,45.1l5.5-3.9c2.1-1.5,4.5-4.3,5.1-5.9l0.4-1.1c0.2-0.5,0.2-0.8,0-0.9l-1.5-1.4
				c-0.1-0.1-0.4-0.1-0.7,0l-0.7,0.2c-1.6,0.5-4.5,3.3-5.9,5.6l-3.7,6.1C306.9,45.9,307.6,46.6,309.7,45.1z"/>
			<path class="st3" d="M314.8,47.1l4.7-1c1.8-0.4,4.1-1.6,4.9-2.5l0.6-0.6c0.2-0.3,0.3-0.5,0.3-0.6l-0.6-1.3
				c-0.1-0.1-0.2-0.2-0.5-0.2l-0.5,0c-1.2-0.1-3.8,0.9-5.4,2.1l-4.1,3C312.7,46.9,313,47.5,314.8,47.1z"/>
			<path class="st3" d="M307.2,39.3l2.6-4c1-1.5,1.8-4,1.7-5.3l0-0.8c0-0.3-0.1-0.6-0.3-0.6l-1.3-0.5c-0.1,0-0.3,0-0.5,0.2l-0.4,0.4
				c-0.9,0.8-2.1,3.4-2.3,5.3l-0.8,5C305.6,40.6,306.3,40.8,307.2,39.3z"/>
		</g>
		<g id="middle">
			<path class="st3" d="M209.6,27.6l2-9.6c0.7-3.6,0.5-9.1-0.5-11.4L210.4,5c-0.3-0.7-0.6-1-0.9-1h-3c-0.3,0-0.5,0.2-0.8,0.7l-0.5,1
				c-1.2,2.1-1.5,8-0.6,11.8l2.2,10.2C207.5,31.3,208.9,31.2,209.6,27.6z"/>
			<path class="st3" d="M217.1,24.6l3.9-5.8c1.5-2.2,2.8-5.8,2.8-7.6l0-1.2c0-0.5-0.1-0.8-0.3-0.9l-1.9-0.8c-0.2-0.1-0.4,0-0.7,0.2
				L220.1,9c-1.3,1.1-3.1,4.9-3.6,7.6l-1.3,7.3C214.7,26.5,215.6,26.8,217.1,24.6z"/>
			<path class="st3" d="M201.2,23.8l-1.3-6.9c-0.5-2.6-2.1-6.1-3.4-7.3l-0.9-0.8c-0.4-0.4-0.7-0.5-0.9-0.4l-1.9,0.8
				c-0.2,0.1-0.3,0.3-0.3,0.7l-0.1,0.8c-0.2,1.7,1.2,5.7,2.8,7.9l4.2,6.1C200.8,26.9,201.7,26.4,201.2,23.8z"/>
		</g>
	</g>
</g>
<g id="guitar" class="st0">
	<g>
		<path class="st1" d="M153.5,304c0.7-5.3,1.3-10.3,2.1-15.3c0.4-2.4,3.7-7.1,5.6-8.8c12.7-11.5,11.3-30.4-3.1-39.9
			c-0.5-0.3-0.9-0.7-0.8-1.7c1.6,1.2,3.4,2.2,4.7,3.7c1.6,1.7,3.3,2,5.5,1.4c4.8-1.4,9.8-2.6,14.6-4c2.9-0.9,5.3-0.3,7.3,1.7
			c2.2,2.2,2.2,4.8,0.9,7.4c-2.5,5.1-4.4,10.4-2.9,16c1.2,4.4,3.3,8.6,4.6,13c1.7,5.6,3.5,11.3,4.5,17c1.7,9.9-6.4,16.2-16.5,13.4
			c-5.1-1.4-10.2-2.9-15.4-3.9C161.5,303.6,158,304,153.5,304z"/>
		<path class="st1" d="M138.6,50c-0.1,1-0.1,2.1-0.2,4c-1.1-0.9-2.2-1.4-2.3-1.9c-0.2-4.5-0.2-9-0.1-13.5c0-0.5,1.2-0.9,1.3-1.4
			c0.1-1.2,0.2-2.6-0.3-3.7c-0.2-0.5-2-0.7-2.8-0.5c-1,0.3-1.7,1.3-2.6,2.4c3.8-0.2,4.3,1.7,4.2,4.3c-0.2,4.4,0,8.7,0,13.1
			c-0.3,0-0.6,0.1-0.9,0.1c-0.7-3-1-6.2-2.1-9c-1.1-3-3-5.7-4.7-8.9c-1.3-0.1-3.2-0.1-5.1-0.4c-1-0.2-2.3-0.8-2.7-1.5
			c-0.3-0.6,0.6-2.3,1.2-2.4c1.2-0.2,2.7,0.1,3.9,0.7c1,0.4,1.6,1.5,2.4,2.2c0.3-0.2,0.6-0.3,0.9-0.5c0-4.3,0-8.6,0-13.2
			c-3-0.3-6.1-0.6-10.3-1c1.5-1.7,2.2-3.2,3.3-3.5c0.9-0.3,2.3,0.8,3.5,1.3c1,0.4,1.9,1,3.9,2c-0.6-5.2-0.6-9.5-1.7-13.5
			c-0.3-1.3-3.4-1.9-5.3-2.6c-0.9-0.3-2.1-0.1-3.2-0.1c-1.5-1.8-2-3-1.6-3.5c0.7-0.9,3.8,0,9.4,2.6c-0.1-1.2,0-2.3-0.2-3.4
			c-2.6-5-1.3-6.9,5.7-8.8c1.9-0.5,3.5-1.9,5-3.2c2.9-2.4,6.8-2.9,10-0.9c3.4,2,6.6,4.5,10.1,6c2.5,1.1,2.8,2.4,2.4,4.5
			c-0.3,1.8-0.5,3.7-0.8,5.9c5.9-3.5,6.8-3.4,7.5,1c-2.7,0.3-5.3,0.7-8.2,1c-0.4,4.6-0.7,8.9-1.1,14.1c1.6-0.6,2.5-1.1,3.4-1.4
			c1.3-0.5,2.7-1.4,3.9-1.2c0.9,0.2,1.5,1.8,2.4,3.1c-3.6,0.4-6.5,0.8-9.5,1.2c0,4.5,0,9,0,14.4c1.5-1,2.2-1.7,3.1-2
			c1.1-0.4,2.4-0.7,3.6-0.6c0.6,0.1,1.3,1.1,1.6,1.9c0.2,0.5-0.4,1.7-0.7,1.7c-2.4,0.1-4.7,0.1-7.2,0.1c-1.4,3.3-3.5,7-4.6,10.9
			c-2.2,7.8-2,7.8-10.7,7.6C139.8,53.4,138.1,53.1,138.6,50z M135.9,21.8c0,0,0.4-0.7,0.4-1.4c-0.1-1.1-0.5-2.2-0.7-3.3
			c-1.4,0.5-2.9,1-4.3,1.5c0.5,0.6,0.8,1.4,1.4,1.8C133.7,21,134.9,21.4,135.9,21.8z M151,34.5c0.6,0.8,1.1,1.4,1.7,2
			c0.1,0.1,1.2-0.6,1.2-0.9c0-0.8-0.1-2.3-0.5-2.4c-1.2-0.3-2.6-0.3-3.8,0c-0.4,0.1-0.4,1.6-0.7,2.5c0.3,0.1,0.6,0.2,0.9,0.3
			C150.3,35.4,150.7,34.9,151,34.5z M151.9,19.1c0.3,0.4,0.9,1,1.4,1.6c0.4-0.6,1.2-1.3,1.1-1.9c-0.2-0.7-0.9-1.6-1.6-1.9
			c-0.6-0.3-1.7,0.1-2.4,0.4c-0.6,0.3-1.1,0.9-1.4,1.5c-0.1,0.3,0.6,1.2,0.8,1.2C150.5,19.9,151.1,19.5,151.9,19.1z M135.2,0.5
			c-1.8,0.8-3.2,1.5-4.6,2.1c1.4,0.9,2.7,1.8,4.1,2.7c0.3-0.2,0.6-0.5,0.9-0.7C135.6,3.4,135.4,2.3,135.2,0.5z M154.6,1
			c-0.5-0.3-1-0.5-1.6-0.8c-1.1,1.1-2.2,2.1-3.3,3.2c1.3,0.4,2.6,0.8,3.9,1.2C153.9,3.4,154.3,2.2,154.6,1z"/>
		<path class="st1" d="M131.7,237.6c0.7,1,1.4,2,1.9,2.7c0.1-0.4,0.2-1.5,0.3-2.6c1.3,0,2.4,0,3.7,0c0.1,1.2,0.3,2.2,0.4,3.3
			c0.1-1,0.2-2,0.3-3.3c2.4,0,4.8,0,7.4,0c0.1,1.1,0.3,2.2,0.4,3c0.1-0.7,0.1-1.8,0.3-3.1c1.8,0,3.4-0.1,5.1,0
			c1.4,0.2,3.9,0.5,4.1,1.1c0.4,1.6-0.3,3.4-0.7,5.7c6.3,4,9.6,10.3,9.3,18.4c-0.3,7.7-7,15.7-14.8,17.3c-1.6,0.3-3.4-0.1-5.1-0.3
			c-1.5-0.2-3-0.4-4.4-0.8c-0.8-0.2-1.5-0.8-2.2-1.2c0.8-0.5,1.6-1.3,2.4-1.3c4.1-0.1,8.3-0.1,11.7-0.1c-0.5-4.7-0.9-8.8-1.4-13.5
			c-0.2,1.4-0.3,2.2-0.5,4c-1.6-4.2-2.9-7.4-3.9-10c0,0-0.2,0.9-0.4,1.7c-0.3,0.1-0.6,0.3-0.9,0.4c-0.8-1.3-1.6-2.5-2.6-4.1
			c-2,0.7-3.9,0.5-4-2.1c-0.9,0.9-1.8,1.7-2.7,2.6c-0.7-1.5-1.5-2.9-2.2-4.5c-0.5,4.2-3.7,4.3-7.1,3.9c-0.9,1.2-1.6,2.3-2.4,3.4
			c-0.3-0.1-0.6-0.1-0.9-0.2c0-1.2-0.5-2.7,0.1-3.6c1.7-2.9,3.3-6,5.7-8.2c2.3-2,3.4-3.8,3.2-6.6c-0.1-0.7,0.2-1.3,0.4-2
			C131.8,237.5,131.7,237.6,131.7,237.6z"/>
		<path class="st1" d="M131.7,318.5c0,1.2,0,2.3,0,3.5c-1.3,0.3-2.5,0.5-3.7,0.8c0,0.2,0,0.4,0,0.6c1.1,0.1,2.2,0.2,3.9,0.3
			c-0.2,1.5-0.5,3-0.6,4.5c0,0.7,0.2,1.4,0.5,2c0.1,0.2,1.5-0.1,1.5-0.2c0.1-0.7-0.1-1.4-0.2-2.1c-0.3-1.4-0.7-2.7-1.1-4.3
			c1.9-0.1,3.2-0.2,5.2-0.3c-0.4,1.7-0.7,3-0.9,4.4c-0.1,0.8-0.1,1.6,0.1,2.3c0,0.1,1.5,0.1,1.5,0c0.2-0.7,0.2-1.4,0.1-2.1
			c-0.2-1.5-0.6-3-0.9-4.8c7.7-0.6,14.9-1.2,22-1.8c0-0.3,0-0.7,0-1c-4,0.2-8,0.5-12.1,0.7c-0.2-0.4-0.4-0.8-0.6-1.1
			c0.9-0.6,1.8-1.7,2.7-1.7c8.7-0.2,17.5-0.3,26.2-0.3c3.6,0,4.4,1,4.3,5.2c-0.1,2.6-0.4,4.6-4.2,5.2c-6.4,1.1-12.6,3-18.8,4.9
			c-9.1,2.8-18.1,2.7-27.2-0.1c-5.9-1.8-11.5-4.2-18-4c-3.4,0.2-3.3-2.8-3.5-5c-0.4-4.9,0.2-5.5,5.1-5.5
			C119.2,318.5,125.2,318.5,131.7,318.5z"/>
		<path class="st1" d="M137.9,168.1c0,0.7,0.2,1.4,0,2.1c-0.3,0.7-0.9,1.3-1.4,1.9c-0.6-0.7-1.7-1.3-1.8-2
			c-0.1-4.6-0.1-9.2,0.1-13.8c0-0.7,1.6-1.9,2.5-1.9c4.3-0.2,8.6,0,12.9-0.1c2.4-0.1,3.7,0.5,3.8,3.2c0.1,5,0.3,5-5.2,5.9
			c5.7,0.1,5.9,0.4,5.2,8.6c-2.6-0.2-5.2-0.4-7.9-0.6c-1.3-0.1-2.7-0.5-4-0.3C138.3,172,138.3,172.1,137.9,168.1z"/>
		<path class="st1" d="M145.2,138.6c-0.5-0.4-1.2-0.7-1.6-1.2c-0.5-0.7-1.1-1.7-1.1-2.5c0-0.4,1.3-0.9,2.1-1.1
			c0.6-0.2,1.4-0.1,2.1-0.1c6.2-0.3,9,3.3,6.8,8.9c-0.2,0.6-1,0.9-1.5,1.3c1.4,1.3,2.6,7.9,1.5,9.2c-0.4,0.5-1.2,0.7-1.9,0.8
			c-8,1.4-9.6,0.1-9.2-7.6c0-0.9,0-1.8,0.2-2.7c0.4-1.6,0.9-3.2,1.4-4.7C144.4,138.8,144.8,138.7,145.2,138.6z"/>
		<path class="st1" d="M148.4,76.7c0-1.9,0-3.8,0-5.9c2.5-0.4,4,0.1,3.8,2.7c-0.1,2.3-0.1,4.6,0,6.9c0.2,2.6-0.6,4.3-4,4.2
			c3.9,0,4.7,2,4.4,5c-0.2,1.4-0.1,2.8,0.1,4.1c0.4,3-0.7,4-4,4.1c-3,0.1-3.5-1-3.4-3.4c0.1-6.9,0-13.8,0.1-20.7
			c0-1,0.9-2.1,1.3-3.1c0.5,1,1.1,2,1.4,3.1c0.2,0.9,0,1.8,0,2.8C148.2,76.6,148.3,76.7,148.4,76.7z"/>
		<path class="st1" d="M145.5,189.2c0,6.8,0,13.2,0,20c-2.2,0-4.5,0-7.3,0c0-3.9-0.2-7.7,0.2-11.5c0.1-0.8,2.2-1.5,3-1.9
			c-0.4,0-1.6-0.1-2.9-0.2c0-2.1,0-4.1,0-6.3C140.8,189.2,143.3,189.2,145.5,189.2z"/>
		<path class="st1" d="M146.1,180.4c0-1.8,0-3.2,0-4.5c-0.4,4.3-0.4,4.3-3.6,4.3c-0.1-1.4-0.2-2.9-0.3-4c0,0.7,0.1,1.8-0.2,2.7
			c-0.3,0.7-1.3,1.4-2,1.4c-0.6,0-1.6-0.9-1.8-1.6c-0.3-1.3-0.4-2.8,0-4.1c0.3-0.9,1.5-2,2.4-2.1c3.3-0.3,6.7,0,10-0.2
			c3.8-0.2,3.4,2.2,3.6,4.6c0.2,2.6-0.9,3.6-3.5,3.4C149.4,180.3,148,180.4,146.1,180.4z"/>
		<path class="st1" d="M149.2,122.9c2.8-0.6,4.3,0.1,4.2,2.8c-0.2,8.4,1.6,7.5-7.7,7.5c-0.9,0-1.9,0-3.4,0c0-3.1-0.1-6,0.1-9
			c0-0.6,0.9-1.1,1.3-1.6c0.4,0.6,1.2,1.1,1.3,1.8c0.2,1.4,0.1,2.7,0.3,4.1c0-1.4-0.2-2.8,0.1-4.2c0.1-0.6,1.1-1.1,1.7-1.7
			c0.5,0.6,1.5,1.2,1.6,1.8c0.2,2,0.1,4.1,0.5,6.2C149.2,128,149.2,125.4,149.2,122.9z"/>
		<path class="st1" d="M146,180.8c2.3,0,4-0.1,5.8,0c2,0.1,2.7,1.1,2.6,3c-0.1,2.7-0.2,5.4,0.1,8c0.4,3.1-0.9,4.2-4.1,3.9
			c-1.3-0.1-2.6,0-4.2,0c0-2.2,0-4.2,0-6.8c1.3,0.3,2.4,0.6,3.8,1c1.3-0.8-2-4.1,1.7-4.7c-0.3-0.5-0.5-1.1-0.8-1.6
			c-0.6,0.3-1.4,0.5-1.6,0.9c-0.3,0.6,0.2,1.4,0,2c-0.3,0.7-1,1.3-1.5,1.9c-0.6-0.7-1.7-1.3-1.8-2C145.8,184.7,146,183,146,180.8z"
			/>
		<path class="st1" d="M138.4,70.6c0.3,13.1-0.1,26.2,0.1,39.4c-0.4,0.2-0.8,0.4-1.2,0.6c-0.6-0.9-1.8-1.8-1.8-2.7
			c0-7.2,0.2-14.5,0.4-21.7c0.1-4,0.1-8,0.2-12.1c0-1.2,0.4-2.4,0.7-3.6C137.3,70.6,137.8,70.6,138.4,70.6z"/>
		<path class="st1" d="M138.8,151.3c0-5-0.1-10.1,0.1-15.1c0-0.8,1.1-1.6,1.7-2.5c0.5,0.8,1.5,1.5,1.5,2.3c0.2,5,0.1,10,0.2,15.1
			c0,2.1-0.7,3.2-3.2,2.8c-2-0.3-4.7,0.9-4.3-2.7c0.2-1.7,0-3.5,0.3-5.1c0.1-0.6,1.2-1.5,1.5-1.4c0.7,0.2,1.7,1,1.8,1.6
			c0.2,1.7,0.1,3.4,0.1,5.1C138.5,151.4,138.6,151.4,138.8,151.3z"/>
		<path class="st1" d="M152.8,110c-2.1,0.1-4,0.4-5.8,0.2c-0.6-0.1-1.5-1.3-1.6-2.1c-0.2-1.8-0.1-3.7-0.1-5.5c0-4.5,0.5-5,5.2-4.2
			c0.9,0.2,2.2,1.4,2.3,2.3C153,103.7,152.8,106.6,152.8,110z"/>
		<path class="st1" d="M149.1,121.7c0-2.6,0-5.2,0-7.8c-0.2,0-0.3,0-0.5,0c0,2.6,0,5.2,0,8c-2,0-3.8,0-6.3,0
			c0.3-1.5,0.6-2.8,0.9-4.2c0.7,0.3,1.5,0.7,2.1,0.9c0-0.9,0.2-2.4,0-3.8c-0.5-3.4,1-4.4,4.4-4.2c2.5,0.2,3.5,1,3.3,3.3
			c-0.1,1.6-0.1,3.2,0.1,4.8C153.6,121.8,152.1,122.4,149.1,121.7z"/>
		<path class="st1" d="M148.4,67c0-3.5,0-7.1,0-10.6c2.6-0.6,3.7,0.2,3.6,2.5c-0.1,2.3-0.2,4.6,0.1,6.9c0.3,3.2-0.5,4.9-4.3,4.3
			c-0.6-0.1-1.2,0-2.5,0c0-4.3,0-8.7,0.1-13c0-0.4,0.9-0.7,1.4-1.1c0.4,0.6,1.1,1.3,1.1,1.9c0.1,3,0.1,6,0.1,9
			C148.2,67,148.3,67,148.4,67z"/>
		<path class="st1" d="M136.1,62.5c0-1.3,0-2.5,0-3.8c0.1-1.8-0.5-3.8,3-2.1c2.7,1.3,3,0.7,3,3.9c0,2.7,0.1,5.3-0.1,7.9
			c-0.1,0.6-1.4,1.8-1.8,1.6c-0.9-0.2-1.7-1.5-2.5,0.1c-0.5-0.6-1.4-1.2-1.5-1.8C136,66.4,136.1,64.4,136.1,62.5
			C136.1,62.5,136.1,62.5,136.1,62.5z"/>
		<path class="st1" d="M139,84.7c0-3.8-0.1-7.6,0.1-11.4c0-0.9,1.1-1.8,1.6-2.7c0.5,0.9,1.4,1.7,1.4,2.6c0.1,7.3,0.1,14.7,0,22
			c0,0.9-1,1.7-1.5,2.6c-0.6-0.8-1.6-1.6-1.6-2.5C138.8,91.8,138.9,88.3,139,84.7C138.9,84.7,138.9,84.7,139,84.7z"/>
		<path class="st1" d="M145.8,232.1c-2.8,0-5.1,0-7.7,0c0-3-0.1-5.8,0.1-8.6c0-0.6,1.2-1.4,2-1.7c1-0.3,2.2-0.3,3.1,0
			c1,0.4,2.3,1.3,2.4,2C146,226.4,145.8,229.1,145.8,232.1z"/>
		<path class="st1" d="M137.7,209.1c-2.3,0.5-4,0.7-3.9-2c0.2-5.4,0.3-10.8,0.6-16.2c0-0.7,1.1-1.3,1.7-2c0.5,0.6,1.5,1.2,1.5,1.8
			C137.8,196.8,137.7,203,137.7,209.1z"/>
		<path class="st1" d="M138.4,121.6c0,3.1,0.1,6.2-0.1,9.3c-0.1,0.8-1.1,1.6-1.7,2.4c-0.5-0.8-1.3-1.6-1.4-2.4c-0.1-6,0-12,0.2-17.9
			c0-0.7,1-1.5,1.5-2.2c0.5,0.7,1.4,1.5,1.4,2.3C138.6,115.9,138.5,118.8,138.4,121.6C138.4,121.6,138.4,121.6,138.4,121.6z"/>
		<path class="st1" d="M133.7,216.1c1.6,0,2.5,0,3.5,0c0.2,0.4,0.4,0.7,0.4,1c0.1,4.3,0.2,8.6,0,12.9c0,0.8-1.2,1.5-1.8,2.3
			c-0.7-0.7-2.1-1.3-2.1-2C133.6,225.6,133.7,221,133.7,216.1z"/>
		<path class="st1" d="M142,181.1c4.6-1.4,3.9,1.8,3.8,4.3c0,1.4,0.4,3.3-2.1,3.3c-5.8,0-5.7,0-5.7-4.2
			C138.1,181.8,138.4,179.8,142,181.1z"/>
		<path class="st1" d="M150.5,209.3c-4.4-0.1-4.9-0.7-4.4-4.4c0.4-3.5,3.3-1.6,4.8-1.8c3.5-0.5,4.7,0.8,4.3,4
			C154.7,210.4,151.9,209,150.5,209.3z"/>
		<path class="st1" d="M146.6,209.3c2.7,2.3,7.7-2.6,8.6,3.4c0.4,2.8-1.5,3.5-7.1,3C145.8,215.5,145.6,214.7,146.6,209.3z"/>
		<path class="st1" d="M145.6,232.3c0.6-2,0.8-4.6,1.5-4.7c2.5-0.4,5.2-0.1,7.7,0.2c0.3,0,0.8,1.9,0.5,2.7c-0.3,0.7-1.4,1.6-2.3,1.6
			C150.9,232.4,148.8,232.3,145.6,232.3z"/>
		<path class="st1" d="M145.7,226.7c0.5-1.9,0.7-4.5,1.3-4.6c2.5-0.4,5.2-0.1,7.7,0.2c0.3,0,0.7,1.9,0.5,2.8
			c-0.1,0.6-1.1,1.5-1.8,1.6C151.2,226.8,148.9,226.7,145.7,226.7z"/>
		<path class="st1" d="M146.2,221.2c0-1.8,0-3.2,0-4.9c2.9,0,5.8,0,8.7,0c0.7,4.8,0.5,5-4.2,4.9
			C149.3,221.2,147.9,221.2,146.2,221.2z"/>
		<path class="st1" d="M143.7,90.4c-0.4-0.9-1.2-1.9-1.3-2.8c-0.1-4.8-0.1-9.6,0-14.4c0-0.9,1-1.7,1.5-2.5c0.4,0.8,1.1,1.6,1.1,2.5
			c0.1,5.6,0.1,11.2,0.1,16.8C144.7,90,144.2,90.2,143.7,90.4z"/>
		<path class="st1" d="M138.4,209.9c2.4,0,4.7,0,7.2,0c0,1.9,0,3.6,0,5.6c-2.4,0-4.6,0-7.2,0C138.4,213.8,138.4,212,138.4,209.9z"/>
		<path class="st1" d="M155,232.9c1.3,3.2,0.1,4.4-3.2,4.3c-1.8-0.1-3.6,0-5.6,0c0-1.5,0-2.8,0-4.3
			C149.2,232.9,152.1,232.9,155,232.9z"/>
		<path class="st1" d="M119.5,246.9c-5.7,9.6-5.8,19.1-0.6,29c-1.1-2.2-2.4-4.2-3.2-6.5c-2.2-6.6-1.9-13.1,1.2-19.4
			C117.5,248.8,118.7,248,119.5,246.9L119.5,246.9z"/>
		<path class="st1" d="M138.3,216.1c2.5,0,4.8,0,7.3,0c0,1.6,0,3.1,0,4.9c-2.4,0-4.7,0-7.3,0C138.3,219.5,138.3,218,138.3,216.1z"/>
		<path class="st1" d="M138.9,109.9c0-3.3-0.1-6.6,0.1-9.9c0-0.6,1.1-1.1,1.7-1.7c0.5,0.5,1.4,1.1,1.4,1.6c0.1,3,0.2,6-0.1,8.9
			c-0.1,0.7-1.4,1.2-2.2,1.8C139.5,110.4,139.2,110.2,138.9,109.9z"/>
		<path class="st1" d="M142.2,116.6c0,1.1,0.2,2.3-0.1,3.4c-0.2,0.8-1.1,1.4-1.7,2.1c-0.5-0.6-1.4-1.2-1.5-1.9
			c-0.2-2.5-0.2-5.1,0-7.6c0-0.7,0.9-1.3,1.4-1.9c0.6,0.7,1.5,1.3,1.7,2.1C142.4,114.1,142.1,115.4,142.2,116.6
			C142.2,116.6,142.2,116.6,142.2,116.6z"/>
		<path class="st1" d="M145.1,63c0,1.8,0.1,3.7-0.1,5.5c-0.1,0.6-0.9,1.1-1.3,1.6c-0.4-0.6-1.2-1.1-1.3-1.7c-0.1-3.7-0.1-7.4,0-11.1
			c0-0.5,0.7-1,1.1-1.5c0.5,0.5,1.3,1,1.4,1.5C145.2,59.3,145.1,61.2,145.1,63C145.1,63,145.1,63,145.1,63z"/>
		<path class="st1" d="M155.8,202.3c-2.7,0.1-4.2,0.2-6.3,0.3c0.3-2.3,0.4-4.3,0.9-6.2c0.1-0.3,2.6-0.4,2.9,0
			C154.2,198,154.8,199.8,155.8,202.3z"/>
		<path class="st1" d="M138.2,127.4c0.7-1.6,1.6-4.7,2.1-4.6c3.3,0.4,1.4,3.1,1.8,4.9c0.3,1.2,0.2,2.5-0.1,3.8
			c-0.2,0.7-1.1,1.2-1.6,1.8c-0.5-0.6-1.4-1.2-1.6-1.8c-0.3-1.2-0.1-2.5-0.1-3.8C138.6,127.6,138.4,127.5,138.2,127.4z"/>
		<path class="st1" d="M139.4,138.9c-1,1.9-1.9,3.5-2.8,5c-0.5-1.7-1.4-3.4-1.3-5.1c0-1.7,1-3.3,1.6-5
			C137.6,135.4,138.4,136.9,139.4,138.9z"/>
		<path class="st1" d="M145.7,232.8c0,1.5,0,2.7,0,4.2c-2.5,0-4.8,0-7.4,0c0-1.4,0-2.7,0-4.2C140.7,232.8,143,232.8,145.7,232.8z"/>
		<path class="st1" d="M139.1,321.7c-0.3-0.3-1-1-1.7-1.7c0.9-0.7,1.6-1.7,2.6-2c1.3-0.3,2.9-0.2,4.2,0c0.8,0.2,1.5,1,2.2,1.6
			c-0.6,0.5-1.2,1.4-1.9,1.6C143.1,321.5,141.5,321.5,139.1,321.7z"/>
		<path class="st1" d="M145.1,104.5c0,1.5,0.1,3-0.1,4.4c-0.1,0.5-0.8,0.9-1.2,1.3c-0.4-0.4-1.3-0.9-1.3-1.3c-0.1-3.1-0.1-6.2,0-9.2
			c0-0.5,0.9-1,1.4-1.5c0.4,0.5,1.1,0.9,1.1,1.4C145.2,101.3,145.1,102.9,145.1,104.5C145.1,104.5,145.1,104.5,145.1,104.5z"/>
		<path class="st1" d="M119.6,247c2.4-2.7,4.5-5.7,7.2-8.1c2.1-1.8,5.7-2.2,5.3-6.3c1.8,2.1,1.4,3.6-0.3,5c0,0,0.1-0.1,0.1-0.1
			C126.7,239.5,122.7,242.6,119.6,247C119.5,246.9,119.6,247,119.6,247z"/>
		<path class="st1" d="M137.8,176.3c0,0.9,0.2,1.9-0.1,2.7c-0.2,0.6-1,1.3-1.6,1.3c-0.5,0-1.5-0.8-1.5-1.3c-0.2-1.3-0.3-2.8,0-4.1
			c0.2-0.9,1.1-1.6,1.6-2.5c0.5,0.8,1.1,1.6,1.6,2.5C138,175.3,137.8,175.8,137.8,176.3C137.8,176.3,137.8,176.3,137.8,176.3z"/>
		<path class="st1" d="M132.1,231.7c0-5.1,0-10.2,0-15.3c0.3,0,0.6,0,0.9,0c0,5.1,0,10.2,0,15.3
			C132.7,231.7,132.4,231.7,132.1,231.7z"/>
		<path class="st1" d="M157.7,402.4c-8.5,0-17,0-25.5,0c0-0.1,0-0.2,0-0.4c8.5,0,17,0,25.5,0C157.7,402.1,157.7,402.2,157.7,402.4z"
			/>
		<path class="st1" d="M138.2,209.7c-0.6,2.4-1,4.1-1.5,5.8c-0.1,0.2-1.9,0.2-1.9,0.1c-0.5-1.7-0.8-3.5-1.3-5.5
			C135.1,209.9,136.1,209.8,138.2,209.7z"/>
		<path class="st1" d="M134.3,83.4c0-3.9,0-7.9,0-11.8c0.2,0,0.4,0,0.6,0c0,3.9,0,7.9,0,11.8C134.7,83.4,134.5,83.4,134.3,83.4z"/>
		<path class="st1" d="M145,199.5c1.3-1.5,2.1-2.4,2.9-3.4c0.6,1.1,1.5,2.3,1.6,3.4c0,1-1,2.1-1.5,3.1
			C147.1,201.7,146.3,200.8,145,199.5z"/>
		<path class="st1" d="M132.5,322.2c-0.1-2-1-3.9,1.9-4c0.8,0,2.3,0.9,2.4,1.6C137.4,322.8,134.8,322,132.5,322.2z"/>
		<path class="st1" d="M133.1,232.1c2.3,0.7,3.8,0.7,4.3,1.5c0.5,0.7,0.1,2.2-0.4,3.1c-0.2,0.4-2.1,0.5-2.2,0.3
			C134.2,235.8,133.9,234.5,133.1,232.1z"/>
		<path class="st1" d="M133.7,121.6c0-3.4,0-6.7,0-10.1c0.2,0,0.5,0,0.7,0c0,3.4,0,6.7,0,10.1C134.1,121.7,133.9,121.6,133.7,121.6z
			"/>
		<path class="st1" d="M133.6,132.6c0-3.1,0-6.1,0-9.2c0.2,0,0.4,0,0.6,0c0,3,0,6.1,0,9.1C134,132.6,133.8,132.6,133.6,132.6z"/>
		<path class="st4" d="M135.9,21.8c-1.1-0.5-2.2-0.8-3.2-1.5c-0.6-0.4-1-1.2-1.4-1.8c1.4-0.5,2.9-1,4.3-1.5c0.3,1.1,0.7,2.2,0.7,3.3
			C136.4,21.1,135.9,21.9,135.9,21.8z"/>
		<path class="st4" d="M151,34.5c-0.3,0.4-0.8,0.9-1.2,1.4c-0.3-0.1-0.6-0.2-0.9-0.3c0.2-0.9,0.2-2.3,0.7-2.5c1.2-0.4,2.6-0.3,3.8,0
			c0.4,0.1,0.6,1.6,0.5,2.4c0,0.3-1.2,1-1.2,0.9C152.1,36,151.6,35.3,151,34.5z"/>
		<path class="st4" d="M151.9,19.1c-0.8,0.4-1.4,0.8-2,0.9c-0.2,0-0.9-0.9-0.8-1.2c0.3-0.6,0.8-1.2,1.4-1.5c0.7-0.3,1.7-0.7,2.4-0.4
			c0.7,0.3,1.4,1.2,1.6,1.9c0.1,0.5-0.7,1.2-1.1,1.9C152.7,20.1,152.2,19.5,151.9,19.1z"/>
		<path class="st4" d="M135.2,0.5c0.2,1.8,0.4,2.9,0.5,4.1c-0.3,0.2-0.6,0.5-0.9,0.7c-1.4-0.9-2.7-1.8-4.1-2.7
			C132,2,133.4,1.4,135.2,0.5z"/>
		<path class="st4" d="M154.6,1c-0.3,1.2-0.7,2.4-1,3.5c-1.3-0.4-2.6-0.8-3.9-1.2c1.1-1.1,2.2-2.1,3.3-3.2
			C153.6,0.5,154.1,0.8,154.6,1z"/>
	</g>
	<g id="guitar_body" class="st1">
		<path class="st5" d="M121.2,62h20.6c0.7,0,1.4,0.5,1.4,1l1.2,135.2c0,2.8,0.7,5.6,2.1,8.2l0.3,0.6c0.4,0.7-0.3,1.4-1.2,1.4
			l-25.2,0.5l-2,0c-1,0-1.7-0.8-1.2-1.5l0,0c1.6-2.4,2.4-5.1,2.4-7.8L119.9,63C119.9,62.4,120.5,62,121.2,62z"/>
		<path class="st5" d="M131.2,58.2h5.9c2.4,0,4.5-1.5,5.3-3.6l5.1-14.5l2.8-40.8c0.1-1.5-0.6-2.9-1.9-3.7c-3.1-2-8.7-5.6-9.5-6.3
			c-2.8-2.7-8.6,0-8.6,0l-5.7,4.1l-3.9,2.4c-1.5,0.9-2.3,2.5-2.2,4.1l1.4,41.5l5.9,13.4C126.7,56.8,128.8,58.2,131.2,58.2z"/>
		<path class="st5" d="M149.2,9.3l6.7-1.4c1.1-0.2,1.7-1.4,1.2-2.3l-0.3-0.6c-0.4-0.7-1.2-1-2-0.7l-6.5,2.8L149.2,9.3z"/>
		<path class="st5" d="M147.8,24.1l6.7-1.4c1.1-0.2,1.7-1.4,1.2-2.3l-0.3-0.6c-0.4-0.7-1.2-1-2-0.7L147,22L147.8,24.1z"/>
		<path class="st5" d="M146.4,40.5l6.7-1.4c1.1-0.2,1.7-1.4,1.2-2.3l-0.3-0.6c-0.4-0.7-1.2-1-2-0.7l-6.5,2.8L146.4,40.5z"/>
		<path class="st5" d="M120.1,7.2l-5.8-3.5c-0.9-0.6-2.2-0.2-2.6,0.9l-0.2,0.6c-0.3,0.7,0.1,1.5,0.9,1.8l6.7,2.3L120.1,7.2z"/>
		<path class="st5" d="M120.2,23.8l-5.8-3.5c-0.9-0.6-2.2-0.2-2.6,0.9l-0.2,0.6c-0.3,0.7,0.1,1.5,0.9,1.8l6.7,2.3L120.2,23.8z"/>
		<path class="st5" d="M121.6,38.8l-5.8-3.5c-0.9-0.6-2.2-0.2-2.6,0.9l-0.2,0.6c-0.3,0.7,0.1,1.5,0.9,1.8l6.7,2.3L121.6,38.8z"/>
		<path class="st5" d="M122.2,207.5c-20.1,0.7-25.1,2-29.9,4.1c-4.4,1.9-12.1,5.4-16.3,13.2c-2.8,5.1-2.8,9.6-2.8,16.7
			c0,12.1,3.1,15.3,3.4,27.5c0,1.3,0.2,7.8-1.2,15.5c-2.1,11.5-6,17.8-12,30.2c-7.9,16.4-11.9,24.6-13,31.1
			c-0.7,4.4-4,24.4,9.3,40.1c8.5,10.2,20.1,14,25.6,15.8c2.1,0.7,6.7,2.1,22.2,3.5c11.7,1.1,25.9,2.3,45.3,1.2
			c14.8-0.8,22.4-1.3,31.8-4.7c5.3-1.9,13.5-4.9,21.3-12.3c2.4-2.3,8.7-8.3,12-17.9c4.7-13.3,0.9-25.3-2.5-36
			c-1.8-5.7-5.6-13.8-13.3-29.9c-4.2-8.8-7.4-15.2-7.7-24.6c0-1.6,0.4-5.4,1.2-12.9c1.2-10.5,2.1-14.7,2.8-24c0.4-6,0.7-9,0.3-10.8
			c-2.2-10.9-11.8-17.3-14.2-18.7c-3.8-2.3-8.1-4-18.8-5.6C157.2,207.7,145.9,206.6,122.2,207.5z"/>
		<path class="st5" d="M119.3,207.5c-20.1,0.7-25.1,2-29.9,4.1c-4.4,1.9-12.1,5.4-16.3,13.2c-2.8,5.1-2.8,9.6-2.8,16.7
			c0,12.1,3.1,15.3,3.4,27.5c0,1.3,0.2,7.8-1.2,15.5c-2.1,11.5-6,17.8-12,30.2c-7.9,16.4-11.9,24.6-13,31.1
			c-0.7,4.4-4,24.4,9.3,40.1c8.5,10.2,20.1,14,25.6,15.8c2.1,0.7,6.7,2.1,22.2,3.5c11.7,1.1,25.9,2.3,45.3,1.2
			c14.8-0.8,22.4-1.3,31.8-4.7c5.3-1.9,13.5-4.9,21.3-12.3c2.4-2.3,8.7-8.3,12-17.9c4.7-13.3,0.9-25.3-2.5-36
			c-1.8-5.7-5.6-13.8-13.3-29.9c-4.2-8.8-7.4-15.2-7.7-24.6c0-1.6,0.4-5.4,1.2-12.9c1.2-10.5,2.1-14.7,2.8-24c0.4-6,0.7-9,0.3-10.8
			c-2.2-10.9-11.8-17.3-14.2-18.7c-3.8-2.3-8.1-4-18.8-5.6C154.3,207.7,143,206.6,119.3,207.5z"/>
	</g>
	<g id="Layer_15" class="st1">
		<ellipse id="sound_hole_1_" cx="134" cy="265.8" rx="26.5" ry="31"/>
		<g id="knobs">
			<ellipse class="st6" cx="124.6" cy="10.5" rx="2.9" ry="2.7"/>
			<ellipse class="st6" cx="126.5" cy="38.3" rx="2.9" ry="2.7"/>
			<ellipse class="st6" cx="140.9" cy="9.7" rx="2.9" ry="2.7"/>
			<ellipse class="st6" cx="140.9" cy="38.3" rx="2.9" ry="2.7"/>
			<ellipse class="st6" cx="140.9" cy="24.7" rx="2.9" ry="2.7"/>
			<ellipse class="st6" cx="126.5" cy="24.7" rx="2.9" ry="2.7"/>
		</g>
		<g id="strings">
			<line class="st7" x1="137.2" y1="239.5" x2="137.2" y2="300.2"/>
			<line class="st7" x1="134.5" y1="237.6" x2="134.5" y2="298.4"/>
			<line class="st7" x1="131.7" y1="239.2" x2="131.7" y2="299.9"/>
			<line class="st7" x1="128.8" y1="237.6" x2="128.8" y2="298.4"/>
			<line class="st7" x1="126" y1="237.6" x2="126" y2="298.4"/>
			<line class="st7" x1="123.1" y1="237.6" x2="123.1" y2="298.4"/>
		</g>
	</g>
	<ellipse class="st8" cx="138" cy="263.8" rx="33.7" ry="30.6"/>
</g>
<g id="old_design">
	<g id="Layer_2" class="st0">
		<g class="st1">
			<path d="M35.2,135.7v-1.1c0,0,6-0.9,6-5.9V83.8c0-7.9-6-8.4-6-8.4v-1.1h23.9l26.8,39.8V83.8c0-8.8-5.8-8.4-5.8-8.4v-1.1h15.2v1.2
				c-0.9,0-6,0.7-6,8.3v51.9H79.3L44.7,85.7V127c0,7.6,6.7,7.6,6.7,7.6v1.1H35.2z"/>
			<path d="M96.6,135.7v-1.1c0,0,6,0.3,6-6.5V82c0-6.3-6-6.5-6-6.5v-1.2h52.2l0.4,14.2h-1.3c-0.4-7.1-2.3-10.5-6.7-11.2
				c-1.1-0.2-2.8-0.2-4.8-0.2h-16.1v25.8h14.5c4.9,0,8.3-1.5,8.9-8h1c-0.4,6.6-0.4,13,0,19.5h-1.1c-0.8-6.7-3.5-8.3-8.8-8.3h-14.5
				v19.3c0,2.5,0.3,4.2,0.5,5.2c0.4,1,1,1.7,2,2c1,0.3,2.6,0.5,5.2,0.5h11.4c6.7,0,10.4-4.6,11.3-12.5h1.5l-1.3,15.2H96.6z"/>
			<path d="M153.6,75.5v-1.1h33.1v1.1c-6.3,0.8-7.3,4.2-3,12.5l13.2,27c4.3-9.7,8.4-17.9,12.4-27.7c3-7.1,2.3-11.6-3.3-11.7v-1.1
				h17.5v1.1c-4.5,0-7.8,6-10.2,11.4l-21.8,48.8h-3.3l-24.4-48.2C160.8,81.7,158.1,75.1,153.6,75.5z"/>
			<path d="M222.6,135.7v-1.1c0,0,6,0.3,6-6.5V82c0-6.3-6-6.5-6-6.5v-1.2h52.2l0.4,14.2h-1.3c-0.4-7.1-2.3-10.5-6.7-11.2
				c-1.1-0.2-2.8-0.2-4.8-0.2h-16.1v25.8h14.5c4.9,0,8.3-1.5,8.9-8h1c-0.4,6.6-0.4,13,0,19.5h-1.1c-0.8-6.7-3.5-8.3-8.8-8.3h-14.5
				v19.3c0,2.5,0.3,4.2,0.5,5.2c0.4,1,1,1.7,2,2c1,0.3,2.6,0.5,5.2,0.5h11.4c6.7,0,10.4-4.6,11.3-12.5h1.5l-1.3,15.2H222.6z"/>
			<path d="M384,138.4c0,0-5.9,13.3-22.1,13.3c-16.1,0-24.9-17.6-29.4-28c-1.9-4.4-3.9-10.4-9.6-13.1c-3.3,0.3-6.4,0.1-6.4,0.1v15.9
				c0,7.2,6.5,8.3,6.5,8.3v0.9h-30.4v-1.1c0,0,6-0.2,6-8.3v-15.6c-7.2,0.2-10.4,2.6-10.4,6.6c0,3.3,1.9,6.3,5.9,6.8
				c-2.3,3.5-18.2,4.5-18.2-5.9c0-10.3,15.5-10.5,22.8-10.5h17.9c2.6,0,4.8-0.1,6.4-0.5c7.2-1.2,10.7-7,10.7-15
				c0-10.6-7.2-18.7-17.1-15.2v28.1h-17.9V84c0-8-6-8.3-6-8.3v-1.2h31.9c6.2,0,11.3,0.6,15.2,1.8c7.8,2.4,11.8,7.6,11.8,15.4
				c0,7.6-4.4,13.6-12.4,16.2c-3.8,1.1-7.3,1.6-8.4,1.8C355.1,113.3,350.3,148.1,384,138.4z"/>
		</g>
		<g class="st1">
			<path d="M117.7,215.7c0,0,6.5-0.6,6.5-7v-50c0-6.7-6.5-7-6.5-7v-1.3c9.7,0,21.1,0,31,0c6.7,0,12.5,0.4,17.4,1.7
				c16.1,4.7,22.4,14.9,22.4,31c0,15.7-7.6,26.6-23.8,31.4c-5.4,1.5-11.7,2.3-18.8,2.3h-28.3V215.7z M145,211.1
				c1.9,2.9,7.9,2.1,11.8,0.1c2.2-1.1,4.2-2.8,5.8-5.3c4.2-5.6,5.4-14.7,5.4-21.8c0-10.4-2.6-22.8-11.2-28.2
				c-3.3-2.1-6.4-2.8-10.9-2.8c-1.6,0-2.4,0.6-2.4,2.6V205C143.7,207.8,144.1,209.9,145,211.1z"/>
			<path d="M194,151.6v-1.2h32.6v1.2c-2.7,0-6.7,2.5-6.7,7.1v49.7c0,5.9,4.9,7.1,6.7,7.1v1.2h-32.5v-1.2c1.8,0,6.7-1.1,6.7-7.1
				v-49.7C200.8,152.9,196.2,151.6,194,151.6z"/>
			<path d="M230.7,216.8v-1.2c0,0,6.5,0.4,6.5-7v-49.9c0-6.9-6.5-7-6.5-7v-1.3h56.5l0.4,15.3h-1.4c-0.4-7.7-2.4-11.4-7.2-12.1
				c-1.2-0.2-3-0.2-5.2-0.2h-17.4v27.9h15.6c5.3,0,9-1.6,9.7-8.7h1.1c-0.4,7.1-0.4,14.1,0,21.1h-1.2c-0.8-7.2-3.8-8.9-9.5-8.9h-15.6
				v20.8c0,2.7,0.3,4.5,0.5,5.6c0.4,1.1,1.1,1.8,2.2,2.2c1.1,0.4,2.9,0.5,5.6,0.5h12.4c7.2,0,11.3-5,12.2-13.5h1.6l-1.4,16.4H230.7z
				"/>
		</g>
		<g class="st1">
			<path d="M13,230.5v-1.4h40.5v1.4c-5,0.5-6.7,4.4-0.8,15l11.4,20.4L77,244c5.5-8.9,6.7-13.1,0.5-13.7v-1.2h17.6v1.2
				c-4.4,0-9.1,7.2-12.3,12.7l-13.2,22.3c-2.9,5.7-5,9.7-5.2,16.9l-0.2,8.5c-0.2,10.9,6.5,11.1,6.5,11.1v1.4H37.3v-1.4
				c0,0,6.7,0,7.1-9.2c0,0,0.3-4.6,0.2-10.9c-0.2-6.7-1.5-10.4-4.7-15.9l-13.2-21.6C23.3,238.5,18.3,230.5,13,230.5z"/>
			<path d="M92,266.5c0-26.6,17.4-37.9,38.2-37.9c20.6,0,37.6,13.5,37.8,37c0.2,23.5-15.3,36.5-35.9,36.9
				C111.4,303.2,92,293.3,92,266.5z M129.2,232.2c-13.2,0-14.4,22.5-14,33.8c0.2,11.2,2.7,33.1,16.5,32.9c13.5-0.3,14-22,13.5-33.1
				C144.7,254.6,142.5,232.4,129.2,232.2z"/>
			<path d="M172.6,230.6v-1.5h38.4v1.4c0,0-8.6,1.4-8.6,10.1V278c0,13,3.9,20.5,16.7,20.5c12.1,0,15.5-8.5,15.5-20.6v-37.3
				c0-10.1-8.5-10.1-8.5-10.1v-1.4h21.2v1.4c0,0-8.2,0.5-8.2,10.2v36.3c0,18.2-9.1,26.1-24.7,26.1c-18.2,0-33.5-5.2-33.5-26.1v-36.3
				C180.8,231,172.6,230.6,172.6,230.6z"/>
			<path d="M253.3,303.2v-1.4c0,0,7.3-1.1,7.3-7.1v-54.1c0-9.6-7.3-10.1-7.3-10.1v-1.4h28.8l32.3,48v-36.5c0-10.7-7-10.1-7-10.1
				v-1.4h18.4v1.5c-1.1,0-7.3,0.8-7.3,10v62.6h-12.1l-41.7-60.4v49.9c0,9.2,8,9.2,8,9.2v1.4H253.3z"/>
			<path class="st9" d="M399.8,229.1v23.8h-1.2c-2.6-11.6-8.6-19.5-21.1-20.4c-5-0.1-9.9,1.1-13.8,4c-7.9,6.1-10.6,19.1-10.6,29.5
				c0,8.9,2.1,23.6,8.9,29.4c5.6,5.2,11.4,5.3,18.7,3.7v-22.3c0-7.2-9-7.8-9-7.8v-1.5h36.9v1.2c0,0-7,1-7,7.9v26.5
				c-10.8,0-25.3,0-29.9,0c-25,0-41.4-15-41.4-36.6c0-20.9,15.5-37.4,38.7-37.4C380.5,229.1,390.8,229.1,399.8,229.1z"/>
		</g>
	</g>
	<g id="Layer_9" class="st0">
		<g id="Layer_8" class="st1">
			<path d="M285.5,186.8l16.5,3.4c6.2,1.3,15.5,0.8,19.5-0.9l2.7-1.2c1.1-0.5,1.7-1.1,1.7-1.6l0-5.1c0-0.5-0.4-0.9-1.2-1.4l-1.7-0.9
				c-3.6-2-13.7-2.5-20.3-1.1l-17.5,3.8C279.2,183.1,279.3,185.5,285.5,186.8z"/>
			<path d="M290.7,199.6l9.9,6.7c3.7,2.5,10,4.8,13,4.7l2.1,0c0.9,0,1.4-0.2,1.6-0.6l1.4-3.3c0.1-0.3,0-0.7-0.4-1.2l-0.9-1.1
				c-1.8-2.3-8.3-5.4-13-6.3l-12.5-2.3C287.5,195.4,286.9,197,290.7,199.6z"/>
			<path d="M292,172.3l11.8-2.2c4.4-0.8,10.4-3.7,12.6-5.9l1.4-1.5c0.6-0.6,0.8-1.2,0.7-1.5l-1.4-3.3c-0.1-0.3-0.5-0.5-1.1-0.6
				l-1.4-0.1c-2.9-0.3-9.7,2.1-13.6,4.8l-10.4,7.2C286.8,171.6,287.5,173.2,292,172.3z"/>
		</g>
		<g id="Layer_10">
			<path class="st1" d="M236.5,179.5l-16.5-3.4c-6.2-1.3-15.5-0.8-19.5,0.9l-2.7,1.2c-1.1,0.5-1.7,1.1-1.7,1.6l0,5.1
				c0,0.5,0.4,0.9,1.2,1.4l1.7,0.9c3.6,2,13.7,2.5,20.3,1.1l17.5-3.8C242.8,183.1,242.7,180.7,236.5,179.5z"/>
			<path class="st1" d="M231.3,166.7l-9.9-6.7c-3.7-2.5-10-4.8-13-4.7l-2.1,0c-0.9,0-1.4,0.2-1.6,0.6l-1.4,3.3
				c-0.1,0.3,0,0.7,0.4,1.2l0.9,1.1c1.8,2.3,8.3,5.4,13,6.3l12.5,2.3C234.5,170.8,235.1,169.2,231.3,166.7z"/>
			<path class="st1" d="M230,193.9l-11.8,2.2c-4.4,0.8-10.4,3.7-12.6,5.9l-1.4,1.5c-0.6,0.6-0.8,1.2-0.7,1.5l1.4,3.3
				c0.1,0.3,0.5,0.5,1.1,0.6l1.4,0.1c2.9,0.3,9.7-2.1,13.6-4.8l10.4-7.2C235.2,194.6,234.5,193.1,230,193.9z"/>
		</g>
	</g>
	<g id="Layer_3" class="st0">
		<g class="st1">
			<path d="M357.2,308.5c0.3,0.3,0.5,0.7,0.8,0.8c3,0.7,5.9,1.5,8.9,1.9c4.9,0.6,9.8-0.2,14.7-0.7c7.6-0.8,15.1-2.2,22.6-4
				c2.3-0.6,4.6-1.2,6.7-2.2c2-1.1,4.3-1.6,6-3.3c1.6-1.6,3.7-2.8,5.4-4.3c1-0.9,1.9-2,2.8-3c0.3-0.4,0.7-0.7,1-1.1
				c1.3-1.7,2.5-3.5,3.5-5.4c1.5-2.9,2.8-6,3.7-9.1c1.7-6.3,2.2-12.7,1.6-19.2c-0.1-0.7-0.1-1.4-0.2-2.1c-0.1-0.7-0.2-1.3-0.4-2
				c0.2,1.7,0.4,3.3,0.6,5c0,0,0,0,0,0c-0.2-1.5-0.5-3-0.7-4.5c-0.2-1.7-0.1-3.5-0.6-5.1c-1-3.3-2.2-6.6-3.4-9.9
				c-0.2-0.7-0.4-1.4-0.5-2.1c-0.8-1.5-1.6-3.1-2.5-4.6c-1.4-2.5-2.8-5-4.3-7.4c-1.5-2.3-2.7-4.7-3.6-7.3c-0.8-2.1-1.2-4.2-0.9-6.4
				c0,0.5,0,1,0,1.5c0-3.3,1.1-6.3,2-9.4c0.6-2,1.6-3.8,2.3-5.7c2-5.7,3-11.5,1.4-17.6c-1.2-4.8-4.2-8.4-8.3-11.2
				c-3.8-2.6-8.1-3.3-12.5-3.4c-1.7-0.1-3.4,0-5.3,0c0,1,0,2.2,0,3.6c-1.8,0-3.4,0-5.2,0c0-1.3,0-2.7,0-4.4c1.1,0,2.2,0,3.3,0
				c5,0.1,10.1,0.1,15,1.5c6.3,1.8,10.6,5.8,12.8,12.1c1.8,5.3,1.7,10.7,0.1,16.1c-1.2,4-2.7,7.8-4,11.7c-1.8,5.4-1.2,10.6,1.6,15.6
				c2.4,4.3,4.9,8.5,7.2,12.8c3.4,6.6,5.4,13.6,6.3,20.9c1,7.4,0.5,14.7-1.4,21.9c-1.9,7.3-5.5,13.7-11.1,19
				c-5.2,4.8-11.2,8-18.1,9.6c-10.8,2.5-21.7,4.5-32.7,5c-5.6,0.3-11-0.6-16.1-3c-2-0.9-3.9-2.2-5.8-3.5c-3.3-2.3-6.6-4.6-9.9-7
				c-6.1-4.5-9.8-10.6-11.6-18c-1.9-7.9-1.6-15.7,0-23.5c1.6-8.1,4.5-15.7,8.7-22.8c2.2-3.8,4.5-7.6,6.7-11.3c3.5-5.8,4-11.7,1.4-18
				c-0.9-2.2-1.7-4.4-2.5-6.6c-2.4-7-2.3-13.9,0.9-20.6c3.1-6.3,8.5-9.6,15.1-11.1c4.8-1.1,9.7-1,14.5-1.2c2.3-0.1,2.3-0.1,3.1-2.2
				c0.4-1.1,1-2.2,1.5-3.3c0.6-1.3,1.8-1.9,3.1-1.9c1,0,1.2-0.5,1.2-1.4c0.2-11.5,0.5-22.9,0.7-34.4c0.2-12.5,0.5-24.9,0.6-37.4
				c0.1-7.6,0.1-15.2,0.1-22.8c0-3.2-0.8-6.1-3.3-8.4c-0.5-0.5-0.7-1.4-0.9-2.1c-0.3-1.1-0.5-2.2-0.5-3.3c-0.1-1.7-2.1-2.5-3.4-1.8
				c-0.1-0.3-0.3-0.6-0.4-0.9c0,0-0.1,0-0.1,0c0.1,0.6,0.2,1.3,0.2,1.9c0,0.4-0.3,1-0.6,1.1c-0.3,0.2-0.9,0-1.3-0.2
				c-1.5-1-1.9-3.6-0.8-5.2c-0.3,1.7-0.3,3.3,0.9,4.7c0.6-1.3-0.2-2.2-0.9-3.3c0.7,0,1.3,0,1.9,0c-0.3-0.6-0.5-1.2-0.7-1.7
				c0.1-0.1,0.2-0.1,0.3-0.2c0.3,0.4,0.6,0.8,0.9,1.2c0.6,0.8,1,1.5,2.2,1.5c0.8-0.1,1-0.4,0.9-1c-0.5-2.9-1-5.8-1.5-8.7
				c-0.2-0.8-1.7-1-2.5-0.3c-0.2-0.2-0.3-0.4-0.5-0.6c-0.1,0.1-0.2,0.1-0.2,0.2c0,0.4,0.1,0.7,0.1,1.1c0,0.4,0,0.9-0.3,1.1
				c-0.3,0.2-0.9,0.2-1.2,0c-1.6-0.7-2.3-3.7-1.1-5.2c-0.4,1.8-0.1,3.4,1.4,4.6c-0.4-0.8-0.7-1.6-1.1-2.5c0.5-0.1,1-0.1,1.7-0.2
				c-0.4-0.9-0.8-1.6-1.2-2.4c0-0.1,0.1-0.1,0.1-0.2c0.5,0.4,1,0.7,1.4,1.2c0.8,0.9,1.3,2,2.9,1.6c-0.4-2.1-0.8-4.3-1.2-6.4
				c-0.2-0.9-0.3-1.8-0.4-2.6c-0.2-1.3-1.5-1.7-2.5-0.8c-0.1,0.1-0.3,0.2-0.3,0.2c-0.2,0.6-0.3,1.2-0.5,1.3
				c-0.4,0.1-1.1,0.1-1.5-0.1c-1.4-0.8-1.9-3.1-1-4.7c0,0.9-0.1,1.8,0.2,2.5c0.2,0.7,0.8,1.3,1.2,2c0.1-0.1,0.2-0.1,0.3-0.2
				c-0.2-0.5-0.5-1-0.8-1.5c0.5-0.1,0.9-0.2,1.3-0.3c-0.3-0.9-0.5-1.8-0.8-2.7c1.6,0.5,1.9,2.7,4,2.1c-0.3-2-0.7-4.1-1-6.2
				c-0.3-1.6,0.4-3.2,1.8-4c0.3-0.2,0.8-0.2,1.1-0.1c5.4,0.8,10.8,1.6,16.2,2.5c1,0.2,1.6,0.7,1.7,1.7c0.1,2.1,0.3,4.2,0.5,6.3
				c0.1,0.8,0.3,1.5,1.3,2c-0.1-0.4-0.2-0.6-0.3-0.9c1.6,1.4,1.6,4.1-0.2,5.3c-0.2,0.1-0.3,0.5-0.3,0.8c0.3,1.8-0.2,3.7,0.9,5.3
				c0.1,0.1-0.1,0.4,0.1,0.7c0.2-0.4,0.4-0.7,0.5-1c1.5,1.8,1.2,4.5-0.7,5.3c0.1,0.9,0.1,1.8,0.2,2.7c0.1,0.9,0.1,1.8,0.2,2.4
				c0.9,0.4,1.7,0.6,2.2,1.1c0.4,0.3,0.6,1,0.6,1.6c-0.1,0.9-0.2,1.9-0.6,2.7c-0.2,0.4-1,0.5-1.6,0.8c-0.3,2.1-0.7,4.4-1,6.7
				c-0.5,0-0.9-0.1-1.5-0.1c-0.2-2.3-0.5-4.6-0.7-6.9c0,0-0.1,0-0.1,0c0.2,2.2,0.3,4.4,0.5,6.7c-1.5,0.3-1.7,0.2-1.8-1.2
				c-0.1-3.9-0.2-7.7-0.3-11.6c-0.1-2.5-0.1-5.1-0.2-7.6c0-0.4,0-0.8,0.1-1.2c0-0.1,0.3-0.1,0.5-0.2c-0.1-0.6-0.1-1.3,0.9-1.5
				c0.3-0.1,0.4-0.7,0.6-1.2c-1.5-0.4-1.2,1.3-2.1,1.4c-0.1-2.2-0.2-4.5-0.3-7c0,1.9,0,3.4,0,5c0,0.7-0.4,1.3-0.5,2
				c-0.1,0.3,0,0.6,0.1,0.9c0.2,0.8,0.5,1.6,0.5,2.4c0.2,6.3,0.3,12.6,0.4,18.9c0,0.3,0,0.6,0,0.8c-1.8,0.2-1.7,0.2-2.1-1.4
				c-0.9-3.7-1.8-7.4-2.7-11.1c-0.1,0-0.2,0-0.3,0.1c1,4.1,2,8.2,3,12.2c-1.6,0.2-1.7,0.2-2-1.2c-0.7-3.7-1.4-7.3-2.1-11
				c0-0.2-0.1-0.5-0.2-0.7c-0.5,0.4-0.7,1.3-1.6,0.7c1.1-0.6,1.6-1.5,1.5-2.6c-0.5-2.6-1-5.3-1.5-7.9c0-0.2-0.3-0.4-0.5-0.5
				c-0.3-0.2-0.5-0.3-0.9-0.6c1.2-0.4,1.6-1.2,1.4-2.3c-0.5-2.2-1.1-4.4-1.6-6.7c-0.2-0.7-0.4-1.3-0.6-2c-0.1,0-0.2,0-0.3,0.1
				c0.7,3,1.5,6,2.2,9c-0.3,0.2-0.6,0.3-0.9,0.4c-0.3,0.2-0.6,0.4-0.9,0.5c-1,0.2-0.9,0.9-0.9,1.6c0,0.4,0.5,0.7,0.8,1.2
				c0.2-0.6,0.4-0.9,0.5-1.2c0.4,0,0.8,0,1.2,0c0.6,3,1.2,6.1,1.8,8.9c-1,0.5-1.9,0.9-2.7,1.5c-0.7,0.5-0.1,1.2,0.1,1.8
				c0,0.1,0.4,0.1,0.6,0.1c0.1,0,0.2-0.2,0.3-0.4c0.1-0.2,0.1-0.4,0.1-0.6c1.1,0.1,1.4,0.8,1.4,1.8c0.1,2.9,0.4,5.8,0.6,8.7
				c0,0.3,0,0.6,0,0.9c-1.8,0.3-1.8,0.3-1.4,2.1c0.3-0.1,0.7-0.2,1-0.1c0.2,0,0.6,0.3,0.6,0.5c0,3.3,0,6.6,0,9.6
				c-0.5,0.3-0.9,0.5-1.2,0.7c0.1,0.1,0.1,0.2,0.2,0.3c0.3-0.1,0.5-0.1,0.9-0.2c0,3.3,0,6.5,0,9.5c-0.5,0.2-0.8,0.4-1.1,0.6
				c0,0.1,0.1,0.2,0.1,0.4c0.3,0,0.6-0.1,0.9-0.2c0,3.1,0,6.1,0,9c-0.4,0.1-0.8,0.2-1.1,0.3c0,0.1,0.1,0.3,0.1,0.4
				c0.3,0,0.7,0,1-0.1c0,2.9,0,5.7,0,8.5c-0.4,0.1-0.8,0.2-1.2,0.2c0,0.1,0,0.3,0.1,0.4c0.3,0,0.7-0.1,1.1-0.1c0,2.8,0,5.5,0,8.1
				c-0.4,0.4-1.3-0.5-1.2,0.7c0.4-0.1,0.8-0.2,1.2-0.3c0,2.6,0,5.1,0,7.6c-0.5,0.1-0.9,0.2-1.3,0.3c0,0.1,0.1,0.2,0.1,0.4
				c0.4-0.1,0.7-0.1,1.2-0.2c0,2.5,0,4.8,0,7c-0.3,0.6-1.4-0.4-1.2,0.8c0.4-0.1,0.7-0.1,1.2-0.2c0,2.3,0,4.6,0,6.8
				c-0.5,0.1-0.9,0.2-1.3,0.2c0,0.1,0.1,0.3,0.1,0.4c0.4-0.1,0.7-0.1,1.2-0.2c0,2.2,0,4.3,0,6.4c-1.2,0-1.2,0-1.2,0.7
				c0.4-0.1,0.7-0.2,1.2-0.3c0,6-0.1,12-0.1,17.9c-0.5,0.1-1,0.1-1.4,0.1c0,0.1,0,0.3,0.1,0.4c0.4-0.1,0.8-0.1,1.3-0.2
				c0,1.7,0,3.4,0,5c-1.3,0.1-1.3,0.1-1.3,0.7c0.4-0.1,0.9-0.2,1.3-0.3c0,1.7,0,3.2,0,4.8c-0.5,0.1-1,0.2-1.4,0.2
				c0,0.1,0,0.2,0.1,0.4c0.4-0.1,0.8-0.2,1.3-0.3c0,1.6,0,3,0,4.4c-0.4,0.5-1.4-0.4-1.5,0.8c0.5-0.1,0.9-0.2,1.4-0.4
				c0,1.4,0,2.8,0,4c-0.4,0.6-1.4-0.4-1.4,0.9c0.5-0.1,0.9-0.2,1.4-0.4c0,1.4,0,2.6,0,3.8c-0.4,0.6-1.4-0.4-1.5,0.9
				c0.5-0.1,0.9-0.2,1.4-0.3c0,1.3,0,2.5,0,3.6c-0.6,0.1-1,0.3-1.5,0.4c0,0.1,0.1,0.2,0.1,0.4c0.4-0.1,0.9-0.1,1.4-0.2
				c0,1.2,0,2.3,0,3.4c-0.4,0.3-1.5-0.5-1.5,0.8c0.6-0.1,1-0.2,1.5-0.4c0,1.2,0,2.2,0,3.2c-0.5,0.4-1.4-0.5-1.6,0.8
				c0.6-0.1,1-0.2,1.6-0.3c0,1.4,0,2.7,0,4c0,0.2-0.2,0.4-0.4,0.6c-1,0.8-2.1,1.6-3.3,2.2c1.1-0.9,2.2-1.8,3.5-2.9
				c-0.8,0.1-1.3,0.2-2,0.4c0-0.6-0.1-1.2-0.1-2c-0.5,0.2-0.9,0.5-1.3,0.7c0,0,0,0,0,0c0-0.1,0-0.2,0-0.2c1.6-0.7,1.4-2.1,1.4-3.4
				c0.1-7.3,0.2-14.5,0.3-21.8c0-0.7-0.1-1.3-0.1-2.3c-3.8,0.3-7.4,0.6-11.1,1c-4.4,0.5-8.4,2.2-11.9,5.1c-4.2,3.4-6.3,8-7,13.3
				c-0.8,6.1,0.4,11.8,2.7,17.4c1.3,3.1,2.4,6.2,3.4,9.4c1.2,3.9,0.5,7.7-1,11.4c-0.6,1.5-1.4,3-2.1,4.4c-0.5,1.1-1.1,2.3-1.6,3.4
				c-0.1,0-0.3,0-0.4,0c-0.9,1.5-1.7,3-2.5,4.4c-0.9,1.6-1.8,3.1-2.7,4.7c-0.1,0.1,0.1,0.3,0.2,0.5c-0.6,0.8-1.3,1.6-1.7,2.4
				c-1.4,3.3-2.9,6.7-4,10.1c-3.4,10.5-4.9,21.2-2.7,32.2c1.1,5.5,3,10.6,6.6,14.9c1.2,1.5,2.8,2.7,4.3,4.1c0,0.1,0,0.2,0,0.2
				c2,1.2,3.9,2.4,5.9,3.6C356.7,308.8,357,308.6,357.2,308.5z M391.9,23.5c0.3-0.6,0.6-1,0.9-1.5c-0.1-0.1-0.2-0.2-0.2-0.3
				c-0.7,0.3-1.4,0.5-2,0.8c-0.8,0.3-0.7,0.9-0.6,1.5c0.1,0.4,0.5,0.7,0.9,1.2c0.3-0.7,0.4-1.1,0.5-1.5c0.3,0.1,0.6,0.2,1,0.2
				c0,0,0-0.1,0.1-0.1C392.1,23.7,391.9,23.5,391.9,23.5z M381.5,20.5c-0.1-0.2-0.2-0.3-0.3-0.5c-0.5,0.2-1.1,0.6-1.6,0.6
				c-0.9,0.1-1.1,0.7-1.1,1.4c0,0.4,0.4,0.8,0.6,1.3C380,22.3,380.8,21.4,381.5,20.5z M392.8,43.8c0.5,0.9-1.6,2.3,0.2,3.5
				c0.8-1,1.5-1.9,2.4-2.9c-1.6-0.4-1.4,1.1-2.2,1.3C393,45,392.8,44.2,392.8,43.8z M383.9,32.6c-0.1,0-0.2,0-0.2,0.1
				c0.9,3.7,1.8,7.4,2.7,11.1c0.1,0,0.2,0,0.3-0.1C385.7,40,384.8,36.3,383.9,32.6z"/>
			<path d="M402.4,216.7c2-2.9,2.6-6.1,2.4-9.6c-0.2-3.4-0.6-6.7-3.5-9.1c0.1-0.2,0.3-0.4,0.2-0.5c-0.8-1.2-1.6-2.4-3.1-2.9l0,0
				c-0.1-0.1-0.2-0.1-0.3-0.2c0,0-0.1,0-0.1,0c0,0,0-0.1,0-0.1c0.5,0,1.1-0.1,1.9-0.1c-0.7-0.6-1.3-1-1.8-1.4
				c-0.1,0-0.2,0.1-0.3,0.1c0.1,0.5,0.1,0.9,0.2,1.4c0,0.1,0,0.1,0.1,0.2l0,0c-0.4,0-0.7,0.1-1.1,0c-0.5-0.1-1.1-0.3-1.7-0.3
				c6.5,3.9,8.7,9.8,7.5,17c-0.6,3.9-2.6,7.3-5.8,9.8c5.9-6,7.6-12.9,3.9-20.6c-1.5-3.1-3.9-5.3-7.5-5.9c6.9,3.4,9.2,9,8.1,16.4
				c-0.8,5.3-4.9,9.9-8.5,11.2c-0.7-2.1-0.2-2.3,2.5-2.3c0-0.5,0-1.1,0-1.5c-0.8-0.1-1.6-0.1-2.3-0.3c-0.2-0.1-0.4-0.7-0.4-1.1
				c-0.1-3.1-0.1-6.3-0.1-9.5c0-0.4,0-0.7-0.1-1.1c0,3.5,0,7-0.1,10.5c0,0.5,0.2,1.2-0.7,1.1c-0.7-0.1-1.7,0.3-1.7-1.1
				c0-8.5-0.1-17-0.2-25.4c0-0.1,0-0.3,0.1-0.5c0.7,0,1.5-0.1,2.3-0.1c0,4.1,0,8.1-0.1,12.1c0.1,0,0.1,0,0.2,0c0-4,0-8,0.1-12.1
				c1.6-0.1,3.1-0.2,4.6-0.2c0.2,0,0.7,0.5,0.6,0.8c-0.1,0.8,0.5,1.2,0.9,1.8c1.5,1.8,3.7,1.5,5.5,2.2c2.5,0.9,4.6,2.4,5.8,4.6
				c1.5,2.6,2.8,5.2,3.7,8c2.2,6.5,3.3,13.2,3.5,20c0.1,3.9-0.4,7.6-1.9,11.2c-1.9,4.3-5.5,6.1-9.9,6.5c-2.9,0.2-5.8-0.1-8.2-1.9
				c-2.5-1.9-3.6-4.6-3.7-7.7c-0.1-3.3,0.1-6.6,0.2-9.9c-0.2,0.1-0.6,0.2-1.3,0.4c1.5-1.2,2.8-2.2,4-3.3c0.2-0.2,0.3-0.6,0.5-0.9
				c1,0.2,2.3-0.8,2.8-2.1c0.4-0.6,0.9-1.2,1.3-1.9c0,0,0.1,0,0.1,0c0,0,0,0,0,0l0,0l0,0c0-0.1,0-0.3,0.1-0.4c0,0,0,0,0,0
				c0.2,0,0.3,0,0.5,0c0,0,0,0,0,0c0.1-0.2,0.3-0.4,0.4-0.5c0,0,0,0,0,0C402.4,217.2,402.4,217,402.4,216.7L402.4,216.7z"/>
			<path d="M368.7,251.8c5-0.5,9.9-0.9,14.9-1.4c0,1,0,1.8,0,2.8c-0.9,0.1-1.8,0.3-3,0.5c0.9,1.4,2.1,0.3,3,0.8
				c-0.1,0.6-0.2,1.1-0.3,1.7c0.3-2.2,1.8-2.5,3.6-2.4c-0.1,0.6-0.2,1.1-0.3,1.6c0.1,0.1,0.1,0.1,0.2,0.2c0-0.1,0-0.2,0-0.3
				c0-1.5,1-1.8,2.2-1.9c1.2,0,2.5-0.1,3.7-0.3c2.5-0.4,4.9-1,7.4-1.5c0.2,0,0.3-0.3,0.5-0.5c-0.3-0.1-0.5-0.4-0.8-0.3
				c-1.7,0.2-3.3,0.5-5,0.8c-0.6,0.1-1.1,0.2-1.7,0.3c-0.6-1.9-0.3-2.3,1.6-2.5c4.6-0.4,9.2-0.9,13.8-1.3c1.4-0.1,1.4-0.1,1.4,1.3
				c0,1.8,0,3.5,0,5.3c0,1.1-0.4,1.5-1.4,1.7c-1.1,0.2-2.2,0.2-3.3,0.5c-0.9,0.3-2,0.6-2.6,1.3c-1.2,1.4-2.8,1.9-4.5,2.2
				c-2.8,0.5-5.7,0.8-8.6,1.1c-2.2,0.3-4.3,0.4-6.5,0.6c-2.5,0.3-4.9,0-7.1-1.4c-0.8-0.5-2-0.6-3-0.6c-1.1-0.1-2.3,0.1-3.4,0.2
				c-0.6,0-1.1-0.1-1.1-0.8C368.7,256.8,368.7,254.4,368.7,251.8z"/>
			<path d="M383.7,216.5c0-0.4,0-0.8-0.1-1.5c-0.1,0.5-0.2,0.8-0.2,0.8c-0.8,0.1-1.4,0.2-2.3,0.3c-0.1-0.1-0.4-0.5-0.6-0.7
				c-0.3,0.5-0.6,1.1-1.1,1.9c0-3.4,0-6.5,0-9.6c-0.1,0-0.1,0-0.2-0.1c-0.6,1.2-1.2,2.3-1.9,3.5c-2.6-3.2,1.8-13,6.8-15.4
				c0,6.9-0.1,13.8-0.1,20.7C383.9,216.5,383.8,216.5,383.7,216.5z"/>
			<path d="M385.5,194.7c-0.3,0.1-0.6,0.1-0.9,0.2c0-1.3,0-2.6,0-4c0.8,0,1.6-0.1,2.5-0.1c0,8.9-0.1,17.7-0.1,26.6
				c-0.4-0.8-0.4-0.8-2.2-0.8c0,0.2-0.1,0.3-0.1,0.5c0,0.2,0,0.3-0.3,0.5c0-4.1,0-8.3,0.1-12.4c0-2.8,0.1-5.7,0-8.5
				C384.5,195.8,384.6,195.1,385.5,194.7z"/>
			<path d="M387.6,190.8c0.7,0,1.4,0,2.2,0c0,8.9-0.1,17.8-0.1,26.8c-0.6-0.5-1.2-1-1.9-1.5c-0.1,0.6-0.1,0.9-0.2,1.3
				c-0.1,0-0.1,0-0.2,0C387.5,208.6,387.6,199.7,387.6,190.8z"/>
			<path d="M390.1,137.1c0.8,0,1.4,0,2.2,0c0.1,0.8,0.1,1.5,0.2,2.3c0,0,0,0,0.1,0c0-0.7,0-1.4,0-2.2c0.7,0,1.3,0,2,0
				c0,0.6,0.1,1.2,0.1,2.1c0.1-0.8,0.1-1.4,0.2-2c0.2-0.1,0.3-0.1,0.4-0.1c2.4,0,2-0.1,2,2c0,1.3,0,2.6,0,4c-0.8,0-1.5,0-2.3,0
				c0-0.7,0-1.4,0-2.1c0,0-0.1,0-0.1,0c0,0.7-0.1,1.4-0.2,2.3c-0.8-0.1-1.5-0.3-2.1-0.4c-0.6,0-1.1,0.2-1.7,0.2
				c-0.3,0-0.7-0.3-0.7-0.5C390.1,140.7,390.1,138.9,390.1,137.1z"/>
			<path d="M394.7,149.5c0,0.8,0,1.6,0,2.3c0,0,0.1,0,0.1,0c0-0.2,0-0.3,0-0.5c0.1-2,0.5-2.3,2.6-1.6c0,1.6,0,3.3,0,5.1
				c-0.7,0-1.5,0.1-2.3,0.1c-0.1-0.6-0.2-1.1-0.3-1.6c0,0,0,0-0.1,0c0,0.5,0,1,0,1.5c-1.5,0-3,0-4.6,0c0-1.8,0-3.5,0-5.3
				C391.7,149.5,393.2,149.5,394.7,149.5z"/>
			<path d="M395.9,59.6c0,3.5,0,6.9,0,10.4c-1.2-0.1-2.3-0.3-3.6-0.4c0-3.4,0-6.8,0-10.4C393.4,59.3,394.5,59.4,395.9,59.6z"/>
			<path d="M396.1,77.2c0,0.9,0,1.8,0,2.8c-1.6,0.3-1.8,0.2-1.8-1.3c0-2.6,0-5.2,0-7.7c-0.1,0-0.2,0-0.3,0c0,3,0,5.9,0,8.9
				c-1.8,0.1-1.8,0.1-1.8-1.5c0-2.7,0-5.5,0-8.3c1.1,0.1,2.2,0.2,3.2,0.3c0.2,0,0.4,0.4,0.4,0.7c0,1,0,2,0.1,3c0-1.1,0-2.2,0-3.3
				c0.1,0,0.2,0,0.3,0c0,3.1,0,6.1,0,9.2c0,0,0,0,0,0c0-0.9,0-1.8,0-2.7C396.2,77.3,396.2,77.2,396.1,77.2z"/>
			<path d="M394.6,136.8c-0.8-0.3-1.7,0.3-2.1-0.6c-0.5,1-1.5,0.2-2.4,0.5c0-0.9-0.1-1.6-0.1-2.2c0.4-0.4,0.7-0.7,1-1
				c-0.3-0.3-0.6-0.5-0.9-0.8c0-0.7,0-1.5,0-2.4c0.7,0,1.4,0,2.1,0c0,0.5,0.1,1,0.1,1.6c0.3-0.6-0.3-1.6,1-1.6c1,0,1.3,0.3,1.3,1.3
				C394.5,133.2,394.6,134.9,394.6,136.8z"/>
			<path d="M394.7,149.1c-1.6,0-3,0-4.6,0c0-1.9,0-3.7,0-5.6c0.1-0.1,0.1-0.1,0.2-0.1c1.2,0,2.5,0,3.7,0.1c0.3,0,0.7,0.4,0.7,0.6
				C394.8,145.7,394.7,147.4,394.7,149.1z"/>
			<path d="M390.1,160.2c0-1.7,0-3.3,0-5c1.5,0,3,0,4.8,0c0,1.5,0,3,0,4.6c0,0.2-0.4,0.4-0.6,0.4
				C392.9,160.2,391.6,160.2,390.1,160.2z"/>
			<path d="M394.8,160.6c0,1.5,0,3,0,4.6c-1.5,0-3.1,0-4.7,0c0-1.5,0-3,0-4.6C391.7,160.6,393.2,160.6,394.8,160.6z"/>
			<path d="M387.5,69.2c-0.6,0-1.2-0.1-1.8-0.1c0-3.5,0-7,0-10.5c0.6,0.1,1.1,0.1,1.8,0.2C387.6,62.2,387.6,65.6,387.5,69.2z"/>
			<path d="M395,179.5c0.7-0.8,1.6-0.5,2.4-0.3c0.2,0,0.4,0.8,0.5,1.2c0.1,0.7,0,1.4,0,2.4c-1.7,0.1-3.3,0.1-5.3,0.2
				c0-1.2,0-2.2,0-3.3c0-0.1,0-0.2,0.1-0.3C393.1,178.9,394.8,179.1,395,179.5z"/>
			<path d="M385.6,79.7c0.7,0.1,1.3,0.1,1.9,0.2c0,3.1,0,6.1,0,9.2c-0.7-0.1-1.2-0.1-1.9-0.2C385.6,85.9,385.6,82.8,385.6,79.7z"/>
			<path d="M387.5,79.4c-0.7-0.1-1.2-0.1-1.9-0.2c0-3.2,0-6.4,0-9.7c0.6,0.1,1.2,0.1,1.9,0.2C387.5,72.9,387.5,76.1,387.5,79.4z"/>
			<path d="M394.4,89.6c0-3.1,0-6.1,0-9.2c0.5,0,1,0.1,1.7,0.2c0,2.2,0,4.3,0,6.4c0.1,0,0.1,0,0.2,0c0-2,0-4.1,0-6.1
				c0.1,0,0.2,0,0.2,0c0,2.9,0,5.8,0,8.7c0-0.2-0.1-0.3-0.1-0.5C396.1,90.3,395.2,89.4,394.4,89.6z"/>
			<path d="M388.1,58.7c0.5,0.1,1.1,0.1,1.7,0.2c0,3.5,0,6.9,0,10.5c-0.6,0-1.1-0.1-1.7-0.1C388.1,65.7,388.1,62.3,388.1,58.7z"/>
			<path d="M391.9,79.7c-0.6,0-1.1-0.1-1.8-0.1c0-3.2,0-6.4,0-9.8c0.5,0,1.1,0.1,1.8,0.2C391.9,73.3,391.9,76.5,391.9,79.7z"/>
			<path d="M389.8,79.6c-0.7-0.1-1.2-0.1-1.8-0.1c0-3.3,0-6.5,0-9.7c1.8,0,1.8,0,1.8,1.7C389.9,74.1,389.8,76.8,389.8,79.6z"/>
			<path d="M385.5,98.1c0-2.9,0-5.8,0-8.7c0.7,0,1.3,0.1,2,0.1c0,2.9,0,5.8,0,8.7C386.8,98.2,386.2,98.1,385.5,98.1z"/>
			<path d="M390.2,58.9c0.6,0.1,1.1,0.1,1.7,0.2c0,3.5,0,6.9,0,10.5c-0.6-0.1-1.1-0.1-1.7-0.2C390.1,65.9,390.2,62.5,390.2,58.9z"/>
			<path d="M392,98.4c-0.6,0-1.2,0-1.9,0c0-2.9,0-5.7,0-8.7c0.6,0,1.2,0.1,1.9,0.1C392,92.7,392,95.5,392,98.4z"/>
			<path d="M392.4,175c0,2.6,0,5.2,0,7.9c-0.7,0-1.4,0-2.2,0c0-1.2,0-2.3,0-3.6c0.6,0,1.1-0.1,1.7-0.1c0-0.1-0.1-0.2-0.1-0.2
				c-1.7-0.2-1.7-0.2-1.7-1.9c0-0.7,0-1.3,0-2.1C390.9,175,391.6,175,392.4,175z"/>
			<path d="M387.4,106.8c-0.7,0-1.3-0.1-2-0.1c0-2.7,0-5.4,0-8.2c0.7,0,1.3,0.1,2,0.1C387.4,101.3,387.4,104,387.4,106.8z"/>
			<path d="M387.4,114.9c-0.8-0.1-1.4-0.1-2.1-0.2c0-2.5,0-5,0-7.6c0.7,0,1.4,0.1,2.1,0.1C387.4,109.8,387.4,112.3,387.4,114.9z"/>
			<path d="M388,80c1.8-0.1,1.8-0.1,1.8,1.7c0,2.5,0,5,0,7.6c-0.6,0-1.2-0.1-1.8-0.1C388,86.1,388,83.1,388,80z"/>
			<path d="M391.9,89.3c-0.2,0-0.3,0-0.4,0c-1.5,0-1.5,0-1.5-1.5c0-2.5,0-5.1,0-7.7c0.7,0,1.2,0.1,1.9,0.1
				C392,83.3,392,86.3,391.9,89.3z"/>
			<path d="M396.6,106.9c0-1.9,0-3.7,0-5.6c0,0-0.1,0-0.1,0c0,2,0,3.9,0,5.9c-0.6,0-1.1,0-1.9,0c0-2.7,0-5.4,0-8.1
				c0.4,0,1-0.1,1.4,0c0.3,0.1,0.7,0.5,0.7,0.8c0,2.3,0,4.6,0,6.9C396.7,106.9,396.6,106.9,396.6,106.9z"/>
			<path d="M395.3,186.1c-0.6,0.9-1.6,0.3-2.5,0.7c0-1.2,0-2.3,0-3.5c1.5,0,3-0.1,4.5-0.1c0.2,0,0.5,0.4,0.6,0.7
				c0.1,0.8,0,1.6,0,2.4C396.7,186.8,395.6,186.7,395.3,186.1z"/>
			<path d="M396.5,107.7c0,0.6,0,1,0,1.4c0,0,0,0,0.1,0c0-0.4,0.1-0.7,0.1-1.1c0.1,0,0.2,0,0.4,0c0,1,0,1.9,0,2.9c0,1.1,0,2.2,0,3.3
				c0,1-0.5,1.2-1.4,1.1c-0.3,0-0.6-0.1-0.9-0.1c0-2.5,0-5,0-7.7C395.3,107.6,395.9,107.6,396.5,107.7z"/>
			<path d="M385.3,115.2c0.8,0,1.4,0,2.1,0c0,2.4,0,4.8,0,7.3c-0.7,0-1.4-0.1-2.1-0.1C385.3,120,385.3,117.6,385.3,115.2z"/>
			<path d="M392.3,89.4c0-3.1,0-6,0-9.1c0.5,0,1.1,0.1,1.7,0.1c0,3,0,6,0,9.1C393.5,89.5,393,89.4,392.3,89.4z"/>
			<path d="M394.7,115.6c0.4,0,0.7,0,0.9,0c1-0.1,1.4,0.3,1.3,1.4c-0.1,1.6-0.1,3.3-0.1,4.9c0,0.7-0.2,1-1,1c-0.7,0-1.3,0-1.3-1
				C394.7,119.9,394.7,117.8,394.7,115.6z"/>
			<path d="M389.7,98.3c-0.6,0-1.2-0.1-1.9-0.1c0-2.9,0-5.7,0-8.6c0.6,0,1.2,0,1.9,0C389.8,92.6,389.7,95.4,389.7,98.3z"/>
			<path d="M395.3,188c-0.1,2.6,0.5,2.2-2.5,2.3c0-1,0-2.1,0-3.3c1.7,0,3.3,0,5.2,0c0,0.8,0,1.7,0,2.6c0,0.2-0.3,0.5-0.5,0.5
				c-0.4,0.1-0.8,0-1.2,0.1c-0.7,0.1-1.1-0.1-1-0.9C395.3,188.8,395.3,188.4,395.3,188z"/>
			<path d="M385.2,129.7c0-2.3,0-4.5,0-6.8c0.7,0,1.4,0,2.2,0c0,2.3,0,4.5,0,6.8C386.6,129.7,385.9,129.7,385.2,129.7z"/>
			<path d="M387.8,106.8c0-2.7,0-5.4,0-8.2c0.6,0,1.2,0.1,1.9,0.1c0,2.8,0,5.5,0,8.2C389.1,106.9,388.5,106.8,387.8,106.8z"/>
			<path d="M394.2,107.2c-1.9,0-1.9,0-1.9-1.7c0-2.1,0-4.3,0-6.4c1.6-0.4,1.9-0.2,1.9,1.4C394.3,102.7,394.3,104.9,394.2,107.2z"/>
			<path d="M394.1,98.6c-0.6-0.1-1.1-0.1-1.8-0.2c0-2.9,0-5.7,0-8.6c0.6,0,1.1,0.1,1.8,0.1C394.2,92.8,394.1,95.7,394.1,98.6z"/>
			<path d="M392,107c-0.6,0-1.2-0.1-1.9-0.1c0-0.9,0-1.8,0-2.7c0.4-0.3,0.8-0.7,1.2-1.1c-0.1-0.1-0.1-0.2-0.2-0.3
				c-0.3,0-0.7-0.1-1.1-0.2c0-1.3,0-2.6,0-4c0.6,0.1,1.2,0.1,1.9,0.2C392.1,101.6,392.1,104.3,392,107z"/>
			<path d="M389.7,122.6c-0.7,0-1.3-0.1-1.9-0.1c0-2.4,0-4.8,0-7.2c0.6,0,1.2,0.1,1.9,0.1C389.8,117.8,389.7,120.2,389.7,122.6z"/>
			<path d="M385.2,130.1c0.7,0,1.4,0,2.2,0c0,2.2,0,4.3,0,6.5c-0.7,0-1.4-0.1-2.2-0.1C385.2,134.4,385.2,132.3,385.2,130.1z"/>
			<path d="M394.8,130.4c0.6,0,1.1-0.1,1.5,0c0.3,0.1,0.7,0.5,0.7,0.7c0.1,1.8,0,3.7,0,5.7c-0.5,0-1.1,0-1.7,0
				c-0.2,0-0.6-0.4-0.6-0.6C394.8,134.3,394.8,132.3,394.8,130.4z"/>
			<path d="M390.2,115.4c0.7,0,1.3,0.1,2,0.1c0,2.4,0,4.7,0,7.1c-0.6,0-1.3,0-2,0c0-0.9,0-1.8,0-2.7c0.2-0.1,0.5-0.3,0.8-0.4
				c0-0.1,0-0.1-0.1-0.2c-0.2,0-0.4,0-0.7,0C390.2,118,390.2,116.8,390.2,115.4z"/>
			<path d="M394.5,90.1c1.8-0.1,1.8-0.1,1.8,1.6c0,2.3,0,4.6,0,7.1c-0.6,0-1.1-0.1-1.8-0.1C394.5,95.8,394.5,93,394.5,90.1z"/>
			<path d="M394.8,129.9c0-2.3,0-4.4,0-6.6c1.8-0.4,2.1-0.2,2.1,1.6c0,1.2,0.1,2.5,0.1,3.7c0.1,1.3,0,1.4-1.4,1.4
				C395.4,130,395.1,130,394.8,129.9z"/>
			<path d="M390.2,107.3c0.7,0,1.3,0.1,1.9,0.1c0,2.5,0,5,0,7.7c-0.6,0-1.3-0.1-1.9-0.2C390.1,112.4,390.2,109.9,390.2,107.3z"/>
			<path d="M387.9,107.2c0.6,0,1.2,0.1,1.9,0.1c0,2.6,0,5.1,0,7.6c-0.6,0-1.2,0-1.9,0C387.9,112.3,387.9,109.8,387.9,107.2z"/>
			<path d="M394.3,115.1c-0.6,0-1.1,0-1.8,0c0-2.5,0-5.1,0-7.6c0.5,0,1.1,0,1.8,0C394.3,110.1,394.3,112.6,394.3,115.1z"/>
			<path d="M385.1,136.9c0.8,0,1.4,0,2.2,0c0,2,0,4,0,6c-0.8,0-1.4,0-2.2,0C385.1,140.9,385.1,139,385.1,136.9z"/>
			<path d="M389.7,129.7c-0.7,0-1.3,0-2,0c0-2.3,0-4.5,0-6.8c0.6,0,1.2,0,2,0C389.8,125.2,389.7,127.5,389.7,129.7z"/>
			<path d="M392.2,129.9c-0.7,0-1.3-0.1-2-0.1c0-2.3,0-4.5,0-6.8c0.7,0,1.3,0.1,2,0.1C392.2,125.3,392.2,127.6,392.2,129.9z"/>
			<path d="M392.5,123.2c0.7,0,1.3,0,2,0c0,2.3,0,4.4,0,6.8c-0.5,0-0.9,0-1.4,0c-0.2,0-0.5-0.3-0.5-0.5
				C392.4,127.3,392.5,125.2,392.5,123.2z"/>
			<path d="M394.4,122.7c-0.6,0-1.2,0-1.9,0c0-2.4,0-4.8,0-7.2c0.6,0,1.2,0.1,1.9,0.1C394.4,118,394.4,120.3,394.4,122.7z"/>
			<path d="M389.7,136.6c-0.7,0-1.3,0-2,0c0-2.1,0-4.2,0-6.4c0.6,0,1.3,0,2,0C389.8,132.3,389.8,134.4,389.7,136.6z"/>
			<path d="M385.1,143.3c0.8,0,1.4,0,2.2,0c0,1.9,0,3.8,0,5.7c-0.8,0-1.4,0-2.2,0C385.1,147.1,385.1,145.3,385.1,143.3z"/>
			<path d="M397.3,149c-0.1,0-0.1,0.1-0.2,0.1c-2.1,0.3-2.2,0.3-2.2-1.9c0-1.1,0-2.3,0-3.4c0-0.1,0-0.1,0.1-0.2
				c0.1,0,0.1-0.1,0.2-0.1c2.1-0.2,2.2-0.2,2.2,2C397.3,146.7,397.3,147.8,397.3,149z"/>
			<path d="M389.8,137c0,2,0,4,0,6c-0.7,0-1.3,0-2,0c0-2,0-4,0-6C388.4,137,389.1,137,389.8,137z"/>
			<path d="M387.3,149.4c0,1.8,0,3.5,0,5.3c-0.8,0-1.5,0-2.3,0c0-1.8,0-3.5,0-5.3C385.8,149.4,386.5,149.4,387.3,149.4z"/>
			<path d="M380.5,193.7c-0.6,0.6-1.2,1.2-1.8,1.8c-5.3,6-6.8,12.8-4.4,20.4c1.5,4.5,4.3,7.9,8.8,9.8c0.2,0.1,0.4,0.3,0.6,0.5
				c-2.6-0.8-4.8-2.3-6.5-4.4c-4.6-5.8-5.4-12.2-3.2-19.1c1-3.1,2.7-5.8,5-8C379.5,194.4,380.1,194.1,380.5,193.7
				C380.5,193.8,380.5,193.7,380.5,193.7z"/>
			<path d="M385.3,45.3c0.7,3.8,1.4,7.6,2.2,11.6c-0.6-0.1-1.1-0.1-1.8-0.2c-0.3-3.9-0.5-7.7-0.8-11.5
				C385,45.3,385.1,45.3,385.3,45.3z"/>
			<path d="M384.9,160.6c0.8,0,1.5,0,2.3,0c0,1.5,0,3.1,0,4.7c-0.8,0-1.5,0-2.3,0C384.9,163.8,384.9,162.2,384.9,160.6z"/>
			<path d="M389.7,149.1c-0.7,0-1.3,0-2,0c0-1.9,0-3.7,0-5.7c0.7,0,1.3,0,2,0C389.8,145.3,389.7,147.1,389.7,149.1z"/>
			<path d="M395.1,155.2c0.8,0,1.6,0,2.4,0c0,1.6,0,3.2,0,4.9c-0.7,0-1.5,0-2.4,0C395.1,158.5,395.1,156.9,395.1,155.2z"/>
			<path d="M397.5,165.1C397.5,165.1,397.5,165.2,397.5,165.1c-2.3,0.5-2.5,0.4-2.5-1.9c0-0.8,0-1.7,0-2.6c0.9,0,1.7,0,2.5,0
				C397.5,162.1,397.5,163.6,397.5,165.1z"/>
			<path d="M384.9,160.1c0-1.7,0-3.3,0-4.9c0.8,0,1.5,0,2.3,0c0,1.6,0,3.2,0,4.9C386.5,160.1,385.8,160.1,384.9,160.1z"/>
			<path d="M389.8,155.2c0,1.6,0,3.3,0,4.9c-0.8,0-1.4,0-2.1,0c0-1.7,0-3.2,0-4.9C388.3,155.2,389,155.2,389.8,155.2z"/>
			<path d="M389.7,154.8c-0.7,0-1.4,0-2.1,0c0-1.8,0-3.5,0-5.3c0.7,0,1.3,0,2.1,0C389.8,151.2,389.7,153,389.7,154.8z"/>
			<path d="M387.2,170.1c-0.8,0-1.6,0-2.4,0c0-1.5,0-2.9,0-4.4c0.8,0,1.6,0,2.4,0C387.2,167.1,387.2,168.6,387.2,170.1z"/>
			<path d="M389.8,160.6c0,1.6,0,3.1,0,4.7c-0.7,0-1.4,0-2.2,0c0-1.6,0-3.1,0-4.7C388.3,160.6,389,160.6,389.8,160.6z"/>
			<path d="M387.2,170.5c0,1.3,0,2.7,0,4.1c-0.8,0-1.6,0-2.4,0c0-1.3,0-2.7,0-4.1C385.6,170.5,386.3,170.5,387.2,170.5z"/>
			<path d="M387.7,165.6c0.7,0,1.4,0,2.1,0c0,1.5,0,2.9,0,4.4c-0.7,0-1.3,0-2.1,0C387.6,168.6,387.7,167.2,387.7,165.6z"/>
			<path d="M397.8,174.5c-0.9,0-1.7,0-2.6,0c0-1.3,0-2.6,0-3.9c0,0,0-0.1,0.1-0.1c2.4-0.3,2.5-0.3,2.5,2.1
				C397.8,173.1,397.8,173.7,397.8,174.5z"/>
			<path d="M387.6,170.5c0.7,0,1.4,0,2.2,0c0,1.3,0,2.7,0,4.1c-0.7,0-1.4,0-2.2,0C387.6,173.2,387.6,171.9,387.6,170.5z"/>
			<path d="M390.1,174.6c0-1.4,0-2.7,0-4.1c0.8,0,1.5,0,2.3,0c0,1.4,0,2.7,0,4.1C391.6,174.6,390.9,174.6,390.1,174.6z"/>
			<path d="M384.8,175.1c0.8,0,1.5,0,2.4,0c0,1.2,0,2.5,0,3.9c-0.8,0-1.5,0-2.4,0C384.8,177.6,384.8,176.4,384.8,175.1z"/>
			<path d="M397.8,178.7c-0.7,0-1.4,0.1-2.1,0.1c-0.2,0-0.5-0.4-0.5-0.6c-0.1-1.1,0-2.1,0-3.3c0.9,0,1.7,0,2.6,0
				C397.8,176.2,397.8,177.4,397.8,178.7z"/>
			<path d="M392.7,170.3c0.8,0.1,2.1,0.1,2.2,0.3c0.2,1.2,0.3,2.4,0,3.6c-0.1,0.3-1.4,0.3-2.2,0.5
				C392.7,173.2,392.7,171.9,392.7,170.3z"/>
			<path d="M389.8,178.9c-0.7,0-1.4,0-2.1,0c0-1.2,0-2.5,0-3.9c0.7,0,1.4-0.1,2.1-0.1C389.8,176.2,389.8,177.5,389.8,178.9z"/>
			<path d="M387.2,179.3c0,1.3,0,2.5,0,3.7c-0.8,0-1.6,0-2.4,0c0-1.2,0-2.3,0-3.6C385.5,179.3,386.3,179.3,387.2,179.3z"/>
			<path d="M392.5,170c-0.9,0-1.6,0-2.4,0c0-0.4-0.1-0.9-0.1-1.1c0.4-0.4,0.7-0.7,1-1c-0.3-0.3-0.6-0.5-1-0.9c0-0.3,0-0.8,0-1.3
				c0.1-0.1,0.2-0.1,0.2-0.1c2.6,0,2.1-0.3,2.2,2.1C392.5,168.5,392.5,169.2,392.5,170z"/>
			<path d="M395,178.9c-0.8-0.1-2.2-0.1-2.2-0.3c-0.2-1.1-0.2-2.3,0-3.5c0.1-0.3,1.4-0.3,2.2-0.4C395,176.2,395,177.4,395,178.9z"/>
			<path d="M389.8,179.3c0,1.2,0,2.4,0,3.7c-0.7,0-1.4,0-2.3,0c0-1,0-2.1,0-3.2c0-0.2,0.3-0.4,0.5-0.5
				C388.6,179.2,389.1,179.2,389.8,179.3z"/>
			<path d="M384.7,183.4c0.9,0,1.6,0,2.5,0c0,1.1,0,2.1,0,3.3c-0.8,0-1.6,0-2.5,0C384.7,185.7,384.7,184.6,384.7,183.4z"/>
			<path d="M378.9,199.7c-4.6,9.2-4,17.1,4.9,23.1C375.5,219.5,373.5,207.1,378.9,199.7z"/>
			<path d="M384.7,187.3c0.8,0,1.6-0.1,2.5-0.1c0,1.2,0,2.2,0,3.3c-0.8,0-1.6,0-2.5,0C384.7,189.4,384.7,188.4,384.7,187.3z"/>
			<path d="M390.2,186.6c0-1.1,0-2.2,0-3.3c0.7,0,1.4,0,2.2,0c0,0.4,0.1,0.8,0.1,1.2C392.7,186.8,392.6,186.9,390.2,186.6z"/>
			<path d="M387.6,186.7c0-1.1,0-2.2,0-3.3c0.8,0,1.4,0,2.2,0c0,1.1,0,2.1,0,3.3C389,186.7,388.4,186.7,387.6,186.7z"/>
			<path d="M384.1,253.1c0-0.5,0-0.9,0-1.3c-0.1-1,0.2-1.6,1.4-1.6c0.5,0,1.3-0.1,1.4,0.1c0.2,0.6,0.2,1.4,0.2,2.1
				c0,0.1-0.3,0.3-0.6,0.4C385.7,252.9,385,253,384.1,253.1z"/>
			<path d="M390.2,190.3c0-1.1,0-2.1,0-3.2c0.7,0,1.4-0.1,2.4-0.1c0,1,0,2,0,2.9c0,0.2-0.4,0.4-0.6,0.4
				C391.4,190.4,390.8,190.3,390.2,190.3z"/>
			<path d="M389.7,190.4c-0.8,0-1.4,0-2.2,0c0-0.4-0.1-0.7-0.1-1c0-0.7,0-1.4,0-2.2c0.8,0,1.5,0,2.2,0
				C389.7,188.2,389.7,189.3,389.7,190.4z"/>
			<path d="M390.2,252.2c0-0.5-0.1-0.8-0.1-1.2c0-1.1,1.4-2.1,2.3-1.4c0.4,0.3,0.4,1.1,0.4,1.6c0,0.2-0.4,0.6-0.7,0.7
				C391.6,252.1,391,252.1,390.2,252.2z"/>
			<path d="M387.2,252.7c0.2-1,0.1-2,0.5-2.6c0.2-0.3,1.6-0.4,1.9-0.1c0.4,0.5,0.3,1.4,0.5,2.2C389.1,252.4,388.3,252.5,387.2,252.7
				z"/>
			<path d="M390.4,222.7c-0.6-3-0.4-2.8,2.2-2.8C393.1,222,392.9,222.3,390.4,222.7z"/>
			<path d="M387.5,222.8c0-0.9,0-1.6,0-2.6c0.8,0,1.5-0.1,2.3-0.1c0,0.9,0,1.8,0,2.7C389,222.8,388.3,222.8,387.5,222.8z"/>
			<path d="M387,220.4c0,0.8,0,1.5,0,2.3c-1.8,0.1-2.7-0.4-2.7-1.3C384.3,220.3,384.6,220.2,387,220.4z"/>
			<path d="M364,310.4c5.2,1,10.5,0.1,15.7-0.1C374.5,311,369.3,311.4,364,310.4z"/>
			<path d="M339.8,284.4c-0.9-3.8-0.7-8.7-0.6-12.3C339.4,275.6,339.6,280.5,339.8,284.4z"/>
			<path class="st10" d="M357.2,308.5c-0.2,0.1-0.5,0.3-0.6,0.2c-2-1.2-4-2.4-5.9-3.6c0,0,0-0.1,0-0.2c0,0,0,0,0,0
				c0.2,0,0.4,0,0.6,0C353.2,306.1,355.2,307.3,357.2,308.5z"/>
			<path d="M396.3,59.7c0,3.4,0,6.7,0,10.1c-0.1,0-0.1,0-0.2,0c0-3.4,0-6.7,0-10.1C396.2,59.7,396.3,59.7,396.3,59.7z"/>
			<path class="st10" d="M348.1,241.1c-0.1-0.2-0.2-0.4-0.2-0.5c0.9-1.6,1.8-3.1,2.7-4.7c0.1,0,0.1,0,0.2,0
				C350,237.7,349,239.4,348.1,241.1z"/>
			<path d="M427.1,233.3c0.8,1.5,1.6,3.1,2.5,4.6c-0.2,0-0.4,0-0.5-0.1c-0.7-1.4-1.4-2.8-2.1-4.2C427,233.6,427.1,233.5,427.1,233.3
				z"/>
			<path class="st10" d="M398.5,194.7c1.5,0.4,2.3,1.7,3.1,2.9c0,0.1-0.2,0.3-0.2,0.5c-0.8-0.9-1.5-1.7-2.3-2.6
				C398.8,195.2,398.7,194.9,398.5,194.7z"/>
			<path class="st10" d="M350.9,236c-0.1,0-0.1,0-0.2,0c0.8-1.5,1.7-3,2.5-4.4c0-0.1,0.2,0,0.4,0C352.7,233,351.8,234.5,350.9,236z"
				/>
			<path d="M396.7,90.4c0,2.7,0,5.3,0,8c0,0-0.1,0-0.1,0c0-2.7,0-5.3,0-8C396.6,90.4,396.6,90.4,396.7,90.4z"/>
			<path class="st10" d="M400.1,220.3c-0.5,1.3-1.8,2.3-2.8,2.1C398.3,221.7,399.2,221,400.1,220.3z"/>
			<path d="M384,220.5c0,0.5,0,0.9,0,1.5c-0.7-0.4-1.3-0.8-1.9-1.2c0-0.1,0.1-0.2,0.1-0.3C382.7,220.6,383.3,220.5,384,220.5z"/>
			<path d="M434.7,259.6c0,2.7,0,5.5,0,8.2C434.7,265.1,434.7,262.4,434.7,259.6C434.7,259.6,434.7,259.6,434.7,259.6z"/>
			<path d="M351.1,304.9c-0.2,0-0.4,0-0.6,0c-0.7-0.7-1.3-1.4-2-2c-0.3-0.3-0.7-0.5-1-0.8c0.1-0.1,0.2-0.2,0.2-0.2
				C348.9,302.9,350,303.9,351.1,304.9z"/>
			<path d="M342.5,293.4c0.5,1.1,1,2.2,1.5,3.2c-0.1,0-0.1,0.1-0.2,0.1c-0.5-1.1-1.1-2.2-1.6-3.2
				C342.4,293.4,342.5,293.4,342.5,293.4z"/>
			<path d="M402.4,216.7L402.4,216.7c-0.1,0.2-0.2,0.4-0.2,0.6c-0.2,0.1-0.3,0.1-0.5,0.2l0,0C401.9,217.2,402.1,217,402.4,216.7z"/>
			<path d="M398.5,194.7c0.2,0.3,0.3,0.5,0.5,0.8C398.8,195.2,398.7,194.9,398.5,194.7C398.5,194.7,398.5,194.7,398.5,194.7z"/>
			<path d="M377.8,198.6C377.8,198.7,377.8,198.8,377.8,198.6C377.8,198.8,377.8,198.7,377.8,198.6L377.8,198.6z"/>
			<path d="M401.5,218.3L401.5,218.3L401.5,218.3C401.5,218.4,401.4,218.4,401.5,218.3c-0.1,0.1-0.1,0-0.2,0
				C401.4,218.3,401.4,218.3,401.5,218.3z"/>
			<path d="M401.6,217.9C401.6,217.9,401.6,217.9,401.6,217.9c0-0.1,0.1-0.3,0.1-0.4c0,0,0,0,0,0
				C401.6,217.6,401.6,217.8,401.6,217.9z"/>
			<polygon points="377.8,198.6 377.8,198.6 377.8,198.6 			"/>
			<polygon points="398.2,194.5 398.2,194.5 398.2,194.5 398.1,194.5 398.1,194.5 			"/>
			<path class="st10" d="M383.1,33.8c-0.4,0-0.7,0-1.2,0c-0.1,0.3-0.2,0.6-0.5,1.2c-0.4-0.5-0.8-0.8-0.8-1.2c0-0.6-0.1-1.4,0.9-1.6
				c0.3-0.1,0.6-0.3,0.9-0.5c0.3-0.1,0.6-0.3,0.9-0.4c-0.7-3-1.5-6-2.2-9c0.1,0,0.2,0,0.3-0.1c0.2,0.7,0.4,1.3,0.6,2
				c0.5,2.2,1.1,4.4,1.6,6.7c0.2,1-0.2,1.9-1.4,2.3C382.5,33.5,382.8,33.6,383.1,33.8C383.1,33.8,383.1,33.8,383.1,33.8z"/>
			<path class="st10" d="M391.9,23.5c0,0,0.2,0.2,0.4,0.3c0,0,0,0.1-0.1,0.1c-0.3-0.1-0.7-0.2-1-0.2c-0.1,0.4-0.2,0.7-0.5,1.5
				c-0.4-0.6-0.8-0.9-0.9-1.2c-0.1-0.6-0.2-1.2,0.6-1.5c0.7-0.2,1.4-0.5,2-0.8c0.1,0.1,0.2,0.2,0.2,0.3
				C392.5,22.5,392.2,22.9,391.9,23.5z"/>
			<path class="st10" d="M381.5,20.5c-0.7,0.9-1.5,1.8-2.4,2.9c-0.2-0.5-0.6-0.9-0.6-1.3c0-0.7,0.2-1.3,1.1-1.4
				c0.6-0.1,1.1-0.4,1.6-0.6C381.3,20.2,381.4,20.4,381.5,20.5z"/>
			<path class="st10" d="M392.8,43.8c0.1,0.4,0.2,1.1,0.3,1.9c0.8-0.2,0.7-1.7,2.2-1.3c-0.9,1.1-1.6,2-2.4,2.9
				C391.2,46.1,393.3,44.7,392.8,43.8z"/>
			<path class="st10" d="M383.9,32.6c0.9,3.7,1.8,7.4,2.8,11.1c-0.1,0-0.2,0-0.3,0.1c-0.9-3.7-1.8-7.4-2.7-11.1
				C383.7,32.6,383.8,32.6,383.9,32.6z"/>
			<path class="st10" d="M398.1,194.3c-0.1-0.5-0.1-0.9-0.2-1.4c0.1,0,0.2-0.1,0.3-0.1c0.5,0.4,1.1,0.8,1.8,1.4
				C399.2,194.3,398.7,194.3,398.1,194.3C398.1,194.4,398.1,194.3,398.1,194.3z"/>
			<path class="st10" d="M401.6,217.9c0-0.1,0.1-0.3,0.1-0.4c0.2-0.1,0.3-0.1,0.5-0.2l0,0c0.1,0.1,0.2,0.1,0.3,0.2
				c-0.1,0.2-0.3,0.4-0.4,0.5c0,0,0.1,0,0.1,0l0,0C401.9,218,401.7,217.9,401.6,217.9z"/>
			<path class="st10" d="M402.1,217.3c0.1-0.2,0.1-0.4,0.2-0.6c0,0.2,0,0.5,0,0.7C402.3,217.4,402.2,217.3,402.1,217.3L402.1,217.3z
				"/>
			<path d="M398.1,194.4C398.1,194.4,398.2,194.5,398.1,194.4c0,0.1,0,0.1,0,0.1C398.1,194.4,398.1,194.4,398.1,194.4L398.1,194.4z"
				/>
			<polygon points="402,218 402,217.9 402,218 			"/>
			<path d="M402.1,217.3c0.1,0.1,0.2,0.1,0.3,0.2c0,0,0,0,0,0C402.3,217.4,402.2,217.3,402.1,217.3z"/>
			<polygon points="401.5,218.3 401.5,218.4 401.5,218.4 			"/>
		</g>
	</g>
</g>
<g id="main_text" class="st0">
	<g class="st1">
		<path class="st11" d="M79.5,84.9V146H59.1l-23.8-45.4v39.6h5.6v5.8H19.7v-5.8h5.9V84.9h-5.9V79h28.2l22,43.1V84.9H64V79h21.7v5.9
			H79.5z"/>
		<path class="st11" d="M94.8,146v-5.8h5.9V84.9h-5.9V79h58.4v18.5h-15.4V84.9H124v24.3h6.8v-6.5h12.1v18.6h-12.1v-6.7H124v25.5
			h13.8v-13.9h15.4V146H94.8z"/>
		<path class="st11" d="M222.6,84.9L203.5,146h-18.7l-19.9-61.1h-5.2V79h35.9v5.9h-5.6l11.5,42.1l11.2-42.1h-5.8V79h19.9v5.9H222.6z
			"/>
		<path class="st11" d="M232.6,146v-5.8h5.9V84.9h-5.9V79H291v18.5h-15.4V84.9h-13.8v24.3h6.8v-6.5h12.1v18.6h-12.1v-6.7h-6.8v25.5
			h13.8v-13.9H291V146H232.6z"/>
		<path class="st11" d="M339.2,146v-21.4c0-1.8-0.1-3.3-0.4-4.5s-0.8-2.1-1.7-2.7c-0.8-0.7-1.9-1.1-3.2-1.4
			c-1.3-0.3-3.1-0.4-5.3-0.4h-1.7v24.6h6.6v5.8h-35.9v-5.8h5.9V84.9h-5.9V79h29.2c7.1,0,13,0.3,17.7,0.8c4.7,0.6,8.4,1.5,11.2,2.9
			c2.8,1.4,4.8,3.3,5.9,5.6c1.2,2.4,1.7,5.3,1.7,8.8c0,4.3-1.3,7.6-3.8,9.8c-2.5,2.2-6.9,3.9-13.2,5.1c3.4,0.7,6.1,1.5,8.3,2.2
			c2.2,0.8,3.8,1.7,5,2.8c1.2,1.1,2,2.6,2.4,4.2c0.4,1.7,0.6,3.8,0.6,6.3v12.6h5.6v5.8H339.2z M339.2,92.1c0-1.6-0.1-2.8-0.4-3.8
			c-0.2-0.9-0.8-1.7-1.7-2.2c-0.9-0.5-2.1-0.8-3.8-1c-1.6-0.2-3.8-0.2-6.6-0.2v25.2c2.3,0,4.3-0.1,5.9-0.2c1.6-0.1,2.9-0.4,3.8-0.8
			c1-0.4,1.7-1,2.1-1.9c0.4-0.8,0.6-1.9,0.6-3.3V92.1z"/>
	</g>
	<g id="Layer_18" class="st1">
		<path class="st11" d="M85.2,240l-16.8,36v21H76v6H37.5v-6h6.8v-19.5l-19-37.5H20v-6.1h38.1v6.1h-5.9l11.1,25.7L74.7,240h-6.3v-6.1
			h22.5v6.1H85.2z"/>
		<path class="st11" d="M161.9,284.8c-1.6,4.5-3.9,8.2-6.8,11c-3,2.8-6.5,4.8-10.6,6.1c-4.1,1.2-8.8,1.9-13.9,1.9
			c-22.7,0-34-11.8-34-35.4c0-6.5,0.8-12,2.4-16.5c1.6-4.5,3.9-8.1,6.8-10.9c3-2.8,6.5-4.8,10.7-6c4.2-1.2,8.9-1.8,14-1.8
			c6.9,0,12.5,1.1,16.9,3.3c4.4,2.2,7.8,5,10.3,8.4c2.5,3.4,4.2,7.2,5.2,11.4c0.9,4.2,1.4,8.3,1.4,12.2
			C164.3,274.8,163.5,280.3,161.9,284.8z M138,248.7c0-3.8-0.6-6.4-1.7-7.8c-1.1-1.4-3.1-2.1-5.9-2.1c-3,0-5,0.7-6.1,2.1
			c-1.1,1.4-1.7,4-1.7,7.8v39.6c0,3.7,0.6,6.3,1.7,7.7c1.1,1.4,3.1,2.1,6.1,2.1c2.8,0,4.8-0.7,5.9-2.1c1.1-1.4,1.7-4,1.7-7.7V248.7z
			"/>
		<path class="st11" d="M238.3,240v41.5c0,4.1-0.5,7.6-1.5,10.4c-1,2.8-2.6,5.1-4.9,6.9c-2.3,1.8-5.2,3-8.8,3.8
			c-3.6,0.8-7.9,1.2-13.1,1.2c-10.8,0-18.8-1.7-23.8-5.1c-5-3.4-7.6-8.8-7.6-16.1V240h-6.3v-6.1h38.4v6.1h-7.6v42.5
			c0,2.8,0.2,5.2,0.6,7c0.4,1.9,1,3.3,1.9,4.3c0.9,1,2.2,1.8,3.9,2.2c1.7,0.4,3.8,0.6,6.4,0.6c2.5,0,4.5-0.2,6-0.6
			c1.5-0.4,2.7-1.1,3.5-2.2c0.8-1.1,1.4-2.6,1.7-4.5c0.3-1.9,0.5-4.4,0.5-7.5V240h-7.8v-6.1h24.6v6.1H238.3z"/>
		<path class="st11" d="M315.9,240v63h-21.6l-25.1-46.8V297h5.9v6h-22.3v-6h6.3v-57h-6.3v-6.1h29.7l23.3,44.4V240h-6.3v-6.1h22.9
			v6.1H315.9z"/>
		<path class="st11" d="M396.4,274.7v28.2H389l-2.4-4.8c-3.3,2-6.5,3.5-9.6,4.3c-3.1,0.8-6.6,1.3-10.5,1.3c-11.1,0-19.5-3-25.3-8.9
			s-8.7-14.7-8.7-26.1c0-5.5,0.7-10.5,2.2-14.9c1.5-4.4,3.6-8.2,6.5-11.2c2.8-3.1,6.2-5.4,10.3-7.1c4-1.7,8.5-2.5,13.6-2.5
			c3.8,0,7.3,0.4,10.4,1.2c3.1,0.8,6.5,2.1,10.1,4l2.4-4.2h8.5V255h-17.2v-8.4c0-0.9-0.2-1.8-0.5-2.7c-0.3-0.9-0.9-1.8-1.7-2.6
			c-0.8-0.8-1.8-1.4-3.1-1.9c-1.3-0.5-2.9-0.8-4.9-0.8c-3.7,0-6.3,1-7.9,3.1c-1.5,2.1-2.3,5.6-2.3,10.7v33.5c0,2.2,0.1,4.1,0.4,5.5
			c0.2,1.4,0.6,2.6,1.2,3.4c0.6,0.8,1.3,1.4,2.3,1.7c1,0.3,2.2,0.5,3.7,0.5c2.5,0,4.2-0.6,5.1-1.9c0.9-1.3,1.4-3.5,1.4-6.8v-13.5h-7
			v-5.7h38v5.7H396.4z"/>
	</g>
	<g id="Layer_19" class="st1">
		<path class="st11" d="M178.3,205.5c-1.6,4.7-3.9,8.4-6.9,11.3c-3,2.8-6.7,4.8-11.1,6c-4.4,1.2-9.5,1.8-15.2,1.8h-29v-6h5.6v-57.4
			H116V155h30.4c5.6,0,10.6,0.6,14.8,1.8c4.3,1.2,7.9,3.1,10.7,5.8c2.9,2.6,5,6.1,6.5,10.2c1.5,4.2,2.2,9.2,2.2,15.1
			C180.7,195,179.9,200.8,178.3,205.5z M157.1,174.9c-0.1-3.5-0.5-6.2-1.3-8.2s-2-3.5-3.7-4.3c-1.7-0.8-4.1-1.2-7.2-1.2h-1.3v57.4h3
			c2.3,0,4.2-0.3,5.6-1c1.4-0.6,2.5-2,3.3-4.2c0.8-2.1,1.3-5.2,1.5-9.2c0.2-4,0.3-9.4,0.3-16.2C157.2,182.7,157.2,178.3,157.1,174.9
			z"/>
		<path class="st11" d="M189.9,224.6v-6h5.6v-57.4h-5.6V155h33.2v6.1h-5.6v57.4h5.6v6H189.9z"/>
		<path class="st11" d="M231.8,224.6v-6h5.6v-57.4h-5.6V155h55.1v19.1h-14.5v-13h-13v25.3h6.4v-6.7h11.4V199h-11.4v-6.9h-6.4v26.5
			h13v-14.5h14.5v20.5H231.8z"/>
	</g>
</g>
<g id="Layer_28">
	<text transform="matrix(2.5068 0 0 1 15.3281 169.4297)" class="st12 st13 st14">NDY</text>
</g>
<g id="SUBTEXT" class="st0">
	<g id="text" class="st1">
		<path class="st15" d="M27.3,339.6c0,0,1.3,0,2-2.3l4-11.6c0.5-1.6,0.4-2.2,0-3.2c0.7,0,1.4,0,2.1,0c2.1,0,2.5,0.2,3.2,2.3
			l4.1,12.5c0.8,2.4,1.9,2.3,1.9,2.3v0.3h-7.8v-0.3c0,0,1.7-0.1,0.8-2.8l-1.1-3.4h-5c-0.4,1-0.7,2.1-1.1,3.1c-1,3,0.7,3,0.7,3v0.3
			h-4V339.6z M36.2,332.3l-2.1-6.5l-2.1,6.5H36.2z"/>
		<path class="st15" d="M58.3,327.2H58l0.4-4.6h14.1l0.3,4.8h-0.3c0,0-0.2-3.7-2.7-3.7h-2.2v13.8c0,2.3,2,2.3,2,2.3v0.3h-8.5v-0.3
			c0,0,1.9-0.2,1.9-2.3v-13.8l-1.9,0C58.6,323.5,58.5,327.2,58.3,327.2z"/>
		<path class="st15" d="M97,340.7c0,0-1.5,3.8-5.7,3.8c-4.1,0-6.4-5-7.5-7.9c-0.5-1.3-1-3-2.4-3.7c-0.8,0.1-1.6,0-1.6,0v4.5
			c0,2.1,1.7,2.3,1.7,2.3v0.3h-7.8v-0.3c0,0,1.5-0.1,1.5-2.3v-4.4c-1.8,0.1-2.7,0.7-2.7,1.9c0,0.9,0.5,1.8,1.5,1.9
			c-0.6,1-4.7,1.3-4.7-1.7c0-2.9,4-3,5.8-3h4.6c0.7,0,1.2,0,1.6-0.1c1.8-0.4,2.7-2,2.7-4.2c0-3-1.8-5.3-4.4-4.3v8h-4.6v-6
			c0-2.3-1.5-2.3-1.5-2.3v-0.4h8.2c1.6,0,2.9,0.2,3.9,0.5c2,0.7,3,2.2,3,4.4c0,2.2-1.1,3.9-3.2,4.6c-1,0.3-1.9,0.5-2.2,0.5
			C89.6,333.6,88.4,343.5,97,340.7z"/>
		<path class="st15" d="M91.5,322.8v-0.3h7.7v0.3c-0.6,0-1.6,0.6-1.6,1.9v13.1c0,1.5,1.2,1.9,1.6,1.9v0.3h-7.7v-0.3
			c0.4,0,1.6-0.3,1.6-1.9v-13.1C93.1,323.2,92,322.8,91.5,322.8z"/>
		<path class="st15" d="M100.2,339.6c0,0,1.8-0.1,1.8-1.8v-13.1c0-2-1.8-1.8-1.8-1.8v-0.4c3,0,6.2,0.1,9.2,0.1
			c2.3,0,4.5,0.5,4.6,3.3c0.1,2-1.3,3.4-3.2,3.4c2.3,0.3,4,2.3,4.1,5c0.2,4.1-2.6,5.6-6.8,5.6h-7.9V339.6z M109.6,326.2
			c0-1.5-0.9-3-2.2-3c-0.2,0-0.7,0.1-0.9,0.1v5.9C108.6,329.2,109.6,328.4,109.6,326.2z M108.3,338.8c1.6,0,2-1.9,2-4.2
			c0-2.6-0.8-4.7-2.7-4.7h-1v6.2C106.5,337.6,106.9,338.8,108.3,338.8z"/>
		<path class="st15" d="M115.5,322.9v-0.4h8.1v0.3c0,0-1.8,0.3-1.8,2.4v8.8c0,3.1,0.8,4.8,3.5,4.8c2.6,0,3.3-2,3.3-4.9v-8.8
			c0-2.4-1.8-2.4-1.8-2.4v-0.3h4.5v0.3c0,0-1.7,0.1-1.7,2.4v8.6c0,4.3-1.9,6.1-5.2,6.1c-3.9,0-7.1-1.2-7.1-6.1v-8.6
			C117.3,323,115.5,322.9,115.5,322.9z"/>
		<path class="st15" d="M132.3,327.2H132l0.4-4.6h14.1l0.3,4.8h-0.3c0,0-0.2-3.7-2.7-3.7h-2.2v13.8c0,2.3,2,2.3,2,2.3v0.3h-8.5v-0.3
			c0,0,1.9-0.2,1.9-2.3v-13.8l-1.9,0C132.5,323.5,132.4,327.2,132.3,327.2z"/>
		<path class="st15" d="M147.8,340v-0.3c0,0,1.5,0.1,1.5-1.8v-13.1c0-1.8-1.5-1.8-1.5-1.8v-0.4h13.3l0.1,4h-0.3
			c-0.1-2-0.6-3-1.7-3.2c-0.3-0.1-0.7-0.1-1.2-0.1h-4.1v7.3h3.7c1.3,0,2.1-0.4,2.3-2.3h0.3c-0.1,1.9-0.1,3.7,0,5.5h-0.3
			c-0.2-1.9-0.9-2.3-2.3-2.3h-3.7v5.5c0,0.7,0.1,1.2,0.1,1.5c0.1,0.3,0.3,0.5,0.5,0.6c0.3,0.1,0.7,0.1,1.3,0.1h2.9
			c1.7,0,2.7-1.3,2.9-3.5h0.4l-0.3,4.3H147.8z"/>
		<path class="st15" d="M175.3,327.2H175l0.4-4.6h14.1l0.3,4.8h-0.3c0,0-0.2-3.7-2.7-3.7h-2.2v13.8c0,2.3,2,2.3,2,2.3v0.3h-8.5v-0.3
			c0,0,1.9-0.2,1.9-2.3v-13.8l-1.9,0C175.6,323.5,175.5,327.2,175.3,327.2z"/>
		<path class="st15" d="M190.5,331.3c0-6.3,3.7-8.9,8.1-8.9c4.4,0,8,3.2,8,8.7c0,5.5-3.2,8.6-7.6,8.7
			C194.6,340,190.5,337.6,190.5,331.3z M198.3,323.3c-2.8,0-3.1,5.3-3,7.9c0,2.6,0.6,7.8,3.5,7.7c2.9-0.1,3-5.2,2.9-7.8
			C201.6,328.5,201.2,323.3,198.3,323.3z"/>
		<path class="st15" d="M225.2,338.4c0,5.3-3.1,7.6-5.9,7.6c-2.9,0-4.3-1.3-4.3-2.9c0-1.6,1.4-3.3,4-2.6c-1.5,0.9-1.5,4.7,0.2,4.7
			c1.6,0,1.4-4.1,1.4-6.8v-13.7c0-1.2-0.9-1.9-1.6-1.9v-0.3h7.7v0.3c-0.5,0-1.6,0.3-1.6,1.9V338.4z"/>
		<path class="st15" d="M225.2,339.6c0,0,1.3,0,2-2.3l4-11.6c0.5-1.6,0.4-2.2,0-3.2c0.7,0,1.4,0,2.1,0c2.1,0,2.5,0.2,3.2,2.3
			l4.1,12.5c0.8,2.4,1.9,2.3,1.9,2.3v0.3h-7.8v-0.3c0,0,1.7-0.1,0.8-2.8l-1.1-3.4h-5c-0.4,1-0.7,2.1-1.1,3.1c-1,3,0.7,3,0.7,3v0.3
			h-4V339.6z M234.1,332.3l-2.1-6.5l-2.1,6.5H234.1z"/>
		<path class="st15" d="M244.3,339.5c0,0,1.6,0,1.6-1.8l0-13.1c0-1.7-1.3-1.9-1.3-1.9v-0.3h5.6l0.5,1.6l2.7,8.4l3-8.3l0.5-1.6h5.4
			v0.3c0,0-1.3,0.4-1.3,2.3l0.1,12.1c0,2.2,1.7,2.3,1.7,2.3v0.3h-7.5v-0.3c0,0,1.3-0.1,1.3-2.3l0-11.2l-5,13.9l-0.3,0l-4.7-13.9
			l0,11.7c0,2,1.5,1.7,1.5,1.8v0.3h-4V339.5z"/>
		<path class="st15" d="M263.8,340v-0.3c0,0,1.5,0.1,1.5-1.8v-13.1c0-1.8-1.5-1.8-1.5-1.8v-0.4h13.3l0.1,4h-0.3
			c-0.1-2-0.6-3-1.7-3.2c-0.3-0.1-0.7-0.1-1.2-0.1h-4.1v7.3h3.7c1.3,0,2.1-0.4,2.3-2.3h0.3c-0.1,1.9-0.1,3.7,0,5.5h-0.3
			c-0.2-1.9-0.9-2.3-2.2-2.3h-3.7v5.5c0,0.7,0.1,1.2,0.1,1.5c0.1,0.3,0.3,0.5,0.5,0.6c0.3,0.1,0.7,0.1,1.3,0.1h2.9
			c1.7,0,2.7-1.3,2.9-3.5h0.4l-0.3,4.3H263.8z"/>
		<path class="st15" d="M279.9,340l-0.5-5.1h0.3c0.8,3.7,2.5,4.5,4.1,4.4c1.3,0,2.3-1,2.3-2.5c0-1.6-2-2.7-2.9-3.4
			c-0.9-0.7-1.6-1.3-2-1.7c-1.3-1.2-1.8-2.6-1.9-4.1c-0.1-3.3,2.3-5.1,5.4-5c1.3,0,2,0.3,3.1,1c0.7,0.4,0.9-1,0.9-1h0.2l0.3,4.8
			h-0.2c-0.7-3-2.4-4.1-3.7-4.1c-1.1,0.1-2,0.8-2,2c0,1.6,2,2.8,3,3.5c0.7,0.5,1.4,1,1.9,1.5c1.5,1.4,2.3,3,2.3,4.6
			c0.1,2.8-2,5.3-5.6,5.3C283.1,340,281.6,340,279.9,340z"/>
		<path class="st15" d="M304,327.2h-0.3l0.4-4.6h14.1l0.3,4.8h-0.3c0,0-0.2-3.7-2.7-3.7h-2.2v13.8c0,2.3,2,2.3,2,2.3v0.3h-8.5v-0.3
			c0,0,1.9-0.2,1.9-2.3v-13.8l-1.9,0C304.2,323.5,304.1,327.2,304,327.2z"/>
		<path class="st15" d="M316.2,339.6c0,0,1.3,0,2-2.3l4-11.6c0.5-1.6,0.4-2.2,0-3.2c0.7,0,1.4,0,2.1,0c2.1,0,2.5,0.2,3.2,2.3
			l4.1,12.5c0.8,2.4,1.9,2.3,1.9,2.3v0.3h-7.8v-0.3c0,0,1.7-0.1,0.8-2.8l-1.1-3.4h-5c-0.4,1-0.7,2.1-1.1,3.1c-1,3,0.7,3,0.7,3v0.3
			h-4V339.6z M325.1,332.3l-2.1-6.5l-2.1,6.5H325.1z"/>
		<path class="st15" d="M330.4,322.8v-0.3h8.6v0.3c-1.1,0.1-1.4,1-0.2,3.5l2.4,4.8l2.7-5.1c1.2-2.1,1.4-3.1,0.1-3.2v-0.3h3.7v0.3
			c-0.9,0-1.9,1.7-2.6,3l-2.8,5.2c-0.6,1.3-1.1,2.3-1.1,4l0,2c0,2.6,1.4,2.6,1.4,2.6v0.3h-7.1v-0.3c0,0,1.4,0,1.5-2.2
			c0,0,0.1-1.1,0-2.6c0-1.6-0.3-2.4-1-3.7l-2.8-5.1C332.6,324.7,331.6,322.8,330.4,322.8z"/>
		<path class="st15" d="M348.8,340v-0.3c0.9,0.1,1.8-0.9,1.8-2.3v-12.1c0-1.7-0.7-2.5-1.6-2.4v-0.3h7.8v0.3
			c-0.9,0.1-1.6,0.3-1.6,2.4v12.2c0,1.4,0.4,1.9,1.8,1.9h1.9c0.5,0,0.9-0.1,1.3-0.3c0.9-0.5,1.5-2.2,2-3.3h0.3l-1.3,4.3H348.8z"/>
		<path class="st15" d="M363.5,331.3c0-6.3,3.7-8.9,8.1-8.9c4.4,0,8,3.2,8,8.7c0,5.5-3.2,8.6-7.6,8.7
			C367.6,340,363.5,337.6,363.5,331.3z M371.3,323.3c-2.8,0-3.1,5.3-3,7.9c0,2.6,0.6,7.8,3.5,7.7c2.9-0.1,3-5.2,2.9-7.8
			C374.6,328.5,374.2,323.3,371.3,323.3z"/>
		<path class="st15" d="M404,340.7c0,0-1.5,3.8-5.7,3.8c-4.1,0-6.4-5-7.5-7.9c-0.5-1.3-1-3-2.4-3.7c-0.8,0.1-1.6,0-1.6,0v4.5
			c0,2.1,1.7,2.3,1.7,2.3v0.3h-7.8v-0.3c0,0,1.5-0.1,1.5-2.3v-4.4c-1.8,0.1-2.7,0.7-2.7,1.9c0,0.9,0.5,1.8,1.5,1.9
			c-0.6,1-4.7,1.3-4.7-1.7c0-2.9,4-3,5.8-3h4.6c0.7,0,1.2,0,1.6-0.1c1.8-0.4,2.7-2,2.7-4.2c0-3-1.8-5.3-4.4-4.3v8h-4.6v-6
			c0-2.3-1.5-2.3-1.5-2.3v-0.4h8.2c1.6,0,2.9,0.2,3.9,0.5c2,0.7,3,2.2,3,4.4c0,2.2-1.1,3.9-3.2,4.6c-1,0.3-1.9,0.5-2.2,0.5
			C396.6,333.6,395.4,343.5,404,340.7z"/>
	</g>
	<g id="lines" class="st1">
		<line class="st16" x1="2" y1="316" x2="421" y2="316"/>
		<line class="st16" x1="2" y1="348" x2="424" y2="348"/>
	</g>
</g>
<g id="scrolls">
</g>
<g id="bottom_scroll">
	<path class="st2" d="M16.4,205.8c2.1,7.6,32.4,7.5,39.4,5.4c29.9-8.8,60.1-14.7,90-23.3c9.6-2.8,19.2-6.2,29.1-7.1
		c6-0.5,19.2,0.2,24.9,2.2c14.5,8.7,13.9,25.9,4.1,39.1c-4.3,5.8-9.7,8.4-16.8,7.3c-6.9-1.1-9.6-6-10.4-10.5
		c-7.5-3.4-13.5-6.1-19.4-9c-2.7-1.3-4.9-3.6-7.6-4.9c-4.9-2.5-9.8-1.8-14.2,1.5c-3.7,2.7-5.2,6.5-4.7,11.1c0.6,5.1,4.2,7.8,9.6,7.1
		c5.8-0.8,10.4-5.5,8.8-10.1c-0.7-2.1-3.6-3.5-6.5-6.1c0.8-1.3,2.8-1.6,5.2-0.1c4.6,2.7,5.2,9.7,1.4,14.3c-4.2,4.9-14.9,10.3-21.1,7
		c-4-2.1-6.2-7.6-6.2-15.2c0-6.8,9.4-12.3,16.4-13.2c5.8-0.7,11.1,0.2,16.1,3.7c4.6,3.2,9.8,5.8,14.9,7.9c3.6,1.5,6.8,0.6,8.9-3.8
		c1.1-2.3,4.2-3.7,6.6-5.2c0.2-0.1,2.4,2.1,2.7,3.5c0.9,3.9-1.5,6-4.7,7.4c-1.3,0.6-2.8,1.1-4.1,1.6c0.7,8.6,9.7,10.8,14.6,3.6
		c5.2-7.6,4.1-10.9,3.1-18.5c-1.6-9.5-13-13-23.8-13c-11.2-0.1-25.5,2.5-36.3,5.4c-31.6,8.7-48.3,14.1-79.8,23.3
		c-7.9,2.3-16.2,4.2-24.4,4.5c-11,0.5-28.3-6.7-28.4-18c-0.1-6.4,0.8-10.1,6.2-13c3.1-2.2,6.2-5.4,13.5-4.3c6.3,0.8,8.8,5.4,6.2,9.8
		c-4.6,7.8-3.1-1.1-13.5,6.5"/>
	<path class="st2" d="M410.2,205.9c-2.1,7.6-33.3,7.5-40.5,5.4c-30.8-8.8-61.8-14.7-92.6-23.3c-9.8-2.8-19.7-6.2-29.9-7.1
		c-6.1-0.5-19.7,0.2-25.6,2.2c-14.9,8.7-14.3,25.9-4.3,39.1c4.4,5.8,10,8.4,17.3,7.3c7.1-1.1,9.9-6,10.7-10.5
		c7.7-3.4,13.9-6.1,19.9-9c2.7-1.3,5-3.6,7.8-4.9c5.1-2.5,10-1.8,14.6,1.5c3.8,2.7,5.4,6.5,4.9,11.1c-0.6,5.1-4.4,7.8-9.9,7.1
		c-6-0.8-10.7-5.5-9.1-10.1c0.7-2.1,3.7-3.5,6.7-6.1c-0.9-1.3-2.9-1.6-5.4-0.1c-4.7,2.7-5.4,9.7-1.4,14.3c4.3,4.9,15.4,10.3,21.8,7
		c4.1-2.1,6.4-7.6,6.4-15.2c0-6.8-9.6-12.3-16.9-13.2c-5.9-0.7-11.4,0.2-16.6,3.7c-4.7,3.2-10,5.8-15.4,7.9c-3.7,1.5-7,0.6-9.1-3.8
		c-1.1-2.3-4.3-3.7-6.8-5.2c-0.2-0.1-2.5,2.1-2.8,3.5c-0.9,3.9,1.6,6,4.8,7.4c1.4,0.6,2.8,1.1,4.2,1.6c-0.7,8.6-10,10.8-15,3.6
		c-5.3-7.6-4.3-10.9-3.2-18.5c1.6-9.5,13.4-13,24.5-13c11.5-0.1,26.2,2.5,37.3,5.4c32.6,8.7,49.7,14.1,82.1,23.3
		c8.1,2.3,16.7,4.2,25.1,4.5c11.3,0.5,29.1-6.7,29.3-18c0.1-6.4-0.8-10.1-6.4-13c-3.2-2.2-6.4-5.4-13.9-4.3
		c-6.5,0.8-9.1,5.4-6.4,9.8c4.8,7.8,3.2-1.1,13.9,6.5"/>
	<g id="dots_1_">
		<path class="st3" d="M308.6,210.8l2.8,6.1c1,2.3,3.4,5.2,4.9,6.1l1,0.6c0.4,0.2,0.7,0.3,0.9,0.2l1.6-1.2c0.2-0.1,0.2-0.4,0.2-0.7
			l-0.1-0.8c-0.2-1.6-2.4-5-4.4-6.8l-5.3-4.8C308.3,207.9,307.6,208.5,308.6,210.8z"/>
		<path class="st3" d="M305.7,215.5l0.1,4.8c0.1,1.8,0.8,4.3,1.5,5.3l0.5,0.7c0.2,0.3,0.4,0.4,0.6,0.4l1.4-0.3
			c0.1,0,0.2-0.2,0.3-0.4l0.1-0.5c0.3-1.1-0.2-4-1-5.7l-2.2-4.6C306.3,213.5,305.7,213.7,305.7,215.5z"/>
		<path class="st3" d="M314.8,209.5l3.5,3.3c1.3,1.2,3.6,2.5,4.8,2.7l0.8,0.1c0.3,0,0.6,0,0.7-0.1l0.8-1.2c0.1-0.1,0-0.3-0.1-0.5
			l-0.3-0.5c-0.6-1-2.9-2.7-4.7-3.3l-4.8-1.7C313.8,207.7,313.5,208.3,314.8,209.5z"/>
		<path class="st3" d="M109.5,209.9l-5.5,3.9c-2.1,1.5-4.5,4.3-5.1,5.9l-0.4,1.1c-0.2,0.5-0.2,0.8,0,0.9l1.5,1.4
			c0.1,0.1,0.4,0.1,0.7,0l0.7-0.2c1.6-0.5,4.5-3.3,5.9-5.6l3.7-6.1C112.3,209.1,111.6,208.4,109.5,209.9z"/>
		<path class="st3" d="M104.4,207.9l-4.7,1c-1.8,0.4-4.1,1.6-4.9,2.5l-0.6,0.6c-0.2,0.3-0.3,0.5-0.3,0.6l0.6,1.3
			c0.1,0.1,0.2,0.2,0.5,0.2l0.5,0c1.2,0.1,3.8-0.9,5.4-2.1l4.1-3C106.5,208.1,106.2,207.5,104.4,207.9z"/>
		<path class="st3" d="M112,215.7l-2.6,4c-1,1.5-1.8,4-1.7,5.3l0,0.8c0,0.3,0.1,0.6,0.3,0.6l1.3,0.5c0.1,0,0.3,0,0.5-0.2l0.4-0.4
			c0.9-0.8,2.1-3.4,2.3-5.3l0.8-5C113.6,214.4,112.9,214.2,112,215.7z"/>
		<path class="st3" d="M209.6,227.4l-2,9.6c-0.7,3.6-0.5,9.1,0.5,11.4l0.7,1.6c0.3,0.7,0.6,1,0.9,1h3c0.3,0,0.5-0.2,0.8-0.7l0.5-1
			c1.2-2.1,1.5-8,0.6-11.8l-2.2-10.2C211.7,223.7,210.3,223.8,209.6,227.4z"/>
		<path class="st3" d="M202.1,230.4l-3.9,5.8c-1.5,2.2-2.8,5.8-2.8,7.6l0,1.2c0,0.5,0.1,0.8,0.3,0.9l1.9,0.8c0.2,0.1,0.4,0,0.7-0.2
			l0.6-0.5c1.3-1.1,3.1-4.9,3.6-7.6l1.3-7.3C204.5,228.5,203.6,228.2,202.1,230.4z"/>
		<path class="st3" d="M218,231.2l1.3,6.9c0.5,2.6,2.1,6.1,3.4,7.3l0.9,0.8c0.4,0.4,0.7,0.5,0.9,0.4l1.9-0.8
			c0.2-0.1,0.3-0.3,0.3-0.7l0.1-0.8c0.2-1.7-1.2-5.7-2.8-7.9l-4.2-6.1C218.4,228.1,217.5,228.6,218,231.2z"/>
	</g>
</g>
<g id="Layer_26" class="st0">
	<rect x="21.5" y="79.5" class="st17" width="384" height="262"/>
</g>
<g id="Layer_25">
</g>
</svg>
